%TF.GenerationSoftware,KiCad,Pcbnew,(6.0.5-0)*%
%TF.CreationDate,2022-06-24T20:58:36-04:00*%
%TF.ProjectId,SpaceCadet,53706163-6543-4616-9465-742e6b696361,rev?*%
%TF.SameCoordinates,Original*%
%TF.FileFunction,AssemblyDrawing,Bot*%
%FSLAX46Y46*%
G04 Gerber Fmt 4.6, Leading zero omitted, Abs format (unit mm)*
G04 Created by KiCad (PCBNEW (6.0.5-0)) date 2022-06-24 20:58:36*
%MOMM*%
%LPD*%
G01*
G04 APERTURE LIST*
%TA.AperFunction,Profile*%
%ADD10C,0.100000*%
%TD*%
%ADD11C,0.300000*%
G04 APERTURE END LIST*
D10*
X64250000Y-81300000D02*
X533250000Y-81300000D01*
X533250000Y-81300000D02*
X533250000Y-247900000D01*
X533250000Y-247900000D02*
X64250000Y-247900000D01*
X64250000Y-247900000D02*
X64250000Y-81300000D01*
D11*
X24905476Y-232794761D02*
X26048333Y-232794761D01*
X25476904Y-234794761D02*
X25476904Y-232794761D01*
X26715000Y-234794761D02*
X26715000Y-233461428D01*
X26715000Y-233842380D02*
X26810238Y-233651904D01*
X26905476Y-233556666D01*
X27095952Y-233461428D01*
X27286428Y-233461428D01*
X28810238Y-234794761D02*
X28810238Y-233747142D01*
X28715000Y-233556666D01*
X28524523Y-233461428D01*
X28143571Y-233461428D01*
X27953095Y-233556666D01*
X28810238Y-234699523D02*
X28619761Y-234794761D01*
X28143571Y-234794761D01*
X27953095Y-234699523D01*
X27857857Y-234509047D01*
X27857857Y-234318571D01*
X27953095Y-234128095D01*
X28143571Y-234032857D01*
X28619761Y-234032857D01*
X28810238Y-233937619D01*
X30619761Y-234699523D02*
X30429285Y-234794761D01*
X30048333Y-234794761D01*
X29857857Y-234699523D01*
X29762619Y-234604285D01*
X29667380Y-234413809D01*
X29667380Y-233842380D01*
X29762619Y-233651904D01*
X29857857Y-233556666D01*
X30048333Y-233461428D01*
X30429285Y-233461428D01*
X30619761Y-233556666D01*
X32238809Y-234699523D02*
X32048333Y-234794761D01*
X31667380Y-234794761D01*
X31476904Y-234699523D01*
X31381666Y-234509047D01*
X31381666Y-233747142D01*
X31476904Y-233556666D01*
X31667380Y-233461428D01*
X32048333Y-233461428D01*
X32238809Y-233556666D01*
X32334047Y-233747142D01*
X32334047Y-233937619D01*
X31381666Y-234128095D01*
X35476904Y-234699523D02*
X35286428Y-234794761D01*
X34905476Y-234794761D01*
X34715000Y-234699523D01*
X34619761Y-234509047D01*
X34619761Y-233747142D01*
X34715000Y-233556666D01*
X34905476Y-233461428D01*
X35286428Y-233461428D01*
X35476904Y-233556666D01*
X35572142Y-233747142D01*
X35572142Y-233937619D01*
X34619761Y-234128095D01*
X36238809Y-234794761D02*
X37286428Y-233461428D01*
X36238809Y-233461428D02*
X37286428Y-234794761D01*
X37762619Y-233461428D02*
X38524523Y-233461428D01*
X38048333Y-232794761D02*
X38048333Y-234509047D01*
X38143571Y-234699523D01*
X38334047Y-234794761D01*
X38524523Y-234794761D01*
X39953095Y-234699523D02*
X39762619Y-234794761D01*
X39381666Y-234794761D01*
X39191190Y-234699523D01*
X39095952Y-234509047D01*
X39095952Y-233747142D01*
X39191190Y-233556666D01*
X39381666Y-233461428D01*
X39762619Y-233461428D01*
X39953095Y-233556666D01*
X40048333Y-233747142D01*
X40048333Y-233937619D01*
X39095952Y-234128095D01*
X40905476Y-233461428D02*
X40905476Y-234794761D01*
X40905476Y-233651904D02*
X41000714Y-233556666D01*
X41191190Y-233461428D01*
X41476904Y-233461428D01*
X41667380Y-233556666D01*
X41762619Y-233747142D01*
X41762619Y-234794761D01*
X43572142Y-234794761D02*
X43572142Y-232794761D01*
X43572142Y-234699523D02*
X43381666Y-234794761D01*
X43000714Y-234794761D01*
X42810238Y-234699523D01*
X42715000Y-234604285D01*
X42619761Y-234413809D01*
X42619761Y-233842380D01*
X42715000Y-233651904D01*
X42810238Y-233556666D01*
X43000714Y-233461428D01*
X43381666Y-233461428D01*
X43572142Y-233556666D01*
X44429285Y-234699523D02*
X44619761Y-234794761D01*
X45000714Y-234794761D01*
X45191190Y-234699523D01*
X45286428Y-234509047D01*
X45286428Y-234413809D01*
X45191190Y-234223333D01*
X45000714Y-234128095D01*
X44715000Y-234128095D01*
X44524523Y-234032857D01*
X44429285Y-233842380D01*
X44429285Y-233747142D01*
X44524523Y-233556666D01*
X44715000Y-233461428D01*
X45000714Y-233461428D01*
X45191190Y-233556666D01*
X47381666Y-233461428D02*
X48143571Y-233461428D01*
X47667380Y-232794761D02*
X47667380Y-234509047D01*
X47762619Y-234699523D01*
X47953095Y-234794761D01*
X48143571Y-234794761D01*
X49095952Y-234794761D02*
X48905476Y-234699523D01*
X48810238Y-234604285D01*
X48715000Y-234413809D01*
X48715000Y-233842380D01*
X48810238Y-233651904D01*
X48905476Y-233556666D01*
X49095952Y-233461428D01*
X49381666Y-233461428D01*
X49572142Y-233556666D01*
X49667380Y-233651904D01*
X49762619Y-233842380D01*
X49762619Y-234413809D01*
X49667380Y-234604285D01*
X49572142Y-234699523D01*
X49381666Y-234794761D01*
X49095952Y-234794761D01*
X51857857Y-233461428D02*
X52619761Y-233461428D01*
X52143571Y-232794761D02*
X52143571Y-234509047D01*
X52238809Y-234699523D01*
X52429285Y-234794761D01*
X52619761Y-234794761D01*
X53286428Y-234794761D02*
X53286428Y-232794761D01*
X54143571Y-234794761D02*
X54143571Y-233747142D01*
X54048333Y-233556666D01*
X53857857Y-233461428D01*
X53572142Y-233461428D01*
X53381666Y-233556666D01*
X53286428Y-233651904D01*
X55857857Y-234699523D02*
X55667380Y-234794761D01*
X55286428Y-234794761D01*
X55095952Y-234699523D01*
X55000714Y-234509047D01*
X55000714Y-233747142D01*
X55095952Y-233556666D01*
X55286428Y-233461428D01*
X55667380Y-233461428D01*
X55857857Y-233556666D01*
X55953095Y-233747142D01*
X55953095Y-233937619D01*
X55000714Y-234128095D01*
X25953095Y-237919523D02*
X25762619Y-238014761D01*
X25381666Y-238014761D01*
X25191190Y-237919523D01*
X25095952Y-237729047D01*
X25095952Y-236967142D01*
X25191190Y-236776666D01*
X25381666Y-236681428D01*
X25762619Y-236681428D01*
X25953095Y-236776666D01*
X26048333Y-236967142D01*
X26048333Y-237157619D01*
X25095952Y-237348095D01*
X27762619Y-238014761D02*
X27762619Y-236014761D01*
X27762619Y-237919523D02*
X27572142Y-238014761D01*
X27191190Y-238014761D01*
X27000714Y-237919523D01*
X26905476Y-237824285D01*
X26810238Y-237633809D01*
X26810238Y-237062380D01*
X26905476Y-236871904D01*
X27000714Y-236776666D01*
X27191190Y-236681428D01*
X27572142Y-236681428D01*
X27762619Y-236776666D01*
X29572142Y-236681428D02*
X29572142Y-238300476D01*
X29476904Y-238490952D01*
X29381666Y-238586190D01*
X29191190Y-238681428D01*
X28905476Y-238681428D01*
X28715000Y-238586190D01*
X29572142Y-237919523D02*
X29381666Y-238014761D01*
X29000714Y-238014761D01*
X28810238Y-237919523D01*
X28715000Y-237824285D01*
X28619761Y-237633809D01*
X28619761Y-237062380D01*
X28715000Y-236871904D01*
X28810238Y-236776666D01*
X29000714Y-236681428D01*
X29381666Y-236681428D01*
X29572142Y-236776666D01*
X31286428Y-237919523D02*
X31095952Y-238014761D01*
X30715000Y-238014761D01*
X30524523Y-237919523D01*
X30429285Y-237729047D01*
X30429285Y-236967142D01*
X30524523Y-236776666D01*
X30715000Y-236681428D01*
X31095952Y-236681428D01*
X31286428Y-236776666D01*
X31381666Y-236967142D01*
X31381666Y-237157619D01*
X30429285Y-237348095D01*
X34048333Y-238014761D02*
X33857857Y-237919523D01*
X33762619Y-237824285D01*
X33667380Y-237633809D01*
X33667380Y-237062380D01*
X33762619Y-236871904D01*
X33857857Y-236776666D01*
X34048333Y-236681428D01*
X34334047Y-236681428D01*
X34524523Y-236776666D01*
X34619761Y-236871904D01*
X34715000Y-237062380D01*
X34715000Y-237633809D01*
X34619761Y-237824285D01*
X34524523Y-237919523D01*
X34334047Y-238014761D01*
X34048333Y-238014761D01*
X35286428Y-236681428D02*
X36048333Y-236681428D01*
X35572142Y-238014761D02*
X35572142Y-236300476D01*
X35667380Y-236110000D01*
X35857857Y-236014761D01*
X36048333Y-236014761D01*
X37953095Y-236681428D02*
X38715000Y-236681428D01*
X38238809Y-236014761D02*
X38238809Y-237729047D01*
X38334047Y-237919523D01*
X38524523Y-238014761D01*
X38715000Y-238014761D01*
X39381666Y-238014761D02*
X39381666Y-236014761D01*
X40238809Y-238014761D02*
X40238809Y-236967142D01*
X40143571Y-236776666D01*
X39953095Y-236681428D01*
X39667380Y-236681428D01*
X39476904Y-236776666D01*
X39381666Y-236871904D01*
X41953095Y-237919523D02*
X41762619Y-238014761D01*
X41381666Y-238014761D01*
X41191190Y-237919523D01*
X41095952Y-237729047D01*
X41095952Y-236967142D01*
X41191190Y-236776666D01*
X41381666Y-236681428D01*
X41762619Y-236681428D01*
X41953095Y-236776666D01*
X42048333Y-236967142D01*
X42048333Y-237157619D01*
X41095952Y-237348095D01*
X44429285Y-238014761D02*
X44429285Y-236014761D01*
X44429285Y-236776666D02*
X44619761Y-236681428D01*
X45000714Y-236681428D01*
X45191190Y-236776666D01*
X45286428Y-236871904D01*
X45381666Y-237062380D01*
X45381666Y-237633809D01*
X45286428Y-237824285D01*
X45191190Y-237919523D01*
X45000714Y-238014761D01*
X44619761Y-238014761D01*
X44429285Y-237919523D01*
X46524523Y-238014761D02*
X46334047Y-237919523D01*
X46238809Y-237824285D01*
X46143571Y-237633809D01*
X46143571Y-237062380D01*
X46238809Y-236871904D01*
X46334047Y-236776666D01*
X46524523Y-236681428D01*
X46810238Y-236681428D01*
X47000714Y-236776666D01*
X47095952Y-236871904D01*
X47191190Y-237062380D01*
X47191190Y-237633809D01*
X47095952Y-237824285D01*
X47000714Y-237919523D01*
X46810238Y-238014761D01*
X46524523Y-238014761D01*
X48905476Y-238014761D02*
X48905476Y-236967142D01*
X48810238Y-236776666D01*
X48619761Y-236681428D01*
X48238809Y-236681428D01*
X48048333Y-236776666D01*
X48905476Y-237919523D02*
X48715000Y-238014761D01*
X48238809Y-238014761D01*
X48048333Y-237919523D01*
X47953095Y-237729047D01*
X47953095Y-237538571D01*
X48048333Y-237348095D01*
X48238809Y-237252857D01*
X48715000Y-237252857D01*
X48905476Y-237157619D01*
X49857857Y-238014761D02*
X49857857Y-236681428D01*
X49857857Y-237062380D02*
X49953095Y-236871904D01*
X50048333Y-236776666D01*
X50238809Y-236681428D01*
X50429285Y-236681428D01*
X51953095Y-238014761D02*
X51953095Y-236014761D01*
X51953095Y-237919523D02*
X51762619Y-238014761D01*
X51381666Y-238014761D01*
X51191190Y-237919523D01*
X51095952Y-237824285D01*
X51000714Y-237633809D01*
X51000714Y-237062380D01*
X51095952Y-236871904D01*
X51191190Y-236776666D01*
X51381666Y-236681428D01*
X51762619Y-236681428D01*
X51953095Y-236776666D01*
X52905476Y-237824285D02*
X53000714Y-237919523D01*
X52905476Y-238014761D01*
X52810238Y-237919523D01*
X52905476Y-237824285D01*
X52905476Y-238014761D01*
X55381666Y-237252857D02*
X56905476Y-237252857D01*
X57857857Y-237252857D02*
X59381666Y-237252857D01*
X60334047Y-236681428D02*
X61857857Y-237252857D01*
X60334047Y-237824285D01*
M02*
