%TF.GenerationSoftware,KiCad,Pcbnew,(6.0.5-0)*%
%TF.CreationDate,2022-06-28T22:09:08-04:00*%
%TF.ProjectId,SpaceCadet,53706163-6543-4616-9465-742e6b696361,rev?*%
%TF.SameCoordinates,Original*%
%TF.FileFunction,AssemblyDrawing,Top*%
%FSLAX46Y46*%
G04 Gerber Fmt 4.6, Leading zero omitted, Abs format (unit mm)*
G04 Created by KiCad (PCBNEW (6.0.5-0)) date 2022-06-28 22:09:08*
%MOMM*%
%LPD*%
G01*
G04 APERTURE LIST*
%ADD10C,0.300000*%
%TA.AperFunction,Profile*%
%ADD11C,0.100000*%
%TD*%
%ADD12C,0.150000*%
%ADD13C,0.100000*%
G04 APERTURE END LIST*
D10*
X367504047Y-58034285D02*
X367408809Y-58129523D01*
X367123095Y-58224761D01*
X366932619Y-58224761D01*
X366646904Y-58129523D01*
X366456428Y-57939047D01*
X366361190Y-57748571D01*
X366265952Y-57367619D01*
X366265952Y-57081904D01*
X366361190Y-56700952D01*
X366456428Y-56510476D01*
X366646904Y-56320000D01*
X366932619Y-56224761D01*
X367123095Y-56224761D01*
X367408809Y-56320000D01*
X367504047Y-56415238D01*
X368646904Y-58224761D02*
X368456428Y-58129523D01*
X368361190Y-58034285D01*
X368265952Y-57843809D01*
X368265952Y-57272380D01*
X368361190Y-57081904D01*
X368456428Y-56986666D01*
X368646904Y-56891428D01*
X368932619Y-56891428D01*
X369123095Y-56986666D01*
X369218333Y-57081904D01*
X369313571Y-57272380D01*
X369313571Y-57843809D01*
X369218333Y-58034285D01*
X369123095Y-58129523D01*
X368932619Y-58224761D01*
X368646904Y-58224761D01*
X370456428Y-58224761D02*
X370265952Y-58129523D01*
X370170714Y-57939047D01*
X370170714Y-56224761D01*
X371504047Y-58224761D02*
X371313571Y-58129523D01*
X371218333Y-58034285D01*
X371123095Y-57843809D01*
X371123095Y-57272380D01*
X371218333Y-57081904D01*
X371313571Y-56986666D01*
X371504047Y-56891428D01*
X371789761Y-56891428D01*
X371980238Y-56986666D01*
X372075476Y-57081904D01*
X372170714Y-57272380D01*
X372170714Y-57843809D01*
X372075476Y-58034285D01*
X371980238Y-58129523D01*
X371789761Y-58224761D01*
X371504047Y-58224761D01*
X373027857Y-58224761D02*
X373027857Y-56891428D01*
X373027857Y-57272380D02*
X373123095Y-57081904D01*
X373218333Y-56986666D01*
X373408809Y-56891428D01*
X373599285Y-56891428D01*
X374170714Y-58129523D02*
X374361190Y-58224761D01*
X374742142Y-58224761D01*
X374932619Y-58129523D01*
X375027857Y-57939047D01*
X375027857Y-57843809D01*
X374932619Y-57653333D01*
X374742142Y-57558095D01*
X374456428Y-57558095D01*
X374265952Y-57462857D01*
X374170714Y-57272380D01*
X374170714Y-57177142D01*
X374265952Y-56986666D01*
X374456428Y-56891428D01*
X374742142Y-56891428D01*
X374932619Y-56986666D01*
X378898809Y-59540000D02*
X378708333Y-59444761D01*
X378422619Y-59444761D01*
X378136904Y-59540000D01*
X377946428Y-59730476D01*
X377851190Y-59920952D01*
X377755952Y-60301904D01*
X377755952Y-60587619D01*
X377851190Y-60968571D01*
X377946428Y-61159047D01*
X378136904Y-61349523D01*
X378422619Y-61444761D01*
X378613095Y-61444761D01*
X378898809Y-61349523D01*
X378994047Y-61254285D01*
X378994047Y-60587619D01*
X378613095Y-60587619D01*
X379851190Y-61444761D02*
X379851190Y-60111428D01*
X379851190Y-60492380D02*
X379946428Y-60301904D01*
X380041666Y-60206666D01*
X380232142Y-60111428D01*
X380422619Y-60111428D01*
X381851190Y-61349523D02*
X381660714Y-61444761D01*
X381279761Y-61444761D01*
X381089285Y-61349523D01*
X380994047Y-61159047D01*
X380994047Y-60397142D01*
X381089285Y-60206666D01*
X381279761Y-60111428D01*
X381660714Y-60111428D01*
X381851190Y-60206666D01*
X381946428Y-60397142D01*
X381946428Y-60587619D01*
X380994047Y-60778095D01*
X383565476Y-61349523D02*
X383375000Y-61444761D01*
X382994047Y-61444761D01*
X382803571Y-61349523D01*
X382708333Y-61159047D01*
X382708333Y-60397142D01*
X382803571Y-60206666D01*
X382994047Y-60111428D01*
X383375000Y-60111428D01*
X383565476Y-60206666D01*
X383660714Y-60397142D01*
X383660714Y-60587619D01*
X382708333Y-60778095D01*
X384517857Y-60111428D02*
X384517857Y-61444761D01*
X384517857Y-60301904D02*
X384613095Y-60206666D01*
X384803571Y-60111428D01*
X385089285Y-60111428D01*
X385279761Y-60206666D01*
X385375000Y-60397142D01*
X385375000Y-61444761D01*
X378517857Y-63617142D02*
X378803571Y-63712380D01*
X378898809Y-63807619D01*
X378994047Y-63998095D01*
X378994047Y-64283809D01*
X378898809Y-64474285D01*
X378803571Y-64569523D01*
X378613095Y-64664761D01*
X377851190Y-64664761D01*
X377851190Y-62664761D01*
X378517857Y-62664761D01*
X378708333Y-62760000D01*
X378803571Y-62855238D01*
X378898809Y-63045714D01*
X378898809Y-63236190D01*
X378803571Y-63426666D01*
X378708333Y-63521904D01*
X378517857Y-63617142D01*
X377851190Y-63617142D01*
X380136904Y-64664761D02*
X379946428Y-64569523D01*
X379851190Y-64379047D01*
X379851190Y-62664761D01*
X381755952Y-64664761D02*
X381755952Y-63617142D01*
X381660714Y-63426666D01*
X381470238Y-63331428D01*
X381089285Y-63331428D01*
X380898809Y-63426666D01*
X381755952Y-64569523D02*
X381565476Y-64664761D01*
X381089285Y-64664761D01*
X380898809Y-64569523D01*
X380803571Y-64379047D01*
X380803571Y-64188571D01*
X380898809Y-63998095D01*
X381089285Y-63902857D01*
X381565476Y-63902857D01*
X381755952Y-63807619D01*
X383565476Y-64569523D02*
X383375000Y-64664761D01*
X382994047Y-64664761D01*
X382803571Y-64569523D01*
X382708333Y-64474285D01*
X382613095Y-64283809D01*
X382613095Y-63712380D01*
X382708333Y-63521904D01*
X382803571Y-63426666D01*
X382994047Y-63331428D01*
X383375000Y-63331428D01*
X383565476Y-63426666D01*
X384422619Y-64664761D02*
X384422619Y-62664761D01*
X384613095Y-63902857D02*
X385184523Y-64664761D01*
X385184523Y-63331428D02*
X384422619Y-64093333D01*
X378517857Y-66837142D02*
X378803571Y-66932380D01*
X378898809Y-67027619D01*
X378994047Y-67218095D01*
X378994047Y-67503809D01*
X378898809Y-67694285D01*
X378803571Y-67789523D01*
X378613095Y-67884761D01*
X377851190Y-67884761D01*
X377851190Y-65884761D01*
X378517857Y-65884761D01*
X378708333Y-65980000D01*
X378803571Y-66075238D01*
X378898809Y-66265714D01*
X378898809Y-66456190D01*
X378803571Y-66646666D01*
X378708333Y-66741904D01*
X378517857Y-66837142D01*
X377851190Y-66837142D01*
X380136904Y-67884761D02*
X379946428Y-67789523D01*
X379851190Y-67599047D01*
X379851190Y-65884761D01*
X381755952Y-67884761D02*
X381755952Y-66837142D01*
X381660714Y-66646666D01*
X381470238Y-66551428D01*
X381089285Y-66551428D01*
X380898809Y-66646666D01*
X381755952Y-67789523D02*
X381565476Y-67884761D01*
X381089285Y-67884761D01*
X380898809Y-67789523D01*
X380803571Y-67599047D01*
X380803571Y-67408571D01*
X380898809Y-67218095D01*
X381089285Y-67122857D01*
X381565476Y-67122857D01*
X381755952Y-67027619D01*
X383565476Y-67789523D02*
X383375000Y-67884761D01*
X382994047Y-67884761D01*
X382803571Y-67789523D01*
X382708333Y-67694285D01*
X382613095Y-67503809D01*
X382613095Y-66932380D01*
X382708333Y-66741904D01*
X382803571Y-66646666D01*
X382994047Y-66551428D01*
X383375000Y-66551428D01*
X383565476Y-66646666D01*
X384422619Y-67884761D02*
X384422619Y-65884761D01*
X384613095Y-67122857D02*
X385184523Y-67884761D01*
X385184523Y-66551428D02*
X384422619Y-67313333D01*
X387851190Y-67884761D02*
X387660714Y-67789523D01*
X387565476Y-67694285D01*
X387470238Y-67503809D01*
X387470238Y-66932380D01*
X387565476Y-66741904D01*
X387660714Y-66646666D01*
X387851190Y-66551428D01*
X388136904Y-66551428D01*
X388327380Y-66646666D01*
X388422619Y-66741904D01*
X388517857Y-66932380D01*
X388517857Y-67503809D01*
X388422619Y-67694285D01*
X388327380Y-67789523D01*
X388136904Y-67884761D01*
X387851190Y-67884761D01*
X389375000Y-67884761D02*
X389375000Y-66551428D01*
X389375000Y-66932380D02*
X389470238Y-66741904D01*
X389565476Y-66646666D01*
X389755952Y-66551428D01*
X389946428Y-66551428D01*
X392803571Y-66837142D02*
X393089285Y-66932380D01*
X393184523Y-67027619D01*
X393279761Y-67218095D01*
X393279761Y-67503809D01*
X393184523Y-67694285D01*
X393089285Y-67789523D01*
X392898809Y-67884761D01*
X392136904Y-67884761D01*
X392136904Y-65884761D01*
X392803571Y-65884761D01*
X392994047Y-65980000D01*
X393089285Y-66075238D01*
X393184523Y-66265714D01*
X393184523Y-66456190D01*
X393089285Y-66646666D01*
X392994047Y-66741904D01*
X392803571Y-66837142D01*
X392136904Y-66837142D01*
X394422619Y-67884761D02*
X394232142Y-67789523D01*
X394136904Y-67599047D01*
X394136904Y-65884761D01*
X396041666Y-66551428D02*
X396041666Y-67884761D01*
X395184523Y-66551428D02*
X395184523Y-67599047D01*
X395279761Y-67789523D01*
X395470238Y-67884761D01*
X395755952Y-67884761D01*
X395946428Y-67789523D01*
X396041666Y-67694285D01*
X397755952Y-67789523D02*
X397565476Y-67884761D01*
X397184523Y-67884761D01*
X396994047Y-67789523D01*
X396898809Y-67599047D01*
X396898809Y-66837142D01*
X396994047Y-66646666D01*
X397184523Y-66551428D01*
X397565476Y-66551428D01*
X397755952Y-66646666D01*
X397851190Y-66837142D01*
X397851190Y-67027619D01*
X396898809Y-67218095D01*
X349382619Y-60397142D02*
X349668333Y-60492380D01*
X349763571Y-60587619D01*
X349858809Y-60778095D01*
X349858809Y-61063809D01*
X349763571Y-61254285D01*
X349668333Y-61349523D01*
X349477857Y-61444761D01*
X348715952Y-61444761D01*
X348715952Y-59444761D01*
X349382619Y-59444761D01*
X349573095Y-59540000D01*
X349668333Y-59635238D01*
X349763571Y-59825714D01*
X349763571Y-60016190D01*
X349668333Y-60206666D01*
X349573095Y-60301904D01*
X349382619Y-60397142D01*
X348715952Y-60397142D01*
X351573095Y-61444761D02*
X351573095Y-60397142D01*
X351477857Y-60206666D01*
X351287380Y-60111428D01*
X350906428Y-60111428D01*
X350715952Y-60206666D01*
X351573095Y-61349523D02*
X351382619Y-61444761D01*
X350906428Y-61444761D01*
X350715952Y-61349523D01*
X350620714Y-61159047D01*
X350620714Y-60968571D01*
X350715952Y-60778095D01*
X350906428Y-60682857D01*
X351382619Y-60682857D01*
X351573095Y-60587619D01*
X353382619Y-61349523D02*
X353192142Y-61444761D01*
X352811190Y-61444761D01*
X352620714Y-61349523D01*
X352525476Y-61254285D01*
X352430238Y-61063809D01*
X352430238Y-60492380D01*
X352525476Y-60301904D01*
X352620714Y-60206666D01*
X352811190Y-60111428D01*
X353192142Y-60111428D01*
X353382619Y-60206666D01*
X354239761Y-61444761D02*
X354239761Y-59444761D01*
X354430238Y-60682857D02*
X355001666Y-61444761D01*
X355001666Y-60111428D02*
X354239761Y-60873333D01*
X357287380Y-61349523D02*
X357477857Y-61444761D01*
X357858809Y-61444761D01*
X358049285Y-61349523D01*
X358144523Y-61159047D01*
X358144523Y-61063809D01*
X358049285Y-60873333D01*
X357858809Y-60778095D01*
X357573095Y-60778095D01*
X357382619Y-60682857D01*
X357287380Y-60492380D01*
X357287380Y-60397142D01*
X357382619Y-60206666D01*
X357573095Y-60111428D01*
X357858809Y-60111428D01*
X358049285Y-60206666D01*
X359287380Y-61444761D02*
X359096904Y-61349523D01*
X359001666Y-61254285D01*
X358906428Y-61063809D01*
X358906428Y-60492380D01*
X359001666Y-60301904D01*
X359096904Y-60206666D01*
X359287380Y-60111428D01*
X359573095Y-60111428D01*
X359763571Y-60206666D01*
X359858809Y-60301904D01*
X359954047Y-60492380D01*
X359954047Y-61063809D01*
X359858809Y-61254285D01*
X359763571Y-61349523D01*
X359573095Y-61444761D01*
X359287380Y-61444761D01*
X361096904Y-61444761D02*
X360906428Y-61349523D01*
X360811190Y-61159047D01*
X360811190Y-59444761D01*
X362715952Y-61444761D02*
X362715952Y-59444761D01*
X362715952Y-61349523D02*
X362525476Y-61444761D01*
X362144523Y-61444761D01*
X361954047Y-61349523D01*
X361858809Y-61254285D01*
X361763571Y-61063809D01*
X361763571Y-60492380D01*
X361858809Y-60301904D01*
X361954047Y-60206666D01*
X362144523Y-60111428D01*
X362525476Y-60111428D01*
X362715952Y-60206666D01*
X364430238Y-61349523D02*
X364239761Y-61444761D01*
X363858809Y-61444761D01*
X363668333Y-61349523D01*
X363573095Y-61159047D01*
X363573095Y-60397142D01*
X363668333Y-60206666D01*
X363858809Y-60111428D01*
X364239761Y-60111428D01*
X364430238Y-60206666D01*
X364525476Y-60397142D01*
X364525476Y-60587619D01*
X363573095Y-60778095D01*
X365382619Y-61444761D02*
X365382619Y-60111428D01*
X365382619Y-60492380D02*
X365477857Y-60301904D01*
X365573095Y-60206666D01*
X365763571Y-60111428D01*
X365954047Y-60111428D01*
X368144523Y-61444761D02*
X368144523Y-60111428D01*
X368144523Y-60301904D02*
X368239761Y-60206666D01*
X368430238Y-60111428D01*
X368715952Y-60111428D01*
X368906428Y-60206666D01*
X369001666Y-60397142D01*
X369001666Y-61444761D01*
X369001666Y-60397142D02*
X369096904Y-60206666D01*
X369287380Y-60111428D01*
X369573095Y-60111428D01*
X369763571Y-60206666D01*
X369858809Y-60397142D01*
X369858809Y-61444761D01*
X371668333Y-61444761D02*
X371668333Y-60397142D01*
X371573095Y-60206666D01*
X371382619Y-60111428D01*
X371001666Y-60111428D01*
X370811190Y-60206666D01*
X371668333Y-61349523D02*
X371477857Y-61444761D01*
X371001666Y-61444761D01*
X370811190Y-61349523D01*
X370715952Y-61159047D01*
X370715952Y-60968571D01*
X370811190Y-60778095D01*
X371001666Y-60682857D01*
X371477857Y-60682857D01*
X371668333Y-60587619D01*
X372525476Y-61349523D02*
X372715952Y-61444761D01*
X373096904Y-61444761D01*
X373287380Y-61349523D01*
X373382619Y-61159047D01*
X373382619Y-61063809D01*
X373287380Y-60873333D01*
X373096904Y-60778095D01*
X372811190Y-60778095D01*
X372620714Y-60682857D01*
X372525476Y-60492380D01*
X372525476Y-60397142D01*
X372620714Y-60206666D01*
X372811190Y-60111428D01*
X373096904Y-60111428D01*
X373287380Y-60206666D01*
X374239761Y-61444761D02*
X374239761Y-59444761D01*
X374430238Y-60682857D02*
X375001666Y-61444761D01*
X375001666Y-60111428D02*
X374239761Y-60873333D01*
X375858809Y-61254285D02*
X375954047Y-61349523D01*
X375858809Y-61444761D01*
X375763571Y-61349523D01*
X375858809Y-61254285D01*
X375858809Y-61444761D01*
X375858809Y-60206666D02*
X375954047Y-60301904D01*
X375858809Y-60397142D01*
X375763571Y-60301904D01*
X375858809Y-60206666D01*
X375858809Y-60397142D01*
X352811190Y-63617142D02*
X353096904Y-63712380D01*
X353192142Y-63807619D01*
X353287380Y-63998095D01*
X353287380Y-64283809D01*
X353192142Y-64474285D01*
X353096904Y-64569523D01*
X352906428Y-64664761D01*
X352144523Y-64664761D01*
X352144523Y-62664761D01*
X352811190Y-62664761D01*
X353001666Y-62760000D01*
X353096904Y-62855238D01*
X353192142Y-63045714D01*
X353192142Y-63236190D01*
X353096904Y-63426666D01*
X353001666Y-63521904D01*
X352811190Y-63617142D01*
X352144523Y-63617142D01*
X355001666Y-64664761D02*
X355001666Y-63617142D01*
X354906428Y-63426666D01*
X354715952Y-63331428D01*
X354335000Y-63331428D01*
X354144523Y-63426666D01*
X355001666Y-64569523D02*
X354811190Y-64664761D01*
X354335000Y-64664761D01*
X354144523Y-64569523D01*
X354049285Y-64379047D01*
X354049285Y-64188571D01*
X354144523Y-63998095D01*
X354335000Y-63902857D01*
X354811190Y-63902857D01*
X355001666Y-63807619D01*
X356811190Y-64569523D02*
X356620714Y-64664761D01*
X356239761Y-64664761D01*
X356049285Y-64569523D01*
X355954047Y-64474285D01*
X355858809Y-64283809D01*
X355858809Y-63712380D01*
X355954047Y-63521904D01*
X356049285Y-63426666D01*
X356239761Y-63331428D01*
X356620714Y-63331428D01*
X356811190Y-63426666D01*
X357668333Y-64664761D02*
X357668333Y-62664761D01*
X357858809Y-63902857D02*
X358430238Y-64664761D01*
X358430238Y-63331428D02*
X357668333Y-64093333D01*
X360715952Y-64569523D02*
X360906428Y-64664761D01*
X361287380Y-64664761D01*
X361477857Y-64569523D01*
X361573095Y-64379047D01*
X361573095Y-64283809D01*
X361477857Y-64093333D01*
X361287380Y-63998095D01*
X361001666Y-63998095D01*
X360811190Y-63902857D01*
X360715952Y-63712380D01*
X360715952Y-63617142D01*
X360811190Y-63426666D01*
X361001666Y-63331428D01*
X361287380Y-63331428D01*
X361477857Y-63426666D01*
X362430238Y-64664761D02*
X362430238Y-63331428D01*
X362430238Y-62664761D02*
X362335000Y-62760000D01*
X362430238Y-62855238D01*
X362525476Y-62760000D01*
X362430238Y-62664761D01*
X362430238Y-62855238D01*
X363668333Y-64664761D02*
X363477857Y-64569523D01*
X363382619Y-64379047D01*
X363382619Y-62664761D01*
X364430238Y-64664761D02*
X364430238Y-62664761D01*
X364620714Y-63902857D02*
X365192142Y-64664761D01*
X365192142Y-63331428D02*
X364430238Y-64093333D01*
X365954047Y-64569523D02*
X366144523Y-64664761D01*
X366525476Y-64664761D01*
X366715952Y-64569523D01*
X366811190Y-64379047D01*
X366811190Y-64283809D01*
X366715952Y-64093333D01*
X366525476Y-63998095D01*
X366239761Y-63998095D01*
X366049285Y-63902857D01*
X365954047Y-63712380D01*
X365954047Y-63617142D01*
X366049285Y-63426666D01*
X366239761Y-63331428D01*
X366525476Y-63331428D01*
X366715952Y-63426666D01*
X368525476Y-64569523D02*
X368335000Y-64664761D01*
X367954047Y-64664761D01*
X367763571Y-64569523D01*
X367668333Y-64474285D01*
X367573095Y-64283809D01*
X367573095Y-63712380D01*
X367668333Y-63521904D01*
X367763571Y-63426666D01*
X367954047Y-63331428D01*
X368335000Y-63331428D01*
X368525476Y-63426666D01*
X369382619Y-64664761D02*
X369382619Y-63331428D01*
X369382619Y-63712380D02*
X369477857Y-63521904D01*
X369573095Y-63426666D01*
X369763571Y-63331428D01*
X369954047Y-63331428D01*
X371382619Y-64569523D02*
X371192142Y-64664761D01*
X370811190Y-64664761D01*
X370620714Y-64569523D01*
X370525476Y-64379047D01*
X370525476Y-63617142D01*
X370620714Y-63426666D01*
X370811190Y-63331428D01*
X371192142Y-63331428D01*
X371382619Y-63426666D01*
X371477857Y-63617142D01*
X371477857Y-63807619D01*
X370525476Y-63998095D01*
X373096904Y-64569523D02*
X372906428Y-64664761D01*
X372525476Y-64664761D01*
X372335000Y-64569523D01*
X372239761Y-64379047D01*
X372239761Y-63617142D01*
X372335000Y-63426666D01*
X372525476Y-63331428D01*
X372906428Y-63331428D01*
X373096904Y-63426666D01*
X373192142Y-63617142D01*
X373192142Y-63807619D01*
X372239761Y-63998095D01*
X374049285Y-63331428D02*
X374049285Y-64664761D01*
X374049285Y-63521904D02*
X374144523Y-63426666D01*
X374335000Y-63331428D01*
X374620714Y-63331428D01*
X374811190Y-63426666D01*
X374906428Y-63617142D01*
X374906428Y-64664761D01*
X375858809Y-64474285D02*
X375954047Y-64569523D01*
X375858809Y-64664761D01*
X375763571Y-64569523D01*
X375858809Y-64474285D01*
X375858809Y-64664761D01*
X375858809Y-63426666D02*
X375954047Y-63521904D01*
X375858809Y-63617142D01*
X375763571Y-63521904D01*
X375858809Y-63426666D01*
X375858809Y-63617142D01*
X352239761Y-66837142D02*
X351573095Y-66837142D01*
X351573095Y-67884761D02*
X351573095Y-65884761D01*
X352525476Y-65884761D01*
X353287380Y-67884761D02*
X353287380Y-66551428D01*
X353287380Y-66932380D02*
X353382619Y-66741904D01*
X353477857Y-66646666D01*
X353668333Y-66551428D01*
X353858809Y-66551428D01*
X354811190Y-67884761D02*
X354620714Y-67789523D01*
X354525476Y-67694285D01*
X354430238Y-67503809D01*
X354430238Y-66932380D01*
X354525476Y-66741904D01*
X354620714Y-66646666D01*
X354811190Y-66551428D01*
X355096904Y-66551428D01*
X355287380Y-66646666D01*
X355382619Y-66741904D01*
X355477857Y-66932380D01*
X355477857Y-67503809D01*
X355382619Y-67694285D01*
X355287380Y-67789523D01*
X355096904Y-67884761D01*
X354811190Y-67884761D01*
X356335000Y-66551428D02*
X356335000Y-67884761D01*
X356335000Y-66741904D02*
X356430238Y-66646666D01*
X356620714Y-66551428D01*
X356906428Y-66551428D01*
X357096904Y-66646666D01*
X357192142Y-66837142D01*
X357192142Y-67884761D01*
X357858809Y-66551428D02*
X358620714Y-66551428D01*
X358144523Y-65884761D02*
X358144523Y-67599047D01*
X358239761Y-67789523D01*
X358430238Y-67884761D01*
X358620714Y-67884761D01*
X360715952Y-67789523D02*
X360906428Y-67884761D01*
X361287380Y-67884761D01*
X361477857Y-67789523D01*
X361573095Y-67599047D01*
X361573095Y-67503809D01*
X361477857Y-67313333D01*
X361287380Y-67218095D01*
X361001666Y-67218095D01*
X360811190Y-67122857D01*
X360715952Y-66932380D01*
X360715952Y-66837142D01*
X360811190Y-66646666D01*
X361001666Y-66551428D01*
X361287380Y-66551428D01*
X361477857Y-66646666D01*
X362430238Y-67884761D02*
X362430238Y-66551428D01*
X362430238Y-65884761D02*
X362335000Y-65980000D01*
X362430238Y-66075238D01*
X362525476Y-65980000D01*
X362430238Y-65884761D01*
X362430238Y-66075238D01*
X363668333Y-67884761D02*
X363477857Y-67789523D01*
X363382619Y-67599047D01*
X363382619Y-65884761D01*
X364430238Y-67884761D02*
X364430238Y-65884761D01*
X364620714Y-67122857D02*
X365192142Y-67884761D01*
X365192142Y-66551428D02*
X364430238Y-67313333D01*
X365954047Y-67789523D02*
X366144523Y-67884761D01*
X366525476Y-67884761D01*
X366715952Y-67789523D01*
X366811190Y-67599047D01*
X366811190Y-67503809D01*
X366715952Y-67313333D01*
X366525476Y-67218095D01*
X366239761Y-67218095D01*
X366049285Y-67122857D01*
X365954047Y-66932380D01*
X365954047Y-66837142D01*
X366049285Y-66646666D01*
X366239761Y-66551428D01*
X366525476Y-66551428D01*
X366715952Y-66646666D01*
X368525476Y-67789523D02*
X368335000Y-67884761D01*
X367954047Y-67884761D01*
X367763571Y-67789523D01*
X367668333Y-67694285D01*
X367573095Y-67503809D01*
X367573095Y-66932380D01*
X367668333Y-66741904D01*
X367763571Y-66646666D01*
X367954047Y-66551428D01*
X368335000Y-66551428D01*
X368525476Y-66646666D01*
X369382619Y-67884761D02*
X369382619Y-66551428D01*
X369382619Y-66932380D02*
X369477857Y-66741904D01*
X369573095Y-66646666D01*
X369763571Y-66551428D01*
X369954047Y-66551428D01*
X371382619Y-67789523D02*
X371192142Y-67884761D01*
X370811190Y-67884761D01*
X370620714Y-67789523D01*
X370525476Y-67599047D01*
X370525476Y-66837142D01*
X370620714Y-66646666D01*
X370811190Y-66551428D01*
X371192142Y-66551428D01*
X371382619Y-66646666D01*
X371477857Y-66837142D01*
X371477857Y-67027619D01*
X370525476Y-67218095D01*
X373096904Y-67789523D02*
X372906428Y-67884761D01*
X372525476Y-67884761D01*
X372335000Y-67789523D01*
X372239761Y-67599047D01*
X372239761Y-66837142D01*
X372335000Y-66646666D01*
X372525476Y-66551428D01*
X372906428Y-66551428D01*
X373096904Y-66646666D01*
X373192142Y-66837142D01*
X373192142Y-67027619D01*
X372239761Y-67218095D01*
X374049285Y-66551428D02*
X374049285Y-67884761D01*
X374049285Y-66741904D02*
X374144523Y-66646666D01*
X374335000Y-66551428D01*
X374620714Y-66551428D01*
X374811190Y-66646666D01*
X374906428Y-66837142D01*
X374906428Y-67884761D01*
X375858809Y-67694285D02*
X375954047Y-67789523D01*
X375858809Y-67884761D01*
X375763571Y-67789523D01*
X375858809Y-67694285D01*
X375858809Y-67884761D01*
X375858809Y-66646666D02*
X375954047Y-66741904D01*
X375858809Y-66837142D01*
X375763571Y-66741904D01*
X375858809Y-66646666D01*
X375858809Y-66837142D01*
D11*
X64250000Y-81300000D02*
X533250000Y-81300000D01*
X533250000Y-81300000D02*
X533250000Y-247900000D01*
X533250000Y-247900000D02*
X64250000Y-247900000D01*
X64250000Y-247900000D02*
X64250000Y-81300000D01*
D10*
X212105476Y-56204761D02*
X213248333Y-56204761D01*
X212676904Y-58204761D02*
X212676904Y-56204761D01*
X213915000Y-58204761D02*
X213915000Y-56204761D01*
X214772142Y-58204761D02*
X214772142Y-57157142D01*
X214676904Y-56966666D01*
X214486428Y-56871428D01*
X214200714Y-56871428D01*
X214010238Y-56966666D01*
X213915000Y-57061904D01*
X216486428Y-58109523D02*
X216295952Y-58204761D01*
X215915000Y-58204761D01*
X215724523Y-58109523D01*
X215629285Y-57919047D01*
X215629285Y-57157142D01*
X215724523Y-56966666D01*
X215915000Y-56871428D01*
X216295952Y-56871428D01*
X216486428Y-56966666D01*
X216581666Y-57157142D01*
X216581666Y-57347619D01*
X215629285Y-57538095D01*
X218962619Y-58204761D02*
X218962619Y-56204761D01*
X218962619Y-56966666D02*
X219153095Y-56871428D01*
X219534047Y-56871428D01*
X219724523Y-56966666D01*
X219819761Y-57061904D01*
X219915000Y-57252380D01*
X219915000Y-57823809D01*
X219819761Y-58014285D01*
X219724523Y-58109523D01*
X219534047Y-58204761D01*
X219153095Y-58204761D01*
X218962619Y-58109523D01*
X221057857Y-58204761D02*
X220867380Y-58109523D01*
X220772142Y-58014285D01*
X220676904Y-57823809D01*
X220676904Y-57252380D01*
X220772142Y-57061904D01*
X220867380Y-56966666D01*
X221057857Y-56871428D01*
X221343571Y-56871428D01*
X221534047Y-56966666D01*
X221629285Y-57061904D01*
X221724523Y-57252380D01*
X221724523Y-57823809D01*
X221629285Y-58014285D01*
X221534047Y-58109523D01*
X221343571Y-58204761D01*
X221057857Y-58204761D01*
X223438809Y-58204761D02*
X223438809Y-57157142D01*
X223343571Y-56966666D01*
X223153095Y-56871428D01*
X222772142Y-56871428D01*
X222581666Y-56966666D01*
X223438809Y-58109523D02*
X223248333Y-58204761D01*
X222772142Y-58204761D01*
X222581666Y-58109523D01*
X222486428Y-57919047D01*
X222486428Y-57728571D01*
X222581666Y-57538095D01*
X222772142Y-57442857D01*
X223248333Y-57442857D01*
X223438809Y-57347619D01*
X224391190Y-58204761D02*
X224391190Y-56871428D01*
X224391190Y-57252380D02*
X224486428Y-57061904D01*
X224581666Y-56966666D01*
X224772142Y-56871428D01*
X224962619Y-56871428D01*
X226486428Y-58204761D02*
X226486428Y-56204761D01*
X226486428Y-58109523D02*
X226295952Y-58204761D01*
X225915000Y-58204761D01*
X225724523Y-58109523D01*
X225629285Y-58014285D01*
X225534047Y-57823809D01*
X225534047Y-57252380D01*
X225629285Y-57061904D01*
X225724523Y-56966666D01*
X225915000Y-56871428D01*
X226295952Y-56871428D01*
X226486428Y-56966666D01*
X228962619Y-58204761D02*
X228962619Y-56871428D01*
X228962619Y-56204761D02*
X228867380Y-56300000D01*
X228962619Y-56395238D01*
X229057857Y-56300000D01*
X228962619Y-56204761D01*
X228962619Y-56395238D01*
X229819761Y-58109523D02*
X230010238Y-58204761D01*
X230391190Y-58204761D01*
X230581666Y-58109523D01*
X230676904Y-57919047D01*
X230676904Y-57823809D01*
X230581666Y-57633333D01*
X230391190Y-57538095D01*
X230105476Y-57538095D01*
X229915000Y-57442857D01*
X229819761Y-57252380D01*
X229819761Y-57157142D01*
X229915000Y-56966666D01*
X230105476Y-56871428D01*
X230391190Y-56871428D01*
X230581666Y-56966666D01*
X233915000Y-58204761D02*
X233915000Y-56204761D01*
X233915000Y-58109523D02*
X233724523Y-58204761D01*
X233343571Y-58204761D01*
X233153095Y-58109523D01*
X233057857Y-58014285D01*
X232962619Y-57823809D01*
X232962619Y-57252380D01*
X233057857Y-57061904D01*
X233153095Y-56966666D01*
X233343571Y-56871428D01*
X233724523Y-56871428D01*
X233915000Y-56966666D01*
X235629285Y-58109523D02*
X235438809Y-58204761D01*
X235057857Y-58204761D01*
X234867380Y-58109523D01*
X234772142Y-57919047D01*
X234772142Y-57157142D01*
X234867380Y-56966666D01*
X235057857Y-56871428D01*
X235438809Y-56871428D01*
X235629285Y-56966666D01*
X235724523Y-57157142D01*
X235724523Y-57347619D01*
X234772142Y-57538095D01*
X236486428Y-58109523D02*
X236676904Y-58204761D01*
X237057857Y-58204761D01*
X237248333Y-58109523D01*
X237343571Y-57919047D01*
X237343571Y-57823809D01*
X237248333Y-57633333D01*
X237057857Y-57538095D01*
X236772142Y-57538095D01*
X236581666Y-57442857D01*
X236486428Y-57252380D01*
X236486428Y-57157142D01*
X236581666Y-56966666D01*
X236772142Y-56871428D01*
X237057857Y-56871428D01*
X237248333Y-56966666D01*
X238200714Y-58204761D02*
X238200714Y-56871428D01*
X238200714Y-56204761D02*
X238105476Y-56300000D01*
X238200714Y-56395238D01*
X238295952Y-56300000D01*
X238200714Y-56204761D01*
X238200714Y-56395238D01*
X240010238Y-56871428D02*
X240010238Y-58490476D01*
X239915000Y-58680952D01*
X239819761Y-58776190D01*
X239629285Y-58871428D01*
X239343571Y-58871428D01*
X239153095Y-58776190D01*
X240010238Y-58109523D02*
X239819761Y-58204761D01*
X239438809Y-58204761D01*
X239248333Y-58109523D01*
X239153095Y-58014285D01*
X239057857Y-57823809D01*
X239057857Y-57252380D01*
X239153095Y-57061904D01*
X239248333Y-56966666D01*
X239438809Y-56871428D01*
X239819761Y-56871428D01*
X240010238Y-56966666D01*
X240962619Y-56871428D02*
X240962619Y-58204761D01*
X240962619Y-57061904D02*
X241057857Y-56966666D01*
X241248333Y-56871428D01*
X241534047Y-56871428D01*
X241724523Y-56966666D01*
X241819761Y-57157142D01*
X241819761Y-58204761D01*
X243534047Y-58109523D02*
X243343571Y-58204761D01*
X242962619Y-58204761D01*
X242772142Y-58109523D01*
X242676904Y-57919047D01*
X242676904Y-57157142D01*
X242772142Y-56966666D01*
X242962619Y-56871428D01*
X243343571Y-56871428D01*
X243534047Y-56966666D01*
X243629285Y-57157142D01*
X243629285Y-57347619D01*
X242676904Y-57538095D01*
X245343571Y-58204761D02*
X245343571Y-56204761D01*
X245343571Y-58109523D02*
X245153095Y-58204761D01*
X244772142Y-58204761D01*
X244581666Y-58109523D01*
X244486428Y-58014285D01*
X244391190Y-57823809D01*
X244391190Y-57252380D01*
X244486428Y-57061904D01*
X244581666Y-56966666D01*
X244772142Y-56871428D01*
X245153095Y-56871428D01*
X245343571Y-56966666D01*
X247534047Y-56871428D02*
X248295952Y-56871428D01*
X247819761Y-56204761D02*
X247819761Y-57919047D01*
X247915000Y-58109523D01*
X248105476Y-58204761D01*
X248295952Y-58204761D01*
X249248333Y-58204761D02*
X249057857Y-58109523D01*
X248962619Y-58014285D01*
X248867380Y-57823809D01*
X248867380Y-57252380D01*
X248962619Y-57061904D01*
X249057857Y-56966666D01*
X249248333Y-56871428D01*
X249534047Y-56871428D01*
X249724523Y-56966666D01*
X249819761Y-57061904D01*
X249915000Y-57252380D01*
X249915000Y-57823809D01*
X249819761Y-58014285D01*
X249724523Y-58109523D01*
X249534047Y-58204761D01*
X249248333Y-58204761D01*
X252581666Y-58204761D02*
X252391190Y-58109523D01*
X252295952Y-58014285D01*
X252200714Y-57823809D01*
X252200714Y-57252380D01*
X252295952Y-57061904D01*
X252391190Y-56966666D01*
X252581666Y-56871428D01*
X252867380Y-56871428D01*
X253057857Y-56966666D01*
X253153095Y-57061904D01*
X253248333Y-57252380D01*
X253248333Y-57823809D01*
X253153095Y-58014285D01*
X253057857Y-58109523D01*
X252867380Y-58204761D01*
X252581666Y-58204761D01*
X254105476Y-56871428D02*
X254105476Y-58871428D01*
X254105476Y-56966666D02*
X254295952Y-56871428D01*
X254676904Y-56871428D01*
X254867380Y-56966666D01*
X254962619Y-57061904D01*
X255057857Y-57252380D01*
X255057857Y-57823809D01*
X254962619Y-58014285D01*
X254867380Y-58109523D01*
X254676904Y-58204761D01*
X254295952Y-58204761D01*
X254105476Y-58109523D01*
X255629285Y-56871428D02*
X256391190Y-56871428D01*
X255915000Y-56204761D02*
X255915000Y-57919047D01*
X256010238Y-58109523D01*
X256200714Y-58204761D01*
X256391190Y-58204761D01*
X257057857Y-58204761D02*
X257057857Y-56871428D01*
X257057857Y-56204761D02*
X256962619Y-56300000D01*
X257057857Y-56395238D01*
X257153095Y-56300000D01*
X257057857Y-56204761D01*
X257057857Y-56395238D01*
X258295952Y-58204761D02*
X258105476Y-58109523D01*
X258010238Y-58014285D01*
X257915000Y-57823809D01*
X257915000Y-57252380D01*
X258010238Y-57061904D01*
X258105476Y-56966666D01*
X258295952Y-56871428D01*
X258581666Y-56871428D01*
X258772142Y-56966666D01*
X258867380Y-57061904D01*
X258962619Y-57252380D01*
X258962619Y-57823809D01*
X258867380Y-58014285D01*
X258772142Y-58109523D01*
X258581666Y-58204761D01*
X258295952Y-58204761D01*
X259819761Y-56871428D02*
X259819761Y-58204761D01*
X259819761Y-57061904D02*
X259915000Y-56966666D01*
X260105476Y-56871428D01*
X260391190Y-56871428D01*
X260581666Y-56966666D01*
X260676904Y-57157142D01*
X260676904Y-58204761D01*
X262486428Y-58204761D02*
X262486428Y-57157142D01*
X262391190Y-56966666D01*
X262200714Y-56871428D01*
X261819761Y-56871428D01*
X261629285Y-56966666D01*
X262486428Y-58109523D02*
X262295952Y-58204761D01*
X261819761Y-58204761D01*
X261629285Y-58109523D01*
X261534047Y-57919047D01*
X261534047Y-57728571D01*
X261629285Y-57538095D01*
X261819761Y-57442857D01*
X262295952Y-57442857D01*
X262486428Y-57347619D01*
X263724523Y-58204761D02*
X263534047Y-58109523D01*
X263438809Y-57919047D01*
X263438809Y-56204761D01*
X264772142Y-58204761D02*
X264581666Y-58109523D01*
X264486428Y-57919047D01*
X264486428Y-56204761D01*
X265343571Y-56871428D02*
X265819761Y-58204761D01*
X266295952Y-56871428D02*
X265819761Y-58204761D01*
X265629285Y-58680952D01*
X265534047Y-58776190D01*
X265343571Y-58871428D01*
X268581666Y-58204761D02*
X268581666Y-56204761D01*
X268581666Y-56966666D02*
X268772142Y-56871428D01*
X269153095Y-56871428D01*
X269343571Y-56966666D01*
X269438809Y-57061904D01*
X269534047Y-57252380D01*
X269534047Y-57823809D01*
X269438809Y-58014285D01*
X269343571Y-58109523D01*
X269153095Y-58204761D01*
X268772142Y-58204761D01*
X268581666Y-58109523D01*
X271153095Y-58109523D02*
X270962619Y-58204761D01*
X270581666Y-58204761D01*
X270391190Y-58109523D01*
X270295952Y-57919047D01*
X270295952Y-57157142D01*
X270391190Y-56966666D01*
X270581666Y-56871428D01*
X270962619Y-56871428D01*
X271153095Y-56966666D01*
X271248333Y-57157142D01*
X271248333Y-57347619D01*
X270295952Y-57538095D01*
X274486428Y-58204761D02*
X274486428Y-57157142D01*
X274391190Y-56966666D01*
X274200714Y-56871428D01*
X273819761Y-56871428D01*
X273629285Y-56966666D01*
X274486428Y-58109523D02*
X274295952Y-58204761D01*
X273819761Y-58204761D01*
X273629285Y-58109523D01*
X273534047Y-57919047D01*
X273534047Y-57728571D01*
X273629285Y-57538095D01*
X273819761Y-57442857D01*
X274295952Y-57442857D01*
X274486428Y-57347619D01*
X276676904Y-56871428D02*
X277438809Y-56871428D01*
X276962619Y-56204761D02*
X276962619Y-57919047D01*
X277057857Y-58109523D01*
X277248333Y-58204761D01*
X277438809Y-58204761D01*
X277914999Y-56871428D02*
X278295952Y-58204761D01*
X278676904Y-57252380D01*
X279057857Y-58204761D01*
X279438809Y-56871428D01*
X280486428Y-58204761D02*
X280295952Y-58109523D01*
X280200714Y-58014285D01*
X280105476Y-57823809D01*
X280105476Y-57252380D01*
X280200714Y-57061904D01*
X280295952Y-56966666D01*
X280486428Y-56871428D01*
X280772142Y-56871428D01*
X280962619Y-56966666D01*
X281057857Y-57061904D01*
X281153095Y-57252380D01*
X281153095Y-57823809D01*
X281057857Y-58014285D01*
X280962619Y-58109523D01*
X280772142Y-58204761D01*
X280486428Y-58204761D01*
X282010238Y-57442857D02*
X283534047Y-57442857D01*
X284391190Y-58109523D02*
X284581666Y-58204761D01*
X284962619Y-58204761D01*
X285153095Y-58109523D01*
X285248333Y-57919047D01*
X285248333Y-57823809D01*
X285153095Y-57633333D01*
X284962619Y-57538095D01*
X284676904Y-57538095D01*
X284486428Y-57442857D01*
X284391190Y-57252380D01*
X284391190Y-57157142D01*
X284486428Y-56966666D01*
X284676904Y-56871428D01*
X284962619Y-56871428D01*
X285153095Y-56966666D01*
X286105476Y-58204761D02*
X286105476Y-56871428D01*
X286105476Y-56204761D02*
X286010238Y-56300000D01*
X286105476Y-56395238D01*
X286200714Y-56300000D01*
X286105476Y-56204761D01*
X286105476Y-56395238D01*
X287914999Y-58204761D02*
X287914999Y-56204761D01*
X287914999Y-58109523D02*
X287724523Y-58204761D01*
X287343571Y-58204761D01*
X287153095Y-58109523D01*
X287057857Y-58014285D01*
X286962619Y-57823809D01*
X286962619Y-57252380D01*
X287057857Y-57061904D01*
X287153095Y-56966666D01*
X287343571Y-56871428D01*
X287724523Y-56871428D01*
X287914999Y-56966666D01*
X289629285Y-58109523D02*
X289438809Y-58204761D01*
X289057857Y-58204761D01*
X288867380Y-58109523D01*
X288772142Y-57919047D01*
X288772142Y-57157142D01*
X288867380Y-56966666D01*
X289057857Y-56871428D01*
X289438809Y-56871428D01*
X289629285Y-56966666D01*
X289724523Y-57157142D01*
X289724523Y-57347619D01*
X288772142Y-57538095D01*
X291438809Y-58204761D02*
X291438809Y-56204761D01*
X291438809Y-58109523D02*
X291248333Y-58204761D01*
X290867380Y-58204761D01*
X290676904Y-58109523D01*
X290581666Y-58014285D01*
X290486428Y-57823809D01*
X290486428Y-57252380D01*
X290581666Y-57061904D01*
X290676904Y-56966666D01*
X290867380Y-56871428D01*
X291248333Y-56871428D01*
X291438809Y-56966666D01*
X293914999Y-58204761D02*
X293914999Y-56204761D01*
X293914999Y-56966666D02*
X294105476Y-56871428D01*
X294486428Y-56871428D01*
X294676904Y-56966666D01*
X294772142Y-57061904D01*
X294867380Y-57252380D01*
X294867380Y-57823809D01*
X294772142Y-58014285D01*
X294676904Y-58109523D01*
X294486428Y-58204761D01*
X294105476Y-58204761D01*
X293914999Y-58109523D01*
X296010238Y-58204761D02*
X295819761Y-58109523D01*
X295724523Y-58014285D01*
X295629285Y-57823809D01*
X295629285Y-57252380D01*
X295724523Y-57061904D01*
X295819761Y-56966666D01*
X296010238Y-56871428D01*
X296295952Y-56871428D01*
X296486428Y-56966666D01*
X296581666Y-57061904D01*
X296676904Y-57252380D01*
X296676904Y-57823809D01*
X296581666Y-58014285D01*
X296486428Y-58109523D01*
X296295952Y-58204761D01*
X296010238Y-58204761D01*
X298391190Y-58204761D02*
X298391190Y-57157142D01*
X298295952Y-56966666D01*
X298105476Y-56871428D01*
X297724523Y-56871428D01*
X297534047Y-56966666D01*
X298391190Y-58109523D02*
X298200714Y-58204761D01*
X297724523Y-58204761D01*
X297534047Y-58109523D01*
X297438809Y-57919047D01*
X297438809Y-57728571D01*
X297534047Y-57538095D01*
X297724523Y-57442857D01*
X298200714Y-57442857D01*
X298391190Y-57347619D01*
X299343571Y-58204761D02*
X299343571Y-56871428D01*
X299343571Y-57252380D02*
X299438809Y-57061904D01*
X299534047Y-56966666D01*
X299724523Y-56871428D01*
X299914999Y-56871428D01*
X301438809Y-58204761D02*
X301438809Y-56204761D01*
X301438809Y-58109523D02*
X301248333Y-58204761D01*
X300867380Y-58204761D01*
X300676904Y-58109523D01*
X300581666Y-58014285D01*
X300486428Y-57823809D01*
X300486428Y-57252380D01*
X300581666Y-57061904D01*
X300676904Y-56966666D01*
X300867380Y-56871428D01*
X301248333Y-56871428D01*
X301438809Y-56966666D01*
X302391190Y-58014285D02*
X302486428Y-58109523D01*
X302391190Y-58204761D01*
X302295952Y-58109523D01*
X302391190Y-58014285D01*
X302391190Y-58204761D01*
X304867380Y-58204761D02*
X304867380Y-56204761D01*
X304867380Y-57157142D02*
X306010238Y-57157142D01*
X306010238Y-58204761D02*
X306010238Y-56204761D01*
X307248333Y-58204761D02*
X307057857Y-58109523D01*
X306962619Y-58014285D01*
X306867380Y-57823809D01*
X306867380Y-57252380D01*
X306962619Y-57061904D01*
X307057857Y-56966666D01*
X307248333Y-56871428D01*
X307534047Y-56871428D01*
X307724523Y-56966666D01*
X307819761Y-57061904D01*
X307914999Y-57252380D01*
X307914999Y-57823809D01*
X307819761Y-58014285D01*
X307724523Y-58109523D01*
X307534047Y-58204761D01*
X307248333Y-58204761D01*
X308581666Y-56871428D02*
X308962619Y-58204761D01*
X309343571Y-57252380D01*
X309724523Y-58204761D01*
X310105476Y-56871428D01*
X311629285Y-58109523D02*
X311438809Y-58204761D01*
X311057857Y-58204761D01*
X310867380Y-58109523D01*
X310772142Y-57919047D01*
X310772142Y-57157142D01*
X310867380Y-56966666D01*
X311057857Y-56871428D01*
X311438809Y-56871428D01*
X311629285Y-56966666D01*
X311724523Y-57157142D01*
X311724523Y-57347619D01*
X310772142Y-57538095D01*
X312391190Y-56871428D02*
X312867380Y-58204761D01*
X313343571Y-56871428D01*
X314867380Y-58109523D02*
X314676904Y-58204761D01*
X314295952Y-58204761D01*
X314105476Y-58109523D01*
X314010238Y-57919047D01*
X314010238Y-57157142D01*
X314105476Y-56966666D01*
X314295952Y-56871428D01*
X314676904Y-56871428D01*
X314867380Y-56966666D01*
X314962619Y-57157142D01*
X314962619Y-57347619D01*
X314010238Y-57538095D01*
X315819761Y-58204761D02*
X315819761Y-56871428D01*
X315819761Y-57252380D02*
X315914999Y-57061904D01*
X316010238Y-56966666D01*
X316200714Y-56871428D01*
X316391190Y-56871428D01*
X317153095Y-58109523D02*
X317153095Y-58204761D01*
X317057857Y-58395238D01*
X316962619Y-58490476D01*
X212105476Y-60091428D02*
X212867380Y-60091428D01*
X212391190Y-59424761D02*
X212391190Y-61139047D01*
X212486428Y-61329523D01*
X212676904Y-61424761D01*
X212867380Y-61424761D01*
X213534047Y-61424761D02*
X213534047Y-59424761D01*
X214391190Y-61424761D02*
X214391190Y-60377142D01*
X214295952Y-60186666D01*
X214105476Y-60091428D01*
X213819761Y-60091428D01*
X213629285Y-60186666D01*
X213534047Y-60281904D01*
X216105476Y-61329523D02*
X215915000Y-61424761D01*
X215534047Y-61424761D01*
X215343571Y-61329523D01*
X215248333Y-61139047D01*
X215248333Y-60377142D01*
X215343571Y-60186666D01*
X215534047Y-60091428D01*
X215915000Y-60091428D01*
X216105476Y-60186666D01*
X216200714Y-60377142D01*
X216200714Y-60567619D01*
X215248333Y-60758095D01*
X218581666Y-61424761D02*
X218581666Y-59424761D01*
X219438809Y-61424761D02*
X219438809Y-60377142D01*
X219343571Y-60186666D01*
X219153095Y-60091428D01*
X218867380Y-60091428D01*
X218676904Y-60186666D01*
X218581666Y-60281904D01*
X220391190Y-61424761D02*
X220391190Y-60091428D01*
X220391190Y-59424761D02*
X220295952Y-59520000D01*
X220391190Y-59615238D01*
X220486428Y-59520000D01*
X220391190Y-59424761D01*
X220391190Y-59615238D01*
X221248333Y-61329523D02*
X221438809Y-61424761D01*
X221819761Y-61424761D01*
X222010238Y-61329523D01*
X222105476Y-61139047D01*
X222105476Y-61043809D01*
X222010238Y-60853333D01*
X221819761Y-60758095D01*
X221534047Y-60758095D01*
X221343571Y-60662857D01*
X221248333Y-60472380D01*
X221248333Y-60377142D01*
X221343571Y-60186666D01*
X221534047Y-60091428D01*
X221819761Y-60091428D01*
X222010238Y-60186666D01*
X222676904Y-60091428D02*
X223438809Y-60091428D01*
X222962619Y-59424761D02*
X222962619Y-61139047D01*
X223057857Y-61329523D01*
X223248333Y-61424761D01*
X223438809Y-61424761D01*
X224391190Y-61424761D02*
X224200714Y-61329523D01*
X224105476Y-61234285D01*
X224010238Y-61043809D01*
X224010238Y-60472380D01*
X224105476Y-60281904D01*
X224200714Y-60186666D01*
X224391190Y-60091428D01*
X224676904Y-60091428D01*
X224867380Y-60186666D01*
X224962619Y-60281904D01*
X225057857Y-60472380D01*
X225057857Y-61043809D01*
X224962619Y-61234285D01*
X224867380Y-61329523D01*
X224676904Y-61424761D01*
X224391190Y-61424761D01*
X225915000Y-61424761D02*
X225915000Y-60091428D01*
X225915000Y-60472380D02*
X226010238Y-60281904D01*
X226105476Y-60186666D01*
X226295952Y-60091428D01*
X226486428Y-60091428D01*
X227153095Y-61424761D02*
X227153095Y-60091428D01*
X227153095Y-59424761D02*
X227057857Y-59520000D01*
X227153095Y-59615238D01*
X227248333Y-59520000D01*
X227153095Y-59424761D01*
X227153095Y-59615238D01*
X228962619Y-61329523D02*
X228772142Y-61424761D01*
X228391190Y-61424761D01*
X228200714Y-61329523D01*
X228105476Y-61234285D01*
X228010238Y-61043809D01*
X228010238Y-60472380D01*
X228105476Y-60281904D01*
X228200714Y-60186666D01*
X228391190Y-60091428D01*
X228772142Y-60091428D01*
X228962619Y-60186666D01*
X231343571Y-61424761D02*
X231343571Y-59424761D01*
X231343571Y-60186666D02*
X231534047Y-60091428D01*
X231915000Y-60091428D01*
X232105476Y-60186666D01*
X232200714Y-60281904D01*
X232295952Y-60472380D01*
X232295952Y-61043809D01*
X232200714Y-61234285D01*
X232105476Y-61329523D01*
X231915000Y-61424761D01*
X231534047Y-61424761D01*
X231343571Y-61329523D01*
X233438809Y-61424761D02*
X233248333Y-61329523D01*
X233153095Y-61234285D01*
X233057857Y-61043809D01*
X233057857Y-60472380D01*
X233153095Y-60281904D01*
X233248333Y-60186666D01*
X233438809Y-60091428D01*
X233724523Y-60091428D01*
X233915000Y-60186666D01*
X234010238Y-60281904D01*
X234105476Y-60472380D01*
X234105476Y-61043809D01*
X234010238Y-61234285D01*
X233915000Y-61329523D01*
X233724523Y-61424761D01*
X233438809Y-61424761D01*
X235819761Y-61424761D02*
X235819761Y-60377142D01*
X235724523Y-60186666D01*
X235534047Y-60091428D01*
X235153095Y-60091428D01*
X234962619Y-60186666D01*
X235819761Y-61329523D02*
X235629285Y-61424761D01*
X235153095Y-61424761D01*
X234962619Y-61329523D01*
X234867380Y-61139047D01*
X234867380Y-60948571D01*
X234962619Y-60758095D01*
X235153095Y-60662857D01*
X235629285Y-60662857D01*
X235819761Y-60567619D01*
X236772142Y-61424761D02*
X236772142Y-60091428D01*
X236772142Y-60472380D02*
X236867380Y-60281904D01*
X236962619Y-60186666D01*
X237153095Y-60091428D01*
X237343571Y-60091428D01*
X238867380Y-61424761D02*
X238867380Y-59424761D01*
X238867380Y-61329523D02*
X238676904Y-61424761D01*
X238295952Y-61424761D01*
X238105476Y-61329523D01*
X238010238Y-61234285D01*
X237915000Y-61043809D01*
X237915000Y-60472380D01*
X238010238Y-60281904D01*
X238105476Y-60186666D01*
X238295952Y-60091428D01*
X238676904Y-60091428D01*
X238867380Y-60186666D01*
X241343571Y-61424761D02*
X241343571Y-60091428D01*
X241343571Y-59424761D02*
X241248333Y-59520000D01*
X241343571Y-59615238D01*
X241438809Y-59520000D01*
X241343571Y-59424761D01*
X241343571Y-59615238D01*
X242200714Y-61329523D02*
X242391190Y-61424761D01*
X242772142Y-61424761D01*
X242962619Y-61329523D01*
X243057857Y-61139047D01*
X243057857Y-61043809D01*
X242962619Y-60853333D01*
X242772142Y-60758095D01*
X242486428Y-60758095D01*
X242295952Y-60662857D01*
X242200714Y-60472380D01*
X242200714Y-60377142D01*
X242295952Y-60186666D01*
X242486428Y-60091428D01*
X242772142Y-60091428D01*
X242962619Y-60186666D01*
X245724523Y-61424761D02*
X245534047Y-61329523D01*
X245438809Y-61234285D01*
X245343571Y-61043809D01*
X245343571Y-60472380D01*
X245438809Y-60281904D01*
X245534047Y-60186666D01*
X245724523Y-60091428D01*
X246010238Y-60091428D01*
X246200714Y-60186666D01*
X246295952Y-60281904D01*
X246391190Y-60472380D01*
X246391190Y-61043809D01*
X246295952Y-61234285D01*
X246200714Y-61329523D01*
X246010238Y-61424761D01*
X245724523Y-61424761D01*
X247248333Y-60091428D02*
X247248333Y-61424761D01*
X247248333Y-60281904D02*
X247343571Y-60186666D01*
X247534047Y-60091428D01*
X247819761Y-60091428D01*
X248010238Y-60186666D01*
X248105476Y-60377142D01*
X248105476Y-61424761D01*
X249819761Y-61329523D02*
X249629285Y-61424761D01*
X249248333Y-61424761D01*
X249057857Y-61329523D01*
X248962619Y-61139047D01*
X248962619Y-60377142D01*
X249057857Y-60186666D01*
X249248333Y-60091428D01*
X249629285Y-60091428D01*
X249819761Y-60186666D01*
X249915000Y-60377142D01*
X249915000Y-60567619D01*
X248962619Y-60758095D01*
X250772142Y-60662857D02*
X252295952Y-60662857D01*
X253153095Y-61329523D02*
X253343571Y-61424761D01*
X253724523Y-61424761D01*
X253915000Y-61329523D01*
X254010238Y-61139047D01*
X254010238Y-61043809D01*
X253915000Y-60853333D01*
X253724523Y-60758095D01*
X253438809Y-60758095D01*
X253248333Y-60662857D01*
X253153095Y-60472380D01*
X253153095Y-60377142D01*
X253248333Y-60186666D01*
X253438809Y-60091428D01*
X253724523Y-60091428D01*
X253915000Y-60186666D01*
X254867380Y-61424761D02*
X254867380Y-60091428D01*
X254867380Y-59424761D02*
X254772142Y-59520000D01*
X254867380Y-59615238D01*
X254962619Y-59520000D01*
X254867380Y-59424761D01*
X254867380Y-59615238D01*
X256676904Y-61424761D02*
X256676904Y-59424761D01*
X256676904Y-61329523D02*
X256486428Y-61424761D01*
X256105476Y-61424761D01*
X255915000Y-61329523D01*
X255819761Y-61234285D01*
X255724523Y-61043809D01*
X255724523Y-60472380D01*
X255819761Y-60281904D01*
X255915000Y-60186666D01*
X256105476Y-60091428D01*
X256486428Y-60091428D01*
X256676904Y-60186666D01*
X258391190Y-61329523D02*
X258200714Y-61424761D01*
X257819761Y-61424761D01*
X257629285Y-61329523D01*
X257534047Y-61139047D01*
X257534047Y-60377142D01*
X257629285Y-60186666D01*
X257819761Y-60091428D01*
X258200714Y-60091428D01*
X258391190Y-60186666D01*
X258486428Y-60377142D01*
X258486428Y-60567619D01*
X257534047Y-60758095D01*
X260200714Y-61424761D02*
X260200714Y-59424761D01*
X260200714Y-61329523D02*
X260010238Y-61424761D01*
X259629285Y-61424761D01*
X259438809Y-61329523D01*
X259343571Y-61234285D01*
X259248333Y-61043809D01*
X259248333Y-60472380D01*
X259343571Y-60281904D01*
X259438809Y-60186666D01*
X259629285Y-60091428D01*
X260010238Y-60091428D01*
X260200714Y-60186666D01*
X261153095Y-61234285D02*
X261248333Y-61329523D01*
X261153095Y-61424761D01*
X261057857Y-61329523D01*
X261153095Y-61234285D01*
X261153095Y-61424761D01*
X263629285Y-61424761D02*
X263629285Y-59424761D01*
X264391190Y-59424761D01*
X264581666Y-59520000D01*
X264676904Y-59615238D01*
X264772142Y-59805714D01*
X264772142Y-60091428D01*
X264676904Y-60281904D01*
X264581666Y-60377142D01*
X264391190Y-60472380D01*
X263629285Y-60472380D01*
X265915000Y-61424761D02*
X265724523Y-61329523D01*
X265629285Y-61139047D01*
X265629285Y-59424761D01*
X267438809Y-61329523D02*
X267248333Y-61424761D01*
X266867380Y-61424761D01*
X266676904Y-61329523D01*
X266581666Y-61139047D01*
X266581666Y-60377142D01*
X266676904Y-60186666D01*
X266867380Y-60091428D01*
X267248333Y-60091428D01*
X267438809Y-60186666D01*
X267534047Y-60377142D01*
X267534047Y-60567619D01*
X266581666Y-60758095D01*
X269248333Y-61424761D02*
X269248333Y-60377142D01*
X269153095Y-60186666D01*
X268962619Y-60091428D01*
X268581666Y-60091428D01*
X268391190Y-60186666D01*
X269248333Y-61329523D02*
X269057857Y-61424761D01*
X268581666Y-61424761D01*
X268391190Y-61329523D01*
X268295952Y-61139047D01*
X268295952Y-60948571D01*
X268391190Y-60758095D01*
X268581666Y-60662857D01*
X269057857Y-60662857D01*
X269248333Y-60567619D01*
X270105476Y-61329523D02*
X270295952Y-61424761D01*
X270676904Y-61424761D01*
X270867380Y-61329523D01*
X270962619Y-61139047D01*
X270962619Y-61043809D01*
X270867380Y-60853333D01*
X270676904Y-60758095D01*
X270391190Y-60758095D01*
X270200714Y-60662857D01*
X270105476Y-60472380D01*
X270105476Y-60377142D01*
X270200714Y-60186666D01*
X270391190Y-60091428D01*
X270676904Y-60091428D01*
X270867380Y-60186666D01*
X272581666Y-61329523D02*
X272391190Y-61424761D01*
X272010238Y-61424761D01*
X271819761Y-61329523D01*
X271724523Y-61139047D01*
X271724523Y-60377142D01*
X271819761Y-60186666D01*
X272010238Y-60091428D01*
X272391190Y-60091428D01*
X272581666Y-60186666D01*
X272676904Y-60377142D01*
X272676904Y-60567619D01*
X271724523Y-60758095D01*
X275057857Y-61424761D02*
X275057857Y-60091428D01*
X275057857Y-60281904D02*
X275153095Y-60186666D01*
X275343571Y-60091428D01*
X275629285Y-60091428D01*
X275819761Y-60186666D01*
X275915000Y-60377142D01*
X275915000Y-61424761D01*
X275915000Y-60377142D02*
X276010238Y-60186666D01*
X276200714Y-60091428D01*
X276486428Y-60091428D01*
X276676904Y-60186666D01*
X276772142Y-60377142D01*
X276772142Y-61424761D01*
X278581666Y-61424761D02*
X278581666Y-60377142D01*
X278486428Y-60186666D01*
X278295952Y-60091428D01*
X277915000Y-60091428D01*
X277724523Y-60186666D01*
X278581666Y-61329523D02*
X278391190Y-61424761D01*
X277915000Y-61424761D01*
X277724523Y-61329523D01*
X277629285Y-61139047D01*
X277629285Y-60948571D01*
X277724523Y-60758095D01*
X277915000Y-60662857D01*
X278391190Y-60662857D01*
X278581666Y-60567619D01*
X279534047Y-60091428D02*
X279534047Y-61424761D01*
X279534047Y-60281904D02*
X279629285Y-60186666D01*
X279819761Y-60091428D01*
X280105476Y-60091428D01*
X280295952Y-60186666D01*
X280391190Y-60377142D01*
X280391190Y-61424761D01*
X282200714Y-60091428D02*
X282200714Y-61424761D01*
X281343571Y-60091428D02*
X281343571Y-61139047D01*
X281438809Y-61329523D01*
X281629285Y-61424761D01*
X281915000Y-61424761D01*
X282105476Y-61329523D01*
X282200714Y-61234285D01*
X282867380Y-60091428D02*
X283629285Y-60091428D01*
X283153095Y-61424761D02*
X283153095Y-59710476D01*
X283248333Y-59520000D01*
X283438809Y-59424761D01*
X283629285Y-59424761D01*
X285153095Y-61424761D02*
X285153095Y-60377142D01*
X285057857Y-60186666D01*
X284867380Y-60091428D01*
X284486428Y-60091428D01*
X284295952Y-60186666D01*
X285153095Y-61329523D02*
X284962619Y-61424761D01*
X284486428Y-61424761D01*
X284295952Y-61329523D01*
X284200714Y-61139047D01*
X284200714Y-60948571D01*
X284295952Y-60758095D01*
X284486428Y-60662857D01*
X284962619Y-60662857D01*
X285153095Y-60567619D01*
X286962619Y-61329523D02*
X286772142Y-61424761D01*
X286391190Y-61424761D01*
X286200714Y-61329523D01*
X286105476Y-61234285D01*
X286010238Y-61043809D01*
X286010238Y-60472380D01*
X286105476Y-60281904D01*
X286200714Y-60186666D01*
X286391190Y-60091428D01*
X286772142Y-60091428D01*
X286962619Y-60186666D01*
X287534047Y-60091428D02*
X288295952Y-60091428D01*
X287819761Y-59424761D02*
X287819761Y-61139047D01*
X287915000Y-61329523D01*
X288105476Y-61424761D01*
X288295952Y-61424761D01*
X289819761Y-60091428D02*
X289819761Y-61424761D01*
X288962619Y-60091428D02*
X288962619Y-61139047D01*
X289057857Y-61329523D01*
X289248333Y-61424761D01*
X289534047Y-61424761D01*
X289724523Y-61329523D01*
X289819761Y-61234285D01*
X290772142Y-61424761D02*
X290772142Y-60091428D01*
X290772142Y-60472380D02*
X290867380Y-60281904D01*
X290962619Y-60186666D01*
X291153095Y-60091428D01*
X291343571Y-60091428D01*
X292772142Y-61329523D02*
X292581666Y-61424761D01*
X292200714Y-61424761D01*
X292010238Y-61329523D01*
X291915000Y-61139047D01*
X291915000Y-60377142D01*
X292010238Y-60186666D01*
X292200714Y-60091428D01*
X292581666Y-60091428D01*
X292772142Y-60186666D01*
X292867380Y-60377142D01*
X292867380Y-60567619D01*
X291915000Y-60758095D01*
X296105476Y-61424761D02*
X296105476Y-60377142D01*
X296010238Y-60186666D01*
X295819761Y-60091428D01*
X295438809Y-60091428D01*
X295248333Y-60186666D01*
X296105476Y-61329523D02*
X295915000Y-61424761D01*
X295438809Y-61424761D01*
X295248333Y-61329523D01*
X295153095Y-61139047D01*
X295153095Y-60948571D01*
X295248333Y-60758095D01*
X295438809Y-60662857D01*
X295915000Y-60662857D01*
X296105476Y-60567619D01*
X298867380Y-61424761D02*
X298676904Y-61329523D01*
X298581666Y-61234285D01*
X298486428Y-61043809D01*
X298486428Y-60472380D01*
X298581666Y-60281904D01*
X298676904Y-60186666D01*
X298867380Y-60091428D01*
X299153095Y-60091428D01*
X299343571Y-60186666D01*
X299438809Y-60281904D01*
X299534047Y-60472380D01*
X299534047Y-61043809D01*
X299438809Y-61234285D01*
X299343571Y-61329523D01*
X299153095Y-61424761D01*
X298867380Y-61424761D01*
X300391190Y-60091428D02*
X300391190Y-61424761D01*
X300391190Y-60281904D02*
X300486428Y-60186666D01*
X300676904Y-60091428D01*
X300962619Y-60091428D01*
X301153095Y-60186666D01*
X301248333Y-60377142D01*
X301248333Y-61424761D01*
X302962619Y-61329523D02*
X302772142Y-61424761D01*
X302391190Y-61424761D01*
X302200714Y-61329523D01*
X302105476Y-61139047D01*
X302105476Y-60377142D01*
X302200714Y-60186666D01*
X302391190Y-60091428D01*
X302772142Y-60091428D01*
X302962619Y-60186666D01*
X303057857Y-60377142D01*
X303057857Y-60567619D01*
X302105476Y-60758095D01*
X303915000Y-60662857D02*
X305438809Y-60662857D01*
X306295952Y-61329523D02*
X306486428Y-61424761D01*
X306867380Y-61424761D01*
X307057857Y-61329523D01*
X307153095Y-61139047D01*
X307153095Y-61043809D01*
X307057857Y-60853333D01*
X306867380Y-60758095D01*
X306581666Y-60758095D01*
X306391190Y-60662857D01*
X306295952Y-60472380D01*
X306295952Y-60377142D01*
X306391190Y-60186666D01*
X306581666Y-60091428D01*
X306867380Y-60091428D01*
X307057857Y-60186666D01*
X308010238Y-61424761D02*
X308010238Y-60091428D01*
X308010238Y-59424761D02*
X307915000Y-59520000D01*
X308010238Y-59615238D01*
X308105476Y-59520000D01*
X308010238Y-59424761D01*
X308010238Y-59615238D01*
X309819761Y-61424761D02*
X309819761Y-59424761D01*
X309819761Y-61329523D02*
X309629285Y-61424761D01*
X309248333Y-61424761D01*
X309057857Y-61329523D01*
X308962619Y-61234285D01*
X308867380Y-61043809D01*
X308867380Y-60472380D01*
X308962619Y-60281904D01*
X309057857Y-60186666D01*
X309248333Y-60091428D01*
X309629285Y-60091428D01*
X309819761Y-60186666D01*
X311534047Y-61329523D02*
X311343571Y-61424761D01*
X310962619Y-61424761D01*
X310772142Y-61329523D01*
X310676904Y-61139047D01*
X310676904Y-60377142D01*
X310772142Y-60186666D01*
X310962619Y-60091428D01*
X311343571Y-60091428D01*
X311534047Y-60186666D01*
X311629285Y-60377142D01*
X311629285Y-60567619D01*
X310676904Y-60758095D01*
X313343571Y-61424761D02*
X313343571Y-59424761D01*
X313343571Y-61329523D02*
X313153095Y-61424761D01*
X312772142Y-61424761D01*
X312581666Y-61329523D01*
X312486428Y-61234285D01*
X312391190Y-61043809D01*
X312391190Y-60472380D01*
X312486428Y-60281904D01*
X312581666Y-60186666D01*
X312772142Y-60091428D01*
X313153095Y-60091428D01*
X313343571Y-60186666D01*
X212391190Y-64644761D02*
X212391190Y-62644761D01*
X212391190Y-63406666D02*
X212581666Y-63311428D01*
X212962619Y-63311428D01*
X213153095Y-63406666D01*
X213248333Y-63501904D01*
X213343571Y-63692380D01*
X213343571Y-64263809D01*
X213248333Y-64454285D01*
X213153095Y-64549523D01*
X212962619Y-64644761D01*
X212581666Y-64644761D01*
X212391190Y-64549523D01*
X214486428Y-64644761D02*
X214295952Y-64549523D01*
X214200714Y-64454285D01*
X214105476Y-64263809D01*
X214105476Y-63692380D01*
X214200714Y-63501904D01*
X214295952Y-63406666D01*
X214486428Y-63311428D01*
X214772142Y-63311428D01*
X214962619Y-63406666D01*
X215057857Y-63501904D01*
X215153095Y-63692380D01*
X215153095Y-64263809D01*
X215057857Y-64454285D01*
X214962619Y-64549523D01*
X214772142Y-64644761D01*
X214486428Y-64644761D01*
X216867380Y-64644761D02*
X216867380Y-63597142D01*
X216772142Y-63406666D01*
X216581666Y-63311428D01*
X216200714Y-63311428D01*
X216010238Y-63406666D01*
X216867380Y-64549523D02*
X216676904Y-64644761D01*
X216200714Y-64644761D01*
X216010238Y-64549523D01*
X215915000Y-64359047D01*
X215915000Y-64168571D01*
X216010238Y-63978095D01*
X216200714Y-63882857D01*
X216676904Y-63882857D01*
X216867380Y-63787619D01*
X217819761Y-64644761D02*
X217819761Y-63311428D01*
X217819761Y-63692380D02*
X217915000Y-63501904D01*
X218010238Y-63406666D01*
X218200714Y-63311428D01*
X218391190Y-63311428D01*
X219915000Y-64644761D02*
X219915000Y-62644761D01*
X219915000Y-64549523D02*
X219724523Y-64644761D01*
X219343571Y-64644761D01*
X219153095Y-64549523D01*
X219057857Y-64454285D01*
X218962619Y-64263809D01*
X218962619Y-63692380D01*
X219057857Y-63501904D01*
X219153095Y-63406666D01*
X219343571Y-63311428D01*
X219724523Y-63311428D01*
X219915000Y-63406666D01*
X223248333Y-64644761D02*
X223248333Y-63597142D01*
X223153095Y-63406666D01*
X222962619Y-63311428D01*
X222581666Y-63311428D01*
X222391190Y-63406666D01*
X223248333Y-64549523D02*
X223057857Y-64644761D01*
X222581666Y-64644761D01*
X222391190Y-64549523D01*
X222295952Y-64359047D01*
X222295952Y-64168571D01*
X222391190Y-63978095D01*
X222581666Y-63882857D01*
X223057857Y-63882857D01*
X223248333Y-63787619D01*
X225057857Y-64549523D02*
X224867380Y-64644761D01*
X224486428Y-64644761D01*
X224295952Y-64549523D01*
X224200714Y-64454285D01*
X224105476Y-64263809D01*
X224105476Y-63692380D01*
X224200714Y-63501904D01*
X224295952Y-63406666D01*
X224486428Y-63311428D01*
X224867380Y-63311428D01*
X225057857Y-63406666D01*
X226772142Y-64549523D02*
X226581666Y-64644761D01*
X226200714Y-64644761D01*
X226010238Y-64549523D01*
X225915000Y-64454285D01*
X225819761Y-64263809D01*
X225819761Y-63692380D01*
X225915000Y-63501904D01*
X226010238Y-63406666D01*
X226200714Y-63311428D01*
X226581666Y-63311428D01*
X226772142Y-63406666D01*
X227915000Y-64644761D02*
X227724523Y-64549523D01*
X227629285Y-64454285D01*
X227534047Y-64263809D01*
X227534047Y-63692380D01*
X227629285Y-63501904D01*
X227724523Y-63406666D01*
X227915000Y-63311428D01*
X228200714Y-63311428D01*
X228391190Y-63406666D01*
X228486428Y-63501904D01*
X228581666Y-63692380D01*
X228581666Y-64263809D01*
X228486428Y-64454285D01*
X228391190Y-64549523D01*
X228200714Y-64644761D01*
X227915000Y-64644761D01*
X229438809Y-64644761D02*
X229438809Y-63311428D01*
X229438809Y-63692380D02*
X229534047Y-63501904D01*
X229629285Y-63406666D01*
X229819761Y-63311428D01*
X230010238Y-63311428D01*
X231534047Y-64644761D02*
X231534047Y-62644761D01*
X231534047Y-64549523D02*
X231343571Y-64644761D01*
X230962619Y-64644761D01*
X230772142Y-64549523D01*
X230676904Y-64454285D01*
X230581666Y-64263809D01*
X230581666Y-63692380D01*
X230676904Y-63501904D01*
X230772142Y-63406666D01*
X230962619Y-63311428D01*
X231343571Y-63311428D01*
X231534047Y-63406666D01*
X232486428Y-64644761D02*
X232486428Y-63311428D01*
X232486428Y-62644761D02*
X232391190Y-62740000D01*
X232486428Y-62835238D01*
X232581666Y-62740000D01*
X232486428Y-62644761D01*
X232486428Y-62835238D01*
X233438809Y-63311428D02*
X233438809Y-64644761D01*
X233438809Y-63501904D02*
X233534047Y-63406666D01*
X233724523Y-63311428D01*
X234010238Y-63311428D01*
X234200714Y-63406666D01*
X234295952Y-63597142D01*
X234295952Y-64644761D01*
X236105476Y-63311428D02*
X236105476Y-64930476D01*
X236010238Y-65120952D01*
X235915000Y-65216190D01*
X235724523Y-65311428D01*
X235438809Y-65311428D01*
X235248333Y-65216190D01*
X236105476Y-64549523D02*
X235915000Y-64644761D01*
X235534047Y-64644761D01*
X235343571Y-64549523D01*
X235248333Y-64454285D01*
X235153095Y-64263809D01*
X235153095Y-63692380D01*
X235248333Y-63501904D01*
X235343571Y-63406666D01*
X235534047Y-63311428D01*
X235915000Y-63311428D01*
X236105476Y-63406666D01*
X238295952Y-63311428D02*
X239057857Y-63311428D01*
X238581666Y-62644761D02*
X238581666Y-64359047D01*
X238676904Y-64549523D01*
X238867380Y-64644761D01*
X239057857Y-64644761D01*
X240010238Y-64644761D02*
X239819761Y-64549523D01*
X239724523Y-64454285D01*
X239629285Y-64263809D01*
X239629285Y-63692380D01*
X239724523Y-63501904D01*
X239819761Y-63406666D01*
X240010238Y-63311428D01*
X240295952Y-63311428D01*
X240486428Y-63406666D01*
X240581666Y-63501904D01*
X240676904Y-63692380D01*
X240676904Y-64263809D01*
X240581666Y-64454285D01*
X240486428Y-64549523D01*
X240295952Y-64644761D01*
X240010238Y-64644761D01*
X242772142Y-63311428D02*
X243534047Y-63311428D01*
X243057857Y-62644761D02*
X243057857Y-64359047D01*
X243153095Y-64549523D01*
X243343571Y-64644761D01*
X243534047Y-64644761D01*
X244200714Y-64644761D02*
X244200714Y-62644761D01*
X245057857Y-64644761D02*
X245057857Y-63597142D01*
X244962619Y-63406666D01*
X244772142Y-63311428D01*
X244486428Y-63311428D01*
X244295952Y-63406666D01*
X244200714Y-63501904D01*
X246772142Y-64549523D02*
X246581666Y-64644761D01*
X246200714Y-64644761D01*
X246010238Y-64549523D01*
X245915000Y-64359047D01*
X245915000Y-63597142D01*
X246010238Y-63406666D01*
X246200714Y-63311428D01*
X246581666Y-63311428D01*
X246772142Y-63406666D01*
X246867380Y-63597142D01*
X246867380Y-63787619D01*
X245915000Y-63978095D01*
X248962619Y-63311428D02*
X249724523Y-63311428D01*
X249248333Y-64644761D02*
X249248333Y-62930476D01*
X249343571Y-62740000D01*
X249534047Y-62644761D01*
X249724523Y-62644761D01*
X250676904Y-64644761D02*
X250486428Y-64549523D01*
X250391190Y-64454285D01*
X250295952Y-64263809D01*
X250295952Y-63692380D01*
X250391190Y-63501904D01*
X250486428Y-63406666D01*
X250676904Y-63311428D01*
X250962619Y-63311428D01*
X251153095Y-63406666D01*
X251248333Y-63501904D01*
X251343571Y-63692380D01*
X251343571Y-64263809D01*
X251248333Y-64454285D01*
X251153095Y-64549523D01*
X250962619Y-64644761D01*
X250676904Y-64644761D01*
X252486428Y-64644761D02*
X252295952Y-64549523D01*
X252200714Y-64359047D01*
X252200714Y-62644761D01*
X253534047Y-64644761D02*
X253343571Y-64549523D01*
X253248333Y-64359047D01*
X253248333Y-62644761D01*
X254581666Y-64644761D02*
X254391190Y-64549523D01*
X254295952Y-64454285D01*
X254200714Y-64263809D01*
X254200714Y-63692380D01*
X254295952Y-63501904D01*
X254391190Y-63406666D01*
X254581666Y-63311428D01*
X254867380Y-63311428D01*
X255057857Y-63406666D01*
X255153095Y-63501904D01*
X255248333Y-63692380D01*
X255248333Y-64263809D01*
X255153095Y-64454285D01*
X255057857Y-64549523D01*
X254867380Y-64644761D01*
X254581666Y-64644761D01*
X255914999Y-63311428D02*
X256295952Y-64644761D01*
X256676904Y-63692380D01*
X257057857Y-64644761D01*
X257438809Y-63311428D01*
X258200714Y-64644761D02*
X258200714Y-63311428D01*
X258200714Y-62644761D02*
X258105476Y-62740000D01*
X258200714Y-62835238D01*
X258295952Y-62740000D01*
X258200714Y-62644761D01*
X258200714Y-62835238D01*
X259153095Y-63311428D02*
X259153095Y-64644761D01*
X259153095Y-63501904D02*
X259248333Y-63406666D01*
X259438809Y-63311428D01*
X259724523Y-63311428D01*
X259915000Y-63406666D01*
X260010238Y-63597142D01*
X260010238Y-64644761D01*
X261819761Y-63311428D02*
X261819761Y-64930476D01*
X261724523Y-65120952D01*
X261629285Y-65216190D01*
X261438809Y-65311428D01*
X261153095Y-65311428D01*
X260962619Y-65216190D01*
X261819761Y-64549523D02*
X261629285Y-64644761D01*
X261248333Y-64644761D01*
X261057857Y-64549523D01*
X260962619Y-64454285D01*
X260867380Y-64263809D01*
X260867380Y-63692380D01*
X260962619Y-63501904D01*
X261057857Y-63406666D01*
X261248333Y-63311428D01*
X261629285Y-63311428D01*
X261819761Y-63406666D01*
X262772142Y-64454285D02*
X262867380Y-64549523D01*
X262772142Y-64644761D01*
X262676904Y-64549523D01*
X262772142Y-64454285D01*
X262772142Y-64644761D01*
X262772142Y-63406666D02*
X262867380Y-63501904D01*
X262772142Y-63597142D01*
X262676904Y-63501904D01*
X262772142Y-63406666D01*
X262772142Y-63597142D01*
X215724523Y-65864761D02*
X215724523Y-66340952D01*
X215248333Y-66150476D02*
X215724523Y-66340952D01*
X216200714Y-66150476D01*
X215438809Y-66721904D02*
X215724523Y-66340952D01*
X216010238Y-66721904D01*
X219629285Y-67674285D02*
X219534047Y-67769523D01*
X219248333Y-67864761D01*
X219057857Y-67864761D01*
X218772142Y-67769523D01*
X218581666Y-67579047D01*
X218486428Y-67388571D01*
X218391190Y-67007619D01*
X218391190Y-66721904D01*
X218486428Y-66340952D01*
X218581666Y-66150476D01*
X218772142Y-65960000D01*
X219057857Y-65864761D01*
X219248333Y-65864761D01*
X219534047Y-65960000D01*
X219629285Y-66055238D01*
X220772142Y-67864761D02*
X220581666Y-67769523D01*
X220486428Y-67674285D01*
X220391190Y-67483809D01*
X220391190Y-66912380D01*
X220486428Y-66721904D01*
X220581666Y-66626666D01*
X220772142Y-66531428D01*
X221057857Y-66531428D01*
X221248333Y-66626666D01*
X221343571Y-66721904D01*
X221438809Y-66912380D01*
X221438809Y-67483809D01*
X221343571Y-67674285D01*
X221248333Y-67769523D01*
X221057857Y-67864761D01*
X220772142Y-67864761D01*
X222295952Y-66531428D02*
X222295952Y-68531428D01*
X222295952Y-66626666D02*
X222486428Y-66531428D01*
X222867380Y-66531428D01*
X223057857Y-66626666D01*
X223153095Y-66721904D01*
X223248333Y-66912380D01*
X223248333Y-67483809D01*
X223153095Y-67674285D01*
X223057857Y-67769523D01*
X222867380Y-67864761D01*
X222486428Y-67864761D01*
X222295952Y-67769523D01*
X224105476Y-66531428D02*
X224105476Y-68531428D01*
X224105476Y-66626666D02*
X224295952Y-66531428D01*
X224676904Y-66531428D01*
X224867380Y-66626666D01*
X224962619Y-66721904D01*
X225057857Y-66912380D01*
X225057857Y-67483809D01*
X224962619Y-67674285D01*
X224867380Y-67769523D01*
X224676904Y-67864761D01*
X224295952Y-67864761D01*
X224105476Y-67769523D01*
X226676904Y-67769523D02*
X226486428Y-67864761D01*
X226105476Y-67864761D01*
X225915000Y-67769523D01*
X225819761Y-67579047D01*
X225819761Y-66817142D01*
X225915000Y-66626666D01*
X226105476Y-66531428D01*
X226486428Y-66531428D01*
X226676904Y-66626666D01*
X226772142Y-66817142D01*
X226772142Y-67007619D01*
X225819761Y-67198095D01*
X227629285Y-67864761D02*
X227629285Y-66531428D01*
X227629285Y-66912380D02*
X227724523Y-66721904D01*
X227819761Y-66626666D01*
X228010238Y-66531428D01*
X228200714Y-66531428D01*
X230676904Y-67864761D02*
X230486428Y-67769523D01*
X230391190Y-67674285D01*
X230295952Y-67483809D01*
X230295952Y-66912380D01*
X230391190Y-66721904D01*
X230486428Y-66626666D01*
X230676904Y-66531428D01*
X230962619Y-66531428D01*
X231153095Y-66626666D01*
X231248333Y-66721904D01*
X231343571Y-66912380D01*
X231343571Y-67483809D01*
X231248333Y-67674285D01*
X231153095Y-67769523D01*
X230962619Y-67864761D01*
X230676904Y-67864761D01*
X232200714Y-66531428D02*
X232200714Y-67864761D01*
X232200714Y-66721904D02*
X232295952Y-66626666D01*
X232486428Y-66531428D01*
X232772142Y-66531428D01*
X232962619Y-66626666D01*
X233057857Y-66817142D01*
X233057857Y-67864761D01*
X234295952Y-67864761D02*
X234105476Y-67769523D01*
X234010238Y-67579047D01*
X234010238Y-65864761D01*
X234867380Y-66531428D02*
X235343571Y-67864761D01*
X235819761Y-66531428D02*
X235343571Y-67864761D01*
X235153095Y-68340952D01*
X235057857Y-68436190D01*
X234867380Y-68531428D01*
X238391190Y-67864761D02*
X238200714Y-67769523D01*
X238105476Y-67674285D01*
X238010238Y-67483809D01*
X238010238Y-66912380D01*
X238105476Y-66721904D01*
X238200714Y-66626666D01*
X238391190Y-66531428D01*
X238676904Y-66531428D01*
X238867380Y-66626666D01*
X238962619Y-66721904D01*
X239057857Y-66912380D01*
X239057857Y-67483809D01*
X238962619Y-67674285D01*
X238867380Y-67769523D01*
X238676904Y-67864761D01*
X238391190Y-67864761D01*
X239915000Y-66531428D02*
X239915000Y-67864761D01*
X239915000Y-66721904D02*
X240010238Y-66626666D01*
X240200714Y-66531428D01*
X240486428Y-66531428D01*
X240676904Y-66626666D01*
X240772142Y-66817142D01*
X240772142Y-67864761D01*
X242962619Y-66531428D02*
X243724523Y-66531428D01*
X243248333Y-65864761D02*
X243248333Y-67579047D01*
X243343571Y-67769523D01*
X243534047Y-67864761D01*
X243724523Y-67864761D01*
X244391190Y-67864761D02*
X244391190Y-65864761D01*
X245248333Y-67864761D02*
X245248333Y-66817142D01*
X245153095Y-66626666D01*
X244962619Y-66531428D01*
X244676904Y-66531428D01*
X244486428Y-66626666D01*
X244391190Y-66721904D01*
X246962619Y-67769523D02*
X246772142Y-67864761D01*
X246391190Y-67864761D01*
X246200714Y-67769523D01*
X246105476Y-67579047D01*
X246105476Y-66817142D01*
X246200714Y-66626666D01*
X246391190Y-66531428D01*
X246772142Y-66531428D01*
X246962619Y-66626666D01*
X247057857Y-66817142D01*
X247057857Y-67007619D01*
X246105476Y-67198095D01*
X250105476Y-66817142D02*
X250391190Y-66912380D01*
X250486428Y-67007619D01*
X250581666Y-67198095D01*
X250581666Y-67483809D01*
X250486428Y-67674285D01*
X250391190Y-67769523D01*
X250200714Y-67864761D01*
X249438809Y-67864761D01*
X249438809Y-65864761D01*
X250105476Y-65864761D01*
X250295952Y-65960000D01*
X250391190Y-66055238D01*
X250486428Y-66245714D01*
X250486428Y-66436190D01*
X250391190Y-66626666D01*
X250295952Y-66721904D01*
X250105476Y-66817142D01*
X249438809Y-66817142D01*
X251343571Y-67293333D02*
X252295952Y-67293333D01*
X251153095Y-67864761D02*
X251819761Y-65864761D01*
X252486428Y-67864761D01*
X254295952Y-67674285D02*
X254200714Y-67769523D01*
X253915000Y-67864761D01*
X253724523Y-67864761D01*
X253438809Y-67769523D01*
X253248333Y-67579047D01*
X253153095Y-67388571D01*
X253057857Y-67007619D01*
X253057857Y-66721904D01*
X253153095Y-66340952D01*
X253248333Y-66150476D01*
X253438809Y-65960000D01*
X253724523Y-65864761D01*
X253915000Y-65864761D01*
X254200714Y-65960000D01*
X254295952Y-66055238D01*
X255153095Y-67864761D02*
X255153095Y-65864761D01*
X256295952Y-67864761D02*
X255438809Y-66721904D01*
X256295952Y-65864761D02*
X255153095Y-67007619D01*
X258581666Y-67769523D02*
X258772142Y-67864761D01*
X259153095Y-67864761D01*
X259343571Y-67769523D01*
X259438809Y-67579047D01*
X259438809Y-67483809D01*
X259343571Y-67293333D01*
X259153095Y-67198095D01*
X258867380Y-67198095D01*
X258676904Y-67102857D01*
X258581666Y-66912380D01*
X258581666Y-66817142D01*
X258676904Y-66626666D01*
X258867380Y-66531428D01*
X259153095Y-66531428D01*
X259343571Y-66626666D01*
X260295952Y-67864761D02*
X260295952Y-66531428D01*
X260295952Y-65864761D02*
X260200714Y-65960000D01*
X260295952Y-66055238D01*
X260391190Y-65960000D01*
X260295952Y-65864761D01*
X260295952Y-66055238D01*
X262105476Y-67864761D02*
X262105476Y-65864761D01*
X262105476Y-67769523D02*
X261915000Y-67864761D01*
X261534047Y-67864761D01*
X261343571Y-67769523D01*
X261248333Y-67674285D01*
X261153095Y-67483809D01*
X261153095Y-66912380D01*
X261248333Y-66721904D01*
X261343571Y-66626666D01*
X261534047Y-66531428D01*
X261915000Y-66531428D01*
X262105476Y-66626666D01*
X263819761Y-67769523D02*
X263629285Y-67864761D01*
X263248333Y-67864761D01*
X263057857Y-67769523D01*
X262962619Y-67579047D01*
X262962619Y-66817142D01*
X263057857Y-66626666D01*
X263248333Y-66531428D01*
X263629285Y-66531428D01*
X263819761Y-66626666D01*
X263915000Y-66817142D01*
X263915000Y-67007619D01*
X262962619Y-67198095D01*
X264772142Y-67674285D02*
X264867380Y-67769523D01*
X264772142Y-67864761D01*
X264676904Y-67769523D01*
X264772142Y-67674285D01*
X264772142Y-67864761D01*
X266962619Y-65864761D02*
X268105476Y-65864761D01*
X267534047Y-67864761D02*
X267534047Y-65864761D01*
X268772142Y-67864761D02*
X268772142Y-65864761D01*
X269629285Y-67864761D02*
X269629285Y-66817142D01*
X269534047Y-66626666D01*
X269343571Y-66531428D01*
X269057857Y-66531428D01*
X268867380Y-66626666D01*
X268772142Y-66721904D01*
X270581666Y-67864761D02*
X270581666Y-66531428D01*
X270581666Y-66912380D02*
X270676904Y-66721904D01*
X270772142Y-66626666D01*
X270962619Y-66531428D01*
X271153095Y-66531428D01*
X272105476Y-67864761D02*
X271915000Y-67769523D01*
X271819761Y-67674285D01*
X271724523Y-67483809D01*
X271724523Y-66912380D01*
X271819761Y-66721904D01*
X271915000Y-66626666D01*
X272105476Y-66531428D01*
X272391190Y-66531428D01*
X272581666Y-66626666D01*
X272676904Y-66721904D01*
X272772142Y-66912380D01*
X272772142Y-67483809D01*
X272676904Y-67674285D01*
X272581666Y-67769523D01*
X272391190Y-67864761D01*
X272105476Y-67864761D01*
X274486428Y-66531428D02*
X274486428Y-67864761D01*
X273629285Y-66531428D02*
X273629285Y-67579047D01*
X273724523Y-67769523D01*
X273915000Y-67864761D01*
X274200714Y-67864761D01*
X274391190Y-67769523D01*
X274486428Y-67674285D01*
X276295952Y-66531428D02*
X276295952Y-68150476D01*
X276200714Y-68340952D01*
X276105476Y-68436190D01*
X275915000Y-68531428D01*
X275629285Y-68531428D01*
X275438809Y-68436190D01*
X276295952Y-67769523D02*
X276105476Y-67864761D01*
X275724523Y-67864761D01*
X275534047Y-67769523D01*
X275438809Y-67674285D01*
X275343571Y-67483809D01*
X275343571Y-66912380D01*
X275438809Y-66721904D01*
X275534047Y-66626666D01*
X275724523Y-66531428D01*
X276105476Y-66531428D01*
X276295952Y-66626666D01*
X277248333Y-67864761D02*
X277248333Y-65864761D01*
X278105476Y-67864761D02*
X278105476Y-66817142D01*
X278010238Y-66626666D01*
X277819761Y-66531428D01*
X277534047Y-66531428D01*
X277343571Y-66626666D01*
X277248333Y-66721904D01*
X279057857Y-67102857D02*
X280581666Y-67102857D01*
X281534047Y-67864761D02*
X281534047Y-65864761D01*
X282391190Y-67864761D02*
X282391190Y-66817142D01*
X282295952Y-66626666D01*
X282105476Y-66531428D01*
X281819761Y-66531428D01*
X281629285Y-66626666D01*
X281534047Y-66721904D01*
X283629285Y-67864761D02*
X283438809Y-67769523D01*
X283343571Y-67674285D01*
X283248333Y-67483809D01*
X283248333Y-66912380D01*
X283343571Y-66721904D01*
X283438809Y-66626666D01*
X283629285Y-66531428D01*
X283915000Y-66531428D01*
X284105476Y-66626666D01*
X284200714Y-66721904D01*
X284295952Y-66912380D01*
X284295952Y-67483809D01*
X284200714Y-67674285D01*
X284105476Y-67769523D01*
X283915000Y-67864761D01*
X283629285Y-67864761D01*
X285438809Y-67864761D02*
X285248333Y-67769523D01*
X285153095Y-67579047D01*
X285153095Y-65864761D01*
X286962619Y-67769523D02*
X286772142Y-67864761D01*
X286391190Y-67864761D01*
X286200714Y-67769523D01*
X286105476Y-67579047D01*
X286105476Y-66817142D01*
X286200714Y-66626666D01*
X286391190Y-66531428D01*
X286772142Y-66531428D01*
X286962619Y-66626666D01*
X287057857Y-66817142D01*
X287057857Y-67007619D01*
X286105476Y-67198095D01*
X289438809Y-66531428D02*
X289438809Y-68531428D01*
X289438809Y-66626666D02*
X289629285Y-66531428D01*
X290010238Y-66531428D01*
X290200714Y-66626666D01*
X290295952Y-66721904D01*
X290391190Y-66912380D01*
X290391190Y-67483809D01*
X290295952Y-67674285D01*
X290200714Y-67769523D01*
X290010238Y-67864761D01*
X289629285Y-67864761D01*
X289438809Y-67769523D01*
X291534047Y-67864761D02*
X291343571Y-67769523D01*
X291248333Y-67579047D01*
X291248333Y-65864761D01*
X293153095Y-67864761D02*
X293153095Y-66817142D01*
X293057857Y-66626666D01*
X292867380Y-66531428D01*
X292486428Y-66531428D01*
X292295952Y-66626666D01*
X293153095Y-67769523D02*
X292962619Y-67864761D01*
X292486428Y-67864761D01*
X292295952Y-67769523D01*
X292200714Y-67579047D01*
X292200714Y-67388571D01*
X292295952Y-67198095D01*
X292486428Y-67102857D01*
X292962619Y-67102857D01*
X293153095Y-67007619D01*
X293819761Y-66531428D02*
X294581666Y-66531428D01*
X294105476Y-65864761D02*
X294105476Y-67579047D01*
X294200714Y-67769523D01*
X294391190Y-67864761D01*
X294581666Y-67864761D01*
X295248333Y-67864761D02*
X295248333Y-66531428D01*
X295248333Y-65864761D02*
X295153095Y-65960000D01*
X295248333Y-66055238D01*
X295343571Y-65960000D01*
X295248333Y-65864761D01*
X295248333Y-66055238D01*
X296200714Y-66531428D02*
X296200714Y-67864761D01*
X296200714Y-66721904D02*
X296295952Y-66626666D01*
X296486428Y-66531428D01*
X296772142Y-66531428D01*
X296962619Y-66626666D01*
X297057857Y-66817142D01*
X297057857Y-67864761D01*
X298867380Y-66531428D02*
X298867380Y-68150476D01*
X298772142Y-68340952D01*
X298676904Y-68436190D01*
X298486428Y-68531428D01*
X298200714Y-68531428D01*
X298010238Y-68436190D01*
X298867380Y-67769523D02*
X298676904Y-67864761D01*
X298295952Y-67864761D01*
X298105476Y-67769523D01*
X298010238Y-67674285D01*
X297915000Y-67483809D01*
X297915000Y-66912380D01*
X298010238Y-66721904D01*
X298105476Y-66626666D01*
X298295952Y-66531428D01*
X298676904Y-66531428D01*
X298867380Y-66626666D01*
X301343571Y-67864761D02*
X301343571Y-66531428D01*
X301343571Y-65864761D02*
X301248333Y-65960000D01*
X301343571Y-66055238D01*
X301438809Y-65960000D01*
X301343571Y-65864761D01*
X301343571Y-66055238D01*
X302200714Y-67769523D02*
X302391190Y-67864761D01*
X302772142Y-67864761D01*
X302962619Y-67769523D01*
X303057857Y-67579047D01*
X303057857Y-67483809D01*
X302962619Y-67293333D01*
X302772142Y-67198095D01*
X302486428Y-67198095D01*
X302295952Y-67102857D01*
X302200714Y-66912380D01*
X302200714Y-66817142D01*
X302295952Y-66626666D01*
X302486428Y-66531428D01*
X302772142Y-66531428D01*
X302962619Y-66626666D01*
X305438809Y-66531428D02*
X305438809Y-67864761D01*
X305438809Y-66721904D02*
X305534047Y-66626666D01*
X305724523Y-66531428D01*
X306010238Y-66531428D01*
X306200714Y-66626666D01*
X306295952Y-66817142D01*
X306295952Y-67864761D01*
X307534047Y-67864761D02*
X307343571Y-67769523D01*
X307248333Y-67674285D01*
X307153095Y-67483809D01*
X307153095Y-66912380D01*
X307248333Y-66721904D01*
X307343571Y-66626666D01*
X307534047Y-66531428D01*
X307819761Y-66531428D01*
X308010238Y-66626666D01*
X308105476Y-66721904D01*
X308200714Y-66912380D01*
X308200714Y-67483809D01*
X308105476Y-67674285D01*
X308010238Y-67769523D01*
X307819761Y-67864761D01*
X307534047Y-67864761D01*
X308772142Y-66531428D02*
X309534047Y-66531428D01*
X309057857Y-65864761D02*
X309057857Y-67579047D01*
X309153095Y-67769523D01*
X309343571Y-67864761D01*
X309534047Y-67864761D01*
X218486428Y-71084761D02*
X218486428Y-69751428D01*
X218486428Y-70132380D02*
X218581666Y-69941904D01*
X218676904Y-69846666D01*
X218867380Y-69751428D01*
X219057857Y-69751428D01*
X220486428Y-70989523D02*
X220295952Y-71084761D01*
X219915000Y-71084761D01*
X219724523Y-70989523D01*
X219629285Y-70799047D01*
X219629285Y-70037142D01*
X219724523Y-69846666D01*
X219915000Y-69751428D01*
X220295952Y-69751428D01*
X220486428Y-69846666D01*
X220581666Y-70037142D01*
X220581666Y-70227619D01*
X219629285Y-70418095D01*
X222295952Y-69751428D02*
X222295952Y-71751428D01*
X222295952Y-70989523D02*
X222105476Y-71084761D01*
X221724523Y-71084761D01*
X221534047Y-70989523D01*
X221438809Y-70894285D01*
X221343571Y-70703809D01*
X221343571Y-70132380D01*
X221438809Y-69941904D01*
X221534047Y-69846666D01*
X221724523Y-69751428D01*
X222105476Y-69751428D01*
X222295952Y-69846666D01*
X224105476Y-69751428D02*
X224105476Y-71084761D01*
X223248333Y-69751428D02*
X223248333Y-70799047D01*
X223343571Y-70989523D01*
X223534047Y-71084761D01*
X223819761Y-71084761D01*
X224010238Y-70989523D01*
X224105476Y-70894285D01*
X225057857Y-71084761D02*
X225057857Y-69751428D01*
X225057857Y-69084761D02*
X224962619Y-69180000D01*
X225057857Y-69275238D01*
X225153095Y-69180000D01*
X225057857Y-69084761D01*
X225057857Y-69275238D01*
X226010238Y-71084761D02*
X226010238Y-69751428D01*
X226010238Y-70132380D02*
X226105476Y-69941904D01*
X226200714Y-69846666D01*
X226391190Y-69751428D01*
X226581666Y-69751428D01*
X228010238Y-70989523D02*
X227819761Y-71084761D01*
X227438809Y-71084761D01*
X227248333Y-70989523D01*
X227153095Y-70799047D01*
X227153095Y-70037142D01*
X227248333Y-69846666D01*
X227438809Y-69751428D01*
X227819761Y-69751428D01*
X228010238Y-69846666D01*
X228105476Y-70037142D01*
X228105476Y-70227619D01*
X227153095Y-70418095D01*
X229819761Y-71084761D02*
X229819761Y-69084761D01*
X229819761Y-70989523D02*
X229629285Y-71084761D01*
X229248333Y-71084761D01*
X229057857Y-70989523D01*
X228962619Y-70894285D01*
X228867380Y-70703809D01*
X228867380Y-70132380D01*
X228962619Y-69941904D01*
X229057857Y-69846666D01*
X229248333Y-69751428D01*
X229629285Y-69751428D01*
X229819761Y-69846666D01*
X233153095Y-71084761D02*
X233153095Y-70037142D01*
X233057857Y-69846666D01*
X232867380Y-69751428D01*
X232486428Y-69751428D01*
X232295952Y-69846666D01*
X233153095Y-70989523D02*
X232962619Y-71084761D01*
X232486428Y-71084761D01*
X232295952Y-70989523D01*
X232200714Y-70799047D01*
X232200714Y-70608571D01*
X232295952Y-70418095D01*
X232486428Y-70322857D01*
X232962619Y-70322857D01*
X233153095Y-70227619D01*
X234105476Y-69751428D02*
X234105476Y-71084761D01*
X234105476Y-69941904D02*
X234200714Y-69846666D01*
X234391190Y-69751428D01*
X234676904Y-69751428D01*
X234867380Y-69846666D01*
X234962619Y-70037142D01*
X234962619Y-71084761D01*
X235724523Y-69751428D02*
X236200714Y-71084761D01*
X236676904Y-69751428D02*
X236200714Y-71084761D01*
X236010238Y-71560952D01*
X235915000Y-71656190D01*
X235724523Y-71751428D01*
X237248333Y-69751428D02*
X237629285Y-71084761D01*
X238010238Y-70132380D01*
X238391190Y-71084761D01*
X238772142Y-69751428D01*
X239534047Y-71084761D02*
X239534047Y-69084761D01*
X240391190Y-71084761D02*
X240391190Y-70037142D01*
X240295952Y-69846666D01*
X240105476Y-69751428D01*
X239819761Y-69751428D01*
X239629285Y-69846666D01*
X239534047Y-69941904D01*
X242105476Y-70989523D02*
X241915000Y-71084761D01*
X241534047Y-71084761D01*
X241343571Y-70989523D01*
X241248333Y-70799047D01*
X241248333Y-70037142D01*
X241343571Y-69846666D01*
X241534047Y-69751428D01*
X241915000Y-69751428D01*
X242105476Y-69846666D01*
X242200714Y-70037142D01*
X242200714Y-70227619D01*
X241248333Y-70418095D01*
X243057857Y-71084761D02*
X243057857Y-69751428D01*
X243057857Y-70132380D02*
X243153095Y-69941904D01*
X243248333Y-69846666D01*
X243438809Y-69751428D01*
X243629285Y-69751428D01*
X245057857Y-70989523D02*
X244867380Y-71084761D01*
X244486428Y-71084761D01*
X244295952Y-70989523D01*
X244200714Y-70799047D01*
X244200714Y-70037142D01*
X244295952Y-69846666D01*
X244486428Y-69751428D01*
X244867380Y-69751428D01*
X245057857Y-69846666D01*
X245153095Y-70037142D01*
X245153095Y-70227619D01*
X244200714Y-70418095D01*
X246010238Y-70894285D02*
X246105476Y-70989523D01*
X246010238Y-71084761D01*
X245915000Y-70989523D01*
X246010238Y-70894285D01*
X246010238Y-71084761D01*
X215724523Y-72304761D02*
X215724523Y-72780952D01*
X215248333Y-72590476D02*
X215724523Y-72780952D01*
X216200714Y-72590476D01*
X215438809Y-73161904D02*
X215724523Y-72780952D01*
X216010238Y-73161904D01*
X218391190Y-74209523D02*
X218676904Y-74304761D01*
X219153095Y-74304761D01*
X219343571Y-74209523D01*
X219438809Y-74114285D01*
X219534047Y-73923809D01*
X219534047Y-73733333D01*
X219438809Y-73542857D01*
X219343571Y-73447619D01*
X219153095Y-73352380D01*
X218772142Y-73257142D01*
X218581666Y-73161904D01*
X218486428Y-73066666D01*
X218391190Y-72876190D01*
X218391190Y-72685714D01*
X218486428Y-72495238D01*
X218581666Y-72400000D01*
X218772142Y-72304761D01*
X219248333Y-72304761D01*
X219534047Y-72400000D01*
X220676904Y-74304761D02*
X220486428Y-74209523D01*
X220391190Y-74114285D01*
X220295952Y-73923809D01*
X220295952Y-73352380D01*
X220391190Y-73161904D01*
X220486428Y-73066666D01*
X220676904Y-72971428D01*
X220962619Y-72971428D01*
X221153095Y-73066666D01*
X221248333Y-73161904D01*
X221343571Y-73352380D01*
X221343571Y-73923809D01*
X221248333Y-74114285D01*
X221153095Y-74209523D01*
X220962619Y-74304761D01*
X220676904Y-74304761D01*
X222486428Y-74304761D02*
X222295952Y-74209523D01*
X222200714Y-74019047D01*
X222200714Y-72304761D01*
X224105476Y-74304761D02*
X224105476Y-72304761D01*
X224105476Y-74209523D02*
X223915000Y-74304761D01*
X223534047Y-74304761D01*
X223343571Y-74209523D01*
X223248333Y-74114285D01*
X223153095Y-73923809D01*
X223153095Y-73352380D01*
X223248333Y-73161904D01*
X223343571Y-73066666D01*
X223534047Y-72971428D01*
X223915000Y-72971428D01*
X224105476Y-73066666D01*
X225819761Y-74209523D02*
X225629285Y-74304761D01*
X225248333Y-74304761D01*
X225057857Y-74209523D01*
X224962619Y-74019047D01*
X224962619Y-73257142D01*
X225057857Y-73066666D01*
X225248333Y-72971428D01*
X225629285Y-72971428D01*
X225819761Y-73066666D01*
X225915000Y-73257142D01*
X225915000Y-73447619D01*
X224962619Y-73638095D01*
X226772142Y-74304761D02*
X226772142Y-72971428D01*
X226772142Y-73352380D02*
X226867380Y-73161904D01*
X226962619Y-73066666D01*
X227153095Y-72971428D01*
X227343571Y-72971428D01*
X229534047Y-74304761D02*
X229534047Y-72971428D01*
X229534047Y-73161904D02*
X229629285Y-73066666D01*
X229819761Y-72971428D01*
X230105476Y-72971428D01*
X230295952Y-73066666D01*
X230391190Y-73257142D01*
X230391190Y-74304761D01*
X230391190Y-73257142D02*
X230486428Y-73066666D01*
X230676904Y-72971428D01*
X230962619Y-72971428D01*
X231153095Y-73066666D01*
X231248333Y-73257142D01*
X231248333Y-74304761D01*
X233057857Y-74304761D02*
X233057857Y-73257142D01*
X232962619Y-73066666D01*
X232772142Y-72971428D01*
X232391190Y-72971428D01*
X232200714Y-73066666D01*
X233057857Y-74209523D02*
X232867380Y-74304761D01*
X232391190Y-74304761D01*
X232200714Y-74209523D01*
X232105476Y-74019047D01*
X232105476Y-73828571D01*
X232200714Y-73638095D01*
X232391190Y-73542857D01*
X232867380Y-73542857D01*
X233057857Y-73447619D01*
X233915000Y-74209523D02*
X234105476Y-74304761D01*
X234486428Y-74304761D01*
X234676904Y-74209523D01*
X234772142Y-74019047D01*
X234772142Y-73923809D01*
X234676904Y-73733333D01*
X234486428Y-73638095D01*
X234200714Y-73638095D01*
X234010238Y-73542857D01*
X233915000Y-73352380D01*
X233915000Y-73257142D01*
X234010238Y-73066666D01*
X234200714Y-72971428D01*
X234486428Y-72971428D01*
X234676904Y-73066666D01*
X235629285Y-74304761D02*
X235629285Y-72304761D01*
X235819761Y-73542857D02*
X236391190Y-74304761D01*
X236391190Y-72971428D02*
X235629285Y-73733333D01*
X239057857Y-74304761D02*
X238867380Y-74209523D01*
X238772142Y-74114285D01*
X238676904Y-73923809D01*
X238676904Y-73352380D01*
X238772142Y-73161904D01*
X238867380Y-73066666D01*
X239057857Y-72971428D01*
X239343571Y-72971428D01*
X239534047Y-73066666D01*
X239629285Y-73161904D01*
X239724523Y-73352380D01*
X239724523Y-73923809D01*
X239629285Y-74114285D01*
X239534047Y-74209523D01*
X239343571Y-74304761D01*
X239057857Y-74304761D01*
X240581666Y-72971428D02*
X240581666Y-74304761D01*
X240581666Y-73161904D02*
X240676904Y-73066666D01*
X240867380Y-72971428D01*
X241153095Y-72971428D01*
X241343571Y-73066666D01*
X241438809Y-73257142D01*
X241438809Y-74304761D01*
X242676904Y-74304761D02*
X242486428Y-74209523D01*
X242391190Y-74019047D01*
X242391190Y-72304761D01*
X243248333Y-72971428D02*
X243724523Y-74304761D01*
X244200714Y-72971428D02*
X243724523Y-74304761D01*
X243534047Y-74780952D01*
X243438809Y-74876190D01*
X243248333Y-74971428D01*
X246772142Y-74304761D02*
X246581666Y-74209523D01*
X246486428Y-74114285D01*
X246391190Y-73923809D01*
X246391190Y-73352380D01*
X246486428Y-73161904D01*
X246581666Y-73066666D01*
X246772142Y-72971428D01*
X247057857Y-72971428D01*
X247248333Y-73066666D01*
X247343571Y-73161904D01*
X247438809Y-73352380D01*
X247438809Y-73923809D01*
X247343571Y-74114285D01*
X247248333Y-74209523D01*
X247057857Y-74304761D01*
X246772142Y-74304761D01*
X248295952Y-72971428D02*
X248295952Y-74304761D01*
X248295952Y-73161904D02*
X248391190Y-73066666D01*
X248581666Y-72971428D01*
X248867380Y-72971428D01*
X249057857Y-73066666D01*
X249153095Y-73257142D01*
X249153095Y-74304761D01*
X252295952Y-73257142D02*
X252581666Y-73352380D01*
X252676904Y-73447619D01*
X252772142Y-73638095D01*
X252772142Y-73923809D01*
X252676904Y-74114285D01*
X252581666Y-74209523D01*
X252391190Y-74304761D01*
X251629285Y-74304761D01*
X251629285Y-72304761D01*
X252295952Y-72304761D01*
X252486428Y-72400000D01*
X252581666Y-72495238D01*
X252676904Y-72685714D01*
X252676904Y-72876190D01*
X252581666Y-73066666D01*
X252486428Y-73161904D01*
X252295952Y-73257142D01*
X251629285Y-73257142D01*
X253534047Y-73733333D02*
X254486428Y-73733333D01*
X253343571Y-74304761D02*
X254010238Y-72304761D01*
X254676904Y-74304761D01*
X256486428Y-74114285D02*
X256391190Y-74209523D01*
X256105476Y-74304761D01*
X255915000Y-74304761D01*
X255629285Y-74209523D01*
X255438809Y-74019047D01*
X255343571Y-73828571D01*
X255248333Y-73447619D01*
X255248333Y-73161904D01*
X255343571Y-72780952D01*
X255438809Y-72590476D01*
X255629285Y-72400000D01*
X255915000Y-72304761D01*
X256105476Y-72304761D01*
X256391190Y-72400000D01*
X256486428Y-72495238D01*
X257343571Y-74304761D02*
X257343571Y-72304761D01*
X258486428Y-74304761D02*
X257629285Y-73161904D01*
X258486428Y-72304761D02*
X257343571Y-73447619D01*
X260772142Y-74209523D02*
X260962619Y-74304761D01*
X261343571Y-74304761D01*
X261534047Y-74209523D01*
X261629285Y-74019047D01*
X261629285Y-73923809D01*
X261534047Y-73733333D01*
X261343571Y-73638095D01*
X261057857Y-73638095D01*
X260867380Y-73542857D01*
X260772142Y-73352380D01*
X260772142Y-73257142D01*
X260867380Y-73066666D01*
X261057857Y-72971428D01*
X261343571Y-72971428D01*
X261534047Y-73066666D01*
X262486428Y-74304761D02*
X262486428Y-72971428D01*
X262486428Y-72304761D02*
X262391190Y-72400000D01*
X262486428Y-72495238D01*
X262581666Y-72400000D01*
X262486428Y-72304761D01*
X262486428Y-72495238D01*
X264295952Y-74304761D02*
X264295952Y-72304761D01*
X264295952Y-74209523D02*
X264105476Y-74304761D01*
X263724523Y-74304761D01*
X263534047Y-74209523D01*
X263438809Y-74114285D01*
X263343571Y-73923809D01*
X263343571Y-73352380D01*
X263438809Y-73161904D01*
X263534047Y-73066666D01*
X263724523Y-72971428D01*
X264105476Y-72971428D01*
X264295952Y-73066666D01*
X266010238Y-74209523D02*
X265819761Y-74304761D01*
X265438809Y-74304761D01*
X265248333Y-74209523D01*
X265153095Y-74019047D01*
X265153095Y-73257142D01*
X265248333Y-73066666D01*
X265438809Y-72971428D01*
X265819761Y-72971428D01*
X266010238Y-73066666D01*
X266105476Y-73257142D01*
X266105476Y-73447619D01*
X265153095Y-73638095D01*
X266962619Y-74114285D02*
X267057857Y-74209523D01*
X266962619Y-74304761D01*
X266867380Y-74209523D01*
X266962619Y-74114285D01*
X266962619Y-74304761D01*
X215724523Y-75524761D02*
X215724523Y-76000952D01*
X215248333Y-75810476D02*
X215724523Y-76000952D01*
X216200714Y-75810476D01*
X215438809Y-76381904D02*
X215724523Y-76000952D01*
X216010238Y-76381904D01*
X218391190Y-77429523D02*
X218676904Y-77524761D01*
X219153095Y-77524761D01*
X219343571Y-77429523D01*
X219438809Y-77334285D01*
X219534047Y-77143809D01*
X219534047Y-76953333D01*
X219438809Y-76762857D01*
X219343571Y-76667619D01*
X219153095Y-76572380D01*
X218772142Y-76477142D01*
X218581666Y-76381904D01*
X218486428Y-76286666D01*
X218391190Y-76096190D01*
X218391190Y-75905714D01*
X218486428Y-75715238D01*
X218581666Y-75620000D01*
X218772142Y-75524761D01*
X219248333Y-75524761D01*
X219534047Y-75620000D01*
X220391190Y-77524761D02*
X220391190Y-76191428D01*
X220391190Y-75524761D02*
X220295952Y-75620000D01*
X220391190Y-75715238D01*
X220486428Y-75620000D01*
X220391190Y-75524761D01*
X220391190Y-75715238D01*
X221629285Y-77524761D02*
X221438809Y-77429523D01*
X221343571Y-77239047D01*
X221343571Y-75524761D01*
X222391190Y-77524761D02*
X222391190Y-75524761D01*
X222581666Y-76762857D02*
X223153095Y-77524761D01*
X223153095Y-76191428D02*
X222391190Y-76953333D01*
X223915000Y-77429523D02*
X224105476Y-77524761D01*
X224486428Y-77524761D01*
X224676904Y-77429523D01*
X224772142Y-77239047D01*
X224772142Y-77143809D01*
X224676904Y-76953333D01*
X224486428Y-76858095D01*
X224200714Y-76858095D01*
X224010238Y-76762857D01*
X223915000Y-76572380D01*
X223915000Y-76477142D01*
X224010238Y-76286666D01*
X224200714Y-76191428D01*
X224486428Y-76191428D01*
X224676904Y-76286666D01*
X226486428Y-77429523D02*
X226295952Y-77524761D01*
X225915000Y-77524761D01*
X225724523Y-77429523D01*
X225629285Y-77334285D01*
X225534047Y-77143809D01*
X225534047Y-76572380D01*
X225629285Y-76381904D01*
X225724523Y-76286666D01*
X225915000Y-76191428D01*
X226295952Y-76191428D01*
X226486428Y-76286666D01*
X227343571Y-77524761D02*
X227343571Y-76191428D01*
X227343571Y-76572380D02*
X227438809Y-76381904D01*
X227534047Y-76286666D01*
X227724523Y-76191428D01*
X227915000Y-76191428D01*
X229343571Y-77429523D02*
X229153095Y-77524761D01*
X228772142Y-77524761D01*
X228581666Y-77429523D01*
X228486428Y-77239047D01*
X228486428Y-76477142D01*
X228581666Y-76286666D01*
X228772142Y-76191428D01*
X229153095Y-76191428D01*
X229343571Y-76286666D01*
X229438809Y-76477142D01*
X229438809Y-76667619D01*
X228486428Y-76858095D01*
X231057857Y-77429523D02*
X230867380Y-77524761D01*
X230486428Y-77524761D01*
X230295952Y-77429523D01*
X230200714Y-77239047D01*
X230200714Y-76477142D01*
X230295952Y-76286666D01*
X230486428Y-76191428D01*
X230867380Y-76191428D01*
X231057857Y-76286666D01*
X231153095Y-76477142D01*
X231153095Y-76667619D01*
X230200714Y-76858095D01*
X232010238Y-76191428D02*
X232010238Y-77524761D01*
X232010238Y-76381904D02*
X232105476Y-76286666D01*
X232295952Y-76191428D01*
X232581666Y-76191428D01*
X232772142Y-76286666D01*
X232867380Y-76477142D01*
X232867380Y-77524761D01*
X235629285Y-77524761D02*
X235438809Y-77429523D01*
X235343571Y-77334285D01*
X235248333Y-77143809D01*
X235248333Y-76572380D01*
X235343571Y-76381904D01*
X235438809Y-76286666D01*
X235629285Y-76191428D01*
X235915000Y-76191428D01*
X236105476Y-76286666D01*
X236200714Y-76381904D01*
X236295952Y-76572380D01*
X236295952Y-77143809D01*
X236200714Y-77334285D01*
X236105476Y-77429523D01*
X235915000Y-77524761D01*
X235629285Y-77524761D01*
X237153095Y-76191428D02*
X237153095Y-77524761D01*
X237153095Y-76381904D02*
X237248333Y-76286666D01*
X237438809Y-76191428D01*
X237724523Y-76191428D01*
X237915000Y-76286666D01*
X238010238Y-76477142D01*
X238010238Y-77524761D01*
X241153095Y-76477142D02*
X241438809Y-76572380D01*
X241534047Y-76667619D01*
X241629285Y-76858095D01*
X241629285Y-77143809D01*
X241534047Y-77334285D01*
X241438809Y-77429523D01*
X241248333Y-77524761D01*
X240486428Y-77524761D01*
X240486428Y-75524761D01*
X241153095Y-75524761D01*
X241343571Y-75620000D01*
X241438809Y-75715238D01*
X241534047Y-75905714D01*
X241534047Y-76096190D01*
X241438809Y-76286666D01*
X241343571Y-76381904D01*
X241153095Y-76477142D01*
X240486428Y-76477142D01*
X242867380Y-75524761D02*
X243248333Y-75524761D01*
X243438809Y-75620000D01*
X243629285Y-75810476D01*
X243724523Y-76191428D01*
X243724523Y-76858095D01*
X243629285Y-77239047D01*
X243438809Y-77429523D01*
X243248333Y-77524761D01*
X242867380Y-77524761D01*
X242676904Y-77429523D01*
X242486428Y-77239047D01*
X242391190Y-76858095D01*
X242391190Y-76191428D01*
X242486428Y-75810476D01*
X242676904Y-75620000D01*
X242867380Y-75524761D01*
X244295952Y-75524761D02*
X245438809Y-75524761D01*
X244867380Y-77524761D02*
X244867380Y-75524761D01*
X246105476Y-77524761D02*
X246105476Y-75524761D01*
X246105476Y-76477142D02*
X247248333Y-76477142D01*
X247248333Y-77524761D02*
X247248333Y-75524761D01*
X249629285Y-77429523D02*
X249819761Y-77524761D01*
X250200714Y-77524761D01*
X250391190Y-77429523D01*
X250486428Y-77239047D01*
X250486428Y-77143809D01*
X250391190Y-76953333D01*
X250200714Y-76858095D01*
X249915000Y-76858095D01*
X249724523Y-76762857D01*
X249629285Y-76572380D01*
X249629285Y-76477142D01*
X249724523Y-76286666D01*
X249915000Y-76191428D01*
X250200714Y-76191428D01*
X250391190Y-76286666D01*
X251343571Y-77524761D02*
X251343571Y-76191428D01*
X251343571Y-75524761D02*
X251248333Y-75620000D01*
X251343571Y-75715238D01*
X251438809Y-75620000D01*
X251343571Y-75524761D01*
X251343571Y-75715238D01*
X253153095Y-77524761D02*
X253153095Y-75524761D01*
X253153095Y-77429523D02*
X252962619Y-77524761D01*
X252581666Y-77524761D01*
X252391190Y-77429523D01*
X252295952Y-77334285D01*
X252200714Y-77143809D01*
X252200714Y-76572380D01*
X252295952Y-76381904D01*
X252391190Y-76286666D01*
X252581666Y-76191428D01*
X252962619Y-76191428D01*
X253153095Y-76286666D01*
X254867380Y-77429523D02*
X254676904Y-77524761D01*
X254295952Y-77524761D01*
X254105476Y-77429523D01*
X254010238Y-77239047D01*
X254010238Y-76477142D01*
X254105476Y-76286666D01*
X254295952Y-76191428D01*
X254676904Y-76191428D01*
X254867380Y-76286666D01*
X254962619Y-76477142D01*
X254962619Y-76667619D01*
X254010238Y-76858095D01*
X255724523Y-77429523D02*
X255915000Y-77524761D01*
X256295952Y-77524761D01*
X256486428Y-77429523D01*
X256581666Y-77239047D01*
X256581666Y-77143809D01*
X256486428Y-76953333D01*
X256295952Y-76858095D01*
X256010238Y-76858095D01*
X255819761Y-76762857D01*
X255724523Y-76572380D01*
X255724523Y-76477142D01*
X255819761Y-76286666D01*
X256010238Y-76191428D01*
X256295952Y-76191428D01*
X256486428Y-76286666D01*
X257438809Y-77334285D02*
X257534047Y-77429523D01*
X257438809Y-77524761D01*
X257343571Y-77429523D01*
X257438809Y-77334285D01*
X257438809Y-77524761D01*
D12*
%TO.C,U2*%
X394935380Y-110494904D02*
X395744904Y-110494904D01*
X395840142Y-110447285D01*
X395887761Y-110399666D01*
X395935380Y-110304428D01*
X395935380Y-110113952D01*
X395887761Y-110018714D01*
X395840142Y-109971095D01*
X395744904Y-109923476D01*
X394935380Y-109923476D01*
X395030619Y-109494904D02*
X394983000Y-109447285D01*
X394935380Y-109352047D01*
X394935380Y-109113952D01*
X394983000Y-109018714D01*
X395030619Y-108971095D01*
X395125857Y-108923476D01*
X395221095Y-108923476D01*
X395363952Y-108971095D01*
X395935380Y-109542523D01*
X395935380Y-108923476D01*
%TO.C,J0*%
X501057666Y-90216380D02*
X501057666Y-90930666D01*
X501010047Y-91073523D01*
X500914809Y-91168761D01*
X500771952Y-91216380D01*
X500676714Y-91216380D01*
X501724333Y-90216380D02*
X501819571Y-90216380D01*
X501914809Y-90264000D01*
X501962428Y-90311619D01*
X502010047Y-90406857D01*
X502057666Y-90597333D01*
X502057666Y-90835428D01*
X502010047Y-91025904D01*
X501962428Y-91121142D01*
X501914809Y-91168761D01*
X501819571Y-91216380D01*
X501724333Y-91216380D01*
X501629095Y-91168761D01*
X501581476Y-91121142D01*
X501533857Y-91025904D01*
X501486238Y-90835428D01*
X501486238Y-90597333D01*
X501533857Y-90406857D01*
X501581476Y-90311619D01*
X501629095Y-90264000D01*
X501724333Y-90216380D01*
%TO.C,U1*%
X251923380Y-110469904D02*
X252732904Y-110469904D01*
X252828142Y-110422285D01*
X252875761Y-110374666D01*
X252923380Y-110279428D01*
X252923380Y-110088952D01*
X252875761Y-109993714D01*
X252828142Y-109946095D01*
X252732904Y-109898476D01*
X251923380Y-109898476D01*
X252923380Y-108898476D02*
X252923380Y-109469904D01*
X252923380Y-109184190D02*
X251923380Y-109184190D01*
X252066238Y-109279428D01*
X252161476Y-109374666D01*
X252209095Y-109469904D01*
%TO.C,J3_2*%
X327485523Y-97115380D02*
X327485523Y-97829666D01*
X327437904Y-97972523D01*
X327342666Y-98067761D01*
X327199809Y-98115380D01*
X327104571Y-98115380D01*
X327866476Y-97115380D02*
X328485523Y-97115380D01*
X328152190Y-97496333D01*
X328295047Y-97496333D01*
X328390285Y-97543952D01*
X328437904Y-97591571D01*
X328485523Y-97686809D01*
X328485523Y-97924904D01*
X328437904Y-98020142D01*
X328390285Y-98067761D01*
X328295047Y-98115380D01*
X328009333Y-98115380D01*
X327914095Y-98067761D01*
X327866476Y-98020142D01*
X328676000Y-98210619D02*
X329437904Y-98210619D01*
X329628380Y-97210619D02*
X329676000Y-97163000D01*
X329771238Y-97115380D01*
X330009333Y-97115380D01*
X330104571Y-97163000D01*
X330152190Y-97210619D01*
X330199809Y-97305857D01*
X330199809Y-97401095D01*
X330152190Y-97543952D01*
X329580761Y-98115380D01*
X330199809Y-98115380D01*
%TO.C,J3_1*%
X316192523Y-97115380D02*
X316192523Y-97829666D01*
X316144904Y-97972523D01*
X316049666Y-98067761D01*
X315906809Y-98115380D01*
X315811571Y-98115380D01*
X316573476Y-97115380D02*
X317192523Y-97115380D01*
X316859190Y-97496333D01*
X317002047Y-97496333D01*
X317097285Y-97543952D01*
X317144904Y-97591571D01*
X317192523Y-97686809D01*
X317192523Y-97924904D01*
X317144904Y-98020142D01*
X317097285Y-98067761D01*
X317002047Y-98115380D01*
X316716333Y-98115380D01*
X316621095Y-98067761D01*
X316573476Y-98020142D01*
X317383000Y-98210619D02*
X318144904Y-98210619D01*
X318906809Y-98115380D02*
X318335380Y-98115380D01*
X318621095Y-98115380D02*
X318621095Y-97115380D01*
X318525857Y-97258238D01*
X318430619Y-97353476D01*
X318335380Y-97401095D01*
D13*
%TO.C,U2*%
X420883000Y-102368000D02*
X420883000Y-117098000D01*
X370083000Y-102368000D02*
X420883000Y-102368000D01*
X370023000Y-118623000D02*
X420943000Y-118623000D01*
X370023000Y-100843000D02*
X370023000Y-118623000D01*
X420943000Y-118623000D02*
X420943000Y-100843000D01*
X371083000Y-117098000D02*
X370083000Y-116098000D01*
X420883000Y-117098000D02*
X371083000Y-117098000D01*
X370083000Y-116098000D02*
X370083000Y-102368000D01*
X420943000Y-100843000D02*
X370023000Y-100843000D01*
%TO.C,J0*%
X516311000Y-96394000D02*
X516951000Y-96394000D01*
X493451000Y-96394000D02*
X493451000Y-92034000D01*
X485831000Y-96394000D02*
X486471000Y-96394000D01*
X511871000Y-96394000D02*
X511871000Y-92034000D01*
X518851000Y-89494000D02*
X518851000Y-83494000D01*
X521391000Y-89494000D02*
X521391000Y-83494000D01*
X504251000Y-89494000D02*
X504251000Y-83494000D01*
X508691000Y-89494000D02*
X508691000Y-83494000D01*
X516311000Y-83494000D02*
X516951000Y-83494000D01*
X490911000Y-96394000D02*
X490911000Y-92034000D01*
X514411000Y-96394000D02*
X514411000Y-92034000D01*
X494091000Y-96394000D02*
X494091000Y-92034000D01*
X519491000Y-89494000D02*
X519491000Y-83494000D01*
X511231000Y-89494000D02*
X511231000Y-83494000D01*
X485831000Y-83494000D02*
X486471000Y-83494000D01*
X479801000Y-91399000D02*
X479801000Y-89494000D01*
X501071000Y-96394000D02*
X501711000Y-96394000D01*
X483291000Y-96394000D02*
X483291000Y-92034000D01*
X513771000Y-89494000D02*
X513771000Y-83494000D01*
X483291000Y-96394000D02*
X483931000Y-96394000D01*
X496631000Y-89494000D02*
X496631000Y-83494000D01*
X480751000Y-96394000D02*
X480751000Y-92034000D01*
X506151000Y-89494000D02*
X506151000Y-83494000D01*
X504251000Y-96394000D02*
X504251000Y-92034000D01*
X501071000Y-83494000D02*
X501711000Y-83494000D01*
X506791000Y-96394000D02*
X506791000Y-92034000D01*
X483931000Y-96394000D02*
X483931000Y-92034000D01*
X498531000Y-96394000D02*
X498531000Y-92034000D01*
X498531000Y-83494000D02*
X499171000Y-83494000D01*
X483291000Y-83494000D02*
X483931000Y-83494000D01*
X508691000Y-83494000D02*
X509331000Y-83494000D01*
X508691000Y-96394000D02*
X509331000Y-96394000D01*
X516311000Y-96394000D02*
X516311000Y-92034000D01*
X485831000Y-89494000D02*
X485831000Y-83494000D01*
X516311000Y-89494000D02*
X516311000Y-83494000D01*
X516951000Y-96394000D02*
X516951000Y-92034000D01*
X501071000Y-96394000D02*
X501071000Y-92034000D01*
X485831000Y-96394000D02*
X485831000Y-92034000D01*
X488371000Y-83494000D02*
X489011000Y-83494000D01*
X498531000Y-89494000D02*
X498531000Y-83494000D01*
X518851000Y-96394000D02*
X518851000Y-92034000D01*
X491551000Y-96394000D02*
X491551000Y-92034000D01*
X513771000Y-83494000D02*
X514411000Y-83494000D01*
X479801000Y-89494000D02*
X522981000Y-89494000D01*
X495991000Y-96394000D02*
X495991000Y-92034000D01*
X519491000Y-96394000D02*
X519491000Y-92034000D01*
X501711000Y-96394000D02*
X501711000Y-92034000D01*
X489011000Y-89494000D02*
X489011000Y-83494000D01*
X511231000Y-96394000D02*
X511231000Y-92034000D01*
X490911000Y-83494000D02*
X491551000Y-83494000D01*
X516951000Y-89494000D02*
X516951000Y-83494000D01*
X495991000Y-96394000D02*
X496631000Y-96394000D01*
X496631000Y-96394000D02*
X496631000Y-92034000D01*
X522981000Y-92034000D02*
X480436000Y-92034000D01*
X506791000Y-89494000D02*
X506791000Y-83494000D01*
X511871000Y-89494000D02*
X511871000Y-83494000D01*
X489011000Y-96394000D02*
X489011000Y-92034000D01*
X486471000Y-96394000D02*
X486471000Y-92034000D01*
X503611000Y-89494000D02*
X503611000Y-83494000D01*
X483291000Y-89494000D02*
X483291000Y-83494000D01*
X522031000Y-96394000D02*
X522031000Y-92034000D01*
X480751000Y-96394000D02*
X481391000Y-96394000D01*
X480436000Y-92034000D02*
X479801000Y-91399000D01*
X511231000Y-83494000D02*
X511871000Y-83494000D01*
X483931000Y-89494000D02*
X483931000Y-83494000D01*
X522981000Y-89494000D02*
X522981000Y-92034000D01*
X488371000Y-89494000D02*
X488371000Y-83494000D01*
X495991000Y-89494000D02*
X495991000Y-83494000D01*
X488371000Y-96394000D02*
X489011000Y-96394000D01*
X501711000Y-89494000D02*
X501711000Y-83494000D01*
X522031000Y-89494000D02*
X522031000Y-83494000D01*
X486471000Y-89494000D02*
X486471000Y-83494000D01*
X513771000Y-96394000D02*
X513771000Y-92034000D01*
X509331000Y-89494000D02*
X509331000Y-83494000D01*
X514411000Y-89494000D02*
X514411000Y-83494000D01*
X518851000Y-83494000D02*
X519491000Y-83494000D01*
X495991000Y-83494000D02*
X496631000Y-83494000D01*
X511231000Y-96394000D02*
X511871000Y-96394000D01*
X503611000Y-96394000D02*
X504251000Y-96394000D01*
X498531000Y-96394000D02*
X499171000Y-96394000D01*
X493451000Y-83494000D02*
X494091000Y-83494000D01*
X480751000Y-83494000D02*
X481391000Y-83494000D01*
X481391000Y-96394000D02*
X481391000Y-92034000D01*
X493451000Y-96394000D02*
X494091000Y-96394000D01*
X521391000Y-96394000D02*
X521391000Y-92034000D01*
X499171000Y-96394000D02*
X499171000Y-92034000D01*
X501071000Y-89494000D02*
X501071000Y-83494000D01*
X518851000Y-96394000D02*
X519491000Y-96394000D01*
X506151000Y-96394000D02*
X506791000Y-96394000D01*
X506151000Y-83494000D02*
X506791000Y-83494000D01*
X503611000Y-96394000D02*
X503611000Y-92034000D01*
X503611000Y-83494000D02*
X504251000Y-83494000D01*
X493451000Y-89494000D02*
X493451000Y-83494000D01*
X488371000Y-96394000D02*
X488371000Y-92034000D01*
X509331000Y-96394000D02*
X509331000Y-92034000D01*
X506151000Y-96394000D02*
X506151000Y-92034000D01*
X521391000Y-83494000D02*
X522031000Y-83494000D01*
X521391000Y-96394000D02*
X522031000Y-96394000D01*
X481391000Y-89494000D02*
X481391000Y-83494000D01*
X490911000Y-96394000D02*
X491551000Y-96394000D01*
X499171000Y-89494000D02*
X499171000Y-83494000D01*
X513771000Y-96394000D02*
X514411000Y-96394000D01*
X480751000Y-89494000D02*
X480751000Y-83494000D01*
X491551000Y-89494000D02*
X491551000Y-83494000D01*
X494091000Y-89494000D02*
X494091000Y-83494000D01*
X490911000Y-89494000D02*
X490911000Y-83494000D01*
X508691000Y-96394000D02*
X508691000Y-92034000D01*
%TO.C,U1*%
X238231000Y-117073000D02*
X237231000Y-116073000D01*
X267711000Y-117073000D02*
X238231000Y-117073000D01*
X237231000Y-116073000D02*
X237231000Y-102343000D01*
X237231000Y-102343000D02*
X267711000Y-102343000D01*
X267711000Y-102343000D02*
X267711000Y-117073000D01*
%TO.C,J3_2*%
X333756000Y-98933000D02*
X324231000Y-98933000D01*
X324231000Y-98933000D02*
X323596000Y-98298000D01*
X323596000Y-96393000D02*
X333756000Y-96393000D01*
X323596000Y-98298000D02*
X323596000Y-96393000D01*
X333756000Y-96393000D02*
X333756000Y-98933000D01*
%TO.C,J3_1*%
X312303000Y-96393000D02*
X322463000Y-96393000D01*
X322463000Y-96393000D02*
X322463000Y-98933000D01*
X312938000Y-98933000D02*
X312303000Y-98298000D01*
X322463000Y-98933000D02*
X312938000Y-98933000D01*
X312303000Y-98298000D02*
X312303000Y-96393000D01*
%TD*%
M02*
