%TF.GenerationSoftware,KiCad,Pcbnew,(6.0.5-0)*%
%TF.CreationDate,2022-06-24T21:41:21-04:00*%
%TF.ProjectId,SpaceCadet,53706163-6543-4616-9465-742e6b696361,rev?*%
%TF.SameCoordinates,Original*%
%TF.FileFunction,AssemblyDrawing,Bot*%
%FSLAX46Y46*%
G04 Gerber Fmt 4.6, Leading zero omitted, Abs format (unit mm)*
G04 Created by KiCad (PCBNEW (6.0.5-0)) date 2022-06-24 21:41:21*
%MOMM*%
%LPD*%
G01*
G04 APERTURE LIST*
%TA.AperFunction,Profile*%
%ADD10C,0.100000*%
%TD*%
%ADD11C,0.300000*%
G04 APERTURE END LIST*
D10*
X64250000Y-81300000D02*
X533250000Y-81300000D01*
X533250000Y-81300000D02*
X533250000Y-247900000D01*
X533250000Y-247900000D02*
X64250000Y-247900000D01*
X64250000Y-247900000D02*
X64250000Y-81300000D01*
D11*
X18745476Y-232994761D02*
X19888333Y-232994761D01*
X19316904Y-234994761D02*
X19316904Y-232994761D01*
X20555000Y-234994761D02*
X20555000Y-233661428D01*
X20555000Y-234042380D02*
X20650238Y-233851904D01*
X20745476Y-233756666D01*
X20935952Y-233661428D01*
X21126428Y-233661428D01*
X22650238Y-234994761D02*
X22650238Y-233947142D01*
X22555000Y-233756666D01*
X22364523Y-233661428D01*
X21983571Y-233661428D01*
X21793095Y-233756666D01*
X22650238Y-234899523D02*
X22459761Y-234994761D01*
X21983571Y-234994761D01*
X21793095Y-234899523D01*
X21697857Y-234709047D01*
X21697857Y-234518571D01*
X21793095Y-234328095D01*
X21983571Y-234232857D01*
X22459761Y-234232857D01*
X22650238Y-234137619D01*
X24459761Y-234899523D02*
X24269285Y-234994761D01*
X23888333Y-234994761D01*
X23697857Y-234899523D01*
X23602619Y-234804285D01*
X23507380Y-234613809D01*
X23507380Y-234042380D01*
X23602619Y-233851904D01*
X23697857Y-233756666D01*
X23888333Y-233661428D01*
X24269285Y-233661428D01*
X24459761Y-233756666D01*
X25316904Y-234994761D02*
X25316904Y-232994761D01*
X25507380Y-234232857D02*
X26078809Y-234994761D01*
X26078809Y-233661428D02*
X25316904Y-234423333D01*
X29221666Y-234899523D02*
X29031190Y-234994761D01*
X28650238Y-234994761D01*
X28459761Y-234899523D01*
X28364523Y-234709047D01*
X28364523Y-233947142D01*
X28459761Y-233756666D01*
X28650238Y-233661428D01*
X29031190Y-233661428D01*
X29221666Y-233756666D01*
X29316904Y-233947142D01*
X29316904Y-234137619D01*
X28364523Y-234328095D01*
X29983571Y-234994761D02*
X31031190Y-233661428D01*
X29983571Y-233661428D02*
X31031190Y-234994761D01*
X31507380Y-233661428D02*
X32269285Y-233661428D01*
X31793095Y-232994761D02*
X31793095Y-234709047D01*
X31888333Y-234899523D01*
X32078809Y-234994761D01*
X32269285Y-234994761D01*
X33697857Y-234899523D02*
X33507380Y-234994761D01*
X33126428Y-234994761D01*
X32935952Y-234899523D01*
X32840714Y-234709047D01*
X32840714Y-233947142D01*
X32935952Y-233756666D01*
X33126428Y-233661428D01*
X33507380Y-233661428D01*
X33697857Y-233756666D01*
X33793095Y-233947142D01*
X33793095Y-234137619D01*
X32840714Y-234328095D01*
X34650238Y-233661428D02*
X34650238Y-234994761D01*
X34650238Y-233851904D02*
X34745476Y-233756666D01*
X34935952Y-233661428D01*
X35221666Y-233661428D01*
X35412142Y-233756666D01*
X35507380Y-233947142D01*
X35507380Y-234994761D01*
X37316904Y-234994761D02*
X37316904Y-232994761D01*
X37316904Y-234899523D02*
X37126428Y-234994761D01*
X36745476Y-234994761D01*
X36555000Y-234899523D01*
X36459761Y-234804285D01*
X36364523Y-234613809D01*
X36364523Y-234042380D01*
X36459761Y-233851904D01*
X36555000Y-233756666D01*
X36745476Y-233661428D01*
X37126428Y-233661428D01*
X37316904Y-233756666D01*
X38174047Y-234899523D02*
X38364523Y-234994761D01*
X38745476Y-234994761D01*
X38935952Y-234899523D01*
X39031190Y-234709047D01*
X39031190Y-234613809D01*
X38935952Y-234423333D01*
X38745476Y-234328095D01*
X38459761Y-234328095D01*
X38269285Y-234232857D01*
X38174047Y-234042380D01*
X38174047Y-233947142D01*
X38269285Y-233756666D01*
X38459761Y-233661428D01*
X38745476Y-233661428D01*
X38935952Y-233756666D01*
X41126428Y-233661428D02*
X41888333Y-233661428D01*
X41412142Y-232994761D02*
X41412142Y-234709047D01*
X41507380Y-234899523D01*
X41697857Y-234994761D01*
X41888333Y-234994761D01*
X42840714Y-234994761D02*
X42650238Y-234899523D01*
X42555000Y-234804285D01*
X42459761Y-234613809D01*
X42459761Y-234042380D01*
X42555000Y-233851904D01*
X42650238Y-233756666D01*
X42840714Y-233661428D01*
X43126428Y-233661428D01*
X43316904Y-233756666D01*
X43412142Y-233851904D01*
X43507380Y-234042380D01*
X43507380Y-234613809D01*
X43412142Y-234804285D01*
X43316904Y-234899523D01*
X43126428Y-234994761D01*
X42840714Y-234994761D01*
X46650238Y-234899523D02*
X46459761Y-234994761D01*
X46078809Y-234994761D01*
X45888333Y-234899523D01*
X45793095Y-234709047D01*
X45793095Y-233947142D01*
X45888333Y-233756666D01*
X46078809Y-233661428D01*
X46459761Y-233661428D01*
X46650238Y-233756666D01*
X46745476Y-233947142D01*
X46745476Y-234137619D01*
X45793095Y-234328095D01*
X48459761Y-234994761D02*
X48459761Y-232994761D01*
X48459761Y-234899523D02*
X48269285Y-234994761D01*
X47888333Y-234994761D01*
X47697857Y-234899523D01*
X47602619Y-234804285D01*
X47507380Y-234613809D01*
X47507380Y-234042380D01*
X47602619Y-233851904D01*
X47697857Y-233756666D01*
X47888333Y-233661428D01*
X48269285Y-233661428D01*
X48459761Y-233756666D01*
X50269285Y-233661428D02*
X50269285Y-235280476D01*
X50174047Y-235470952D01*
X50078809Y-235566190D01*
X49888333Y-235661428D01*
X49602619Y-235661428D01*
X49412142Y-235566190D01*
X50269285Y-234899523D02*
X50078809Y-234994761D01*
X49697857Y-234994761D01*
X49507380Y-234899523D01*
X49412142Y-234804285D01*
X49316904Y-234613809D01*
X49316904Y-234042380D01*
X49412142Y-233851904D01*
X49507380Y-233756666D01*
X49697857Y-233661428D01*
X50078809Y-233661428D01*
X50269285Y-233756666D01*
X51983571Y-234899523D02*
X51793095Y-234994761D01*
X51412142Y-234994761D01*
X51221666Y-234899523D01*
X51126428Y-234709047D01*
X51126428Y-233947142D01*
X51221666Y-233756666D01*
X51412142Y-233661428D01*
X51793095Y-233661428D01*
X51983571Y-233756666D01*
X52078809Y-233947142D01*
X52078809Y-234137619D01*
X51126428Y-234328095D01*
X54745476Y-234994761D02*
X54555000Y-234899523D01*
X54459761Y-234804285D01*
X54364523Y-234613809D01*
X54364523Y-234042380D01*
X54459761Y-233851904D01*
X54555000Y-233756666D01*
X54745476Y-233661428D01*
X55031190Y-233661428D01*
X55221666Y-233756666D01*
X55316904Y-233851904D01*
X55412142Y-234042380D01*
X55412142Y-234613809D01*
X55316904Y-234804285D01*
X55221666Y-234899523D01*
X55031190Y-234994761D01*
X54745476Y-234994761D01*
X55983571Y-233661428D02*
X56745476Y-233661428D01*
X56269285Y-234994761D02*
X56269285Y-233280476D01*
X56364523Y-233090000D01*
X56554999Y-232994761D01*
X56745476Y-232994761D01*
X18745476Y-236881428D02*
X19507380Y-236881428D01*
X19031190Y-236214761D02*
X19031190Y-237929047D01*
X19126428Y-238119523D01*
X19316904Y-238214761D01*
X19507380Y-238214761D01*
X20174047Y-238214761D02*
X20174047Y-236214761D01*
X21031190Y-238214761D02*
X21031190Y-237167142D01*
X20935952Y-236976666D01*
X20745476Y-236881428D01*
X20459761Y-236881428D01*
X20269285Y-236976666D01*
X20174047Y-237071904D01*
X22745476Y-238119523D02*
X22555000Y-238214761D01*
X22174047Y-238214761D01*
X21983571Y-238119523D01*
X21888333Y-237929047D01*
X21888333Y-237167142D01*
X21983571Y-236976666D01*
X22174047Y-236881428D01*
X22555000Y-236881428D01*
X22745476Y-236976666D01*
X22840714Y-237167142D01*
X22840714Y-237357619D01*
X21888333Y-237548095D01*
X25221666Y-238214761D02*
X25221666Y-236214761D01*
X25221666Y-236976666D02*
X25412142Y-236881428D01*
X25793095Y-236881428D01*
X25983571Y-236976666D01*
X26078809Y-237071904D01*
X26174047Y-237262380D01*
X26174047Y-237833809D01*
X26078809Y-238024285D01*
X25983571Y-238119523D01*
X25793095Y-238214761D01*
X25412142Y-238214761D01*
X25221666Y-238119523D01*
X27316904Y-238214761D02*
X27126428Y-238119523D01*
X27031190Y-238024285D01*
X26935952Y-237833809D01*
X26935952Y-237262380D01*
X27031190Y-237071904D01*
X27126428Y-236976666D01*
X27316904Y-236881428D01*
X27602619Y-236881428D01*
X27793095Y-236976666D01*
X27888333Y-237071904D01*
X27983571Y-237262380D01*
X27983571Y-237833809D01*
X27888333Y-238024285D01*
X27793095Y-238119523D01*
X27602619Y-238214761D01*
X27316904Y-238214761D01*
X29697857Y-238214761D02*
X29697857Y-237167142D01*
X29602619Y-236976666D01*
X29412142Y-236881428D01*
X29031190Y-236881428D01*
X28840714Y-236976666D01*
X29697857Y-238119523D02*
X29507380Y-238214761D01*
X29031190Y-238214761D01*
X28840714Y-238119523D01*
X28745476Y-237929047D01*
X28745476Y-237738571D01*
X28840714Y-237548095D01*
X29031190Y-237452857D01*
X29507380Y-237452857D01*
X29697857Y-237357619D01*
X30650238Y-238214761D02*
X30650238Y-236881428D01*
X30650238Y-237262380D02*
X30745476Y-237071904D01*
X30840714Y-236976666D01*
X31031190Y-236881428D01*
X31221666Y-236881428D01*
X32745476Y-238214761D02*
X32745476Y-236214761D01*
X32745476Y-238119523D02*
X32555000Y-238214761D01*
X32174047Y-238214761D01*
X31983571Y-238119523D01*
X31888333Y-238024285D01*
X31793095Y-237833809D01*
X31793095Y-237262380D01*
X31888333Y-237071904D01*
X31983571Y-236976666D01*
X32174047Y-236881428D01*
X32555000Y-236881428D01*
X32745476Y-236976666D01*
X36078809Y-238214761D02*
X36078809Y-237167142D01*
X35983571Y-236976666D01*
X35793095Y-236881428D01*
X35412142Y-236881428D01*
X35221666Y-236976666D01*
X36078809Y-238119523D02*
X35888333Y-238214761D01*
X35412142Y-238214761D01*
X35221666Y-238119523D01*
X35126428Y-237929047D01*
X35126428Y-237738571D01*
X35221666Y-237548095D01*
X35412142Y-237452857D01*
X35888333Y-237452857D01*
X36078809Y-237357619D01*
X36745476Y-236881428D02*
X37507380Y-236881428D01*
X37031190Y-236214761D02*
X37031190Y-237929047D01*
X37126428Y-238119523D01*
X37316904Y-238214761D01*
X37507380Y-238214761D01*
X39412142Y-236881428D02*
X40174047Y-236881428D01*
X39697857Y-236214761D02*
X39697857Y-237929047D01*
X39793095Y-238119523D01*
X39983571Y-238214761D01*
X40174047Y-238214761D01*
X40840714Y-238214761D02*
X40840714Y-236214761D01*
X41697857Y-238214761D02*
X41697857Y-237167142D01*
X41602619Y-236976666D01*
X41412142Y-236881428D01*
X41126428Y-236881428D01*
X40935952Y-236976666D01*
X40840714Y-237071904D01*
X42650238Y-238214761D02*
X42650238Y-236881428D01*
X42650238Y-236214761D02*
X42555000Y-236310000D01*
X42650238Y-236405238D01*
X42745476Y-236310000D01*
X42650238Y-236214761D01*
X42650238Y-236405238D01*
X43507380Y-238119523D02*
X43697857Y-238214761D01*
X44078809Y-238214761D01*
X44269285Y-238119523D01*
X44364523Y-237929047D01*
X44364523Y-237833809D01*
X44269285Y-237643333D01*
X44078809Y-237548095D01*
X43793095Y-237548095D01*
X43602619Y-237452857D01*
X43507380Y-237262380D01*
X43507380Y-237167142D01*
X43602619Y-236976666D01*
X43793095Y-236881428D01*
X44078809Y-236881428D01*
X44269285Y-236976666D01*
X46745476Y-236881428D02*
X46745476Y-238881428D01*
X46745476Y-236976666D02*
X46935952Y-236881428D01*
X47316904Y-236881428D01*
X47507380Y-236976666D01*
X47602619Y-237071904D01*
X47697857Y-237262380D01*
X47697857Y-237833809D01*
X47602619Y-238024285D01*
X47507380Y-238119523D01*
X47316904Y-238214761D01*
X46935952Y-238214761D01*
X46745476Y-238119523D01*
X48840714Y-238214761D02*
X48650238Y-238119523D01*
X48555000Y-238024285D01*
X48459761Y-237833809D01*
X48459761Y-237262380D01*
X48555000Y-237071904D01*
X48650238Y-236976666D01*
X48840714Y-236881428D01*
X49126428Y-236881428D01*
X49316904Y-236976666D01*
X49412142Y-237071904D01*
X49507380Y-237262380D01*
X49507380Y-237833809D01*
X49412142Y-238024285D01*
X49316904Y-238119523D01*
X49126428Y-238214761D01*
X48840714Y-238214761D01*
X50364523Y-238214761D02*
X50364523Y-236881428D01*
X50364523Y-236214761D02*
X50269285Y-236310000D01*
X50364523Y-236405238D01*
X50459761Y-236310000D01*
X50364523Y-236214761D01*
X50364523Y-236405238D01*
X51316904Y-236881428D02*
X51316904Y-238214761D01*
X51316904Y-237071904D02*
X51412142Y-236976666D01*
X51602619Y-236881428D01*
X51888333Y-236881428D01*
X52078809Y-236976666D01*
X52174047Y-237167142D01*
X52174047Y-238214761D01*
X52840714Y-236881428D02*
X53602619Y-236881428D01*
X53126428Y-236214761D02*
X53126428Y-237929047D01*
X53221666Y-238119523D01*
X53412142Y-238214761D01*
X53602619Y-238214761D01*
X54269285Y-238024285D02*
X54364523Y-238119523D01*
X54269285Y-238214761D01*
X54174047Y-238119523D01*
X54269285Y-238024285D01*
X54269285Y-238214761D01*
X56554999Y-237548095D02*
X58269285Y-237548095D01*
X58840714Y-237548095D02*
X60554999Y-237548095D01*
X61316904Y-236881428D02*
X62840714Y-237452857D01*
X61316904Y-238024285D01*
M02*
