%TF.GenerationSoftware,KiCad,Pcbnew,(6.0.5-0)*%
%TF.CreationDate,2022-06-05T23:28:28-04:00*%
%TF.ProjectId,SpaceCadet,53706163-6543-4616-9465-742e6b696361,rev?*%
%TF.SameCoordinates,Original*%
%TF.FileFunction,AssemblyDrawing,Top*%
%FSLAX46Y46*%
G04 Gerber Fmt 4.6, Leading zero omitted, Abs format (unit mm)*
G04 Created by KiCad (PCBNEW (6.0.5-0)) date 2022-06-05 23:28:28*
%MOMM*%
%LPD*%
G01*
G04 APERTURE LIST*
%TA.AperFunction,Profile*%
%ADD10C,0.100000*%
%TD*%
%ADD11C,0.150000*%
%ADD12C,0.100000*%
G04 APERTURE END LIST*
D10*
X64250000Y-81300000D02*
X533250000Y-81300000D01*
X533250000Y-81300000D02*
X533250000Y-247900000D01*
X533250000Y-247900000D02*
X64250000Y-247900000D01*
X64250000Y-247900000D02*
X64250000Y-81300000D01*
D11*
%TO.C,REF\u002A\u002A*%
X75266666Y-247852380D02*
X75266666Y-246852380D01*
X75266666Y-247328571D02*
X75838095Y-247328571D01*
X75838095Y-247852380D02*
X75838095Y-246852380D01*
X76457142Y-247852380D02*
X76361904Y-247804761D01*
X76314285Y-247757142D01*
X76266666Y-247661904D01*
X76266666Y-247376190D01*
X76314285Y-247280952D01*
X76361904Y-247233333D01*
X76457142Y-247185714D01*
X76600000Y-247185714D01*
X76695238Y-247233333D01*
X76742857Y-247280952D01*
X76790476Y-247376190D01*
X76790476Y-247661904D01*
X76742857Y-247757142D01*
X76695238Y-247804761D01*
X76600000Y-247852380D01*
X76457142Y-247852380D01*
X77361904Y-247852380D02*
X77266666Y-247804761D01*
X77219047Y-247709523D01*
X77219047Y-246852380D01*
X78123809Y-247804761D02*
X78028571Y-247852380D01*
X77838095Y-247852380D01*
X77742857Y-247804761D01*
X77695238Y-247709523D01*
X77695238Y-247328571D01*
X77742857Y-247233333D01*
X77838095Y-247185714D01*
X78028571Y-247185714D01*
X78123809Y-247233333D01*
X78171428Y-247328571D01*
X78171428Y-247423809D01*
X77695238Y-247519047D01*
X78361904Y-247947619D02*
X79123809Y-247947619D01*
X79314285Y-246947619D02*
X79361904Y-246900000D01*
X79457142Y-246852380D01*
X79695238Y-246852380D01*
X79790476Y-246900000D01*
X79838095Y-246947619D01*
X79885714Y-247042857D01*
X79885714Y-247138095D01*
X79838095Y-247280952D01*
X79266666Y-247852380D01*
X79885714Y-247852380D01*
X80314285Y-247757142D02*
X80361904Y-247804761D01*
X80314285Y-247852380D01*
X80266666Y-247804761D01*
X80314285Y-247757142D01*
X80314285Y-247852380D01*
X81266666Y-246852380D02*
X80790476Y-246852380D01*
X80742857Y-247328571D01*
X80790476Y-247280952D01*
X80885714Y-247233333D01*
X81123809Y-247233333D01*
X81219047Y-247280952D01*
X81266666Y-247328571D01*
X81314285Y-247423809D01*
X81314285Y-247661904D01*
X81266666Y-247757142D01*
X81219047Y-247804761D01*
X81123809Y-247852380D01*
X80885714Y-247852380D01*
X80790476Y-247804761D01*
X80742857Y-247757142D01*
X81742857Y-247852380D02*
X81742857Y-247185714D01*
X81742857Y-247280952D02*
X81790476Y-247233333D01*
X81885714Y-247185714D01*
X82028571Y-247185714D01*
X82123809Y-247233333D01*
X82171428Y-247328571D01*
X82171428Y-247852380D01*
X82171428Y-247328571D02*
X82219047Y-247233333D01*
X82314285Y-247185714D01*
X82457142Y-247185714D01*
X82552380Y-247233333D01*
X82600000Y-247328571D01*
X82600000Y-247852380D01*
X83076190Y-247852380D02*
X83076190Y-247185714D01*
X83076190Y-247280952D02*
X83123809Y-247233333D01*
X83219047Y-247185714D01*
X83361904Y-247185714D01*
X83457142Y-247233333D01*
X83504761Y-247328571D01*
X83504761Y-247852380D01*
X83504761Y-247328571D02*
X83552380Y-247233333D01*
X83647619Y-247185714D01*
X83790476Y-247185714D01*
X83885714Y-247233333D01*
X83933333Y-247328571D01*
X83933333Y-247852380D01*
X380216666Y-127252380D02*
X380216666Y-126252380D01*
X380216666Y-126728571D02*
X380788095Y-126728571D01*
X380788095Y-127252380D02*
X380788095Y-126252380D01*
X381407142Y-127252380D02*
X381311904Y-127204761D01*
X381264285Y-127157142D01*
X381216666Y-127061904D01*
X381216666Y-126776190D01*
X381264285Y-126680952D01*
X381311904Y-126633333D01*
X381407142Y-126585714D01*
X381550000Y-126585714D01*
X381645238Y-126633333D01*
X381692857Y-126680952D01*
X381740476Y-126776190D01*
X381740476Y-127061904D01*
X381692857Y-127157142D01*
X381645238Y-127204761D01*
X381550000Y-127252380D01*
X381407142Y-127252380D01*
X382311904Y-127252380D02*
X382216666Y-127204761D01*
X382169047Y-127109523D01*
X382169047Y-126252380D01*
X383073809Y-127204761D02*
X382978571Y-127252380D01*
X382788095Y-127252380D01*
X382692857Y-127204761D01*
X382645238Y-127109523D01*
X382645238Y-126728571D01*
X382692857Y-126633333D01*
X382788095Y-126585714D01*
X382978571Y-126585714D01*
X383073809Y-126633333D01*
X383121428Y-126728571D01*
X383121428Y-126823809D01*
X382645238Y-126919047D01*
X383311904Y-127347619D02*
X384073809Y-127347619D01*
X384264285Y-126347619D02*
X384311904Y-126300000D01*
X384407142Y-126252380D01*
X384645238Y-126252380D01*
X384740476Y-126300000D01*
X384788095Y-126347619D01*
X384835714Y-126442857D01*
X384835714Y-126538095D01*
X384788095Y-126680952D01*
X384216666Y-127252380D01*
X384835714Y-127252380D01*
X385264285Y-127157142D02*
X385311904Y-127204761D01*
X385264285Y-127252380D01*
X385216666Y-127204761D01*
X385264285Y-127157142D01*
X385264285Y-127252380D01*
X386216666Y-126252380D02*
X385740476Y-126252380D01*
X385692857Y-126728571D01*
X385740476Y-126680952D01*
X385835714Y-126633333D01*
X386073809Y-126633333D01*
X386169047Y-126680952D01*
X386216666Y-126728571D01*
X386264285Y-126823809D01*
X386264285Y-127061904D01*
X386216666Y-127157142D01*
X386169047Y-127204761D01*
X386073809Y-127252380D01*
X385835714Y-127252380D01*
X385740476Y-127204761D01*
X385692857Y-127157142D01*
X386692857Y-127252380D02*
X386692857Y-126585714D01*
X386692857Y-126680952D02*
X386740476Y-126633333D01*
X386835714Y-126585714D01*
X386978571Y-126585714D01*
X387073809Y-126633333D01*
X387121428Y-126728571D01*
X387121428Y-127252380D01*
X387121428Y-126728571D02*
X387169047Y-126633333D01*
X387264285Y-126585714D01*
X387407142Y-126585714D01*
X387502380Y-126633333D01*
X387550000Y-126728571D01*
X387550000Y-127252380D01*
X388026190Y-127252380D02*
X388026190Y-126585714D01*
X388026190Y-126680952D02*
X388073809Y-126633333D01*
X388169047Y-126585714D01*
X388311904Y-126585714D01*
X388407142Y-126633333D01*
X388454761Y-126728571D01*
X388454761Y-127252380D01*
X388454761Y-126728571D02*
X388502380Y-126633333D01*
X388597619Y-126585714D01*
X388740476Y-126585714D01*
X388835714Y-126633333D01*
X388883333Y-126728571D01*
X388883333Y-127252380D01*
X459416666Y-215952380D02*
X459416666Y-214952380D01*
X459416666Y-215428571D02*
X459988095Y-215428571D01*
X459988095Y-215952380D02*
X459988095Y-214952380D01*
X460607142Y-215952380D02*
X460511904Y-215904761D01*
X460464285Y-215857142D01*
X460416666Y-215761904D01*
X460416666Y-215476190D01*
X460464285Y-215380952D01*
X460511904Y-215333333D01*
X460607142Y-215285714D01*
X460750000Y-215285714D01*
X460845238Y-215333333D01*
X460892857Y-215380952D01*
X460940476Y-215476190D01*
X460940476Y-215761904D01*
X460892857Y-215857142D01*
X460845238Y-215904761D01*
X460750000Y-215952380D01*
X460607142Y-215952380D01*
X461511904Y-215952380D02*
X461416666Y-215904761D01*
X461369047Y-215809523D01*
X461369047Y-214952380D01*
X462273809Y-215904761D02*
X462178571Y-215952380D01*
X461988095Y-215952380D01*
X461892857Y-215904761D01*
X461845238Y-215809523D01*
X461845238Y-215428571D01*
X461892857Y-215333333D01*
X461988095Y-215285714D01*
X462178571Y-215285714D01*
X462273809Y-215333333D01*
X462321428Y-215428571D01*
X462321428Y-215523809D01*
X461845238Y-215619047D01*
X462511904Y-216047619D02*
X463273809Y-216047619D01*
X463464285Y-215047619D02*
X463511904Y-215000000D01*
X463607142Y-214952380D01*
X463845238Y-214952380D01*
X463940476Y-215000000D01*
X463988095Y-215047619D01*
X464035714Y-215142857D01*
X464035714Y-215238095D01*
X463988095Y-215380952D01*
X463416666Y-215952380D01*
X464035714Y-215952380D01*
X464464285Y-215857142D02*
X464511904Y-215904761D01*
X464464285Y-215952380D01*
X464416666Y-215904761D01*
X464464285Y-215857142D01*
X464464285Y-215952380D01*
X465416666Y-214952380D02*
X464940476Y-214952380D01*
X464892857Y-215428571D01*
X464940476Y-215380952D01*
X465035714Y-215333333D01*
X465273809Y-215333333D01*
X465369047Y-215380952D01*
X465416666Y-215428571D01*
X465464285Y-215523809D01*
X465464285Y-215761904D01*
X465416666Y-215857142D01*
X465369047Y-215904761D01*
X465273809Y-215952380D01*
X465035714Y-215952380D01*
X464940476Y-215904761D01*
X464892857Y-215857142D01*
X465892857Y-215952380D02*
X465892857Y-215285714D01*
X465892857Y-215380952D02*
X465940476Y-215333333D01*
X466035714Y-215285714D01*
X466178571Y-215285714D01*
X466273809Y-215333333D01*
X466321428Y-215428571D01*
X466321428Y-215952380D01*
X466321428Y-215428571D02*
X466369047Y-215333333D01*
X466464285Y-215285714D01*
X466607142Y-215285714D01*
X466702380Y-215333333D01*
X466750000Y-215428571D01*
X466750000Y-215952380D01*
X467226190Y-215952380D02*
X467226190Y-215285714D01*
X467226190Y-215380952D02*
X467273809Y-215333333D01*
X467369047Y-215285714D01*
X467511904Y-215285714D01*
X467607142Y-215333333D01*
X467654761Y-215428571D01*
X467654761Y-215952380D01*
X467654761Y-215428571D02*
X467702380Y-215333333D01*
X467797619Y-215285714D01*
X467940476Y-215285714D01*
X468035714Y-215333333D01*
X468083333Y-215428571D01*
X468083333Y-215952380D01*
X456466666Y-127252380D02*
X456466666Y-126252380D01*
X456466666Y-126728571D02*
X457038095Y-126728571D01*
X457038095Y-127252380D02*
X457038095Y-126252380D01*
X457657142Y-127252380D02*
X457561904Y-127204761D01*
X457514285Y-127157142D01*
X457466666Y-127061904D01*
X457466666Y-126776190D01*
X457514285Y-126680952D01*
X457561904Y-126633333D01*
X457657142Y-126585714D01*
X457800000Y-126585714D01*
X457895238Y-126633333D01*
X457942857Y-126680952D01*
X457990476Y-126776190D01*
X457990476Y-127061904D01*
X457942857Y-127157142D01*
X457895238Y-127204761D01*
X457800000Y-127252380D01*
X457657142Y-127252380D01*
X458561904Y-127252380D02*
X458466666Y-127204761D01*
X458419047Y-127109523D01*
X458419047Y-126252380D01*
X459323809Y-127204761D02*
X459228571Y-127252380D01*
X459038095Y-127252380D01*
X458942857Y-127204761D01*
X458895238Y-127109523D01*
X458895238Y-126728571D01*
X458942857Y-126633333D01*
X459038095Y-126585714D01*
X459228571Y-126585714D01*
X459323809Y-126633333D01*
X459371428Y-126728571D01*
X459371428Y-126823809D01*
X458895238Y-126919047D01*
X459561904Y-127347619D02*
X460323809Y-127347619D01*
X460514285Y-126347619D02*
X460561904Y-126300000D01*
X460657142Y-126252380D01*
X460895238Y-126252380D01*
X460990476Y-126300000D01*
X461038095Y-126347619D01*
X461085714Y-126442857D01*
X461085714Y-126538095D01*
X461038095Y-126680952D01*
X460466666Y-127252380D01*
X461085714Y-127252380D01*
X461514285Y-127157142D02*
X461561904Y-127204761D01*
X461514285Y-127252380D01*
X461466666Y-127204761D01*
X461514285Y-127157142D01*
X461514285Y-127252380D01*
X462466666Y-126252380D02*
X461990476Y-126252380D01*
X461942857Y-126728571D01*
X461990476Y-126680952D01*
X462085714Y-126633333D01*
X462323809Y-126633333D01*
X462419047Y-126680952D01*
X462466666Y-126728571D01*
X462514285Y-126823809D01*
X462514285Y-127061904D01*
X462466666Y-127157142D01*
X462419047Y-127204761D01*
X462323809Y-127252380D01*
X462085714Y-127252380D01*
X461990476Y-127204761D01*
X461942857Y-127157142D01*
X462942857Y-127252380D02*
X462942857Y-126585714D01*
X462942857Y-126680952D02*
X462990476Y-126633333D01*
X463085714Y-126585714D01*
X463228571Y-126585714D01*
X463323809Y-126633333D01*
X463371428Y-126728571D01*
X463371428Y-127252380D01*
X463371428Y-126728571D02*
X463419047Y-126633333D01*
X463514285Y-126585714D01*
X463657142Y-126585714D01*
X463752380Y-126633333D01*
X463800000Y-126728571D01*
X463800000Y-127252380D01*
X464276190Y-127252380D02*
X464276190Y-126585714D01*
X464276190Y-126680952D02*
X464323809Y-126633333D01*
X464419047Y-126585714D01*
X464561904Y-126585714D01*
X464657142Y-126633333D01*
X464704761Y-126728571D01*
X464704761Y-127252380D01*
X464704761Y-126728571D02*
X464752380Y-126633333D01*
X464847619Y-126585714D01*
X464990476Y-126585714D01*
X465085714Y-126633333D01*
X465133333Y-126728571D01*
X465133333Y-127252380D01*
%TO.C,U2*%
X421823952Y-111256809D02*
X421776333Y-111352047D01*
X421728714Y-111399666D01*
X421633476Y-111447285D01*
X421585857Y-111447285D01*
X421490619Y-111399666D01*
X421443000Y-111352047D01*
X421395380Y-111256809D01*
X421395380Y-111066333D01*
X421443000Y-110971095D01*
X421490619Y-110923476D01*
X421585857Y-110875857D01*
X421633476Y-110875857D01*
X421728714Y-110923476D01*
X421776333Y-110971095D01*
X421823952Y-111066333D01*
X421823952Y-111256809D01*
X421871571Y-111352047D01*
X421919190Y-111399666D01*
X422014428Y-111447285D01*
X422204904Y-111447285D01*
X422300142Y-111399666D01*
X422347761Y-111352047D01*
X422395380Y-111256809D01*
X422395380Y-111066333D01*
X422347761Y-110971095D01*
X422300142Y-110923476D01*
X422204904Y-110875857D01*
X422014428Y-110875857D01*
X421919190Y-110923476D01*
X421871571Y-110971095D01*
X421823952Y-111066333D01*
X421395380Y-110256809D02*
X421395380Y-110161571D01*
X421443000Y-110066333D01*
X421490619Y-110018714D01*
X421585857Y-109971095D01*
X421776333Y-109923476D01*
X422014428Y-109923476D01*
X422204904Y-109971095D01*
X422300142Y-110018714D01*
X422347761Y-110066333D01*
X422395380Y-110161571D01*
X422395380Y-110256809D01*
X422347761Y-110352047D01*
X422300142Y-110399666D01*
X422204904Y-110447285D01*
X422014428Y-110494904D01*
X421776333Y-110494904D01*
X421585857Y-110447285D01*
X421490619Y-110399666D01*
X421443000Y-110352047D01*
X421395380Y-110256809D01*
X421728714Y-109066333D02*
X422395380Y-109066333D01*
X421347761Y-109304428D02*
X422062047Y-109542523D01*
X422062047Y-108923476D01*
X421823952Y-108399666D02*
X421776333Y-108494904D01*
X421728714Y-108542523D01*
X421633476Y-108590142D01*
X421585857Y-108590142D01*
X421490619Y-108542523D01*
X421443000Y-108494904D01*
X421395380Y-108399666D01*
X421395380Y-108209190D01*
X421443000Y-108113952D01*
X421490619Y-108066333D01*
X421585857Y-108018714D01*
X421633476Y-108018714D01*
X421728714Y-108066333D01*
X421776333Y-108113952D01*
X421823952Y-108209190D01*
X421823952Y-108399666D01*
X421871571Y-108494904D01*
X421919190Y-108542523D01*
X422014428Y-108590142D01*
X422204904Y-108590142D01*
X422300142Y-108542523D01*
X422347761Y-108494904D01*
X422395380Y-108399666D01*
X422395380Y-108209190D01*
X422347761Y-108113952D01*
X422300142Y-108066333D01*
X422204904Y-108018714D01*
X422014428Y-108018714D01*
X421919190Y-108066333D01*
X421871571Y-108113952D01*
X421823952Y-108209190D01*
X394935380Y-110494904D02*
X395744904Y-110494904D01*
X395840142Y-110447285D01*
X395887761Y-110399666D01*
X395935380Y-110304428D01*
X395935380Y-110113952D01*
X395887761Y-110018714D01*
X395840142Y-109971095D01*
X395744904Y-109923476D01*
X394935380Y-109923476D01*
X395030619Y-109494904D02*
X394983000Y-109447285D01*
X394935380Y-109352047D01*
X394935380Y-109113952D01*
X394983000Y-109018714D01*
X395030619Y-108971095D01*
X395125857Y-108923476D01*
X395221095Y-108923476D01*
X395363952Y-108971095D01*
X395935380Y-109542523D01*
X395935380Y-108923476D01*
%TO.C,REF\u002A\u002A*%
X163816666Y-178152380D02*
X163816666Y-177152380D01*
X163816666Y-177628571D02*
X164388095Y-177628571D01*
X164388095Y-178152380D02*
X164388095Y-177152380D01*
X165007142Y-178152380D02*
X164911904Y-178104761D01*
X164864285Y-178057142D01*
X164816666Y-177961904D01*
X164816666Y-177676190D01*
X164864285Y-177580952D01*
X164911904Y-177533333D01*
X165007142Y-177485714D01*
X165150000Y-177485714D01*
X165245238Y-177533333D01*
X165292857Y-177580952D01*
X165340476Y-177676190D01*
X165340476Y-177961904D01*
X165292857Y-178057142D01*
X165245238Y-178104761D01*
X165150000Y-178152380D01*
X165007142Y-178152380D01*
X165911904Y-178152380D02*
X165816666Y-178104761D01*
X165769047Y-178009523D01*
X165769047Y-177152380D01*
X166673809Y-178104761D02*
X166578571Y-178152380D01*
X166388095Y-178152380D01*
X166292857Y-178104761D01*
X166245238Y-178009523D01*
X166245238Y-177628571D01*
X166292857Y-177533333D01*
X166388095Y-177485714D01*
X166578571Y-177485714D01*
X166673809Y-177533333D01*
X166721428Y-177628571D01*
X166721428Y-177723809D01*
X166245238Y-177819047D01*
X166911904Y-178247619D02*
X167673809Y-178247619D01*
X167864285Y-177247619D02*
X167911904Y-177200000D01*
X168007142Y-177152380D01*
X168245238Y-177152380D01*
X168340476Y-177200000D01*
X168388095Y-177247619D01*
X168435714Y-177342857D01*
X168435714Y-177438095D01*
X168388095Y-177580952D01*
X167816666Y-178152380D01*
X168435714Y-178152380D01*
X168864285Y-178057142D02*
X168911904Y-178104761D01*
X168864285Y-178152380D01*
X168816666Y-178104761D01*
X168864285Y-178057142D01*
X168864285Y-178152380D01*
X169816666Y-177152380D02*
X169340476Y-177152380D01*
X169292857Y-177628571D01*
X169340476Y-177580952D01*
X169435714Y-177533333D01*
X169673809Y-177533333D01*
X169769047Y-177580952D01*
X169816666Y-177628571D01*
X169864285Y-177723809D01*
X169864285Y-177961904D01*
X169816666Y-178057142D01*
X169769047Y-178104761D01*
X169673809Y-178152380D01*
X169435714Y-178152380D01*
X169340476Y-178104761D01*
X169292857Y-178057142D01*
X170292857Y-178152380D02*
X170292857Y-177485714D01*
X170292857Y-177580952D02*
X170340476Y-177533333D01*
X170435714Y-177485714D01*
X170578571Y-177485714D01*
X170673809Y-177533333D01*
X170721428Y-177628571D01*
X170721428Y-178152380D01*
X170721428Y-177628571D02*
X170769047Y-177533333D01*
X170864285Y-177485714D01*
X171007142Y-177485714D01*
X171102380Y-177533333D01*
X171150000Y-177628571D01*
X171150000Y-178152380D01*
X171626190Y-178152380D02*
X171626190Y-177485714D01*
X171626190Y-177580952D02*
X171673809Y-177533333D01*
X171769047Y-177485714D01*
X171911904Y-177485714D01*
X172007142Y-177533333D01*
X172054761Y-177628571D01*
X172054761Y-178152380D01*
X172054761Y-177628571D02*
X172102380Y-177533333D01*
X172197619Y-177485714D01*
X172340476Y-177485714D01*
X172435714Y-177533333D01*
X172483333Y-177628571D01*
X172483333Y-178152380D01*
%TO.C,J0*%
X524338142Y-98061857D02*
X524385761Y-98109476D01*
X524433380Y-98252333D01*
X524433380Y-98347571D01*
X524385761Y-98490428D01*
X524290523Y-98585666D01*
X524195285Y-98633285D01*
X524004809Y-98680904D01*
X523861952Y-98680904D01*
X523671476Y-98633285D01*
X523576238Y-98585666D01*
X523481000Y-98490428D01*
X523433380Y-98347571D01*
X523433380Y-98252333D01*
X523481000Y-98109476D01*
X523528619Y-98061857D01*
X524433380Y-97490428D02*
X524385761Y-97585666D01*
X524338142Y-97633285D01*
X524242904Y-97680904D01*
X523957190Y-97680904D01*
X523861952Y-97633285D01*
X523814333Y-97585666D01*
X523766714Y-97490428D01*
X523766714Y-97347571D01*
X523814333Y-97252333D01*
X523861952Y-97204714D01*
X523957190Y-97157095D01*
X524242904Y-97157095D01*
X524338142Y-97204714D01*
X524385761Y-97252333D01*
X524433380Y-97347571D01*
X524433380Y-97490428D01*
X523766714Y-96728523D02*
X524433380Y-96728523D01*
X523861952Y-96728523D02*
X523814333Y-96680904D01*
X523766714Y-96585666D01*
X523766714Y-96442809D01*
X523814333Y-96347571D01*
X523909571Y-96299952D01*
X524433380Y-96299952D01*
X523766714Y-95823761D02*
X524433380Y-95823761D01*
X523861952Y-95823761D02*
X523814333Y-95776142D01*
X523766714Y-95680904D01*
X523766714Y-95538047D01*
X523814333Y-95442809D01*
X523909571Y-95395190D01*
X524433380Y-95395190D01*
X524528619Y-95157095D02*
X524528619Y-94395190D01*
X523433380Y-93966619D02*
X523433380Y-93871380D01*
X523481000Y-93776142D01*
X523528619Y-93728523D01*
X523623857Y-93680904D01*
X523814333Y-93633285D01*
X524052428Y-93633285D01*
X524242904Y-93680904D01*
X524338142Y-93728523D01*
X524385761Y-93776142D01*
X524433380Y-93871380D01*
X524433380Y-93966619D01*
X524385761Y-94061857D01*
X524338142Y-94109476D01*
X524242904Y-94157095D01*
X524052428Y-94204714D01*
X523814333Y-94204714D01*
X523623857Y-94157095D01*
X523528619Y-94109476D01*
X523481000Y-94061857D01*
X523433380Y-93966619D01*
X523528619Y-93252333D02*
X523481000Y-93204714D01*
X523433380Y-93109476D01*
X523433380Y-92871380D01*
X523481000Y-92776142D01*
X523528619Y-92728523D01*
X523623857Y-92680904D01*
X523719095Y-92680904D01*
X523861952Y-92728523D01*
X524433380Y-93299952D01*
X524433380Y-92680904D01*
X524433380Y-92347571D02*
X523766714Y-91823761D01*
X523766714Y-92347571D02*
X524433380Y-91823761D01*
X524433380Y-90919000D02*
X524433380Y-91490428D01*
X524433380Y-91204714D02*
X523433380Y-91204714D01*
X523576238Y-91299952D01*
X523671476Y-91395190D01*
X523719095Y-91490428D01*
X523433380Y-90585666D02*
X523433380Y-89919000D01*
X524433380Y-90347571D01*
X524528619Y-89776142D02*
X524528619Y-89014238D01*
X523433380Y-88585666D02*
X523433380Y-88395190D01*
X523481000Y-88299952D01*
X523576238Y-88204714D01*
X523766714Y-88157095D01*
X524100047Y-88157095D01*
X524290523Y-88204714D01*
X524385761Y-88299952D01*
X524433380Y-88395190D01*
X524433380Y-88585666D01*
X524385761Y-88680904D01*
X524290523Y-88776142D01*
X524100047Y-88823761D01*
X523766714Y-88823761D01*
X523576238Y-88776142D01*
X523481000Y-88680904D01*
X523433380Y-88585666D01*
X524433380Y-87299952D02*
X523433380Y-87299952D01*
X524385761Y-87299952D02*
X524433380Y-87395190D01*
X524433380Y-87585666D01*
X524385761Y-87680904D01*
X524338142Y-87728523D01*
X524242904Y-87776142D01*
X523957190Y-87776142D01*
X523861952Y-87728523D01*
X523814333Y-87680904D01*
X523766714Y-87585666D01*
X523766714Y-87395190D01*
X523814333Y-87299952D01*
X524433380Y-86395190D02*
X523433380Y-86395190D01*
X524385761Y-86395190D02*
X524433380Y-86490428D01*
X524433380Y-86680904D01*
X524385761Y-86776142D01*
X524338142Y-86823761D01*
X524242904Y-86871380D01*
X523957190Y-86871380D01*
X523861952Y-86823761D01*
X523814333Y-86776142D01*
X523766714Y-86680904D01*
X523766714Y-86490428D01*
X523814333Y-86395190D01*
X524528619Y-86157095D02*
X524528619Y-85395190D01*
X523909571Y-85157095D02*
X523909571Y-84823761D01*
X524433380Y-84680904D02*
X524433380Y-85157095D01*
X523433380Y-85157095D01*
X523433380Y-84680904D01*
X523766714Y-84347571D02*
X524433380Y-84109476D01*
X523766714Y-83871380D01*
X524385761Y-83109476D02*
X524433380Y-83204714D01*
X524433380Y-83395190D01*
X524385761Y-83490428D01*
X524290523Y-83538047D01*
X523909571Y-83538047D01*
X523814333Y-83490428D01*
X523766714Y-83395190D01*
X523766714Y-83204714D01*
X523814333Y-83109476D01*
X523909571Y-83061857D01*
X524004809Y-83061857D01*
X524100047Y-83538047D01*
X523766714Y-82633285D02*
X524433380Y-82633285D01*
X523861952Y-82633285D02*
X523814333Y-82585666D01*
X523766714Y-82490428D01*
X523766714Y-82347571D01*
X523814333Y-82252333D01*
X523909571Y-82204714D01*
X524433380Y-82204714D01*
X501057666Y-90216380D02*
X501057666Y-90930666D01*
X501010047Y-91073523D01*
X500914809Y-91168761D01*
X500771952Y-91216380D01*
X500676714Y-91216380D01*
X501724333Y-90216380D02*
X501819571Y-90216380D01*
X501914809Y-90264000D01*
X501962428Y-90311619D01*
X502010047Y-90406857D01*
X502057666Y-90597333D01*
X502057666Y-90835428D01*
X502010047Y-91025904D01*
X501962428Y-91121142D01*
X501914809Y-91168761D01*
X501819571Y-91216380D01*
X501724333Y-91216380D01*
X501629095Y-91168761D01*
X501581476Y-91121142D01*
X501533857Y-91025904D01*
X501486238Y-90835428D01*
X501486238Y-90597333D01*
X501533857Y-90406857D01*
X501581476Y-90311619D01*
X501629095Y-90264000D01*
X501724333Y-90216380D01*
%TO.C,U1*%
X268223380Y-112827047D02*
X268223380Y-112160380D01*
X269223380Y-112588952D01*
X268556714Y-111350857D02*
X269223380Y-111350857D01*
X268175761Y-111588952D02*
X268890047Y-111827047D01*
X268890047Y-111208000D01*
X269223380Y-110350857D02*
X269223380Y-110827047D01*
X268223380Y-110827047D01*
X269175761Y-110065142D02*
X269223380Y-109922285D01*
X269223380Y-109684190D01*
X269175761Y-109588952D01*
X269128142Y-109541333D01*
X269032904Y-109493714D01*
X268937666Y-109493714D01*
X268842428Y-109541333D01*
X268794809Y-109588952D01*
X268747190Y-109684190D01*
X268699571Y-109874666D01*
X268651952Y-109969904D01*
X268604333Y-110017523D01*
X268509095Y-110065142D01*
X268413857Y-110065142D01*
X268318619Y-110017523D01*
X268271000Y-109969904D01*
X268223380Y-109874666D01*
X268223380Y-109636571D01*
X268271000Y-109493714D01*
X269223380Y-108541333D02*
X269223380Y-109112761D01*
X269223380Y-108827047D02*
X268223380Y-108827047D01*
X268366238Y-108922285D01*
X268461476Y-109017523D01*
X268509095Y-109112761D01*
X268223380Y-107636571D02*
X268223380Y-108112761D01*
X268699571Y-108160380D01*
X268651952Y-108112761D01*
X268604333Y-108017523D01*
X268604333Y-107779428D01*
X268651952Y-107684190D01*
X268699571Y-107636571D01*
X268794809Y-107588952D01*
X269032904Y-107588952D01*
X269128142Y-107636571D01*
X269175761Y-107684190D01*
X269223380Y-107779428D01*
X269223380Y-108017523D01*
X269175761Y-108112761D01*
X269128142Y-108160380D01*
X268556714Y-106731809D02*
X269223380Y-106731809D01*
X268175761Y-106969904D02*
X268890047Y-107208000D01*
X268890047Y-106588952D01*
X251923380Y-110469904D02*
X252732904Y-110469904D01*
X252828142Y-110422285D01*
X252875761Y-110374666D01*
X252923380Y-110279428D01*
X252923380Y-110088952D01*
X252875761Y-109993714D01*
X252828142Y-109946095D01*
X252732904Y-109898476D01*
X251923380Y-109898476D01*
X252923380Y-108898476D02*
X252923380Y-109469904D01*
X252923380Y-109184190D02*
X251923380Y-109184190D01*
X252066238Y-109279428D01*
X252161476Y-109374666D01*
X252209095Y-109469904D01*
%TO.C,REF\u002A\u002A*%
X74966666Y-127252380D02*
X74966666Y-126252380D01*
X74966666Y-126728571D02*
X75538095Y-126728571D01*
X75538095Y-127252380D02*
X75538095Y-126252380D01*
X76157142Y-127252380D02*
X76061904Y-127204761D01*
X76014285Y-127157142D01*
X75966666Y-127061904D01*
X75966666Y-126776190D01*
X76014285Y-126680952D01*
X76061904Y-126633333D01*
X76157142Y-126585714D01*
X76300000Y-126585714D01*
X76395238Y-126633333D01*
X76442857Y-126680952D01*
X76490476Y-126776190D01*
X76490476Y-127061904D01*
X76442857Y-127157142D01*
X76395238Y-127204761D01*
X76300000Y-127252380D01*
X76157142Y-127252380D01*
X77061904Y-127252380D02*
X76966666Y-127204761D01*
X76919047Y-127109523D01*
X76919047Y-126252380D01*
X77823809Y-127204761D02*
X77728571Y-127252380D01*
X77538095Y-127252380D01*
X77442857Y-127204761D01*
X77395238Y-127109523D01*
X77395238Y-126728571D01*
X77442857Y-126633333D01*
X77538095Y-126585714D01*
X77728571Y-126585714D01*
X77823809Y-126633333D01*
X77871428Y-126728571D01*
X77871428Y-126823809D01*
X77395238Y-126919047D01*
X78061904Y-127347619D02*
X78823809Y-127347619D01*
X79014285Y-126347619D02*
X79061904Y-126300000D01*
X79157142Y-126252380D01*
X79395238Y-126252380D01*
X79490476Y-126300000D01*
X79538095Y-126347619D01*
X79585714Y-126442857D01*
X79585714Y-126538095D01*
X79538095Y-126680952D01*
X78966666Y-127252380D01*
X79585714Y-127252380D01*
X80014285Y-127157142D02*
X80061904Y-127204761D01*
X80014285Y-127252380D01*
X79966666Y-127204761D01*
X80014285Y-127157142D01*
X80014285Y-127252380D01*
X80966666Y-126252380D02*
X80490476Y-126252380D01*
X80442857Y-126728571D01*
X80490476Y-126680952D01*
X80585714Y-126633333D01*
X80823809Y-126633333D01*
X80919047Y-126680952D01*
X80966666Y-126728571D01*
X81014285Y-126823809D01*
X81014285Y-127061904D01*
X80966666Y-127157142D01*
X80919047Y-127204761D01*
X80823809Y-127252380D01*
X80585714Y-127252380D01*
X80490476Y-127204761D01*
X80442857Y-127157142D01*
X81442857Y-127252380D02*
X81442857Y-126585714D01*
X81442857Y-126680952D02*
X81490476Y-126633333D01*
X81585714Y-126585714D01*
X81728571Y-126585714D01*
X81823809Y-126633333D01*
X81871428Y-126728571D01*
X81871428Y-127252380D01*
X81871428Y-126728571D02*
X81919047Y-126633333D01*
X82014285Y-126585714D01*
X82157142Y-126585714D01*
X82252380Y-126633333D01*
X82300000Y-126728571D01*
X82300000Y-127252380D01*
X82776190Y-127252380D02*
X82776190Y-126585714D01*
X82776190Y-126680952D02*
X82823809Y-126633333D01*
X82919047Y-126585714D01*
X83061904Y-126585714D01*
X83157142Y-126633333D01*
X83204761Y-126728571D01*
X83204761Y-127252380D01*
X83204761Y-126728571D02*
X83252380Y-126633333D01*
X83347619Y-126585714D01*
X83490476Y-126585714D01*
X83585714Y-126633333D01*
X83633333Y-126728571D01*
X83633333Y-127252380D01*
X516866666Y-178152380D02*
X516866666Y-177152380D01*
X516866666Y-177628571D02*
X517438095Y-177628571D01*
X517438095Y-178152380D02*
X517438095Y-177152380D01*
X518057142Y-178152380D02*
X517961904Y-178104761D01*
X517914285Y-178057142D01*
X517866666Y-177961904D01*
X517866666Y-177676190D01*
X517914285Y-177580952D01*
X517961904Y-177533333D01*
X518057142Y-177485714D01*
X518200000Y-177485714D01*
X518295238Y-177533333D01*
X518342857Y-177580952D01*
X518390476Y-177676190D01*
X518390476Y-177961904D01*
X518342857Y-178057142D01*
X518295238Y-178104761D01*
X518200000Y-178152380D01*
X518057142Y-178152380D01*
X518961904Y-178152380D02*
X518866666Y-178104761D01*
X518819047Y-178009523D01*
X518819047Y-177152380D01*
X519723809Y-178104761D02*
X519628571Y-178152380D01*
X519438095Y-178152380D01*
X519342857Y-178104761D01*
X519295238Y-178009523D01*
X519295238Y-177628571D01*
X519342857Y-177533333D01*
X519438095Y-177485714D01*
X519628571Y-177485714D01*
X519723809Y-177533333D01*
X519771428Y-177628571D01*
X519771428Y-177723809D01*
X519295238Y-177819047D01*
X519961904Y-178247619D02*
X520723809Y-178247619D01*
X520914285Y-177247619D02*
X520961904Y-177200000D01*
X521057142Y-177152380D01*
X521295238Y-177152380D01*
X521390476Y-177200000D01*
X521438095Y-177247619D01*
X521485714Y-177342857D01*
X521485714Y-177438095D01*
X521438095Y-177580952D01*
X520866666Y-178152380D01*
X521485714Y-178152380D01*
X521914285Y-178057142D02*
X521961904Y-178104761D01*
X521914285Y-178152380D01*
X521866666Y-178104761D01*
X521914285Y-178057142D01*
X521914285Y-178152380D01*
X522866666Y-177152380D02*
X522390476Y-177152380D01*
X522342857Y-177628571D01*
X522390476Y-177580952D01*
X522485714Y-177533333D01*
X522723809Y-177533333D01*
X522819047Y-177580952D01*
X522866666Y-177628571D01*
X522914285Y-177723809D01*
X522914285Y-177961904D01*
X522866666Y-178057142D01*
X522819047Y-178104761D01*
X522723809Y-178152380D01*
X522485714Y-178152380D01*
X522390476Y-178104761D01*
X522342857Y-178057142D01*
X523342857Y-178152380D02*
X523342857Y-177485714D01*
X523342857Y-177580952D02*
X523390476Y-177533333D01*
X523485714Y-177485714D01*
X523628571Y-177485714D01*
X523723809Y-177533333D01*
X523771428Y-177628571D01*
X523771428Y-178152380D01*
X523771428Y-177628571D02*
X523819047Y-177533333D01*
X523914285Y-177485714D01*
X524057142Y-177485714D01*
X524152380Y-177533333D01*
X524200000Y-177628571D01*
X524200000Y-178152380D01*
X524676190Y-178152380D02*
X524676190Y-177485714D01*
X524676190Y-177580952D02*
X524723809Y-177533333D01*
X524819047Y-177485714D01*
X524961904Y-177485714D01*
X525057142Y-177533333D01*
X525104761Y-177628571D01*
X525104761Y-178152380D01*
X525104761Y-177628571D02*
X525152380Y-177533333D01*
X525247619Y-177485714D01*
X525390476Y-177485714D01*
X525485714Y-177533333D01*
X525533333Y-177628571D01*
X525533333Y-178152380D01*
%TO.C,J3_2*%
X335173142Y-101401095D02*
X335220761Y-101448714D01*
X335268380Y-101591571D01*
X335268380Y-101686809D01*
X335220761Y-101829666D01*
X335125523Y-101924904D01*
X335030285Y-101972523D01*
X334839809Y-102020142D01*
X334696952Y-102020142D01*
X334506476Y-101972523D01*
X334411238Y-101924904D01*
X334316000Y-101829666D01*
X334268380Y-101686809D01*
X334268380Y-101591571D01*
X334316000Y-101448714D01*
X334363619Y-101401095D01*
X335268380Y-100829666D02*
X335220761Y-100924904D01*
X335173142Y-100972523D01*
X335077904Y-101020142D01*
X334792190Y-101020142D01*
X334696952Y-100972523D01*
X334649333Y-100924904D01*
X334601714Y-100829666D01*
X334601714Y-100686809D01*
X334649333Y-100591571D01*
X334696952Y-100543952D01*
X334792190Y-100496333D01*
X335077904Y-100496333D01*
X335173142Y-100543952D01*
X335220761Y-100591571D01*
X335268380Y-100686809D01*
X335268380Y-100829666D01*
X334601714Y-100067761D02*
X335268380Y-100067761D01*
X334696952Y-100067761D02*
X334649333Y-100020142D01*
X334601714Y-99924904D01*
X334601714Y-99782047D01*
X334649333Y-99686809D01*
X334744571Y-99639190D01*
X335268380Y-99639190D01*
X334601714Y-99163000D02*
X335268380Y-99163000D01*
X334696952Y-99163000D02*
X334649333Y-99115380D01*
X334601714Y-99020142D01*
X334601714Y-98877285D01*
X334649333Y-98782047D01*
X334744571Y-98734428D01*
X335268380Y-98734428D01*
X335363619Y-98496333D02*
X335363619Y-97734428D01*
X334268380Y-97305857D02*
X334268380Y-97210619D01*
X334316000Y-97115380D01*
X334363619Y-97067761D01*
X334458857Y-97020142D01*
X334649333Y-96972523D01*
X334887428Y-96972523D01*
X335077904Y-97020142D01*
X335173142Y-97067761D01*
X335220761Y-97115380D01*
X335268380Y-97210619D01*
X335268380Y-97305857D01*
X335220761Y-97401095D01*
X335173142Y-97448714D01*
X335077904Y-97496333D01*
X334887428Y-97543952D01*
X334649333Y-97543952D01*
X334458857Y-97496333D01*
X334363619Y-97448714D01*
X334316000Y-97401095D01*
X334268380Y-97305857D01*
X335268380Y-96020142D02*
X335268380Y-96591571D01*
X335268380Y-96305857D02*
X334268380Y-96305857D01*
X334411238Y-96401095D01*
X334506476Y-96496333D01*
X334554095Y-96591571D01*
X335268380Y-95686809D02*
X334601714Y-95163000D01*
X334601714Y-95686809D02*
X335268380Y-95163000D01*
X334268380Y-94591571D02*
X334268380Y-94496333D01*
X334316000Y-94401095D01*
X334363619Y-94353476D01*
X334458857Y-94305857D01*
X334649333Y-94258238D01*
X334887428Y-94258238D01*
X335077904Y-94305857D01*
X335173142Y-94353476D01*
X335220761Y-94401095D01*
X335268380Y-94496333D01*
X335268380Y-94591571D01*
X335220761Y-94686809D01*
X335173142Y-94734428D01*
X335077904Y-94782047D01*
X334887428Y-94829666D01*
X334649333Y-94829666D01*
X334458857Y-94782047D01*
X334363619Y-94734428D01*
X334316000Y-94686809D01*
X334268380Y-94591571D01*
X334601714Y-93401095D02*
X335268380Y-93401095D01*
X334220761Y-93639190D02*
X334935047Y-93877285D01*
X334935047Y-93258238D01*
X327485523Y-97115380D02*
X327485523Y-97829666D01*
X327437904Y-97972523D01*
X327342666Y-98067761D01*
X327199809Y-98115380D01*
X327104571Y-98115380D01*
X327866476Y-97115380D02*
X328485523Y-97115380D01*
X328152190Y-97496333D01*
X328295047Y-97496333D01*
X328390285Y-97543952D01*
X328437904Y-97591571D01*
X328485523Y-97686809D01*
X328485523Y-97924904D01*
X328437904Y-98020142D01*
X328390285Y-98067761D01*
X328295047Y-98115380D01*
X328009333Y-98115380D01*
X327914095Y-98067761D01*
X327866476Y-98020142D01*
X328676000Y-98210619D02*
X329437904Y-98210619D01*
X329628380Y-97210619D02*
X329676000Y-97163000D01*
X329771238Y-97115380D01*
X330009333Y-97115380D01*
X330104571Y-97163000D01*
X330152190Y-97210619D01*
X330199809Y-97305857D01*
X330199809Y-97401095D01*
X330152190Y-97543952D01*
X329580761Y-98115380D01*
X330199809Y-98115380D01*
%TO.C,REF\u002A\u002A*%
X414816666Y-178152380D02*
X414816666Y-177152380D01*
X414816666Y-177628571D02*
X415388095Y-177628571D01*
X415388095Y-178152380D02*
X415388095Y-177152380D01*
X416007142Y-178152380D02*
X415911904Y-178104761D01*
X415864285Y-178057142D01*
X415816666Y-177961904D01*
X415816666Y-177676190D01*
X415864285Y-177580952D01*
X415911904Y-177533333D01*
X416007142Y-177485714D01*
X416150000Y-177485714D01*
X416245238Y-177533333D01*
X416292857Y-177580952D01*
X416340476Y-177676190D01*
X416340476Y-177961904D01*
X416292857Y-178057142D01*
X416245238Y-178104761D01*
X416150000Y-178152380D01*
X416007142Y-178152380D01*
X416911904Y-178152380D02*
X416816666Y-178104761D01*
X416769047Y-178009523D01*
X416769047Y-177152380D01*
X417673809Y-178104761D02*
X417578571Y-178152380D01*
X417388095Y-178152380D01*
X417292857Y-178104761D01*
X417245238Y-178009523D01*
X417245238Y-177628571D01*
X417292857Y-177533333D01*
X417388095Y-177485714D01*
X417578571Y-177485714D01*
X417673809Y-177533333D01*
X417721428Y-177628571D01*
X417721428Y-177723809D01*
X417245238Y-177819047D01*
X417911904Y-178247619D02*
X418673809Y-178247619D01*
X418864285Y-177247619D02*
X418911904Y-177200000D01*
X419007142Y-177152380D01*
X419245238Y-177152380D01*
X419340476Y-177200000D01*
X419388095Y-177247619D01*
X419435714Y-177342857D01*
X419435714Y-177438095D01*
X419388095Y-177580952D01*
X418816666Y-178152380D01*
X419435714Y-178152380D01*
X419864285Y-178057142D02*
X419911904Y-178104761D01*
X419864285Y-178152380D01*
X419816666Y-178104761D01*
X419864285Y-178057142D01*
X419864285Y-178152380D01*
X420816666Y-177152380D02*
X420340476Y-177152380D01*
X420292857Y-177628571D01*
X420340476Y-177580952D01*
X420435714Y-177533333D01*
X420673809Y-177533333D01*
X420769047Y-177580952D01*
X420816666Y-177628571D01*
X420864285Y-177723809D01*
X420864285Y-177961904D01*
X420816666Y-178057142D01*
X420769047Y-178104761D01*
X420673809Y-178152380D01*
X420435714Y-178152380D01*
X420340476Y-178104761D01*
X420292857Y-178057142D01*
X421292857Y-178152380D02*
X421292857Y-177485714D01*
X421292857Y-177580952D02*
X421340476Y-177533333D01*
X421435714Y-177485714D01*
X421578571Y-177485714D01*
X421673809Y-177533333D01*
X421721428Y-177628571D01*
X421721428Y-178152380D01*
X421721428Y-177628571D02*
X421769047Y-177533333D01*
X421864285Y-177485714D01*
X422007142Y-177485714D01*
X422102380Y-177533333D01*
X422150000Y-177628571D01*
X422150000Y-178152380D01*
X422626190Y-178152380D02*
X422626190Y-177485714D01*
X422626190Y-177580952D02*
X422673809Y-177533333D01*
X422769047Y-177485714D01*
X422911904Y-177485714D01*
X423007142Y-177533333D01*
X423054761Y-177628571D01*
X423054761Y-178152380D01*
X423054761Y-177628571D02*
X423102380Y-177533333D01*
X423197619Y-177485714D01*
X423340476Y-177485714D01*
X423435714Y-177533333D01*
X423483333Y-177628571D01*
X423483333Y-178152380D01*
%TO.C,JP29*%
X113925180Y-102042361D02*
X114639466Y-102042361D01*
X114782323Y-102089980D01*
X114877561Y-102185219D01*
X114925180Y-102328076D01*
X114925180Y-102423314D01*
X114258514Y-101137600D02*
X114925180Y-101137600D01*
X114258514Y-101566171D02*
X114782323Y-101566171D01*
X114877561Y-101518552D01*
X114925180Y-101423314D01*
X114925180Y-101280457D01*
X114877561Y-101185219D01*
X114829942Y-101137600D01*
X114925180Y-100661409D02*
X114258514Y-100661409D01*
X114353752Y-100661409D02*
X114306133Y-100613790D01*
X114258514Y-100518552D01*
X114258514Y-100375695D01*
X114306133Y-100280457D01*
X114401371Y-100232838D01*
X114925180Y-100232838D01*
X114401371Y-100232838D02*
X114306133Y-100185219D01*
X114258514Y-100089980D01*
X114258514Y-99947123D01*
X114306133Y-99851885D01*
X114401371Y-99804266D01*
X114925180Y-99804266D01*
X114258514Y-99328076D02*
X115258514Y-99328076D01*
X114306133Y-99328076D02*
X114258514Y-99232838D01*
X114258514Y-99042361D01*
X114306133Y-98947123D01*
X114353752Y-98899504D01*
X114448990Y-98851885D01*
X114734704Y-98851885D01*
X114829942Y-98899504D01*
X114877561Y-98947123D01*
X114925180Y-99042361D01*
X114925180Y-99232838D01*
X114877561Y-99328076D01*
X114877561Y-98042361D02*
X114925180Y-98137600D01*
X114925180Y-98328076D01*
X114877561Y-98423314D01*
X114782323Y-98470933D01*
X114401371Y-98470933D01*
X114306133Y-98423314D01*
X114258514Y-98328076D01*
X114258514Y-98137600D01*
X114306133Y-98042361D01*
X114401371Y-97994742D01*
X114496609Y-97994742D01*
X114591847Y-98470933D01*
X114925180Y-97566171D02*
X114258514Y-97566171D01*
X114448990Y-97566171D02*
X114353752Y-97518552D01*
X114306133Y-97470933D01*
X114258514Y-97375695D01*
X114258514Y-97280457D01*
X113925180Y-95994742D02*
X113925180Y-95804266D01*
X113972800Y-95709028D01*
X114068038Y-95613790D01*
X114258514Y-95566171D01*
X114591847Y-95566171D01*
X114782323Y-95613790D01*
X114877561Y-95709028D01*
X114925180Y-95804266D01*
X114925180Y-95994742D01*
X114877561Y-96089980D01*
X114782323Y-96185219D01*
X114591847Y-96232838D01*
X114258514Y-96232838D01*
X114068038Y-96185219D01*
X113972800Y-96089980D01*
X113925180Y-95994742D01*
X114258514Y-95137600D02*
X115258514Y-95137600D01*
X114306133Y-95137600D02*
X114258514Y-95042361D01*
X114258514Y-94851885D01*
X114306133Y-94756647D01*
X114353752Y-94709028D01*
X114448990Y-94661409D01*
X114734704Y-94661409D01*
X114829942Y-94709028D01*
X114877561Y-94756647D01*
X114925180Y-94851885D01*
X114925180Y-95042361D01*
X114877561Y-95137600D01*
X114877561Y-93851885D02*
X114925180Y-93947123D01*
X114925180Y-94137600D01*
X114877561Y-94232838D01*
X114782323Y-94280457D01*
X114401371Y-94280457D01*
X114306133Y-94232838D01*
X114258514Y-94137600D01*
X114258514Y-93947123D01*
X114306133Y-93851885D01*
X114401371Y-93804266D01*
X114496609Y-93804266D01*
X114591847Y-94280457D01*
X114258514Y-93375695D02*
X114925180Y-93375695D01*
X114353752Y-93375695D02*
X114306133Y-93328076D01*
X114258514Y-93232838D01*
X114258514Y-93089980D01*
X114306133Y-92994742D01*
X114401371Y-92947123D01*
X114925180Y-92947123D01*
%TO.C,REF\u002A\u002A*%
X178416666Y-215952380D02*
X178416666Y-214952380D01*
X178416666Y-215428571D02*
X178988095Y-215428571D01*
X178988095Y-215952380D02*
X178988095Y-214952380D01*
X179607142Y-215952380D02*
X179511904Y-215904761D01*
X179464285Y-215857142D01*
X179416666Y-215761904D01*
X179416666Y-215476190D01*
X179464285Y-215380952D01*
X179511904Y-215333333D01*
X179607142Y-215285714D01*
X179750000Y-215285714D01*
X179845238Y-215333333D01*
X179892857Y-215380952D01*
X179940476Y-215476190D01*
X179940476Y-215761904D01*
X179892857Y-215857142D01*
X179845238Y-215904761D01*
X179750000Y-215952380D01*
X179607142Y-215952380D01*
X180511904Y-215952380D02*
X180416666Y-215904761D01*
X180369047Y-215809523D01*
X180369047Y-214952380D01*
X181273809Y-215904761D02*
X181178571Y-215952380D01*
X180988095Y-215952380D01*
X180892857Y-215904761D01*
X180845238Y-215809523D01*
X180845238Y-215428571D01*
X180892857Y-215333333D01*
X180988095Y-215285714D01*
X181178571Y-215285714D01*
X181273809Y-215333333D01*
X181321428Y-215428571D01*
X181321428Y-215523809D01*
X180845238Y-215619047D01*
X181511904Y-216047619D02*
X182273809Y-216047619D01*
X182464285Y-215047619D02*
X182511904Y-215000000D01*
X182607142Y-214952380D01*
X182845238Y-214952380D01*
X182940476Y-215000000D01*
X182988095Y-215047619D01*
X183035714Y-215142857D01*
X183035714Y-215238095D01*
X182988095Y-215380952D01*
X182416666Y-215952380D01*
X183035714Y-215952380D01*
X183464285Y-215857142D02*
X183511904Y-215904761D01*
X183464285Y-215952380D01*
X183416666Y-215904761D01*
X183464285Y-215857142D01*
X183464285Y-215952380D01*
X184416666Y-214952380D02*
X183940476Y-214952380D01*
X183892857Y-215428571D01*
X183940476Y-215380952D01*
X184035714Y-215333333D01*
X184273809Y-215333333D01*
X184369047Y-215380952D01*
X184416666Y-215428571D01*
X184464285Y-215523809D01*
X184464285Y-215761904D01*
X184416666Y-215857142D01*
X184369047Y-215904761D01*
X184273809Y-215952380D01*
X184035714Y-215952380D01*
X183940476Y-215904761D01*
X183892857Y-215857142D01*
X184892857Y-215952380D02*
X184892857Y-215285714D01*
X184892857Y-215380952D02*
X184940476Y-215333333D01*
X185035714Y-215285714D01*
X185178571Y-215285714D01*
X185273809Y-215333333D01*
X185321428Y-215428571D01*
X185321428Y-215952380D01*
X185321428Y-215428571D02*
X185369047Y-215333333D01*
X185464285Y-215285714D01*
X185607142Y-215285714D01*
X185702380Y-215333333D01*
X185750000Y-215428571D01*
X185750000Y-215952380D01*
X186226190Y-215952380D02*
X186226190Y-215285714D01*
X186226190Y-215380952D02*
X186273809Y-215333333D01*
X186369047Y-215285714D01*
X186511904Y-215285714D01*
X186607142Y-215333333D01*
X186654761Y-215428571D01*
X186654761Y-215952380D01*
X186654761Y-215428571D02*
X186702380Y-215333333D01*
X186797619Y-215285714D01*
X186940476Y-215285714D01*
X187035714Y-215333333D01*
X187083333Y-215428571D01*
X187083333Y-215952380D01*
X459566666Y-178152380D02*
X459566666Y-177152380D01*
X459566666Y-177628571D02*
X460138095Y-177628571D01*
X460138095Y-178152380D02*
X460138095Y-177152380D01*
X460757142Y-178152380D02*
X460661904Y-178104761D01*
X460614285Y-178057142D01*
X460566666Y-177961904D01*
X460566666Y-177676190D01*
X460614285Y-177580952D01*
X460661904Y-177533333D01*
X460757142Y-177485714D01*
X460900000Y-177485714D01*
X460995238Y-177533333D01*
X461042857Y-177580952D01*
X461090476Y-177676190D01*
X461090476Y-177961904D01*
X461042857Y-178057142D01*
X460995238Y-178104761D01*
X460900000Y-178152380D01*
X460757142Y-178152380D01*
X461661904Y-178152380D02*
X461566666Y-178104761D01*
X461519047Y-178009523D01*
X461519047Y-177152380D01*
X462423809Y-178104761D02*
X462328571Y-178152380D01*
X462138095Y-178152380D01*
X462042857Y-178104761D01*
X461995238Y-178009523D01*
X461995238Y-177628571D01*
X462042857Y-177533333D01*
X462138095Y-177485714D01*
X462328571Y-177485714D01*
X462423809Y-177533333D01*
X462471428Y-177628571D01*
X462471428Y-177723809D01*
X461995238Y-177819047D01*
X462661904Y-178247619D02*
X463423809Y-178247619D01*
X463614285Y-177247619D02*
X463661904Y-177200000D01*
X463757142Y-177152380D01*
X463995238Y-177152380D01*
X464090476Y-177200000D01*
X464138095Y-177247619D01*
X464185714Y-177342857D01*
X464185714Y-177438095D01*
X464138095Y-177580952D01*
X463566666Y-178152380D01*
X464185714Y-178152380D01*
X464614285Y-178057142D02*
X464661904Y-178104761D01*
X464614285Y-178152380D01*
X464566666Y-178104761D01*
X464614285Y-178057142D01*
X464614285Y-178152380D01*
X465566666Y-177152380D02*
X465090476Y-177152380D01*
X465042857Y-177628571D01*
X465090476Y-177580952D01*
X465185714Y-177533333D01*
X465423809Y-177533333D01*
X465519047Y-177580952D01*
X465566666Y-177628571D01*
X465614285Y-177723809D01*
X465614285Y-177961904D01*
X465566666Y-178057142D01*
X465519047Y-178104761D01*
X465423809Y-178152380D01*
X465185714Y-178152380D01*
X465090476Y-178104761D01*
X465042857Y-178057142D01*
X466042857Y-178152380D02*
X466042857Y-177485714D01*
X466042857Y-177580952D02*
X466090476Y-177533333D01*
X466185714Y-177485714D01*
X466328571Y-177485714D01*
X466423809Y-177533333D01*
X466471428Y-177628571D01*
X466471428Y-178152380D01*
X466471428Y-177628571D02*
X466519047Y-177533333D01*
X466614285Y-177485714D01*
X466757142Y-177485714D01*
X466852380Y-177533333D01*
X466900000Y-177628571D01*
X466900000Y-178152380D01*
X467376190Y-178152380D02*
X467376190Y-177485714D01*
X467376190Y-177580952D02*
X467423809Y-177533333D01*
X467519047Y-177485714D01*
X467661904Y-177485714D01*
X467757142Y-177533333D01*
X467804761Y-177628571D01*
X467804761Y-178152380D01*
X467804761Y-177628571D02*
X467852380Y-177533333D01*
X467947619Y-177485714D01*
X468090476Y-177485714D01*
X468185714Y-177533333D01*
X468233333Y-177628571D01*
X468233333Y-178152380D01*
X326328285Y-109960380D02*
X326899714Y-109960380D01*
X326614000Y-110960380D02*
X326614000Y-109960380D01*
X327614000Y-110912761D02*
X327518761Y-110960380D01*
X327328285Y-110960380D01*
X327233047Y-110912761D01*
X327185428Y-110817523D01*
X327185428Y-110436571D01*
X327233047Y-110341333D01*
X327328285Y-110293714D01*
X327518761Y-110293714D01*
X327614000Y-110341333D01*
X327661619Y-110436571D01*
X327661619Y-110531809D01*
X327185428Y-110627047D01*
X328042571Y-110912761D02*
X328137809Y-110960380D01*
X328328285Y-110960380D01*
X328423523Y-110912761D01*
X328471142Y-110817523D01*
X328471142Y-110769904D01*
X328423523Y-110674666D01*
X328328285Y-110627047D01*
X328185428Y-110627047D01*
X328090190Y-110579428D01*
X328042571Y-110484190D01*
X328042571Y-110436571D01*
X328090190Y-110341333D01*
X328185428Y-110293714D01*
X328328285Y-110293714D01*
X328423523Y-110341333D01*
X328756857Y-110293714D02*
X329137809Y-110293714D01*
X328899714Y-109960380D02*
X328899714Y-110817523D01*
X328947333Y-110912761D01*
X329042571Y-110960380D01*
X329137809Y-110960380D01*
X329471142Y-110960380D02*
X329471142Y-109960380D01*
X329852095Y-109960380D01*
X329947333Y-110008000D01*
X329994952Y-110055619D01*
X330042571Y-110150857D01*
X330042571Y-110293714D01*
X329994952Y-110388952D01*
X329947333Y-110436571D01*
X329852095Y-110484190D01*
X329471142Y-110484190D01*
X330614000Y-110960380D02*
X330518761Y-110912761D01*
X330471142Y-110865142D01*
X330423523Y-110769904D01*
X330423523Y-110484190D01*
X330471142Y-110388952D01*
X330518761Y-110341333D01*
X330614000Y-110293714D01*
X330756857Y-110293714D01*
X330852095Y-110341333D01*
X330899714Y-110388952D01*
X330947333Y-110484190D01*
X330947333Y-110769904D01*
X330899714Y-110865142D01*
X330852095Y-110912761D01*
X330756857Y-110960380D01*
X330614000Y-110960380D01*
X331375904Y-110960380D02*
X331375904Y-110293714D01*
X331375904Y-109960380D02*
X331328285Y-110008000D01*
X331375904Y-110055619D01*
X331423523Y-110008000D01*
X331375904Y-109960380D01*
X331375904Y-110055619D01*
X331852095Y-110293714D02*
X331852095Y-110960380D01*
X331852095Y-110388952D02*
X331899714Y-110341333D01*
X331994952Y-110293714D01*
X332137809Y-110293714D01*
X332233047Y-110341333D01*
X332280666Y-110436571D01*
X332280666Y-110960380D01*
X332614000Y-110293714D02*
X332994952Y-110293714D01*
X332756857Y-109960380D02*
X332756857Y-110817523D01*
X332804476Y-110912761D01*
X332899714Y-110960380D01*
X332994952Y-110960380D01*
X333090190Y-111055619D02*
X333852095Y-111055619D01*
X333947333Y-109960380D02*
X334518761Y-109960380D01*
X334233047Y-110960380D02*
X334233047Y-109960380D01*
X334852095Y-110960380D02*
X334852095Y-109960380D01*
X334852095Y-110436571D02*
X335423523Y-110436571D01*
X335423523Y-110960380D02*
X335423523Y-109960380D01*
X335756857Y-109960380D02*
X336328285Y-109960380D01*
X336042571Y-110960380D02*
X336042571Y-109960380D01*
X336661619Y-110960380D02*
X336661619Y-109960380D01*
X337042571Y-109960380D01*
X337137809Y-110008000D01*
X337185428Y-110055619D01*
X337233047Y-110150857D01*
X337233047Y-110293714D01*
X337185428Y-110388952D01*
X337137809Y-110436571D01*
X337042571Y-110484190D01*
X336661619Y-110484190D01*
X338090190Y-110960380D02*
X338090190Y-110436571D01*
X338042571Y-110341333D01*
X337947333Y-110293714D01*
X337756857Y-110293714D01*
X337661619Y-110341333D01*
X338090190Y-110912761D02*
X337994952Y-110960380D01*
X337756857Y-110960380D01*
X337661619Y-110912761D01*
X337614000Y-110817523D01*
X337614000Y-110722285D01*
X337661619Y-110627047D01*
X337756857Y-110579428D01*
X337994952Y-110579428D01*
X338090190Y-110531809D01*
X338994952Y-110960380D02*
X338994952Y-109960380D01*
X338994952Y-110912761D02*
X338899714Y-110960380D01*
X338709238Y-110960380D01*
X338614000Y-110912761D01*
X338566380Y-110865142D01*
X338518761Y-110769904D01*
X338518761Y-110484190D01*
X338566380Y-110388952D01*
X338614000Y-110341333D01*
X338709238Y-110293714D01*
X338899714Y-110293714D01*
X338994952Y-110341333D01*
X339233047Y-111055619D02*
X339994952Y-111055619D01*
X340233047Y-110960380D02*
X340233047Y-109960380D01*
X340471142Y-109960380D01*
X340614000Y-110008000D01*
X340709238Y-110103238D01*
X340756857Y-110198476D01*
X340804476Y-110388952D01*
X340804476Y-110531809D01*
X340756857Y-110722285D01*
X340709238Y-110817523D01*
X340614000Y-110912761D01*
X340471142Y-110960380D01*
X340233047Y-110960380D01*
X341185428Y-110055619D02*
X341233047Y-110008000D01*
X341328285Y-109960380D01*
X341566380Y-109960380D01*
X341661619Y-110008000D01*
X341709238Y-110055619D01*
X341756857Y-110150857D01*
X341756857Y-110246095D01*
X341709238Y-110388952D01*
X341137809Y-110960380D01*
X341756857Y-110960380D01*
X342185428Y-110865142D02*
X342233047Y-110912761D01*
X342185428Y-110960380D01*
X342137809Y-110912761D01*
X342185428Y-110865142D01*
X342185428Y-110960380D01*
X342852095Y-109960380D02*
X342947333Y-109960380D01*
X343042571Y-110008000D01*
X343090190Y-110055619D01*
X343137809Y-110150857D01*
X343185428Y-110341333D01*
X343185428Y-110579428D01*
X343137809Y-110769904D01*
X343090190Y-110865142D01*
X343042571Y-110912761D01*
X342947333Y-110960380D01*
X342852095Y-110960380D01*
X342756857Y-110912761D01*
X342709238Y-110865142D01*
X342661619Y-110769904D01*
X342614000Y-110579428D01*
X342614000Y-110341333D01*
X342661619Y-110150857D01*
X342709238Y-110055619D01*
X342756857Y-110008000D01*
X342852095Y-109960380D01*
X343614000Y-110960380D02*
X343614000Y-110293714D01*
X343614000Y-110388952D02*
X343661619Y-110341333D01*
X343756857Y-110293714D01*
X343899714Y-110293714D01*
X343994952Y-110341333D01*
X344042571Y-110436571D01*
X344042571Y-110960380D01*
X344042571Y-110436571D02*
X344090190Y-110341333D01*
X344185428Y-110293714D01*
X344328285Y-110293714D01*
X344423523Y-110341333D01*
X344471142Y-110436571D01*
X344471142Y-110960380D01*
X344947333Y-110960380D02*
X344947333Y-110293714D01*
X344947333Y-110388952D02*
X344994952Y-110341333D01*
X345090190Y-110293714D01*
X345233047Y-110293714D01*
X345328285Y-110341333D01*
X345375904Y-110436571D01*
X345375904Y-110960380D01*
X345375904Y-110436571D02*
X345423523Y-110341333D01*
X345518761Y-110293714D01*
X345661619Y-110293714D01*
X345756857Y-110341333D01*
X345804476Y-110436571D01*
X345804476Y-110960380D01*
X346042571Y-111055619D02*
X346804476Y-111055619D01*
X347042571Y-110960380D02*
X347042571Y-109960380D01*
X347280666Y-109960380D01*
X347423523Y-110008000D01*
X347518761Y-110103238D01*
X347566380Y-110198476D01*
X347614000Y-110388952D01*
X347614000Y-110531809D01*
X347566380Y-110722285D01*
X347518761Y-110817523D01*
X347423523Y-110912761D01*
X347280666Y-110960380D01*
X347042571Y-110960380D01*
X348042571Y-110960380D02*
X348042571Y-110293714D01*
X348042571Y-110484190D02*
X348090190Y-110388952D01*
X348137809Y-110341333D01*
X348233047Y-110293714D01*
X348328285Y-110293714D01*
X348661619Y-110960380D02*
X348661619Y-110293714D01*
X348661619Y-109960380D02*
X348614000Y-110008000D01*
X348661619Y-110055619D01*
X348709238Y-110008000D01*
X348661619Y-109960380D01*
X348661619Y-110055619D01*
X349280666Y-110960380D02*
X349185428Y-110912761D01*
X349137809Y-110817523D01*
X349137809Y-109960380D01*
X349804476Y-110960380D02*
X349709238Y-110912761D01*
X349661619Y-110817523D01*
X349661619Y-109960380D01*
X350709238Y-110960380D02*
X350137809Y-110960380D01*
X350423523Y-110960380D02*
X350423523Y-109960380D01*
X350328285Y-110103238D01*
X350233047Y-110198476D01*
X350137809Y-110246095D01*
X351137809Y-110865142D02*
X351185428Y-110912761D01*
X351137809Y-110960380D01*
X351090190Y-110912761D01*
X351137809Y-110865142D01*
X351137809Y-110960380D01*
X351804476Y-109960380D02*
X351899714Y-109960380D01*
X351994952Y-110008000D01*
X352042571Y-110055619D01*
X352090190Y-110150857D01*
X352137809Y-110341333D01*
X352137809Y-110579428D01*
X352090190Y-110769904D01*
X352042571Y-110865142D01*
X351994952Y-110912761D01*
X351899714Y-110960380D01*
X351804476Y-110960380D01*
X351709238Y-110912761D01*
X351661619Y-110865142D01*
X351614000Y-110769904D01*
X351566380Y-110579428D01*
X351566380Y-110341333D01*
X351614000Y-110150857D01*
X351661619Y-110055619D01*
X351709238Y-110008000D01*
X351804476Y-109960380D01*
X352566380Y-110960380D02*
X352566380Y-110293714D01*
X352566380Y-110388952D02*
X352614000Y-110341333D01*
X352709238Y-110293714D01*
X352852095Y-110293714D01*
X352947333Y-110341333D01*
X352994952Y-110436571D01*
X352994952Y-110960380D01*
X352994952Y-110436571D02*
X353042571Y-110341333D01*
X353137809Y-110293714D01*
X353280666Y-110293714D01*
X353375904Y-110341333D01*
X353423523Y-110436571D01*
X353423523Y-110960380D01*
X353899714Y-110960380D02*
X353899714Y-110293714D01*
X353899714Y-110388952D02*
X353947333Y-110341333D01*
X354042571Y-110293714D01*
X354185428Y-110293714D01*
X354280666Y-110341333D01*
X354328285Y-110436571D01*
X354328285Y-110960380D01*
X354328285Y-110436571D02*
X354375904Y-110341333D01*
X354471142Y-110293714D01*
X354614000Y-110293714D01*
X354709238Y-110341333D01*
X354756857Y-110436571D01*
X354756857Y-110960380D01*
X339280666Y-106910380D02*
X338947333Y-106434190D01*
X338709238Y-106910380D02*
X338709238Y-105910380D01*
X339090190Y-105910380D01*
X339185428Y-105958000D01*
X339233047Y-106005619D01*
X339280666Y-106100857D01*
X339280666Y-106243714D01*
X339233047Y-106338952D01*
X339185428Y-106386571D01*
X339090190Y-106434190D01*
X338709238Y-106434190D01*
X339709238Y-106386571D02*
X340042571Y-106386571D01*
X340185428Y-106910380D02*
X339709238Y-106910380D01*
X339709238Y-105910380D01*
X340185428Y-105910380D01*
X340947333Y-106386571D02*
X340614000Y-106386571D01*
X340614000Y-106910380D02*
X340614000Y-105910380D01*
X341090190Y-105910380D01*
X341614000Y-105910380D02*
X341614000Y-106148476D01*
X341375904Y-106053238D02*
X341614000Y-106148476D01*
X341852095Y-106053238D01*
X341471142Y-106338952D02*
X341614000Y-106148476D01*
X341756857Y-106338952D01*
X342375904Y-105910380D02*
X342375904Y-106148476D01*
X342137809Y-106053238D02*
X342375904Y-106148476D01*
X342614000Y-106053238D01*
X342233047Y-106338952D02*
X342375904Y-106148476D01*
X342518761Y-106338952D01*
X326328285Y-97514380D02*
X326899714Y-97514380D01*
X326614000Y-98514380D02*
X326614000Y-97514380D01*
X327614000Y-98466761D02*
X327518761Y-98514380D01*
X327328285Y-98514380D01*
X327233047Y-98466761D01*
X327185428Y-98371523D01*
X327185428Y-97990571D01*
X327233047Y-97895333D01*
X327328285Y-97847714D01*
X327518761Y-97847714D01*
X327614000Y-97895333D01*
X327661619Y-97990571D01*
X327661619Y-98085809D01*
X327185428Y-98181047D01*
X328042571Y-98466761D02*
X328137809Y-98514380D01*
X328328285Y-98514380D01*
X328423523Y-98466761D01*
X328471142Y-98371523D01*
X328471142Y-98323904D01*
X328423523Y-98228666D01*
X328328285Y-98181047D01*
X328185428Y-98181047D01*
X328090190Y-98133428D01*
X328042571Y-98038190D01*
X328042571Y-97990571D01*
X328090190Y-97895333D01*
X328185428Y-97847714D01*
X328328285Y-97847714D01*
X328423523Y-97895333D01*
X328756857Y-97847714D02*
X329137809Y-97847714D01*
X328899714Y-97514380D02*
X328899714Y-98371523D01*
X328947333Y-98466761D01*
X329042571Y-98514380D01*
X329137809Y-98514380D01*
X329471142Y-98514380D02*
X329471142Y-97514380D01*
X329852095Y-97514380D01*
X329947333Y-97562000D01*
X329994952Y-97609619D01*
X330042571Y-97704857D01*
X330042571Y-97847714D01*
X329994952Y-97942952D01*
X329947333Y-97990571D01*
X329852095Y-98038190D01*
X329471142Y-98038190D01*
X330614000Y-98514380D02*
X330518761Y-98466761D01*
X330471142Y-98419142D01*
X330423523Y-98323904D01*
X330423523Y-98038190D01*
X330471142Y-97942952D01*
X330518761Y-97895333D01*
X330614000Y-97847714D01*
X330756857Y-97847714D01*
X330852095Y-97895333D01*
X330899714Y-97942952D01*
X330947333Y-98038190D01*
X330947333Y-98323904D01*
X330899714Y-98419142D01*
X330852095Y-98466761D01*
X330756857Y-98514380D01*
X330614000Y-98514380D01*
X331375904Y-98514380D02*
X331375904Y-97847714D01*
X331375904Y-97514380D02*
X331328285Y-97562000D01*
X331375904Y-97609619D01*
X331423523Y-97562000D01*
X331375904Y-97514380D01*
X331375904Y-97609619D01*
X331852095Y-97847714D02*
X331852095Y-98514380D01*
X331852095Y-97942952D02*
X331899714Y-97895333D01*
X331994952Y-97847714D01*
X332137809Y-97847714D01*
X332233047Y-97895333D01*
X332280666Y-97990571D01*
X332280666Y-98514380D01*
X332614000Y-97847714D02*
X332994952Y-97847714D01*
X332756857Y-97514380D02*
X332756857Y-98371523D01*
X332804476Y-98466761D01*
X332899714Y-98514380D01*
X332994952Y-98514380D01*
X333090190Y-98609619D02*
X333852095Y-98609619D01*
X333947333Y-97514380D02*
X334518761Y-97514380D01*
X334233047Y-98514380D02*
X334233047Y-97514380D01*
X334852095Y-98514380D02*
X334852095Y-97514380D01*
X334852095Y-97990571D02*
X335423523Y-97990571D01*
X335423523Y-98514380D02*
X335423523Y-97514380D01*
X335756857Y-97514380D02*
X336328285Y-97514380D01*
X336042571Y-98514380D02*
X336042571Y-97514380D01*
X336661619Y-98514380D02*
X336661619Y-97514380D01*
X337042571Y-97514380D01*
X337137809Y-97562000D01*
X337185428Y-97609619D01*
X337233047Y-97704857D01*
X337233047Y-97847714D01*
X337185428Y-97942952D01*
X337137809Y-97990571D01*
X337042571Y-98038190D01*
X336661619Y-98038190D01*
X338090190Y-98514380D02*
X338090190Y-97990571D01*
X338042571Y-97895333D01*
X337947333Y-97847714D01*
X337756857Y-97847714D01*
X337661619Y-97895333D01*
X338090190Y-98466761D02*
X337994952Y-98514380D01*
X337756857Y-98514380D01*
X337661619Y-98466761D01*
X337614000Y-98371523D01*
X337614000Y-98276285D01*
X337661619Y-98181047D01*
X337756857Y-98133428D01*
X337994952Y-98133428D01*
X338090190Y-98085809D01*
X338994952Y-98514380D02*
X338994952Y-97514380D01*
X338994952Y-98466761D02*
X338899714Y-98514380D01*
X338709238Y-98514380D01*
X338614000Y-98466761D01*
X338566380Y-98419142D01*
X338518761Y-98323904D01*
X338518761Y-98038190D01*
X338566380Y-97942952D01*
X338614000Y-97895333D01*
X338709238Y-97847714D01*
X338899714Y-97847714D01*
X338994952Y-97895333D01*
X339233047Y-98609619D02*
X339994952Y-98609619D01*
X340233047Y-98514380D02*
X340233047Y-97514380D01*
X340471142Y-97514380D01*
X340614000Y-97562000D01*
X340709238Y-97657238D01*
X340756857Y-97752476D01*
X340804476Y-97942952D01*
X340804476Y-98085809D01*
X340756857Y-98276285D01*
X340709238Y-98371523D01*
X340614000Y-98466761D01*
X340471142Y-98514380D01*
X340233047Y-98514380D01*
X341185428Y-97609619D02*
X341233047Y-97562000D01*
X341328285Y-97514380D01*
X341566380Y-97514380D01*
X341661619Y-97562000D01*
X341709238Y-97609619D01*
X341756857Y-97704857D01*
X341756857Y-97800095D01*
X341709238Y-97942952D01*
X341137809Y-98514380D01*
X341756857Y-98514380D01*
X342185428Y-98419142D02*
X342233047Y-98466761D01*
X342185428Y-98514380D01*
X342137809Y-98466761D01*
X342185428Y-98419142D01*
X342185428Y-98514380D01*
X342852095Y-97514380D02*
X342947333Y-97514380D01*
X343042571Y-97562000D01*
X343090190Y-97609619D01*
X343137809Y-97704857D01*
X343185428Y-97895333D01*
X343185428Y-98133428D01*
X343137809Y-98323904D01*
X343090190Y-98419142D01*
X343042571Y-98466761D01*
X342947333Y-98514380D01*
X342852095Y-98514380D01*
X342756857Y-98466761D01*
X342709238Y-98419142D01*
X342661619Y-98323904D01*
X342614000Y-98133428D01*
X342614000Y-97895333D01*
X342661619Y-97704857D01*
X342709238Y-97609619D01*
X342756857Y-97562000D01*
X342852095Y-97514380D01*
X343614000Y-98514380D02*
X343614000Y-97847714D01*
X343614000Y-97942952D02*
X343661619Y-97895333D01*
X343756857Y-97847714D01*
X343899714Y-97847714D01*
X343994952Y-97895333D01*
X344042571Y-97990571D01*
X344042571Y-98514380D01*
X344042571Y-97990571D02*
X344090190Y-97895333D01*
X344185428Y-97847714D01*
X344328285Y-97847714D01*
X344423523Y-97895333D01*
X344471142Y-97990571D01*
X344471142Y-98514380D01*
X344947333Y-98514380D02*
X344947333Y-97847714D01*
X344947333Y-97942952D02*
X344994952Y-97895333D01*
X345090190Y-97847714D01*
X345233047Y-97847714D01*
X345328285Y-97895333D01*
X345375904Y-97990571D01*
X345375904Y-98514380D01*
X345375904Y-97990571D02*
X345423523Y-97895333D01*
X345518761Y-97847714D01*
X345661619Y-97847714D01*
X345756857Y-97895333D01*
X345804476Y-97990571D01*
X345804476Y-98514380D01*
X346042571Y-98609619D02*
X346804476Y-98609619D01*
X347042571Y-98514380D02*
X347042571Y-97514380D01*
X347280666Y-97514380D01*
X347423523Y-97562000D01*
X347518761Y-97657238D01*
X347566380Y-97752476D01*
X347614000Y-97942952D01*
X347614000Y-98085809D01*
X347566380Y-98276285D01*
X347518761Y-98371523D01*
X347423523Y-98466761D01*
X347280666Y-98514380D01*
X347042571Y-98514380D01*
X348042571Y-98514380D02*
X348042571Y-97847714D01*
X348042571Y-98038190D02*
X348090190Y-97942952D01*
X348137809Y-97895333D01*
X348233047Y-97847714D01*
X348328285Y-97847714D01*
X348661619Y-98514380D02*
X348661619Y-97847714D01*
X348661619Y-97514380D02*
X348614000Y-97562000D01*
X348661619Y-97609619D01*
X348709238Y-97562000D01*
X348661619Y-97514380D01*
X348661619Y-97609619D01*
X349280666Y-98514380D02*
X349185428Y-98466761D01*
X349137809Y-98371523D01*
X349137809Y-97514380D01*
X349804476Y-98514380D02*
X349709238Y-98466761D01*
X349661619Y-98371523D01*
X349661619Y-97514380D01*
X350709238Y-98514380D02*
X350137809Y-98514380D01*
X350423523Y-98514380D02*
X350423523Y-97514380D01*
X350328285Y-97657238D01*
X350233047Y-97752476D01*
X350137809Y-97800095D01*
X351137809Y-98419142D02*
X351185428Y-98466761D01*
X351137809Y-98514380D01*
X351090190Y-98466761D01*
X351137809Y-98419142D01*
X351137809Y-98514380D01*
X351804476Y-97514380D02*
X351899714Y-97514380D01*
X351994952Y-97562000D01*
X352042571Y-97609619D01*
X352090190Y-97704857D01*
X352137809Y-97895333D01*
X352137809Y-98133428D01*
X352090190Y-98323904D01*
X352042571Y-98419142D01*
X351994952Y-98466761D01*
X351899714Y-98514380D01*
X351804476Y-98514380D01*
X351709238Y-98466761D01*
X351661619Y-98419142D01*
X351614000Y-98323904D01*
X351566380Y-98133428D01*
X351566380Y-97895333D01*
X351614000Y-97704857D01*
X351661619Y-97609619D01*
X351709238Y-97562000D01*
X351804476Y-97514380D01*
X352566380Y-98514380D02*
X352566380Y-97847714D01*
X352566380Y-97942952D02*
X352614000Y-97895333D01*
X352709238Y-97847714D01*
X352852095Y-97847714D01*
X352947333Y-97895333D01*
X352994952Y-97990571D01*
X352994952Y-98514380D01*
X352994952Y-97990571D02*
X353042571Y-97895333D01*
X353137809Y-97847714D01*
X353280666Y-97847714D01*
X353375904Y-97895333D01*
X353423523Y-97990571D01*
X353423523Y-98514380D01*
X353899714Y-98514380D02*
X353899714Y-97847714D01*
X353899714Y-97942952D02*
X353947333Y-97895333D01*
X354042571Y-97847714D01*
X354185428Y-97847714D01*
X354280666Y-97895333D01*
X354328285Y-97990571D01*
X354328285Y-98514380D01*
X354328285Y-97990571D02*
X354375904Y-97895333D01*
X354471142Y-97847714D01*
X354614000Y-97847714D01*
X354709238Y-97895333D01*
X354756857Y-97990571D01*
X354756857Y-98514380D01*
X339280666Y-94464380D02*
X338947333Y-93988190D01*
X338709238Y-94464380D02*
X338709238Y-93464380D01*
X339090190Y-93464380D01*
X339185428Y-93512000D01*
X339233047Y-93559619D01*
X339280666Y-93654857D01*
X339280666Y-93797714D01*
X339233047Y-93892952D01*
X339185428Y-93940571D01*
X339090190Y-93988190D01*
X338709238Y-93988190D01*
X339709238Y-93940571D02*
X340042571Y-93940571D01*
X340185428Y-94464380D02*
X339709238Y-94464380D01*
X339709238Y-93464380D01*
X340185428Y-93464380D01*
X340947333Y-93940571D02*
X340614000Y-93940571D01*
X340614000Y-94464380D02*
X340614000Y-93464380D01*
X341090190Y-93464380D01*
X341614000Y-93464380D02*
X341614000Y-93702476D01*
X341375904Y-93607238D02*
X341614000Y-93702476D01*
X341852095Y-93607238D01*
X341471142Y-93892952D02*
X341614000Y-93702476D01*
X341756857Y-93892952D01*
X342375904Y-93464380D02*
X342375904Y-93702476D01*
X342137809Y-93607238D02*
X342375904Y-93702476D01*
X342614000Y-93607238D01*
X342233047Y-93892952D02*
X342375904Y-93702476D01*
X342518761Y-93892952D01*
X78316666Y-178152380D02*
X78316666Y-177152380D01*
X78316666Y-177628571D02*
X78888095Y-177628571D01*
X78888095Y-178152380D02*
X78888095Y-177152380D01*
X79507142Y-178152380D02*
X79411904Y-178104761D01*
X79364285Y-178057142D01*
X79316666Y-177961904D01*
X79316666Y-177676190D01*
X79364285Y-177580952D01*
X79411904Y-177533333D01*
X79507142Y-177485714D01*
X79650000Y-177485714D01*
X79745238Y-177533333D01*
X79792857Y-177580952D01*
X79840476Y-177676190D01*
X79840476Y-177961904D01*
X79792857Y-178057142D01*
X79745238Y-178104761D01*
X79650000Y-178152380D01*
X79507142Y-178152380D01*
X80411904Y-178152380D02*
X80316666Y-178104761D01*
X80269047Y-178009523D01*
X80269047Y-177152380D01*
X81173809Y-178104761D02*
X81078571Y-178152380D01*
X80888095Y-178152380D01*
X80792857Y-178104761D01*
X80745238Y-178009523D01*
X80745238Y-177628571D01*
X80792857Y-177533333D01*
X80888095Y-177485714D01*
X81078571Y-177485714D01*
X81173809Y-177533333D01*
X81221428Y-177628571D01*
X81221428Y-177723809D01*
X80745238Y-177819047D01*
X81411904Y-178247619D02*
X82173809Y-178247619D01*
X82364285Y-177247619D02*
X82411904Y-177200000D01*
X82507142Y-177152380D01*
X82745238Y-177152380D01*
X82840476Y-177200000D01*
X82888095Y-177247619D01*
X82935714Y-177342857D01*
X82935714Y-177438095D01*
X82888095Y-177580952D01*
X82316666Y-178152380D01*
X82935714Y-178152380D01*
X83364285Y-178057142D02*
X83411904Y-178104761D01*
X83364285Y-178152380D01*
X83316666Y-178104761D01*
X83364285Y-178057142D01*
X83364285Y-178152380D01*
X84316666Y-177152380D02*
X83840476Y-177152380D01*
X83792857Y-177628571D01*
X83840476Y-177580952D01*
X83935714Y-177533333D01*
X84173809Y-177533333D01*
X84269047Y-177580952D01*
X84316666Y-177628571D01*
X84364285Y-177723809D01*
X84364285Y-177961904D01*
X84316666Y-178057142D01*
X84269047Y-178104761D01*
X84173809Y-178152380D01*
X83935714Y-178152380D01*
X83840476Y-178104761D01*
X83792857Y-178057142D01*
X84792857Y-178152380D02*
X84792857Y-177485714D01*
X84792857Y-177580952D02*
X84840476Y-177533333D01*
X84935714Y-177485714D01*
X85078571Y-177485714D01*
X85173809Y-177533333D01*
X85221428Y-177628571D01*
X85221428Y-178152380D01*
X85221428Y-177628571D02*
X85269047Y-177533333D01*
X85364285Y-177485714D01*
X85507142Y-177485714D01*
X85602380Y-177533333D01*
X85650000Y-177628571D01*
X85650000Y-178152380D01*
X86126190Y-178152380D02*
X86126190Y-177485714D01*
X86126190Y-177580952D02*
X86173809Y-177533333D01*
X86269047Y-177485714D01*
X86411904Y-177485714D01*
X86507142Y-177533333D01*
X86554761Y-177628571D01*
X86554761Y-178152380D01*
X86554761Y-177628571D02*
X86602380Y-177533333D01*
X86697619Y-177485714D01*
X86840476Y-177485714D01*
X86935714Y-177533333D01*
X86983333Y-177628571D01*
X86983333Y-178152380D01*
X513466666Y-127252380D02*
X513466666Y-126252380D01*
X513466666Y-126728571D02*
X514038095Y-126728571D01*
X514038095Y-127252380D02*
X514038095Y-126252380D01*
X514657142Y-127252380D02*
X514561904Y-127204761D01*
X514514285Y-127157142D01*
X514466666Y-127061904D01*
X514466666Y-126776190D01*
X514514285Y-126680952D01*
X514561904Y-126633333D01*
X514657142Y-126585714D01*
X514800000Y-126585714D01*
X514895238Y-126633333D01*
X514942857Y-126680952D01*
X514990476Y-126776190D01*
X514990476Y-127061904D01*
X514942857Y-127157142D01*
X514895238Y-127204761D01*
X514800000Y-127252380D01*
X514657142Y-127252380D01*
X515561904Y-127252380D02*
X515466666Y-127204761D01*
X515419047Y-127109523D01*
X515419047Y-126252380D01*
X516323809Y-127204761D02*
X516228571Y-127252380D01*
X516038095Y-127252380D01*
X515942857Y-127204761D01*
X515895238Y-127109523D01*
X515895238Y-126728571D01*
X515942857Y-126633333D01*
X516038095Y-126585714D01*
X516228571Y-126585714D01*
X516323809Y-126633333D01*
X516371428Y-126728571D01*
X516371428Y-126823809D01*
X515895238Y-126919047D01*
X516561904Y-127347619D02*
X517323809Y-127347619D01*
X517514285Y-126347619D02*
X517561904Y-126300000D01*
X517657142Y-126252380D01*
X517895238Y-126252380D01*
X517990476Y-126300000D01*
X518038095Y-126347619D01*
X518085714Y-126442857D01*
X518085714Y-126538095D01*
X518038095Y-126680952D01*
X517466666Y-127252380D01*
X518085714Y-127252380D01*
X518514285Y-127157142D02*
X518561904Y-127204761D01*
X518514285Y-127252380D01*
X518466666Y-127204761D01*
X518514285Y-127157142D01*
X518514285Y-127252380D01*
X519466666Y-126252380D02*
X518990476Y-126252380D01*
X518942857Y-126728571D01*
X518990476Y-126680952D01*
X519085714Y-126633333D01*
X519323809Y-126633333D01*
X519419047Y-126680952D01*
X519466666Y-126728571D01*
X519514285Y-126823809D01*
X519514285Y-127061904D01*
X519466666Y-127157142D01*
X519419047Y-127204761D01*
X519323809Y-127252380D01*
X519085714Y-127252380D01*
X518990476Y-127204761D01*
X518942857Y-127157142D01*
X519942857Y-127252380D02*
X519942857Y-126585714D01*
X519942857Y-126680952D02*
X519990476Y-126633333D01*
X520085714Y-126585714D01*
X520228571Y-126585714D01*
X520323809Y-126633333D01*
X520371428Y-126728571D01*
X520371428Y-127252380D01*
X520371428Y-126728571D02*
X520419047Y-126633333D01*
X520514285Y-126585714D01*
X520657142Y-126585714D01*
X520752380Y-126633333D01*
X520800000Y-126728571D01*
X520800000Y-127252380D01*
X521276190Y-127252380D02*
X521276190Y-126585714D01*
X521276190Y-126680952D02*
X521323809Y-126633333D01*
X521419047Y-126585714D01*
X521561904Y-126585714D01*
X521657142Y-126633333D01*
X521704761Y-126728571D01*
X521704761Y-127252380D01*
X521704761Y-126728571D02*
X521752380Y-126633333D01*
X521847619Y-126585714D01*
X521990476Y-126585714D01*
X522085714Y-126633333D01*
X522133333Y-126728571D01*
X522133333Y-127252380D01*
%TO.C,JP30*%
X121240380Y-102042361D02*
X121954666Y-102042361D01*
X122097523Y-102089980D01*
X122192761Y-102185219D01*
X122240380Y-102328076D01*
X122240380Y-102423314D01*
X121573714Y-101137600D02*
X122240380Y-101137600D01*
X121573714Y-101566171D02*
X122097523Y-101566171D01*
X122192761Y-101518552D01*
X122240380Y-101423314D01*
X122240380Y-101280457D01*
X122192761Y-101185219D01*
X122145142Y-101137600D01*
X122240380Y-100661409D02*
X121573714Y-100661409D01*
X121668952Y-100661409D02*
X121621333Y-100613790D01*
X121573714Y-100518552D01*
X121573714Y-100375695D01*
X121621333Y-100280457D01*
X121716571Y-100232838D01*
X122240380Y-100232838D01*
X121716571Y-100232838D02*
X121621333Y-100185219D01*
X121573714Y-100089980D01*
X121573714Y-99947123D01*
X121621333Y-99851885D01*
X121716571Y-99804266D01*
X122240380Y-99804266D01*
X121573714Y-99328076D02*
X122573714Y-99328076D01*
X121621333Y-99328076D02*
X121573714Y-99232838D01*
X121573714Y-99042361D01*
X121621333Y-98947123D01*
X121668952Y-98899504D01*
X121764190Y-98851885D01*
X122049904Y-98851885D01*
X122145142Y-98899504D01*
X122192761Y-98947123D01*
X122240380Y-99042361D01*
X122240380Y-99232838D01*
X122192761Y-99328076D01*
X122192761Y-98042361D02*
X122240380Y-98137600D01*
X122240380Y-98328076D01*
X122192761Y-98423314D01*
X122097523Y-98470933D01*
X121716571Y-98470933D01*
X121621333Y-98423314D01*
X121573714Y-98328076D01*
X121573714Y-98137600D01*
X121621333Y-98042361D01*
X121716571Y-97994742D01*
X121811809Y-97994742D01*
X121907047Y-98470933D01*
X122240380Y-97566171D02*
X121573714Y-97566171D01*
X121764190Y-97566171D02*
X121668952Y-97518552D01*
X121621333Y-97470933D01*
X121573714Y-97375695D01*
X121573714Y-97280457D01*
X121240380Y-95994742D02*
X121240380Y-95804266D01*
X121288000Y-95709028D01*
X121383238Y-95613790D01*
X121573714Y-95566171D01*
X121907047Y-95566171D01*
X122097523Y-95613790D01*
X122192761Y-95709028D01*
X122240380Y-95804266D01*
X122240380Y-95994742D01*
X122192761Y-96089980D01*
X122097523Y-96185219D01*
X121907047Y-96232838D01*
X121573714Y-96232838D01*
X121383238Y-96185219D01*
X121288000Y-96089980D01*
X121240380Y-95994742D01*
X121573714Y-95137600D02*
X122573714Y-95137600D01*
X121621333Y-95137600D02*
X121573714Y-95042361D01*
X121573714Y-94851885D01*
X121621333Y-94756647D01*
X121668952Y-94709028D01*
X121764190Y-94661409D01*
X122049904Y-94661409D01*
X122145142Y-94709028D01*
X122192761Y-94756647D01*
X122240380Y-94851885D01*
X122240380Y-95042361D01*
X122192761Y-95137600D01*
X122192761Y-93851885D02*
X122240380Y-93947123D01*
X122240380Y-94137600D01*
X122192761Y-94232838D01*
X122097523Y-94280457D01*
X121716571Y-94280457D01*
X121621333Y-94232838D01*
X121573714Y-94137600D01*
X121573714Y-93947123D01*
X121621333Y-93851885D01*
X121716571Y-93804266D01*
X121811809Y-93804266D01*
X121907047Y-94280457D01*
X121573714Y-93375695D02*
X122240380Y-93375695D01*
X121668952Y-93375695D02*
X121621333Y-93328076D01*
X121573714Y-93232838D01*
X121573714Y-93089980D01*
X121621333Y-92994742D01*
X121716571Y-92947123D01*
X122240380Y-92947123D01*
%TO.C,JP19*%
X363716838Y-121786380D02*
X363716838Y-122500666D01*
X363669219Y-122643523D01*
X363573980Y-122738761D01*
X363431123Y-122786380D01*
X363335885Y-122786380D01*
X364621600Y-122119714D02*
X364621600Y-122786380D01*
X364193028Y-122119714D02*
X364193028Y-122643523D01*
X364240647Y-122738761D01*
X364335885Y-122786380D01*
X364478742Y-122786380D01*
X364573980Y-122738761D01*
X364621600Y-122691142D01*
X365097790Y-122786380D02*
X365097790Y-122119714D01*
X365097790Y-122214952D02*
X365145409Y-122167333D01*
X365240647Y-122119714D01*
X365383504Y-122119714D01*
X365478742Y-122167333D01*
X365526361Y-122262571D01*
X365526361Y-122786380D01*
X365526361Y-122262571D02*
X365573980Y-122167333D01*
X365669219Y-122119714D01*
X365812076Y-122119714D01*
X365907314Y-122167333D01*
X365954933Y-122262571D01*
X365954933Y-122786380D01*
X366431123Y-122119714D02*
X366431123Y-123119714D01*
X366431123Y-122167333D02*
X366526361Y-122119714D01*
X366716838Y-122119714D01*
X366812076Y-122167333D01*
X366859695Y-122214952D01*
X366907314Y-122310190D01*
X366907314Y-122595904D01*
X366859695Y-122691142D01*
X366812076Y-122738761D01*
X366716838Y-122786380D01*
X366526361Y-122786380D01*
X366431123Y-122738761D01*
X367716838Y-122738761D02*
X367621600Y-122786380D01*
X367431123Y-122786380D01*
X367335885Y-122738761D01*
X367288266Y-122643523D01*
X367288266Y-122262571D01*
X367335885Y-122167333D01*
X367431123Y-122119714D01*
X367621600Y-122119714D01*
X367716838Y-122167333D01*
X367764457Y-122262571D01*
X367764457Y-122357809D01*
X367288266Y-122453047D01*
X368193028Y-122786380D02*
X368193028Y-122119714D01*
X368193028Y-122310190D02*
X368240647Y-122214952D01*
X368288266Y-122167333D01*
X368383504Y-122119714D01*
X368478742Y-122119714D01*
X369764457Y-121786380D02*
X369954933Y-121786380D01*
X370050171Y-121834000D01*
X370145409Y-121929238D01*
X370193028Y-122119714D01*
X370193028Y-122453047D01*
X370145409Y-122643523D01*
X370050171Y-122738761D01*
X369954933Y-122786380D01*
X369764457Y-122786380D01*
X369669219Y-122738761D01*
X369573980Y-122643523D01*
X369526361Y-122453047D01*
X369526361Y-122119714D01*
X369573980Y-121929238D01*
X369669219Y-121834000D01*
X369764457Y-121786380D01*
X370621600Y-122119714D02*
X370621600Y-123119714D01*
X370621600Y-122167333D02*
X370716838Y-122119714D01*
X370907314Y-122119714D01*
X371002552Y-122167333D01*
X371050171Y-122214952D01*
X371097790Y-122310190D01*
X371097790Y-122595904D01*
X371050171Y-122691142D01*
X371002552Y-122738761D01*
X370907314Y-122786380D01*
X370716838Y-122786380D01*
X370621600Y-122738761D01*
X371907314Y-122738761D02*
X371812076Y-122786380D01*
X371621600Y-122786380D01*
X371526361Y-122738761D01*
X371478742Y-122643523D01*
X371478742Y-122262571D01*
X371526361Y-122167333D01*
X371621600Y-122119714D01*
X371812076Y-122119714D01*
X371907314Y-122167333D01*
X371954933Y-122262571D01*
X371954933Y-122357809D01*
X371478742Y-122453047D01*
X372383504Y-122119714D02*
X372383504Y-122786380D01*
X372383504Y-122214952D02*
X372431123Y-122167333D01*
X372526361Y-122119714D01*
X372669219Y-122119714D01*
X372764457Y-122167333D01*
X372812076Y-122262571D01*
X372812076Y-122786380D01*
%TO.C,JP22*%
X440615647Y-105086380D02*
X440615647Y-105800666D01*
X440568028Y-105943523D01*
X440472790Y-106038761D01*
X440329933Y-106086380D01*
X440234695Y-106086380D01*
X441520409Y-105419714D02*
X441520409Y-106086380D01*
X441091838Y-105419714D02*
X441091838Y-105943523D01*
X441139457Y-106038761D01*
X441234695Y-106086380D01*
X441377552Y-106086380D01*
X441472790Y-106038761D01*
X441520409Y-105991142D01*
X441996600Y-106086380D02*
X441996600Y-105419714D01*
X441996600Y-105514952D02*
X442044219Y-105467333D01*
X442139457Y-105419714D01*
X442282314Y-105419714D01*
X442377552Y-105467333D01*
X442425171Y-105562571D01*
X442425171Y-106086380D01*
X442425171Y-105562571D02*
X442472790Y-105467333D01*
X442568028Y-105419714D01*
X442710885Y-105419714D01*
X442806123Y-105467333D01*
X442853742Y-105562571D01*
X442853742Y-106086380D01*
X443329933Y-105419714D02*
X443329933Y-106419714D01*
X443329933Y-105467333D02*
X443425171Y-105419714D01*
X443615647Y-105419714D01*
X443710885Y-105467333D01*
X443758504Y-105514952D01*
X443806123Y-105610190D01*
X443806123Y-105895904D01*
X443758504Y-105991142D01*
X443710885Y-106038761D01*
X443615647Y-106086380D01*
X443425171Y-106086380D01*
X443329933Y-106038761D01*
X444615647Y-106038761D02*
X444520409Y-106086380D01*
X444329933Y-106086380D01*
X444234695Y-106038761D01*
X444187076Y-105943523D01*
X444187076Y-105562571D01*
X444234695Y-105467333D01*
X444329933Y-105419714D01*
X444520409Y-105419714D01*
X444615647Y-105467333D01*
X444663266Y-105562571D01*
X444663266Y-105657809D01*
X444187076Y-105753047D01*
X445091838Y-106086380D02*
X445091838Y-105419714D01*
X445091838Y-105610190D02*
X445139457Y-105514952D01*
X445187076Y-105467333D01*
X445282314Y-105419714D01*
X445377552Y-105419714D01*
X446806123Y-105562571D02*
X446948980Y-105610190D01*
X446996600Y-105657809D01*
X447044219Y-105753047D01*
X447044219Y-105895904D01*
X446996600Y-105991142D01*
X446948980Y-106038761D01*
X446853742Y-106086380D01*
X446472790Y-106086380D01*
X446472790Y-105086380D01*
X446806123Y-105086380D01*
X446901361Y-105134000D01*
X446948980Y-105181619D01*
X446996600Y-105276857D01*
X446996600Y-105372095D01*
X446948980Y-105467333D01*
X446901361Y-105514952D01*
X446806123Y-105562571D01*
X446472790Y-105562571D01*
X447472790Y-106086380D02*
X447472790Y-105419714D01*
X447472790Y-105610190D02*
X447520409Y-105514952D01*
X447568028Y-105467333D01*
X447663266Y-105419714D01*
X447758504Y-105419714D01*
X448091838Y-106086380D02*
X448091838Y-105419714D01*
X448091838Y-105086380D02*
X448044219Y-105134000D01*
X448091838Y-105181619D01*
X448139457Y-105134000D01*
X448091838Y-105086380D01*
X448091838Y-105181619D01*
X448996600Y-106086380D02*
X448996600Y-105086380D01*
X448996600Y-106038761D02*
X448901361Y-106086380D01*
X448710885Y-106086380D01*
X448615647Y-106038761D01*
X448568028Y-105991142D01*
X448520409Y-105895904D01*
X448520409Y-105610190D01*
X448568028Y-105514952D01*
X448615647Y-105467333D01*
X448710885Y-105419714D01*
X448901361Y-105419714D01*
X448996600Y-105467333D01*
X449901361Y-105419714D02*
X449901361Y-106229238D01*
X449853742Y-106324476D01*
X449806123Y-106372095D01*
X449710885Y-106419714D01*
X449568028Y-106419714D01*
X449472790Y-106372095D01*
X449901361Y-106038761D02*
X449806123Y-106086380D01*
X449615647Y-106086380D01*
X449520409Y-106038761D01*
X449472790Y-105991142D01*
X449425171Y-105895904D01*
X449425171Y-105610190D01*
X449472790Y-105514952D01*
X449520409Y-105467333D01*
X449615647Y-105419714D01*
X449806123Y-105419714D01*
X449901361Y-105467333D01*
X450758504Y-106038761D02*
X450663266Y-106086380D01*
X450472790Y-106086380D01*
X450377552Y-106038761D01*
X450329933Y-105943523D01*
X450329933Y-105562571D01*
X450377552Y-105467333D01*
X450472790Y-105419714D01*
X450663266Y-105419714D01*
X450758504Y-105467333D01*
X450806123Y-105562571D01*
X450806123Y-105657809D01*
X450329933Y-105753047D01*
X451663266Y-106086380D02*
X451663266Y-105086380D01*
X451663266Y-106038761D02*
X451568028Y-106086380D01*
X451377552Y-106086380D01*
X451282314Y-106038761D01*
X451234695Y-105991142D01*
X451187076Y-105895904D01*
X451187076Y-105610190D01*
X451234695Y-105514952D01*
X451282314Y-105467333D01*
X451377552Y-105419714D01*
X451568028Y-105419714D01*
X451663266Y-105467333D01*
%TO.C,JP20*%
X440615647Y-112111380D02*
X440615647Y-112825666D01*
X440568028Y-112968523D01*
X440472790Y-113063761D01*
X440329933Y-113111380D01*
X440234695Y-113111380D01*
X441520409Y-112444714D02*
X441520409Y-113111380D01*
X441091838Y-112444714D02*
X441091838Y-112968523D01*
X441139457Y-113063761D01*
X441234695Y-113111380D01*
X441377552Y-113111380D01*
X441472790Y-113063761D01*
X441520409Y-113016142D01*
X441996600Y-113111380D02*
X441996600Y-112444714D01*
X441996600Y-112539952D02*
X442044219Y-112492333D01*
X442139457Y-112444714D01*
X442282314Y-112444714D01*
X442377552Y-112492333D01*
X442425171Y-112587571D01*
X442425171Y-113111380D01*
X442425171Y-112587571D02*
X442472790Y-112492333D01*
X442568028Y-112444714D01*
X442710885Y-112444714D01*
X442806123Y-112492333D01*
X442853742Y-112587571D01*
X442853742Y-113111380D01*
X443329933Y-112444714D02*
X443329933Y-113444714D01*
X443329933Y-112492333D02*
X443425171Y-112444714D01*
X443615647Y-112444714D01*
X443710885Y-112492333D01*
X443758504Y-112539952D01*
X443806123Y-112635190D01*
X443806123Y-112920904D01*
X443758504Y-113016142D01*
X443710885Y-113063761D01*
X443615647Y-113111380D01*
X443425171Y-113111380D01*
X443329933Y-113063761D01*
X444615647Y-113063761D02*
X444520409Y-113111380D01*
X444329933Y-113111380D01*
X444234695Y-113063761D01*
X444187076Y-112968523D01*
X444187076Y-112587571D01*
X444234695Y-112492333D01*
X444329933Y-112444714D01*
X444520409Y-112444714D01*
X444615647Y-112492333D01*
X444663266Y-112587571D01*
X444663266Y-112682809D01*
X444187076Y-112778047D01*
X445091838Y-113111380D02*
X445091838Y-112444714D01*
X445091838Y-112635190D02*
X445139457Y-112539952D01*
X445187076Y-112492333D01*
X445282314Y-112444714D01*
X445377552Y-112444714D01*
X446806123Y-112587571D02*
X446948980Y-112635190D01*
X446996600Y-112682809D01*
X447044219Y-112778047D01*
X447044219Y-112920904D01*
X446996600Y-113016142D01*
X446948980Y-113063761D01*
X446853742Y-113111380D01*
X446472790Y-113111380D01*
X446472790Y-112111380D01*
X446806123Y-112111380D01*
X446901361Y-112159000D01*
X446948980Y-112206619D01*
X446996600Y-112301857D01*
X446996600Y-112397095D01*
X446948980Y-112492333D01*
X446901361Y-112539952D01*
X446806123Y-112587571D01*
X446472790Y-112587571D01*
X447472790Y-113111380D02*
X447472790Y-112444714D01*
X447472790Y-112635190D02*
X447520409Y-112539952D01*
X447568028Y-112492333D01*
X447663266Y-112444714D01*
X447758504Y-112444714D01*
X448091838Y-113111380D02*
X448091838Y-112444714D01*
X448091838Y-112111380D02*
X448044219Y-112159000D01*
X448091838Y-112206619D01*
X448139457Y-112159000D01*
X448091838Y-112111380D01*
X448091838Y-112206619D01*
X448996600Y-113111380D02*
X448996600Y-112111380D01*
X448996600Y-113063761D02*
X448901361Y-113111380D01*
X448710885Y-113111380D01*
X448615647Y-113063761D01*
X448568028Y-113016142D01*
X448520409Y-112920904D01*
X448520409Y-112635190D01*
X448568028Y-112539952D01*
X448615647Y-112492333D01*
X448710885Y-112444714D01*
X448901361Y-112444714D01*
X448996600Y-112492333D01*
X449901361Y-112444714D02*
X449901361Y-113254238D01*
X449853742Y-113349476D01*
X449806123Y-113397095D01*
X449710885Y-113444714D01*
X449568028Y-113444714D01*
X449472790Y-113397095D01*
X449901361Y-113063761D02*
X449806123Y-113111380D01*
X449615647Y-113111380D01*
X449520409Y-113063761D01*
X449472790Y-113016142D01*
X449425171Y-112920904D01*
X449425171Y-112635190D01*
X449472790Y-112539952D01*
X449520409Y-112492333D01*
X449615647Y-112444714D01*
X449806123Y-112444714D01*
X449901361Y-112492333D01*
X450758504Y-113063761D02*
X450663266Y-113111380D01*
X450472790Y-113111380D01*
X450377552Y-113063761D01*
X450329933Y-112968523D01*
X450329933Y-112587571D01*
X450377552Y-112492333D01*
X450472790Y-112444714D01*
X450663266Y-112444714D01*
X450758504Y-112492333D01*
X450806123Y-112587571D01*
X450806123Y-112682809D01*
X450329933Y-112778047D01*
X451663266Y-113111380D02*
X451663266Y-112111380D01*
X451663266Y-113063761D02*
X451568028Y-113111380D01*
X451377552Y-113111380D01*
X451282314Y-113063761D01*
X451234695Y-113016142D01*
X451187076Y-112920904D01*
X451187076Y-112635190D01*
X451234695Y-112539952D01*
X451282314Y-112492333D01*
X451377552Y-112444714D01*
X451568028Y-112444714D01*
X451663266Y-112492333D01*
%TO.C,REF\u002A\u002A*%
X66466666Y-246052380D02*
X66466666Y-245052380D01*
X66466666Y-245528571D02*
X67038095Y-245528571D01*
X67038095Y-246052380D02*
X67038095Y-245052380D01*
X67657142Y-246052380D02*
X67561904Y-246004761D01*
X67514285Y-245957142D01*
X67466666Y-245861904D01*
X67466666Y-245576190D01*
X67514285Y-245480952D01*
X67561904Y-245433333D01*
X67657142Y-245385714D01*
X67800000Y-245385714D01*
X67895238Y-245433333D01*
X67942857Y-245480952D01*
X67990476Y-245576190D01*
X67990476Y-245861904D01*
X67942857Y-245957142D01*
X67895238Y-246004761D01*
X67800000Y-246052380D01*
X67657142Y-246052380D01*
X68561904Y-246052380D02*
X68466666Y-246004761D01*
X68419047Y-245909523D01*
X68419047Y-245052380D01*
X69323809Y-246004761D02*
X69228571Y-246052380D01*
X69038095Y-246052380D01*
X68942857Y-246004761D01*
X68895238Y-245909523D01*
X68895238Y-245528571D01*
X68942857Y-245433333D01*
X69038095Y-245385714D01*
X69228571Y-245385714D01*
X69323809Y-245433333D01*
X69371428Y-245528571D01*
X69371428Y-245623809D01*
X68895238Y-245719047D01*
X69561904Y-246147619D02*
X70323809Y-246147619D01*
X70514285Y-245147619D02*
X70561904Y-245100000D01*
X70657142Y-245052380D01*
X70895238Y-245052380D01*
X70990476Y-245100000D01*
X71038095Y-245147619D01*
X71085714Y-245242857D01*
X71085714Y-245338095D01*
X71038095Y-245480952D01*
X70466666Y-246052380D01*
X71085714Y-246052380D01*
X71514285Y-245957142D02*
X71561904Y-246004761D01*
X71514285Y-246052380D01*
X71466666Y-246004761D01*
X71514285Y-245957142D01*
X71514285Y-246052380D01*
X72466666Y-245052380D02*
X71990476Y-245052380D01*
X71942857Y-245528571D01*
X71990476Y-245480952D01*
X72085714Y-245433333D01*
X72323809Y-245433333D01*
X72419047Y-245480952D01*
X72466666Y-245528571D01*
X72514285Y-245623809D01*
X72514285Y-245861904D01*
X72466666Y-245957142D01*
X72419047Y-246004761D01*
X72323809Y-246052380D01*
X72085714Y-246052380D01*
X71990476Y-246004761D01*
X71942857Y-245957142D01*
X72942857Y-246052380D02*
X72942857Y-245385714D01*
X72942857Y-245480952D02*
X72990476Y-245433333D01*
X73085714Y-245385714D01*
X73228571Y-245385714D01*
X73323809Y-245433333D01*
X73371428Y-245528571D01*
X73371428Y-246052380D01*
X73371428Y-245528571D02*
X73419047Y-245433333D01*
X73514285Y-245385714D01*
X73657142Y-245385714D01*
X73752380Y-245433333D01*
X73800000Y-245528571D01*
X73800000Y-246052380D01*
X74276190Y-246052380D02*
X74276190Y-245385714D01*
X74276190Y-245480952D02*
X74323809Y-245433333D01*
X74419047Y-245385714D01*
X74561904Y-245385714D01*
X74657142Y-245433333D01*
X74704761Y-245528571D01*
X74704761Y-246052380D01*
X74704761Y-245528571D02*
X74752380Y-245433333D01*
X74847619Y-245385714D01*
X74990476Y-245385714D01*
X75085714Y-245433333D01*
X75133333Y-245528571D01*
X75133333Y-246052380D01*
%TO.C,JP26*%
X83394380Y-99539361D02*
X84108666Y-99539361D01*
X84251523Y-99586980D01*
X84346761Y-99682219D01*
X84394380Y-99825076D01*
X84394380Y-99920314D01*
X83727714Y-98634600D02*
X84394380Y-98634600D01*
X83727714Y-99063171D02*
X84251523Y-99063171D01*
X84346761Y-99015552D01*
X84394380Y-98920314D01*
X84394380Y-98777457D01*
X84346761Y-98682219D01*
X84299142Y-98634600D01*
X84394380Y-98158409D02*
X83727714Y-98158409D01*
X83822952Y-98158409D02*
X83775333Y-98110790D01*
X83727714Y-98015552D01*
X83727714Y-97872695D01*
X83775333Y-97777457D01*
X83870571Y-97729838D01*
X84394380Y-97729838D01*
X83870571Y-97729838D02*
X83775333Y-97682219D01*
X83727714Y-97586980D01*
X83727714Y-97444123D01*
X83775333Y-97348885D01*
X83870571Y-97301266D01*
X84394380Y-97301266D01*
X83727714Y-96825076D02*
X84727714Y-96825076D01*
X83775333Y-96825076D02*
X83727714Y-96729838D01*
X83727714Y-96539361D01*
X83775333Y-96444123D01*
X83822952Y-96396504D01*
X83918190Y-96348885D01*
X84203904Y-96348885D01*
X84299142Y-96396504D01*
X84346761Y-96444123D01*
X84394380Y-96539361D01*
X84394380Y-96729838D01*
X84346761Y-96825076D01*
X84346761Y-95539361D02*
X84394380Y-95634600D01*
X84394380Y-95825076D01*
X84346761Y-95920314D01*
X84251523Y-95967933D01*
X83870571Y-95967933D01*
X83775333Y-95920314D01*
X83727714Y-95825076D01*
X83727714Y-95634600D01*
X83775333Y-95539361D01*
X83870571Y-95491742D01*
X83965809Y-95491742D01*
X84061047Y-95967933D01*
X84394380Y-95063171D02*
X83727714Y-95063171D01*
X83918190Y-95063171D02*
X83822952Y-95015552D01*
X83775333Y-94967933D01*
X83727714Y-94872695D01*
X83727714Y-94777457D01*
X83394380Y-93491742D02*
X83394380Y-93301266D01*
X83442000Y-93206028D01*
X83537238Y-93110790D01*
X83727714Y-93063171D01*
X84061047Y-93063171D01*
X84251523Y-93110790D01*
X84346761Y-93206028D01*
X84394380Y-93301266D01*
X84394380Y-93491742D01*
X84346761Y-93586980D01*
X84251523Y-93682219D01*
X84061047Y-93729838D01*
X83727714Y-93729838D01*
X83537238Y-93682219D01*
X83442000Y-93586980D01*
X83394380Y-93491742D01*
X83727714Y-92634600D02*
X84727714Y-92634600D01*
X83775333Y-92634600D02*
X83727714Y-92539361D01*
X83727714Y-92348885D01*
X83775333Y-92253647D01*
X83822952Y-92206028D01*
X83918190Y-92158409D01*
X84203904Y-92158409D01*
X84299142Y-92206028D01*
X84346761Y-92253647D01*
X84394380Y-92348885D01*
X84394380Y-92539361D01*
X84346761Y-92634600D01*
X84346761Y-91348885D02*
X84394380Y-91444123D01*
X84394380Y-91634600D01*
X84346761Y-91729838D01*
X84251523Y-91777457D01*
X83870571Y-91777457D01*
X83775333Y-91729838D01*
X83727714Y-91634600D01*
X83727714Y-91444123D01*
X83775333Y-91348885D01*
X83870571Y-91301266D01*
X83965809Y-91301266D01*
X84061047Y-91777457D01*
X83727714Y-90872695D02*
X84394380Y-90872695D01*
X83822952Y-90872695D02*
X83775333Y-90825076D01*
X83727714Y-90729838D01*
X83727714Y-90586980D01*
X83775333Y-90491742D01*
X83870571Y-90444123D01*
X84394380Y-90444123D01*
%TO.C,REF\u002A\u002A*%
X151566666Y-247852380D02*
X151566666Y-246852380D01*
X151566666Y-247328571D02*
X152138095Y-247328571D01*
X152138095Y-247852380D02*
X152138095Y-246852380D01*
X152757142Y-247852380D02*
X152661904Y-247804761D01*
X152614285Y-247757142D01*
X152566666Y-247661904D01*
X152566666Y-247376190D01*
X152614285Y-247280952D01*
X152661904Y-247233333D01*
X152757142Y-247185714D01*
X152900000Y-247185714D01*
X152995238Y-247233333D01*
X153042857Y-247280952D01*
X153090476Y-247376190D01*
X153090476Y-247661904D01*
X153042857Y-247757142D01*
X152995238Y-247804761D01*
X152900000Y-247852380D01*
X152757142Y-247852380D01*
X153661904Y-247852380D02*
X153566666Y-247804761D01*
X153519047Y-247709523D01*
X153519047Y-246852380D01*
X154423809Y-247804761D02*
X154328571Y-247852380D01*
X154138095Y-247852380D01*
X154042857Y-247804761D01*
X153995238Y-247709523D01*
X153995238Y-247328571D01*
X154042857Y-247233333D01*
X154138095Y-247185714D01*
X154328571Y-247185714D01*
X154423809Y-247233333D01*
X154471428Y-247328571D01*
X154471428Y-247423809D01*
X153995238Y-247519047D01*
X154661904Y-247947619D02*
X155423809Y-247947619D01*
X155614285Y-246947619D02*
X155661904Y-246900000D01*
X155757142Y-246852380D01*
X155995238Y-246852380D01*
X156090476Y-246900000D01*
X156138095Y-246947619D01*
X156185714Y-247042857D01*
X156185714Y-247138095D01*
X156138095Y-247280952D01*
X155566666Y-247852380D01*
X156185714Y-247852380D01*
X156614285Y-247757142D02*
X156661904Y-247804761D01*
X156614285Y-247852380D01*
X156566666Y-247804761D01*
X156614285Y-247757142D01*
X156614285Y-247852380D01*
X157566666Y-246852380D02*
X157090476Y-246852380D01*
X157042857Y-247328571D01*
X157090476Y-247280952D01*
X157185714Y-247233333D01*
X157423809Y-247233333D01*
X157519047Y-247280952D01*
X157566666Y-247328571D01*
X157614285Y-247423809D01*
X157614285Y-247661904D01*
X157566666Y-247757142D01*
X157519047Y-247804761D01*
X157423809Y-247852380D01*
X157185714Y-247852380D01*
X157090476Y-247804761D01*
X157042857Y-247757142D01*
X158042857Y-247852380D02*
X158042857Y-247185714D01*
X158042857Y-247280952D02*
X158090476Y-247233333D01*
X158185714Y-247185714D01*
X158328571Y-247185714D01*
X158423809Y-247233333D01*
X158471428Y-247328571D01*
X158471428Y-247852380D01*
X158471428Y-247328571D02*
X158519047Y-247233333D01*
X158614285Y-247185714D01*
X158757142Y-247185714D01*
X158852380Y-247233333D01*
X158900000Y-247328571D01*
X158900000Y-247852380D01*
X159376190Y-247852380D02*
X159376190Y-247185714D01*
X159376190Y-247280952D02*
X159423809Y-247233333D01*
X159519047Y-247185714D01*
X159661904Y-247185714D01*
X159757142Y-247233333D01*
X159804761Y-247328571D01*
X159804761Y-247852380D01*
X159804761Y-247328571D02*
X159852380Y-247233333D01*
X159947619Y-247185714D01*
X160090476Y-247185714D01*
X160185714Y-247233333D01*
X160233333Y-247328571D01*
X160233333Y-247852380D01*
X421366666Y-139602380D02*
X421366666Y-138602380D01*
X421366666Y-139078571D02*
X421938095Y-139078571D01*
X421938095Y-139602380D02*
X421938095Y-138602380D01*
X422557142Y-139602380D02*
X422461904Y-139554761D01*
X422414285Y-139507142D01*
X422366666Y-139411904D01*
X422366666Y-139126190D01*
X422414285Y-139030952D01*
X422461904Y-138983333D01*
X422557142Y-138935714D01*
X422700000Y-138935714D01*
X422795238Y-138983333D01*
X422842857Y-139030952D01*
X422890476Y-139126190D01*
X422890476Y-139411904D01*
X422842857Y-139507142D01*
X422795238Y-139554761D01*
X422700000Y-139602380D01*
X422557142Y-139602380D01*
X423461904Y-139602380D02*
X423366666Y-139554761D01*
X423319047Y-139459523D01*
X423319047Y-138602380D01*
X424223809Y-139554761D02*
X424128571Y-139602380D01*
X423938095Y-139602380D01*
X423842857Y-139554761D01*
X423795238Y-139459523D01*
X423795238Y-139078571D01*
X423842857Y-138983333D01*
X423938095Y-138935714D01*
X424128571Y-138935714D01*
X424223809Y-138983333D01*
X424271428Y-139078571D01*
X424271428Y-139173809D01*
X423795238Y-139269047D01*
X424461904Y-139697619D02*
X425223809Y-139697619D01*
X425414285Y-138697619D02*
X425461904Y-138650000D01*
X425557142Y-138602380D01*
X425795238Y-138602380D01*
X425890476Y-138650000D01*
X425938095Y-138697619D01*
X425985714Y-138792857D01*
X425985714Y-138888095D01*
X425938095Y-139030952D01*
X425366666Y-139602380D01*
X425985714Y-139602380D01*
X426414285Y-139507142D02*
X426461904Y-139554761D01*
X426414285Y-139602380D01*
X426366666Y-139554761D01*
X426414285Y-139507142D01*
X426414285Y-139602380D01*
X427366666Y-138602380D02*
X426890476Y-138602380D01*
X426842857Y-139078571D01*
X426890476Y-139030952D01*
X426985714Y-138983333D01*
X427223809Y-138983333D01*
X427319047Y-139030952D01*
X427366666Y-139078571D01*
X427414285Y-139173809D01*
X427414285Y-139411904D01*
X427366666Y-139507142D01*
X427319047Y-139554761D01*
X427223809Y-139602380D01*
X426985714Y-139602380D01*
X426890476Y-139554761D01*
X426842857Y-139507142D01*
X427842857Y-139602380D02*
X427842857Y-138935714D01*
X427842857Y-139030952D02*
X427890476Y-138983333D01*
X427985714Y-138935714D01*
X428128571Y-138935714D01*
X428223809Y-138983333D01*
X428271428Y-139078571D01*
X428271428Y-139602380D01*
X428271428Y-139078571D02*
X428319047Y-138983333D01*
X428414285Y-138935714D01*
X428557142Y-138935714D01*
X428652380Y-138983333D01*
X428700000Y-139078571D01*
X428700000Y-139602380D01*
X429176190Y-139602380D02*
X429176190Y-138935714D01*
X429176190Y-139030952D02*
X429223809Y-138983333D01*
X429319047Y-138935714D01*
X429461904Y-138935714D01*
X429557142Y-138983333D01*
X429604761Y-139078571D01*
X429604761Y-139602380D01*
X429604761Y-139078571D02*
X429652380Y-138983333D01*
X429747619Y-138935714D01*
X429890476Y-138935714D01*
X429985714Y-138983333D01*
X430033333Y-139078571D01*
X430033333Y-139602380D01*
X304166666Y-247852380D02*
X304166666Y-246852380D01*
X304166666Y-247328571D02*
X304738095Y-247328571D01*
X304738095Y-247852380D02*
X304738095Y-246852380D01*
X305357142Y-247852380D02*
X305261904Y-247804761D01*
X305214285Y-247757142D01*
X305166666Y-247661904D01*
X305166666Y-247376190D01*
X305214285Y-247280952D01*
X305261904Y-247233333D01*
X305357142Y-247185714D01*
X305500000Y-247185714D01*
X305595238Y-247233333D01*
X305642857Y-247280952D01*
X305690476Y-247376190D01*
X305690476Y-247661904D01*
X305642857Y-247757142D01*
X305595238Y-247804761D01*
X305500000Y-247852380D01*
X305357142Y-247852380D01*
X306261904Y-247852380D02*
X306166666Y-247804761D01*
X306119047Y-247709523D01*
X306119047Y-246852380D01*
X307023809Y-247804761D02*
X306928571Y-247852380D01*
X306738095Y-247852380D01*
X306642857Y-247804761D01*
X306595238Y-247709523D01*
X306595238Y-247328571D01*
X306642857Y-247233333D01*
X306738095Y-247185714D01*
X306928571Y-247185714D01*
X307023809Y-247233333D01*
X307071428Y-247328571D01*
X307071428Y-247423809D01*
X306595238Y-247519047D01*
X307261904Y-247947619D02*
X308023809Y-247947619D01*
X308214285Y-246947619D02*
X308261904Y-246900000D01*
X308357142Y-246852380D01*
X308595238Y-246852380D01*
X308690476Y-246900000D01*
X308738095Y-246947619D01*
X308785714Y-247042857D01*
X308785714Y-247138095D01*
X308738095Y-247280952D01*
X308166666Y-247852380D01*
X308785714Y-247852380D01*
X309214285Y-247757142D02*
X309261904Y-247804761D01*
X309214285Y-247852380D01*
X309166666Y-247804761D01*
X309214285Y-247757142D01*
X309214285Y-247852380D01*
X310166666Y-246852380D02*
X309690476Y-246852380D01*
X309642857Y-247328571D01*
X309690476Y-247280952D01*
X309785714Y-247233333D01*
X310023809Y-247233333D01*
X310119047Y-247280952D01*
X310166666Y-247328571D01*
X310214285Y-247423809D01*
X310214285Y-247661904D01*
X310166666Y-247757142D01*
X310119047Y-247804761D01*
X310023809Y-247852380D01*
X309785714Y-247852380D01*
X309690476Y-247804761D01*
X309642857Y-247757142D01*
X310642857Y-247852380D02*
X310642857Y-247185714D01*
X310642857Y-247280952D02*
X310690476Y-247233333D01*
X310785714Y-247185714D01*
X310928571Y-247185714D01*
X311023809Y-247233333D01*
X311071428Y-247328571D01*
X311071428Y-247852380D01*
X311071428Y-247328571D02*
X311119047Y-247233333D01*
X311214285Y-247185714D01*
X311357142Y-247185714D01*
X311452380Y-247233333D01*
X311500000Y-247328571D01*
X311500000Y-247852380D01*
X311976190Y-247852380D02*
X311976190Y-247185714D01*
X311976190Y-247280952D02*
X312023809Y-247233333D01*
X312119047Y-247185714D01*
X312261904Y-247185714D01*
X312357142Y-247233333D01*
X312404761Y-247328571D01*
X312404761Y-247852380D01*
X312404761Y-247328571D02*
X312452380Y-247233333D01*
X312547619Y-247185714D01*
X312690476Y-247185714D01*
X312785714Y-247233333D01*
X312833333Y-247328571D01*
X312833333Y-247852380D01*
X513766666Y-247352380D02*
X513766666Y-246352380D01*
X513766666Y-246828571D02*
X514338095Y-246828571D01*
X514338095Y-247352380D02*
X514338095Y-246352380D01*
X514957142Y-247352380D02*
X514861904Y-247304761D01*
X514814285Y-247257142D01*
X514766666Y-247161904D01*
X514766666Y-246876190D01*
X514814285Y-246780952D01*
X514861904Y-246733333D01*
X514957142Y-246685714D01*
X515100000Y-246685714D01*
X515195238Y-246733333D01*
X515242857Y-246780952D01*
X515290476Y-246876190D01*
X515290476Y-247161904D01*
X515242857Y-247257142D01*
X515195238Y-247304761D01*
X515100000Y-247352380D01*
X514957142Y-247352380D01*
X515861904Y-247352380D02*
X515766666Y-247304761D01*
X515719047Y-247209523D01*
X515719047Y-246352380D01*
X516623809Y-247304761D02*
X516528571Y-247352380D01*
X516338095Y-247352380D01*
X516242857Y-247304761D01*
X516195238Y-247209523D01*
X516195238Y-246828571D01*
X516242857Y-246733333D01*
X516338095Y-246685714D01*
X516528571Y-246685714D01*
X516623809Y-246733333D01*
X516671428Y-246828571D01*
X516671428Y-246923809D01*
X516195238Y-247019047D01*
X516861904Y-247447619D02*
X517623809Y-247447619D01*
X517814285Y-246447619D02*
X517861904Y-246400000D01*
X517957142Y-246352380D01*
X518195238Y-246352380D01*
X518290476Y-246400000D01*
X518338095Y-246447619D01*
X518385714Y-246542857D01*
X518385714Y-246638095D01*
X518338095Y-246780952D01*
X517766666Y-247352380D01*
X518385714Y-247352380D01*
X518814285Y-247257142D02*
X518861904Y-247304761D01*
X518814285Y-247352380D01*
X518766666Y-247304761D01*
X518814285Y-247257142D01*
X518814285Y-247352380D01*
X519766666Y-246352380D02*
X519290476Y-246352380D01*
X519242857Y-246828571D01*
X519290476Y-246780952D01*
X519385714Y-246733333D01*
X519623809Y-246733333D01*
X519719047Y-246780952D01*
X519766666Y-246828571D01*
X519814285Y-246923809D01*
X519814285Y-247161904D01*
X519766666Y-247257142D01*
X519719047Y-247304761D01*
X519623809Y-247352380D01*
X519385714Y-247352380D01*
X519290476Y-247304761D01*
X519242857Y-247257142D01*
X520242857Y-247352380D02*
X520242857Y-246685714D01*
X520242857Y-246780952D02*
X520290476Y-246733333D01*
X520385714Y-246685714D01*
X520528571Y-246685714D01*
X520623809Y-246733333D01*
X520671428Y-246828571D01*
X520671428Y-247352380D01*
X520671428Y-246828571D02*
X520719047Y-246733333D01*
X520814285Y-246685714D01*
X520957142Y-246685714D01*
X521052380Y-246733333D01*
X521100000Y-246828571D01*
X521100000Y-247352380D01*
X521576190Y-247352380D02*
X521576190Y-246685714D01*
X521576190Y-246780952D02*
X521623809Y-246733333D01*
X521719047Y-246685714D01*
X521861904Y-246685714D01*
X521957142Y-246733333D01*
X522004761Y-246828571D01*
X522004761Y-247352380D01*
X522004761Y-246828571D02*
X522052380Y-246733333D01*
X522147619Y-246685714D01*
X522290476Y-246685714D01*
X522385714Y-246733333D01*
X522433333Y-246828571D01*
X522433333Y-247352380D01*
X521716666Y-246052380D02*
X521716666Y-245052380D01*
X521716666Y-245528571D02*
X522288095Y-245528571D01*
X522288095Y-246052380D02*
X522288095Y-245052380D01*
X522907142Y-246052380D02*
X522811904Y-246004761D01*
X522764285Y-245957142D01*
X522716666Y-245861904D01*
X522716666Y-245576190D01*
X522764285Y-245480952D01*
X522811904Y-245433333D01*
X522907142Y-245385714D01*
X523050000Y-245385714D01*
X523145238Y-245433333D01*
X523192857Y-245480952D01*
X523240476Y-245576190D01*
X523240476Y-245861904D01*
X523192857Y-245957142D01*
X523145238Y-246004761D01*
X523050000Y-246052380D01*
X522907142Y-246052380D01*
X523811904Y-246052380D02*
X523716666Y-246004761D01*
X523669047Y-245909523D01*
X523669047Y-245052380D01*
X524573809Y-246004761D02*
X524478571Y-246052380D01*
X524288095Y-246052380D01*
X524192857Y-246004761D01*
X524145238Y-245909523D01*
X524145238Y-245528571D01*
X524192857Y-245433333D01*
X524288095Y-245385714D01*
X524478571Y-245385714D01*
X524573809Y-245433333D01*
X524621428Y-245528571D01*
X524621428Y-245623809D01*
X524145238Y-245719047D01*
X524811904Y-246147619D02*
X525573809Y-246147619D01*
X525764285Y-245147619D02*
X525811904Y-245100000D01*
X525907142Y-245052380D01*
X526145238Y-245052380D01*
X526240476Y-245100000D01*
X526288095Y-245147619D01*
X526335714Y-245242857D01*
X526335714Y-245338095D01*
X526288095Y-245480952D01*
X525716666Y-246052380D01*
X526335714Y-246052380D01*
X526764285Y-245957142D02*
X526811904Y-246004761D01*
X526764285Y-246052380D01*
X526716666Y-246004761D01*
X526764285Y-245957142D01*
X526764285Y-246052380D01*
X527716666Y-245052380D02*
X527240476Y-245052380D01*
X527192857Y-245528571D01*
X527240476Y-245480952D01*
X527335714Y-245433333D01*
X527573809Y-245433333D01*
X527669047Y-245480952D01*
X527716666Y-245528571D01*
X527764285Y-245623809D01*
X527764285Y-245861904D01*
X527716666Y-245957142D01*
X527669047Y-246004761D01*
X527573809Y-246052380D01*
X527335714Y-246052380D01*
X527240476Y-246004761D01*
X527192857Y-245957142D01*
X528192857Y-246052380D02*
X528192857Y-245385714D01*
X528192857Y-245480952D02*
X528240476Y-245433333D01*
X528335714Y-245385714D01*
X528478571Y-245385714D01*
X528573809Y-245433333D01*
X528621428Y-245528571D01*
X528621428Y-246052380D01*
X528621428Y-245528571D02*
X528669047Y-245433333D01*
X528764285Y-245385714D01*
X528907142Y-245385714D01*
X529002380Y-245433333D01*
X529050000Y-245528571D01*
X529050000Y-246052380D01*
X529526190Y-246052380D02*
X529526190Y-245385714D01*
X529526190Y-245480952D02*
X529573809Y-245433333D01*
X529669047Y-245385714D01*
X529811904Y-245385714D01*
X529907142Y-245433333D01*
X529954761Y-245528571D01*
X529954761Y-246052380D01*
X529954761Y-245528571D02*
X530002380Y-245433333D01*
X530097619Y-245385714D01*
X530240476Y-245385714D01*
X530335714Y-245433333D01*
X530383333Y-245528571D01*
X530383333Y-246052380D01*
X397916666Y-197202380D02*
X397916666Y-196202380D01*
X397916666Y-196678571D02*
X398488095Y-196678571D01*
X398488095Y-197202380D02*
X398488095Y-196202380D01*
X399107142Y-197202380D02*
X399011904Y-197154761D01*
X398964285Y-197107142D01*
X398916666Y-197011904D01*
X398916666Y-196726190D01*
X398964285Y-196630952D01*
X399011904Y-196583333D01*
X399107142Y-196535714D01*
X399250000Y-196535714D01*
X399345238Y-196583333D01*
X399392857Y-196630952D01*
X399440476Y-196726190D01*
X399440476Y-197011904D01*
X399392857Y-197107142D01*
X399345238Y-197154761D01*
X399250000Y-197202380D01*
X399107142Y-197202380D01*
X400011904Y-197202380D02*
X399916666Y-197154761D01*
X399869047Y-197059523D01*
X399869047Y-196202380D01*
X400773809Y-197154761D02*
X400678571Y-197202380D01*
X400488095Y-197202380D01*
X400392857Y-197154761D01*
X400345238Y-197059523D01*
X400345238Y-196678571D01*
X400392857Y-196583333D01*
X400488095Y-196535714D01*
X400678571Y-196535714D01*
X400773809Y-196583333D01*
X400821428Y-196678571D01*
X400821428Y-196773809D01*
X400345238Y-196869047D01*
X401011904Y-197297619D02*
X401773809Y-197297619D01*
X401964285Y-196297619D02*
X402011904Y-196250000D01*
X402107142Y-196202380D01*
X402345238Y-196202380D01*
X402440476Y-196250000D01*
X402488095Y-196297619D01*
X402535714Y-196392857D01*
X402535714Y-196488095D01*
X402488095Y-196630952D01*
X401916666Y-197202380D01*
X402535714Y-197202380D01*
X402964285Y-197107142D02*
X403011904Y-197154761D01*
X402964285Y-197202380D01*
X402916666Y-197154761D01*
X402964285Y-197107142D01*
X402964285Y-197202380D01*
X403916666Y-196202380D02*
X403440476Y-196202380D01*
X403392857Y-196678571D01*
X403440476Y-196630952D01*
X403535714Y-196583333D01*
X403773809Y-196583333D01*
X403869047Y-196630952D01*
X403916666Y-196678571D01*
X403964285Y-196773809D01*
X403964285Y-197011904D01*
X403916666Y-197107142D01*
X403869047Y-197154761D01*
X403773809Y-197202380D01*
X403535714Y-197202380D01*
X403440476Y-197154761D01*
X403392857Y-197107142D01*
X404392857Y-197202380D02*
X404392857Y-196535714D01*
X404392857Y-196630952D02*
X404440476Y-196583333D01*
X404535714Y-196535714D01*
X404678571Y-196535714D01*
X404773809Y-196583333D01*
X404821428Y-196678571D01*
X404821428Y-197202380D01*
X404821428Y-196678571D02*
X404869047Y-196583333D01*
X404964285Y-196535714D01*
X405107142Y-196535714D01*
X405202380Y-196583333D01*
X405250000Y-196678571D01*
X405250000Y-197202380D01*
X405726190Y-197202380D02*
X405726190Y-196535714D01*
X405726190Y-196630952D02*
X405773809Y-196583333D01*
X405869047Y-196535714D01*
X406011904Y-196535714D01*
X406107142Y-196583333D01*
X406154761Y-196678571D01*
X406154761Y-197202380D01*
X406154761Y-196678571D02*
X406202380Y-196583333D01*
X406297619Y-196535714D01*
X406440476Y-196535714D01*
X406535714Y-196583333D01*
X406583333Y-196678571D01*
X406583333Y-197202380D01*
%TO.C,J3_1*%
X316192523Y-97115380D02*
X316192523Y-97829666D01*
X316144904Y-97972523D01*
X316049666Y-98067761D01*
X315906809Y-98115380D01*
X315811571Y-98115380D01*
X316573476Y-97115380D02*
X317192523Y-97115380D01*
X316859190Y-97496333D01*
X317002047Y-97496333D01*
X317097285Y-97543952D01*
X317144904Y-97591571D01*
X317192523Y-97686809D01*
X317192523Y-97924904D01*
X317144904Y-98020142D01*
X317097285Y-98067761D01*
X317002047Y-98115380D01*
X316716333Y-98115380D01*
X316621095Y-98067761D01*
X316573476Y-98020142D01*
X317383000Y-98210619D02*
X318144904Y-98210619D01*
X318906809Y-98115380D02*
X318335380Y-98115380D01*
X318621095Y-98115380D02*
X318621095Y-97115380D01*
X318525857Y-97258238D01*
X318430619Y-97353476D01*
X318335380Y-97401095D01*
%TO.C,REF\u002A\u002A*%
X228041666Y-126202380D02*
X228041666Y-125202380D01*
X228041666Y-125678571D02*
X228613095Y-125678571D01*
X228613095Y-126202380D02*
X228613095Y-125202380D01*
X229232142Y-126202380D02*
X229136904Y-126154761D01*
X229089285Y-126107142D01*
X229041666Y-126011904D01*
X229041666Y-125726190D01*
X229089285Y-125630952D01*
X229136904Y-125583333D01*
X229232142Y-125535714D01*
X229375000Y-125535714D01*
X229470238Y-125583333D01*
X229517857Y-125630952D01*
X229565476Y-125726190D01*
X229565476Y-126011904D01*
X229517857Y-126107142D01*
X229470238Y-126154761D01*
X229375000Y-126202380D01*
X229232142Y-126202380D01*
X230136904Y-126202380D02*
X230041666Y-126154761D01*
X229994047Y-126059523D01*
X229994047Y-125202380D01*
X230898809Y-126154761D02*
X230803571Y-126202380D01*
X230613095Y-126202380D01*
X230517857Y-126154761D01*
X230470238Y-126059523D01*
X230470238Y-125678571D01*
X230517857Y-125583333D01*
X230613095Y-125535714D01*
X230803571Y-125535714D01*
X230898809Y-125583333D01*
X230946428Y-125678571D01*
X230946428Y-125773809D01*
X230470238Y-125869047D01*
X231136904Y-126297619D02*
X231898809Y-126297619D01*
X232089285Y-125297619D02*
X232136904Y-125250000D01*
X232232142Y-125202380D01*
X232470238Y-125202380D01*
X232565476Y-125250000D01*
X232613095Y-125297619D01*
X232660714Y-125392857D01*
X232660714Y-125488095D01*
X232613095Y-125630952D01*
X232041666Y-126202380D01*
X232660714Y-126202380D01*
X233089285Y-126107142D02*
X233136904Y-126154761D01*
X233089285Y-126202380D01*
X233041666Y-126154761D01*
X233089285Y-126107142D01*
X233089285Y-126202380D01*
X234041666Y-125202380D02*
X233565476Y-125202380D01*
X233517857Y-125678571D01*
X233565476Y-125630952D01*
X233660714Y-125583333D01*
X233898809Y-125583333D01*
X233994047Y-125630952D01*
X234041666Y-125678571D01*
X234089285Y-125773809D01*
X234089285Y-126011904D01*
X234041666Y-126107142D01*
X233994047Y-126154761D01*
X233898809Y-126202380D01*
X233660714Y-126202380D01*
X233565476Y-126154761D01*
X233517857Y-126107142D01*
X234517857Y-126202380D02*
X234517857Y-125535714D01*
X234517857Y-125630952D02*
X234565476Y-125583333D01*
X234660714Y-125535714D01*
X234803571Y-125535714D01*
X234898809Y-125583333D01*
X234946428Y-125678571D01*
X234946428Y-126202380D01*
X234946428Y-125678571D02*
X234994047Y-125583333D01*
X235089285Y-125535714D01*
X235232142Y-125535714D01*
X235327380Y-125583333D01*
X235375000Y-125678571D01*
X235375000Y-126202380D01*
X235851190Y-126202380D02*
X235851190Y-125535714D01*
X235851190Y-125630952D02*
X235898809Y-125583333D01*
X235994047Y-125535714D01*
X236136904Y-125535714D01*
X236232142Y-125583333D01*
X236279761Y-125678571D01*
X236279761Y-126202380D01*
X236279761Y-125678571D02*
X236327380Y-125583333D01*
X236422619Y-125535714D01*
X236565476Y-125535714D01*
X236660714Y-125583333D01*
X236708333Y-125678571D01*
X236708333Y-126202380D01*
%TO.C,JP28*%
X99548780Y-102042361D02*
X100263066Y-102042361D01*
X100405923Y-102089980D01*
X100501161Y-102185219D01*
X100548780Y-102328076D01*
X100548780Y-102423314D01*
X99882114Y-101137600D02*
X100548780Y-101137600D01*
X99882114Y-101566171D02*
X100405923Y-101566171D01*
X100501161Y-101518552D01*
X100548780Y-101423314D01*
X100548780Y-101280457D01*
X100501161Y-101185219D01*
X100453542Y-101137600D01*
X100548780Y-100661409D02*
X99882114Y-100661409D01*
X99977352Y-100661409D02*
X99929733Y-100613790D01*
X99882114Y-100518552D01*
X99882114Y-100375695D01*
X99929733Y-100280457D01*
X100024971Y-100232838D01*
X100548780Y-100232838D01*
X100024971Y-100232838D02*
X99929733Y-100185219D01*
X99882114Y-100089980D01*
X99882114Y-99947123D01*
X99929733Y-99851885D01*
X100024971Y-99804266D01*
X100548780Y-99804266D01*
X99882114Y-99328076D02*
X100882114Y-99328076D01*
X99929733Y-99328076D02*
X99882114Y-99232838D01*
X99882114Y-99042361D01*
X99929733Y-98947123D01*
X99977352Y-98899504D01*
X100072590Y-98851885D01*
X100358304Y-98851885D01*
X100453542Y-98899504D01*
X100501161Y-98947123D01*
X100548780Y-99042361D01*
X100548780Y-99232838D01*
X100501161Y-99328076D01*
X100501161Y-98042361D02*
X100548780Y-98137600D01*
X100548780Y-98328076D01*
X100501161Y-98423314D01*
X100405923Y-98470933D01*
X100024971Y-98470933D01*
X99929733Y-98423314D01*
X99882114Y-98328076D01*
X99882114Y-98137600D01*
X99929733Y-98042361D01*
X100024971Y-97994742D01*
X100120209Y-97994742D01*
X100215447Y-98470933D01*
X100548780Y-97566171D02*
X99882114Y-97566171D01*
X100072590Y-97566171D02*
X99977352Y-97518552D01*
X99929733Y-97470933D01*
X99882114Y-97375695D01*
X99882114Y-97280457D01*
X99548780Y-95994742D02*
X99548780Y-95804266D01*
X99596400Y-95709028D01*
X99691638Y-95613790D01*
X99882114Y-95566171D01*
X100215447Y-95566171D01*
X100405923Y-95613790D01*
X100501161Y-95709028D01*
X100548780Y-95804266D01*
X100548780Y-95994742D01*
X100501161Y-96089980D01*
X100405923Y-96185219D01*
X100215447Y-96232838D01*
X99882114Y-96232838D01*
X99691638Y-96185219D01*
X99596400Y-96089980D01*
X99548780Y-95994742D01*
X99882114Y-95137600D02*
X100882114Y-95137600D01*
X99929733Y-95137600D02*
X99882114Y-95042361D01*
X99882114Y-94851885D01*
X99929733Y-94756647D01*
X99977352Y-94709028D01*
X100072590Y-94661409D01*
X100358304Y-94661409D01*
X100453542Y-94709028D01*
X100501161Y-94756647D01*
X100548780Y-94851885D01*
X100548780Y-95042361D01*
X100501161Y-95137600D01*
X100501161Y-93851885D02*
X100548780Y-93947123D01*
X100548780Y-94137600D01*
X100501161Y-94232838D01*
X100405923Y-94280457D01*
X100024971Y-94280457D01*
X99929733Y-94232838D01*
X99882114Y-94137600D01*
X99882114Y-93947123D01*
X99929733Y-93851885D01*
X100024971Y-93804266D01*
X100120209Y-93804266D01*
X100215447Y-94280457D01*
X99882114Y-93375695D02*
X100548780Y-93375695D01*
X99977352Y-93375695D02*
X99929733Y-93328076D01*
X99882114Y-93232838D01*
X99882114Y-93089980D01*
X99929733Y-92994742D01*
X100024971Y-92947123D01*
X100548780Y-92947123D01*
%TO.C,REF\u002A\u002A*%
X316316666Y-178152380D02*
X316316666Y-177152380D01*
X316316666Y-177628571D02*
X316888095Y-177628571D01*
X316888095Y-178152380D02*
X316888095Y-177152380D01*
X317507142Y-178152380D02*
X317411904Y-178104761D01*
X317364285Y-178057142D01*
X317316666Y-177961904D01*
X317316666Y-177676190D01*
X317364285Y-177580952D01*
X317411904Y-177533333D01*
X317507142Y-177485714D01*
X317650000Y-177485714D01*
X317745238Y-177533333D01*
X317792857Y-177580952D01*
X317840476Y-177676190D01*
X317840476Y-177961904D01*
X317792857Y-178057142D01*
X317745238Y-178104761D01*
X317650000Y-178152380D01*
X317507142Y-178152380D01*
X318411904Y-178152380D02*
X318316666Y-178104761D01*
X318269047Y-178009523D01*
X318269047Y-177152380D01*
X319173809Y-178104761D02*
X319078571Y-178152380D01*
X318888095Y-178152380D01*
X318792857Y-178104761D01*
X318745238Y-178009523D01*
X318745238Y-177628571D01*
X318792857Y-177533333D01*
X318888095Y-177485714D01*
X319078571Y-177485714D01*
X319173809Y-177533333D01*
X319221428Y-177628571D01*
X319221428Y-177723809D01*
X318745238Y-177819047D01*
X319411904Y-178247619D02*
X320173809Y-178247619D01*
X320364285Y-177247619D02*
X320411904Y-177200000D01*
X320507142Y-177152380D01*
X320745238Y-177152380D01*
X320840476Y-177200000D01*
X320888095Y-177247619D01*
X320935714Y-177342857D01*
X320935714Y-177438095D01*
X320888095Y-177580952D01*
X320316666Y-178152380D01*
X320935714Y-178152380D01*
X321364285Y-178057142D02*
X321411904Y-178104761D01*
X321364285Y-178152380D01*
X321316666Y-178104761D01*
X321364285Y-178057142D01*
X321364285Y-178152380D01*
X322316666Y-177152380D02*
X321840476Y-177152380D01*
X321792857Y-177628571D01*
X321840476Y-177580952D01*
X321935714Y-177533333D01*
X322173809Y-177533333D01*
X322269047Y-177580952D01*
X322316666Y-177628571D01*
X322364285Y-177723809D01*
X322364285Y-177961904D01*
X322316666Y-178057142D01*
X322269047Y-178104761D01*
X322173809Y-178152380D01*
X321935714Y-178152380D01*
X321840476Y-178104761D01*
X321792857Y-178057142D01*
X322792857Y-178152380D02*
X322792857Y-177485714D01*
X322792857Y-177580952D02*
X322840476Y-177533333D01*
X322935714Y-177485714D01*
X323078571Y-177485714D01*
X323173809Y-177533333D01*
X323221428Y-177628571D01*
X323221428Y-178152380D01*
X323221428Y-177628571D02*
X323269047Y-177533333D01*
X323364285Y-177485714D01*
X323507142Y-177485714D01*
X323602380Y-177533333D01*
X323650000Y-177628571D01*
X323650000Y-178152380D01*
X324126190Y-178152380D02*
X324126190Y-177485714D01*
X324126190Y-177580952D02*
X324173809Y-177533333D01*
X324269047Y-177485714D01*
X324411904Y-177485714D01*
X324507142Y-177533333D01*
X324554761Y-177628571D01*
X324554761Y-178152380D01*
X324554761Y-177628571D02*
X324602380Y-177533333D01*
X324697619Y-177485714D01*
X324840476Y-177485714D01*
X324935714Y-177533333D01*
X324983333Y-177628571D01*
X324983333Y-178152380D01*
X227866666Y-247852380D02*
X227866666Y-246852380D01*
X227866666Y-247328571D02*
X228438095Y-247328571D01*
X228438095Y-247852380D02*
X228438095Y-246852380D01*
X229057142Y-247852380D02*
X228961904Y-247804761D01*
X228914285Y-247757142D01*
X228866666Y-247661904D01*
X228866666Y-247376190D01*
X228914285Y-247280952D01*
X228961904Y-247233333D01*
X229057142Y-247185714D01*
X229200000Y-247185714D01*
X229295238Y-247233333D01*
X229342857Y-247280952D01*
X229390476Y-247376190D01*
X229390476Y-247661904D01*
X229342857Y-247757142D01*
X229295238Y-247804761D01*
X229200000Y-247852380D01*
X229057142Y-247852380D01*
X229961904Y-247852380D02*
X229866666Y-247804761D01*
X229819047Y-247709523D01*
X229819047Y-246852380D01*
X230723809Y-247804761D02*
X230628571Y-247852380D01*
X230438095Y-247852380D01*
X230342857Y-247804761D01*
X230295238Y-247709523D01*
X230295238Y-247328571D01*
X230342857Y-247233333D01*
X230438095Y-247185714D01*
X230628571Y-247185714D01*
X230723809Y-247233333D01*
X230771428Y-247328571D01*
X230771428Y-247423809D01*
X230295238Y-247519047D01*
X230961904Y-247947619D02*
X231723809Y-247947619D01*
X231914285Y-246947619D02*
X231961904Y-246900000D01*
X232057142Y-246852380D01*
X232295238Y-246852380D01*
X232390476Y-246900000D01*
X232438095Y-246947619D01*
X232485714Y-247042857D01*
X232485714Y-247138095D01*
X232438095Y-247280952D01*
X231866666Y-247852380D01*
X232485714Y-247852380D01*
X232914285Y-247757142D02*
X232961904Y-247804761D01*
X232914285Y-247852380D01*
X232866666Y-247804761D01*
X232914285Y-247757142D01*
X232914285Y-247852380D01*
X233866666Y-246852380D02*
X233390476Y-246852380D01*
X233342857Y-247328571D01*
X233390476Y-247280952D01*
X233485714Y-247233333D01*
X233723809Y-247233333D01*
X233819047Y-247280952D01*
X233866666Y-247328571D01*
X233914285Y-247423809D01*
X233914285Y-247661904D01*
X233866666Y-247757142D01*
X233819047Y-247804761D01*
X233723809Y-247852380D01*
X233485714Y-247852380D01*
X233390476Y-247804761D01*
X233342857Y-247757142D01*
X234342857Y-247852380D02*
X234342857Y-247185714D01*
X234342857Y-247280952D02*
X234390476Y-247233333D01*
X234485714Y-247185714D01*
X234628571Y-247185714D01*
X234723809Y-247233333D01*
X234771428Y-247328571D01*
X234771428Y-247852380D01*
X234771428Y-247328571D02*
X234819047Y-247233333D01*
X234914285Y-247185714D01*
X235057142Y-247185714D01*
X235152380Y-247233333D01*
X235200000Y-247328571D01*
X235200000Y-247852380D01*
X235676190Y-247852380D02*
X235676190Y-247185714D01*
X235676190Y-247280952D02*
X235723809Y-247233333D01*
X235819047Y-247185714D01*
X235961904Y-247185714D01*
X236057142Y-247233333D01*
X236104761Y-247328571D01*
X236104761Y-247852380D01*
X236104761Y-247328571D02*
X236152380Y-247233333D01*
X236247619Y-247185714D01*
X236390476Y-247185714D01*
X236485714Y-247233333D01*
X236533333Y-247328571D01*
X236533333Y-247852380D01*
X380466666Y-247852380D02*
X380466666Y-246852380D01*
X380466666Y-247328571D02*
X381038095Y-247328571D01*
X381038095Y-247852380D02*
X381038095Y-246852380D01*
X381657142Y-247852380D02*
X381561904Y-247804761D01*
X381514285Y-247757142D01*
X381466666Y-247661904D01*
X381466666Y-247376190D01*
X381514285Y-247280952D01*
X381561904Y-247233333D01*
X381657142Y-247185714D01*
X381800000Y-247185714D01*
X381895238Y-247233333D01*
X381942857Y-247280952D01*
X381990476Y-247376190D01*
X381990476Y-247661904D01*
X381942857Y-247757142D01*
X381895238Y-247804761D01*
X381800000Y-247852380D01*
X381657142Y-247852380D01*
X382561904Y-247852380D02*
X382466666Y-247804761D01*
X382419047Y-247709523D01*
X382419047Y-246852380D01*
X383323809Y-247804761D02*
X383228571Y-247852380D01*
X383038095Y-247852380D01*
X382942857Y-247804761D01*
X382895238Y-247709523D01*
X382895238Y-247328571D01*
X382942857Y-247233333D01*
X383038095Y-247185714D01*
X383228571Y-247185714D01*
X383323809Y-247233333D01*
X383371428Y-247328571D01*
X383371428Y-247423809D01*
X382895238Y-247519047D01*
X383561904Y-247947619D02*
X384323809Y-247947619D01*
X384514285Y-246947619D02*
X384561904Y-246900000D01*
X384657142Y-246852380D01*
X384895238Y-246852380D01*
X384990476Y-246900000D01*
X385038095Y-246947619D01*
X385085714Y-247042857D01*
X385085714Y-247138095D01*
X385038095Y-247280952D01*
X384466666Y-247852380D01*
X385085714Y-247852380D01*
X385514285Y-247757142D02*
X385561904Y-247804761D01*
X385514285Y-247852380D01*
X385466666Y-247804761D01*
X385514285Y-247757142D01*
X385514285Y-247852380D01*
X386466666Y-246852380D02*
X385990476Y-246852380D01*
X385942857Y-247328571D01*
X385990476Y-247280952D01*
X386085714Y-247233333D01*
X386323809Y-247233333D01*
X386419047Y-247280952D01*
X386466666Y-247328571D01*
X386514285Y-247423809D01*
X386514285Y-247661904D01*
X386466666Y-247757142D01*
X386419047Y-247804761D01*
X386323809Y-247852380D01*
X386085714Y-247852380D01*
X385990476Y-247804761D01*
X385942857Y-247757142D01*
X386942857Y-247852380D02*
X386942857Y-247185714D01*
X386942857Y-247280952D02*
X386990476Y-247233333D01*
X387085714Y-247185714D01*
X387228571Y-247185714D01*
X387323809Y-247233333D01*
X387371428Y-247328571D01*
X387371428Y-247852380D01*
X387371428Y-247328571D02*
X387419047Y-247233333D01*
X387514285Y-247185714D01*
X387657142Y-247185714D01*
X387752380Y-247233333D01*
X387800000Y-247328571D01*
X387800000Y-247852380D01*
X388276190Y-247852380D02*
X388276190Y-247185714D01*
X388276190Y-247280952D02*
X388323809Y-247233333D01*
X388419047Y-247185714D01*
X388561904Y-247185714D01*
X388657142Y-247233333D01*
X388704761Y-247328571D01*
X388704761Y-247852380D01*
X388704761Y-247328571D02*
X388752380Y-247233333D01*
X388847619Y-247185714D01*
X388990476Y-247185714D01*
X389085714Y-247233333D01*
X389133333Y-247328571D01*
X389133333Y-247852380D01*
%TO.C,JP21*%
X440615647Y-108527380D02*
X440615647Y-109241666D01*
X440568028Y-109384523D01*
X440472790Y-109479761D01*
X440329933Y-109527380D01*
X440234695Y-109527380D01*
X441520409Y-108860714D02*
X441520409Y-109527380D01*
X441091838Y-108860714D02*
X441091838Y-109384523D01*
X441139457Y-109479761D01*
X441234695Y-109527380D01*
X441377552Y-109527380D01*
X441472790Y-109479761D01*
X441520409Y-109432142D01*
X441996600Y-109527380D02*
X441996600Y-108860714D01*
X441996600Y-108955952D02*
X442044219Y-108908333D01*
X442139457Y-108860714D01*
X442282314Y-108860714D01*
X442377552Y-108908333D01*
X442425171Y-109003571D01*
X442425171Y-109527380D01*
X442425171Y-109003571D02*
X442472790Y-108908333D01*
X442568028Y-108860714D01*
X442710885Y-108860714D01*
X442806123Y-108908333D01*
X442853742Y-109003571D01*
X442853742Y-109527380D01*
X443329933Y-108860714D02*
X443329933Y-109860714D01*
X443329933Y-108908333D02*
X443425171Y-108860714D01*
X443615647Y-108860714D01*
X443710885Y-108908333D01*
X443758504Y-108955952D01*
X443806123Y-109051190D01*
X443806123Y-109336904D01*
X443758504Y-109432142D01*
X443710885Y-109479761D01*
X443615647Y-109527380D01*
X443425171Y-109527380D01*
X443329933Y-109479761D01*
X444615647Y-109479761D02*
X444520409Y-109527380D01*
X444329933Y-109527380D01*
X444234695Y-109479761D01*
X444187076Y-109384523D01*
X444187076Y-109003571D01*
X444234695Y-108908333D01*
X444329933Y-108860714D01*
X444520409Y-108860714D01*
X444615647Y-108908333D01*
X444663266Y-109003571D01*
X444663266Y-109098809D01*
X444187076Y-109194047D01*
X445091838Y-109527380D02*
X445091838Y-108860714D01*
X445091838Y-109051190D02*
X445139457Y-108955952D01*
X445187076Y-108908333D01*
X445282314Y-108860714D01*
X445377552Y-108860714D01*
X446806123Y-109003571D02*
X446948980Y-109051190D01*
X446996600Y-109098809D01*
X447044219Y-109194047D01*
X447044219Y-109336904D01*
X446996600Y-109432142D01*
X446948980Y-109479761D01*
X446853742Y-109527380D01*
X446472790Y-109527380D01*
X446472790Y-108527380D01*
X446806123Y-108527380D01*
X446901361Y-108575000D01*
X446948980Y-108622619D01*
X446996600Y-108717857D01*
X446996600Y-108813095D01*
X446948980Y-108908333D01*
X446901361Y-108955952D01*
X446806123Y-109003571D01*
X446472790Y-109003571D01*
X447472790Y-109527380D02*
X447472790Y-108860714D01*
X447472790Y-109051190D02*
X447520409Y-108955952D01*
X447568028Y-108908333D01*
X447663266Y-108860714D01*
X447758504Y-108860714D01*
X448091838Y-109527380D02*
X448091838Y-108860714D01*
X448091838Y-108527380D02*
X448044219Y-108575000D01*
X448091838Y-108622619D01*
X448139457Y-108575000D01*
X448091838Y-108527380D01*
X448091838Y-108622619D01*
X448996600Y-109527380D02*
X448996600Y-108527380D01*
X448996600Y-109479761D02*
X448901361Y-109527380D01*
X448710885Y-109527380D01*
X448615647Y-109479761D01*
X448568028Y-109432142D01*
X448520409Y-109336904D01*
X448520409Y-109051190D01*
X448568028Y-108955952D01*
X448615647Y-108908333D01*
X448710885Y-108860714D01*
X448901361Y-108860714D01*
X448996600Y-108908333D01*
X449901361Y-108860714D02*
X449901361Y-109670238D01*
X449853742Y-109765476D01*
X449806123Y-109813095D01*
X449710885Y-109860714D01*
X449568028Y-109860714D01*
X449472790Y-109813095D01*
X449901361Y-109479761D02*
X449806123Y-109527380D01*
X449615647Y-109527380D01*
X449520409Y-109479761D01*
X449472790Y-109432142D01*
X449425171Y-109336904D01*
X449425171Y-109051190D01*
X449472790Y-108955952D01*
X449520409Y-108908333D01*
X449615647Y-108860714D01*
X449806123Y-108860714D01*
X449901361Y-108908333D01*
X450758504Y-109479761D02*
X450663266Y-109527380D01*
X450472790Y-109527380D01*
X450377552Y-109479761D01*
X450329933Y-109384523D01*
X450329933Y-109003571D01*
X450377552Y-108908333D01*
X450472790Y-108860714D01*
X450663266Y-108860714D01*
X450758504Y-108908333D01*
X450806123Y-109003571D01*
X450806123Y-109098809D01*
X450329933Y-109194047D01*
X451663266Y-109527380D02*
X451663266Y-108527380D01*
X451663266Y-109479761D02*
X451568028Y-109527380D01*
X451377552Y-109527380D01*
X451282314Y-109479761D01*
X451234695Y-109432142D01*
X451187076Y-109336904D01*
X451187076Y-109051190D01*
X451234695Y-108955952D01*
X451282314Y-108908333D01*
X451377552Y-108860714D01*
X451568028Y-108860714D01*
X451663266Y-108908333D01*
%TO.C,REF\u002A\u002A*%
X151279166Y-127252380D02*
X151279166Y-126252380D01*
X151279166Y-126728571D02*
X151850595Y-126728571D01*
X151850595Y-127252380D02*
X151850595Y-126252380D01*
X152469642Y-127252380D02*
X152374404Y-127204761D01*
X152326785Y-127157142D01*
X152279166Y-127061904D01*
X152279166Y-126776190D01*
X152326785Y-126680952D01*
X152374404Y-126633333D01*
X152469642Y-126585714D01*
X152612500Y-126585714D01*
X152707738Y-126633333D01*
X152755357Y-126680952D01*
X152802976Y-126776190D01*
X152802976Y-127061904D01*
X152755357Y-127157142D01*
X152707738Y-127204761D01*
X152612500Y-127252380D01*
X152469642Y-127252380D01*
X153374404Y-127252380D02*
X153279166Y-127204761D01*
X153231547Y-127109523D01*
X153231547Y-126252380D01*
X154136309Y-127204761D02*
X154041071Y-127252380D01*
X153850595Y-127252380D01*
X153755357Y-127204761D01*
X153707738Y-127109523D01*
X153707738Y-126728571D01*
X153755357Y-126633333D01*
X153850595Y-126585714D01*
X154041071Y-126585714D01*
X154136309Y-126633333D01*
X154183928Y-126728571D01*
X154183928Y-126823809D01*
X153707738Y-126919047D01*
X154374404Y-127347619D02*
X155136309Y-127347619D01*
X155326785Y-126347619D02*
X155374404Y-126300000D01*
X155469642Y-126252380D01*
X155707738Y-126252380D01*
X155802976Y-126300000D01*
X155850595Y-126347619D01*
X155898214Y-126442857D01*
X155898214Y-126538095D01*
X155850595Y-126680952D01*
X155279166Y-127252380D01*
X155898214Y-127252380D01*
X156326785Y-127157142D02*
X156374404Y-127204761D01*
X156326785Y-127252380D01*
X156279166Y-127204761D01*
X156326785Y-127157142D01*
X156326785Y-127252380D01*
X157279166Y-126252380D02*
X156802976Y-126252380D01*
X156755357Y-126728571D01*
X156802976Y-126680952D01*
X156898214Y-126633333D01*
X157136309Y-126633333D01*
X157231547Y-126680952D01*
X157279166Y-126728571D01*
X157326785Y-126823809D01*
X157326785Y-127061904D01*
X157279166Y-127157142D01*
X157231547Y-127204761D01*
X157136309Y-127252380D01*
X156898214Y-127252380D01*
X156802976Y-127204761D01*
X156755357Y-127157142D01*
X157755357Y-127252380D02*
X157755357Y-126585714D01*
X157755357Y-126680952D02*
X157802976Y-126633333D01*
X157898214Y-126585714D01*
X158041071Y-126585714D01*
X158136309Y-126633333D01*
X158183928Y-126728571D01*
X158183928Y-127252380D01*
X158183928Y-126728571D02*
X158231547Y-126633333D01*
X158326785Y-126585714D01*
X158469642Y-126585714D01*
X158564880Y-126633333D01*
X158612500Y-126728571D01*
X158612500Y-127252380D01*
X159088690Y-127252380D02*
X159088690Y-126585714D01*
X159088690Y-126680952D02*
X159136309Y-126633333D01*
X159231547Y-126585714D01*
X159374404Y-126585714D01*
X159469642Y-126633333D01*
X159517261Y-126728571D01*
X159517261Y-127252380D01*
X159517261Y-126728571D02*
X159564880Y-126633333D01*
X159660119Y-126585714D01*
X159802976Y-126585714D01*
X159898214Y-126633333D01*
X159945833Y-126728571D01*
X159945833Y-127252380D01*
X392866666Y-178152380D02*
X392866666Y-177152380D01*
X392866666Y-177628571D02*
X393438095Y-177628571D01*
X393438095Y-178152380D02*
X393438095Y-177152380D01*
X394057142Y-178152380D02*
X393961904Y-178104761D01*
X393914285Y-178057142D01*
X393866666Y-177961904D01*
X393866666Y-177676190D01*
X393914285Y-177580952D01*
X393961904Y-177533333D01*
X394057142Y-177485714D01*
X394200000Y-177485714D01*
X394295238Y-177533333D01*
X394342857Y-177580952D01*
X394390476Y-177676190D01*
X394390476Y-177961904D01*
X394342857Y-178057142D01*
X394295238Y-178104761D01*
X394200000Y-178152380D01*
X394057142Y-178152380D01*
X394961904Y-178152380D02*
X394866666Y-178104761D01*
X394819047Y-178009523D01*
X394819047Y-177152380D01*
X395723809Y-178104761D02*
X395628571Y-178152380D01*
X395438095Y-178152380D01*
X395342857Y-178104761D01*
X395295238Y-178009523D01*
X395295238Y-177628571D01*
X395342857Y-177533333D01*
X395438095Y-177485714D01*
X395628571Y-177485714D01*
X395723809Y-177533333D01*
X395771428Y-177628571D01*
X395771428Y-177723809D01*
X395295238Y-177819047D01*
X395961904Y-178247619D02*
X396723809Y-178247619D01*
X396914285Y-177247619D02*
X396961904Y-177200000D01*
X397057142Y-177152380D01*
X397295238Y-177152380D01*
X397390476Y-177200000D01*
X397438095Y-177247619D01*
X397485714Y-177342857D01*
X397485714Y-177438095D01*
X397438095Y-177580952D01*
X396866666Y-178152380D01*
X397485714Y-178152380D01*
X397914285Y-178057142D02*
X397961904Y-178104761D01*
X397914285Y-178152380D01*
X397866666Y-178104761D01*
X397914285Y-178057142D01*
X397914285Y-178152380D01*
X398866666Y-177152380D02*
X398390476Y-177152380D01*
X398342857Y-177628571D01*
X398390476Y-177580952D01*
X398485714Y-177533333D01*
X398723809Y-177533333D01*
X398819047Y-177580952D01*
X398866666Y-177628571D01*
X398914285Y-177723809D01*
X398914285Y-177961904D01*
X398866666Y-178057142D01*
X398819047Y-178104761D01*
X398723809Y-178152380D01*
X398485714Y-178152380D01*
X398390476Y-178104761D01*
X398342857Y-178057142D01*
X399342857Y-178152380D02*
X399342857Y-177485714D01*
X399342857Y-177580952D02*
X399390476Y-177533333D01*
X399485714Y-177485714D01*
X399628571Y-177485714D01*
X399723809Y-177533333D01*
X399771428Y-177628571D01*
X399771428Y-178152380D01*
X399771428Y-177628571D02*
X399819047Y-177533333D01*
X399914285Y-177485714D01*
X400057142Y-177485714D01*
X400152380Y-177533333D01*
X400200000Y-177628571D01*
X400200000Y-178152380D01*
X400676190Y-178152380D02*
X400676190Y-177485714D01*
X400676190Y-177580952D02*
X400723809Y-177533333D01*
X400819047Y-177485714D01*
X400961904Y-177485714D01*
X401057142Y-177533333D01*
X401104761Y-177628571D01*
X401104761Y-178152380D01*
X401104761Y-177628571D02*
X401152380Y-177533333D01*
X401247619Y-177485714D01*
X401390476Y-177485714D01*
X401485714Y-177533333D01*
X401533333Y-177628571D01*
X401533333Y-178152380D01*
X119066666Y-178152380D02*
X119066666Y-177152380D01*
X119066666Y-177628571D02*
X119638095Y-177628571D01*
X119638095Y-178152380D02*
X119638095Y-177152380D01*
X120257142Y-178152380D02*
X120161904Y-178104761D01*
X120114285Y-178057142D01*
X120066666Y-177961904D01*
X120066666Y-177676190D01*
X120114285Y-177580952D01*
X120161904Y-177533333D01*
X120257142Y-177485714D01*
X120400000Y-177485714D01*
X120495238Y-177533333D01*
X120542857Y-177580952D01*
X120590476Y-177676190D01*
X120590476Y-177961904D01*
X120542857Y-178057142D01*
X120495238Y-178104761D01*
X120400000Y-178152380D01*
X120257142Y-178152380D01*
X121161904Y-178152380D02*
X121066666Y-178104761D01*
X121019047Y-178009523D01*
X121019047Y-177152380D01*
X121923809Y-178104761D02*
X121828571Y-178152380D01*
X121638095Y-178152380D01*
X121542857Y-178104761D01*
X121495238Y-178009523D01*
X121495238Y-177628571D01*
X121542857Y-177533333D01*
X121638095Y-177485714D01*
X121828571Y-177485714D01*
X121923809Y-177533333D01*
X121971428Y-177628571D01*
X121971428Y-177723809D01*
X121495238Y-177819047D01*
X122161904Y-178247619D02*
X122923809Y-178247619D01*
X123114285Y-177247619D02*
X123161904Y-177200000D01*
X123257142Y-177152380D01*
X123495238Y-177152380D01*
X123590476Y-177200000D01*
X123638095Y-177247619D01*
X123685714Y-177342857D01*
X123685714Y-177438095D01*
X123638095Y-177580952D01*
X123066666Y-178152380D01*
X123685714Y-178152380D01*
X124114285Y-178057142D02*
X124161904Y-178104761D01*
X124114285Y-178152380D01*
X124066666Y-178104761D01*
X124114285Y-178057142D01*
X124114285Y-178152380D01*
X125066666Y-177152380D02*
X124590476Y-177152380D01*
X124542857Y-177628571D01*
X124590476Y-177580952D01*
X124685714Y-177533333D01*
X124923809Y-177533333D01*
X125019047Y-177580952D01*
X125066666Y-177628571D01*
X125114285Y-177723809D01*
X125114285Y-177961904D01*
X125066666Y-178057142D01*
X125019047Y-178104761D01*
X124923809Y-178152380D01*
X124685714Y-178152380D01*
X124590476Y-178104761D01*
X124542857Y-178057142D01*
X125542857Y-178152380D02*
X125542857Y-177485714D01*
X125542857Y-177580952D02*
X125590476Y-177533333D01*
X125685714Y-177485714D01*
X125828571Y-177485714D01*
X125923809Y-177533333D01*
X125971428Y-177628571D01*
X125971428Y-178152380D01*
X125971428Y-177628571D02*
X126019047Y-177533333D01*
X126114285Y-177485714D01*
X126257142Y-177485714D01*
X126352380Y-177533333D01*
X126400000Y-177628571D01*
X126400000Y-178152380D01*
X126876190Y-178152380D02*
X126876190Y-177485714D01*
X126876190Y-177580952D02*
X126923809Y-177533333D01*
X127019047Y-177485714D01*
X127161904Y-177485714D01*
X127257142Y-177533333D01*
X127304761Y-177628571D01*
X127304761Y-178152380D01*
X127304761Y-177628571D02*
X127352380Y-177533333D01*
X127447619Y-177485714D01*
X127590476Y-177485714D01*
X127685714Y-177533333D01*
X127733333Y-177628571D01*
X127733333Y-178152380D01*
X168666666Y-197452380D02*
X168666666Y-196452380D01*
X168666666Y-196928571D02*
X169238095Y-196928571D01*
X169238095Y-197452380D02*
X169238095Y-196452380D01*
X169857142Y-197452380D02*
X169761904Y-197404761D01*
X169714285Y-197357142D01*
X169666666Y-197261904D01*
X169666666Y-196976190D01*
X169714285Y-196880952D01*
X169761904Y-196833333D01*
X169857142Y-196785714D01*
X170000000Y-196785714D01*
X170095238Y-196833333D01*
X170142857Y-196880952D01*
X170190476Y-196976190D01*
X170190476Y-197261904D01*
X170142857Y-197357142D01*
X170095238Y-197404761D01*
X170000000Y-197452380D01*
X169857142Y-197452380D01*
X170761904Y-197452380D02*
X170666666Y-197404761D01*
X170619047Y-197309523D01*
X170619047Y-196452380D01*
X171523809Y-197404761D02*
X171428571Y-197452380D01*
X171238095Y-197452380D01*
X171142857Y-197404761D01*
X171095238Y-197309523D01*
X171095238Y-196928571D01*
X171142857Y-196833333D01*
X171238095Y-196785714D01*
X171428571Y-196785714D01*
X171523809Y-196833333D01*
X171571428Y-196928571D01*
X171571428Y-197023809D01*
X171095238Y-197119047D01*
X171761904Y-197547619D02*
X172523809Y-197547619D01*
X172714285Y-196547619D02*
X172761904Y-196500000D01*
X172857142Y-196452380D01*
X173095238Y-196452380D01*
X173190476Y-196500000D01*
X173238095Y-196547619D01*
X173285714Y-196642857D01*
X173285714Y-196738095D01*
X173238095Y-196880952D01*
X172666666Y-197452380D01*
X173285714Y-197452380D01*
X173714285Y-197357142D02*
X173761904Y-197404761D01*
X173714285Y-197452380D01*
X173666666Y-197404761D01*
X173714285Y-197357142D01*
X173714285Y-197452380D01*
X174666666Y-196452380D02*
X174190476Y-196452380D01*
X174142857Y-196928571D01*
X174190476Y-196880952D01*
X174285714Y-196833333D01*
X174523809Y-196833333D01*
X174619047Y-196880952D01*
X174666666Y-196928571D01*
X174714285Y-197023809D01*
X174714285Y-197261904D01*
X174666666Y-197357142D01*
X174619047Y-197404761D01*
X174523809Y-197452380D01*
X174285714Y-197452380D01*
X174190476Y-197404761D01*
X174142857Y-197357142D01*
X175142857Y-197452380D02*
X175142857Y-196785714D01*
X175142857Y-196880952D02*
X175190476Y-196833333D01*
X175285714Y-196785714D01*
X175428571Y-196785714D01*
X175523809Y-196833333D01*
X175571428Y-196928571D01*
X175571428Y-197452380D01*
X175571428Y-196928571D02*
X175619047Y-196833333D01*
X175714285Y-196785714D01*
X175857142Y-196785714D01*
X175952380Y-196833333D01*
X176000000Y-196928571D01*
X176000000Y-197452380D01*
X176476190Y-197452380D02*
X176476190Y-196785714D01*
X176476190Y-196880952D02*
X176523809Y-196833333D01*
X176619047Y-196785714D01*
X176761904Y-196785714D01*
X176857142Y-196833333D01*
X176904761Y-196928571D01*
X176904761Y-197452380D01*
X176904761Y-196928571D02*
X176952380Y-196833333D01*
X177047619Y-196785714D01*
X177190476Y-196785714D01*
X177285714Y-196833333D01*
X177333333Y-196928571D01*
X177333333Y-197452380D01*
%TO.C,JP31*%
X126574380Y-102042361D02*
X127288666Y-102042361D01*
X127431523Y-102089980D01*
X127526761Y-102185219D01*
X127574380Y-102328076D01*
X127574380Y-102423314D01*
X126907714Y-101137600D02*
X127574380Y-101137600D01*
X126907714Y-101566171D02*
X127431523Y-101566171D01*
X127526761Y-101518552D01*
X127574380Y-101423314D01*
X127574380Y-101280457D01*
X127526761Y-101185219D01*
X127479142Y-101137600D01*
X127574380Y-100661409D02*
X126907714Y-100661409D01*
X127002952Y-100661409D02*
X126955333Y-100613790D01*
X126907714Y-100518552D01*
X126907714Y-100375695D01*
X126955333Y-100280457D01*
X127050571Y-100232838D01*
X127574380Y-100232838D01*
X127050571Y-100232838D02*
X126955333Y-100185219D01*
X126907714Y-100089980D01*
X126907714Y-99947123D01*
X126955333Y-99851885D01*
X127050571Y-99804266D01*
X127574380Y-99804266D01*
X126907714Y-99328076D02*
X127907714Y-99328076D01*
X126955333Y-99328076D02*
X126907714Y-99232838D01*
X126907714Y-99042361D01*
X126955333Y-98947123D01*
X127002952Y-98899504D01*
X127098190Y-98851885D01*
X127383904Y-98851885D01*
X127479142Y-98899504D01*
X127526761Y-98947123D01*
X127574380Y-99042361D01*
X127574380Y-99232838D01*
X127526761Y-99328076D01*
X127526761Y-98042361D02*
X127574380Y-98137600D01*
X127574380Y-98328076D01*
X127526761Y-98423314D01*
X127431523Y-98470933D01*
X127050571Y-98470933D01*
X126955333Y-98423314D01*
X126907714Y-98328076D01*
X126907714Y-98137600D01*
X126955333Y-98042361D01*
X127050571Y-97994742D01*
X127145809Y-97994742D01*
X127241047Y-98470933D01*
X127574380Y-97566171D02*
X126907714Y-97566171D01*
X127098190Y-97566171D02*
X127002952Y-97518552D01*
X126955333Y-97470933D01*
X126907714Y-97375695D01*
X126907714Y-97280457D01*
X126574380Y-95994742D02*
X126574380Y-95804266D01*
X126622000Y-95709028D01*
X126717238Y-95613790D01*
X126907714Y-95566171D01*
X127241047Y-95566171D01*
X127431523Y-95613790D01*
X127526761Y-95709028D01*
X127574380Y-95804266D01*
X127574380Y-95994742D01*
X127526761Y-96089980D01*
X127431523Y-96185219D01*
X127241047Y-96232838D01*
X126907714Y-96232838D01*
X126717238Y-96185219D01*
X126622000Y-96089980D01*
X126574380Y-95994742D01*
X126907714Y-95137600D02*
X127907714Y-95137600D01*
X126955333Y-95137600D02*
X126907714Y-95042361D01*
X126907714Y-94851885D01*
X126955333Y-94756647D01*
X127002952Y-94709028D01*
X127098190Y-94661409D01*
X127383904Y-94661409D01*
X127479142Y-94709028D01*
X127526761Y-94756647D01*
X127574380Y-94851885D01*
X127574380Y-95042361D01*
X127526761Y-95137600D01*
X127526761Y-93851885D02*
X127574380Y-93947123D01*
X127574380Y-94137600D01*
X127526761Y-94232838D01*
X127431523Y-94280457D01*
X127050571Y-94280457D01*
X126955333Y-94232838D01*
X126907714Y-94137600D01*
X126907714Y-93947123D01*
X126955333Y-93851885D01*
X127050571Y-93804266D01*
X127145809Y-93804266D01*
X127241047Y-94280457D01*
X126907714Y-93375695D02*
X127574380Y-93375695D01*
X127002952Y-93375695D02*
X126955333Y-93328076D01*
X126907714Y-93232838D01*
X126907714Y-93089980D01*
X126955333Y-92994742D01*
X127050571Y-92947123D01*
X127574380Y-92947123D01*
%TO.C,JP27*%
X96500780Y-102042361D02*
X97215066Y-102042361D01*
X97357923Y-102089980D01*
X97453161Y-102185219D01*
X97500780Y-102328076D01*
X97500780Y-102423314D01*
X96834114Y-101137600D02*
X97500780Y-101137600D01*
X96834114Y-101566171D02*
X97357923Y-101566171D01*
X97453161Y-101518552D01*
X97500780Y-101423314D01*
X97500780Y-101280457D01*
X97453161Y-101185219D01*
X97405542Y-101137600D01*
X97500780Y-100661409D02*
X96834114Y-100661409D01*
X96929352Y-100661409D02*
X96881733Y-100613790D01*
X96834114Y-100518552D01*
X96834114Y-100375695D01*
X96881733Y-100280457D01*
X96976971Y-100232838D01*
X97500780Y-100232838D01*
X96976971Y-100232838D02*
X96881733Y-100185219D01*
X96834114Y-100089980D01*
X96834114Y-99947123D01*
X96881733Y-99851885D01*
X96976971Y-99804266D01*
X97500780Y-99804266D01*
X96834114Y-99328076D02*
X97834114Y-99328076D01*
X96881733Y-99328076D02*
X96834114Y-99232838D01*
X96834114Y-99042361D01*
X96881733Y-98947123D01*
X96929352Y-98899504D01*
X97024590Y-98851885D01*
X97310304Y-98851885D01*
X97405542Y-98899504D01*
X97453161Y-98947123D01*
X97500780Y-99042361D01*
X97500780Y-99232838D01*
X97453161Y-99328076D01*
X97453161Y-98042361D02*
X97500780Y-98137600D01*
X97500780Y-98328076D01*
X97453161Y-98423314D01*
X97357923Y-98470933D01*
X96976971Y-98470933D01*
X96881733Y-98423314D01*
X96834114Y-98328076D01*
X96834114Y-98137600D01*
X96881733Y-98042361D01*
X96976971Y-97994742D01*
X97072209Y-97994742D01*
X97167447Y-98470933D01*
X97500780Y-97566171D02*
X96834114Y-97566171D01*
X97024590Y-97566171D02*
X96929352Y-97518552D01*
X96881733Y-97470933D01*
X96834114Y-97375695D01*
X96834114Y-97280457D01*
X96500780Y-95994742D02*
X96500780Y-95804266D01*
X96548400Y-95709028D01*
X96643638Y-95613790D01*
X96834114Y-95566171D01*
X97167447Y-95566171D01*
X97357923Y-95613790D01*
X97453161Y-95709028D01*
X97500780Y-95804266D01*
X97500780Y-95994742D01*
X97453161Y-96089980D01*
X97357923Y-96185219D01*
X97167447Y-96232838D01*
X96834114Y-96232838D01*
X96643638Y-96185219D01*
X96548400Y-96089980D01*
X96500780Y-95994742D01*
X96834114Y-95137600D02*
X97834114Y-95137600D01*
X96881733Y-95137600D02*
X96834114Y-95042361D01*
X96834114Y-94851885D01*
X96881733Y-94756647D01*
X96929352Y-94709028D01*
X97024590Y-94661409D01*
X97310304Y-94661409D01*
X97405542Y-94709028D01*
X97453161Y-94756647D01*
X97500780Y-94851885D01*
X97500780Y-95042361D01*
X97453161Y-95137600D01*
X97453161Y-93851885D02*
X97500780Y-93947123D01*
X97500780Y-94137600D01*
X97453161Y-94232838D01*
X97357923Y-94280457D01*
X96976971Y-94280457D01*
X96881733Y-94232838D01*
X96834114Y-94137600D01*
X96834114Y-93947123D01*
X96881733Y-93851885D01*
X96976971Y-93804266D01*
X97072209Y-93804266D01*
X97167447Y-94280457D01*
X96834114Y-93375695D02*
X97500780Y-93375695D01*
X96929352Y-93375695D02*
X96881733Y-93328076D01*
X96834114Y-93232838D01*
X96834114Y-93089980D01*
X96881733Y-92994742D01*
X96976971Y-92947123D01*
X97500780Y-92947123D01*
%TO.C,REF\u002A\u002A*%
X388166666Y-215952380D02*
X388166666Y-214952380D01*
X388166666Y-215428571D02*
X388738095Y-215428571D01*
X388738095Y-215952380D02*
X388738095Y-214952380D01*
X389357142Y-215952380D02*
X389261904Y-215904761D01*
X389214285Y-215857142D01*
X389166666Y-215761904D01*
X389166666Y-215476190D01*
X389214285Y-215380952D01*
X389261904Y-215333333D01*
X389357142Y-215285714D01*
X389500000Y-215285714D01*
X389595238Y-215333333D01*
X389642857Y-215380952D01*
X389690476Y-215476190D01*
X389690476Y-215761904D01*
X389642857Y-215857142D01*
X389595238Y-215904761D01*
X389500000Y-215952380D01*
X389357142Y-215952380D01*
X390261904Y-215952380D02*
X390166666Y-215904761D01*
X390119047Y-215809523D01*
X390119047Y-214952380D01*
X391023809Y-215904761D02*
X390928571Y-215952380D01*
X390738095Y-215952380D01*
X390642857Y-215904761D01*
X390595238Y-215809523D01*
X390595238Y-215428571D01*
X390642857Y-215333333D01*
X390738095Y-215285714D01*
X390928571Y-215285714D01*
X391023809Y-215333333D01*
X391071428Y-215428571D01*
X391071428Y-215523809D01*
X390595238Y-215619047D01*
X391261904Y-216047619D02*
X392023809Y-216047619D01*
X392214285Y-215047619D02*
X392261904Y-215000000D01*
X392357142Y-214952380D01*
X392595238Y-214952380D01*
X392690476Y-215000000D01*
X392738095Y-215047619D01*
X392785714Y-215142857D01*
X392785714Y-215238095D01*
X392738095Y-215380952D01*
X392166666Y-215952380D01*
X392785714Y-215952380D01*
X393214285Y-215857142D02*
X393261904Y-215904761D01*
X393214285Y-215952380D01*
X393166666Y-215904761D01*
X393214285Y-215857142D01*
X393214285Y-215952380D01*
X394166666Y-214952380D02*
X393690476Y-214952380D01*
X393642857Y-215428571D01*
X393690476Y-215380952D01*
X393785714Y-215333333D01*
X394023809Y-215333333D01*
X394119047Y-215380952D01*
X394166666Y-215428571D01*
X394214285Y-215523809D01*
X394214285Y-215761904D01*
X394166666Y-215857142D01*
X394119047Y-215904761D01*
X394023809Y-215952380D01*
X393785714Y-215952380D01*
X393690476Y-215904761D01*
X393642857Y-215857142D01*
X394642857Y-215952380D02*
X394642857Y-215285714D01*
X394642857Y-215380952D02*
X394690476Y-215333333D01*
X394785714Y-215285714D01*
X394928571Y-215285714D01*
X395023809Y-215333333D01*
X395071428Y-215428571D01*
X395071428Y-215952380D01*
X395071428Y-215428571D02*
X395119047Y-215333333D01*
X395214285Y-215285714D01*
X395357142Y-215285714D01*
X395452380Y-215333333D01*
X395500000Y-215428571D01*
X395500000Y-215952380D01*
X395976190Y-215952380D02*
X395976190Y-215285714D01*
X395976190Y-215380952D02*
X396023809Y-215333333D01*
X396119047Y-215285714D01*
X396261904Y-215285714D01*
X396357142Y-215333333D01*
X396404761Y-215428571D01*
X396404761Y-215952380D01*
X396404761Y-215428571D02*
X396452380Y-215333333D01*
X396547619Y-215285714D01*
X396690476Y-215285714D01*
X396785714Y-215333333D01*
X396833333Y-215428571D01*
X396833333Y-215952380D01*
X178416666Y-235952380D02*
X178416666Y-234952380D01*
X178416666Y-235428571D02*
X178988095Y-235428571D01*
X178988095Y-235952380D02*
X178988095Y-234952380D01*
X179607142Y-235952380D02*
X179511904Y-235904761D01*
X179464285Y-235857142D01*
X179416666Y-235761904D01*
X179416666Y-235476190D01*
X179464285Y-235380952D01*
X179511904Y-235333333D01*
X179607142Y-235285714D01*
X179750000Y-235285714D01*
X179845238Y-235333333D01*
X179892857Y-235380952D01*
X179940476Y-235476190D01*
X179940476Y-235761904D01*
X179892857Y-235857142D01*
X179845238Y-235904761D01*
X179750000Y-235952380D01*
X179607142Y-235952380D01*
X180511904Y-235952380D02*
X180416666Y-235904761D01*
X180369047Y-235809523D01*
X180369047Y-234952380D01*
X181273809Y-235904761D02*
X181178571Y-235952380D01*
X180988095Y-235952380D01*
X180892857Y-235904761D01*
X180845238Y-235809523D01*
X180845238Y-235428571D01*
X180892857Y-235333333D01*
X180988095Y-235285714D01*
X181178571Y-235285714D01*
X181273809Y-235333333D01*
X181321428Y-235428571D01*
X181321428Y-235523809D01*
X180845238Y-235619047D01*
X181511904Y-236047619D02*
X182273809Y-236047619D01*
X182464285Y-235047619D02*
X182511904Y-235000000D01*
X182607142Y-234952380D01*
X182845238Y-234952380D01*
X182940476Y-235000000D01*
X182988095Y-235047619D01*
X183035714Y-235142857D01*
X183035714Y-235238095D01*
X182988095Y-235380952D01*
X182416666Y-235952380D01*
X183035714Y-235952380D01*
X183464285Y-235857142D02*
X183511904Y-235904761D01*
X183464285Y-235952380D01*
X183416666Y-235904761D01*
X183464285Y-235857142D01*
X183464285Y-235952380D01*
X184416666Y-234952380D02*
X183940476Y-234952380D01*
X183892857Y-235428571D01*
X183940476Y-235380952D01*
X184035714Y-235333333D01*
X184273809Y-235333333D01*
X184369047Y-235380952D01*
X184416666Y-235428571D01*
X184464285Y-235523809D01*
X184464285Y-235761904D01*
X184416666Y-235857142D01*
X184369047Y-235904761D01*
X184273809Y-235952380D01*
X184035714Y-235952380D01*
X183940476Y-235904761D01*
X183892857Y-235857142D01*
X184892857Y-235952380D02*
X184892857Y-235285714D01*
X184892857Y-235380952D02*
X184940476Y-235333333D01*
X185035714Y-235285714D01*
X185178571Y-235285714D01*
X185273809Y-235333333D01*
X185321428Y-235428571D01*
X185321428Y-235952380D01*
X185321428Y-235428571D02*
X185369047Y-235333333D01*
X185464285Y-235285714D01*
X185607142Y-235285714D01*
X185702380Y-235333333D01*
X185750000Y-235428571D01*
X185750000Y-235952380D01*
X186226190Y-235952380D02*
X186226190Y-235285714D01*
X186226190Y-235380952D02*
X186273809Y-235333333D01*
X186369047Y-235285714D01*
X186511904Y-235285714D01*
X186607142Y-235333333D01*
X186654761Y-235428571D01*
X186654761Y-235952380D01*
X186654761Y-235428571D02*
X186702380Y-235333333D01*
X186797619Y-235285714D01*
X186940476Y-235285714D01*
X187035714Y-235333333D01*
X187083333Y-235428571D01*
X187083333Y-235952380D01*
X456766666Y-247852380D02*
X456766666Y-246852380D01*
X456766666Y-247328571D02*
X457338095Y-247328571D01*
X457338095Y-247852380D02*
X457338095Y-246852380D01*
X457957142Y-247852380D02*
X457861904Y-247804761D01*
X457814285Y-247757142D01*
X457766666Y-247661904D01*
X457766666Y-247376190D01*
X457814285Y-247280952D01*
X457861904Y-247233333D01*
X457957142Y-247185714D01*
X458100000Y-247185714D01*
X458195238Y-247233333D01*
X458242857Y-247280952D01*
X458290476Y-247376190D01*
X458290476Y-247661904D01*
X458242857Y-247757142D01*
X458195238Y-247804761D01*
X458100000Y-247852380D01*
X457957142Y-247852380D01*
X458861904Y-247852380D02*
X458766666Y-247804761D01*
X458719047Y-247709523D01*
X458719047Y-246852380D01*
X459623809Y-247804761D02*
X459528571Y-247852380D01*
X459338095Y-247852380D01*
X459242857Y-247804761D01*
X459195238Y-247709523D01*
X459195238Y-247328571D01*
X459242857Y-247233333D01*
X459338095Y-247185714D01*
X459528571Y-247185714D01*
X459623809Y-247233333D01*
X459671428Y-247328571D01*
X459671428Y-247423809D01*
X459195238Y-247519047D01*
X459861904Y-247947619D02*
X460623809Y-247947619D01*
X460814285Y-246947619D02*
X460861904Y-246900000D01*
X460957142Y-246852380D01*
X461195238Y-246852380D01*
X461290476Y-246900000D01*
X461338095Y-246947619D01*
X461385714Y-247042857D01*
X461385714Y-247138095D01*
X461338095Y-247280952D01*
X460766666Y-247852380D01*
X461385714Y-247852380D01*
X461814285Y-247757142D02*
X461861904Y-247804761D01*
X461814285Y-247852380D01*
X461766666Y-247804761D01*
X461814285Y-247757142D01*
X461814285Y-247852380D01*
X462766666Y-246852380D02*
X462290476Y-246852380D01*
X462242857Y-247328571D01*
X462290476Y-247280952D01*
X462385714Y-247233333D01*
X462623809Y-247233333D01*
X462719047Y-247280952D01*
X462766666Y-247328571D01*
X462814285Y-247423809D01*
X462814285Y-247661904D01*
X462766666Y-247757142D01*
X462719047Y-247804761D01*
X462623809Y-247852380D01*
X462385714Y-247852380D01*
X462290476Y-247804761D01*
X462242857Y-247757142D01*
X463242857Y-247852380D02*
X463242857Y-247185714D01*
X463242857Y-247280952D02*
X463290476Y-247233333D01*
X463385714Y-247185714D01*
X463528571Y-247185714D01*
X463623809Y-247233333D01*
X463671428Y-247328571D01*
X463671428Y-247852380D01*
X463671428Y-247328571D02*
X463719047Y-247233333D01*
X463814285Y-247185714D01*
X463957142Y-247185714D01*
X464052380Y-247233333D01*
X464100000Y-247328571D01*
X464100000Y-247852380D01*
X464576190Y-247852380D02*
X464576190Y-247185714D01*
X464576190Y-247280952D02*
X464623809Y-247233333D01*
X464719047Y-247185714D01*
X464861904Y-247185714D01*
X464957142Y-247233333D01*
X465004761Y-247328571D01*
X465004761Y-247852380D01*
X465004761Y-247328571D02*
X465052380Y-247233333D01*
X465147619Y-247185714D01*
X465290476Y-247185714D01*
X465385714Y-247233333D01*
X465433333Y-247328571D01*
X465433333Y-247852380D01*
X421366666Y-159352380D02*
X421366666Y-158352380D01*
X421366666Y-158828571D02*
X421938095Y-158828571D01*
X421938095Y-159352380D02*
X421938095Y-158352380D01*
X422557142Y-159352380D02*
X422461904Y-159304761D01*
X422414285Y-159257142D01*
X422366666Y-159161904D01*
X422366666Y-158876190D01*
X422414285Y-158780952D01*
X422461904Y-158733333D01*
X422557142Y-158685714D01*
X422700000Y-158685714D01*
X422795238Y-158733333D01*
X422842857Y-158780952D01*
X422890476Y-158876190D01*
X422890476Y-159161904D01*
X422842857Y-159257142D01*
X422795238Y-159304761D01*
X422700000Y-159352380D01*
X422557142Y-159352380D01*
X423461904Y-159352380D02*
X423366666Y-159304761D01*
X423319047Y-159209523D01*
X423319047Y-158352380D01*
X424223809Y-159304761D02*
X424128571Y-159352380D01*
X423938095Y-159352380D01*
X423842857Y-159304761D01*
X423795238Y-159209523D01*
X423795238Y-158828571D01*
X423842857Y-158733333D01*
X423938095Y-158685714D01*
X424128571Y-158685714D01*
X424223809Y-158733333D01*
X424271428Y-158828571D01*
X424271428Y-158923809D01*
X423795238Y-159019047D01*
X424461904Y-159447619D02*
X425223809Y-159447619D01*
X425414285Y-158447619D02*
X425461904Y-158400000D01*
X425557142Y-158352380D01*
X425795238Y-158352380D01*
X425890476Y-158400000D01*
X425938095Y-158447619D01*
X425985714Y-158542857D01*
X425985714Y-158638095D01*
X425938095Y-158780952D01*
X425366666Y-159352380D01*
X425985714Y-159352380D01*
X426414285Y-159257142D02*
X426461904Y-159304761D01*
X426414285Y-159352380D01*
X426366666Y-159304761D01*
X426414285Y-159257142D01*
X426414285Y-159352380D01*
X427366666Y-158352380D02*
X426890476Y-158352380D01*
X426842857Y-158828571D01*
X426890476Y-158780952D01*
X426985714Y-158733333D01*
X427223809Y-158733333D01*
X427319047Y-158780952D01*
X427366666Y-158828571D01*
X427414285Y-158923809D01*
X427414285Y-159161904D01*
X427366666Y-159257142D01*
X427319047Y-159304761D01*
X427223809Y-159352380D01*
X426985714Y-159352380D01*
X426890476Y-159304761D01*
X426842857Y-159257142D01*
X427842857Y-159352380D02*
X427842857Y-158685714D01*
X427842857Y-158780952D02*
X427890476Y-158733333D01*
X427985714Y-158685714D01*
X428128571Y-158685714D01*
X428223809Y-158733333D01*
X428271428Y-158828571D01*
X428271428Y-159352380D01*
X428271428Y-158828571D02*
X428319047Y-158733333D01*
X428414285Y-158685714D01*
X428557142Y-158685714D01*
X428652380Y-158733333D01*
X428700000Y-158828571D01*
X428700000Y-159352380D01*
X429176190Y-159352380D02*
X429176190Y-158685714D01*
X429176190Y-158780952D02*
X429223809Y-158733333D01*
X429319047Y-158685714D01*
X429461904Y-158685714D01*
X429557142Y-158733333D01*
X429604761Y-158828571D01*
X429604761Y-159352380D01*
X429604761Y-158828571D02*
X429652380Y-158733333D01*
X429747619Y-158685714D01*
X429890476Y-158685714D01*
X429985714Y-158733333D01*
X430033333Y-158828571D01*
X430033333Y-159352380D01*
%TO.C,JP23*%
X471670238Y-125977380D02*
X471670238Y-126691666D01*
X471622619Y-126834523D01*
X471527380Y-126929761D01*
X471384523Y-126977380D01*
X471289285Y-126977380D01*
X472575000Y-126310714D02*
X472575000Y-126977380D01*
X472146428Y-126310714D02*
X472146428Y-126834523D01*
X472194047Y-126929761D01*
X472289285Y-126977380D01*
X472432142Y-126977380D01*
X472527380Y-126929761D01*
X472575000Y-126882142D01*
X473051190Y-126977380D02*
X473051190Y-126310714D01*
X473051190Y-126405952D02*
X473098809Y-126358333D01*
X473194047Y-126310714D01*
X473336904Y-126310714D01*
X473432142Y-126358333D01*
X473479761Y-126453571D01*
X473479761Y-126977380D01*
X473479761Y-126453571D02*
X473527380Y-126358333D01*
X473622619Y-126310714D01*
X473765476Y-126310714D01*
X473860714Y-126358333D01*
X473908333Y-126453571D01*
X473908333Y-126977380D01*
X474384523Y-126310714D02*
X474384523Y-127310714D01*
X474384523Y-126358333D02*
X474479761Y-126310714D01*
X474670238Y-126310714D01*
X474765476Y-126358333D01*
X474813095Y-126405952D01*
X474860714Y-126501190D01*
X474860714Y-126786904D01*
X474813095Y-126882142D01*
X474765476Y-126929761D01*
X474670238Y-126977380D01*
X474479761Y-126977380D01*
X474384523Y-126929761D01*
X475670238Y-126929761D02*
X475575000Y-126977380D01*
X475384523Y-126977380D01*
X475289285Y-126929761D01*
X475241666Y-126834523D01*
X475241666Y-126453571D01*
X475289285Y-126358333D01*
X475384523Y-126310714D01*
X475575000Y-126310714D01*
X475670238Y-126358333D01*
X475717857Y-126453571D01*
X475717857Y-126548809D01*
X475241666Y-126644047D01*
X476146428Y-126977380D02*
X476146428Y-126310714D01*
X476146428Y-126501190D02*
X476194047Y-126405952D01*
X476241666Y-126358333D01*
X476336904Y-126310714D01*
X476432142Y-126310714D01*
X477717857Y-125977380D02*
X477908333Y-125977380D01*
X478003571Y-126025000D01*
X478098809Y-126120238D01*
X478146428Y-126310714D01*
X478146428Y-126644047D01*
X478098809Y-126834523D01*
X478003571Y-126929761D01*
X477908333Y-126977380D01*
X477717857Y-126977380D01*
X477622619Y-126929761D01*
X477527380Y-126834523D01*
X477479761Y-126644047D01*
X477479761Y-126310714D01*
X477527380Y-126120238D01*
X477622619Y-126025000D01*
X477717857Y-125977380D01*
X478575000Y-126310714D02*
X478575000Y-127310714D01*
X478575000Y-126358333D02*
X478670238Y-126310714D01*
X478860714Y-126310714D01*
X478955952Y-126358333D01*
X479003571Y-126405952D01*
X479051190Y-126501190D01*
X479051190Y-126786904D01*
X479003571Y-126882142D01*
X478955952Y-126929761D01*
X478860714Y-126977380D01*
X478670238Y-126977380D01*
X478575000Y-126929761D01*
X479860714Y-126929761D02*
X479765476Y-126977380D01*
X479575000Y-126977380D01*
X479479761Y-126929761D01*
X479432142Y-126834523D01*
X479432142Y-126453571D01*
X479479761Y-126358333D01*
X479575000Y-126310714D01*
X479765476Y-126310714D01*
X479860714Y-126358333D01*
X479908333Y-126453571D01*
X479908333Y-126548809D01*
X479432142Y-126644047D01*
X480336904Y-126310714D02*
X480336904Y-126977380D01*
X480336904Y-126405952D02*
X480384523Y-126358333D01*
X480479761Y-126310714D01*
X480622619Y-126310714D01*
X480717857Y-126358333D01*
X480765476Y-126453571D01*
X480765476Y-126977380D01*
%TO.C,JP25*%
X77095180Y-99539361D02*
X77809466Y-99539361D01*
X77952323Y-99586980D01*
X78047561Y-99682219D01*
X78095180Y-99825076D01*
X78095180Y-99920314D01*
X77428514Y-98634600D02*
X78095180Y-98634600D01*
X77428514Y-99063171D02*
X77952323Y-99063171D01*
X78047561Y-99015552D01*
X78095180Y-98920314D01*
X78095180Y-98777457D01*
X78047561Y-98682219D01*
X77999942Y-98634600D01*
X78095180Y-98158409D02*
X77428514Y-98158409D01*
X77523752Y-98158409D02*
X77476133Y-98110790D01*
X77428514Y-98015552D01*
X77428514Y-97872695D01*
X77476133Y-97777457D01*
X77571371Y-97729838D01*
X78095180Y-97729838D01*
X77571371Y-97729838D02*
X77476133Y-97682219D01*
X77428514Y-97586980D01*
X77428514Y-97444123D01*
X77476133Y-97348885D01*
X77571371Y-97301266D01*
X78095180Y-97301266D01*
X77428514Y-96825076D02*
X78428514Y-96825076D01*
X77476133Y-96825076D02*
X77428514Y-96729838D01*
X77428514Y-96539361D01*
X77476133Y-96444123D01*
X77523752Y-96396504D01*
X77618990Y-96348885D01*
X77904704Y-96348885D01*
X77999942Y-96396504D01*
X78047561Y-96444123D01*
X78095180Y-96539361D01*
X78095180Y-96729838D01*
X78047561Y-96825076D01*
X78047561Y-95539361D02*
X78095180Y-95634600D01*
X78095180Y-95825076D01*
X78047561Y-95920314D01*
X77952323Y-95967933D01*
X77571371Y-95967933D01*
X77476133Y-95920314D01*
X77428514Y-95825076D01*
X77428514Y-95634600D01*
X77476133Y-95539361D01*
X77571371Y-95491742D01*
X77666609Y-95491742D01*
X77761847Y-95967933D01*
X78095180Y-95063171D02*
X77428514Y-95063171D01*
X77618990Y-95063171D02*
X77523752Y-95015552D01*
X77476133Y-94967933D01*
X77428514Y-94872695D01*
X77428514Y-94777457D01*
X77095180Y-93491742D02*
X77095180Y-93301266D01*
X77142800Y-93206028D01*
X77238038Y-93110790D01*
X77428514Y-93063171D01*
X77761847Y-93063171D01*
X77952323Y-93110790D01*
X78047561Y-93206028D01*
X78095180Y-93301266D01*
X78095180Y-93491742D01*
X78047561Y-93586980D01*
X77952323Y-93682219D01*
X77761847Y-93729838D01*
X77428514Y-93729838D01*
X77238038Y-93682219D01*
X77142800Y-93586980D01*
X77095180Y-93491742D01*
X77428514Y-92634600D02*
X78428514Y-92634600D01*
X77476133Y-92634600D02*
X77428514Y-92539361D01*
X77428514Y-92348885D01*
X77476133Y-92253647D01*
X77523752Y-92206028D01*
X77618990Y-92158409D01*
X77904704Y-92158409D01*
X77999942Y-92206028D01*
X78047561Y-92253647D01*
X78095180Y-92348885D01*
X78095180Y-92539361D01*
X78047561Y-92634600D01*
X78047561Y-91348885D02*
X78095180Y-91444123D01*
X78095180Y-91634600D01*
X78047561Y-91729838D01*
X77952323Y-91777457D01*
X77571371Y-91777457D01*
X77476133Y-91729838D01*
X77428514Y-91634600D01*
X77428514Y-91444123D01*
X77476133Y-91348885D01*
X77571371Y-91301266D01*
X77666609Y-91301266D01*
X77761847Y-91777457D01*
X77428514Y-90872695D02*
X78095180Y-90872695D01*
X77523752Y-90872695D02*
X77476133Y-90825076D01*
X77428514Y-90729838D01*
X77428514Y-90586980D01*
X77476133Y-90491742D01*
X77571371Y-90444123D01*
X78095180Y-90444123D01*
%TO.C,JP32*%
X136023180Y-102042361D02*
X136737466Y-102042361D01*
X136880323Y-102089980D01*
X136975561Y-102185219D01*
X137023180Y-102328076D01*
X137023180Y-102423314D01*
X136356514Y-101137600D02*
X137023180Y-101137600D01*
X136356514Y-101566171D02*
X136880323Y-101566171D01*
X136975561Y-101518552D01*
X137023180Y-101423314D01*
X137023180Y-101280457D01*
X136975561Y-101185219D01*
X136927942Y-101137600D01*
X137023180Y-100661409D02*
X136356514Y-100661409D01*
X136451752Y-100661409D02*
X136404133Y-100613790D01*
X136356514Y-100518552D01*
X136356514Y-100375695D01*
X136404133Y-100280457D01*
X136499371Y-100232838D01*
X137023180Y-100232838D01*
X136499371Y-100232838D02*
X136404133Y-100185219D01*
X136356514Y-100089980D01*
X136356514Y-99947123D01*
X136404133Y-99851885D01*
X136499371Y-99804266D01*
X137023180Y-99804266D01*
X136356514Y-99328076D02*
X137356514Y-99328076D01*
X136404133Y-99328076D02*
X136356514Y-99232838D01*
X136356514Y-99042361D01*
X136404133Y-98947123D01*
X136451752Y-98899504D01*
X136546990Y-98851885D01*
X136832704Y-98851885D01*
X136927942Y-98899504D01*
X136975561Y-98947123D01*
X137023180Y-99042361D01*
X137023180Y-99232838D01*
X136975561Y-99328076D01*
X136975561Y-98042361D02*
X137023180Y-98137600D01*
X137023180Y-98328076D01*
X136975561Y-98423314D01*
X136880323Y-98470933D01*
X136499371Y-98470933D01*
X136404133Y-98423314D01*
X136356514Y-98328076D01*
X136356514Y-98137600D01*
X136404133Y-98042361D01*
X136499371Y-97994742D01*
X136594609Y-97994742D01*
X136689847Y-98470933D01*
X137023180Y-97566171D02*
X136356514Y-97566171D01*
X136546990Y-97566171D02*
X136451752Y-97518552D01*
X136404133Y-97470933D01*
X136356514Y-97375695D01*
X136356514Y-97280457D01*
X136023180Y-95994742D02*
X136023180Y-95804266D01*
X136070800Y-95709028D01*
X136166038Y-95613790D01*
X136356514Y-95566171D01*
X136689847Y-95566171D01*
X136880323Y-95613790D01*
X136975561Y-95709028D01*
X137023180Y-95804266D01*
X137023180Y-95994742D01*
X136975561Y-96089980D01*
X136880323Y-96185219D01*
X136689847Y-96232838D01*
X136356514Y-96232838D01*
X136166038Y-96185219D01*
X136070800Y-96089980D01*
X136023180Y-95994742D01*
X136356514Y-95137600D02*
X137356514Y-95137600D01*
X136404133Y-95137600D02*
X136356514Y-95042361D01*
X136356514Y-94851885D01*
X136404133Y-94756647D01*
X136451752Y-94709028D01*
X136546990Y-94661409D01*
X136832704Y-94661409D01*
X136927942Y-94709028D01*
X136975561Y-94756647D01*
X137023180Y-94851885D01*
X137023180Y-95042361D01*
X136975561Y-95137600D01*
X136975561Y-93851885D02*
X137023180Y-93947123D01*
X137023180Y-94137600D01*
X136975561Y-94232838D01*
X136880323Y-94280457D01*
X136499371Y-94280457D01*
X136404133Y-94232838D01*
X136356514Y-94137600D01*
X136356514Y-93947123D01*
X136404133Y-93851885D01*
X136499371Y-93804266D01*
X136594609Y-93804266D01*
X136689847Y-94280457D01*
X136356514Y-93375695D02*
X137023180Y-93375695D01*
X136451752Y-93375695D02*
X136404133Y-93328076D01*
X136356514Y-93232838D01*
X136356514Y-93089980D01*
X136404133Y-92994742D01*
X136499371Y-92947123D01*
X137023180Y-92947123D01*
%TO.C,JP18*%
X345477380Y-115754761D02*
X346191666Y-115754761D01*
X346334523Y-115802380D01*
X346429761Y-115897619D01*
X346477380Y-116040476D01*
X346477380Y-116135714D01*
X345810714Y-114850000D02*
X346477380Y-114850000D01*
X345810714Y-115278571D02*
X346334523Y-115278571D01*
X346429761Y-115230952D01*
X346477380Y-115135714D01*
X346477380Y-114992857D01*
X346429761Y-114897619D01*
X346382142Y-114850000D01*
X346477380Y-114373809D02*
X345810714Y-114373809D01*
X345905952Y-114373809D02*
X345858333Y-114326190D01*
X345810714Y-114230952D01*
X345810714Y-114088095D01*
X345858333Y-113992857D01*
X345953571Y-113945238D01*
X346477380Y-113945238D01*
X345953571Y-113945238D02*
X345858333Y-113897619D01*
X345810714Y-113802380D01*
X345810714Y-113659523D01*
X345858333Y-113564285D01*
X345953571Y-113516666D01*
X346477380Y-113516666D01*
X345810714Y-113040476D02*
X346810714Y-113040476D01*
X345858333Y-113040476D02*
X345810714Y-112945238D01*
X345810714Y-112754761D01*
X345858333Y-112659523D01*
X345905952Y-112611904D01*
X346001190Y-112564285D01*
X346286904Y-112564285D01*
X346382142Y-112611904D01*
X346429761Y-112659523D01*
X346477380Y-112754761D01*
X346477380Y-112945238D01*
X346429761Y-113040476D01*
X346429761Y-111754761D02*
X346477380Y-111850000D01*
X346477380Y-112040476D01*
X346429761Y-112135714D01*
X346334523Y-112183333D01*
X345953571Y-112183333D01*
X345858333Y-112135714D01*
X345810714Y-112040476D01*
X345810714Y-111850000D01*
X345858333Y-111754761D01*
X345953571Y-111707142D01*
X346048809Y-111707142D01*
X346144047Y-112183333D01*
X346477380Y-111278571D02*
X345810714Y-111278571D01*
X346001190Y-111278571D02*
X345905952Y-111230952D01*
X345858333Y-111183333D01*
X345810714Y-111088095D01*
X345810714Y-110992857D01*
X345477380Y-109707142D02*
X345477380Y-109516666D01*
X345525000Y-109421428D01*
X345620238Y-109326190D01*
X345810714Y-109278571D01*
X346144047Y-109278571D01*
X346334523Y-109326190D01*
X346429761Y-109421428D01*
X346477380Y-109516666D01*
X346477380Y-109707142D01*
X346429761Y-109802380D01*
X346334523Y-109897619D01*
X346144047Y-109945238D01*
X345810714Y-109945238D01*
X345620238Y-109897619D01*
X345525000Y-109802380D01*
X345477380Y-109707142D01*
X345810714Y-108850000D02*
X346810714Y-108850000D01*
X345858333Y-108850000D02*
X345810714Y-108754761D01*
X345810714Y-108564285D01*
X345858333Y-108469047D01*
X345905952Y-108421428D01*
X346001190Y-108373809D01*
X346286904Y-108373809D01*
X346382142Y-108421428D01*
X346429761Y-108469047D01*
X346477380Y-108564285D01*
X346477380Y-108754761D01*
X346429761Y-108850000D01*
X346429761Y-107564285D02*
X346477380Y-107659523D01*
X346477380Y-107850000D01*
X346429761Y-107945238D01*
X346334523Y-107992857D01*
X345953571Y-107992857D01*
X345858333Y-107945238D01*
X345810714Y-107850000D01*
X345810714Y-107659523D01*
X345858333Y-107564285D01*
X345953571Y-107516666D01*
X346048809Y-107516666D01*
X346144047Y-107992857D01*
X345810714Y-107088095D02*
X346477380Y-107088095D01*
X345905952Y-107088095D02*
X345858333Y-107040476D01*
X345810714Y-106945238D01*
X345810714Y-106802380D01*
X345858333Y-106707142D01*
X345953571Y-106659523D01*
X346477380Y-106659523D01*
%TO.C,REF\u002A\u002A*%
X388166666Y-235702380D02*
X388166666Y-234702380D01*
X388166666Y-235178571D02*
X388738095Y-235178571D01*
X388738095Y-235702380D02*
X388738095Y-234702380D01*
X389357142Y-235702380D02*
X389261904Y-235654761D01*
X389214285Y-235607142D01*
X389166666Y-235511904D01*
X389166666Y-235226190D01*
X389214285Y-235130952D01*
X389261904Y-235083333D01*
X389357142Y-235035714D01*
X389500000Y-235035714D01*
X389595238Y-235083333D01*
X389642857Y-235130952D01*
X389690476Y-235226190D01*
X389690476Y-235511904D01*
X389642857Y-235607142D01*
X389595238Y-235654761D01*
X389500000Y-235702380D01*
X389357142Y-235702380D01*
X390261904Y-235702380D02*
X390166666Y-235654761D01*
X390119047Y-235559523D01*
X390119047Y-234702380D01*
X391023809Y-235654761D02*
X390928571Y-235702380D01*
X390738095Y-235702380D01*
X390642857Y-235654761D01*
X390595238Y-235559523D01*
X390595238Y-235178571D01*
X390642857Y-235083333D01*
X390738095Y-235035714D01*
X390928571Y-235035714D01*
X391023809Y-235083333D01*
X391071428Y-235178571D01*
X391071428Y-235273809D01*
X390595238Y-235369047D01*
X391261904Y-235797619D02*
X392023809Y-235797619D01*
X392214285Y-234797619D02*
X392261904Y-234750000D01*
X392357142Y-234702380D01*
X392595238Y-234702380D01*
X392690476Y-234750000D01*
X392738095Y-234797619D01*
X392785714Y-234892857D01*
X392785714Y-234988095D01*
X392738095Y-235130952D01*
X392166666Y-235702380D01*
X392785714Y-235702380D01*
X393214285Y-235607142D02*
X393261904Y-235654761D01*
X393214285Y-235702380D01*
X393166666Y-235654761D01*
X393214285Y-235607142D01*
X393214285Y-235702380D01*
X394166666Y-234702380D02*
X393690476Y-234702380D01*
X393642857Y-235178571D01*
X393690476Y-235130952D01*
X393785714Y-235083333D01*
X394023809Y-235083333D01*
X394119047Y-235130952D01*
X394166666Y-235178571D01*
X394214285Y-235273809D01*
X394214285Y-235511904D01*
X394166666Y-235607142D01*
X394119047Y-235654761D01*
X394023809Y-235702380D01*
X393785714Y-235702380D01*
X393690476Y-235654761D01*
X393642857Y-235607142D01*
X394642857Y-235702380D02*
X394642857Y-235035714D01*
X394642857Y-235130952D02*
X394690476Y-235083333D01*
X394785714Y-235035714D01*
X394928571Y-235035714D01*
X395023809Y-235083333D01*
X395071428Y-235178571D01*
X395071428Y-235702380D01*
X395071428Y-235178571D02*
X395119047Y-235083333D01*
X395214285Y-235035714D01*
X395357142Y-235035714D01*
X395452380Y-235083333D01*
X395500000Y-235178571D01*
X395500000Y-235702380D01*
X395976190Y-235702380D02*
X395976190Y-235035714D01*
X395976190Y-235130952D02*
X396023809Y-235083333D01*
X396119047Y-235035714D01*
X396261904Y-235035714D01*
X396357142Y-235083333D01*
X396404761Y-235178571D01*
X396404761Y-235702380D01*
X396404761Y-235178571D02*
X396452380Y-235083333D01*
X396547619Y-235035714D01*
X396690476Y-235035714D01*
X396785714Y-235083333D01*
X396833333Y-235178571D01*
X396833333Y-235702380D01*
X240066666Y-178152380D02*
X240066666Y-177152380D01*
X240066666Y-177628571D02*
X240638095Y-177628571D01*
X240638095Y-178152380D02*
X240638095Y-177152380D01*
X241257142Y-178152380D02*
X241161904Y-178104761D01*
X241114285Y-178057142D01*
X241066666Y-177961904D01*
X241066666Y-177676190D01*
X241114285Y-177580952D01*
X241161904Y-177533333D01*
X241257142Y-177485714D01*
X241400000Y-177485714D01*
X241495238Y-177533333D01*
X241542857Y-177580952D01*
X241590476Y-177676190D01*
X241590476Y-177961904D01*
X241542857Y-178057142D01*
X241495238Y-178104761D01*
X241400000Y-178152380D01*
X241257142Y-178152380D01*
X242161904Y-178152380D02*
X242066666Y-178104761D01*
X242019047Y-178009523D01*
X242019047Y-177152380D01*
X242923809Y-178104761D02*
X242828571Y-178152380D01*
X242638095Y-178152380D01*
X242542857Y-178104761D01*
X242495238Y-178009523D01*
X242495238Y-177628571D01*
X242542857Y-177533333D01*
X242638095Y-177485714D01*
X242828571Y-177485714D01*
X242923809Y-177533333D01*
X242971428Y-177628571D01*
X242971428Y-177723809D01*
X242495238Y-177819047D01*
X243161904Y-178247619D02*
X243923809Y-178247619D01*
X244114285Y-177247619D02*
X244161904Y-177200000D01*
X244257142Y-177152380D01*
X244495238Y-177152380D01*
X244590476Y-177200000D01*
X244638095Y-177247619D01*
X244685714Y-177342857D01*
X244685714Y-177438095D01*
X244638095Y-177580952D01*
X244066666Y-178152380D01*
X244685714Y-178152380D01*
X245114285Y-178057142D02*
X245161904Y-178104761D01*
X245114285Y-178152380D01*
X245066666Y-178104761D01*
X245114285Y-178057142D01*
X245114285Y-178152380D01*
X246066666Y-177152380D02*
X245590476Y-177152380D01*
X245542857Y-177628571D01*
X245590476Y-177580952D01*
X245685714Y-177533333D01*
X245923809Y-177533333D01*
X246019047Y-177580952D01*
X246066666Y-177628571D01*
X246114285Y-177723809D01*
X246114285Y-177961904D01*
X246066666Y-178057142D01*
X246019047Y-178104761D01*
X245923809Y-178152380D01*
X245685714Y-178152380D01*
X245590476Y-178104761D01*
X245542857Y-178057142D01*
X246542857Y-178152380D02*
X246542857Y-177485714D01*
X246542857Y-177580952D02*
X246590476Y-177533333D01*
X246685714Y-177485714D01*
X246828571Y-177485714D01*
X246923809Y-177533333D01*
X246971428Y-177628571D01*
X246971428Y-178152380D01*
X246971428Y-177628571D02*
X247019047Y-177533333D01*
X247114285Y-177485714D01*
X247257142Y-177485714D01*
X247352380Y-177533333D01*
X247400000Y-177628571D01*
X247400000Y-178152380D01*
X247876190Y-178152380D02*
X247876190Y-177485714D01*
X247876190Y-177580952D02*
X247923809Y-177533333D01*
X248019047Y-177485714D01*
X248161904Y-177485714D01*
X248257142Y-177533333D01*
X248304761Y-177628571D01*
X248304761Y-178152380D01*
X248304761Y-177628571D02*
X248352380Y-177533333D01*
X248447619Y-177485714D01*
X248590476Y-177485714D01*
X248685714Y-177533333D01*
X248733333Y-177628571D01*
X248733333Y-178152380D01*
X303904166Y-127252380D02*
X303904166Y-126252380D01*
X303904166Y-126728571D02*
X304475595Y-126728571D01*
X304475595Y-127252380D02*
X304475595Y-126252380D01*
X305094642Y-127252380D02*
X304999404Y-127204761D01*
X304951785Y-127157142D01*
X304904166Y-127061904D01*
X304904166Y-126776190D01*
X304951785Y-126680952D01*
X304999404Y-126633333D01*
X305094642Y-126585714D01*
X305237500Y-126585714D01*
X305332738Y-126633333D01*
X305380357Y-126680952D01*
X305427976Y-126776190D01*
X305427976Y-127061904D01*
X305380357Y-127157142D01*
X305332738Y-127204761D01*
X305237500Y-127252380D01*
X305094642Y-127252380D01*
X305999404Y-127252380D02*
X305904166Y-127204761D01*
X305856547Y-127109523D01*
X305856547Y-126252380D01*
X306761309Y-127204761D02*
X306666071Y-127252380D01*
X306475595Y-127252380D01*
X306380357Y-127204761D01*
X306332738Y-127109523D01*
X306332738Y-126728571D01*
X306380357Y-126633333D01*
X306475595Y-126585714D01*
X306666071Y-126585714D01*
X306761309Y-126633333D01*
X306808928Y-126728571D01*
X306808928Y-126823809D01*
X306332738Y-126919047D01*
X306999404Y-127347619D02*
X307761309Y-127347619D01*
X307951785Y-126347619D02*
X307999404Y-126300000D01*
X308094642Y-126252380D01*
X308332738Y-126252380D01*
X308427976Y-126300000D01*
X308475595Y-126347619D01*
X308523214Y-126442857D01*
X308523214Y-126538095D01*
X308475595Y-126680952D01*
X307904166Y-127252380D01*
X308523214Y-127252380D01*
X308951785Y-127157142D02*
X308999404Y-127204761D01*
X308951785Y-127252380D01*
X308904166Y-127204761D01*
X308951785Y-127157142D01*
X308951785Y-127252380D01*
X309904166Y-126252380D02*
X309427976Y-126252380D01*
X309380357Y-126728571D01*
X309427976Y-126680952D01*
X309523214Y-126633333D01*
X309761309Y-126633333D01*
X309856547Y-126680952D01*
X309904166Y-126728571D01*
X309951785Y-126823809D01*
X309951785Y-127061904D01*
X309904166Y-127157142D01*
X309856547Y-127204761D01*
X309761309Y-127252380D01*
X309523214Y-127252380D01*
X309427976Y-127204761D01*
X309380357Y-127157142D01*
X310380357Y-127252380D02*
X310380357Y-126585714D01*
X310380357Y-126680952D02*
X310427976Y-126633333D01*
X310523214Y-126585714D01*
X310666071Y-126585714D01*
X310761309Y-126633333D01*
X310808928Y-126728571D01*
X310808928Y-127252380D01*
X310808928Y-126728571D02*
X310856547Y-126633333D01*
X310951785Y-126585714D01*
X311094642Y-126585714D01*
X311189880Y-126633333D01*
X311237500Y-126728571D01*
X311237500Y-127252380D01*
X311713690Y-127252380D02*
X311713690Y-126585714D01*
X311713690Y-126680952D02*
X311761309Y-126633333D01*
X311856547Y-126585714D01*
X311999404Y-126585714D01*
X312094642Y-126633333D01*
X312142261Y-126728571D01*
X312142261Y-127252380D01*
X312142261Y-126728571D02*
X312189880Y-126633333D01*
X312285119Y-126585714D01*
X312427976Y-126585714D01*
X312523214Y-126633333D01*
X312570833Y-126728571D01*
X312570833Y-127252380D01*
%TO.C,JP24*%
X470694047Y-122602380D02*
X470694047Y-123316666D01*
X470646428Y-123459523D01*
X470551190Y-123554761D01*
X470408333Y-123602380D01*
X470313095Y-123602380D01*
X471598809Y-122935714D02*
X471598809Y-123602380D01*
X471170238Y-122935714D02*
X471170238Y-123459523D01*
X471217857Y-123554761D01*
X471313095Y-123602380D01*
X471455952Y-123602380D01*
X471551190Y-123554761D01*
X471598809Y-123507142D01*
X472075000Y-123602380D02*
X472075000Y-122935714D01*
X472075000Y-123030952D02*
X472122619Y-122983333D01*
X472217857Y-122935714D01*
X472360714Y-122935714D01*
X472455952Y-122983333D01*
X472503571Y-123078571D01*
X472503571Y-123602380D01*
X472503571Y-123078571D02*
X472551190Y-122983333D01*
X472646428Y-122935714D01*
X472789285Y-122935714D01*
X472884523Y-122983333D01*
X472932142Y-123078571D01*
X472932142Y-123602380D01*
X473408333Y-122935714D02*
X473408333Y-123935714D01*
X473408333Y-122983333D02*
X473503571Y-122935714D01*
X473694047Y-122935714D01*
X473789285Y-122983333D01*
X473836904Y-123030952D01*
X473884523Y-123126190D01*
X473884523Y-123411904D01*
X473836904Y-123507142D01*
X473789285Y-123554761D01*
X473694047Y-123602380D01*
X473503571Y-123602380D01*
X473408333Y-123554761D01*
X474694047Y-123554761D02*
X474598809Y-123602380D01*
X474408333Y-123602380D01*
X474313095Y-123554761D01*
X474265476Y-123459523D01*
X474265476Y-123078571D01*
X474313095Y-122983333D01*
X474408333Y-122935714D01*
X474598809Y-122935714D01*
X474694047Y-122983333D01*
X474741666Y-123078571D01*
X474741666Y-123173809D01*
X474265476Y-123269047D01*
X475170238Y-123602380D02*
X475170238Y-122935714D01*
X475170238Y-123126190D02*
X475217857Y-123030952D01*
X475265476Y-122983333D01*
X475360714Y-122935714D01*
X475455952Y-122935714D01*
X476884523Y-123078571D02*
X477027380Y-123126190D01*
X477075000Y-123173809D01*
X477122619Y-123269047D01*
X477122619Y-123411904D01*
X477075000Y-123507142D01*
X477027380Y-123554761D01*
X476932142Y-123602380D01*
X476551190Y-123602380D01*
X476551190Y-122602380D01*
X476884523Y-122602380D01*
X476979761Y-122650000D01*
X477027380Y-122697619D01*
X477075000Y-122792857D01*
X477075000Y-122888095D01*
X477027380Y-122983333D01*
X476979761Y-123030952D01*
X476884523Y-123078571D01*
X476551190Y-123078571D01*
X477551190Y-123602380D02*
X477551190Y-122935714D01*
X477551190Y-123126190D02*
X477598809Y-123030952D01*
X477646428Y-122983333D01*
X477741666Y-122935714D01*
X477836904Y-122935714D01*
X478170238Y-123602380D02*
X478170238Y-122935714D01*
X478170238Y-122602380D02*
X478122619Y-122650000D01*
X478170238Y-122697619D01*
X478217857Y-122650000D01*
X478170238Y-122602380D01*
X478170238Y-122697619D01*
X479075000Y-123602380D02*
X479075000Y-122602380D01*
X479075000Y-123554761D02*
X478979761Y-123602380D01*
X478789285Y-123602380D01*
X478694047Y-123554761D01*
X478646428Y-123507142D01*
X478598809Y-123411904D01*
X478598809Y-123126190D01*
X478646428Y-123030952D01*
X478694047Y-122983333D01*
X478789285Y-122935714D01*
X478979761Y-122935714D01*
X479075000Y-122983333D01*
X479979761Y-122935714D02*
X479979761Y-123745238D01*
X479932142Y-123840476D01*
X479884523Y-123888095D01*
X479789285Y-123935714D01*
X479646428Y-123935714D01*
X479551190Y-123888095D01*
X479979761Y-123554761D02*
X479884523Y-123602380D01*
X479694047Y-123602380D01*
X479598809Y-123554761D01*
X479551190Y-123507142D01*
X479503571Y-123411904D01*
X479503571Y-123126190D01*
X479551190Y-123030952D01*
X479598809Y-122983333D01*
X479694047Y-122935714D01*
X479884523Y-122935714D01*
X479979761Y-122983333D01*
X480836904Y-123554761D02*
X480741666Y-123602380D01*
X480551190Y-123602380D01*
X480455952Y-123554761D01*
X480408333Y-123459523D01*
X480408333Y-123078571D01*
X480455952Y-122983333D01*
X480551190Y-122935714D01*
X480741666Y-122935714D01*
X480836904Y-122983333D01*
X480884523Y-123078571D01*
X480884523Y-123173809D01*
X480408333Y-123269047D01*
X481741666Y-123602380D02*
X481741666Y-122602380D01*
X481741666Y-123554761D02*
X481646428Y-123602380D01*
X481455952Y-123602380D01*
X481360714Y-123554761D01*
X481313095Y-123507142D01*
X481265476Y-123411904D01*
X481265476Y-123126190D01*
X481313095Y-123030952D01*
X481360714Y-122983333D01*
X481455952Y-122935714D01*
X481646428Y-122935714D01*
X481741666Y-122983333D01*
D12*
%TO.C,U2*%
X420883000Y-102368000D02*
X420883000Y-117098000D01*
X370083000Y-102368000D02*
X420883000Y-102368000D01*
X370023000Y-118623000D02*
X420943000Y-118623000D01*
X370023000Y-100843000D02*
X370023000Y-118623000D01*
X420943000Y-118623000D02*
X420943000Y-100843000D01*
X371083000Y-117098000D02*
X370083000Y-116098000D01*
X420883000Y-117098000D02*
X371083000Y-117098000D01*
X370083000Y-116098000D02*
X370083000Y-102368000D01*
X420943000Y-100843000D02*
X370023000Y-100843000D01*
%TO.C,J0*%
X516311000Y-96394000D02*
X516951000Y-96394000D01*
X493451000Y-96394000D02*
X493451000Y-92034000D01*
X485831000Y-96394000D02*
X486471000Y-96394000D01*
X511871000Y-96394000D02*
X511871000Y-92034000D01*
X518851000Y-89494000D02*
X518851000Y-83494000D01*
X521391000Y-89494000D02*
X521391000Y-83494000D01*
X504251000Y-89494000D02*
X504251000Y-83494000D01*
X508691000Y-89494000D02*
X508691000Y-83494000D01*
X516311000Y-83494000D02*
X516951000Y-83494000D01*
X490911000Y-96394000D02*
X490911000Y-92034000D01*
X514411000Y-96394000D02*
X514411000Y-92034000D01*
X494091000Y-96394000D02*
X494091000Y-92034000D01*
X519491000Y-89494000D02*
X519491000Y-83494000D01*
X511231000Y-89494000D02*
X511231000Y-83494000D01*
X485831000Y-83494000D02*
X486471000Y-83494000D01*
X479801000Y-91399000D02*
X479801000Y-89494000D01*
X501071000Y-96394000D02*
X501711000Y-96394000D01*
X483291000Y-96394000D02*
X483291000Y-92034000D01*
X513771000Y-89494000D02*
X513771000Y-83494000D01*
X483291000Y-96394000D02*
X483931000Y-96394000D01*
X496631000Y-89494000D02*
X496631000Y-83494000D01*
X480751000Y-96394000D02*
X480751000Y-92034000D01*
X506151000Y-89494000D02*
X506151000Y-83494000D01*
X504251000Y-96394000D02*
X504251000Y-92034000D01*
X501071000Y-83494000D02*
X501711000Y-83494000D01*
X506791000Y-96394000D02*
X506791000Y-92034000D01*
X483931000Y-96394000D02*
X483931000Y-92034000D01*
X498531000Y-96394000D02*
X498531000Y-92034000D01*
X498531000Y-83494000D02*
X499171000Y-83494000D01*
X483291000Y-83494000D02*
X483931000Y-83494000D01*
X508691000Y-83494000D02*
X509331000Y-83494000D01*
X508691000Y-96394000D02*
X509331000Y-96394000D01*
X516311000Y-96394000D02*
X516311000Y-92034000D01*
X485831000Y-89494000D02*
X485831000Y-83494000D01*
X516311000Y-89494000D02*
X516311000Y-83494000D01*
X516951000Y-96394000D02*
X516951000Y-92034000D01*
X501071000Y-96394000D02*
X501071000Y-92034000D01*
X485831000Y-96394000D02*
X485831000Y-92034000D01*
X488371000Y-83494000D02*
X489011000Y-83494000D01*
X498531000Y-89494000D02*
X498531000Y-83494000D01*
X518851000Y-96394000D02*
X518851000Y-92034000D01*
X491551000Y-96394000D02*
X491551000Y-92034000D01*
X513771000Y-83494000D02*
X514411000Y-83494000D01*
X479801000Y-89494000D02*
X522981000Y-89494000D01*
X495991000Y-96394000D02*
X495991000Y-92034000D01*
X519491000Y-96394000D02*
X519491000Y-92034000D01*
X501711000Y-96394000D02*
X501711000Y-92034000D01*
X489011000Y-89494000D02*
X489011000Y-83494000D01*
X511231000Y-96394000D02*
X511231000Y-92034000D01*
X490911000Y-83494000D02*
X491551000Y-83494000D01*
X516951000Y-89494000D02*
X516951000Y-83494000D01*
X495991000Y-96394000D02*
X496631000Y-96394000D01*
X496631000Y-96394000D02*
X496631000Y-92034000D01*
X522981000Y-92034000D02*
X480436000Y-92034000D01*
X506791000Y-89494000D02*
X506791000Y-83494000D01*
X511871000Y-89494000D02*
X511871000Y-83494000D01*
X489011000Y-96394000D02*
X489011000Y-92034000D01*
X486471000Y-96394000D02*
X486471000Y-92034000D01*
X503611000Y-89494000D02*
X503611000Y-83494000D01*
X483291000Y-89494000D02*
X483291000Y-83494000D01*
X522031000Y-96394000D02*
X522031000Y-92034000D01*
X480751000Y-96394000D02*
X481391000Y-96394000D01*
X480436000Y-92034000D02*
X479801000Y-91399000D01*
X511231000Y-83494000D02*
X511871000Y-83494000D01*
X483931000Y-89494000D02*
X483931000Y-83494000D01*
X522981000Y-89494000D02*
X522981000Y-92034000D01*
X488371000Y-89494000D02*
X488371000Y-83494000D01*
X495991000Y-89494000D02*
X495991000Y-83494000D01*
X488371000Y-96394000D02*
X489011000Y-96394000D01*
X501711000Y-89494000D02*
X501711000Y-83494000D01*
X522031000Y-89494000D02*
X522031000Y-83494000D01*
X486471000Y-89494000D02*
X486471000Y-83494000D01*
X513771000Y-96394000D02*
X513771000Y-92034000D01*
X509331000Y-89494000D02*
X509331000Y-83494000D01*
X514411000Y-89494000D02*
X514411000Y-83494000D01*
X518851000Y-83494000D02*
X519491000Y-83494000D01*
X495991000Y-83494000D02*
X496631000Y-83494000D01*
X511231000Y-96394000D02*
X511871000Y-96394000D01*
X503611000Y-96394000D02*
X504251000Y-96394000D01*
X498531000Y-96394000D02*
X499171000Y-96394000D01*
X493451000Y-83494000D02*
X494091000Y-83494000D01*
X480751000Y-83494000D02*
X481391000Y-83494000D01*
X481391000Y-96394000D02*
X481391000Y-92034000D01*
X493451000Y-96394000D02*
X494091000Y-96394000D01*
X521391000Y-96394000D02*
X521391000Y-92034000D01*
X499171000Y-96394000D02*
X499171000Y-92034000D01*
X501071000Y-89494000D02*
X501071000Y-83494000D01*
X518851000Y-96394000D02*
X519491000Y-96394000D01*
X506151000Y-96394000D02*
X506791000Y-96394000D01*
X506151000Y-83494000D02*
X506791000Y-83494000D01*
X503611000Y-96394000D02*
X503611000Y-92034000D01*
X503611000Y-83494000D02*
X504251000Y-83494000D01*
X493451000Y-89494000D02*
X493451000Y-83494000D01*
X488371000Y-96394000D02*
X488371000Y-92034000D01*
X509331000Y-96394000D02*
X509331000Y-92034000D01*
X506151000Y-96394000D02*
X506151000Y-92034000D01*
X521391000Y-83494000D02*
X522031000Y-83494000D01*
X521391000Y-96394000D02*
X522031000Y-96394000D01*
X481391000Y-89494000D02*
X481391000Y-83494000D01*
X490911000Y-96394000D02*
X491551000Y-96394000D01*
X499171000Y-89494000D02*
X499171000Y-83494000D01*
X513771000Y-96394000D02*
X514411000Y-96394000D01*
X480751000Y-89494000D02*
X480751000Y-83494000D01*
X491551000Y-89494000D02*
X491551000Y-83494000D01*
X494091000Y-89494000D02*
X494091000Y-83494000D01*
X490911000Y-89494000D02*
X490911000Y-83494000D01*
X508691000Y-96394000D02*
X508691000Y-92034000D01*
%TO.C,U1*%
X238231000Y-117073000D02*
X237231000Y-116073000D01*
X267711000Y-117073000D02*
X238231000Y-117073000D01*
X237231000Y-116073000D02*
X237231000Y-102343000D01*
X237231000Y-102343000D02*
X267711000Y-102343000D01*
X267711000Y-102343000D02*
X267711000Y-117073000D01*
%TO.C,J3_2*%
X333756000Y-98933000D02*
X324231000Y-98933000D01*
X324231000Y-98933000D02*
X323596000Y-98298000D01*
X323596000Y-96393000D02*
X333756000Y-96393000D01*
X323596000Y-98298000D02*
X323596000Y-96393000D01*
X333756000Y-96393000D02*
X333756000Y-98933000D01*
%TO.C,J3_1*%
X312303000Y-96393000D02*
X322463000Y-96393000D01*
X322463000Y-96393000D02*
X322463000Y-98933000D01*
X312938000Y-98933000D02*
X312303000Y-98298000D01*
X322463000Y-98933000D02*
X312938000Y-98933000D01*
X312303000Y-98298000D02*
X312303000Y-96393000D01*
%TD*%
M02*
