M48
; DRILL file {KiCad (6.0.5-0)} date Monday, June 13, 2022 at 02:34:46 AM
; FORMAT={-:-/ absolute / inch / decimal}
; #@! TF.CreationDate,2022-06-13T02:34:46-04:00
; #@! TF.GenerationSoftware,Kicad,Pcbnew,(6.0.5-0)
; #@! TF.FileFunction,NonPlated,1,2,NPTH
FMAT,2
INCH
; #@! TA.AperFunction,NonPlated,NPTH,ComponentDrill
T1C0.0984
%
G90
G05
T1
X2.7874Y-9.5315
X3.122Y-4.8543
X3.1339Y-9.6024
X3.2539Y-6.8583
X4.8583Y-6.8583
X6.1265Y-4.8543
X6.1378Y-9.6024
X6.6201Y-6.8583
X6.811Y-7.6181
X7.1949Y-8.3465
X7.1949Y-9.1339
X9.1417Y-9.6024
X9.1486Y-4.813
X9.622Y-6.8583
X12.1353Y-4.8543
X12.1457Y-9.6024
X12.624Y-6.8583
X15.1398Y-4.8543
X15.1496Y-9.6024
X15.4528Y-8.3465
X15.4528Y-9.124
X15.6378Y-6.8583
X15.8366Y-7.6083
X16.502Y-6.8583
X16.7598Y-5.3406
X16.7598Y-6.1181
X18.1417Y-4.8543
X18.1535Y-9.6024
X18.2579Y-8.3465
X18.2638Y-6.8583
X20.3858Y-4.8543
X20.3976Y-9.5827
X20.5197Y-6.8583
X20.7106Y-9.5315
T0
M30
