M48
; DRILL file {KiCad (6.0.5-0)} date Friday, June 24, 2022 at 09:41:24 PM
; FORMAT={-:-/ absolute / inch / decimal}
; #@! TF.CreationDate,2022-06-24T21:41:24-04:00
; #@! TF.GenerationSoftware,Kicad,Pcbnew,(6.0.5-0)
; #@! TF.FileFunction,Plated,1,2,PTH
FMAT,2
INCH
; #@! TA.AperFunction,Plated,PTH,ComponentDrill
T1C0.0276
; #@! TA.AperFunction,Plated,PTH,ComponentDrill
T2C0.0315
; #@! TA.AperFunction,Plated,PTH,ComponentDrill
T3C0.0394
%
G90
G05
T1
X2.9852Y-5.2504
X2.9852Y-5.3504
X2.9852Y-5.4504
X2.9852Y-6.0004
X2.9852Y-6.1004
X2.9852Y-6.2004
X2.9852Y-6.7504
X2.9852Y-6.8504
X2.9852Y-6.9504
X2.9852Y-7.5004
X2.9852Y-7.6004
X2.9852Y-7.7004
X2.9852Y-8.2504
X2.9852Y-8.3504
X2.9852Y-8.4504
X2.9852Y-9.0004
X2.9852Y-9.1004
X2.9852Y-9.2004
X3.7352Y-5.2504
X3.7352Y-5.3504
X3.7352Y-5.4504
X3.7352Y-6.0004
X3.7352Y-6.1004
X3.7352Y-6.2004
X3.7352Y-6.7504
X3.7352Y-6.8504
X3.7352Y-6.9504
X3.7352Y-7.5004
X3.7352Y-7.6004
X3.7352Y-7.7004
X3.7352Y-8.2504
X3.7352Y-8.3504
X3.7352Y-8.4504
X3.7352Y-9.0004
X3.7352Y-9.1004
X3.7352Y-9.2004
X4.4852Y-5.2504
X4.4852Y-5.3504
X4.4852Y-5.4504
X4.4852Y-6.0004
X4.4852Y-6.1004
X4.4852Y-6.2004
X4.4852Y-6.7504
X4.4852Y-6.8504
X4.4852Y-6.9504
X4.4852Y-7.5004
X4.4852Y-7.6004
X4.4852Y-7.7004
X4.4852Y-8.2504
X4.4852Y-8.3504
X4.4852Y-8.4504
X4.4852Y-9.0004
X4.4852Y-9.1004
X4.4852Y-9.2004
X5.2352Y-5.2504
X5.2352Y-5.3504
X5.2352Y-5.4504
X5.2352Y-6.0004
X5.2352Y-6.1004
X5.2352Y-6.2004
X5.2352Y-6.7504
X5.2352Y-6.8504
X5.2352Y-6.9504
X5.2352Y-7.5004
X5.2352Y-7.6004
X5.2352Y-7.7004
X5.2352Y-8.2504
X5.2352Y-8.3504
X5.2352Y-8.4504
X5.2352Y-9.0004
X5.2352Y-9.1004
X5.2352Y-9.2004
X5.9852Y-5.2504
X5.9852Y-5.3504
X5.9852Y-5.4504
X5.9852Y-6.0004
X5.9852Y-6.1004
X5.9852Y-6.2004
X6.1727Y-8.2504
X6.1727Y-8.3504
X6.1727Y-8.4504
X6.3602Y-6.7504
X6.3602Y-6.8504
X6.3602Y-6.9504
X6.5477Y-7.5004
X6.5477Y-7.6004
X6.5477Y-7.7004
X6.7352Y-5.2504
X6.7352Y-5.3504
X6.7352Y-5.4504
X6.7352Y-6.0004
X6.7352Y-6.1004
X6.7352Y-6.2004
X6.9227Y-8.2504
X6.9227Y-8.3504
X6.9227Y-8.4504
X6.9227Y-9.0004
X6.9227Y-9.1004
X6.9227Y-9.2004
X7.1102Y-6.7504
X7.1102Y-6.8504
X7.1102Y-6.9504
X7.2977Y-7.5004
X7.2977Y-7.6004
X7.2977Y-7.7004
X7.4852Y-5.2504
X7.4852Y-5.3504
X7.4852Y-5.4504
X7.4852Y-6.0004
X7.4852Y-6.1004
X7.4852Y-6.2004
X7.6727Y-8.2504
X7.6727Y-8.3504
X7.6727Y-8.4504
X7.6727Y-9.0004
X7.6727Y-9.1004
X7.6727Y-9.2004
X7.8602Y-6.7504
X7.8602Y-6.8504
X7.8602Y-6.9504
X8.0477Y-7.5004
X8.0477Y-7.6004
X8.0477Y-7.7004
X8.2352Y-5.2504
X8.2352Y-5.3504
X8.2352Y-5.4504
X8.2352Y-6.0004
X8.2352Y-6.1004
X8.2352Y-6.2004
X8.4227Y-8.2504
X8.4227Y-8.3504
X8.4227Y-8.4504
X8.6102Y-6.7504
X8.6102Y-6.8504
X8.6102Y-6.9504
X8.7977Y-7.5004
X8.7977Y-7.6004
X8.7977Y-7.7004
X8.9852Y-5.2504
X8.9852Y-5.3504
X8.9852Y-5.4504
X8.9852Y-6.0004
X8.9852Y-6.1004
X8.9852Y-6.2004
X9.1727Y-8.2504
X9.1727Y-8.3504
X9.1727Y-8.4504
X9.3602Y-6.7504
X9.3602Y-6.8504
X9.3602Y-6.9504
X9.5477Y-7.5004
X9.5477Y-7.6004
X9.5477Y-7.7004
X9.7352Y-5.2504
X9.7352Y-5.3504
X9.7352Y-5.4504
X9.7352Y-6.0004
X9.7352Y-6.1004
X9.7352Y-6.2004
X9.9227Y-8.2504
X9.9227Y-8.3504
X9.9227Y-8.4504
X10.1102Y-6.7504
X10.1102Y-6.8504
X10.1102Y-6.9504
X10.2977Y-7.5004
X10.2977Y-7.6004
X10.2977Y-7.7004
X10.4852Y-5.2504
X10.4852Y-5.3504
X10.4852Y-5.4504
X10.4852Y-6.0004
X10.4852Y-6.1004
X10.4852Y-6.2004
X10.6727Y-8.2504
X10.6727Y-8.3504
X10.6727Y-8.4504
X10.8602Y-6.7504
X10.8602Y-6.8504
X10.8602Y-6.9504
X11.0477Y-7.5004
X11.0477Y-7.6004
X11.0477Y-7.7004
X11.0477Y-9.0004
X11.0477Y-9.1004
X11.0477Y-9.2004
X11.2352Y-5.2504
X11.2352Y-5.3504
X11.2352Y-5.4504
X11.2352Y-6.0004
X11.2352Y-6.1004
X11.2352Y-6.2004
X11.4227Y-8.2504
X11.4227Y-8.3504
X11.4227Y-8.4504
X11.6102Y-6.7504
X11.6102Y-6.8504
X11.6102Y-6.9504
X11.7977Y-7.5004
X11.7977Y-7.6004
X11.7977Y-7.7004
X11.9852Y-5.2504
X11.9852Y-5.3504
X11.9852Y-5.4504
X11.9852Y-6.0004
X11.9852Y-6.1004
X11.9852Y-6.2004
X12.1727Y-8.2504
X12.1727Y-8.3504
X12.1727Y-8.4504
X12.3602Y-6.7504
X12.3602Y-6.8504
X12.3602Y-6.9504
X12.5477Y-7.5004
X12.5477Y-7.6004
X12.5477Y-7.7004
X12.7352Y-6.0004
X12.7352Y-6.1004
X12.7352Y-6.2004
X12.7352Y-5.2504
X12.7352Y-5.3504
X12.7352Y-5.4504
X12.9227Y-8.2504
X12.9227Y-8.3504
X12.9227Y-8.4504
X13.1102Y-6.7504
X13.1102Y-6.8504
X13.1102Y-6.9504
X13.2977Y-7.5004
X13.2977Y-7.6004
X13.2977Y-7.7004
X13.4852Y-5.2504
X13.4852Y-5.3504
X13.4852Y-5.4504
X13.4852Y-6.0004
X13.4852Y-6.1004
X13.4852Y-6.2004
X13.6727Y-8.2504
X13.6727Y-8.3504
X13.6727Y-8.4504
X13.6727Y-9.0004
X13.6727Y-9.1004
X13.6727Y-9.2004
X13.8602Y-6.7504
X13.8602Y-6.8504
X13.8602Y-6.9504
X14.0477Y-7.5004
X14.0477Y-7.6004
X14.0477Y-7.7004
X14.2352Y-5.2504
X14.2352Y-5.3504
X14.2352Y-5.4504
X14.2352Y-6.0004
X14.2352Y-6.1004
X14.2352Y-6.2004
X14.4227Y-8.2504
X14.4227Y-8.3504
X14.4227Y-8.4504
X14.4227Y-9.0004
X14.4227Y-9.1004
X14.4227Y-9.2004
X14.6102Y-6.7504
X14.6102Y-6.8504
X14.6102Y-6.9504
X14.7977Y-7.5004
X14.7977Y-7.6004
X14.7977Y-7.7004
X14.9852Y-5.2504
X14.9852Y-5.3504
X14.9852Y-5.4504
X14.9852Y-6.0004
X14.9852Y-6.1004
X14.9852Y-6.2004
X15.1727Y-8.2504
X15.1727Y-8.3504
X15.1727Y-8.4504
X15.1727Y-9.0004
X15.1727Y-9.1004
X15.1727Y-9.2004
X15.3602Y-6.7504
X15.3602Y-6.8504
X15.3602Y-6.9504
X15.5477Y-7.5004
X15.5477Y-7.6004
X15.5477Y-7.7004
X15.7352Y-5.2504
X15.7352Y-5.3504
X15.7352Y-5.4504
X15.7352Y-6.0004
X15.7352Y-6.1004
X15.7352Y-6.2004
X15.9227Y-8.2504
X15.9227Y-8.3504
X15.9227Y-8.4504
X16.1102Y-6.7504
X16.1102Y-6.8504
X16.1102Y-6.9504
X16.2977Y-7.5004
X16.2977Y-7.6004
X16.2977Y-7.7004
X16.4852Y-5.2504
X16.4852Y-5.3504
X16.4852Y-5.4504
X16.4852Y-6.0004
X16.4852Y-6.1004
X16.4852Y-6.2004
X16.6727Y-8.2504
X16.6727Y-8.3504
X16.6727Y-8.4504
X16.8602Y-6.7504
X16.8602Y-6.8504
X16.8602Y-6.9504
X17.0477Y-7.5004
X17.0477Y-7.6004
X17.0477Y-7.7004
X17.2352Y-5.2504
X17.2352Y-5.3504
X17.2352Y-5.4504
X17.2352Y-6.0004
X17.2352Y-6.1004
X17.2352Y-6.2004
X17.9852Y-5.2504
X17.9852Y-5.3504
X17.9852Y-5.4504
X17.9852Y-6.0004
X17.9852Y-6.1004
X17.9852Y-6.2004
X17.9852Y-6.7504
X17.9852Y-6.8504
X17.9852Y-6.9504
X17.9852Y-7.5004
X17.9852Y-7.6004
X17.9852Y-7.7004
X17.9852Y-8.2504
X17.9852Y-8.3504
X17.9852Y-8.4504
X17.9852Y-9.0004
X17.9852Y-9.1004
X17.9852Y-9.2004
X18.7352Y-5.2504
X18.7352Y-5.3504
X18.7352Y-5.4504
X18.7352Y-6.0004
X18.7352Y-6.1004
X18.7352Y-6.2004
X18.7352Y-6.7504
X18.7352Y-6.8504
X18.7352Y-6.9504
X18.7352Y-7.5004
X18.7352Y-7.6004
X18.7352Y-7.7004
X18.7352Y-8.2504
X18.7352Y-8.3504
X18.7352Y-8.4504
X18.7352Y-9.0004
X18.7352Y-9.1004
X18.7352Y-9.2004
X19.4852Y-5.2504
X19.4852Y-5.3504
X19.4852Y-5.4504
X19.4852Y-6.0004
X19.4852Y-6.1004
X19.4852Y-6.2004
X19.4852Y-6.7504
X19.4852Y-6.8504
X19.4852Y-6.9504
X19.4852Y-7.5004
X19.4852Y-7.6004
X19.4852Y-7.7004
X19.4852Y-8.2504
X19.4852Y-8.3504
X19.4852Y-8.4504
X19.4852Y-9.0004
X19.4852Y-9.1004
X19.4852Y-9.2004
X20.2352Y-5.2504
X20.2352Y-5.3504
X20.2352Y-5.4504
X20.2352Y-6.0004
X20.2352Y-6.1004
X20.2352Y-6.2004
X20.2352Y-6.7504
X20.2352Y-6.8504
X20.2352Y-6.9504
X20.2352Y-7.5004
X20.2352Y-7.6004
X20.2352Y-7.7004
X20.2352Y-8.2504
X20.2352Y-8.3504
X20.2352Y-8.4504
X20.2352Y-9.0004
X20.2352Y-9.1004
X20.2352Y-9.2004
T2
X9.3898Y-4.0192
X9.3898Y-4.6192
X9.4898Y-4.0192
X9.4898Y-4.6192
X9.5898Y-4.0192
X9.5898Y-4.6192
X9.6898Y-4.0192
X9.6898Y-4.6192
X9.7898Y-4.0192
X9.7898Y-4.6192
X9.8898Y-4.0192
X9.8898Y-4.6192
X9.9898Y-4.0192
X9.9898Y-4.6192
X10.0898Y-4.0192
X10.0898Y-4.6192
X10.1898Y-4.0192
X10.1898Y-4.6192
X10.2898Y-4.0192
X10.2898Y-4.6192
X10.3898Y-4.0192
X10.3898Y-4.6192
X10.4898Y-4.0192
X10.4898Y-4.6192
X14.6202Y-4.0202
X14.6202Y-4.6202
X14.7202Y-4.0202
X14.7202Y-4.6202
X14.8202Y-4.0202
X14.8202Y-4.6202
X14.9202Y-4.0202
X14.9202Y-4.6202
X15.0202Y-4.0202
X15.0202Y-4.6202
X15.1202Y-4.0202
X15.1202Y-4.6202
X15.2202Y-4.0202
X15.2202Y-4.6202
X15.3202Y-4.0202
X15.3202Y-4.6202
X15.4202Y-4.0202
X15.4202Y-4.6202
X15.5202Y-4.0202
X15.5202Y-4.6202
X15.6202Y-4.0202
X15.6202Y-4.6202
X15.7202Y-4.0202
X15.7202Y-4.6202
X15.8202Y-4.0202
X15.8202Y-4.6202
X15.9202Y-4.0202
X15.9202Y-4.6202
X16.0202Y-4.0202
X16.0202Y-4.6202
X16.1202Y-4.0202
X16.1202Y-4.6202
X16.2202Y-4.0202
X16.2202Y-4.6202
X16.3202Y-4.0202
X16.3202Y-4.6202
X16.4202Y-4.0202
X16.4202Y-4.6202
X16.5202Y-4.0202
X16.5202Y-4.6202
T3
X2.7831Y-5.6138
X2.7831Y-6.3228
X2.7831Y-6.402
X2.7831Y-7.0496
X2.7831Y-7.1354
X2.7831Y-7.8217
X2.8319Y-3.4453
X2.8319Y-3.8969
X2.9524Y-5.7551
X2.9579Y-3.4453
X2.9579Y-3.8969
X3.0756Y-4.1146
X3.0839Y-3.4453
X3.0839Y-3.8969
X3.2098Y-3.4453
X3.2098Y-3.8969
X3.4094Y-5.7551
X3.5256Y-5.4772
X3.5256Y-6.2126
X3.5256Y-6.528
X3.5256Y-6.9512
X3.5256Y-7.2563
X3.5256Y-7.7012
X3.5256Y-7.9937
X3.5256Y-8.4583
X3.5256Y-8.5732
X3.5256Y-9.2016
X3.6106Y-3.5122
X3.6106Y-3.9689
X3.7366Y-3.5122
X3.7366Y-3.9689
X3.837Y-4.1146
X3.8626Y-3.5122
X3.8626Y-3.9689
X3.9886Y-3.5122
X3.9886Y-3.9689
X4.0886Y-4.9657
X4.0921Y-4.3646
X4.278Y-5.7551
X4.278Y-6.2138
X4.278Y-6.5185
X4.278Y-6.9508
X4.278Y-7.2677
X4.278Y-7.7016
X4.278Y-8.0579
X4.278Y-8.4988
X4.278Y-8.6197
X4.278Y-9.2866
X4.2917Y-3.5185
X4.2917Y-3.965
X4.4126Y-3.5185
X4.4126Y-3.965
X4.5886Y-3.5417
X4.5886Y-3.9937
X4.5961Y-4.2539
X4.5961Y-4.3646
X4.7067Y-4.1146
X4.7197Y-3.5417
X4.7197Y-3.9937
X4.8063Y-4.9657
X4.8398Y-4.3543
X4.8398Y-4.4803
X4.8398Y-4.6063
X4.8398Y-4.7323
X4.9177Y-3.5413
X4.9177Y-3.9933
X4.9272Y-4.9657
X5.0248Y-5.648
X5.0248Y-6.2126
X5.0248Y-6.4858
X5.0248Y-7.1839
X5.0248Y-7.3256
X5.0248Y-7.9476
X5.0248Y-8.1102
X5.0248Y-8.5618
X5.0248Y-8.6724
X5.0248Y-9.3339
X5.0331Y-3.5413
X5.0331Y-3.9933
X5.1425Y-5.7559
X5.1575Y-3.5122
X5.1575Y-3.9642
X5.1949Y-4.1146
X5.2941Y-3.5122
X5.2941Y-3.9642
X5.3157Y-4.1146
X5.35Y-4.2535
X5.4783Y-3.7602
X5.5626Y-4.9657
X5.5626Y-5.7559
X5.6016Y-4.3543
X5.6016Y-4.4803
X5.6016Y-4.6063
X5.6016Y-4.7323
X5.7449Y-5.0992
X5.7449Y-5.7346
X5.7449Y-5.8555
X5.7449Y-6.2756
X5.7449Y-8.189
X5.7449Y-8.9402
X5.7465Y-4.1146
X5.8323Y-3.9626
X5.8323Y-4.7087
X5.861Y-7.6563
X5.861Y-8.4043
X5.9303Y-3.7654
X5.9579Y-7.9819
X5.9579Y-8.5146
X5.9579Y-8.6567
X5.9579Y-9.1976
X5.9579Y-9.3236
X6.1606Y-6.585
X6.1606Y-7.0157
X6.324Y-7.3362
X6.324Y-7.8201
X6.4913Y-5.0941
X6.4913Y-5.8287
X6.4913Y-5.9654
X6.4913Y-6.3961
X6.7303Y-8.0457
X6.7303Y-8.4811
X6.7303Y-8.8382
X6.7303Y-9.1996
X6.7303Y-9.3236
X6.8776Y-7.9819
X6.9012Y-6.5799
X6.9012Y-7.0197
X7.0807Y-7.3504
X7.0807Y-7.8201
X7.237Y-5.3075
X7.237Y-6.0827
X7.3051Y-5.026
X7.3051Y-5.6413
X7.3051Y-5.7886
X7.3051Y-6.2087
X7.4744Y-8.0512
X7.4744Y-8.4953
X7.5654Y-7.9819
X7.6201Y-6.7075
X7.6201Y-7.1508
X7.6969Y-7.9819
X7.7147Y-6.592
X7.7147Y-7.0142
X7.7913Y-7.4661
X7.7913Y-7.8724
X7.8906Y-7.3346
X7.8906Y-7.7992
X8.0118Y-5.0941
X8.0118Y-5.7358
X8.0118Y-5.8618
X8.0118Y-6.2925
X8.1835Y-8.2378
X8.1835Y-9.0012
X8.2783Y-8.0803
X8.2783Y-8.6634
X8.3921Y-6.5972
X8.3921Y-7.0331
X8.3921Y-7.9819
X8.6126Y-7.348
X8.6126Y-7.8236
X8.765Y-5.1445
X8.765Y-5.8043
X8.765Y-5.9252
X8.765Y-6.3433
X8.9772Y-8.0303
X8.9772Y-8.5256
X9.0831Y-3.9366
X9.0831Y-4.3461
X9.1528Y-6.6535
X9.1528Y-7.0248
X9.3372Y-7.3343
X9.3372Y-7.8189
X9.5362Y-5.2382
X9.5362Y-5.8634
X9.5362Y-5.9803
X9.5362Y-6.4213
X9.7181Y-8.0098
X9.7181Y-8.5154
X9.7181Y-8.7008
X9.7181Y-9.4252
X9.9106Y-6.6071
X9.9106Y-7.0299
X10.0862Y-7.3394
X10.0862Y-7.778
X10.2913Y-5.2063
X10.2913Y-5.8701
X10.2913Y-5.987
X10.2913Y-6.4421
X10.4626Y-8.015
X10.4626Y-8.524
X10.6587Y-6.6071
X10.6587Y-7.0248
X10.8339Y-7.3394
X10.8339Y-7.7661
X10.8437Y-4.4197
X10.9823Y-5.4748
X10.9823Y-6.1823
X11.0669Y-5.1343
X11.0669Y-5.7945
X11.0669Y-5.9106
X11.0669Y-6.3374
X11.1949Y-8.0134
X11.1949Y-8.524
X11.2803Y-4.4197
X11.4114Y-6.6004
X11.4114Y-7.0181
X11.5768Y-7.3327
X11.5768Y-7.7661
X11.6705Y-4.5142
X11.6705Y-4.6382
X11.6772Y-4.3878
X11.774Y-5.1445
X11.774Y-5.7843
X11.774Y-5.9118
X11.774Y-6.3323
X11.9437Y-8.0291
X11.9437Y-8.524
X12.0799Y-4.5142
X12.0799Y-4.6382
X12.0866Y-4.3878
X12.1748Y-6.5902
X12.1748Y-7.0287
X12.3346Y-7.3484
X12.3346Y-7.761
X12.3429Y-4.7409
X12.3445Y-3.9748
X12.3445Y-4.0935
X12.3445Y-4.2248
X12.3445Y-4.3561
X12.3445Y-4.4874
X12.3445Y-4.6187
X12.3454Y-3.845
X12.4454Y-3.845
X12.4807Y-4.9665
X12.4807Y-5.6827
X12.5454Y-3.845
X12.5496Y-5.1555
X12.5496Y-5.5614
X12.5496Y-5.8476
X12.5496Y-6.3583
X12.6454Y-3.845
X12.6957Y-7.9618
X12.6957Y-8.4469
X12.7642Y-4.5413
X12.79Y-3.845
X12.8402Y-6.5177
X12.8402Y-6.9575
X12.89Y-3.845
X12.9587Y-6.6366
X12.9587Y-7.0697
X12.99Y-3.845
X13.0618Y-7.3378
X13.0618Y-7.7713
X13.09Y-3.845
X13.0902Y-3.9748
X13.0902Y-4.0935
X13.0902Y-4.2248
X13.0902Y-4.3561
X13.0902Y-4.4874
X13.0902Y-4.6187
X13.0933Y-4.7409
X13.1976Y-4.5413
X13.2752Y-5.2417
X13.2752Y-5.6878
X13.2752Y-5.8063
X13.2752Y-6.4098
X13.3768Y-8.2496
X13.3768Y-8.9992
X13.4091Y-3.7787
X13.4091Y-4.2669
X13.4488Y-7.9827
X13.4488Y-8.5291
X13.5382Y-3.7787
X13.5382Y-4.2669
X13.6343Y-6.5736
X13.6343Y-7.0287
X13.6551Y-4.1732
X13.6551Y-4.6193
X13.778Y-4.1921
X13.778Y-4.6433
X13.7858Y-7.2756
X13.7858Y-7.7193
X13.8634Y-7.4102
X13.8634Y-7.8331
X13.9005Y-4.1921
X13.9005Y-4.6433
X13.985Y-5.2713
X13.985Y-5.7291
X13.985Y-5.8374
X13.985Y-6.4406
X14.0231Y-4.1921
X14.0231Y-4.6433
X14.1457Y-4.1921
X14.1457Y-4.6433
X14.1654Y-5.7154
X14.1661Y-8.0496
X14.1661Y-8.5437
X14.2303Y-8.3236
X14.2303Y-9.0657
X14.2791Y-7.9413
X14.2945Y-6.4917
X14.3315Y-4.7673
X14.3925Y-8.0031
X14.4051Y-6.6386
X14.4051Y-7.0512
X14.578Y-7.2378
X14.578Y-7.3638
X14.578Y-7.7248
X14.7161Y-7.1744
X14.7689Y-5.8937
X14.7689Y-6.3244
X14.8083Y-4.7673
X14.8268Y-8.0031
X14.8398Y-4.9311
X14.8398Y-5.3917
X14.8677Y-3.8524
X14.9087Y-5.7154
X14.9417Y-8.2051
X14.9417Y-8.9795
X15.0299Y-6.4917
X15.0311Y-7.9413
X15.072Y-3.7669
X15.3134Y-7.2378
X15.3276Y-7.3902
X15.3276Y-7.8299
X15.3559Y-3.8524
X15.4961Y-5.6008
X15.4961Y-6.3437
X15.5Y-7.1744
X15.5602Y-3.7669
X15.5701Y-5.4496
X15.5701Y-6.1587
X15.6Y-3.8528
X15.7094Y-8.4496
X15.7094Y-9.1976
X16.0126Y-9.011
X16.0126Y-9.4579
X16.0882Y-3.8528
X16.2079Y-3.8606
X16.252Y-8.8693
X16.252Y-9.313
X16.2705Y-3.5311
X16.2705Y-3.7315
X16.2854Y-5.4638
X16.2854Y-6.1992
X16.3705Y-3.6339
X16.4669Y-7.9571
X16.4669Y-8.3972
X16.6346Y-3.8606
X16.7587Y-3.5311
X16.7587Y-3.7315
X16.8512Y-4.7583
X16.8587Y-3.6339
X16.8587Y-7.3386
X16.8587Y-7.7831
X17.0504Y-5.4701
X17.0504Y-6.1992
X17.1657Y-3.485
X17.1657Y-3.9295
X17.1657Y-4.6516
X17.2937Y-4.7583
X17.3224Y-4.1906
X17.3224Y-4.3594
X17.3469Y-8.3161
X17.3469Y-9.0484
X17.4287Y-3.974
X17.4287Y-4.0909
X17.6524Y-7.7323
X17.6524Y-7.8528
X17.6524Y-8.4945
X17.6528Y-7.0106
X17.7795Y-4.1906
X17.7795Y-4.3661
X17.7831Y-7.7323
X17.7831Y-7.8528
X17.7831Y-8.4945
X17.7835Y-5.4772
X17.7835Y-6.1992
X17.7835Y-7.0106
X17.876Y-3.974
X17.876Y-4.0909
X18.4146Y-4.7343
X18.4713Y-6.0028
X18.4713Y-6.7496
X18.4886Y-7.7976
X18.4886Y-8.3059
X18.5594Y-5.4669
X18.5594Y-6.1992
X18.5606Y-8.5681
X18.5606Y-9.2957
X18.5969Y-4.6343
X18.6Y-7.0626
X18.6Y-7.7173
X18.8547Y-4.7343
X18.9398Y-3.6824
X18.9398Y-3.7824
X19.0398Y-3.6824
X19.0398Y-3.7824
X19.0476Y-4.6343
X19.1398Y-3.6824
X19.1398Y-3.7824
X19.2398Y-3.6824
X19.2398Y-3.7824
X19.248Y-5.4669
X19.248Y-6.2028
X19.248Y-6.9591
X19.248Y-7.6976
X19.248Y-7.8283
X19.248Y-8.3059
X19.248Y-8.513
X19.248Y-9.0764
X19.3169Y-7.9933
X19.3169Y-8.513
X19.3398Y-3.6824
X19.3398Y-3.7824
X19.4398Y-3.6824
X19.4398Y-3.7824
X19.5398Y-3.6824
X19.5398Y-3.7824
X19.6398Y-3.6824
X19.6398Y-3.7824
X19.6461Y-4.3732
X19.7323Y-4.6102
X19.7398Y-3.6824
X19.7398Y-3.7824
X19.8398Y-3.6824
X19.8398Y-3.7824
X19.9398Y-3.6824
X19.9398Y-3.7824
X20.0394Y-5.4799
X20.0394Y-6.1992
X20.0398Y-3.6824
X20.0398Y-3.7824
X20.0445Y-8.2882
X20.0445Y-9.0272
X20.1398Y-3.6824
X20.1398Y-3.7824
X20.2398Y-3.6824
X20.2398Y-3.7824
X20.3154Y-4.3732
X20.3398Y-3.6824
X20.3398Y-3.7824
X20.4197Y-4.2075
X20.4327Y-4.372
X20.4398Y-3.6824
X20.4398Y-3.7824
X20.5398Y-3.6824
X20.5398Y-3.7824
X20.7165Y-4.6102
X20.8421Y-4.372
X20.848Y-4.2083
T0
M30
