%TF.GenerationSoftware,KiCad,Pcbnew,(6.0.5-0)*%
%TF.CreationDate,2022-06-24T21:41:21-04:00*%
%TF.ProjectId,SpaceCadet,53706163-6543-4616-9465-742e6b696361,rev?*%
%TF.SameCoordinates,Original*%
%TF.FileFunction,Soldermask,Bot*%
%TF.FilePolarity,Negative*%
%FSLAX46Y46*%
G04 Gerber Fmt 4.6, Leading zero omitted, Abs format (unit mm)*
G04 Created by KiCad (PCBNEW (6.0.5-0)) date 2022-06-24 21:41:21*
%MOMM*%
%LPD*%
G01*
G04 APERTURE LIST*
%TA.AperFunction,Profile*%
%ADD10C,0.100000*%
%TD*%
%ADD11C,0.120000*%
%ADD12C,2.346000*%
%ADD13C,2.000000*%
%ADD14C,2.500000*%
%ADD15O,2.286000X1.300000*%
%ADD16R,1.600000X2.400000*%
%ADD17O,1.600000X2.400000*%
%ADD18R,1.700000X1.700000*%
%ADD19O,1.700000X1.700000*%
G04 APERTURE END LIST*
D10*
X64250000Y-81300000D02*
X533250000Y-81300000D01*
X533250000Y-81300000D02*
X533250000Y-247900000D01*
X533250000Y-247900000D02*
X64250000Y-247900000D01*
X64250000Y-247900000D02*
X64250000Y-81300000D01*
D11*
%TO.C,SW91*%
X454539000Y-196034500D02*
X459111000Y-196034500D01*
X459111000Y-196034500D02*
X459111000Y-190065500D01*
X459111000Y-190065500D02*
X454539000Y-190065500D01*
X454539000Y-190065500D02*
X454539000Y-196034500D01*
G36*
X454539000Y-196034500D02*
G01*
X459111000Y-196034500D01*
X459111000Y-190065500D01*
X454539000Y-190065500D01*
X454539000Y-196034500D01*
G37*
D12*
X457998000Y-196034500D02*
G75*
G03*
X457998000Y-196034500I-1173000J0D01*
G01*
X457998000Y-190065500D02*
G75*
G03*
X457998000Y-190065500I-1173000J0D01*
G01*
D11*
%TO.C,SW73*%
X92589000Y-196034500D02*
X97161000Y-196034500D01*
X97161000Y-196034500D02*
X97161000Y-190065500D01*
X97161000Y-190065500D02*
X92589000Y-190065500D01*
X92589000Y-190065500D02*
X92589000Y-196034500D01*
G36*
X92589000Y-196034500D02*
G01*
X97161000Y-196034500D01*
X97161000Y-190065500D01*
X92589000Y-190065500D01*
X92589000Y-196034500D01*
G37*
D12*
X96048000Y-196034500D02*
G75*
G03*
X96048000Y-196034500I-1173000J0D01*
G01*
X96048000Y-190065500D02*
G75*
G03*
X96048000Y-190065500I-1173000J0D01*
G01*
D11*
%TO.C,SW104*%
X249751500Y-215084500D02*
X254323500Y-215084500D01*
X254323500Y-215084500D02*
X254323500Y-209115500D01*
X254323500Y-209115500D02*
X249751500Y-209115500D01*
X249751500Y-209115500D02*
X249751500Y-215084500D01*
G36*
X249751500Y-215084500D02*
G01*
X254323500Y-215084500D01*
X254323500Y-209115500D01*
X249751500Y-209115500D01*
X249751500Y-215084500D01*
G37*
D12*
X253210500Y-209115500D02*
G75*
G03*
X253210500Y-209115500I-1173000J0D01*
G01*
X253210500Y-215084500D02*
G75*
G03*
X253210500Y-215084500I-1173000J0D01*
G01*
D11*
%TO.C,SW31*%
X187839000Y-157934500D02*
X192411000Y-157934500D01*
X192411000Y-157934500D02*
X192411000Y-151965500D01*
X192411000Y-151965500D02*
X187839000Y-151965500D01*
X187839000Y-151965500D02*
X187839000Y-157934500D01*
G36*
X187839000Y-157934500D02*
G01*
X192411000Y-157934500D01*
X192411000Y-151965500D01*
X187839000Y-151965500D01*
X187839000Y-157934500D01*
G37*
D12*
X191298000Y-157934500D02*
G75*
G03*
X191298000Y-157934500I-1173000J0D01*
G01*
X191298000Y-151965500D02*
G75*
G03*
X191298000Y-151965500I-1173000J0D01*
G01*
D11*
%TO.C,SW7*%
X187839000Y-138884500D02*
X192411000Y-138884500D01*
X192411000Y-138884500D02*
X192411000Y-132915500D01*
X192411000Y-132915500D02*
X187839000Y-132915500D01*
X187839000Y-132915500D02*
X187839000Y-138884500D01*
G36*
X187839000Y-138884500D02*
G01*
X192411000Y-138884500D01*
X192411000Y-132915500D01*
X187839000Y-132915500D01*
X187839000Y-138884500D01*
G37*
D12*
X191298000Y-132915500D02*
G75*
G03*
X191298000Y-132915500I-1173000J0D01*
G01*
X191298000Y-138884500D02*
G75*
G03*
X191298000Y-138884500I-1173000J0D01*
G01*
D11*
%TO.C,SW112*%
X402151500Y-215084500D02*
X406723500Y-215084500D01*
X406723500Y-215084500D02*
X406723500Y-209115500D01*
X406723500Y-209115500D02*
X402151500Y-209115500D01*
X402151500Y-209115500D02*
X402151500Y-215084500D01*
G36*
X402151500Y-215084500D02*
G01*
X406723500Y-215084500D01*
X406723500Y-209115500D01*
X402151500Y-209115500D01*
X402151500Y-215084500D01*
G37*
D12*
X405610500Y-209115500D02*
G75*
G03*
X405610500Y-209115500I-1173000J0D01*
G01*
X405610500Y-215084500D02*
G75*
G03*
X405610500Y-215084500I-1173000J0D01*
G01*
D11*
%TO.C,SW113*%
X421201500Y-215084500D02*
X425773500Y-215084500D01*
X425773500Y-215084500D02*
X425773500Y-209115500D01*
X425773500Y-209115500D02*
X421201500Y-209115500D01*
X421201500Y-209115500D02*
X421201500Y-215084500D01*
G36*
X421201500Y-215084500D02*
G01*
X425773500Y-215084500D01*
X425773500Y-209115500D01*
X421201500Y-209115500D01*
X421201500Y-215084500D01*
G37*
D12*
X424660500Y-215084500D02*
G75*
G03*
X424660500Y-215084500I-1173000J0D01*
G01*
X424660500Y-209115500D02*
G75*
G03*
X424660500Y-209115500I-1173000J0D01*
G01*
D11*
%TO.C,SW127*%
X492639000Y-234134500D02*
X497211000Y-234134500D01*
X497211000Y-234134500D02*
X497211000Y-228165500D01*
X497211000Y-228165500D02*
X492639000Y-228165500D01*
X492639000Y-228165500D02*
X492639000Y-234134500D01*
G36*
X492639000Y-234134500D02*
G01*
X497211000Y-234134500D01*
X497211000Y-228165500D01*
X492639000Y-228165500D01*
X492639000Y-234134500D01*
G37*
D12*
X496098000Y-228165500D02*
G75*
G03*
X496098000Y-228165500I-1173000J0D01*
G01*
X496098000Y-234134500D02*
G75*
G03*
X496098000Y-234134500I-1173000J0D01*
G01*
D11*
%TO.C,SW1*%
X73539000Y-138884500D02*
X78111000Y-138884500D01*
X78111000Y-138884500D02*
X78111000Y-132915500D01*
X78111000Y-132915500D02*
X73539000Y-132915500D01*
X73539000Y-132915500D02*
X73539000Y-138884500D01*
G36*
X73539000Y-138884500D02*
G01*
X78111000Y-138884500D01*
X78111000Y-132915500D01*
X73539000Y-132915500D01*
X73539000Y-138884500D01*
G37*
D12*
X76998000Y-138884500D02*
G75*
G03*
X76998000Y-138884500I-1173000J0D01*
G01*
X76998000Y-132915500D02*
G75*
G03*
X76998000Y-132915500I-1173000J0D01*
G01*
D11*
%TO.C,SW10*%
X244989000Y-138884500D02*
X249561000Y-138884500D01*
X249561000Y-138884500D02*
X249561000Y-132915500D01*
X249561000Y-132915500D02*
X244989000Y-132915500D01*
X244989000Y-132915500D02*
X244989000Y-138884500D01*
G36*
X244989000Y-138884500D02*
G01*
X249561000Y-138884500D01*
X249561000Y-132915500D01*
X244989000Y-132915500D01*
X244989000Y-138884500D01*
G37*
D12*
X248448000Y-138884500D02*
G75*
G03*
X248448000Y-138884500I-1173000J0D01*
G01*
X248448000Y-132915500D02*
G75*
G03*
X248448000Y-132915500I-1173000J0D01*
G01*
D11*
%TO.C,SW59*%
X273564000Y-176984500D02*
X278136000Y-176984500D01*
X278136000Y-176984500D02*
X278136000Y-171015500D01*
X278136000Y-171015500D02*
X273564000Y-171015500D01*
X273564000Y-171015500D02*
X273564000Y-176984500D01*
G36*
X273564000Y-176984500D02*
G01*
X278136000Y-176984500D01*
X278136000Y-171015500D01*
X273564000Y-171015500D01*
X273564000Y-176984500D01*
G37*
D12*
X277023000Y-176984500D02*
G75*
G03*
X277023000Y-176984500I-1173000J0D01*
G01*
X277023000Y-171015500D02*
G75*
G03*
X277023000Y-171015500I-1173000J0D01*
G01*
D11*
%TO.C,SW98*%
X130689000Y-215084500D02*
X135261000Y-215084500D01*
X135261000Y-215084500D02*
X135261000Y-209115500D01*
X135261000Y-209115500D02*
X130689000Y-209115500D01*
X130689000Y-209115500D02*
X130689000Y-215084500D01*
G36*
X130689000Y-215084500D02*
G01*
X135261000Y-215084500D01*
X135261000Y-209115500D01*
X130689000Y-209115500D01*
X130689000Y-215084500D01*
G37*
D12*
X134148000Y-215084500D02*
G75*
G03*
X134148000Y-215084500I-1173000J0D01*
G01*
X134148000Y-209115500D02*
G75*
G03*
X134148000Y-209115500I-1173000J0D01*
G01*
D11*
%TO.C,SW93*%
X492639000Y-196034500D02*
X497211000Y-196034500D01*
X497211000Y-196034500D02*
X497211000Y-190065500D01*
X497211000Y-190065500D02*
X492639000Y-190065500D01*
X492639000Y-190065500D02*
X492639000Y-196034500D01*
G36*
X492639000Y-196034500D02*
G01*
X497211000Y-196034500D01*
X497211000Y-190065500D01*
X492639000Y-190065500D01*
X492639000Y-196034500D01*
G37*
D12*
X496098000Y-196034500D02*
G75*
G03*
X496098000Y-196034500I-1173000J0D01*
G01*
X496098000Y-190065500D02*
G75*
G03*
X496098000Y-190065500I-1173000J0D01*
G01*
D11*
%TO.C,SW119*%
X92589000Y-234134500D02*
X97161000Y-234134500D01*
X97161000Y-234134500D02*
X97161000Y-228165500D01*
X97161000Y-228165500D02*
X92589000Y-228165500D01*
X92589000Y-228165500D02*
X92589000Y-234134500D01*
G36*
X92589000Y-234134500D02*
G01*
X97161000Y-234134500D01*
X97161000Y-228165500D01*
X92589000Y-228165500D01*
X92589000Y-234134500D01*
G37*
D12*
X96048000Y-228165500D02*
G75*
G03*
X96048000Y-228165500I-1173000J0D01*
G01*
X96048000Y-234134500D02*
G75*
G03*
X96048000Y-234134500I-1173000J0D01*
G01*
D11*
%TO.C,SW57*%
X235464000Y-176984500D02*
X240036000Y-176984500D01*
X240036000Y-176984500D02*
X240036000Y-171015500D01*
X240036000Y-171015500D02*
X235464000Y-171015500D01*
X235464000Y-171015500D02*
X235464000Y-176984500D01*
G36*
X235464000Y-176984500D02*
G01*
X240036000Y-176984500D01*
X240036000Y-171015500D01*
X235464000Y-171015500D01*
X235464000Y-176984500D01*
G37*
D12*
X238923000Y-171015500D02*
G75*
G03*
X238923000Y-171015500I-1173000J0D01*
G01*
X238923000Y-176984500D02*
G75*
G03*
X238923000Y-176984500I-1173000J0D01*
G01*
D11*
%TO.C,SW92*%
X473589000Y-196034500D02*
X478161000Y-196034500D01*
X478161000Y-196034500D02*
X478161000Y-190065500D01*
X478161000Y-190065500D02*
X473589000Y-190065500D01*
X473589000Y-190065500D02*
X473589000Y-196034500D01*
G36*
X473589000Y-196034500D02*
G01*
X478161000Y-196034500D01*
X478161000Y-190065500D01*
X473589000Y-190065500D01*
X473589000Y-196034500D01*
G37*
D12*
X477048000Y-190065500D02*
G75*
G03*
X477048000Y-190065500I-1173000J0D01*
G01*
X477048000Y-196034500D02*
G75*
G03*
X477048000Y-196034500I-1173000J0D01*
G01*
D11*
%TO.C,SW83*%
X297376500Y-196034500D02*
X301948500Y-196034500D01*
X301948500Y-196034500D02*
X301948500Y-190065500D01*
X301948500Y-190065500D02*
X297376500Y-190065500D01*
X297376500Y-190065500D02*
X297376500Y-196034500D01*
G36*
X297376500Y-196034500D02*
G01*
X301948500Y-196034500D01*
X301948500Y-190065500D01*
X297376500Y-190065500D01*
X297376500Y-196034500D01*
G37*
D12*
X300835500Y-196034500D02*
G75*
G03*
X300835500Y-196034500I-1173000J0D01*
G01*
X300835500Y-190065500D02*
G75*
G03*
X300835500Y-190065500I-1173000J0D01*
G01*
D11*
%TO.C,SW97*%
X111639000Y-215084500D02*
X116211000Y-215084500D01*
X116211000Y-215084500D02*
X116211000Y-209115500D01*
X116211000Y-209115500D02*
X111639000Y-209115500D01*
X111639000Y-209115500D02*
X111639000Y-215084500D01*
G36*
X111639000Y-215084500D02*
G01*
X116211000Y-215084500D01*
X116211000Y-209115500D01*
X111639000Y-209115500D01*
X111639000Y-215084500D01*
G37*
D12*
X115098000Y-209115500D02*
G75*
G03*
X115098000Y-209115500I-1173000J0D01*
G01*
X115098000Y-215084500D02*
G75*
G03*
X115098000Y-215084500I-1173000J0D01*
G01*
D11*
%TO.C,SW76*%
X164026500Y-196034500D02*
X168598500Y-196034500D01*
X168598500Y-196034500D02*
X168598500Y-190065500D01*
X168598500Y-190065500D02*
X164026500Y-190065500D01*
X164026500Y-190065500D02*
X164026500Y-196034500D01*
G36*
X164026500Y-196034500D02*
G01*
X168598500Y-196034500D01*
X168598500Y-190065500D01*
X164026500Y-190065500D01*
X164026500Y-196034500D01*
G37*
D12*
X167485500Y-196034500D02*
G75*
G03*
X167485500Y-196034500I-1173000J0D01*
G01*
X167485500Y-190065500D02*
G75*
G03*
X167485500Y-190065500I-1173000J0D01*
G01*
D11*
%TO.C,SW110*%
X364051500Y-215084500D02*
X368623500Y-215084500D01*
X368623500Y-215084500D02*
X368623500Y-209115500D01*
X368623500Y-209115500D02*
X364051500Y-209115500D01*
X364051500Y-209115500D02*
X364051500Y-215084500D01*
G36*
X364051500Y-215084500D02*
G01*
X368623500Y-215084500D01*
X368623500Y-209115500D01*
X364051500Y-209115500D01*
X364051500Y-215084500D01*
G37*
D12*
X367510500Y-215084500D02*
G75*
G03*
X367510500Y-215084500I-1173000J0D01*
G01*
X367510500Y-209115500D02*
G75*
G03*
X367510500Y-209115500I-1173000J0D01*
G01*
D11*
%TO.C,SW128*%
X511689000Y-234134500D02*
X516261000Y-234134500D01*
X516261000Y-234134500D02*
X516261000Y-228165500D01*
X516261000Y-228165500D02*
X511689000Y-228165500D01*
X511689000Y-228165500D02*
X511689000Y-234134500D01*
G36*
X511689000Y-234134500D02*
G01*
X516261000Y-234134500D01*
X516261000Y-228165500D01*
X511689000Y-228165500D01*
X511689000Y-234134500D01*
G37*
D12*
X515148000Y-234134500D02*
G75*
G03*
X515148000Y-234134500I-1173000J0D01*
G01*
X515148000Y-228165500D02*
G75*
G03*
X515148000Y-228165500I-1173000J0D01*
G01*
D11*
%TO.C,SW55*%
X197364000Y-176984500D02*
X201936000Y-176984500D01*
X201936000Y-176984500D02*
X201936000Y-171015500D01*
X201936000Y-171015500D02*
X197364000Y-171015500D01*
X197364000Y-171015500D02*
X197364000Y-176984500D01*
G36*
X197364000Y-176984500D02*
G01*
X201936000Y-176984500D01*
X201936000Y-171015500D01*
X197364000Y-171015500D01*
X197364000Y-176984500D01*
G37*
D12*
X200823000Y-176984500D02*
G75*
G03*
X200823000Y-176984500I-1173000J0D01*
G01*
X200823000Y-171015500D02*
G75*
G03*
X200823000Y-171015500I-1173000J0D01*
G01*
D11*
%TO.C,SW5*%
X149739000Y-138884500D02*
X154311000Y-138884500D01*
X154311000Y-138884500D02*
X154311000Y-132915500D01*
X154311000Y-132915500D02*
X149739000Y-132915500D01*
X149739000Y-132915500D02*
X149739000Y-138884500D01*
G36*
X149739000Y-138884500D02*
G01*
X154311000Y-138884500D01*
X154311000Y-132915500D01*
X149739000Y-132915500D01*
X149739000Y-138884500D01*
G37*
D12*
X153198000Y-132915500D02*
G75*
G03*
X153198000Y-132915500I-1173000J0D01*
G01*
X153198000Y-138884500D02*
G75*
G03*
X153198000Y-138884500I-1173000J0D01*
G01*
D11*
%TO.C,SW105*%
X268801500Y-215084500D02*
X273373500Y-215084500D01*
X273373500Y-215084500D02*
X273373500Y-209115500D01*
X273373500Y-209115500D02*
X268801500Y-209115500D01*
X268801500Y-209115500D02*
X268801500Y-215084500D01*
G36*
X268801500Y-215084500D02*
G01*
X273373500Y-215084500D01*
X273373500Y-209115500D01*
X268801500Y-209115500D01*
X268801500Y-215084500D01*
G37*
D12*
X272260500Y-209115500D02*
G75*
G03*
X272260500Y-209115500I-1173000J0D01*
G01*
X272260500Y-215084500D02*
G75*
G03*
X272260500Y-215084500I-1173000J0D01*
G01*
D11*
%TO.C,SW33*%
X225939000Y-157934500D02*
X230511000Y-157934500D01*
X230511000Y-157934500D02*
X230511000Y-151965500D01*
X230511000Y-151965500D02*
X225939000Y-151965500D01*
X225939000Y-151965500D02*
X225939000Y-157934500D01*
G36*
X225939000Y-157934500D02*
G01*
X230511000Y-157934500D01*
X230511000Y-151965500D01*
X225939000Y-151965500D01*
X225939000Y-157934500D01*
G37*
D12*
X229398000Y-157934500D02*
G75*
G03*
X229398000Y-157934500I-1173000J0D01*
G01*
X229398000Y-151965500D02*
G75*
G03*
X229398000Y-151965500I-1173000J0D01*
G01*
D11*
%TO.C,SW86*%
X354526500Y-196034500D02*
X359098500Y-196034500D01*
X359098500Y-196034500D02*
X359098500Y-190065500D01*
X359098500Y-190065500D02*
X354526500Y-190065500D01*
X354526500Y-190065500D02*
X354526500Y-196034500D01*
G36*
X354526500Y-196034500D02*
G01*
X359098500Y-196034500D01*
X359098500Y-190065500D01*
X354526500Y-190065500D01*
X354526500Y-196034500D01*
G37*
D12*
X357985500Y-190065500D02*
G75*
G03*
X357985500Y-190065500I-1173000J0D01*
G01*
X357985500Y-196034500D02*
G75*
G03*
X357985500Y-196034500I-1173000J0D01*
G01*
D11*
%TO.C,SW61*%
X311664000Y-176984500D02*
X316236000Y-176984500D01*
X316236000Y-176984500D02*
X316236000Y-171015500D01*
X316236000Y-171015500D02*
X311664000Y-171015500D01*
X311664000Y-171015500D02*
X311664000Y-176984500D01*
G36*
X311664000Y-176984500D02*
G01*
X316236000Y-176984500D01*
X316236000Y-171015500D01*
X311664000Y-171015500D01*
X311664000Y-176984500D01*
G37*
D12*
X315123000Y-171015500D02*
G75*
G03*
X315123000Y-171015500I-1173000J0D01*
G01*
X315123000Y-176984500D02*
G75*
G03*
X315123000Y-176984500I-1173000J0D01*
G01*
D11*
%TO.C,SW8*%
X206889000Y-138884500D02*
X211461000Y-138884500D01*
X211461000Y-138884500D02*
X211461000Y-132915500D01*
X211461000Y-132915500D02*
X206889000Y-132915500D01*
X206889000Y-132915500D02*
X206889000Y-138884500D01*
G36*
X206889000Y-138884500D02*
G01*
X211461000Y-138884500D01*
X211461000Y-132915500D01*
X206889000Y-132915500D01*
X206889000Y-138884500D01*
G37*
D12*
X210348000Y-132915500D02*
G75*
G03*
X210348000Y-132915500I-1173000J0D01*
G01*
X210348000Y-138884500D02*
G75*
G03*
X210348000Y-138884500I-1173000J0D01*
G01*
D11*
%TO.C,SW15*%
X340239000Y-138884500D02*
X344811000Y-138884500D01*
X344811000Y-138884500D02*
X344811000Y-132915500D01*
X344811000Y-132915500D02*
X340239000Y-132915500D01*
X340239000Y-132915500D02*
X340239000Y-138884500D01*
G36*
X340239000Y-138884500D02*
G01*
X344811000Y-138884500D01*
X344811000Y-132915500D01*
X340239000Y-132915500D01*
X340239000Y-138884500D01*
G37*
D12*
X343698000Y-138884500D02*
G75*
G03*
X343698000Y-138884500I-1173000J0D01*
G01*
X343698000Y-132915500D02*
G75*
G03*
X343698000Y-132915500I-1173000J0D01*
G01*
D11*
%TO.C,SW69*%
X473589000Y-176984500D02*
X478161000Y-176984500D01*
X478161000Y-176984500D02*
X478161000Y-171015500D01*
X478161000Y-171015500D02*
X473589000Y-171015500D01*
X473589000Y-171015500D02*
X473589000Y-176984500D01*
G36*
X473589000Y-176984500D02*
G01*
X478161000Y-176984500D01*
X478161000Y-171015500D01*
X473589000Y-171015500D01*
X473589000Y-176984500D01*
G37*
D12*
X477048000Y-171015500D02*
G75*
G03*
X477048000Y-171015500I-1173000J0D01*
G01*
X477048000Y-176984500D02*
G75*
G03*
X477048000Y-176984500I-1173000J0D01*
G01*
D11*
%TO.C,SW50*%
X92589000Y-176984500D02*
X97161000Y-176984500D01*
X97161000Y-176984500D02*
X97161000Y-171015500D01*
X97161000Y-171015500D02*
X92589000Y-171015500D01*
X92589000Y-171015500D02*
X92589000Y-176984500D01*
G36*
X92589000Y-176984500D02*
G01*
X97161000Y-176984500D01*
X97161000Y-171015500D01*
X92589000Y-171015500D01*
X92589000Y-176984500D01*
G37*
D12*
X96048000Y-171015500D02*
G75*
G03*
X96048000Y-171015500I-1173000J0D01*
G01*
X96048000Y-176984500D02*
G75*
G03*
X96048000Y-176984500I-1173000J0D01*
G01*
D11*
%TO.C,SW44*%
X435489000Y-157934500D02*
X440061000Y-157934500D01*
X440061000Y-157934500D02*
X440061000Y-151965500D01*
X440061000Y-151965500D02*
X435489000Y-151965500D01*
X435489000Y-151965500D02*
X435489000Y-157934500D01*
G36*
X435489000Y-157934500D02*
G01*
X440061000Y-157934500D01*
X440061000Y-151965500D01*
X435489000Y-151965500D01*
X435489000Y-157934500D01*
G37*
D12*
X438948000Y-157934500D02*
G75*
G03*
X438948000Y-157934500I-1173000J0D01*
G01*
X438948000Y-151965500D02*
G75*
G03*
X438948000Y-151965500I-1173000J0D01*
G01*
D11*
%TO.C,SW115*%
X473589000Y-215084500D02*
X478161000Y-215084500D01*
X478161000Y-215084500D02*
X478161000Y-209115500D01*
X478161000Y-209115500D02*
X473589000Y-209115500D01*
X473589000Y-209115500D02*
X473589000Y-215084500D01*
G36*
X473589000Y-215084500D02*
G01*
X478161000Y-215084500D01*
X478161000Y-209115500D01*
X473589000Y-209115500D01*
X473589000Y-215084500D01*
G37*
D12*
X477048000Y-215084500D02*
G75*
G03*
X477048000Y-215084500I-1173000J0D01*
G01*
X477048000Y-209115500D02*
G75*
G03*
X477048000Y-209115500I-1173000J0D01*
G01*
D11*
%TO.C,SW16*%
X359289000Y-138884500D02*
X363861000Y-138884500D01*
X363861000Y-138884500D02*
X363861000Y-132915500D01*
X363861000Y-132915500D02*
X359289000Y-132915500D01*
X359289000Y-132915500D02*
X359289000Y-138884500D01*
G36*
X359289000Y-138884500D02*
G01*
X363861000Y-138884500D01*
X363861000Y-132915500D01*
X359289000Y-132915500D01*
X359289000Y-138884500D01*
G37*
D12*
X362748000Y-132915500D02*
G75*
G03*
X362748000Y-132915500I-1173000J0D01*
G01*
X362748000Y-138884500D02*
G75*
G03*
X362748000Y-138884500I-1173000J0D01*
G01*
D11*
%TO.C,SW19*%
X416439000Y-138884500D02*
X421011000Y-138884500D01*
X421011000Y-138884500D02*
X421011000Y-132915500D01*
X421011000Y-132915500D02*
X416439000Y-132915500D01*
X416439000Y-132915500D02*
X416439000Y-138884500D01*
G36*
X416439000Y-138884500D02*
G01*
X421011000Y-138884500D01*
X421011000Y-132915500D01*
X416439000Y-132915500D01*
X416439000Y-138884500D01*
G37*
D12*
X419898000Y-138884500D02*
G75*
G03*
X419898000Y-138884500I-1173000J0D01*
G01*
X419898000Y-132915500D02*
G75*
G03*
X419898000Y-132915500I-1173000J0D01*
G01*
D11*
%TO.C,SW120*%
X111639000Y-234134500D02*
X116211000Y-234134500D01*
X116211000Y-234134500D02*
X116211000Y-228165500D01*
X116211000Y-228165500D02*
X111639000Y-228165500D01*
X111639000Y-228165500D02*
X111639000Y-234134500D01*
G36*
X111639000Y-234134500D02*
G01*
X116211000Y-234134500D01*
X116211000Y-228165500D01*
X111639000Y-228165500D01*
X111639000Y-234134500D01*
G37*
D12*
X115098000Y-228165500D02*
G75*
G03*
X115098000Y-228165500I-1173000J0D01*
G01*
X115098000Y-234134500D02*
G75*
G03*
X115098000Y-234134500I-1173000J0D01*
G01*
D11*
%TO.C,SW49*%
X73539000Y-176984500D02*
X78111000Y-176984500D01*
X78111000Y-176984500D02*
X78111000Y-171015500D01*
X78111000Y-171015500D02*
X73539000Y-171015500D01*
X73539000Y-171015500D02*
X73539000Y-176984500D01*
G36*
X73539000Y-176984500D02*
G01*
X78111000Y-176984500D01*
X78111000Y-171015500D01*
X73539000Y-171015500D01*
X73539000Y-176984500D01*
G37*
D12*
X76998000Y-176984500D02*
G75*
G03*
X76998000Y-176984500I-1173000J0D01*
G01*
X76998000Y-171015500D02*
G75*
G03*
X76998000Y-171015500I-1173000J0D01*
G01*
D11*
%TO.C,SW70*%
X492639000Y-176984500D02*
X497211000Y-176984500D01*
X497211000Y-176984500D02*
X497211000Y-171015500D01*
X497211000Y-171015500D02*
X492639000Y-171015500D01*
X492639000Y-171015500D02*
X492639000Y-176984500D01*
G36*
X492639000Y-176984500D02*
G01*
X497211000Y-176984500D01*
X497211000Y-171015500D01*
X492639000Y-171015500D01*
X492639000Y-176984500D01*
G37*
D12*
X496098000Y-176984500D02*
G75*
G03*
X496098000Y-176984500I-1173000J0D01*
G01*
X496098000Y-171015500D02*
G75*
G03*
X496098000Y-171015500I-1173000J0D01*
G01*
D11*
%TO.C,SW28*%
X130689000Y-157934500D02*
X135261000Y-157934500D01*
X135261000Y-157934500D02*
X135261000Y-151965500D01*
X135261000Y-151965500D02*
X130689000Y-151965500D01*
X130689000Y-151965500D02*
X130689000Y-157934500D01*
G36*
X130689000Y-157934500D02*
G01*
X135261000Y-157934500D01*
X135261000Y-151965500D01*
X130689000Y-151965500D01*
X130689000Y-157934500D01*
G37*
D12*
X134148000Y-151965500D02*
G75*
G03*
X134148000Y-151965500I-1173000J0D01*
G01*
X134148000Y-157934500D02*
G75*
G03*
X134148000Y-157934500I-1173000J0D01*
G01*
D11*
%TO.C,SW54*%
X178314000Y-176984500D02*
X182886000Y-176984500D01*
X182886000Y-176984500D02*
X182886000Y-171015500D01*
X182886000Y-171015500D02*
X178314000Y-171015500D01*
X178314000Y-171015500D02*
X178314000Y-176984500D01*
G36*
X178314000Y-176984500D02*
G01*
X182886000Y-176984500D01*
X182886000Y-171015500D01*
X178314000Y-171015500D01*
X178314000Y-176984500D01*
G37*
D12*
X181773000Y-171015500D02*
G75*
G03*
X181773000Y-171015500I-1173000J0D01*
G01*
X181773000Y-176984500D02*
G75*
G03*
X181773000Y-176984500I-1173000J0D01*
G01*
D11*
%TO.C,SW67*%
X425964000Y-176984500D02*
X430536000Y-176984500D01*
X430536000Y-176984500D02*
X430536000Y-171015500D01*
X430536000Y-171015500D02*
X425964000Y-171015500D01*
X425964000Y-171015500D02*
X425964000Y-176984500D01*
G36*
X425964000Y-176984500D02*
G01*
X430536000Y-176984500D01*
X430536000Y-171015500D01*
X425964000Y-171015500D01*
X425964000Y-176984500D01*
G37*
D12*
X429423000Y-176984500D02*
G75*
G03*
X429423000Y-176984500I-1173000J0D01*
G01*
X429423000Y-171015500D02*
G75*
G03*
X429423000Y-171015500I-1173000J0D01*
G01*
D11*
%TO.C,SW56*%
X216414000Y-176984500D02*
X220986000Y-176984500D01*
X220986000Y-176984500D02*
X220986000Y-171015500D01*
X220986000Y-171015500D02*
X216414000Y-171015500D01*
X216414000Y-171015500D02*
X216414000Y-176984500D01*
G36*
X216414000Y-176984500D02*
G01*
X220986000Y-176984500D01*
X220986000Y-171015500D01*
X216414000Y-171015500D01*
X216414000Y-176984500D01*
G37*
D12*
X219873000Y-171015500D02*
G75*
G03*
X219873000Y-171015500I-1173000J0D01*
G01*
X219873000Y-176984500D02*
G75*
G03*
X219873000Y-176984500I-1173000J0D01*
G01*
D11*
%TO.C,SW89*%
X411676500Y-196034500D02*
X416248500Y-196034500D01*
X416248500Y-196034500D02*
X416248500Y-190065500D01*
X416248500Y-190065500D02*
X411676500Y-190065500D01*
X411676500Y-190065500D02*
X411676500Y-196034500D01*
G36*
X411676500Y-196034500D02*
G01*
X416248500Y-196034500D01*
X416248500Y-190065500D01*
X411676500Y-190065500D01*
X411676500Y-196034500D01*
G37*
D12*
X415135500Y-196034500D02*
G75*
G03*
X415135500Y-196034500I-1173000J0D01*
G01*
X415135500Y-190065500D02*
G75*
G03*
X415135500Y-190065500I-1173000J0D01*
G01*
D11*
%TO.C,SW48*%
X511689000Y-157934500D02*
X516261000Y-157934500D01*
X516261000Y-157934500D02*
X516261000Y-151965500D01*
X516261000Y-151965500D02*
X511689000Y-151965500D01*
X511689000Y-151965500D02*
X511689000Y-157934500D01*
G36*
X511689000Y-157934500D02*
G01*
X516261000Y-157934500D01*
X516261000Y-151965500D01*
X511689000Y-151965500D01*
X511689000Y-157934500D01*
G37*
D12*
X515148000Y-151965500D02*
G75*
G03*
X515148000Y-151965500I-1173000J0D01*
G01*
X515148000Y-157934500D02*
G75*
G03*
X515148000Y-157934500I-1173000J0D01*
G01*
D11*
%TO.C,SW122*%
X173551500Y-234134500D02*
X178123500Y-234134500D01*
X178123500Y-234134500D02*
X178123500Y-228165500D01*
X178123500Y-228165500D02*
X173551500Y-228165500D01*
X173551500Y-228165500D02*
X173551500Y-234134500D01*
G36*
X173551500Y-234134500D02*
G01*
X178123500Y-234134500D01*
X178123500Y-228165500D01*
X173551500Y-228165500D01*
X173551500Y-234134500D01*
G37*
D12*
X177010500Y-234134500D02*
G75*
G03*
X177010500Y-234134500I-1173000J0D01*
G01*
X177010500Y-228165500D02*
G75*
G03*
X177010500Y-228165500I-1173000J0D01*
G01*
D11*
%TO.C,SW84*%
X316426500Y-196034500D02*
X320998500Y-196034500D01*
X320998500Y-196034500D02*
X320998500Y-190065500D01*
X320998500Y-190065500D02*
X316426500Y-190065500D01*
X316426500Y-190065500D02*
X316426500Y-196034500D01*
G36*
X316426500Y-196034500D02*
G01*
X320998500Y-196034500D01*
X320998500Y-190065500D01*
X316426500Y-190065500D01*
X316426500Y-196034500D01*
G37*
D12*
X319885500Y-190065500D02*
G75*
G03*
X319885500Y-190065500I-1173000J0D01*
G01*
X319885500Y-196034500D02*
G75*
G03*
X319885500Y-196034500I-1173000J0D01*
G01*
D11*
%TO.C,SW123*%
X278326500Y-234134500D02*
X282898500Y-234134500D01*
X282898500Y-234134500D02*
X282898500Y-228165500D01*
X282898500Y-228165500D02*
X278326500Y-228165500D01*
X278326500Y-228165500D02*
X278326500Y-234134500D01*
G36*
X278326500Y-234134500D02*
G01*
X282898500Y-234134500D01*
X282898500Y-228165500D01*
X278326500Y-228165500D01*
X278326500Y-234134500D01*
G37*
D12*
X281785500Y-228165500D02*
G75*
G03*
X281785500Y-228165500I-1173000J0D01*
G01*
X281785500Y-234134500D02*
G75*
G03*
X281785500Y-234134500I-1173000J0D01*
G01*
D11*
%TO.C,SW62*%
X330714000Y-176984500D02*
X335286000Y-176984500D01*
X335286000Y-176984500D02*
X335286000Y-171015500D01*
X335286000Y-171015500D02*
X330714000Y-171015500D01*
X330714000Y-171015500D02*
X330714000Y-176984500D01*
G36*
X330714000Y-176984500D02*
G01*
X335286000Y-176984500D01*
X335286000Y-171015500D01*
X330714000Y-171015500D01*
X330714000Y-176984500D01*
G37*
D12*
X334173000Y-176984500D02*
G75*
G03*
X334173000Y-176984500I-1173000J0D01*
G01*
X334173000Y-171015500D02*
G75*
G03*
X334173000Y-171015500I-1173000J0D01*
G01*
D11*
%TO.C,SW100*%
X173551500Y-215084500D02*
X178123500Y-215084500D01*
X178123500Y-215084500D02*
X178123500Y-209115500D01*
X178123500Y-209115500D02*
X173551500Y-209115500D01*
X173551500Y-209115500D02*
X173551500Y-215084500D01*
G36*
X173551500Y-215084500D02*
G01*
X178123500Y-215084500D01*
X178123500Y-209115500D01*
X173551500Y-209115500D01*
X173551500Y-215084500D01*
G37*
D12*
X177010500Y-209115500D02*
G75*
G03*
X177010500Y-209115500I-1173000J0D01*
G01*
X177010500Y-215084500D02*
G75*
G03*
X177010500Y-215084500I-1173000J0D01*
G01*
D11*
%TO.C,SW22*%
X473589000Y-138884500D02*
X478161000Y-138884500D01*
X478161000Y-138884500D02*
X478161000Y-132915500D01*
X478161000Y-132915500D02*
X473589000Y-132915500D01*
X473589000Y-132915500D02*
X473589000Y-138884500D01*
G36*
X473589000Y-138884500D02*
G01*
X478161000Y-138884500D01*
X478161000Y-132915500D01*
X473589000Y-132915500D01*
X473589000Y-138884500D01*
G37*
D12*
X477048000Y-132915500D02*
G75*
G03*
X477048000Y-132915500I-1173000J0D01*
G01*
X477048000Y-138884500D02*
G75*
G03*
X477048000Y-138884500I-1173000J0D01*
G01*
D11*
%TO.C,SW116*%
X492639000Y-215084500D02*
X497211000Y-215084500D01*
X497211000Y-215084500D02*
X497211000Y-209115500D01*
X497211000Y-209115500D02*
X492639000Y-209115500D01*
X492639000Y-209115500D02*
X492639000Y-215084500D01*
G36*
X492639000Y-215084500D02*
G01*
X497211000Y-215084500D01*
X497211000Y-209115500D01*
X492639000Y-209115500D01*
X492639000Y-215084500D01*
G37*
D12*
X496098000Y-209115500D02*
G75*
G03*
X496098000Y-209115500I-1173000J0D01*
G01*
X496098000Y-215084500D02*
G75*
G03*
X496098000Y-215084500I-1173000J0D01*
G01*
D11*
%TO.C,SW32*%
X206889000Y-157934500D02*
X211461000Y-157934500D01*
X211461000Y-157934500D02*
X211461000Y-151965500D01*
X211461000Y-151965500D02*
X206889000Y-151965500D01*
X206889000Y-151965500D02*
X206889000Y-157934500D01*
G36*
X206889000Y-157934500D02*
G01*
X211461000Y-157934500D01*
X211461000Y-151965500D01*
X206889000Y-151965500D01*
X206889000Y-157934500D01*
G37*
D12*
X210348000Y-157934500D02*
G75*
G03*
X210348000Y-157934500I-1173000J0D01*
G01*
X210348000Y-151965500D02*
G75*
G03*
X210348000Y-151965500I-1173000J0D01*
G01*
D11*
%TO.C,SW51*%
X111639000Y-176984500D02*
X116211000Y-176984500D01*
X116211000Y-176984500D02*
X116211000Y-171015500D01*
X116211000Y-171015500D02*
X111639000Y-171015500D01*
X111639000Y-171015500D02*
X111639000Y-176984500D01*
G36*
X111639000Y-176984500D02*
G01*
X116211000Y-176984500D01*
X116211000Y-171015500D01*
X111639000Y-171015500D01*
X111639000Y-176984500D01*
G37*
D12*
X115098000Y-171015500D02*
G75*
G03*
X115098000Y-171015500I-1173000J0D01*
G01*
X115098000Y-176984500D02*
G75*
G03*
X115098000Y-176984500I-1173000J0D01*
G01*
D11*
%TO.C,SW24*%
X511689000Y-138884500D02*
X516261000Y-138884500D01*
X516261000Y-138884500D02*
X516261000Y-132915500D01*
X516261000Y-132915500D02*
X511689000Y-132915500D01*
X511689000Y-132915500D02*
X511689000Y-138884500D01*
G36*
X511689000Y-138884500D02*
G01*
X516261000Y-138884500D01*
X516261000Y-132915500D01*
X511689000Y-132915500D01*
X511689000Y-138884500D01*
G37*
D12*
X515148000Y-132915500D02*
G75*
G03*
X515148000Y-132915500I-1173000J0D01*
G01*
X515148000Y-138884500D02*
G75*
G03*
X515148000Y-138884500I-1173000J0D01*
G01*
D11*
%TO.C,SW14*%
X321189034Y-138884508D02*
X325761034Y-138884508D01*
X325761034Y-138884508D02*
X325761034Y-132915508D01*
X325761034Y-132915508D02*
X321189034Y-132915508D01*
X321189034Y-132915508D02*
X321189034Y-138884508D01*
G36*
X321189034Y-138884508D02*
G01*
X325761034Y-138884508D01*
X325761034Y-132915508D01*
X321189034Y-132915508D01*
X321189034Y-138884508D01*
G37*
D12*
X324648034Y-138884508D02*
G75*
G03*
X324648034Y-138884508I-1173000J0D01*
G01*
X324648034Y-132915508D02*
G75*
G03*
X324648034Y-132915508I-1173000J0D01*
G01*
D11*
%TO.C,SW40*%
X359289000Y-157934500D02*
X363861000Y-157934500D01*
X363861000Y-157934500D02*
X363861000Y-151965500D01*
X363861000Y-151965500D02*
X359289000Y-151965500D01*
X359289000Y-151965500D02*
X359289000Y-157934500D01*
G36*
X359289000Y-157934500D02*
G01*
X363861000Y-157934500D01*
X363861000Y-151965500D01*
X359289000Y-151965500D01*
X359289000Y-157934500D01*
G37*
D12*
X362748000Y-151965500D02*
G75*
G03*
X362748000Y-151965500I-1173000J0D01*
G01*
X362748000Y-157934500D02*
G75*
G03*
X362748000Y-157934500I-1173000J0D01*
G01*
D11*
%TO.C,SW64*%
X368814000Y-176984500D02*
X373386000Y-176984500D01*
X373386000Y-176984500D02*
X373386000Y-171015500D01*
X373386000Y-171015500D02*
X368814000Y-171015500D01*
X368814000Y-171015500D02*
X368814000Y-176984500D01*
G36*
X368814000Y-176984500D02*
G01*
X373386000Y-176984500D01*
X373386000Y-171015500D01*
X368814000Y-171015500D01*
X368814000Y-176984500D01*
G37*
D12*
X372273000Y-176984500D02*
G75*
G03*
X372273000Y-176984500I-1173000J0D01*
G01*
X372273000Y-171015500D02*
G75*
G03*
X372273000Y-171015500I-1173000J0D01*
G01*
D11*
%TO.C,SW95*%
X73539000Y-215084500D02*
X78111000Y-215084500D01*
X78111000Y-215084500D02*
X78111000Y-209115500D01*
X78111000Y-209115500D02*
X73539000Y-209115500D01*
X73539000Y-209115500D02*
X73539000Y-215084500D01*
G36*
X73539000Y-215084500D02*
G01*
X78111000Y-215084500D01*
X78111000Y-209115500D01*
X73539000Y-209115500D01*
X73539000Y-215084500D01*
G37*
D12*
X76998000Y-209115500D02*
G75*
G03*
X76998000Y-209115500I-1173000J0D01*
G01*
X76998000Y-215084500D02*
G75*
G03*
X76998000Y-215084500I-1173000J0D01*
G01*
D11*
%TO.C,SW82*%
X278326500Y-196034500D02*
X282898500Y-196034500D01*
X282898500Y-196034500D02*
X282898500Y-190065500D01*
X282898500Y-190065500D02*
X278326500Y-190065500D01*
X278326500Y-190065500D02*
X278326500Y-196034500D01*
G36*
X278326500Y-196034500D02*
G01*
X282898500Y-196034500D01*
X282898500Y-190065500D01*
X278326500Y-190065500D01*
X278326500Y-196034500D01*
G37*
D12*
X281785500Y-190065500D02*
G75*
G03*
X281785500Y-190065500I-1173000J0D01*
G01*
X281785500Y-196034500D02*
G75*
G03*
X281785500Y-196034500I-1173000J0D01*
G01*
D11*
%TO.C,SW17*%
X378339000Y-138884500D02*
X382911000Y-138884500D01*
X382911000Y-138884500D02*
X382911000Y-132915500D01*
X382911000Y-132915500D02*
X378339000Y-132915500D01*
X378339000Y-132915500D02*
X378339000Y-138884500D01*
G36*
X378339000Y-138884500D02*
G01*
X382911000Y-138884500D01*
X382911000Y-132915500D01*
X378339000Y-132915500D01*
X378339000Y-138884500D01*
G37*
D12*
X381798000Y-132915500D02*
G75*
G03*
X381798000Y-132915500I-1173000J0D01*
G01*
X381798000Y-138884500D02*
G75*
G03*
X381798000Y-138884500I-1173000J0D01*
G01*
D11*
%TO.C,SW87*%
X373576500Y-196034500D02*
X378148500Y-196034500D01*
X378148500Y-196034500D02*
X378148500Y-190065500D01*
X378148500Y-190065500D02*
X373576500Y-190065500D01*
X373576500Y-190065500D02*
X373576500Y-196034500D01*
G36*
X373576500Y-196034500D02*
G01*
X378148500Y-196034500D01*
X378148500Y-190065500D01*
X373576500Y-190065500D01*
X373576500Y-196034500D01*
G37*
D12*
X377035500Y-196034500D02*
G75*
G03*
X377035500Y-196034500I-1173000J0D01*
G01*
X377035500Y-190065500D02*
G75*
G03*
X377035500Y-190065500I-1173000J0D01*
G01*
D11*
%TO.C,SW99*%
X154501500Y-215084500D02*
X159073500Y-215084500D01*
X159073500Y-215084500D02*
X159073500Y-209115500D01*
X159073500Y-209115500D02*
X154501500Y-209115500D01*
X154501500Y-209115500D02*
X154501500Y-215084500D01*
G36*
X154501500Y-215084500D02*
G01*
X159073500Y-215084500D01*
X159073500Y-209115500D01*
X154501500Y-209115500D01*
X154501500Y-215084500D01*
G37*
D12*
X157960500Y-215084500D02*
G75*
G03*
X157960500Y-215084500I-1173000J0D01*
G01*
X157960500Y-209115500D02*
G75*
G03*
X157960500Y-209115500I-1173000J0D01*
G01*
D11*
%TO.C,SW124*%
X364051500Y-234134500D02*
X368623500Y-234134500D01*
X368623500Y-234134500D02*
X368623500Y-228165500D01*
X368623500Y-228165500D02*
X364051500Y-228165500D01*
X364051500Y-228165500D02*
X364051500Y-234134500D01*
G36*
X364051500Y-234134500D02*
G01*
X368623500Y-234134500D01*
X368623500Y-228165500D01*
X364051500Y-228165500D01*
X364051500Y-234134500D01*
G37*
D12*
X367510500Y-228165500D02*
G75*
G03*
X367510500Y-228165500I-1173000J0D01*
G01*
X367510500Y-234134500D02*
G75*
G03*
X367510500Y-234134500I-1173000J0D01*
G01*
D11*
%TO.C,SW88*%
X392626500Y-196034500D02*
X397198500Y-196034500D01*
X397198500Y-196034500D02*
X397198500Y-190065500D01*
X397198500Y-190065500D02*
X392626500Y-190065500D01*
X392626500Y-190065500D02*
X392626500Y-196034500D01*
G36*
X392626500Y-196034500D02*
G01*
X397198500Y-196034500D01*
X397198500Y-190065500D01*
X392626500Y-190065500D01*
X392626500Y-196034500D01*
G37*
D12*
X396085500Y-190065500D02*
G75*
G03*
X396085500Y-190065500I-1173000J0D01*
G01*
X396085500Y-196034500D02*
G75*
G03*
X396085500Y-196034500I-1173000J0D01*
G01*
D11*
%TO.C,SW90*%
X430726500Y-196034500D02*
X435298500Y-196034500D01*
X435298500Y-196034500D02*
X435298500Y-190065500D01*
X435298500Y-190065500D02*
X430726500Y-190065500D01*
X430726500Y-190065500D02*
X430726500Y-196034500D01*
G36*
X430726500Y-196034500D02*
G01*
X435298500Y-196034500D01*
X435298500Y-190065500D01*
X430726500Y-190065500D01*
X430726500Y-196034500D01*
G37*
D12*
X434185500Y-190065500D02*
G75*
G03*
X434185500Y-190065500I-1173000J0D01*
G01*
X434185500Y-196034500D02*
G75*
G03*
X434185500Y-196034500I-1173000J0D01*
G01*
D11*
%TO.C,SW107*%
X306901500Y-215084500D02*
X311473500Y-215084500D01*
X311473500Y-215084500D02*
X311473500Y-209115500D01*
X311473500Y-209115500D02*
X306901500Y-209115500D01*
X306901500Y-209115500D02*
X306901500Y-215084500D01*
G36*
X306901500Y-215084500D02*
G01*
X311473500Y-215084500D01*
X311473500Y-209115500D01*
X306901500Y-209115500D01*
X306901500Y-215084500D01*
G37*
D12*
X310360500Y-209115500D02*
G75*
G03*
X310360500Y-209115500I-1173000J0D01*
G01*
X310360500Y-215084500D02*
G75*
G03*
X310360500Y-215084500I-1173000J0D01*
G01*
D11*
%TO.C,SW101*%
X192601500Y-215084500D02*
X197173500Y-215084500D01*
X197173500Y-215084500D02*
X197173500Y-209115500D01*
X197173500Y-209115500D02*
X192601500Y-209115500D01*
X192601500Y-209115500D02*
X192601500Y-215084500D01*
G36*
X192601500Y-215084500D02*
G01*
X197173500Y-215084500D01*
X197173500Y-209115500D01*
X192601500Y-209115500D01*
X192601500Y-215084500D01*
G37*
D12*
X196060500Y-215084500D02*
G75*
G03*
X196060500Y-215084500I-1173000J0D01*
G01*
X196060500Y-209115500D02*
G75*
G03*
X196060500Y-209115500I-1173000J0D01*
G01*
D11*
%TO.C,SW46*%
X473589000Y-157934500D02*
X478161000Y-157934500D01*
X478161000Y-157934500D02*
X478161000Y-151965500D01*
X478161000Y-151965500D02*
X473589000Y-151965500D01*
X473589000Y-151965500D02*
X473589000Y-157934500D01*
G36*
X473589000Y-157934500D02*
G01*
X478161000Y-157934500D01*
X478161000Y-151965500D01*
X473589000Y-151965500D01*
X473589000Y-157934500D01*
G37*
D12*
X477048000Y-157934500D02*
G75*
G03*
X477048000Y-157934500I-1173000J0D01*
G01*
X477048000Y-151965500D02*
G75*
G03*
X477048000Y-151965500I-1173000J0D01*
G01*
D11*
%TO.C,SW109*%
X345001500Y-215084500D02*
X349573500Y-215084500D01*
X349573500Y-215084500D02*
X349573500Y-209115500D01*
X349573500Y-209115500D02*
X345001500Y-209115500D01*
X345001500Y-209115500D02*
X345001500Y-215084500D01*
G36*
X345001500Y-215084500D02*
G01*
X349573500Y-215084500D01*
X349573500Y-209115500D01*
X345001500Y-209115500D01*
X345001500Y-215084500D01*
G37*
D12*
X348460500Y-209115500D02*
G75*
G03*
X348460500Y-209115500I-1173000J0D01*
G01*
X348460500Y-215084500D02*
G75*
G03*
X348460500Y-215084500I-1173000J0D01*
G01*
D11*
%TO.C,SW66*%
X406914000Y-176984500D02*
X411486000Y-176984500D01*
X411486000Y-176984500D02*
X411486000Y-171015500D01*
X411486000Y-171015500D02*
X406914000Y-171015500D01*
X406914000Y-171015500D02*
X406914000Y-176984500D01*
G36*
X406914000Y-176984500D02*
G01*
X411486000Y-176984500D01*
X411486000Y-171015500D01*
X406914000Y-171015500D01*
X406914000Y-176984500D01*
G37*
D12*
X410373000Y-176984500D02*
G75*
G03*
X410373000Y-176984500I-1173000J0D01*
G01*
X410373000Y-171015500D02*
G75*
G03*
X410373000Y-171015500I-1173000J0D01*
G01*
D11*
%TO.C,SW79*%
X221176500Y-196034500D02*
X225748500Y-196034500D01*
X225748500Y-196034500D02*
X225748500Y-190065500D01*
X225748500Y-190065500D02*
X221176500Y-190065500D01*
X221176500Y-190065500D02*
X221176500Y-196034500D01*
G36*
X221176500Y-196034500D02*
G01*
X225748500Y-196034500D01*
X225748500Y-190065500D01*
X221176500Y-190065500D01*
X221176500Y-196034500D01*
G37*
D12*
X224635500Y-190065500D02*
G75*
G03*
X224635500Y-190065500I-1173000J0D01*
G01*
X224635500Y-196034500D02*
G75*
G03*
X224635500Y-196034500I-1173000J0D01*
G01*
D11*
%TO.C,SW102*%
X211651500Y-215084500D02*
X216223500Y-215084500D01*
X216223500Y-215084500D02*
X216223500Y-209115500D01*
X216223500Y-209115500D02*
X211651500Y-209115500D01*
X211651500Y-209115500D02*
X211651500Y-215084500D01*
G36*
X211651500Y-215084500D02*
G01*
X216223500Y-215084500D01*
X216223500Y-209115500D01*
X211651500Y-209115500D01*
X211651500Y-215084500D01*
G37*
D12*
X215110500Y-215084500D02*
G75*
G03*
X215110500Y-215084500I-1173000J0D01*
G01*
X215110500Y-209115500D02*
G75*
G03*
X215110500Y-209115500I-1173000J0D01*
G01*
D11*
%TO.C,SW85*%
X335476500Y-196034500D02*
X340048500Y-196034500D01*
X340048500Y-196034500D02*
X340048500Y-190065500D01*
X340048500Y-190065500D02*
X335476500Y-190065500D01*
X335476500Y-190065500D02*
X335476500Y-196034500D01*
G36*
X335476500Y-196034500D02*
G01*
X340048500Y-196034500D01*
X340048500Y-190065500D01*
X335476500Y-190065500D01*
X335476500Y-196034500D01*
G37*
D12*
X338935500Y-190065500D02*
G75*
G03*
X338935500Y-190065500I-1173000J0D01*
G01*
X338935500Y-196034500D02*
G75*
G03*
X338935500Y-196034500I-1173000J0D01*
G01*
D11*
%TO.C,SW121*%
X130689000Y-234134500D02*
X135261000Y-234134500D01*
X135261000Y-234134500D02*
X135261000Y-228165500D01*
X135261000Y-228165500D02*
X130689000Y-228165500D01*
X130689000Y-228165500D02*
X130689000Y-234134500D01*
G36*
X130689000Y-234134500D02*
G01*
X135261000Y-234134500D01*
X135261000Y-228165500D01*
X130689000Y-228165500D01*
X130689000Y-234134500D01*
G37*
D12*
X134148000Y-228165500D02*
G75*
G03*
X134148000Y-228165500I-1173000J0D01*
G01*
X134148000Y-234134500D02*
G75*
G03*
X134148000Y-234134500I-1173000J0D01*
G01*
D11*
%TO.C,SW52*%
X130689000Y-176984500D02*
X135261000Y-176984500D01*
X135261000Y-176984500D02*
X135261000Y-171015500D01*
X135261000Y-171015500D02*
X130689000Y-171015500D01*
X130689000Y-171015500D02*
X130689000Y-176984500D01*
G36*
X130689000Y-176984500D02*
G01*
X135261000Y-176984500D01*
X135261000Y-171015500D01*
X130689000Y-171015500D01*
X130689000Y-176984500D01*
G37*
D12*
X134148000Y-176984500D02*
G75*
G03*
X134148000Y-176984500I-1173000J0D01*
G01*
X134148000Y-171015500D02*
G75*
G03*
X134148000Y-171015500I-1173000J0D01*
G01*
D11*
%TO.C,SW23*%
X492639000Y-138884500D02*
X497211000Y-138884500D01*
X497211000Y-138884500D02*
X497211000Y-132915500D01*
X497211000Y-132915500D02*
X492639000Y-132915500D01*
X492639000Y-132915500D02*
X492639000Y-138884500D01*
G36*
X492639000Y-138884500D02*
G01*
X497211000Y-138884500D01*
X497211000Y-132915500D01*
X492639000Y-132915500D01*
X492639000Y-138884500D01*
G37*
D12*
X496098000Y-138884500D02*
G75*
G03*
X496098000Y-138884500I-1173000J0D01*
G01*
X496098000Y-132915500D02*
G75*
G03*
X496098000Y-132915500I-1173000J0D01*
G01*
D11*
%TO.C,SW21*%
X454539000Y-138884500D02*
X459111000Y-138884500D01*
X459111000Y-138884500D02*
X459111000Y-132915500D01*
X459111000Y-132915500D02*
X454539000Y-132915500D01*
X454539000Y-132915500D02*
X454539000Y-138884500D01*
G36*
X454539000Y-138884500D02*
G01*
X459111000Y-138884500D01*
X459111000Y-132915500D01*
X454539000Y-132915500D01*
X454539000Y-138884500D01*
G37*
D12*
X457998000Y-132915500D02*
G75*
G03*
X457998000Y-132915500I-1173000J0D01*
G01*
X457998000Y-138884500D02*
G75*
G03*
X457998000Y-138884500I-1173000J0D01*
G01*
D11*
%TO.C,SW68*%
X454539000Y-176984500D02*
X459111000Y-176984500D01*
X459111000Y-176984500D02*
X459111000Y-171015500D01*
X459111000Y-171015500D02*
X454539000Y-171015500D01*
X454539000Y-171015500D02*
X454539000Y-176984500D01*
G36*
X454539000Y-176984500D02*
G01*
X459111000Y-176984500D01*
X459111000Y-171015500D01*
X454539000Y-171015500D01*
X454539000Y-176984500D01*
G37*
D12*
X457998000Y-176984500D02*
G75*
G03*
X457998000Y-176984500I-1173000J0D01*
G01*
X457998000Y-171015500D02*
G75*
G03*
X457998000Y-171015500I-1173000J0D01*
G01*
D11*
%TO.C,SW12*%
X283089000Y-138884500D02*
X287661000Y-138884500D01*
X287661000Y-138884500D02*
X287661000Y-132915500D01*
X287661000Y-132915500D02*
X283089000Y-132915500D01*
X283089000Y-132915500D02*
X283089000Y-138884500D01*
G36*
X283089000Y-138884500D02*
G01*
X287661000Y-138884500D01*
X287661000Y-132915500D01*
X283089000Y-132915500D01*
X283089000Y-138884500D01*
G37*
D12*
X286548000Y-132915500D02*
G75*
G03*
X286548000Y-132915500I-1173000J0D01*
G01*
X286548000Y-138884500D02*
G75*
G03*
X286548000Y-138884500I-1173000J0D01*
G01*
D11*
%TO.C,SW96*%
X92589000Y-215084500D02*
X97161000Y-215084500D01*
X97161000Y-215084500D02*
X97161000Y-209115500D01*
X97161000Y-209115500D02*
X92589000Y-209115500D01*
X92589000Y-209115500D02*
X92589000Y-215084500D01*
G36*
X92589000Y-215084500D02*
G01*
X97161000Y-215084500D01*
X97161000Y-209115500D01*
X92589000Y-209115500D01*
X92589000Y-215084500D01*
G37*
D12*
X96048000Y-209115500D02*
G75*
G03*
X96048000Y-209115500I-1173000J0D01*
G01*
X96048000Y-215084500D02*
G75*
G03*
X96048000Y-215084500I-1173000J0D01*
G01*
D11*
%TO.C,SW34*%
X244989000Y-157934500D02*
X249561000Y-157934500D01*
X249561000Y-157934500D02*
X249561000Y-151965500D01*
X249561000Y-151965500D02*
X244989000Y-151965500D01*
X244989000Y-151965500D02*
X244989000Y-157934500D01*
G36*
X244989000Y-157934500D02*
G01*
X249561000Y-157934500D01*
X249561000Y-151965500D01*
X244989000Y-151965500D01*
X244989000Y-157934500D01*
G37*
D12*
X248448000Y-151965500D02*
G75*
G03*
X248448000Y-151965500I-1173000J0D01*
G01*
X248448000Y-157934500D02*
G75*
G03*
X248448000Y-157934500I-1173000J0D01*
G01*
D11*
%TO.C,SW42*%
X397389000Y-157934500D02*
X401961000Y-157934500D01*
X401961000Y-157934500D02*
X401961000Y-151965500D01*
X401961000Y-151965500D02*
X397389000Y-151965500D01*
X397389000Y-151965500D02*
X397389000Y-157934500D01*
G36*
X397389000Y-157934500D02*
G01*
X401961000Y-157934500D01*
X401961000Y-151965500D01*
X397389000Y-151965500D01*
X397389000Y-157934500D01*
G37*
D12*
X400848000Y-157934500D02*
G75*
G03*
X400848000Y-157934500I-1173000J0D01*
G01*
X400848000Y-151965500D02*
G75*
G03*
X400848000Y-151965500I-1173000J0D01*
G01*
D11*
%TO.C,SW80*%
X240226500Y-196034500D02*
X244798500Y-196034500D01*
X244798500Y-196034500D02*
X244798500Y-190065500D01*
X244798500Y-190065500D02*
X240226500Y-190065500D01*
X240226500Y-190065500D02*
X240226500Y-196034500D01*
G36*
X240226500Y-196034500D02*
G01*
X244798500Y-196034500D01*
X244798500Y-190065500D01*
X240226500Y-190065500D01*
X240226500Y-196034500D01*
G37*
D12*
X243685500Y-190065500D02*
G75*
G03*
X243685500Y-190065500I-1173000J0D01*
G01*
X243685500Y-196034500D02*
G75*
G03*
X243685500Y-196034500I-1173000J0D01*
G01*
D11*
%TO.C,SW6*%
X168789000Y-138884500D02*
X173361000Y-138884500D01*
X173361000Y-138884500D02*
X173361000Y-132915500D01*
X173361000Y-132915500D02*
X168789000Y-132915500D01*
X168789000Y-132915500D02*
X168789000Y-138884500D01*
G36*
X168789000Y-138884500D02*
G01*
X173361000Y-138884500D01*
X173361000Y-132915500D01*
X168789000Y-132915500D01*
X168789000Y-138884500D01*
G37*
D12*
X172248000Y-132915500D02*
G75*
G03*
X172248000Y-132915500I-1173000J0D01*
G01*
X172248000Y-138884500D02*
G75*
G03*
X172248000Y-138884500I-1173000J0D01*
G01*
D11*
%TO.C,SW118*%
X73539000Y-234134500D02*
X78111000Y-234134500D01*
X78111000Y-234134500D02*
X78111000Y-228165500D01*
X78111000Y-228165500D02*
X73539000Y-228165500D01*
X73539000Y-228165500D02*
X73539000Y-234134500D01*
G36*
X73539000Y-234134500D02*
G01*
X78111000Y-234134500D01*
X78111000Y-228165500D01*
X73539000Y-228165500D01*
X73539000Y-234134500D01*
G37*
D12*
X76998000Y-234134500D02*
G75*
G03*
X76998000Y-234134500I-1173000J0D01*
G01*
X76998000Y-228165500D02*
G75*
G03*
X76998000Y-228165500I-1173000J0D01*
G01*
D11*
%TO.C,SW74*%
X111639000Y-196034500D02*
X116211000Y-196034500D01*
X116211000Y-196034500D02*
X116211000Y-190065500D01*
X116211000Y-190065500D02*
X111639000Y-190065500D01*
X111639000Y-190065500D02*
X111639000Y-196034500D01*
G36*
X111639000Y-196034500D02*
G01*
X116211000Y-196034500D01*
X116211000Y-190065500D01*
X111639000Y-190065500D01*
X111639000Y-196034500D01*
G37*
D12*
X115098000Y-196034500D02*
G75*
G03*
X115098000Y-196034500I-1173000J0D01*
G01*
X115098000Y-190065500D02*
G75*
G03*
X115098000Y-190065500I-1173000J0D01*
G01*
D11*
%TO.C,SW4*%
X130689000Y-138884500D02*
X135261000Y-138884500D01*
X135261000Y-138884500D02*
X135261000Y-132915500D01*
X135261000Y-132915500D02*
X130689000Y-132915500D01*
X130689000Y-132915500D02*
X130689000Y-138884500D01*
G36*
X130689000Y-138884500D02*
G01*
X135261000Y-138884500D01*
X135261000Y-132915500D01*
X130689000Y-132915500D01*
X130689000Y-138884500D01*
G37*
D12*
X134148000Y-138884500D02*
G75*
G03*
X134148000Y-138884500I-1173000J0D01*
G01*
X134148000Y-132915500D02*
G75*
G03*
X134148000Y-132915500I-1173000J0D01*
G01*
D11*
%TO.C,SW45*%
X454539000Y-157934500D02*
X459111000Y-157934500D01*
X459111000Y-157934500D02*
X459111000Y-151965500D01*
X459111000Y-151965500D02*
X454539000Y-151965500D01*
X454539000Y-151965500D02*
X454539000Y-157934500D01*
G36*
X454539000Y-157934500D02*
G01*
X459111000Y-157934500D01*
X459111000Y-151965500D01*
X454539000Y-151965500D01*
X454539000Y-157934500D01*
G37*
D12*
X457998000Y-157934500D02*
G75*
G03*
X457998000Y-157934500I-1173000J0D01*
G01*
X457998000Y-151965500D02*
G75*
G03*
X457998000Y-151965500I-1173000J0D01*
G01*
D11*
%TO.C,SW43*%
X416439000Y-157934500D02*
X421011000Y-157934500D01*
X421011000Y-157934500D02*
X421011000Y-151965500D01*
X421011000Y-151965500D02*
X416439000Y-151965500D01*
X416439000Y-151965500D02*
X416439000Y-157934500D01*
G36*
X416439000Y-157934500D02*
G01*
X421011000Y-157934500D01*
X421011000Y-151965500D01*
X416439000Y-151965500D01*
X416439000Y-157934500D01*
G37*
D12*
X419898000Y-151965500D02*
G75*
G03*
X419898000Y-151965500I-1173000J0D01*
G01*
X419898000Y-157934500D02*
G75*
G03*
X419898000Y-157934500I-1173000J0D01*
G01*
D11*
%TO.C,SW103*%
X230701500Y-215084500D02*
X235273500Y-215084500D01*
X235273500Y-215084500D02*
X235273500Y-209115500D01*
X235273500Y-209115500D02*
X230701500Y-209115500D01*
X230701500Y-209115500D02*
X230701500Y-215084500D01*
G36*
X230701500Y-215084500D02*
G01*
X235273500Y-215084500D01*
X235273500Y-209115500D01*
X230701500Y-209115500D01*
X230701500Y-215084500D01*
G37*
D12*
X234160500Y-209115500D02*
G75*
G03*
X234160500Y-209115500I-1173000J0D01*
G01*
X234160500Y-215084500D02*
G75*
G03*
X234160500Y-215084500I-1173000J0D01*
G01*
D11*
%TO.C,SW20*%
X435489000Y-138884500D02*
X440061000Y-138884500D01*
X440061000Y-138884500D02*
X440061000Y-132915500D01*
X440061000Y-132915500D02*
X435489000Y-132915500D01*
X435489000Y-132915500D02*
X435489000Y-138884500D01*
G36*
X435489000Y-138884500D02*
G01*
X440061000Y-138884500D01*
X440061000Y-132915500D01*
X435489000Y-132915500D01*
X435489000Y-138884500D01*
G37*
D12*
X438948000Y-138884500D02*
G75*
G03*
X438948000Y-138884500I-1173000J0D01*
G01*
X438948000Y-132915500D02*
G75*
G03*
X438948000Y-132915500I-1173000J0D01*
G01*
D11*
%TO.C,SW13*%
X302139000Y-138884500D02*
X306711000Y-138884500D01*
X306711000Y-138884500D02*
X306711000Y-132915500D01*
X306711000Y-132915500D02*
X302139000Y-132915500D01*
X302139000Y-132915500D02*
X302139000Y-138884500D01*
G36*
X302139000Y-138884500D02*
G01*
X306711000Y-138884500D01*
X306711000Y-132915500D01*
X302139000Y-132915500D01*
X302139000Y-138884500D01*
G37*
D12*
X305598000Y-138884500D02*
G75*
G03*
X305598000Y-138884500I-1173000J0D01*
G01*
X305598000Y-132915500D02*
G75*
G03*
X305598000Y-132915500I-1173000J0D01*
G01*
D11*
%TO.C,SW30*%
X168789000Y-157934500D02*
X173361000Y-157934500D01*
X173361000Y-157934500D02*
X173361000Y-151965500D01*
X173361000Y-151965500D02*
X168789000Y-151965500D01*
X168789000Y-151965500D02*
X168789000Y-157934500D01*
G36*
X168789000Y-157934500D02*
G01*
X173361000Y-157934500D01*
X173361000Y-151965500D01*
X168789000Y-151965500D01*
X168789000Y-157934500D01*
G37*
D12*
X172248000Y-151965500D02*
G75*
G03*
X172248000Y-151965500I-1173000J0D01*
G01*
X172248000Y-157934500D02*
G75*
G03*
X172248000Y-157934500I-1173000J0D01*
G01*
D11*
%TO.C,SW58*%
X254514000Y-176984500D02*
X259086000Y-176984500D01*
X259086000Y-176984500D02*
X259086000Y-171015500D01*
X259086000Y-171015500D02*
X254514000Y-171015500D01*
X254514000Y-171015500D02*
X254514000Y-176984500D01*
G36*
X254514000Y-176984500D02*
G01*
X259086000Y-176984500D01*
X259086000Y-171015500D01*
X254514000Y-171015500D01*
X254514000Y-176984500D01*
G37*
D12*
X257973000Y-171015500D02*
G75*
G03*
X257973000Y-171015500I-1173000J0D01*
G01*
X257973000Y-176984500D02*
G75*
G03*
X257973000Y-176984500I-1173000J0D01*
G01*
D11*
%TO.C,SW78*%
X202126500Y-196034500D02*
X206698500Y-196034500D01*
X206698500Y-196034500D02*
X206698500Y-190065500D01*
X206698500Y-190065500D02*
X202126500Y-190065500D01*
X202126500Y-190065500D02*
X202126500Y-196034500D01*
G36*
X202126500Y-196034500D02*
G01*
X206698500Y-196034500D01*
X206698500Y-190065500D01*
X202126500Y-190065500D01*
X202126500Y-196034500D01*
G37*
D12*
X205585500Y-190065500D02*
G75*
G03*
X205585500Y-190065500I-1173000J0D01*
G01*
X205585500Y-196034500D02*
G75*
G03*
X205585500Y-196034500I-1173000J0D01*
G01*
D11*
%TO.C,SW123a0*%
X345001500Y-234134500D02*
X349573500Y-234134500D01*
X349573500Y-234134500D02*
X349573500Y-228165500D01*
X349573500Y-228165500D02*
X345001500Y-228165500D01*
X345001500Y-228165500D02*
X345001500Y-234134500D01*
G36*
X345001500Y-234134500D02*
G01*
X349573500Y-234134500D01*
X349573500Y-228165500D01*
X345001500Y-228165500D01*
X345001500Y-234134500D01*
G37*
D12*
X348460500Y-228165500D02*
G75*
G03*
X348460500Y-228165500I-1173000J0D01*
G01*
X348460500Y-234134500D02*
G75*
G03*
X348460500Y-234134500I-1173000J0D01*
G01*
D11*
%TO.C,SW125*%
X454539000Y-234134500D02*
X459111000Y-234134500D01*
X459111000Y-234134500D02*
X459111000Y-228165500D01*
X459111000Y-228165500D02*
X454539000Y-228165500D01*
X454539000Y-228165500D02*
X454539000Y-234134500D01*
G36*
X454539000Y-234134500D02*
G01*
X459111000Y-234134500D01*
X459111000Y-228165500D01*
X454539000Y-228165500D01*
X454539000Y-234134500D01*
G37*
D12*
X457998000Y-234134500D02*
G75*
G03*
X457998000Y-234134500I-1173000J0D01*
G01*
X457998000Y-228165500D02*
G75*
G03*
X457998000Y-228165500I-1173000J0D01*
G01*
D11*
%TO.C,SW37*%
X302139000Y-157934500D02*
X306711000Y-157934500D01*
X306711000Y-157934500D02*
X306711000Y-151965500D01*
X306711000Y-151965500D02*
X302139000Y-151965500D01*
X302139000Y-151965500D02*
X302139000Y-157934500D01*
G36*
X302139000Y-157934500D02*
G01*
X306711000Y-157934500D01*
X306711000Y-151965500D01*
X302139000Y-151965500D01*
X302139000Y-157934500D01*
G37*
D12*
X305598000Y-157934500D02*
G75*
G03*
X305598000Y-157934500I-1173000J0D01*
G01*
X305598000Y-151965500D02*
G75*
G03*
X305598000Y-151965500I-1173000J0D01*
G01*
D11*
%TO.C,SW122a0*%
X192601500Y-234134500D02*
X197173500Y-234134500D01*
X197173500Y-234134500D02*
X197173500Y-228165500D01*
X197173500Y-228165500D02*
X192601500Y-228165500D01*
X192601500Y-228165500D02*
X192601500Y-234134500D01*
G36*
X192601500Y-234134500D02*
G01*
X197173500Y-234134500D01*
X197173500Y-228165500D01*
X192601500Y-228165500D01*
X192601500Y-234134500D01*
G37*
D12*
X196060500Y-228165500D02*
G75*
G03*
X196060500Y-228165500I-1173000J0D01*
G01*
X196060500Y-234134500D02*
G75*
G03*
X196060500Y-234134500I-1173000J0D01*
G01*
D11*
%TO.C,SW81*%
X259276500Y-196034500D02*
X263848500Y-196034500D01*
X263848500Y-196034500D02*
X263848500Y-190065500D01*
X263848500Y-190065500D02*
X259276500Y-190065500D01*
X259276500Y-190065500D02*
X259276500Y-196034500D01*
G36*
X259276500Y-196034500D02*
G01*
X263848500Y-196034500D01*
X263848500Y-190065500D01*
X259276500Y-190065500D01*
X259276500Y-196034500D01*
G37*
D12*
X262735500Y-196034500D02*
G75*
G03*
X262735500Y-196034500I-1173000J0D01*
G01*
X262735500Y-190065500D02*
G75*
G03*
X262735500Y-190065500I-1173000J0D01*
G01*
D11*
%TO.C,SW39*%
X340239000Y-157934500D02*
X344811000Y-157934500D01*
X344811000Y-157934500D02*
X344811000Y-151965500D01*
X344811000Y-151965500D02*
X340239000Y-151965500D01*
X340239000Y-151965500D02*
X340239000Y-157934500D01*
G36*
X340239000Y-157934500D02*
G01*
X344811000Y-157934500D01*
X344811000Y-151965500D01*
X340239000Y-151965500D01*
X340239000Y-157934500D01*
G37*
D12*
X343698000Y-157934500D02*
G75*
G03*
X343698000Y-157934500I-1173000J0D01*
G01*
X343698000Y-151965500D02*
G75*
G03*
X343698000Y-151965500I-1173000J0D01*
G01*
D11*
%TO.C,SW72*%
X73539000Y-196034500D02*
X78111000Y-196034500D01*
X78111000Y-196034500D02*
X78111000Y-190065500D01*
X78111000Y-190065500D02*
X73539000Y-190065500D01*
X73539000Y-190065500D02*
X73539000Y-196034500D01*
G36*
X73539000Y-196034500D02*
G01*
X78111000Y-196034500D01*
X78111000Y-190065500D01*
X73539000Y-190065500D01*
X73539000Y-196034500D01*
G37*
D12*
X76998000Y-196034500D02*
G75*
G03*
X76998000Y-196034500I-1173000J0D01*
G01*
X76998000Y-190065500D02*
G75*
G03*
X76998000Y-190065500I-1173000J0D01*
G01*
D11*
%TO.C,SW3*%
X111639000Y-138884500D02*
X116211000Y-138884500D01*
X116211000Y-138884500D02*
X116211000Y-132915500D01*
X116211000Y-132915500D02*
X111639000Y-132915500D01*
X111639000Y-132915500D02*
X111639000Y-138884500D01*
G36*
X111639000Y-138884500D02*
G01*
X116211000Y-138884500D01*
X116211000Y-132915500D01*
X111639000Y-132915500D01*
X111639000Y-138884500D01*
G37*
D12*
X115098000Y-132915500D02*
G75*
G03*
X115098000Y-132915500I-1173000J0D01*
G01*
X115098000Y-138884500D02*
G75*
G03*
X115098000Y-138884500I-1173000J0D01*
G01*
D11*
%TO.C,SW27*%
X111639000Y-157934500D02*
X116211000Y-157934500D01*
X116211000Y-157934500D02*
X116211000Y-151965500D01*
X116211000Y-151965500D02*
X111639000Y-151965500D01*
X111639000Y-151965500D02*
X111639000Y-157934500D01*
G36*
X111639000Y-157934500D02*
G01*
X116211000Y-157934500D01*
X116211000Y-151965500D01*
X111639000Y-151965500D01*
X111639000Y-157934500D01*
G37*
D12*
X115098000Y-151965500D02*
G75*
G03*
X115098000Y-151965500I-1173000J0D01*
G01*
X115098000Y-157934500D02*
G75*
G03*
X115098000Y-157934500I-1173000J0D01*
G01*
D11*
%TO.C,SW94*%
X511689000Y-196034500D02*
X516261000Y-196034500D01*
X516261000Y-196034500D02*
X516261000Y-190065500D01*
X516261000Y-190065500D02*
X511689000Y-190065500D01*
X511689000Y-190065500D02*
X511689000Y-196034500D01*
G36*
X511689000Y-196034500D02*
G01*
X516261000Y-196034500D01*
X516261000Y-190065500D01*
X511689000Y-190065500D01*
X511689000Y-196034500D01*
G37*
D12*
X515148000Y-196034500D02*
G75*
G03*
X515148000Y-196034500I-1173000J0D01*
G01*
X515148000Y-190065500D02*
G75*
G03*
X515148000Y-190065500I-1173000J0D01*
G01*
D11*
%TO.C,SW117*%
X511689000Y-215084500D02*
X516261000Y-215084500D01*
X516261000Y-215084500D02*
X516261000Y-209115500D01*
X516261000Y-209115500D02*
X511689000Y-209115500D01*
X511689000Y-209115500D02*
X511689000Y-215084500D01*
G36*
X511689000Y-215084500D02*
G01*
X516261000Y-215084500D01*
X516261000Y-209115500D01*
X511689000Y-209115500D01*
X511689000Y-215084500D01*
G37*
D12*
X515148000Y-209115500D02*
G75*
G03*
X515148000Y-209115500I-1173000J0D01*
G01*
X515148000Y-215084500D02*
G75*
G03*
X515148000Y-215084500I-1173000J0D01*
G01*
D11*
%TO.C,SW26*%
X92589000Y-157934500D02*
X97161000Y-157934500D01*
X97161000Y-157934500D02*
X97161000Y-151965500D01*
X97161000Y-151965500D02*
X92589000Y-151965500D01*
X92589000Y-151965500D02*
X92589000Y-157934500D01*
G36*
X92589000Y-157934500D02*
G01*
X97161000Y-157934500D01*
X97161000Y-151965500D01*
X92589000Y-151965500D01*
X92589000Y-157934500D01*
G37*
D12*
X96048000Y-157934500D02*
G75*
G03*
X96048000Y-157934500I-1173000J0D01*
G01*
X96048000Y-151965500D02*
G75*
G03*
X96048000Y-151965500I-1173000J0D01*
G01*
D11*
%TO.C,SW18*%
X397389000Y-138884500D02*
X401961000Y-138884500D01*
X401961000Y-138884500D02*
X401961000Y-132915500D01*
X401961000Y-132915500D02*
X397389000Y-132915500D01*
X397389000Y-132915500D02*
X397389000Y-138884500D01*
G36*
X397389000Y-138884500D02*
G01*
X401961000Y-138884500D01*
X401961000Y-132915500D01*
X397389000Y-132915500D01*
X397389000Y-138884500D01*
G37*
D12*
X400848000Y-138884500D02*
G75*
G03*
X400848000Y-138884500I-1173000J0D01*
G01*
X400848000Y-132915500D02*
G75*
G03*
X400848000Y-132915500I-1173000J0D01*
G01*
D11*
%TO.C,SW53*%
X159264000Y-176984500D02*
X163836000Y-176984500D01*
X163836000Y-176984500D02*
X163836000Y-171015500D01*
X163836000Y-171015500D02*
X159264000Y-171015500D01*
X159264000Y-171015500D02*
X159264000Y-176984500D01*
G36*
X159264000Y-176984500D02*
G01*
X163836000Y-176984500D01*
X163836000Y-171015500D01*
X159264000Y-171015500D01*
X159264000Y-176984500D01*
G37*
D12*
X162723000Y-171015500D02*
G75*
G03*
X162723000Y-171015500I-1173000J0D01*
G01*
X162723000Y-176984500D02*
G75*
G03*
X162723000Y-176984500I-1173000J0D01*
G01*
D11*
%TO.C,SW124a0*%
X383101500Y-234134500D02*
X387673500Y-234134500D01*
X387673500Y-234134500D02*
X387673500Y-228165500D01*
X387673500Y-228165500D02*
X383101500Y-228165500D01*
X383101500Y-228165500D02*
X383101500Y-234134500D01*
G36*
X383101500Y-234134500D02*
G01*
X387673500Y-234134500D01*
X387673500Y-228165500D01*
X383101500Y-228165500D01*
X383101500Y-234134500D01*
G37*
D12*
X386560500Y-234134500D02*
G75*
G03*
X386560500Y-234134500I-1173000J0D01*
G01*
X386560500Y-228165500D02*
G75*
G03*
X386560500Y-228165500I-1173000J0D01*
G01*
D11*
%TO.C,SW60*%
X292614000Y-176984500D02*
X297186000Y-176984500D01*
X297186000Y-176984500D02*
X297186000Y-171015500D01*
X297186000Y-171015500D02*
X292614000Y-171015500D01*
X292614000Y-171015500D02*
X292614000Y-176984500D01*
G36*
X292614000Y-176984500D02*
G01*
X297186000Y-176984500D01*
X297186000Y-171015500D01*
X292614000Y-171015500D01*
X292614000Y-176984500D01*
G37*
D12*
X296073000Y-176984500D02*
G75*
G03*
X296073000Y-176984500I-1173000J0D01*
G01*
X296073000Y-171015500D02*
G75*
G03*
X296073000Y-171015500I-1173000J0D01*
G01*
D11*
%TO.C,SW29*%
X149739000Y-157934500D02*
X154311000Y-157934500D01*
X154311000Y-157934500D02*
X154311000Y-151965500D01*
X154311000Y-151965500D02*
X149739000Y-151965500D01*
X149739000Y-151965500D02*
X149739000Y-157934500D01*
G36*
X149739000Y-157934500D02*
G01*
X154311000Y-157934500D01*
X154311000Y-151965500D01*
X149739000Y-151965500D01*
X149739000Y-157934500D01*
G37*
D12*
X153198000Y-151965500D02*
G75*
G03*
X153198000Y-151965500I-1173000J0D01*
G01*
X153198000Y-157934500D02*
G75*
G03*
X153198000Y-157934500I-1173000J0D01*
G01*
D11*
%TO.C,SW126*%
X473589000Y-234134500D02*
X478161000Y-234134500D01*
X478161000Y-234134500D02*
X478161000Y-228165500D01*
X478161000Y-228165500D02*
X473589000Y-228165500D01*
X473589000Y-228165500D02*
X473589000Y-234134500D01*
G36*
X473589000Y-234134500D02*
G01*
X478161000Y-234134500D01*
X478161000Y-228165500D01*
X473589000Y-228165500D01*
X473589000Y-234134500D01*
G37*
D12*
X477048000Y-228165500D02*
G75*
G03*
X477048000Y-228165500I-1173000J0D01*
G01*
X477048000Y-234134500D02*
G75*
G03*
X477048000Y-234134500I-1173000J0D01*
G01*
D11*
%TO.C,SW71*%
X511689000Y-176984500D02*
X516261000Y-176984500D01*
X516261000Y-176984500D02*
X516261000Y-171015500D01*
X516261000Y-171015500D02*
X511689000Y-171015500D01*
X511689000Y-171015500D02*
X511689000Y-176984500D01*
G36*
X511689000Y-176984500D02*
G01*
X516261000Y-176984500D01*
X516261000Y-171015500D01*
X511689000Y-171015500D01*
X511689000Y-176984500D01*
G37*
D12*
X515148000Y-171015500D02*
G75*
G03*
X515148000Y-171015500I-1173000J0D01*
G01*
X515148000Y-176984500D02*
G75*
G03*
X515148000Y-176984500I-1173000J0D01*
G01*
D11*
%TO.C,SW111*%
X383101500Y-215084500D02*
X387673500Y-215084500D01*
X387673500Y-215084500D02*
X387673500Y-209115500D01*
X387673500Y-209115500D02*
X383101500Y-209115500D01*
X383101500Y-209115500D02*
X383101500Y-215084500D01*
G36*
X383101500Y-215084500D02*
G01*
X387673500Y-215084500D01*
X387673500Y-209115500D01*
X383101500Y-209115500D01*
X383101500Y-215084500D01*
G37*
D12*
X386560500Y-209115500D02*
G75*
G03*
X386560500Y-209115500I-1173000J0D01*
G01*
X386560500Y-215084500D02*
G75*
G03*
X386560500Y-215084500I-1173000J0D01*
G01*
D11*
%TO.C,SW9*%
X225939000Y-138884500D02*
X230511000Y-138884500D01*
X230511000Y-138884500D02*
X230511000Y-132915500D01*
X230511000Y-132915500D02*
X225939000Y-132915500D01*
X225939000Y-132915500D02*
X225939000Y-138884500D01*
G36*
X225939000Y-138884500D02*
G01*
X230511000Y-138884500D01*
X230511000Y-132915500D01*
X225939000Y-132915500D01*
X225939000Y-138884500D01*
G37*
D12*
X229398000Y-132915500D02*
G75*
G03*
X229398000Y-132915500I-1173000J0D01*
G01*
X229398000Y-138884500D02*
G75*
G03*
X229398000Y-138884500I-1173000J0D01*
G01*
D11*
%TO.C,SW2*%
X92589000Y-138884500D02*
X97161000Y-138884500D01*
X97161000Y-138884500D02*
X97161000Y-132915500D01*
X97161000Y-132915500D02*
X92589000Y-132915500D01*
X92589000Y-132915500D02*
X92589000Y-138884500D01*
G36*
X92589000Y-138884500D02*
G01*
X97161000Y-138884500D01*
X97161000Y-132915500D01*
X92589000Y-132915500D01*
X92589000Y-138884500D01*
G37*
D12*
X96048000Y-132915500D02*
G75*
G03*
X96048000Y-132915500I-1173000J0D01*
G01*
X96048000Y-138884500D02*
G75*
G03*
X96048000Y-138884500I-1173000J0D01*
G01*
D11*
%TO.C,SW77*%
X183076500Y-196034500D02*
X187648500Y-196034500D01*
X187648500Y-196034500D02*
X187648500Y-190065500D01*
X187648500Y-190065500D02*
X183076500Y-190065500D01*
X183076500Y-190065500D02*
X183076500Y-196034500D01*
G36*
X183076500Y-196034500D02*
G01*
X187648500Y-196034500D01*
X187648500Y-190065500D01*
X183076500Y-190065500D01*
X183076500Y-196034500D01*
G37*
D12*
X186535500Y-196034500D02*
G75*
G03*
X186535500Y-196034500I-1173000J0D01*
G01*
X186535500Y-190065500D02*
G75*
G03*
X186535500Y-190065500I-1173000J0D01*
G01*
D11*
%TO.C,SW36*%
X283089000Y-157934500D02*
X287661000Y-157934500D01*
X287661000Y-157934500D02*
X287661000Y-151965500D01*
X287661000Y-151965500D02*
X283089000Y-151965500D01*
X283089000Y-151965500D02*
X283089000Y-157934500D01*
G36*
X283089000Y-157934500D02*
G01*
X287661000Y-157934500D01*
X287661000Y-151965500D01*
X283089000Y-151965500D01*
X283089000Y-157934500D01*
G37*
D12*
X286548000Y-157934500D02*
G75*
G03*
X286548000Y-157934500I-1173000J0D01*
G01*
X286548000Y-151965500D02*
G75*
G03*
X286548000Y-151965500I-1173000J0D01*
G01*
D11*
%TO.C,SW75*%
X130689000Y-196034500D02*
X135261000Y-196034500D01*
X135261000Y-196034500D02*
X135261000Y-190065500D01*
X135261000Y-190065500D02*
X130689000Y-190065500D01*
X130689000Y-190065500D02*
X130689000Y-196034500D01*
G36*
X130689000Y-196034500D02*
G01*
X135261000Y-196034500D01*
X135261000Y-190065500D01*
X130689000Y-190065500D01*
X130689000Y-196034500D01*
G37*
D12*
X134148000Y-196034500D02*
G75*
G03*
X134148000Y-196034500I-1173000J0D01*
G01*
X134148000Y-190065500D02*
G75*
G03*
X134148000Y-190065500I-1173000J0D01*
G01*
D11*
%TO.C,SW47*%
X492639000Y-157934500D02*
X497211000Y-157934500D01*
X497211000Y-157934500D02*
X497211000Y-151965500D01*
X497211000Y-151965500D02*
X492639000Y-151965500D01*
X492639000Y-151965500D02*
X492639000Y-157934500D01*
G36*
X492639000Y-157934500D02*
G01*
X497211000Y-157934500D01*
X497211000Y-151965500D01*
X492639000Y-151965500D01*
X492639000Y-157934500D01*
G37*
D12*
X496098000Y-151965500D02*
G75*
G03*
X496098000Y-151965500I-1173000J0D01*
G01*
X496098000Y-157934500D02*
G75*
G03*
X496098000Y-157934500I-1173000J0D01*
G01*
D11*
%TO.C,SW25*%
X73539000Y-157934500D02*
X78111000Y-157934500D01*
X78111000Y-157934500D02*
X78111000Y-151965500D01*
X78111000Y-151965500D02*
X73539000Y-151965500D01*
X73539000Y-151965500D02*
X73539000Y-157934500D01*
G36*
X73539000Y-157934500D02*
G01*
X78111000Y-157934500D01*
X78111000Y-151965500D01*
X73539000Y-151965500D01*
X73539000Y-157934500D01*
G37*
D12*
X76998000Y-157934500D02*
G75*
G03*
X76998000Y-157934500I-1173000J0D01*
G01*
X76998000Y-151965500D02*
G75*
G03*
X76998000Y-151965500I-1173000J0D01*
G01*
D11*
%TO.C,SW38*%
X321189000Y-157934500D02*
X325761000Y-157934500D01*
X325761000Y-157934500D02*
X325761000Y-151965500D01*
X325761000Y-151965500D02*
X321189000Y-151965500D01*
X321189000Y-151965500D02*
X321189000Y-157934500D01*
G36*
X321189000Y-157934500D02*
G01*
X325761000Y-157934500D01*
X325761000Y-151965500D01*
X321189000Y-151965500D01*
X321189000Y-157934500D01*
G37*
D12*
X324648000Y-157934500D02*
G75*
G03*
X324648000Y-157934500I-1173000J0D01*
G01*
X324648000Y-151965500D02*
G75*
G03*
X324648000Y-151965500I-1173000J0D01*
G01*
D11*
%TO.C,SW108*%
X325951500Y-215084500D02*
X330523500Y-215084500D01*
X330523500Y-215084500D02*
X330523500Y-209115500D01*
X330523500Y-209115500D02*
X325951500Y-209115500D01*
X325951500Y-209115500D02*
X325951500Y-215084500D01*
G36*
X325951500Y-215084500D02*
G01*
X330523500Y-215084500D01*
X330523500Y-209115500D01*
X325951500Y-209115500D01*
X325951500Y-215084500D01*
G37*
D12*
X329410500Y-215084500D02*
G75*
G03*
X329410500Y-215084500I-1173000J0D01*
G01*
X329410500Y-209115500D02*
G75*
G03*
X329410500Y-209115500I-1173000J0D01*
G01*
D11*
%TO.C,SW65*%
X387864000Y-176984500D02*
X392436000Y-176984500D01*
X392436000Y-176984500D02*
X392436000Y-171015500D01*
X392436000Y-171015500D02*
X387864000Y-171015500D01*
X387864000Y-171015500D02*
X387864000Y-176984500D01*
G36*
X387864000Y-176984500D02*
G01*
X392436000Y-176984500D01*
X392436000Y-171015500D01*
X387864000Y-171015500D01*
X387864000Y-176984500D01*
G37*
D12*
X391323000Y-176984500D02*
G75*
G03*
X391323000Y-176984500I-1173000J0D01*
G01*
X391323000Y-171015500D02*
G75*
G03*
X391323000Y-171015500I-1173000J0D01*
G01*
D11*
%TO.C,SW41*%
X378339000Y-157934500D02*
X382911000Y-157934500D01*
X382911000Y-157934500D02*
X382911000Y-151965500D01*
X382911000Y-151965500D02*
X378339000Y-151965500D01*
X378339000Y-151965500D02*
X378339000Y-157934500D01*
G36*
X378339000Y-157934500D02*
G01*
X382911000Y-157934500D01*
X382911000Y-151965500D01*
X378339000Y-151965500D01*
X378339000Y-157934500D01*
G37*
D12*
X381798000Y-157934500D02*
G75*
G03*
X381798000Y-157934500I-1173000J0D01*
G01*
X381798000Y-151965500D02*
G75*
G03*
X381798000Y-151965500I-1173000J0D01*
G01*
D11*
%TO.C,SW114*%
X454539000Y-215084500D02*
X459111000Y-215084500D01*
X459111000Y-215084500D02*
X459111000Y-209115500D01*
X459111000Y-209115500D02*
X454539000Y-209115500D01*
X454539000Y-209115500D02*
X454539000Y-215084500D01*
G36*
X454539000Y-215084500D02*
G01*
X459111000Y-215084500D01*
X459111000Y-209115500D01*
X454539000Y-209115500D01*
X454539000Y-215084500D01*
G37*
D12*
X457998000Y-209115500D02*
G75*
G03*
X457998000Y-209115500I-1173000J0D01*
G01*
X457998000Y-215084500D02*
G75*
G03*
X457998000Y-215084500I-1173000J0D01*
G01*
D11*
%TO.C,SW106*%
X287851500Y-215084500D02*
X292423500Y-215084500D01*
X292423500Y-215084500D02*
X292423500Y-209115500D01*
X292423500Y-209115500D02*
X287851500Y-209115500D01*
X287851500Y-209115500D02*
X287851500Y-215084500D01*
G36*
X287851500Y-215084500D02*
G01*
X292423500Y-215084500D01*
X292423500Y-209115500D01*
X287851500Y-209115500D01*
X287851500Y-215084500D01*
G37*
D12*
X291310500Y-215084500D02*
G75*
G03*
X291310500Y-215084500I-1173000J0D01*
G01*
X291310500Y-209115500D02*
G75*
G03*
X291310500Y-209115500I-1173000J0D01*
G01*
D11*
%TO.C,SW11*%
X264039000Y-138884500D02*
X268611000Y-138884500D01*
X268611000Y-138884500D02*
X268611000Y-132915500D01*
X268611000Y-132915500D02*
X264039000Y-132915500D01*
X264039000Y-132915500D02*
X264039000Y-138884500D01*
G36*
X264039000Y-138884500D02*
G01*
X268611000Y-138884500D01*
X268611000Y-132915500D01*
X264039000Y-132915500D01*
X264039000Y-138884500D01*
G37*
D12*
X267498000Y-132915500D02*
G75*
G03*
X267498000Y-132915500I-1173000J0D01*
G01*
X267498000Y-138884500D02*
G75*
G03*
X267498000Y-138884500I-1173000J0D01*
G01*
D11*
%TO.C,SW63*%
X349764000Y-176984500D02*
X354336000Y-176984500D01*
X354336000Y-176984500D02*
X354336000Y-171015500D01*
X354336000Y-171015500D02*
X349764000Y-171015500D01*
X349764000Y-171015500D02*
X349764000Y-176984500D01*
G36*
X349764000Y-176984500D02*
G01*
X354336000Y-176984500D01*
X354336000Y-171015500D01*
X349764000Y-171015500D01*
X349764000Y-176984500D01*
G37*
D12*
X353223000Y-176984500D02*
G75*
G03*
X353223000Y-176984500I-1173000J0D01*
G01*
X353223000Y-171015500D02*
G75*
G03*
X353223000Y-171015500I-1173000J0D01*
G01*
D11*
%TO.C,SW35*%
X264039000Y-157934500D02*
X268611000Y-157934500D01*
X268611000Y-157934500D02*
X268611000Y-151965500D01*
X268611000Y-151965500D02*
X264039000Y-151965500D01*
X264039000Y-151965500D02*
X264039000Y-157934500D01*
G36*
X264039000Y-157934500D02*
G01*
X268611000Y-157934500D01*
X268611000Y-151965500D01*
X264039000Y-151965500D01*
X264039000Y-157934500D01*
G37*
D12*
X267498000Y-157934500D02*
G75*
G03*
X267498000Y-157934500I-1173000J0D01*
G01*
X267498000Y-151965500D02*
G75*
G03*
X267498000Y-151965500I-1173000J0D01*
G01*
%TD*%
D13*
%TO.C,*%
X365890000Y-179100000D03*
%TD*%
%TO.C,*%
X222630000Y-130670000D03*
%TD*%
D14*
%TO.C,REF\u002A\u002A*%
X79600000Y-243900000D03*
%TD*%
D13*
%TO.C,*%
X332490000Y-100960000D03*
%TD*%
D15*
%TO.C,SW91*%
X456825000Y-190510000D03*
X456825000Y-193050000D03*
X456825000Y-195590000D03*
%TD*%
D13*
%TO.C,*%
X381790000Y-201710000D03*
%TD*%
D14*
%TO.C,REF\u002A\u002A*%
X384550000Y-123300000D03*
%TD*%
D13*
%TO.C,*%
X127630000Y-182470000D03*
%TD*%
%TO.C,*%
X195953859Y-178160000D03*
%TD*%
%TO.C,*%
X350160000Y-184800000D03*
%TD*%
%TO.C,*%
X389320000Y-187710000D03*
%TD*%
D15*
%TO.C,SW73*%
X94875000Y-190510000D03*
X94875000Y-193050000D03*
X94875000Y-195590000D03*
%TD*%
%TO.C,SW104*%
X252037500Y-209560000D03*
X252037500Y-212100000D03*
X252037500Y-214640000D03*
%TD*%
%TO.C,SW31*%
X190125000Y-152410000D03*
X190125000Y-154950000D03*
X190125000Y-157490000D03*
%TD*%
D13*
%TO.C,*%
X412800000Y-236550000D03*
%TD*%
D14*
%TO.C,REF\u002A\u002A*%
X463750000Y-212000000D03*
%TD*%
D13*
%TO.C,*%
X451690000Y-196400000D03*
%TD*%
%TO.C,*%
X70690000Y-142590000D03*
%TD*%
%TO.C,*%
X329150000Y-168570000D03*
%TD*%
%TO.C,*%
X122080000Y-126130000D03*
%TD*%
%TO.C,*%
X242220000Y-163100000D03*
%TD*%
%TO.C,*%
X89550000Y-184310000D03*
%TD*%
%TO.C,*%
X393600000Y-142260000D03*
%TD*%
D15*
%TO.C,SW7*%
X190125000Y-133360000D03*
X190125000Y-135900000D03*
X190125000Y-138440000D03*
%TD*%
D13*
%TO.C,*%
X326140000Y-165550000D03*
%TD*%
%TO.C,*%
X251730000Y-178560000D03*
%TD*%
%TO.C,*%
X284350000Y-216510000D03*
%TD*%
D15*
%TO.C,SW112*%
X404437500Y-209560000D03*
X404437500Y-212100000D03*
X404437500Y-214640000D03*
%TD*%
D13*
%TO.C,*%
X418260000Y-213290000D03*
%TD*%
%TO.C,*%
X237165000Y-186290000D03*
%TD*%
%TO.C,*%
X332490000Y-107310000D03*
%TD*%
%TO.C,*%
X242220000Y-151900000D03*
%TD*%
D15*
%TO.C,SW113*%
X423487500Y-209560000D03*
X423487500Y-212100000D03*
X423487500Y-214640000D03*
%TD*%
%TO.C,SW127*%
X494925000Y-228610000D03*
X494925000Y-231150000D03*
X494925000Y-233690000D03*
%TD*%
D14*
%TO.C,REF\u002A\u002A*%
X460800000Y-123300000D03*
%TD*%
D13*
%TO.C,*%
X101310000Y-100810000D03*
%TD*%
D16*
%TO.C,U2*%
X371353000Y-117353000D03*
D17*
X373893000Y-117353000D03*
X376433000Y-117353000D03*
X378973000Y-117353000D03*
X381513000Y-117353000D03*
X384053000Y-117353000D03*
X386593000Y-117353000D03*
X389133000Y-117353000D03*
X391673000Y-117353000D03*
X394213000Y-117353000D03*
X396753000Y-117353000D03*
X399293000Y-117353000D03*
X401833000Y-117353000D03*
X404373000Y-117353000D03*
X406913000Y-117353000D03*
X409453000Y-117353000D03*
X411993000Y-117353000D03*
X414533000Y-117353000D03*
X417073000Y-117353000D03*
X419613000Y-117353000D03*
X419613000Y-102113000D03*
X417073000Y-102113000D03*
X414533000Y-102113000D03*
X411993000Y-102113000D03*
X409453000Y-102113000D03*
X406913000Y-102113000D03*
X404373000Y-102113000D03*
X401833000Y-102113000D03*
X399293000Y-102113000D03*
X396753000Y-102113000D03*
X394213000Y-102113000D03*
X391673000Y-102113000D03*
X389133000Y-102113000D03*
X386593000Y-102113000D03*
X384053000Y-102113000D03*
X381513000Y-102113000D03*
X378973000Y-102113000D03*
X376433000Y-102113000D03*
X373893000Y-102113000D03*
X371353000Y-102113000D03*
%TD*%
D13*
%TO.C,*%
X228020000Y-203970000D03*
%TD*%
%TO.C,*%
X156480000Y-178200000D03*
%TD*%
D15*
%TO.C,SW1*%
X75825000Y-133360000D03*
X75825000Y-135900000D03*
X75825000Y-138440000D03*
%TD*%
D13*
%TO.C,*%
X469170000Y-152470000D03*
%TD*%
%TO.C,*%
X108660000Y-218940000D03*
%TD*%
%TO.C,*%
X309240000Y-167390000D03*
%TD*%
%TO.C,*%
X256190000Y-186420000D03*
%TD*%
%TO.C,*%
X145920000Y-148730000D03*
%TD*%
%TO.C,*%
X89550000Y-217760000D03*
%TD*%
D15*
%TO.C,SW10*%
X247275000Y-133360000D03*
X247275000Y-135900000D03*
X247275000Y-138440000D03*
%TD*%
D13*
%TO.C,*%
X488900000Y-210970000D03*
%TD*%
%TO.C,*%
X313550000Y-107310000D03*
%TD*%
%TO.C,*%
X70690000Y-198670000D03*
%TD*%
%TO.C,*%
X335220000Y-115350000D03*
%TD*%
%TO.C,*%
X299060000Y-160840000D03*
%TD*%
%TO.C,*%
X222630000Y-147430000D03*
%TD*%
%TO.C,*%
X281100000Y-150130000D03*
%TD*%
%TO.C,*%
X210270000Y-205240000D03*
%TD*%
%TO.C,*%
X78330000Y-98980000D03*
%TD*%
D14*
%TO.C,REF\u002A\u002A*%
X168150000Y-174200000D03*
%TD*%
D13*
%TO.C,*%
X318760000Y-141260000D03*
%TD*%
D15*
%TO.C,SW59*%
X275850000Y-171460000D03*
X275850000Y-174000000D03*
X275850000Y-176540000D03*
%TD*%
D18*
%TO.C,J0*%
X481071000Y-96074000D03*
D19*
X481071000Y-93534000D03*
X483611000Y-96074000D03*
X483611000Y-93534000D03*
X486151000Y-96074000D03*
X486151000Y-93534000D03*
X488691000Y-96074000D03*
X488691000Y-93534000D03*
X491231000Y-96074000D03*
X491231000Y-93534000D03*
X493771000Y-96074000D03*
X493771000Y-93534000D03*
X496311000Y-96074000D03*
X496311000Y-93534000D03*
X498851000Y-96074000D03*
X498851000Y-93534000D03*
X501391000Y-96074000D03*
X501391000Y-93534000D03*
X503931000Y-96074000D03*
X503931000Y-93534000D03*
X506471000Y-96074000D03*
X506471000Y-93534000D03*
X509011000Y-96074000D03*
X509011000Y-93534000D03*
X511551000Y-96074000D03*
X511551000Y-93534000D03*
X514091000Y-96074000D03*
X514091000Y-93534000D03*
X516631000Y-96074000D03*
X516631000Y-93534000D03*
X519171000Y-96074000D03*
X519171000Y-93534000D03*
X521711000Y-96074000D03*
X521711000Y-93534000D03*
%TD*%
D13*
%TO.C,*%
X183820000Y-134810000D03*
%TD*%
%TO.C,C15*%
X529390000Y-111050000D03*
X518990000Y-111050000D03*
%TD*%
%TO.C,*%
X103850000Y-126130000D03*
%TD*%
%TO.C,*%
X189850000Y-204500000D03*
%TD*%
D15*
%TO.C,SW98*%
X132975000Y-209560000D03*
X132975000Y-212100000D03*
X132975000Y-214640000D03*
%TD*%
%TO.C,SW93*%
X494925000Y-190510000D03*
X494925000Y-193050000D03*
X494925000Y-195590000D03*
%TD*%
D13*
%TO.C,*%
X488900000Y-230540000D03*
%TD*%
%TO.C,*%
X131000000Y-100690000D03*
%TD*%
%TO.C,*%
X353073333Y-117940000D03*
%TD*%
D16*
%TO.C,U1*%
X238501000Y-117328000D03*
D17*
X241041000Y-117328000D03*
X243581000Y-117328000D03*
X246121000Y-117328000D03*
X248661000Y-117328000D03*
X251201000Y-117328000D03*
X253741000Y-117328000D03*
X256281000Y-117328000D03*
X258821000Y-117328000D03*
X261361000Y-117328000D03*
X263901000Y-117328000D03*
X266441000Y-117328000D03*
X266441000Y-102088000D03*
X263901000Y-102088000D03*
X261361000Y-102088000D03*
X258821000Y-102088000D03*
X256281000Y-102088000D03*
X253741000Y-102088000D03*
X251201000Y-102088000D03*
X248661000Y-102088000D03*
X246121000Y-102088000D03*
X243581000Y-102088000D03*
X241041000Y-102088000D03*
X238501000Y-102088000D03*
%TD*%
D13*
%TO.C,*%
X127630000Y-217470000D03*
%TD*%
D14*
%TO.C,REF\u002A\u002A*%
X79300000Y-123300000D03*
%TD*%
D13*
%TO.C,*%
X127630000Y-201870000D03*
%TD*%
%TO.C,*%
X454050000Y-100940000D03*
%TD*%
%TO.C,*%
X281100000Y-147180000D03*
%TD*%
D14*
%TO.C,REF\u002A\u002A*%
X521200000Y-174200000D03*
%TD*%
D13*
%TO.C,*%
X251730000Y-167820000D03*
%TD*%
%TO.C,*%
X142280000Y-117000000D03*
%TD*%
%TO.C,*%
X339770000Y-209540000D03*
%TD*%
D15*
%TO.C,SW119*%
X94875000Y-228610000D03*
X94875000Y-231150000D03*
X94875000Y-233690000D03*
%TD*%
D13*
%TO.C,*%
X70690000Y-162610000D03*
%TD*%
D15*
%TO.C,SW57*%
X237750000Y-171460000D03*
X237750000Y-174000000D03*
X237750000Y-176540000D03*
%TD*%
D13*
%TO.C,*%
X98110000Y-100810000D03*
%TD*%
%TO.C,*%
X286520000Y-112260000D03*
%TD*%
D15*
%TO.C,SW92*%
X475875000Y-190510000D03*
X475875000Y-193050000D03*
X475875000Y-195590000D03*
%TD*%
%TO.C,SW83*%
X299662500Y-190510000D03*
X299662500Y-193050000D03*
X299662500Y-195590000D03*
%TD*%
D18*
%TO.C,J3_2*%
X324866000Y-97663000D03*
D19*
X327406000Y-97663000D03*
X329946000Y-97663000D03*
X332486000Y-97663000D03*
%TD*%
D13*
%TO.C,*%
X399020000Y-214620000D03*
%TD*%
D15*
%TO.C,SW97*%
X113925000Y-209560000D03*
X113925000Y-212100000D03*
X113925000Y-214640000D03*
%TD*%
D13*
%TO.C,*%
X472360000Y-117710000D03*
%TD*%
%TO.C,Y3*%
X296600000Y-111450000D03*
X307000000Y-111450000D03*
%TD*%
%TO.C,*%
X145920000Y-208000000D03*
%TD*%
%TO.C,*%
X151330000Y-219880000D03*
%TD*%
%TO.C,*%
X448370000Y-215760000D03*
%TD*%
D15*
%TO.C,SW76*%
X166312500Y-190510000D03*
X166312500Y-193050000D03*
X166312500Y-195590000D03*
%TD*%
D13*
%TO.C,*%
X222630000Y-161120000D03*
%TD*%
D15*
%TO.C,SW110*%
X366337500Y-209560000D03*
X366337500Y-212100000D03*
X366337500Y-214640000D03*
%TD*%
D13*
%TO.C,*%
X75130000Y-98980000D03*
%TD*%
D14*
%TO.C,REF\u002A\u002A*%
X419150000Y-174200000D03*
%TD*%
D13*
%TO.C,*%
X108660000Y-215870000D03*
%TD*%
%TO.C,*%
X451700000Y-178070000D03*
%TD*%
%TO.C,*%
X355220000Y-148270000D03*
%TD*%
D15*
%TO.C,SW128*%
X513975000Y-228610000D03*
X513975000Y-231150000D03*
X513975000Y-233690000D03*
%TD*%
%TO.C,SW55*%
X199650000Y-171460000D03*
X199650000Y-174000000D03*
X199650000Y-176540000D03*
%TD*%
D13*
%TO.C,*%
X256190000Y-197560000D03*
%TD*%
%TO.C,*%
X127630000Y-164740000D03*
%TD*%
%TO.C,*%
X488900000Y-195520000D03*
%TD*%
%TO.C,*%
X529540000Y-106890000D03*
%TD*%
D15*
%TO.C,SW5*%
X152025000Y-133360000D03*
X152025000Y-135900000D03*
X152025000Y-138440000D03*
%TD*%
D13*
%TO.C,*%
X127630000Y-206000000D03*
%TD*%
%TO.C,*%
X116550000Y-101440000D03*
%TD*%
D15*
%TO.C,SW105*%
X271087500Y-209560000D03*
X271087500Y-212100000D03*
X271087500Y-214640000D03*
%TD*%
D13*
%TO.C,*%
X174690000Y-202740000D03*
%TD*%
%TO.C,*%
X352130000Y-188220000D03*
%TD*%
%TO.C,*%
X454050000Y-103910000D03*
%TD*%
D15*
%TO.C,SW33*%
X228225000Y-152410000D03*
X228225000Y-154950000D03*
X228225000Y-157490000D03*
%TD*%
%TO.C,SW86*%
X356812500Y-190510000D03*
X356812500Y-193050000D03*
X356812500Y-195590000D03*
%TD*%
D14*
%TO.C,REF\u002A\u002A*%
X182750000Y-212000000D03*
%TD*%
D15*
%TO.C,SW61*%
X313950000Y-171460000D03*
X313950000Y-174000000D03*
X313950000Y-176540000D03*
%TD*%
%TO.C,SW8*%
X209175000Y-133360000D03*
X209175000Y-135900000D03*
X209175000Y-138440000D03*
%TD*%
D13*
%TO.C,*%
X376930000Y-136950000D03*
%TD*%
D15*
%TO.C,SW15*%
X342525000Y-133360000D03*
X342525000Y-135900000D03*
X342525000Y-138440000D03*
%TD*%
D14*
%TO.C,REF\u002A\u002A*%
X463900000Y-174200000D03*
%TD*%
D13*
%TO.C,C16*%
X526200000Y-117100000D03*
X501200000Y-117100000D03*
%TD*%
%TO.C,*%
X337190000Y-147480000D03*
%TD*%
%TO.C,*%
X108660000Y-184600000D03*
%TD*%
%TO.C,*%
X210270000Y-220050000D03*
%TD*%
D15*
%TO.C,SW69*%
X475875000Y-171460000D03*
X475875000Y-174000000D03*
X475875000Y-176540000D03*
%TD*%
D13*
%TO.C,*%
X278950000Y-139060000D03*
%TD*%
%TO.C,*%
X156480000Y-167260000D03*
%TD*%
%TO.C,*%
X332570000Y-120420000D03*
%TD*%
%TO.C,*%
X299060000Y-130670000D03*
%TD*%
%TO.C,*%
X108660000Y-204670000D03*
%TD*%
D15*
%TO.C,SW50*%
X94875000Y-171460000D03*
X94875000Y-174000000D03*
X94875000Y-176540000D03*
%TD*%
D13*
%TO.C,*%
X442690000Y-100940000D03*
%TD*%
D15*
%TO.C,SW44*%
X437775000Y-152410000D03*
X437775000Y-154950000D03*
X437775000Y-157490000D03*
%TD*%
D13*
%TO.C,*%
X70690000Y-181240000D03*
%TD*%
D15*
%TO.C,SW115*%
X475875000Y-209560000D03*
X475875000Y-212100000D03*
X475875000Y-214640000D03*
%TD*%
D13*
%TO.C,*%
X395480000Y-138420000D03*
%TD*%
%TO.C,R10*%
X428210000Y-92300000D03*
X415810000Y-92300000D03*
%TD*%
%TO.C,*%
X448370000Y-196400000D03*
%TD*%
D15*
%TO.C,SW16*%
X361575000Y-133360000D03*
X361575000Y-135900000D03*
X361575000Y-138440000D03*
%TD*%
D13*
%TO.C,*%
X108660000Y-235880000D03*
%TD*%
%TO.C,*%
X331770000Y-197390000D03*
%TD*%
%TO.C,*%
X127630000Y-143460000D03*
%TD*%
D14*
%TO.C,REF\u002A\u002A*%
X82650000Y-174200000D03*
%TD*%
D13*
%TO.C,*%
X145920000Y-159400000D03*
%TD*%
%TO.C,*%
X197900000Y-189640000D03*
%TD*%
%TO.C,*%
X127630000Y-186070000D03*
%TD*%
%TO.C,R11*%
X425670000Y-89690000D03*
X413270000Y-89690000D03*
%TD*%
%TO.C,*%
X275430000Y-112260000D03*
%TD*%
D15*
%TO.C,SW19*%
X418725000Y-133360000D03*
X418725000Y-135900000D03*
X418725000Y-138440000D03*
%TD*%
D13*
%TO.C,*%
X151330000Y-216270000D03*
%TD*%
%TO.C,*%
X318760000Y-148530000D03*
%TD*%
%TO.C,*%
X379520000Y-228080000D03*
%TD*%
D15*
%TO.C,SW120*%
X113925000Y-228610000D03*
X113925000Y-231150000D03*
X113925000Y-233690000D03*
%TD*%
D13*
%TO.C,*%
X375130000Y-160640000D03*
%TD*%
%TO.C,*%
X275180000Y-186420000D03*
%TD*%
%TO.C,*%
X197900000Y-199960000D03*
%TD*%
%TO.C,*%
X228020000Y-216550000D03*
%TD*%
D14*
%TO.C,REF\u002A\u002A*%
X517800000Y-123300000D03*
%TD*%
D13*
%TO.C,*%
X322470000Y-202230000D03*
%TD*%
D15*
%TO.C,SW49*%
X75825000Y-171460000D03*
X75825000Y-174000000D03*
X75825000Y-176540000D03*
%TD*%
%TO.C,SW70*%
X494925000Y-171460000D03*
X494925000Y-174000000D03*
X494925000Y-176540000D03*
%TD*%
D13*
%TO.C,*%
X439990000Y-110730000D03*
%TD*%
%TO.C,*%
X313300000Y-197130000D03*
%TD*%
D15*
%TO.C,SW28*%
X132975000Y-152410000D03*
X132975000Y-154950000D03*
X132975000Y-157490000D03*
%TD*%
D13*
%TO.C,*%
X471440000Y-236110000D03*
%TD*%
%TO.C,*%
X436010000Y-88520000D03*
%TD*%
%TO.C,*%
X318760000Y-161500000D03*
%TD*%
%TO.C,*%
X488900000Y-176760000D03*
%TD*%
D15*
%TO.C,SW54*%
X180600000Y-171460000D03*
X180600000Y-174000000D03*
X180600000Y-176540000D03*
%TD*%
D13*
%TO.C,*%
X395480000Y-156430000D03*
%TD*%
%TO.C,*%
X451600000Y-110900000D03*
%TD*%
%TO.C,*%
X488900000Y-157550000D03*
%TD*%
%TO.C,*%
X183820000Y-154500000D03*
%TD*%
%TO.C,*%
X352130000Y-198960000D03*
%TD*%
%TO.C,*%
X349960000Y-117940000D03*
%TD*%
%TO.C,*%
X246840000Y-216290000D03*
%TD*%
%TO.C,*%
X346310000Y-178530000D03*
%TD*%
%TO.C,*%
X164880000Y-148050000D03*
%TD*%
D15*
%TO.C,SW67*%
X428250000Y-171460000D03*
X428250000Y-174000000D03*
X428250000Y-176540000D03*
%TD*%
D13*
%TO.C,*%
X363080000Y-164890000D03*
%TD*%
D15*
%TO.C,SW56*%
X218700000Y-171460000D03*
X218700000Y-174000000D03*
X218700000Y-176540000D03*
%TD*%
D13*
%TO.C,*%
X313550000Y-113980000D03*
%TD*%
%TO.C,*%
X185550000Y-143290000D03*
%TD*%
%TO.C,*%
X469170000Y-171440000D03*
%TD*%
D15*
%TO.C,SW89*%
X413962500Y-190510000D03*
X413962500Y-193050000D03*
X413962500Y-195590000D03*
%TD*%
%TO.C,SW48*%
X513975000Y-152410000D03*
X513975000Y-154950000D03*
X513975000Y-157490000D03*
%TD*%
D13*
%TO.C,*%
X81530000Y-87510000D03*
%TD*%
%TO.C,*%
X442690000Y-103910000D03*
%TD*%
D15*
%TO.C,SW122*%
X175837500Y-228610000D03*
X175837500Y-231150000D03*
X175837500Y-233690000D03*
%TD*%
D13*
%TO.C,*%
X359820000Y-204460000D03*
%TD*%
%TO.C,*%
X142280000Y-110600000D03*
%TD*%
%TO.C,*%
X135020000Y-104510000D03*
%TD*%
D15*
%TO.C,SW84*%
X318712500Y-190510000D03*
X318712500Y-193050000D03*
X318712500Y-195590000D03*
%TD*%
D13*
%TO.C,*%
X164880000Y-162460000D03*
%TD*%
%TO.C,*%
X361450000Y-230270000D03*
%TD*%
%TO.C,*%
X428210000Y-186400000D03*
%TD*%
%TO.C,*%
X148140000Y-119600000D03*
%TD*%
D15*
%TO.C,SW123*%
X280612500Y-228610000D03*
X280612500Y-231150000D03*
X280612500Y-233690000D03*
%TD*%
D13*
%TO.C,*%
X170950000Y-224490000D03*
%TD*%
%TO.C,*%
X222630000Y-150500000D03*
%TD*%
%TO.C,*%
X378680000Y-145170000D03*
%TD*%
%TO.C,*%
X170950000Y-215420000D03*
%TD*%
%TO.C,*%
X134470000Y-89210000D03*
%TD*%
%TO.C,R5*%
X343870000Y-95980000D03*
X343870000Y-108380000D03*
%TD*%
%TO.C,*%
X101310000Y-89210000D03*
%TD*%
%TO.C,*%
X332490000Y-103975000D03*
%TD*%
%TO.C,*%
X275180000Y-197260000D03*
%TD*%
%TO.C,*%
X469610000Y-198060000D03*
%TD*%
%TO.C,*%
X413650000Y-138780000D03*
%TD*%
D15*
%TO.C,SW62*%
X333000000Y-171460000D03*
X333000000Y-174000000D03*
X333000000Y-176540000D03*
%TD*%
D13*
%TO.C,*%
X356186666Y-106480000D03*
%TD*%
D15*
%TO.C,SW100*%
X175837500Y-209560000D03*
X175837500Y-212100000D03*
X175837500Y-214640000D03*
%TD*%
D13*
%TO.C,*%
X346310000Y-166970000D03*
%TD*%
%TO.C,*%
X440610000Y-229830000D03*
%TD*%
%TO.C,*%
X193550000Y-181630000D03*
%TD*%
D15*
%TO.C,SW22*%
X475875000Y-133360000D03*
X475875000Y-135900000D03*
X475875000Y-138440000D03*
%TD*%
D13*
%TO.C,*%
X135890000Y-108040000D03*
%TD*%
D15*
%TO.C,SW116*%
X494925000Y-209560000D03*
X494925000Y-212100000D03*
X494925000Y-214640000D03*
%TD*%
D13*
%TO.C,*%
X145960000Y-104510000D03*
%TD*%
D15*
%TO.C,SW32*%
X209175000Y-152410000D03*
X209175000Y-154950000D03*
X209175000Y-157490000D03*
%TD*%
D13*
%TO.C,*%
X490650000Y-216230000D03*
%TD*%
%TO.C,*%
X142280000Y-120200000D03*
%TD*%
D15*
%TO.C,SW51*%
X113925000Y-171460000D03*
X113925000Y-174000000D03*
X113925000Y-176540000D03*
%TD*%
D13*
%TO.C,*%
X261400000Y-149100000D03*
%TD*%
%TO.C,*%
X362690000Y-201710000D03*
%TD*%
%TO.C,*%
X451600000Y-106441807D03*
%TD*%
%TO.C,*%
X359820000Y-217010000D03*
%TD*%
%TO.C,*%
X94910000Y-100810000D03*
%TD*%
D15*
%TO.C,SW24*%
X513975000Y-133360000D03*
X513975000Y-135900000D03*
X513975000Y-138440000D03*
%TD*%
D13*
%TO.C,*%
X130620000Y-146200000D03*
%TD*%
%TO.C,*%
X203500000Y-148890000D03*
%TD*%
%TO.C,*%
X341600000Y-216640000D03*
%TD*%
%TO.C,*%
X232480000Y-169000000D03*
%TD*%
%TO.C,*%
X406720000Y-240230000D03*
%TD*%
%TO.C,*%
X119550000Y-104510000D03*
%TD*%
%TO.C,R9*%
X425670000Y-94780000D03*
X413270000Y-94780000D03*
%TD*%
%TO.C,*%
X89550000Y-214840000D03*
%TD*%
%TO.C,*%
X428020000Y-120860000D03*
%TD*%
D15*
%TO.C,SW14*%
X323475034Y-133360008D03*
X323475034Y-135900008D03*
X323475034Y-138440008D03*
%TD*%
D13*
%TO.C,*%
X192160000Y-202740000D03*
%TD*%
%TO.C,*%
X122930000Y-110600000D03*
%TD*%
%TO.C,*%
X145920000Y-129520000D03*
%TD*%
%TO.C,*%
X175290000Y-167130000D03*
%TD*%
%TO.C,*%
X86600000Y-146180000D03*
%TD*%
%TO.C,*%
X451690000Y-215760000D03*
%TD*%
%TO.C,*%
X148140000Y-100650000D03*
%TD*%
%TO.C,*%
X237165000Y-198600000D03*
%TD*%
%TO.C,*%
X242220000Y-133050000D03*
%TD*%
%TO.C,*%
X131950000Y-104510000D03*
%TD*%
D15*
%TO.C,SW40*%
X361575000Y-152410000D03*
X361575000Y-154950000D03*
X361575000Y-157490000D03*
%TD*%
%TO.C,SW64*%
X371100000Y-171460000D03*
X371100000Y-174000000D03*
X371100000Y-176540000D03*
%TD*%
D13*
%TO.C,C13*%
X306830000Y-114660000D03*
X296430000Y-114660000D03*
%TD*%
%TO.C,*%
X359300000Y-117940000D03*
%TD*%
D15*
%TO.C,SW95*%
X75825000Y-209560000D03*
X75825000Y-212100000D03*
X75825000Y-214640000D03*
%TD*%
D13*
%TO.C,*%
X490650000Y-203030000D03*
%TD*%
%TO.C,*%
X151330000Y-236820000D03*
%TD*%
%TO.C,*%
X112080000Y-89370000D03*
%TD*%
D15*
%TO.C,SW82*%
X280612500Y-190510000D03*
X280612500Y-193050000D03*
X280612500Y-195590000D03*
%TD*%
%TO.C,SW17*%
X380625000Y-133360000D03*
X380625000Y-135900000D03*
X380625000Y-138440000D03*
%TD*%
D13*
%TO.C,*%
X439260000Y-120860000D03*
%TD*%
D14*
%TO.C,REF\u002A\u002A*%
X70800000Y-242100000D03*
%TD*%
D15*
%TO.C,SW87*%
X375862500Y-190510000D03*
X375862500Y-193050000D03*
X375862500Y-195590000D03*
%TD*%
D13*
%TO.C,*%
X332490000Y-117315000D03*
%TD*%
%TO.C,*%
X488900000Y-198840000D03*
%TD*%
%TO.C,*%
X141290000Y-126130000D03*
%TD*%
%TO.C,*%
X127630000Y-157800000D03*
%TD*%
D14*
%TO.C,REF\u002A\u002A*%
X155900000Y-243900000D03*
%TD*%
D13*
%TO.C,*%
X91710000Y-100810000D03*
%TD*%
D15*
%TO.C,SW99*%
X156787500Y-209560000D03*
X156787500Y-212100000D03*
X156787500Y-214640000D03*
%TD*%
D13*
%TO.C,*%
X261400000Y-163630000D03*
%TD*%
%TO.C,C17*%
X499010000Y-111080000D03*
X516010000Y-111080000D03*
%TD*%
D15*
%TO.C,SW124*%
X366337500Y-228610000D03*
X366337500Y-231150000D03*
X366337500Y-233690000D03*
%TD*%
D13*
%TO.C,*%
X329150000Y-179570000D03*
%TD*%
%TO.C,*%
X108660000Y-165570000D03*
%TD*%
D15*
%TO.C,SW88*%
X394912500Y-190510000D03*
X394912500Y-193050000D03*
X394912500Y-195590000D03*
%TD*%
D13*
%TO.C,*%
X422520000Y-98060000D03*
%TD*%
D15*
%TO.C,SW90*%
X433012500Y-190510000D03*
X433012500Y-193050000D03*
X433012500Y-195590000D03*
%TD*%
D13*
%TO.C,*%
X370280000Y-196210000D03*
%TD*%
%TO.C,*%
X70690000Y-179060000D03*
%TD*%
%TO.C,R7*%
X395230000Y-95680000D03*
X382830000Y-95680000D03*
%TD*%
D14*
%TO.C,REF\u002A\u002A*%
X425700000Y-135650000D03*
%TD*%
D13*
%TO.C,*%
X337190000Y-144470000D03*
%TD*%
%TO.C,*%
X103940000Y-110860000D03*
%TD*%
%TO.C,*%
X284350000Y-203540000D03*
%TD*%
%TO.C,*%
X483810000Y-117710000D03*
%TD*%
%TO.C,*%
X119880000Y-89960000D03*
%TD*%
%TO.C,*%
X509000000Y-157460000D03*
%TD*%
%TO.C,*%
X278950000Y-157030000D03*
%TD*%
%TO.C,*%
X313550000Y-103975000D03*
%TD*%
D14*
%TO.C,REF\u002A\u002A*%
X308500000Y-243900000D03*
%TD*%
D13*
%TO.C,*%
X125150000Y-126130000D03*
%TD*%
%TO.C,*%
X289850000Y-178260000D03*
%TD*%
%TO.C,*%
X406720000Y-228880000D03*
%TD*%
D14*
%TO.C,REF\u002A\u002A*%
X518100000Y-243400000D03*
%TD*%
D13*
%TO.C,*%
X370280000Y-183840000D03*
%TD*%
D15*
%TO.C,SW107*%
X309187500Y-209560000D03*
X309187500Y-212100000D03*
X309187500Y-214640000D03*
%TD*%
D13*
%TO.C,*%
X164880000Y-129390000D03*
%TD*%
%TO.C,*%
X164880000Y-151520000D03*
%TD*%
%TO.C,*%
X346840000Y-117330000D03*
%TD*%
D15*
%TO.C,SW101*%
X194887500Y-209560000D03*
X194887500Y-212100000D03*
X194887500Y-214640000D03*
%TD*%
D13*
%TO.C,*%
X139150000Y-95510000D03*
%TD*%
%TO.C,*%
X74990000Y-146180000D03*
%TD*%
%TO.C,*%
X355220000Y-145520000D03*
%TD*%
D15*
%TO.C,SW46*%
X475875000Y-152410000D03*
X475875000Y-154950000D03*
X475875000Y-157490000D03*
%TD*%
%TO.C,SW109*%
X347287500Y-209560000D03*
X347287500Y-212100000D03*
X347287500Y-214640000D03*
%TD*%
D13*
%TO.C,*%
X270730000Y-178430000D03*
%TD*%
%TO.C,*%
X376930000Y-125250000D03*
%TD*%
D15*
%TO.C,SW66*%
X409200000Y-171460000D03*
X409200000Y-174000000D03*
X409200000Y-176540000D03*
%TD*%
D13*
%TO.C,*%
X203500000Y-129390000D03*
%TD*%
D15*
%TO.C,SW79*%
X223462500Y-190510000D03*
X223462500Y-193050000D03*
X223462500Y-195590000D03*
%TD*%
%TO.C,SW102*%
X213937500Y-209560000D03*
X213937500Y-212100000D03*
X213937500Y-214640000D03*
%TD*%
D13*
%TO.C,*%
X195500000Y-202740000D03*
%TD*%
%TO.C,*%
X509130000Y-210520000D03*
%TD*%
D15*
%TO.C,SW85*%
X337762500Y-190510000D03*
X337762500Y-193050000D03*
X337762500Y-195590000D03*
%TD*%
%TO.C,SW121*%
X132975000Y-228610000D03*
X132975000Y-231150000D03*
X132975000Y-233690000D03*
%TD*%
%TO.C,SW52*%
X132975000Y-171460000D03*
X132975000Y-174000000D03*
X132975000Y-176540000D03*
%TD*%
D13*
%TO.C,*%
X356186666Y-117940000D03*
%TD*%
D15*
%TO.C,SW23*%
X494925000Y-133360000D03*
X494925000Y-135900000D03*
X494925000Y-138440000D03*
%TD*%
%TO.C,SW21*%
X456825000Y-133360000D03*
X456825000Y-135900000D03*
X456825000Y-138440000D03*
%TD*%
D14*
%TO.C,REF\u002A\u002A*%
X526050000Y-242100000D03*
%TD*%
D15*
%TO.C,SW68*%
X456825000Y-171460000D03*
X456825000Y-174000000D03*
X456825000Y-176540000D03*
%TD*%
D13*
%TO.C,*%
X361450000Y-211420000D03*
%TD*%
D14*
%TO.C,REF\u002A\u002A*%
X402250000Y-193250000D03*
%TD*%
D18*
%TO.C,J3_1*%
X313573000Y-97663000D03*
D19*
X316113000Y-97663000D03*
X318653000Y-97663000D03*
X321193000Y-97663000D03*
%TD*%
D13*
%TO.C,*%
X265750000Y-203580000D03*
%TD*%
%TO.C,*%
X413650000Y-157460000D03*
%TD*%
%TO.C,*%
X89550000Y-165810000D03*
%TD*%
%TO.C,*%
X246840000Y-203450000D03*
%TD*%
%TO.C,*%
X341600000Y-202760000D03*
%TD*%
%TO.C,*%
X148870000Y-194470000D03*
%TD*%
%TO.C,*%
X337190000Y-162810000D03*
%TD*%
%TO.C,*%
X261400000Y-152070000D03*
%TD*%
%TO.C,*%
X472440000Y-196020000D03*
%TD*%
%TO.C,*%
X185550000Y-147030000D03*
%TD*%
%TO.C,*%
X313550000Y-110645000D03*
%TD*%
%TO.C,*%
X127630000Y-237080000D03*
%TD*%
D15*
%TO.C,SW12*%
X285375000Y-133360000D03*
X285375000Y-135900000D03*
X285375000Y-138440000D03*
%TD*%
D13*
%TO.C,*%
X127840000Y-101430000D03*
%TD*%
%TO.C,R4*%
X340590000Y-95980000D03*
X340590000Y-108380000D03*
%TD*%
%TO.C,*%
X108660000Y-195620000D03*
%TD*%
%TO.C,*%
X471410000Y-138860000D03*
%TD*%
%TO.C,*%
X89550000Y-139120000D03*
%TD*%
%TO.C,*%
X109010000Y-89370000D03*
%TD*%
%TO.C,*%
X151330000Y-202740000D03*
%TD*%
%TO.C,*%
X355220000Y-163590000D03*
%TD*%
D15*
%TO.C,SW96*%
X94875000Y-209560000D03*
X94875000Y-212100000D03*
X94875000Y-214640000D03*
%TD*%
D13*
%TO.C,*%
X109010000Y-100710000D03*
%TD*%
D14*
%TO.C,REF\u002A\u002A*%
X232375000Y-122250000D03*
%TD*%
D13*
%TO.C,*%
X313510000Y-120420000D03*
%TD*%
%TO.C,*%
X469610000Y-210970000D03*
%TD*%
%TO.C,*%
X98110000Y-89210000D03*
%TD*%
%TO.C,*%
X142280000Y-113800000D03*
%TD*%
%TO.C,*%
X488900000Y-138860000D03*
%TD*%
D15*
%TO.C,SW34*%
X247275000Y-152410000D03*
X247275000Y-154950000D03*
X247275000Y-157490000D03*
%TD*%
D13*
%TO.C,*%
X281100000Y-130410000D03*
%TD*%
%TO.C,*%
X78120000Y-104510000D03*
%TD*%
D15*
%TO.C,SW42*%
X399675000Y-152410000D03*
X399675000Y-154950000D03*
X399675000Y-157490000D03*
%TD*%
D13*
%TO.C,*%
X303370000Y-216510000D03*
%TD*%
%TO.C,*%
X89550000Y-203040000D03*
%TD*%
%TO.C,*%
X451700000Y-139120000D03*
%TD*%
D15*
%TO.C,SW80*%
X242512500Y-190510000D03*
X242512500Y-193050000D03*
X242512500Y-195590000D03*
%TD*%
%TO.C,SW6*%
X171075000Y-133360000D03*
X171075000Y-135900000D03*
X171075000Y-138440000D03*
%TD*%
D13*
%TO.C,*%
X451700000Y-157460000D03*
%TD*%
%TO.C,*%
X141290000Y-146200000D03*
%TD*%
%TO.C,*%
X332490000Y-113980000D03*
%TD*%
%TO.C,*%
X89550000Y-176560000D03*
%TD*%
D15*
%TO.C,SW118*%
X75825000Y-228610000D03*
X75825000Y-231150000D03*
X75825000Y-233690000D03*
%TD*%
D13*
%TO.C,*%
X91710000Y-89210000D03*
%TD*%
%TO.C,*%
X389320000Y-198880000D03*
%TD*%
%TO.C,*%
X509000000Y-139190000D03*
%TD*%
D15*
%TO.C,SW74*%
X113925000Y-190510000D03*
X113925000Y-193050000D03*
X113925000Y-195590000D03*
%TD*%
D13*
%TO.C,*%
X471410000Y-157460000D03*
%TD*%
D15*
%TO.C,SW4*%
X132975000Y-133360000D03*
X132975000Y-135900000D03*
X132975000Y-138440000D03*
%TD*%
D13*
%TO.C,*%
X160630000Y-186340000D03*
%TD*%
%TO.C,*%
X313550000Y-100960000D03*
%TD*%
%TO.C,*%
X94910000Y-89210000D03*
%TD*%
%TO.C,*%
X131000000Y-89210000D03*
%TD*%
%TO.C,*%
X411680000Y-98060000D03*
%TD*%
%TO.C,*%
X478910000Y-120250000D03*
%TD*%
%TO.C,*%
X448380000Y-178070000D03*
%TD*%
%TO.C,C14*%
X306830000Y-117810000D03*
X296430000Y-117810000D03*
%TD*%
%TO.C,*%
X412800000Y-225280000D03*
%TD*%
D15*
%TO.C,SW45*%
X456825000Y-152410000D03*
X456825000Y-154950000D03*
X456825000Y-157490000D03*
%TD*%
D13*
%TO.C,*%
X265750000Y-216510000D03*
%TD*%
D15*
%TO.C,SW43*%
X418725000Y-152410000D03*
X418725000Y-154950000D03*
X418725000Y-157490000D03*
%TD*%
D13*
%TO.C,*%
X124910000Y-101430000D03*
%TD*%
%TO.C,*%
X281100000Y-160970000D03*
%TD*%
%TO.C,*%
X112080000Y-100710000D03*
%TD*%
D14*
%TO.C,REF\u002A\u002A*%
X320650000Y-174200000D03*
%TD*%
%TO.C,REF\u002A\u002A*%
X232200000Y-243900000D03*
%TD*%
D13*
%TO.C,*%
X289850000Y-167650000D03*
%TD*%
%TO.C,*%
X331770000Y-186380000D03*
%TD*%
D14*
%TO.C,REF\u002A\u002A*%
X384800000Y-243900000D03*
%TD*%
D13*
%TO.C,*%
X122930000Y-120200000D03*
%TD*%
D15*
%TO.C,SW103*%
X232987500Y-209560000D03*
X232987500Y-212100000D03*
X232987500Y-214640000D03*
%TD*%
%TO.C,SW20*%
X437775000Y-133360000D03*
X437775000Y-135900000D03*
X437775000Y-138440000D03*
%TD*%
D13*
%TO.C,*%
X359300000Y-106480000D03*
%TD*%
%TO.C,*%
X151330000Y-233620000D03*
%TD*%
%TO.C,*%
X436010000Y-118150000D03*
%TD*%
D14*
%TO.C,REF\u002A\u002A*%
X155612500Y-123300000D03*
%TD*%
%TO.C,REF\u002A\u002A*%
X397200000Y-174200000D03*
%TD*%
D13*
%TO.C,*%
X119880000Y-101440000D03*
%TD*%
%TO.C,*%
X218760000Y-186640000D03*
%TD*%
D15*
%TO.C,SW13*%
X304425000Y-133360000D03*
X304425000Y-135900000D03*
X304425000Y-138440000D03*
%TD*%
D13*
%TO.C,*%
X399020000Y-233620000D03*
%TD*%
%TO.C,*%
X246840000Y-239400000D03*
%TD*%
%TO.C,*%
X108660000Y-157830000D03*
%TD*%
D15*
%TO.C,SW30*%
X171075000Y-152410000D03*
X171075000Y-154950000D03*
X171075000Y-157490000D03*
%TD*%
D13*
%TO.C,*%
X116740000Y-108050000D03*
%TD*%
%TO.C,*%
X332490000Y-110645000D03*
%TD*%
%TO.C,*%
X376600000Y-203280000D03*
%TD*%
%TO.C,*%
X193550000Y-170370000D03*
%TD*%
%TO.C,*%
X185550000Y-157700000D03*
%TD*%
%TO.C,*%
X122930000Y-113800000D03*
%TD*%
D15*
%TO.C,SW58*%
X256800000Y-171460000D03*
X256800000Y-174000000D03*
X256800000Y-176540000D03*
%TD*%
D13*
%TO.C,*%
X78330000Y-87510000D03*
%TD*%
%TO.C,*%
X440610000Y-211230000D03*
%TD*%
D14*
%TO.C,REF\u002A\u002A*%
X123400000Y-174200000D03*
%TD*%
D15*
%TO.C,SW78*%
X204412500Y-190510000D03*
X204412500Y-193050000D03*
X204412500Y-195590000D03*
%TD*%
D13*
%TO.C,*%
X365570000Y-203280000D03*
%TD*%
%TO.C,*%
X373790000Y-182230000D03*
%TD*%
%TO.C,*%
X518660000Y-106870000D03*
%TD*%
D15*
%TO.C,SW123a0*%
X347287500Y-228610000D03*
X347287500Y-231150000D03*
X347287500Y-233690000D03*
%TD*%
D13*
%TO.C,C12*%
X230710000Y-99990000D03*
X230710000Y-110390000D03*
%TD*%
D15*
%TO.C,SW125*%
X456825000Y-228610000D03*
X456825000Y-231150000D03*
X456825000Y-233690000D03*
%TD*%
%TO.C,SW37*%
X304425000Y-152410000D03*
X304425000Y-154950000D03*
X304425000Y-157490000D03*
%TD*%
D13*
%TO.C,*%
X213160000Y-167570000D03*
%TD*%
D15*
%TO.C,SW122a0*%
X194887500Y-228610000D03*
X194887500Y-231150000D03*
X194887500Y-233690000D03*
%TD*%
D14*
%TO.C,REF\u002A\u002A*%
X173000000Y-193500000D03*
%TD*%
D15*
%TO.C,SW81*%
X261562500Y-190510000D03*
X261562500Y-193050000D03*
X261562500Y-195590000D03*
%TD*%
D13*
%TO.C,*%
X299060000Y-150160000D03*
%TD*%
D15*
%TO.C,SW39*%
X342525000Y-152410000D03*
X342525000Y-154950000D03*
X342525000Y-157490000D03*
%TD*%
%TO.C,SW72*%
X75825000Y-190510000D03*
X75825000Y-193050000D03*
X75825000Y-195590000D03*
%TD*%
D13*
%TO.C,*%
X116740000Y-110860000D03*
%TD*%
%TO.C,*%
X428210000Y-197690000D03*
%TD*%
%TO.C,*%
X89550000Y-195610000D03*
%TD*%
%TO.C,*%
X349960000Y-106480000D03*
%TD*%
%TO.C,*%
X317010000Y-144340000D03*
%TD*%
%TO.C,*%
X451690000Y-199460000D03*
%TD*%
%TO.C,*%
X365890000Y-168620000D03*
%TD*%
%TO.C,*%
X207860000Y-228630000D03*
%TD*%
%TO.C,*%
X218760000Y-198720000D03*
%TD*%
%TO.C,*%
X364020000Y-121090000D03*
%TD*%
%TO.C,*%
X324210000Y-115350000D03*
%TD*%
%TO.C,*%
X509130000Y-229290000D03*
%TD*%
D15*
%TO.C,SW3*%
X113925000Y-133360000D03*
X113925000Y-135900000D03*
X113925000Y-138440000D03*
%TD*%
D13*
%TO.C,R6*%
X390040000Y-97850000D03*
X377640000Y-97850000D03*
%TD*%
%TO.C,*%
X170950000Y-204360000D03*
%TD*%
%TO.C,*%
X134470000Y-100690000D03*
%TD*%
D15*
%TO.C,SW27*%
X113925000Y-152410000D03*
X113925000Y-154950000D03*
X113925000Y-157490000D03*
%TD*%
%TO.C,SW94*%
X513975000Y-190510000D03*
X513975000Y-193050000D03*
X513975000Y-195590000D03*
%TD*%
D13*
%TO.C,*%
X381760000Y-164890000D03*
%TD*%
D15*
%TO.C,SW117*%
X513975000Y-209560000D03*
X513975000Y-212100000D03*
X513975000Y-214640000D03*
%TD*%
%TO.C,SW26*%
X94875000Y-152410000D03*
X94875000Y-154950000D03*
X94875000Y-157490000D03*
%TD*%
D13*
%TO.C,*%
X313300000Y-186650000D03*
%TD*%
D15*
%TO.C,SW18*%
X399675000Y-133360000D03*
X399675000Y-135900000D03*
X399675000Y-138440000D03*
%TD*%
D13*
%TO.C,R8*%
X396240000Y-97860000D03*
X408640000Y-97860000D03*
%TD*%
%TO.C,*%
X175290000Y-178300000D03*
%TD*%
%TO.C,*%
X303370000Y-203940000D03*
%TD*%
%TO.C,*%
X75130000Y-87510000D03*
%TD*%
D15*
%TO.C,SW53*%
X161550000Y-171460000D03*
X161550000Y-174000000D03*
X161550000Y-176540000D03*
%TD*%
D13*
%TO.C,*%
X89550000Y-233720000D03*
%TD*%
D15*
%TO.C,SW124a0*%
X385387500Y-228610000D03*
X385387500Y-231150000D03*
X385387500Y-233690000D03*
%TD*%
D13*
%TO.C,*%
X471440000Y-217630000D03*
%TD*%
D14*
%TO.C,REF\u002A\u002A*%
X392500000Y-212000000D03*
%TD*%
D15*
%TO.C,SW60*%
X294900000Y-171460000D03*
X294900000Y-174000000D03*
X294900000Y-176540000D03*
%TD*%
D13*
%TO.C,*%
X376130000Y-121090000D03*
%TD*%
D15*
%TO.C,SW29*%
X152025000Y-152410000D03*
X152025000Y-154950000D03*
X152025000Y-157490000D03*
%TD*%
%TO.C,SW126*%
X475875000Y-228610000D03*
X475875000Y-231150000D03*
X475875000Y-233690000D03*
%TD*%
D13*
%TO.C,*%
X322470000Y-214550000D03*
%TD*%
%TO.C,*%
X108660000Y-176550000D03*
%TD*%
%TO.C,*%
X393600000Y-161130000D03*
%TD*%
%TO.C,*%
X150630000Y-95640000D03*
%TD*%
%TO.C,*%
X170950000Y-236820000D03*
%TD*%
%TO.C,*%
X81530000Y-98980000D03*
%TD*%
D15*
%TO.C,SW71*%
X513975000Y-171460000D03*
X513975000Y-174000000D03*
X513975000Y-176540000D03*
%TD*%
D13*
%TO.C,*%
X317010000Y-126150000D03*
%TD*%
%TO.C,*%
X472440000Y-179390000D03*
%TD*%
D15*
%TO.C,SW111*%
X385387500Y-209560000D03*
X385387500Y-212100000D03*
X385387500Y-214640000D03*
%TD*%
D13*
%TO.C,*%
X379520000Y-208410000D03*
%TD*%
%TO.C,*%
X200420000Y-186300000D03*
%TD*%
%TO.C,*%
X127630000Y-220280000D03*
%TD*%
D15*
%TO.C,SW9*%
X228225000Y-133360000D03*
X228225000Y-135900000D03*
X228225000Y-138440000D03*
%TD*%
D13*
%TO.C,*%
X160630000Y-198630000D03*
%TD*%
D15*
%TO.C,SW2*%
X94875000Y-133360000D03*
X94875000Y-135900000D03*
X94875000Y-138440000D03*
%TD*%
D13*
%TO.C,*%
X353073333Y-106480000D03*
%TD*%
D15*
%TO.C,SW77*%
X185362500Y-190510000D03*
X185362500Y-193050000D03*
X185362500Y-195590000D03*
%TD*%
D13*
%TO.C,*%
X195953859Y-167436214D03*
%TD*%
D15*
%TO.C,SW36*%
X285375000Y-152410000D03*
X285375000Y-154950000D03*
X285375000Y-157490000D03*
%TD*%
%TO.C,SW75*%
X132975000Y-190510000D03*
X132975000Y-193050000D03*
X132975000Y-195590000D03*
%TD*%
D14*
%TO.C,REF\u002A\u002A*%
X182750000Y-232000000D03*
%TD*%
%TO.C,REF\u002A\u002A*%
X461100000Y-243900000D03*
%TD*%
D13*
%TO.C,*%
X189850000Y-215780000D03*
%TD*%
%TO.C,*%
X108660000Y-146180000D03*
%TD*%
%TO.C,*%
X393700000Y-182230000D03*
%TD*%
%TO.C,*%
X170950000Y-233670000D03*
%TD*%
%TO.C,*%
X97460000Y-104510000D03*
%TD*%
%TO.C,*%
X89550000Y-157800000D03*
%TD*%
D14*
%TO.C,REF\u002A\u002A*%
X425700000Y-155400000D03*
%TD*%
D13*
%TO.C,*%
X213160000Y-178640000D03*
%TD*%
D15*
%TO.C,SW47*%
X494925000Y-152410000D03*
X494925000Y-154950000D03*
X494925000Y-157490000D03*
%TD*%
D13*
%TO.C,*%
X326140000Y-176720000D03*
%TD*%
D15*
%TO.C,SW25*%
X75825000Y-152410000D03*
X75825000Y-154950000D03*
X75825000Y-157490000D03*
%TD*%
D13*
%TO.C,*%
X350160000Y-196070000D03*
%TD*%
%TO.C,*%
X71930000Y-87510000D03*
%TD*%
%TO.C,*%
X346840000Y-106000000D03*
%TD*%
%TO.C,*%
X116550000Y-89960000D03*
%TD*%
%TO.C,*%
X433080000Y-138940000D03*
%TD*%
%TO.C,*%
X318760000Y-130950000D03*
%TD*%
%TO.C,*%
X207860000Y-209240000D03*
%TD*%
%TO.C,*%
X355220000Y-133890000D03*
%TD*%
%TO.C,*%
X213160000Y-202740000D03*
%TD*%
%TO.C,*%
X467730000Y-120250000D03*
%TD*%
%TO.C,*%
X359800000Y-145170000D03*
%TD*%
%TO.C,*%
X439990000Y-106441807D03*
%TD*%
%TO.C,*%
X375130000Y-149700000D03*
%TD*%
D15*
%TO.C,SW38*%
X323475000Y-152410000D03*
X323475000Y-154950000D03*
X323475000Y-157490000D03*
%TD*%
D13*
%TO.C,*%
X294050000Y-186250000D03*
%TD*%
%TO.C,*%
X261400000Y-132240000D03*
%TD*%
%TO.C,*%
X339770000Y-228580000D03*
%TD*%
%TO.C,*%
X122930000Y-117000000D03*
%TD*%
%TO.C,*%
X179850000Y-198630000D03*
%TD*%
%TO.C,*%
X185550000Y-127660000D03*
%TD*%
D14*
%TO.C,REF\u002A\u002A*%
X392500000Y-231750000D03*
%TD*%
D13*
%TO.C,*%
X313550000Y-117315000D03*
%TD*%
%TO.C,*%
X127840000Y-89950000D03*
%TD*%
%TO.C,*%
X246840000Y-221000000D03*
%TD*%
%TO.C,*%
X294050000Y-197260000D03*
%TD*%
D15*
%TO.C,SW108*%
X328237500Y-209560000D03*
X328237500Y-212100000D03*
X328237500Y-214640000D03*
%TD*%
D13*
%TO.C,*%
X200420000Y-198100000D03*
%TD*%
%TO.C,*%
X179850000Y-186700000D03*
%TD*%
D15*
%TO.C,SW65*%
X390150000Y-171460000D03*
X390150000Y-174000000D03*
X390150000Y-176540000D03*
%TD*%
D13*
%TO.C,*%
X448370000Y-199460000D03*
%TD*%
%TO.C,*%
X71930000Y-98980000D03*
%TD*%
D15*
%TO.C,SW41*%
X380625000Y-152410000D03*
X380625000Y-154950000D03*
X380625000Y-157490000D03*
%TD*%
D14*
%TO.C,REF\u002A\u002A*%
X244400000Y-174200000D03*
%TD*%
D13*
%TO.C,*%
X433080000Y-157460000D03*
%TD*%
%TO.C,*%
X299060000Y-146920000D03*
%TD*%
D15*
%TO.C,SW114*%
X456825000Y-209560000D03*
X456825000Y-212100000D03*
X456825000Y-214640000D03*
%TD*%
D14*
%TO.C,REF\u002A\u002A*%
X308237500Y-123300000D03*
%TD*%
D13*
%TO.C,*%
X203500000Y-145690000D03*
%TD*%
%TO.C,*%
X370280000Y-187040000D03*
%TD*%
%TO.C,*%
X488900000Y-216230000D03*
%TD*%
D15*
%TO.C,SW106*%
X290137500Y-209560000D03*
X290137500Y-212100000D03*
X290137500Y-214640000D03*
%TD*%
D13*
%TO.C,*%
X309240000Y-178530000D03*
%TD*%
%TO.C,*%
X70690000Y-160600000D03*
%TD*%
%TO.C,*%
X148870000Y-213470000D03*
%TD*%
%TO.C,*%
X418260000Y-202110000D03*
%TD*%
%TO.C,*%
X337190000Y-133140000D03*
%TD*%
%TO.C,*%
X232480000Y-178430000D03*
%TD*%
%TO.C,*%
X124910000Y-89950000D03*
%TD*%
%TO.C,*%
X388960000Y-183840000D03*
%TD*%
%TO.C,*%
X242220000Y-148930000D03*
%TD*%
D15*
%TO.C,SW11*%
X266325000Y-133360000D03*
X266325000Y-135900000D03*
X266325000Y-138440000D03*
%TD*%
D13*
%TO.C,*%
X203500000Y-159830000D03*
%TD*%
%TO.C,*%
X436010000Y-99810000D03*
%TD*%
%TO.C,*%
X270730000Y-167820000D03*
%TD*%
%TO.C,*%
X145920000Y-145660000D03*
%TD*%
%TO.C,*%
X145920000Y-227080000D03*
%TD*%
D15*
%TO.C,SW63*%
X352050000Y-171460000D03*
X352050000Y-174000000D03*
X352050000Y-176540000D03*
%TD*%
%TO.C,SW35*%
X266325000Y-152410000D03*
X266325000Y-154950000D03*
X266325000Y-157490000D03*
%TD*%
M02*
