%TF.GenerationSoftware,KiCad,Pcbnew,(6.0.5-0)*%
%TF.CreationDate,2022-06-28T22:09:08-04:00*%
%TF.ProjectId,SpaceCadet,53706163-6543-4616-9465-742e6b696361,rev?*%
%TF.SameCoordinates,Original*%
%TF.FileFunction,Other,Comment*%
%FSLAX46Y46*%
G04 Gerber Fmt 4.6, Leading zero omitted, Abs format (unit mm)*
G04 Created by KiCad (PCBNEW (6.0.5-0)) date 2022-06-28 22:09:08*
%MOMM*%
%LPD*%
G01*
G04 APERTURE LIST*
%TA.AperFunction,Profile*%
%ADD10C,0.100000*%
%TD*%
%ADD11C,0.500000*%
%ADD12C,0.150000*%
G04 APERTURE END LIST*
D10*
X64250000Y-81300000D02*
X533250000Y-81300000D01*
X533250000Y-81300000D02*
X533250000Y-247900000D01*
X533250000Y-247900000D02*
X64250000Y-247900000D01*
X64250000Y-247900000D02*
X64250000Y-81300000D01*
D11*
X220315714Y-51921904D02*
X218649047Y-49540952D01*
X217458571Y-51921904D02*
X217458571Y-46921904D01*
X219363333Y-46921904D01*
X219839523Y-47160000D01*
X220077619Y-47398095D01*
X220315714Y-47874285D01*
X220315714Y-48588571D01*
X220077619Y-49064761D01*
X219839523Y-49302857D01*
X219363333Y-49540952D01*
X217458571Y-49540952D01*
X224363333Y-51683809D02*
X223887142Y-51921904D01*
X222934761Y-51921904D01*
X222458571Y-51683809D01*
X222220476Y-51207619D01*
X222220476Y-49302857D01*
X222458571Y-48826666D01*
X222934761Y-48588571D01*
X223887142Y-48588571D01*
X224363333Y-48826666D01*
X224601428Y-49302857D01*
X224601428Y-49779047D01*
X222220476Y-50255238D01*
X226744285Y-48588571D02*
X226744285Y-53588571D01*
X226744285Y-48826666D02*
X227220476Y-48588571D01*
X228172857Y-48588571D01*
X228649047Y-48826666D01*
X228887142Y-49064761D01*
X229125238Y-49540952D01*
X229125238Y-50969523D01*
X228887142Y-51445714D01*
X228649047Y-51683809D01*
X228172857Y-51921904D01*
X227220476Y-51921904D01*
X226744285Y-51683809D01*
X231268095Y-51921904D02*
X231268095Y-48588571D01*
X231268095Y-49540952D02*
X231506190Y-49064761D01*
X231744285Y-48826666D01*
X232220476Y-48588571D01*
X232696666Y-48588571D01*
X235077619Y-51921904D02*
X234601428Y-51683809D01*
X234363333Y-51445714D01*
X234125238Y-50969523D01*
X234125238Y-49540952D01*
X234363333Y-49064761D01*
X234601428Y-48826666D01*
X235077619Y-48588571D01*
X235791904Y-48588571D01*
X236268095Y-48826666D01*
X236506190Y-49064761D01*
X236744285Y-49540952D01*
X236744285Y-50969523D01*
X236506190Y-51445714D01*
X236268095Y-51683809D01*
X235791904Y-51921904D01*
X235077619Y-51921904D01*
X241029999Y-51921904D02*
X241029999Y-46921904D01*
X241029999Y-51683809D02*
X240553809Y-51921904D01*
X239601428Y-51921904D01*
X239125238Y-51683809D01*
X238887142Y-51445714D01*
X238649047Y-50969523D01*
X238649047Y-49540952D01*
X238887142Y-49064761D01*
X239125238Y-48826666D01*
X239601428Y-48588571D01*
X240553809Y-48588571D01*
X241029999Y-48826666D01*
X245553809Y-48588571D02*
X245553809Y-51921904D01*
X243410952Y-48588571D02*
X243410952Y-51207619D01*
X243649047Y-51683809D01*
X244125238Y-51921904D01*
X244839523Y-51921904D01*
X245315714Y-51683809D01*
X245553809Y-51445714D01*
X250077619Y-51683809D02*
X249601428Y-51921904D01*
X248649047Y-51921904D01*
X248172857Y-51683809D01*
X247934761Y-51445714D01*
X247696666Y-50969523D01*
X247696666Y-49540952D01*
X247934761Y-49064761D01*
X248172857Y-48826666D01*
X248649047Y-48588571D01*
X249601428Y-48588571D01*
X250077619Y-48826666D01*
X251506190Y-48588571D02*
X253410952Y-48588571D01*
X252220476Y-46921904D02*
X252220476Y-51207619D01*
X252458571Y-51683809D01*
X252934761Y-51921904D01*
X253410952Y-51921904D01*
X255077619Y-51921904D02*
X255077619Y-48588571D01*
X255077619Y-46921904D02*
X254839523Y-47160000D01*
X255077619Y-47398095D01*
X255315714Y-47160000D01*
X255077619Y-46921904D01*
X255077619Y-47398095D01*
X258172857Y-51921904D02*
X257696666Y-51683809D01*
X257458571Y-51445714D01*
X257220476Y-50969523D01*
X257220476Y-49540952D01*
X257458571Y-49064761D01*
X257696666Y-48826666D01*
X258172857Y-48588571D01*
X258887142Y-48588571D01*
X259363333Y-48826666D01*
X259601428Y-49064761D01*
X259839523Y-49540952D01*
X259839523Y-50969523D01*
X259601428Y-51445714D01*
X259363333Y-51683809D01*
X258887142Y-51921904D01*
X258172857Y-51921904D01*
X261982380Y-48588571D02*
X261982380Y-51921904D01*
X261982380Y-49064761D02*
X262220476Y-48826666D01*
X262696666Y-48588571D01*
X263410952Y-48588571D01*
X263887142Y-48826666D01*
X264125238Y-49302857D01*
X264125238Y-51921904D01*
X271030000Y-51921904D02*
X270553809Y-51683809D01*
X270315714Y-51445714D01*
X270077619Y-50969523D01*
X270077619Y-49540952D01*
X270315714Y-49064761D01*
X270553809Y-48826666D01*
X271030000Y-48588571D01*
X271744285Y-48588571D01*
X272220476Y-48826666D01*
X272458571Y-49064761D01*
X272696666Y-49540952D01*
X272696666Y-50969523D01*
X272458571Y-51445714D01*
X272220476Y-51683809D01*
X271744285Y-51921904D01*
X271030000Y-51921904D01*
X274125238Y-48588571D02*
X276030000Y-48588571D01*
X274839523Y-51921904D02*
X274839523Y-47636190D01*
X275077619Y-47160000D01*
X275553809Y-46921904D01*
X276030000Y-46921904D01*
X281506190Y-51921904D02*
X281506190Y-46921904D01*
X283649047Y-51921904D02*
X283649047Y-49302857D01*
X283410952Y-48826666D01*
X282934761Y-48588571D01*
X282220476Y-48588571D01*
X281744285Y-48826666D01*
X281506190Y-49064761D01*
X286030000Y-51921904D02*
X286030000Y-48588571D01*
X286030000Y-46921904D02*
X285791904Y-47160000D01*
X286030000Y-47398095D01*
X286268095Y-47160000D01*
X286030000Y-46921904D01*
X286030000Y-47398095D01*
X288172857Y-51683809D02*
X288649047Y-51921904D01*
X289601428Y-51921904D01*
X290077619Y-51683809D01*
X290315714Y-51207619D01*
X290315714Y-50969523D01*
X290077619Y-50493333D01*
X289601428Y-50255238D01*
X288887142Y-50255238D01*
X288410952Y-50017142D01*
X288172857Y-49540952D01*
X288172857Y-49302857D01*
X288410952Y-48826666D01*
X288887142Y-48588571D01*
X289601428Y-48588571D01*
X290077619Y-48826666D01*
X291744285Y-48588571D02*
X293649047Y-48588571D01*
X292458571Y-46921904D02*
X292458571Y-51207619D01*
X292696666Y-51683809D01*
X293172857Y-51921904D01*
X293649047Y-51921904D01*
X296029999Y-51921904D02*
X295553809Y-51683809D01*
X295315714Y-51445714D01*
X295077619Y-50969523D01*
X295077619Y-49540952D01*
X295315714Y-49064761D01*
X295553809Y-48826666D01*
X296029999Y-48588571D01*
X296744285Y-48588571D01*
X297220476Y-48826666D01*
X297458571Y-49064761D01*
X297696666Y-49540952D01*
X297696666Y-50969523D01*
X297458571Y-51445714D01*
X297220476Y-51683809D01*
X296744285Y-51921904D01*
X296029999Y-51921904D01*
X299839523Y-51921904D02*
X299839523Y-48588571D01*
X299839523Y-49540952D02*
X300077619Y-49064761D01*
X300315714Y-48826666D01*
X300791904Y-48588571D01*
X301268095Y-48588571D01*
X302934761Y-51921904D02*
X302934761Y-48588571D01*
X302934761Y-46921904D02*
X302696666Y-47160000D01*
X302934761Y-47398095D01*
X303172857Y-47160000D01*
X302934761Y-46921904D01*
X302934761Y-47398095D01*
X307458571Y-51683809D02*
X306982380Y-51921904D01*
X306029999Y-51921904D01*
X305553809Y-51683809D01*
X305315714Y-51445714D01*
X305077619Y-50969523D01*
X305077619Y-49540952D01*
X305315714Y-49064761D01*
X305553809Y-48826666D01*
X306029999Y-48588571D01*
X306982380Y-48588571D01*
X307458571Y-48826666D01*
X313410952Y-51921904D02*
X313410952Y-46921904D01*
X315553809Y-51921904D02*
X315553809Y-49302857D01*
X315315714Y-48826666D01*
X314839523Y-48588571D01*
X314125238Y-48588571D01*
X313649047Y-48826666D01*
X313410952Y-49064761D01*
X320077619Y-51921904D02*
X320077619Y-49302857D01*
X319839523Y-48826666D01*
X319363333Y-48588571D01*
X318410952Y-48588571D01*
X317934761Y-48826666D01*
X320077619Y-51683809D02*
X319601428Y-51921904D01*
X318410952Y-51921904D01*
X317934761Y-51683809D01*
X317696666Y-51207619D01*
X317696666Y-50731428D01*
X317934761Y-50255238D01*
X318410952Y-50017142D01*
X319601428Y-50017142D01*
X320077619Y-49779047D01*
X322458571Y-48588571D02*
X322458571Y-51921904D01*
X322458571Y-49064761D02*
X322696666Y-48826666D01*
X323172857Y-48588571D01*
X323887142Y-48588571D01*
X324363333Y-48826666D01*
X324601428Y-49302857D01*
X324601428Y-51921904D01*
X329125238Y-51921904D02*
X329125238Y-46921904D01*
X329125238Y-51683809D02*
X328649047Y-51921904D01*
X327696666Y-51921904D01*
X327220476Y-51683809D01*
X326982380Y-51445714D01*
X326744285Y-50969523D01*
X326744285Y-49540952D01*
X326982380Y-49064761D01*
X327220476Y-48826666D01*
X327696666Y-48588571D01*
X328649047Y-48588571D01*
X329125238Y-48826666D01*
X331506190Y-50017142D02*
X335315714Y-50017142D01*
X339839523Y-51921904D02*
X339839523Y-46921904D01*
X339839523Y-51683809D02*
X339363333Y-51921904D01*
X338410952Y-51921904D01*
X337934761Y-51683809D01*
X337696666Y-51445714D01*
X337458571Y-50969523D01*
X337458571Y-49540952D01*
X337696666Y-49064761D01*
X337934761Y-48826666D01*
X338410952Y-48588571D01*
X339363333Y-48588571D01*
X339839523Y-48826666D01*
X342220476Y-51921904D02*
X342220476Y-48588571D01*
X342220476Y-49540952D02*
X342458571Y-49064761D01*
X342696666Y-48826666D01*
X343172857Y-48588571D01*
X343649047Y-48588571D01*
X347458571Y-51921904D02*
X347458571Y-49302857D01*
X347220476Y-48826666D01*
X346744285Y-48588571D01*
X345791904Y-48588571D01*
X345315714Y-48826666D01*
X347458571Y-51683809D02*
X346982380Y-51921904D01*
X345791904Y-51921904D01*
X345315714Y-51683809D01*
X345077619Y-51207619D01*
X345077619Y-50731428D01*
X345315714Y-50255238D01*
X345791904Y-50017142D01*
X346982380Y-50017142D01*
X347458571Y-49779047D01*
X349363333Y-48588571D02*
X350315714Y-51921904D01*
X351268095Y-49540952D01*
X352220476Y-51921904D01*
X353172857Y-48588571D01*
X355077619Y-48588571D02*
X355077619Y-51921904D01*
X355077619Y-49064761D02*
X355315714Y-48826666D01*
X355791904Y-48588571D01*
X356506190Y-48588571D01*
X356982380Y-48826666D01*
X357220476Y-49302857D01*
X357220476Y-51921904D01*
X363410952Y-51921904D02*
X363410952Y-46921904D01*
X363410952Y-48826666D02*
X363887142Y-48588571D01*
X364839523Y-48588571D01*
X365315714Y-48826666D01*
X365553809Y-49064761D01*
X365791904Y-49540952D01*
X365791904Y-50969523D01*
X365553809Y-51445714D01*
X365315714Y-51683809D01*
X364839523Y-51921904D01*
X363887142Y-51921904D01*
X363410952Y-51683809D01*
X368649047Y-51921904D02*
X368172857Y-51683809D01*
X367934761Y-51445714D01*
X367696666Y-50969523D01*
X367696666Y-49540952D01*
X367934761Y-49064761D01*
X368172857Y-48826666D01*
X368649047Y-48588571D01*
X369363333Y-48588571D01*
X369839523Y-48826666D01*
X370077619Y-49064761D01*
X370315714Y-49540952D01*
X370315714Y-50969523D01*
X370077619Y-51445714D01*
X369839523Y-51683809D01*
X369363333Y-51921904D01*
X368649047Y-51921904D01*
X374601428Y-51921904D02*
X374601428Y-49302857D01*
X374363333Y-48826666D01*
X373887142Y-48588571D01*
X372934761Y-48588571D01*
X372458571Y-48826666D01*
X374601428Y-51683809D02*
X374125238Y-51921904D01*
X372934761Y-51921904D01*
X372458571Y-51683809D01*
X372220476Y-51207619D01*
X372220476Y-50731428D01*
X372458571Y-50255238D01*
X372934761Y-50017142D01*
X374125238Y-50017142D01*
X374601428Y-49779047D01*
X376982380Y-51921904D02*
X376982380Y-48588571D01*
X376982380Y-49540952D02*
X377220476Y-49064761D01*
X377458571Y-48826666D01*
X377934761Y-48588571D01*
X378410952Y-48588571D01*
X382220476Y-51921904D02*
X382220476Y-46921904D01*
X382220476Y-51683809D02*
X381744285Y-51921904D01*
X380791904Y-51921904D01*
X380315714Y-51683809D01*
X380077619Y-51445714D01*
X379839523Y-50969523D01*
X379839523Y-49540952D01*
X380077619Y-49064761D01*
X380315714Y-48826666D01*
X380791904Y-48588571D01*
X381744285Y-48588571D01*
X382220476Y-48826666D01*
X384601428Y-51445714D02*
X384839523Y-51683809D01*
X384601428Y-51921904D01*
X384363333Y-51683809D01*
X384601428Y-51445714D01*
X384601428Y-51921904D01*
D12*
%TO.C,REF\u002A\u002A*%
X82100000Y-243900000D02*
G75*
G03*
X82100000Y-243900000I-2500000J0D01*
G01*
X387050000Y-123300000D02*
G75*
G03*
X387050000Y-123300000I-2500000J0D01*
G01*
X466250000Y-212000000D02*
G75*
G03*
X466250000Y-212000000I-2500000J0D01*
G01*
X463300000Y-123300000D02*
G75*
G03*
X463300000Y-123300000I-2500000J0D01*
G01*
X170650000Y-174200000D02*
G75*
G03*
X170650000Y-174200000I-2500000J0D01*
G01*
X81800000Y-123300000D02*
G75*
G03*
X81800000Y-123300000I-2500000J0D01*
G01*
X523700000Y-174200000D02*
G75*
G03*
X523700000Y-174200000I-2500000J0D01*
G01*
X421650000Y-174200000D02*
G75*
G03*
X421650000Y-174200000I-2500000J0D01*
G01*
X185250000Y-212000000D02*
G75*
G03*
X185250000Y-212000000I-2500000J0D01*
G01*
X466400000Y-174200000D02*
G75*
G03*
X466400000Y-174200000I-2500000J0D01*
G01*
X85150000Y-174200000D02*
G75*
G03*
X85150000Y-174200000I-2500000J0D01*
G01*
X520300000Y-123300000D02*
G75*
G03*
X520300000Y-123300000I-2500000J0D01*
G01*
X73300000Y-242100000D02*
G75*
G03*
X73300000Y-242100000I-2500000J0D01*
G01*
X158400000Y-243900000D02*
G75*
G03*
X158400000Y-243900000I-2500000J0D01*
G01*
X428200000Y-135650000D02*
G75*
G03*
X428200000Y-135650000I-2500000J0D01*
G01*
X311000000Y-243900000D02*
G75*
G03*
X311000000Y-243900000I-2500000J0D01*
G01*
X520600000Y-243400000D02*
G75*
G03*
X520600000Y-243400000I-2500000J0D01*
G01*
X528550000Y-242100000D02*
G75*
G03*
X528550000Y-242100000I-2500000J0D01*
G01*
X404750000Y-193250000D02*
G75*
G03*
X404750000Y-193250000I-2500000J0D01*
G01*
X234875000Y-122250000D02*
G75*
G03*
X234875000Y-122250000I-2500000J0D01*
G01*
X323150000Y-174200000D02*
G75*
G03*
X323150000Y-174200000I-2500000J0D01*
G01*
X234700000Y-243900000D02*
G75*
G03*
X234700000Y-243900000I-2500000J0D01*
G01*
X387300000Y-243900000D02*
G75*
G03*
X387300000Y-243900000I-2500000J0D01*
G01*
X158112500Y-123300000D02*
G75*
G03*
X158112500Y-123300000I-2500000J0D01*
G01*
X399700000Y-174200000D02*
G75*
G03*
X399700000Y-174200000I-2500000J0D01*
G01*
X125900000Y-174200000D02*
G75*
G03*
X125900000Y-174200000I-2500000J0D01*
G01*
X175500000Y-193500000D02*
G75*
G03*
X175500000Y-193500000I-2500000J0D01*
G01*
X395000000Y-212000000D02*
G75*
G03*
X395000000Y-212000000I-2500000J0D01*
G01*
X185250000Y-232000000D02*
G75*
G03*
X185250000Y-232000000I-2500000J0D01*
G01*
X463600000Y-243900000D02*
G75*
G03*
X463600000Y-243900000I-2500000J0D01*
G01*
X428200000Y-155400000D02*
G75*
G03*
X428200000Y-155400000I-2500000J0D01*
G01*
X395000000Y-231750000D02*
G75*
G03*
X395000000Y-231750000I-2500000J0D01*
G01*
X246900000Y-174200000D02*
G75*
G03*
X246900000Y-174200000I-2500000J0D01*
G01*
X310737500Y-123300000D02*
G75*
G03*
X310737500Y-123300000I-2500000J0D01*
G01*
%TD*%
M02*
