M48
; DRILL file {KiCad (6.0.5-0)} date Friday, June 24, 2022 at 09:01:51 PM
; FORMAT={-:-/ absolute / inch / decimal}
; #@! TF.CreationDate,2022-06-24T21:01:51-04:00
; #@! TF.GenerationSoftware,Kicad,Pcbnew,(6.0.5-0)
; #@! TF.FileFunction,Plated,1,2,PTH
FMAT,2
INCH
; #@! TA.AperFunction,Plated,PTH,ViaDrill
T1C0.0157
; #@! TA.AperFunction,Plated,PTH,ComponentDrill
T2C0.0276
; #@! TA.AperFunction,Plated,PTH,ComponentDrill
T3C0.0315
; #@! TA.AperFunction,Plated,PTH,ComponentDrill
T4C0.0394
%
G90
G05
T1
X2.7942Y-5.6155
X2.7942Y-6.3439
X2.7942Y-6.4383
X2.7942Y-7.0899
X2.7942Y-7.2179
X2.7942Y-7.7002
X2.876Y-3.416
X2.876Y-3.884
X2.982Y-3.416
X2.982Y-3.884
X2.986Y-5.752
X3.126Y-3.436
X3.126Y-3.886
X3.1583Y-4.122
X3.23Y-3.436
X3.23Y-3.886
X3.4162Y-5.752
X3.526Y-5.478
X3.526Y-6.202
X3.528Y-6.514
X3.528Y-6.952
X3.53Y-7.28
X3.53Y-7.6998
X3.5629Y-7.9098
X3.5638Y-8.4502
X3.5638Y-8.5633
X3.5638Y-9.2002
X3.62Y-3.52
X3.62Y-3.97
X3.7427Y-3.52
X3.7433Y-3.97
X3.822Y-4.122
X3.8653Y-3.52
X3.8667Y-3.97
X3.988Y-3.5179
X3.99Y-3.97
X4.086Y-4.95
X4.114Y-4.372
X4.29Y-3.52
X4.29Y-3.97
X4.2922Y-8.084
X4.2922Y-8.521
X4.2922Y-9.2002
X4.2928Y-8.6299
X4.3022Y-5.7303
X4.3024Y-6.2004
X4.3024Y-6.5036
X4.306Y-6.9511
X4.306Y-7.2474
X4.306Y-7.7011
X4.4333Y-3.52
X4.4333Y-3.97
X4.5767Y-3.52
X4.5767Y-3.97
X4.6118Y-4.2616
X4.6118Y-4.3718
X4.714Y-4.11
X4.72Y-3.52
X4.72Y-3.97
X4.818Y-4.95
X4.87Y-4.372
X4.87Y-4.49
X4.87Y-4.602
X4.87Y-4.722
X4.926Y-4.95
X4.93Y-3.52
X4.93Y-3.97
X5.0245Y-5.5663
X5.0249Y-6.2018
X5.0269Y-6.5138
X5.0269Y-6.9518
X5.0289Y-7.2798
X5.0289Y-7.6995
X5.044Y-8.0848
X5.044Y-8.5218
X5.044Y-9.2009
X5.0446Y-8.6307
X5.072Y-3.538
X5.072Y-3.972
X5.194Y-5.73
X5.1954Y-3.5206
X5.1954Y-3.9726
X5.204Y-4.11
X5.302Y-3.52
X5.302Y-3.972
X5.316Y-4.11
X5.37Y-4.262
X5.488Y-3.762
X5.574Y-5.732
X5.586Y-4.95
X5.62Y-4.372
X5.62Y-4.49
X5.62Y-4.602
X5.62Y-4.722
X5.74Y-4.11
X5.7686Y-8.212
X5.7686Y-9.0004
X5.7704Y-5.8439
X5.7743Y-5.744
X5.7743Y-6.1998
X5.7745Y-5.1057
X5.8533Y-7.6053
X5.8543Y-8.3504
X5.866Y-3.972
X5.866Y-4.698
X5.938Y-3.758
X5.9743Y-8.0033
X5.9743Y-8.5535
X5.9743Y-8.6844
X5.9743Y-9.1893
X6.0028Y-9.2868
X6.1503Y-6.9502
X6.1513Y-6.5653
X6.3639Y-7.3872
X6.3639Y-7.7002
X6.5204Y-5.7277
X6.5204Y-5.8439
X6.5204Y-6.2002
X6.5205Y-5.1057
X6.7253Y-8.0319
X6.7253Y-8.5023
X6.7253Y-8.8409
X6.7262Y-9.2021
X6.7262Y-9.2845
X6.8906Y-7.9856
X6.9003Y-6.9502
X6.9013Y-6.5653
X7.1139Y-7.3872
X7.1139Y-7.7002
X7.2036Y-5.2523
X7.2036Y-6.2011
X7.2704Y-5.0408
X7.2704Y-5.7277
X7.2704Y-5.8439
X7.2704Y-6.2002
X7.4738Y-8.5018
X7.4743Y-8.0417
X7.5156Y-6.6667
X7.5156Y-7.1076
X7.5707Y-7.9856
X7.6503Y-6.9502
X7.6513Y-6.5653
X7.6731Y-7.9856
X7.7971Y-7.4403
X7.7971Y-7.8626
X7.8639Y-7.3872
X7.8639Y-7.7002
X8.0205Y-5.0978
X8.0205Y-5.7277
X8.0205Y-5.8439
X8.0205Y-6.2002
X8.179Y-8.0909
X8.179Y-9.0004
X8.2666Y-8.0417
X8.2666Y-8.4511
X8.3827Y-7.9856
X8.4005Y-6.9502
X8.4014Y-6.5653
X8.614Y-7.3872
X8.614Y-7.7002
X8.7704Y-5.154
X8.7704Y-5.7285
X8.7704Y-5.8446
X8.7704Y-6.2009
X8.9821Y-8.0417
X8.9821Y-8.4502
X9.1503Y-6.9509
X9.1513Y-6.5661
X9.3639Y-7.3879
X9.3639Y-7.7009
X9.5204Y-5.211
X9.5204Y-5.7285
X9.5204Y-5.8446
X9.5204Y-6.2009
X9.7115Y-8.685
X9.7115Y-9.5417
X9.732Y-8.0424
X9.732Y-8.4509
X9.9003Y-6.9509
X9.9013Y-6.5661
X10.1139Y-7.3879
X10.1139Y-7.7009
X10.2704Y-5.211
X10.2704Y-5.7285
X10.2704Y-5.8446
X10.2704Y-6.2009
X10.482Y-8.0424
X10.482Y-8.4509
X10.6503Y-6.9509
X10.6513Y-6.5661
X10.8414Y-4.3389
X10.8639Y-7.3879
X10.8639Y-7.7009
X10.9262Y-5.8868
X10.9262Y-6.0984
X11.0204Y-5.211
X11.0204Y-5.7285
X11.0204Y-5.8446
X11.0204Y-6.2009
X11.232Y-8.0424
X11.232Y-8.4509
X11.2853Y-4.3389
X11.4003Y-6.9509
X11.4013Y-6.5661
X11.6139Y-7.3879
X11.6139Y-7.7009
X11.7704Y-5.211
X11.7704Y-5.7285
X11.7704Y-5.8446
X11.7704Y-6.2009
X11.982Y-8.0424
X11.982Y-8.4509
X12.1503Y-6.9509
X12.1513Y-6.5661
X12.3384Y-4.7395
X12.3386Y-4.6122
X12.3533Y-4.2215
X12.3533Y-4.3376
X12.3533Y-4.4754
X12.3543Y-3.9685
X12.3543Y-4.0945
X12.3639Y-7.3879
X12.3639Y-7.7009
X12.4221Y-5.0309
X12.4221Y-5.7287
X12.5204Y-5.7285
X12.5204Y-5.8446
X12.5204Y-6.2009
X12.5205Y-5.1756
X12.7244Y-4.5335
X12.732Y-8.0424
X12.732Y-8.4509
X12.9003Y-6.9509
X12.9013Y-6.5661
X13.1073Y-3.9685
X13.1073Y-4.0945
X13.1073Y-4.2215
X13.1073Y-4.3376
X13.1073Y-4.4754
X13.1139Y-7.3879
X13.1139Y-7.7009
X13.119Y-4.7395
X13.1191Y-4.6122
X13.2215Y-4.5335
X13.2704Y-5.7285
X13.2704Y-5.8446
X13.2704Y-6.2009
X13.2705Y-5.1756
X13.2874Y-6.6368
X13.2874Y-6.8484
X13.4022Y-9.0004
X13.4026Y-8.251
X13.482Y-8.0424
X13.482Y-8.4509
X13.6503Y-6.9509
X13.6513Y-6.5661
X13.6988Y-4.1831
X13.6988Y-4.5856
X13.7185Y-7.3888
X13.7185Y-7.6004
X13.8051Y-4.1841
X13.8051Y-4.5866
X13.8639Y-7.3879
X13.8639Y-7.7009
X13.9262Y-4.185
X13.9262Y-4.5866
X14.0204Y-6.2009
X14.0205Y-5.211
X14.0205Y-5.7285
X14.0205Y-5.8446
X14.0502Y-4.185
X14.0502Y-4.5886
X14.1701Y-5.7198
X14.1732Y-4.187
X14.1732Y-4.5906
X14.232Y-8.0424
X14.232Y-8.4509
X14.2361Y-6.4807
X14.2892Y-7.9433
X14.2892Y-8.2031
X14.2892Y-9.0259
X14.3917Y-4.7411
X14.4013Y-6.5661
X14.4013Y-6.9502
X14.4024Y-8.0181
X14.6062Y-7.272
X14.6062Y-7.3862
X14.6071Y-7.7002
X14.7627Y-7.2031
X14.7853Y-5.9088
X14.813Y-4.7421
X14.8217Y-8.0181
X14.8463Y-4.9206
X14.8463Y-5.3891
X14.8955Y-5.7198
X14.9516Y-8.1815
X14.9516Y-8.9994
X14.9861Y-5.9088
X15.0154Y-9.2004
X15.0156Y-8.4511
X15.0717Y-6.4856
X15.2292Y-7.9423
X15.3601Y-7.272
X15.3601Y-7.397
X15.3601Y-7.7011
X15.4831Y-7.2031
X15.5127Y-5.5919
X15.5127Y-6.2011
X15.5963Y-5.4511
X15.5963Y-6.2021
X16.0983Y-8.9521
X16.0983Y-9.5387
X16.1101Y-7.3783
X16.1101Y-7.7002
X16.1111Y-7.8635
X16.1111Y-8.4511
X16.1623Y-8.895
X16.1623Y-9.4944
X16.189Y-3.873
X16.3462Y-5.4509
X16.3462Y-6.2019
X16.6033Y-3.873
X16.6052Y-4.6202
X16.7982Y-4.623
X16.7982Y-4.939
X16.8595Y-7.3791
X16.8595Y-7.7009
X17.0962Y-5.4509
X17.0962Y-6.2019
X17.1652Y-3.4482
X17.1652Y-3.9452
X17.3268Y-4.2195
X17.3268Y-4.3602
X17.3483Y-8.2523
X17.3483Y-9.0013
X17.4222Y-4.0846
X17.4277Y-3.967
X17.6554Y-7.8527
X17.6554Y-8.4492
X17.7923Y-4.2195
X17.7933Y-4.3612
X17.7975Y-7.3781
X17.7975Y-7.6999
X17.7981Y-8.5889
X17.7985Y-7.8633
X17.7992Y-8.8091
X17.7992Y-9.2008
X17.8462Y-5.4509
X17.8462Y-6.2019
X17.877Y-3.9675
X17.877Y-4.0837
X18.4804Y-4.9065
X18.4852Y-6.0984
X18.4852Y-6.8504
X18.5475Y-7.3781
X18.5475Y-7.6999
X18.5481Y-8.6254
X18.5482Y-8.7352
X18.5482Y-9.1988
X18.5485Y-7.8633
X18.5973Y-5.4516
X18.5973Y-6.2026
X18.6438Y-4.7736
X18.8573Y-4.9065
X19.0207Y-4.7736
X19.2134Y-7.9925
X19.2134Y-8.4364
X19.2134Y-8.5889
X19.2134Y-9.1992
X19.2975Y-7.3781
X19.2975Y-7.6999
X19.2981Y-8.6372
X19.2985Y-7.8633
X19.3462Y-5.4509
X19.3462Y-6.2019
X20.0668Y-8.2513
X20.0669Y-9.0
X20.0924Y-5.5929
X20.0924Y-6.2002
X20.4979Y-4.21
X20.8532Y-4.21
T2
X2.9852Y-5.2504
X2.9852Y-5.3504
X2.9852Y-5.4504
X2.9852Y-6.0004
X2.9852Y-6.1004
X2.9852Y-6.2004
X2.9852Y-6.7504
X2.9852Y-6.8504
X2.9852Y-6.9504
X2.9852Y-7.5004
X2.9852Y-7.6004
X2.9852Y-7.7004
X2.9852Y-8.2504
X2.9852Y-8.3504
X2.9852Y-8.4504
X2.9852Y-9.0004
X2.9852Y-9.1004
X2.9852Y-9.2004
X3.7352Y-5.2504
X3.7352Y-5.3504
X3.7352Y-5.4504
X3.7352Y-6.0004
X3.7352Y-6.1004
X3.7352Y-6.2004
X3.7352Y-6.7504
X3.7352Y-6.8504
X3.7352Y-6.9504
X3.7352Y-7.5004
X3.7352Y-7.6004
X3.7352Y-7.7004
X3.7352Y-8.2504
X3.7352Y-8.3504
X3.7352Y-8.4504
X3.7352Y-9.0004
X3.7352Y-9.1004
X3.7352Y-9.2004
X4.4852Y-5.2504
X4.4852Y-5.3504
X4.4852Y-5.4504
X4.4852Y-6.0004
X4.4852Y-6.1004
X4.4852Y-6.2004
X4.4852Y-6.7504
X4.4852Y-6.8504
X4.4852Y-6.9504
X4.4852Y-7.5004
X4.4852Y-7.6004
X4.4852Y-7.7004
X4.4852Y-8.2504
X4.4852Y-8.3504
X4.4852Y-8.4504
X4.4852Y-9.0004
X4.4852Y-9.1004
X4.4852Y-9.2004
X5.2352Y-5.2504
X5.2352Y-5.3504
X5.2352Y-5.4504
X5.2352Y-6.0004
X5.2352Y-6.1004
X5.2352Y-6.2004
X5.2352Y-6.7504
X5.2352Y-6.8504
X5.2352Y-6.9504
X5.2352Y-7.5004
X5.2352Y-7.6004
X5.2352Y-7.7004
X5.2352Y-8.2504
X5.2352Y-8.3504
X5.2352Y-8.4504
X5.2352Y-9.0004
X5.2352Y-9.1004
X5.2352Y-9.2004
X5.9852Y-5.2504
X5.9852Y-5.3504
X5.9852Y-5.4504
X5.9852Y-6.0004
X5.9852Y-6.1004
X5.9852Y-6.2004
X6.1727Y-8.2504
X6.1727Y-8.3504
X6.1727Y-8.4504
X6.3602Y-6.7504
X6.3602Y-6.8504
X6.3602Y-6.9504
X6.5477Y-7.5004
X6.5477Y-7.6004
X6.5477Y-7.7004
X6.7352Y-5.2504
X6.7352Y-5.3504
X6.7352Y-5.4504
X6.7352Y-6.0004
X6.7352Y-6.1004
X6.7352Y-6.2004
X6.9227Y-8.2504
X6.9227Y-8.3504
X6.9227Y-8.4504
X6.9227Y-9.0004
X6.9227Y-9.1004
X6.9227Y-9.2004
X7.1102Y-6.7504
X7.1102Y-6.8504
X7.1102Y-6.9504
X7.2977Y-7.5004
X7.2977Y-7.6004
X7.2977Y-7.7004
X7.4852Y-5.2504
X7.4852Y-5.3504
X7.4852Y-5.4504
X7.4852Y-6.0004
X7.4852Y-6.1004
X7.4852Y-6.2004
X7.6727Y-8.2504
X7.6727Y-8.3504
X7.6727Y-8.4504
X7.6727Y-9.0004
X7.6727Y-9.1004
X7.6727Y-9.2004
X7.8602Y-6.7504
X7.8602Y-6.8504
X7.8602Y-6.9504
X8.0477Y-7.5004
X8.0477Y-7.6004
X8.0477Y-7.7004
X8.2352Y-5.2504
X8.2352Y-5.3504
X8.2352Y-5.4504
X8.2352Y-6.0004
X8.2352Y-6.1004
X8.2352Y-6.2004
X8.4227Y-8.2504
X8.4227Y-8.3504
X8.4227Y-8.4504
X8.6102Y-6.7504
X8.6102Y-6.8504
X8.6102Y-6.9504
X8.7977Y-7.5004
X8.7977Y-7.6004
X8.7977Y-7.7004
X8.9852Y-5.2504
X8.9852Y-5.3504
X8.9852Y-5.4504
X8.9852Y-6.0004
X8.9852Y-6.1004
X8.9852Y-6.2004
X9.1727Y-8.2504
X9.1727Y-8.3504
X9.1727Y-8.4504
X9.3602Y-6.7504
X9.3602Y-6.8504
X9.3602Y-6.9504
X9.5477Y-7.5004
X9.5477Y-7.6004
X9.5477Y-7.7004
X9.7352Y-5.2504
X9.7352Y-5.3504
X9.7352Y-5.4504
X9.7352Y-6.0004
X9.7352Y-6.1004
X9.7352Y-6.2004
X9.9227Y-8.2504
X9.9227Y-8.3504
X9.9227Y-8.4504
X10.1102Y-6.7504
X10.1102Y-6.8504
X10.1102Y-6.9504
X10.2977Y-7.5004
X10.2977Y-7.6004
X10.2977Y-7.7004
X10.4852Y-5.2504
X10.4852Y-5.3504
X10.4852Y-5.4504
X10.4852Y-6.0004
X10.4852Y-6.1004
X10.4852Y-6.2004
X10.6727Y-8.2504
X10.6727Y-8.3504
X10.6727Y-8.4504
X10.8602Y-6.7504
X10.8602Y-6.8504
X10.8602Y-6.9504
X11.0477Y-7.5004
X11.0477Y-7.6004
X11.0477Y-7.7004
X11.0477Y-9.0004
X11.0477Y-9.1004
X11.0477Y-9.2004
X11.2352Y-5.2504
X11.2352Y-5.3504
X11.2352Y-5.4504
X11.2352Y-6.0004
X11.2352Y-6.1004
X11.2352Y-6.2004
X11.4227Y-8.2504
X11.4227Y-8.3504
X11.4227Y-8.4504
X11.6102Y-6.7504
X11.6102Y-6.8504
X11.6102Y-6.9504
X11.7977Y-7.5004
X11.7977Y-7.6004
X11.7977Y-7.7004
X11.9852Y-5.2504
X11.9852Y-5.3504
X11.9852Y-5.4504
X11.9852Y-6.0004
X11.9852Y-6.1004
X11.9852Y-6.2004
X12.1727Y-8.2504
X12.1727Y-8.3504
X12.1727Y-8.4504
X12.3602Y-6.7504
X12.3602Y-6.8504
X12.3602Y-6.9504
X12.5477Y-7.5004
X12.5477Y-7.6004
X12.5477Y-7.7004
X12.7352Y-6.0004
X12.7352Y-6.1004
X12.7352Y-6.2004
X12.7352Y-5.2504
X12.7352Y-5.3504
X12.7352Y-5.4504
X12.9227Y-8.2504
X12.9227Y-8.3504
X12.9227Y-8.4504
X13.1102Y-6.7504
X13.1102Y-6.8504
X13.1102Y-6.9504
X13.2977Y-7.5004
X13.2977Y-7.6004
X13.2977Y-7.7004
X13.4852Y-5.2504
X13.4852Y-5.3504
X13.4852Y-5.4504
X13.4852Y-6.0004
X13.4852Y-6.1004
X13.4852Y-6.2004
X13.6727Y-8.2504
X13.6727Y-8.3504
X13.6727Y-8.4504
X13.6727Y-9.0004
X13.6727Y-9.1004
X13.6727Y-9.2004
X13.8602Y-6.7504
X13.8602Y-6.8504
X13.8602Y-6.9504
X14.0477Y-7.5004
X14.0477Y-7.6004
X14.0477Y-7.7004
X14.2352Y-5.2504
X14.2352Y-5.3504
X14.2352Y-5.4504
X14.2352Y-6.0004
X14.2352Y-6.1004
X14.2352Y-6.2004
X14.4227Y-8.2504
X14.4227Y-8.3504
X14.4227Y-8.4504
X14.4227Y-9.0004
X14.4227Y-9.1004
X14.4227Y-9.2004
X14.6102Y-6.7504
X14.6102Y-6.8504
X14.6102Y-6.9504
X14.7977Y-7.5004
X14.7977Y-7.6004
X14.7977Y-7.7004
X14.9852Y-5.2504
X14.9852Y-5.3504
X14.9852Y-5.4504
X14.9852Y-6.0004
X14.9852Y-6.1004
X14.9852Y-6.2004
X15.1727Y-8.2504
X15.1727Y-8.3504
X15.1727Y-8.4504
X15.1727Y-9.0004
X15.1727Y-9.1004
X15.1727Y-9.2004
X15.3602Y-6.7504
X15.3602Y-6.8504
X15.3602Y-6.9504
X15.5477Y-7.5004
X15.5477Y-7.6004
X15.5477Y-7.7004
X15.7352Y-5.2504
X15.7352Y-5.3504
X15.7352Y-5.4504
X15.7352Y-6.0004
X15.7352Y-6.1004
X15.7352Y-6.2004
X15.9227Y-8.2504
X15.9227Y-8.3504
X15.9227Y-8.4504
X16.1102Y-6.7504
X16.1102Y-6.8504
X16.1102Y-6.9504
X16.2977Y-7.5004
X16.2977Y-7.6004
X16.2977Y-7.7004
X16.4852Y-5.2504
X16.4852Y-5.3504
X16.4852Y-5.4504
X16.4852Y-6.0004
X16.4852Y-6.1004
X16.4852Y-6.2004
X16.6727Y-8.2504
X16.6727Y-8.3504
X16.6727Y-8.4504
X16.8602Y-6.7504
X16.8602Y-6.8504
X16.8602Y-6.9504
X17.0477Y-7.5004
X17.0477Y-7.6004
X17.0477Y-7.7004
X17.2352Y-5.2504
X17.2352Y-5.3504
X17.2352Y-5.4504
X17.2352Y-6.0004
X17.2352Y-6.1004
X17.2352Y-6.2004
X17.9852Y-5.2504
X17.9852Y-5.3504
X17.9852Y-5.4504
X17.9852Y-6.0004
X17.9852Y-6.1004
X17.9852Y-6.2004
X17.9852Y-6.7504
X17.9852Y-6.8504
X17.9852Y-6.9504
X17.9852Y-7.5004
X17.9852Y-7.6004
X17.9852Y-7.7004
X17.9852Y-8.2504
X17.9852Y-8.3504
X17.9852Y-8.4504
X17.9852Y-9.0004
X17.9852Y-9.1004
X17.9852Y-9.2004
X18.7352Y-5.2504
X18.7352Y-5.3504
X18.7352Y-5.4504
X18.7352Y-6.0004
X18.7352Y-6.1004
X18.7352Y-6.2004
X18.7352Y-6.7504
X18.7352Y-6.8504
X18.7352Y-6.9504
X18.7352Y-7.5004
X18.7352Y-7.6004
X18.7352Y-7.7004
X18.7352Y-8.2504
X18.7352Y-8.3504
X18.7352Y-8.4504
X18.7352Y-9.0004
X18.7352Y-9.1004
X18.7352Y-9.2004
X19.4852Y-5.2504
X19.4852Y-5.3504
X19.4852Y-5.4504
X19.4852Y-6.0004
X19.4852Y-6.1004
X19.4852Y-6.2004
X19.4852Y-6.7504
X19.4852Y-6.8504
X19.4852Y-6.9504
X19.4852Y-7.5004
X19.4852Y-7.6004
X19.4852Y-7.7004
X19.4852Y-8.2504
X19.4852Y-8.3504
X19.4852Y-8.4504
X19.4852Y-9.0004
X19.4852Y-9.1004
X19.4852Y-9.2004
X20.2352Y-5.2504
X20.2352Y-5.3504
X20.2352Y-5.4504
X20.2352Y-6.0004
X20.2352Y-6.1004
X20.2352Y-6.2004
X20.2352Y-6.7504
X20.2352Y-6.8504
X20.2352Y-6.9504
X20.2352Y-7.5004
X20.2352Y-7.6004
X20.2352Y-7.7004
X20.2352Y-8.2504
X20.2352Y-8.3504
X20.2352Y-8.4504
X20.2352Y-9.0004
X20.2352Y-9.1004
X20.2352Y-9.2004
T3
X9.3898Y-4.0192
X9.3898Y-4.6192
X9.4898Y-4.0192
X9.4898Y-4.6192
X9.5898Y-4.0192
X9.5898Y-4.6192
X9.6898Y-4.0192
X9.6898Y-4.6192
X9.7898Y-4.0192
X9.7898Y-4.6192
X9.8898Y-4.0192
X9.8898Y-4.6192
X9.9898Y-4.0192
X9.9898Y-4.6192
X10.0898Y-4.0192
X10.0898Y-4.6192
X10.1898Y-4.0192
X10.1898Y-4.6192
X10.2898Y-4.0192
X10.2898Y-4.6192
X10.3898Y-4.0192
X10.3898Y-4.6192
X10.4898Y-4.0192
X10.4898Y-4.6192
X14.6202Y-4.0202
X14.6202Y-4.6202
X14.7202Y-4.0202
X14.7202Y-4.6202
X14.8202Y-4.0202
X14.8202Y-4.6202
X14.9202Y-4.0202
X14.9202Y-4.6202
X15.0202Y-4.0202
X15.0202Y-4.6202
X15.1202Y-4.0202
X15.1202Y-4.6202
X15.2202Y-4.0202
X15.2202Y-4.6202
X15.3202Y-4.0202
X15.3202Y-4.6202
X15.4202Y-4.0202
X15.4202Y-4.6202
X15.5202Y-4.0202
X15.5202Y-4.6202
X15.6202Y-4.0202
X15.6202Y-4.6202
X15.7202Y-4.0202
X15.7202Y-4.6202
X15.8202Y-4.0202
X15.8202Y-4.6202
X15.9202Y-4.0202
X15.9202Y-4.6202
X16.0202Y-4.0202
X16.0202Y-4.6202
X16.1202Y-4.0202
X16.1202Y-4.6202
X16.2202Y-4.0202
X16.2202Y-4.6202
X16.3202Y-4.0202
X16.3202Y-4.6202
X16.4202Y-4.0202
X16.4202Y-4.6202
X16.5202Y-4.0202
X16.5202Y-4.6202
T4
X9.0831Y-3.9244
X9.0831Y-4.3339
X11.6705Y-4.5181
X11.6705Y-4.6421
X11.6772Y-4.3917
X12.0799Y-4.5181
X12.0799Y-4.6421
X12.0866Y-4.3917
X12.3454Y-3.845
X12.4454Y-3.845
X12.5454Y-3.845
X12.6454Y-3.845
X12.79Y-3.845
X12.89Y-3.845
X12.99Y-3.845
X13.09Y-3.845
X13.4091Y-3.7803
X13.4091Y-4.2685
X13.5382Y-3.7803
X13.5382Y-4.2685
X14.8677Y-3.8563
X15.072Y-3.7709
X15.3559Y-3.8563
X15.5602Y-3.7709
X15.6Y-3.8567
X16.0882Y-3.8567
X16.2705Y-3.535
X16.2705Y-3.7354
X16.3705Y-3.6378
X16.7587Y-3.535
X16.7587Y-3.7354
X16.8587Y-3.6378
X18.9398Y-3.6824
X18.9398Y-3.7824
X19.0398Y-3.6824
X19.0398Y-3.7824
X19.1398Y-3.6824
X19.1398Y-3.7824
X19.2398Y-3.6824
X19.2398Y-3.7824
X19.3398Y-3.6824
X19.3398Y-3.7824
X19.4398Y-3.6824
X19.4398Y-3.7824
X19.5398Y-3.6824
X19.5398Y-3.7824
X19.6398Y-3.6824
X19.6398Y-3.7824
X19.7398Y-3.6824
X19.7398Y-3.7824
X19.8335Y-4.3933
X19.8398Y-3.6824
X19.8398Y-3.7824
X19.9106Y-4.6067
X19.9398Y-3.6824
X19.9398Y-3.7824
X20.0398Y-3.6824
X20.0398Y-3.7824
X20.1398Y-3.6824
X20.1398Y-3.7824
X20.2398Y-3.6824
X20.2398Y-3.7824
X20.3059Y-4.3933
X20.3398Y-3.6824
X20.3398Y-3.7824
X20.4398Y-3.6824
X20.4398Y-3.7824
X20.4476Y-4.376
X20.5398Y-3.6824
X20.5398Y-3.7824
X20.7138Y-4.6067
X20.8571Y-4.376
T0
M30
