%TF.GenerationSoftware,KiCad,Pcbnew,(6.0.5-0)*%
%TF.CreationDate,2022-06-24T21:01:45-04:00*%
%TF.ProjectId,SpaceCadet-rounded,53706163-6543-4616-9465-742d726f756e,rev?*%
%TF.SameCoordinates,Original*%
%TF.FileFunction,Other,User*%
%FSLAX46Y46*%
G04 Gerber Fmt 4.6, Leading zero omitted, Abs format (unit mm)*
G04 Created by KiCad (PCBNEW (6.0.5-0)) date 2022-06-24 21:01:45*
%MOMM*%
%LPD*%
G01*
G04 APERTURE LIST*
%TA.AperFunction,Profile*%
%ADD10C,0.100000*%
%TD*%
%ADD11C,0.050000*%
%ADD12C,0.120000*%
G04 APERTURE END LIST*
D10*
X64250000Y-81300000D02*
X533250000Y-81300000D01*
X533250000Y-81300000D02*
X533250000Y-247900000D01*
X533250000Y-247900000D02*
X64250000Y-247900000D01*
X64250000Y-247900000D02*
X64250000Y-81300000D01*
D11*
%TO.C,REF\u002A\u002A*%
X82350000Y-243900000D02*
G75*
G03*
X82350000Y-243900000I-2750000J0D01*
G01*
D12*
%TO.C,SW91*%
X469525000Y-183525000D02*
X450475000Y-183525000D01*
X450475000Y-183525000D02*
X450475000Y-202575000D01*
X450475000Y-202575000D02*
X469525000Y-202575000D01*
X469525000Y-202575000D02*
X469525000Y-183525000D01*
D11*
%TO.C,REF\u002A\u002A*%
X387300000Y-123300000D02*
G75*
G03*
X387300000Y-123300000I-2750000J0D01*
G01*
D12*
%TO.C,SW73*%
X107575000Y-183525000D02*
X88525000Y-183525000D01*
X88525000Y-183525000D02*
X88525000Y-202575000D01*
X88525000Y-202575000D02*
X107575000Y-202575000D01*
X107575000Y-202575000D02*
X107575000Y-183525000D01*
%TO.C,SW104*%
X264737500Y-202575000D02*
X245687500Y-202575000D01*
X245687500Y-202575000D02*
X245687500Y-221625000D01*
X245687500Y-221625000D02*
X264737500Y-221625000D01*
X264737500Y-221625000D02*
X264737500Y-202575000D01*
%TO.C,SW31*%
X202825000Y-145425000D02*
X183775000Y-145425000D01*
X183775000Y-145425000D02*
X183775000Y-164475000D01*
X183775000Y-164475000D02*
X202825000Y-164475000D01*
X202825000Y-164475000D02*
X202825000Y-145425000D01*
D11*
%TO.C,REF\u002A\u002A*%
X466500000Y-212000000D02*
G75*
G03*
X466500000Y-212000000I-2750000J0D01*
G01*
D12*
%TO.C,SW7*%
X202825000Y-126375000D02*
X183775000Y-126375000D01*
X183775000Y-126375000D02*
X183775000Y-145425000D01*
X183775000Y-145425000D02*
X202825000Y-145425000D01*
X202825000Y-145425000D02*
X202825000Y-126375000D01*
%TO.C,SW112*%
X417137500Y-202575000D02*
X398087500Y-202575000D01*
X398087500Y-202575000D02*
X398087500Y-221625000D01*
X398087500Y-221625000D02*
X417137500Y-221625000D01*
X417137500Y-221625000D02*
X417137500Y-202575000D01*
%TO.C,SW113*%
X436187500Y-202575000D02*
X417137500Y-202575000D01*
X417137500Y-202575000D02*
X417137500Y-221625000D01*
X417137500Y-221625000D02*
X436187500Y-221625000D01*
X436187500Y-221625000D02*
X436187500Y-202575000D01*
%TO.C,SW127*%
X507625000Y-221625000D02*
X488575000Y-221625000D01*
X488575000Y-221625000D02*
X488575000Y-240675000D01*
X488575000Y-240675000D02*
X507625000Y-240675000D01*
X507625000Y-240675000D02*
X507625000Y-221625000D01*
D11*
%TO.C,REF\u002A\u002A*%
X463550000Y-123300000D02*
G75*
G03*
X463550000Y-123300000I-2750000J0D01*
G01*
%TO.C,U2*%
X369753000Y-100553000D02*
X369753000Y-118903000D01*
X421203000Y-118903000D02*
X421203000Y-100553000D01*
X369753000Y-118903000D02*
X421203000Y-118903000D01*
X421203000Y-100553000D02*
X369753000Y-100553000D01*
D12*
%TO.C,SW1*%
X88525000Y-126375000D02*
X69475000Y-126375000D01*
X69475000Y-126375000D02*
X69475000Y-145425000D01*
X69475000Y-145425000D02*
X88525000Y-145425000D01*
X88525000Y-145425000D02*
X88525000Y-126375000D01*
%TO.C,SW10*%
X259975000Y-126375000D02*
X240925000Y-126375000D01*
X240925000Y-126375000D02*
X240925000Y-145425000D01*
X240925000Y-145425000D02*
X259975000Y-145425000D01*
X259975000Y-145425000D02*
X259975000Y-126375000D01*
D11*
%TO.C,REF\u002A\u002A*%
X170900000Y-174200000D02*
G75*
G03*
X170900000Y-174200000I-2750000J0D01*
G01*
D12*
%TO.C,SW59*%
X288550000Y-164475000D02*
X269500000Y-164475000D01*
X269500000Y-164475000D02*
X269500000Y-183525000D01*
X269500000Y-183525000D02*
X288550000Y-183525000D01*
X288550000Y-183525000D02*
X288550000Y-164475000D01*
D11*
%TO.C,J0*%
X479271000Y-97874000D02*
X523521000Y-97874000D01*
X479271000Y-82974000D02*
X479271000Y-97874000D01*
X523521000Y-97874000D02*
X523521000Y-82974000D01*
X523521000Y-82974000D02*
X479271000Y-82974000D01*
D12*
%TO.C,SW98*%
X145675000Y-202575000D02*
X126625000Y-202575000D01*
X126625000Y-202575000D02*
X126625000Y-221625000D01*
X126625000Y-221625000D02*
X145675000Y-221625000D01*
X145675000Y-221625000D02*
X145675000Y-202575000D01*
%TO.C,SW93*%
X507625000Y-183525000D02*
X488575000Y-183525000D01*
X488575000Y-183525000D02*
X488575000Y-202575000D01*
X488575000Y-202575000D02*
X507625000Y-202575000D01*
X507625000Y-202575000D02*
X507625000Y-183525000D01*
D11*
%TO.C,U1*%
X236951000Y-100628000D02*
X236951000Y-118828000D01*
X236951000Y-118828000D02*
X268001000Y-118828000D01*
X268001000Y-100628000D02*
X236951000Y-100628000D01*
X268001000Y-118828000D02*
X268001000Y-100628000D01*
%TO.C,REF\u002A\u002A*%
X82050000Y-123300000D02*
G75*
G03*
X82050000Y-123300000I-2750000J0D01*
G01*
X523950000Y-174200000D02*
G75*
G03*
X523950000Y-174200000I-2750000J0D01*
G01*
D12*
%TO.C,SW119*%
X107575000Y-221625000D02*
X88525000Y-221625000D01*
X88525000Y-221625000D02*
X88525000Y-240675000D01*
X88525000Y-240675000D02*
X107575000Y-240675000D01*
X107575000Y-240675000D02*
X107575000Y-221625000D01*
%TO.C,SW57*%
X250450000Y-164475000D02*
X231400000Y-164475000D01*
X231400000Y-164475000D02*
X231400000Y-183525000D01*
X231400000Y-183525000D02*
X250450000Y-183525000D01*
X250450000Y-183525000D02*
X250450000Y-164475000D01*
%TO.C,SW92*%
X488575000Y-183525000D02*
X469525000Y-183525000D01*
X469525000Y-183525000D02*
X469525000Y-202575000D01*
X469525000Y-202575000D02*
X488575000Y-202575000D01*
X488575000Y-202575000D02*
X488575000Y-183525000D01*
%TO.C,SW83*%
X312362500Y-183525000D02*
X293312500Y-183525000D01*
X293312500Y-183525000D02*
X293312500Y-202575000D01*
X293312500Y-202575000D02*
X312362500Y-202575000D01*
X312362500Y-202575000D02*
X312362500Y-183525000D01*
D11*
%TO.C,J3_2*%
X334266000Y-99463000D02*
X334266000Y-95863000D01*
X334266000Y-95863000D02*
X323066000Y-95863000D01*
X323066000Y-95863000D02*
X323066000Y-99463000D01*
X323066000Y-99463000D02*
X334266000Y-99463000D01*
D12*
%TO.C,SW97*%
X126625000Y-202575000D02*
X107575000Y-202575000D01*
X107575000Y-202575000D02*
X107575000Y-221625000D01*
X107575000Y-221625000D02*
X126625000Y-221625000D01*
X126625000Y-221625000D02*
X126625000Y-202575000D01*
%TO.C,SW76*%
X179012500Y-183525000D02*
X159962500Y-183525000D01*
X159962500Y-183525000D02*
X159962500Y-202575000D01*
X159962500Y-202575000D02*
X179012500Y-202575000D01*
X179012500Y-202575000D02*
X179012500Y-183525000D01*
%TO.C,SW110*%
X379037500Y-202575000D02*
X359987500Y-202575000D01*
X359987500Y-202575000D02*
X359987500Y-221625000D01*
X359987500Y-221625000D02*
X379037500Y-221625000D01*
X379037500Y-221625000D02*
X379037500Y-202575000D01*
D11*
%TO.C,REF\u002A\u002A*%
X421900000Y-174200000D02*
G75*
G03*
X421900000Y-174200000I-2750000J0D01*
G01*
D12*
%TO.C,SW128*%
X526675000Y-221625000D02*
X507625000Y-221625000D01*
X507625000Y-221625000D02*
X507625000Y-240675000D01*
X507625000Y-240675000D02*
X526675000Y-240675000D01*
X526675000Y-240675000D02*
X526675000Y-221625000D01*
%TO.C,SW55*%
X212350000Y-164475000D02*
X193300000Y-164475000D01*
X193300000Y-164475000D02*
X193300000Y-183525000D01*
X193300000Y-183525000D02*
X212350000Y-183525000D01*
X212350000Y-183525000D02*
X212350000Y-164475000D01*
%TO.C,SW5*%
X164725000Y-126375000D02*
X145675000Y-126375000D01*
X145675000Y-126375000D02*
X145675000Y-145425000D01*
X145675000Y-145425000D02*
X164725000Y-145425000D01*
X164725000Y-145425000D02*
X164725000Y-126375000D01*
D11*
%TO.C,JP29*%
X111322800Y-99287600D02*
X111322800Y-95987600D01*
X111322800Y-99287600D02*
X113822800Y-99287600D01*
X113822800Y-95987600D02*
X113822800Y-99287600D01*
X113822800Y-95987600D02*
X111322800Y-95987600D01*
D12*
%TO.C,SW105*%
X283787500Y-202575000D02*
X264737500Y-202575000D01*
X264737500Y-202575000D02*
X264737500Y-221625000D01*
X264737500Y-221625000D02*
X283787500Y-221625000D01*
X283787500Y-221625000D02*
X283787500Y-202575000D01*
%TO.C,SW33*%
X240925000Y-145425000D02*
X221875000Y-145425000D01*
X221875000Y-145425000D02*
X221875000Y-164475000D01*
X221875000Y-164475000D02*
X240925000Y-164475000D01*
X240925000Y-164475000D02*
X240925000Y-145425000D01*
%TO.C,SW86*%
X369512500Y-183525000D02*
X350462500Y-183525000D01*
X350462500Y-183525000D02*
X350462500Y-202575000D01*
X350462500Y-202575000D02*
X369512500Y-202575000D01*
X369512500Y-202575000D02*
X369512500Y-183525000D01*
D11*
%TO.C,REF\u002A\u002A*%
X185500000Y-212000000D02*
G75*
G03*
X185500000Y-212000000I-2750000J0D01*
G01*
D12*
%TO.C,SW61*%
X326650000Y-164475000D02*
X307600000Y-164475000D01*
X307600000Y-164475000D02*
X307600000Y-183525000D01*
X307600000Y-183525000D02*
X326650000Y-183525000D01*
X326650000Y-183525000D02*
X326650000Y-164475000D01*
%TO.C,SW8*%
X221875000Y-126375000D02*
X202825000Y-126375000D01*
X202825000Y-126375000D02*
X202825000Y-145425000D01*
X202825000Y-145425000D02*
X221875000Y-145425000D01*
X221875000Y-145425000D02*
X221875000Y-126375000D01*
%TO.C,SW15*%
X355225000Y-126375000D02*
X336175000Y-126375000D01*
X336175000Y-126375000D02*
X336175000Y-145425000D01*
X336175000Y-145425000D02*
X355225000Y-145425000D01*
X355225000Y-145425000D02*
X355225000Y-126375000D01*
D11*
%TO.C,REF\u002A\u002A*%
X466650000Y-174200000D02*
G75*
G03*
X466650000Y-174200000I-2750000J0D01*
G01*
D12*
%TO.C,SW69*%
X488575000Y-164475000D02*
X469525000Y-164475000D01*
X469525000Y-164475000D02*
X469525000Y-183525000D01*
X469525000Y-183525000D02*
X488575000Y-183525000D01*
X488575000Y-183525000D02*
X488575000Y-164475000D01*
%TO.C,SW50*%
X107575000Y-164475000D02*
X88525000Y-164475000D01*
X88525000Y-164475000D02*
X88525000Y-183525000D01*
X88525000Y-183525000D02*
X107575000Y-183525000D01*
X107575000Y-183525000D02*
X107575000Y-164475000D01*
%TO.C,SW44*%
X450475000Y-145425000D02*
X431425000Y-145425000D01*
X431425000Y-145425000D02*
X431425000Y-164475000D01*
X431425000Y-164475000D02*
X450475000Y-164475000D01*
X450475000Y-164475000D02*
X450475000Y-145425000D01*
%TO.C,SW115*%
X488575000Y-202575000D02*
X469525000Y-202575000D01*
X469525000Y-202575000D02*
X469525000Y-221625000D01*
X469525000Y-221625000D02*
X488575000Y-221625000D01*
X488575000Y-221625000D02*
X488575000Y-202575000D01*
%TO.C,SW16*%
X374275000Y-126375000D02*
X355225000Y-126375000D01*
X355225000Y-126375000D02*
X355225000Y-145425000D01*
X355225000Y-145425000D02*
X374275000Y-145425000D01*
X374275000Y-145425000D02*
X374275000Y-126375000D01*
D11*
%TO.C,REF\u002A\u002A*%
X85400000Y-174200000D02*
G75*
G03*
X85400000Y-174200000I-2750000J0D01*
G01*
D12*
%TO.C,SW19*%
X431425000Y-126375000D02*
X412375000Y-126375000D01*
X412375000Y-126375000D02*
X412375000Y-145425000D01*
X412375000Y-145425000D02*
X431425000Y-145425000D01*
X431425000Y-145425000D02*
X431425000Y-126375000D01*
%TO.C,SW120*%
X126625000Y-221625000D02*
X107575000Y-221625000D01*
X107575000Y-221625000D02*
X107575000Y-240675000D01*
X107575000Y-240675000D02*
X126625000Y-240675000D01*
X126625000Y-240675000D02*
X126625000Y-221625000D01*
D11*
%TO.C,REF\u002A\u002A*%
X520550000Y-123300000D02*
G75*
G03*
X520550000Y-123300000I-2750000J0D01*
G01*
D12*
%TO.C,SW49*%
X88525000Y-164475000D02*
X69475000Y-164475000D01*
X69475000Y-164475000D02*
X69475000Y-183525000D01*
X69475000Y-183525000D02*
X88525000Y-183525000D01*
X88525000Y-183525000D02*
X88525000Y-164475000D01*
%TO.C,SW70*%
X507625000Y-164475000D02*
X488575000Y-164475000D01*
X488575000Y-164475000D02*
X488575000Y-183525000D01*
X488575000Y-183525000D02*
X507625000Y-183525000D01*
X507625000Y-183525000D02*
X507625000Y-164475000D01*
%TO.C,SW28*%
X145675000Y-145425000D02*
X126625000Y-145425000D01*
X126625000Y-145425000D02*
X126625000Y-164475000D01*
X126625000Y-164475000D02*
X145675000Y-164475000D01*
X145675000Y-164475000D02*
X145675000Y-145425000D01*
D11*
%TO.C,JP30*%
X118638000Y-99287600D02*
X121138000Y-99287600D01*
X121138000Y-95987600D02*
X118638000Y-95987600D01*
X118638000Y-99287600D02*
X118638000Y-95987600D01*
X121138000Y-95987600D02*
X121138000Y-99287600D01*
D12*
%TO.C,SW54*%
X193300000Y-164475000D02*
X174250000Y-164475000D01*
X174250000Y-164475000D02*
X174250000Y-183525000D01*
X174250000Y-183525000D02*
X193300000Y-183525000D01*
X193300000Y-183525000D02*
X193300000Y-164475000D01*
%TO.C,SW67*%
X440950000Y-164475000D02*
X421900000Y-164475000D01*
X421900000Y-164475000D02*
X421900000Y-183525000D01*
X421900000Y-183525000D02*
X440950000Y-183525000D01*
X440950000Y-183525000D02*
X440950000Y-164475000D01*
D11*
%TO.C,JP19*%
X366471600Y-119184000D02*
X366471600Y-121684000D01*
X369771600Y-121684000D02*
X369771600Y-119184000D01*
X369771600Y-121684000D02*
X366471600Y-121684000D01*
X366471600Y-119184000D02*
X369771600Y-119184000D01*
D12*
%TO.C,SW56*%
X231400000Y-164475000D02*
X212350000Y-164475000D01*
X212350000Y-164475000D02*
X212350000Y-183525000D01*
X212350000Y-183525000D02*
X231400000Y-183525000D01*
X231400000Y-183525000D02*
X231400000Y-164475000D01*
%TO.C,SW89*%
X426662500Y-183525000D02*
X407612500Y-183525000D01*
X407612500Y-183525000D02*
X407612500Y-202575000D01*
X407612500Y-202575000D02*
X426662500Y-202575000D01*
X426662500Y-202575000D02*
X426662500Y-183525000D01*
%TO.C,SW48*%
X526675000Y-145425000D02*
X507625000Y-145425000D01*
X507625000Y-145425000D02*
X507625000Y-164475000D01*
X507625000Y-164475000D02*
X526675000Y-164475000D01*
X526675000Y-164475000D02*
X526675000Y-145425000D01*
%TO.C,SW122*%
X188537500Y-221625000D02*
X169487500Y-221625000D01*
X169487500Y-221625000D02*
X169487500Y-240675000D01*
X169487500Y-240675000D02*
X188537500Y-240675000D01*
X188537500Y-240675000D02*
X188537500Y-221625000D01*
%TO.C,SW84*%
X331412500Y-183525000D02*
X312362500Y-183525000D01*
X312362500Y-183525000D02*
X312362500Y-202575000D01*
X312362500Y-202575000D02*
X331412500Y-202575000D01*
X331412500Y-202575000D02*
X331412500Y-183525000D01*
D11*
%TO.C,JP22*%
X444346600Y-102484000D02*
X447646600Y-102484000D01*
X447646600Y-104984000D02*
X444346600Y-104984000D01*
X447646600Y-104984000D02*
X447646600Y-102484000D01*
X444346600Y-102484000D02*
X444346600Y-104984000D01*
D12*
%TO.C,SW123*%
X293312500Y-221625000D02*
X274262500Y-221625000D01*
X274262500Y-221625000D02*
X274262500Y-240675000D01*
X274262500Y-240675000D02*
X293312500Y-240675000D01*
X293312500Y-240675000D02*
X293312500Y-221625000D01*
%TO.C,SW62*%
X345700000Y-164475000D02*
X326650000Y-164475000D01*
X326650000Y-164475000D02*
X326650000Y-183525000D01*
X326650000Y-183525000D02*
X345700000Y-183525000D01*
X345700000Y-183525000D02*
X345700000Y-164475000D01*
%TO.C,SW100*%
X188537500Y-202575000D02*
X169487500Y-202575000D01*
X169487500Y-202575000D02*
X169487500Y-221625000D01*
X169487500Y-221625000D02*
X188537500Y-221625000D01*
X188537500Y-221625000D02*
X188537500Y-202575000D01*
%TO.C,SW22*%
X488575000Y-126375000D02*
X469525000Y-126375000D01*
X469525000Y-126375000D02*
X469525000Y-145425000D01*
X469525000Y-145425000D02*
X488575000Y-145425000D01*
X488575000Y-145425000D02*
X488575000Y-126375000D01*
%TO.C,SW116*%
X507625000Y-202575000D02*
X488575000Y-202575000D01*
X488575000Y-202575000D02*
X488575000Y-221625000D01*
X488575000Y-221625000D02*
X507625000Y-221625000D01*
X507625000Y-221625000D02*
X507625000Y-202575000D01*
%TO.C,SW32*%
X221875000Y-145425000D02*
X202825000Y-145425000D01*
X202825000Y-145425000D02*
X202825000Y-164475000D01*
X202825000Y-164475000D02*
X221875000Y-164475000D01*
X221875000Y-164475000D02*
X221875000Y-145425000D01*
%TO.C,SW51*%
X126625000Y-164475000D02*
X107575000Y-164475000D01*
X107575000Y-164475000D02*
X107575000Y-183525000D01*
X107575000Y-183525000D02*
X126625000Y-183525000D01*
X126625000Y-183525000D02*
X126625000Y-164475000D01*
D11*
%TO.C,JP20*%
X444346600Y-109509000D02*
X447646600Y-109509000D01*
X447646600Y-112009000D02*
X447646600Y-109509000D01*
X444346600Y-109509000D02*
X444346600Y-112009000D01*
X447646600Y-112009000D02*
X444346600Y-112009000D01*
D12*
%TO.C,SW24*%
X526675000Y-126375000D02*
X507625000Y-126375000D01*
X507625000Y-126375000D02*
X507625000Y-145425000D01*
X507625000Y-145425000D02*
X526675000Y-145425000D01*
X526675000Y-145425000D02*
X526675000Y-126375000D01*
%TO.C,SW14*%
X336175034Y-126375008D02*
X317125034Y-126375008D01*
X317125034Y-126375008D02*
X317125034Y-145425008D01*
X317125034Y-145425008D02*
X336175034Y-145425008D01*
X336175034Y-145425008D02*
X336175034Y-126375008D01*
%TO.C,SW40*%
X374275000Y-145425000D02*
X355225000Y-145425000D01*
X355225000Y-145425000D02*
X355225000Y-164475000D01*
X355225000Y-164475000D02*
X374275000Y-164475000D01*
X374275000Y-164475000D02*
X374275000Y-145425000D01*
%TO.C,SW64*%
X383800000Y-164475000D02*
X364750000Y-164475000D01*
X364750000Y-164475000D02*
X364750000Y-183525000D01*
X364750000Y-183525000D02*
X383800000Y-183525000D01*
X383800000Y-183525000D02*
X383800000Y-164475000D01*
%TO.C,SW95*%
X88525000Y-202575000D02*
X69475000Y-202575000D01*
X69475000Y-202575000D02*
X69475000Y-221625000D01*
X69475000Y-221625000D02*
X88525000Y-221625000D01*
X88525000Y-221625000D02*
X88525000Y-202575000D01*
%TO.C,SW82*%
X293312500Y-183525000D02*
X274262500Y-183525000D01*
X274262500Y-183525000D02*
X274262500Y-202575000D01*
X274262500Y-202575000D02*
X293312500Y-202575000D01*
X293312500Y-202575000D02*
X293312500Y-183525000D01*
%TO.C,SW17*%
X393325000Y-126375000D02*
X374275000Y-126375000D01*
X374275000Y-126375000D02*
X374275000Y-145425000D01*
X374275000Y-145425000D02*
X393325000Y-145425000D01*
X393325000Y-145425000D02*
X393325000Y-126375000D01*
D11*
%TO.C,REF\u002A\u002A*%
X73550000Y-242100000D02*
G75*
G03*
X73550000Y-242100000I-2750000J0D01*
G01*
D12*
%TO.C,SW87*%
X388562500Y-183525000D02*
X369512500Y-183525000D01*
X369512500Y-183525000D02*
X369512500Y-202575000D01*
X369512500Y-202575000D02*
X388562500Y-202575000D01*
X388562500Y-202575000D02*
X388562500Y-183525000D01*
D11*
%TO.C,JP26*%
X83292000Y-93484600D02*
X83292000Y-96784600D01*
X80792000Y-96784600D02*
X80792000Y-93484600D01*
X83292000Y-93484600D02*
X80792000Y-93484600D01*
X80792000Y-96784600D02*
X83292000Y-96784600D01*
%TO.C,REF\u002A\u002A*%
X158650000Y-243900000D02*
G75*
G03*
X158650000Y-243900000I-2750000J0D01*
G01*
D12*
%TO.C,SW99*%
X169487500Y-202575000D02*
X150437500Y-202575000D01*
X150437500Y-202575000D02*
X150437500Y-221625000D01*
X150437500Y-221625000D02*
X169487500Y-221625000D01*
X169487500Y-221625000D02*
X169487500Y-202575000D01*
%TO.C,SW124*%
X379037500Y-221625000D02*
X359987500Y-221625000D01*
X359987500Y-221625000D02*
X359987500Y-240675000D01*
X359987500Y-240675000D02*
X379037500Y-240675000D01*
X379037500Y-240675000D02*
X379037500Y-221625000D01*
%TO.C,SW88*%
X407612500Y-183525000D02*
X388562500Y-183525000D01*
X388562500Y-183525000D02*
X388562500Y-202575000D01*
X388562500Y-202575000D02*
X407612500Y-202575000D01*
X407612500Y-202575000D02*
X407612500Y-183525000D01*
%TO.C,SW90*%
X445712500Y-183525000D02*
X426662500Y-183525000D01*
X426662500Y-183525000D02*
X426662500Y-202575000D01*
X426662500Y-202575000D02*
X445712500Y-202575000D01*
X445712500Y-202575000D02*
X445712500Y-183525000D01*
D11*
%TO.C,REF\u002A\u002A*%
X428450000Y-135650000D02*
G75*
G03*
X428450000Y-135650000I-2750000J0D01*
G01*
X311250000Y-243900000D02*
G75*
G03*
X311250000Y-243900000I-2750000J0D01*
G01*
X520850000Y-243400000D02*
G75*
G03*
X520850000Y-243400000I-2750000J0D01*
G01*
D12*
%TO.C,SW107*%
X321887500Y-202575000D02*
X302837500Y-202575000D01*
X302837500Y-202575000D02*
X302837500Y-221625000D01*
X302837500Y-221625000D02*
X321887500Y-221625000D01*
X321887500Y-221625000D02*
X321887500Y-202575000D01*
%TO.C,SW101*%
X207587500Y-202575000D02*
X188537500Y-202575000D01*
X188537500Y-202575000D02*
X188537500Y-221625000D01*
X188537500Y-221625000D02*
X207587500Y-221625000D01*
X207587500Y-221625000D02*
X207587500Y-202575000D01*
%TO.C,SW46*%
X488575000Y-145425000D02*
X469525000Y-145425000D01*
X469525000Y-145425000D02*
X469525000Y-164475000D01*
X469525000Y-164475000D02*
X488575000Y-164475000D01*
X488575000Y-164475000D02*
X488575000Y-145425000D01*
%TO.C,SW109*%
X359987500Y-202575000D02*
X340937500Y-202575000D01*
X340937500Y-202575000D02*
X340937500Y-221625000D01*
X340937500Y-221625000D02*
X359987500Y-221625000D01*
X359987500Y-221625000D02*
X359987500Y-202575000D01*
%TO.C,SW66*%
X421900000Y-164475000D02*
X402850000Y-164475000D01*
X402850000Y-164475000D02*
X402850000Y-183525000D01*
X402850000Y-183525000D02*
X421900000Y-183525000D01*
X421900000Y-183525000D02*
X421900000Y-164475000D01*
%TO.C,SW79*%
X236162500Y-183525000D02*
X217112500Y-183525000D01*
X217112500Y-183525000D02*
X217112500Y-202575000D01*
X217112500Y-202575000D02*
X236162500Y-202575000D01*
X236162500Y-202575000D02*
X236162500Y-183525000D01*
%TO.C,SW102*%
X226637500Y-202575000D02*
X207587500Y-202575000D01*
X207587500Y-202575000D02*
X207587500Y-221625000D01*
X207587500Y-221625000D02*
X226637500Y-221625000D01*
X226637500Y-221625000D02*
X226637500Y-202575000D01*
%TO.C,SW85*%
X350462500Y-183525000D02*
X331412500Y-183525000D01*
X331412500Y-183525000D02*
X331412500Y-202575000D01*
X331412500Y-202575000D02*
X350462500Y-202575000D01*
X350462500Y-202575000D02*
X350462500Y-183525000D01*
%TO.C,SW121*%
X145675000Y-221625000D02*
X126625000Y-221625000D01*
X126625000Y-221625000D02*
X126625000Y-240675000D01*
X126625000Y-240675000D02*
X145675000Y-240675000D01*
X145675000Y-240675000D02*
X145675000Y-221625000D01*
%TO.C,SW52*%
X145675000Y-164475000D02*
X126625000Y-164475000D01*
X126625000Y-164475000D02*
X126625000Y-183525000D01*
X126625000Y-183525000D02*
X145675000Y-183525000D01*
X145675000Y-183525000D02*
X145675000Y-164475000D01*
%TO.C,SW23*%
X507625000Y-126375000D02*
X488575000Y-126375000D01*
X488575000Y-126375000D02*
X488575000Y-145425000D01*
X488575000Y-145425000D02*
X507625000Y-145425000D01*
X507625000Y-145425000D02*
X507625000Y-126375000D01*
%TO.C,SW21*%
X469525000Y-126375000D02*
X450475000Y-126375000D01*
X450475000Y-126375000D02*
X450475000Y-145425000D01*
X450475000Y-145425000D02*
X469525000Y-145425000D01*
X469525000Y-145425000D02*
X469525000Y-126375000D01*
D11*
%TO.C,REF\u002A\u002A*%
X528800000Y-242100000D02*
G75*
G03*
X528800000Y-242100000I-2750000J0D01*
G01*
D12*
%TO.C,SW68*%
X469525000Y-164475000D02*
X450475000Y-164475000D01*
X450475000Y-164475000D02*
X450475000Y-183525000D01*
X450475000Y-183525000D02*
X469525000Y-183525000D01*
X469525000Y-183525000D02*
X469525000Y-164475000D01*
D11*
%TO.C,REF\u002A\u002A*%
X405000000Y-193250000D02*
G75*
G03*
X405000000Y-193250000I-2750000J0D01*
G01*
%TO.C,J3_1*%
X322973000Y-99463000D02*
X322973000Y-95863000D01*
X311773000Y-99463000D02*
X322973000Y-99463000D01*
X322973000Y-95863000D02*
X311773000Y-95863000D01*
X311773000Y-95863000D02*
X311773000Y-99463000D01*
D12*
%TO.C,SW12*%
X298075000Y-126375000D02*
X279025000Y-126375000D01*
X279025000Y-126375000D02*
X279025000Y-145425000D01*
X279025000Y-145425000D02*
X298075000Y-145425000D01*
X298075000Y-145425000D02*
X298075000Y-126375000D01*
%TO.C,SW96*%
X107575000Y-202575000D02*
X88525000Y-202575000D01*
X88525000Y-202575000D02*
X88525000Y-221625000D01*
X88525000Y-221625000D02*
X107575000Y-221625000D01*
X107575000Y-221625000D02*
X107575000Y-202575000D01*
D11*
%TO.C,REF\u002A\u002A*%
X235125000Y-122250000D02*
G75*
G03*
X235125000Y-122250000I-2750000J0D01*
G01*
D12*
%TO.C,SW34*%
X259975000Y-145425000D02*
X240925000Y-145425000D01*
X240925000Y-145425000D02*
X240925000Y-164475000D01*
X240925000Y-164475000D02*
X259975000Y-164475000D01*
X259975000Y-164475000D02*
X259975000Y-145425000D01*
%TO.C,SW42*%
X412375000Y-145425000D02*
X393325000Y-145425000D01*
X393325000Y-145425000D02*
X393325000Y-164475000D01*
X393325000Y-164475000D02*
X412375000Y-164475000D01*
X412375000Y-164475000D02*
X412375000Y-145425000D01*
%TO.C,SW80*%
X255212500Y-183525000D02*
X236162500Y-183525000D01*
X236162500Y-183525000D02*
X236162500Y-202575000D01*
X236162500Y-202575000D02*
X255212500Y-202575000D01*
X255212500Y-202575000D02*
X255212500Y-183525000D01*
D11*
%TO.C,JP28*%
X99446400Y-95987600D02*
X99446400Y-99287600D01*
X96946400Y-99287600D02*
X99446400Y-99287600D01*
X96946400Y-99287600D02*
X96946400Y-95987600D01*
X99446400Y-95987600D02*
X96946400Y-95987600D01*
D12*
%TO.C,SW6*%
X183775000Y-126375000D02*
X164725000Y-126375000D01*
X164725000Y-126375000D02*
X164725000Y-145425000D01*
X164725000Y-145425000D02*
X183775000Y-145425000D01*
X183775000Y-145425000D02*
X183775000Y-126375000D01*
%TO.C,SW118*%
X88525000Y-221625000D02*
X69475000Y-221625000D01*
X69475000Y-221625000D02*
X69475000Y-240675000D01*
X69475000Y-240675000D02*
X88525000Y-240675000D01*
X88525000Y-240675000D02*
X88525000Y-221625000D01*
%TO.C,SW74*%
X126625000Y-183525000D02*
X107575000Y-183525000D01*
X107575000Y-183525000D02*
X107575000Y-202575000D01*
X107575000Y-202575000D02*
X126625000Y-202575000D01*
X126625000Y-202575000D02*
X126625000Y-183525000D01*
%TO.C,SW4*%
X145675000Y-126375000D02*
X126625000Y-126375000D01*
X126625000Y-126375000D02*
X126625000Y-145425000D01*
X126625000Y-145425000D02*
X145675000Y-145425000D01*
X145675000Y-145425000D02*
X145675000Y-126375000D01*
%TO.C,SW45*%
X469525000Y-145425000D02*
X450475000Y-145425000D01*
X450475000Y-145425000D02*
X450475000Y-164475000D01*
X450475000Y-164475000D02*
X469525000Y-164475000D01*
X469525000Y-164475000D02*
X469525000Y-145425000D01*
%TO.C,SW43*%
X431425000Y-145425000D02*
X412375000Y-145425000D01*
X412375000Y-145425000D02*
X412375000Y-164475000D01*
X412375000Y-164475000D02*
X431425000Y-164475000D01*
X431425000Y-164475000D02*
X431425000Y-145425000D01*
D11*
%TO.C,REF\u002A\u002A*%
X323400000Y-174200000D02*
G75*
G03*
X323400000Y-174200000I-2750000J0D01*
G01*
X234950000Y-243900000D02*
G75*
G03*
X234950000Y-243900000I-2750000J0D01*
G01*
X387550000Y-243900000D02*
G75*
G03*
X387550000Y-243900000I-2750000J0D01*
G01*
%TO.C,JP21*%
X447646600Y-108425000D02*
X447646600Y-105925000D01*
X444346600Y-105925000D02*
X447646600Y-105925000D01*
X444346600Y-105925000D02*
X444346600Y-108425000D01*
X447646600Y-108425000D02*
X444346600Y-108425000D01*
D12*
%TO.C,SW103*%
X245687500Y-202575000D02*
X226637500Y-202575000D01*
X226637500Y-202575000D02*
X226637500Y-221625000D01*
X226637500Y-221625000D02*
X245687500Y-221625000D01*
X245687500Y-221625000D02*
X245687500Y-202575000D01*
%TO.C,SW20*%
X450475000Y-126375000D02*
X431425000Y-126375000D01*
X431425000Y-126375000D02*
X431425000Y-145425000D01*
X431425000Y-145425000D02*
X450475000Y-145425000D01*
X450475000Y-145425000D02*
X450475000Y-126375000D01*
D11*
%TO.C,REF\u002A\u002A*%
X158362500Y-123300000D02*
G75*
G03*
X158362500Y-123300000I-2750000J0D01*
G01*
X399950000Y-174200000D02*
G75*
G03*
X399950000Y-174200000I-2750000J0D01*
G01*
D12*
%TO.C,SW13*%
X317125000Y-126375000D02*
X298075000Y-126375000D01*
X298075000Y-126375000D02*
X298075000Y-145425000D01*
X298075000Y-145425000D02*
X317125000Y-145425000D01*
X317125000Y-145425000D02*
X317125000Y-126375000D01*
%TO.C,SW30*%
X183775000Y-145425000D02*
X164725000Y-145425000D01*
X164725000Y-145425000D02*
X164725000Y-164475000D01*
X164725000Y-164475000D02*
X183775000Y-164475000D01*
X183775000Y-164475000D02*
X183775000Y-145425000D01*
%TO.C,SW58*%
X269500000Y-164475000D02*
X250450000Y-164475000D01*
X250450000Y-164475000D02*
X250450000Y-183525000D01*
X250450000Y-183525000D02*
X269500000Y-183525000D01*
X269500000Y-183525000D02*
X269500000Y-164475000D01*
D11*
%TO.C,REF\u002A\u002A*%
X126150000Y-174200000D02*
G75*
G03*
X126150000Y-174200000I-2750000J0D01*
G01*
D12*
%TO.C,SW78*%
X217112500Y-183525000D02*
X198062500Y-183525000D01*
X198062500Y-183525000D02*
X198062500Y-202575000D01*
X198062500Y-202575000D02*
X217112500Y-202575000D01*
X217112500Y-202575000D02*
X217112500Y-183525000D01*
%TO.C,SW123a0*%
X359987500Y-221625000D02*
X340937500Y-221625000D01*
X340937500Y-221625000D02*
X340937500Y-240675000D01*
X340937500Y-240675000D02*
X359987500Y-240675000D01*
X359987500Y-240675000D02*
X359987500Y-221625000D01*
%TO.C,SW125*%
X469525000Y-221625000D02*
X450475000Y-221625000D01*
X450475000Y-221625000D02*
X450475000Y-240675000D01*
X450475000Y-240675000D02*
X469525000Y-240675000D01*
X469525000Y-240675000D02*
X469525000Y-221625000D01*
%TO.C,SW37*%
X317125000Y-145425000D02*
X298075000Y-145425000D01*
X298075000Y-145425000D02*
X298075000Y-164475000D01*
X298075000Y-164475000D02*
X317125000Y-164475000D01*
X317125000Y-164475000D02*
X317125000Y-145425000D01*
%TO.C,SW122a0*%
X207587500Y-221625000D02*
X188537500Y-221625000D01*
X188537500Y-221625000D02*
X188537500Y-240675000D01*
X188537500Y-240675000D02*
X207587500Y-240675000D01*
X207587500Y-240675000D02*
X207587500Y-221625000D01*
D11*
%TO.C,REF\u002A\u002A*%
X175750000Y-193500000D02*
G75*
G03*
X175750000Y-193500000I-2750000J0D01*
G01*
D12*
%TO.C,SW81*%
X274262500Y-183525000D02*
X255212500Y-183525000D01*
X255212500Y-183525000D02*
X255212500Y-202575000D01*
X255212500Y-202575000D02*
X274262500Y-202575000D01*
X274262500Y-202575000D02*
X274262500Y-183525000D01*
%TO.C,SW39*%
X355225000Y-145425000D02*
X336175000Y-145425000D01*
X336175000Y-145425000D02*
X336175000Y-164475000D01*
X336175000Y-164475000D02*
X355225000Y-164475000D01*
X355225000Y-164475000D02*
X355225000Y-145425000D01*
%TO.C,SW72*%
X88525000Y-183525000D02*
X69475000Y-183525000D01*
X69475000Y-183525000D02*
X69475000Y-202575000D01*
X69475000Y-202575000D02*
X88525000Y-202575000D01*
X88525000Y-202575000D02*
X88525000Y-183525000D01*
D11*
%TO.C,JP31*%
X123972000Y-99287600D02*
X126472000Y-99287600D01*
X123972000Y-99287600D02*
X123972000Y-95987600D01*
X126472000Y-95987600D02*
X126472000Y-99287600D01*
X126472000Y-95987600D02*
X123972000Y-95987600D01*
D12*
%TO.C,SW3*%
X126625000Y-126375000D02*
X107575000Y-126375000D01*
X107575000Y-126375000D02*
X107575000Y-145425000D01*
X107575000Y-145425000D02*
X126625000Y-145425000D01*
X126625000Y-145425000D02*
X126625000Y-126375000D01*
%TO.C,SW27*%
X126625000Y-145425000D02*
X107575000Y-145425000D01*
X107575000Y-145425000D02*
X107575000Y-164475000D01*
X107575000Y-164475000D02*
X126625000Y-164475000D01*
X126625000Y-164475000D02*
X126625000Y-145425000D01*
%TO.C,SW94*%
X526675000Y-183525000D02*
X507625000Y-183525000D01*
X507625000Y-183525000D02*
X507625000Y-202575000D01*
X507625000Y-202575000D02*
X526675000Y-202575000D01*
X526675000Y-202575000D02*
X526675000Y-183525000D01*
%TO.C,SW117*%
X526675000Y-202575000D02*
X507625000Y-202575000D01*
X507625000Y-202575000D02*
X507625000Y-221625000D01*
X507625000Y-221625000D02*
X526675000Y-221625000D01*
X526675000Y-221625000D02*
X526675000Y-202575000D01*
%TO.C,SW26*%
X107575000Y-145425000D02*
X88525000Y-145425000D01*
X88525000Y-145425000D02*
X88525000Y-164475000D01*
X88525000Y-164475000D02*
X107575000Y-164475000D01*
X107575000Y-164475000D02*
X107575000Y-145425000D01*
%TO.C,SW18*%
X412375000Y-126375000D02*
X393325000Y-126375000D01*
X393325000Y-126375000D02*
X393325000Y-145425000D01*
X393325000Y-145425000D02*
X412375000Y-145425000D01*
X412375000Y-145425000D02*
X412375000Y-126375000D01*
D11*
%TO.C,JP27*%
X93898400Y-99287600D02*
X93898400Y-95987600D01*
X93898400Y-99287600D02*
X96398400Y-99287600D01*
X96398400Y-95987600D02*
X96398400Y-99287600D01*
X96398400Y-95987600D02*
X93898400Y-95987600D01*
D12*
%TO.C,SW53*%
X174250000Y-164475000D02*
X155200000Y-164475000D01*
X155200000Y-164475000D02*
X155200000Y-183525000D01*
X155200000Y-183525000D02*
X174250000Y-183525000D01*
X174250000Y-183525000D02*
X174250000Y-164475000D01*
%TO.C,SW124a0*%
X398087500Y-221625000D02*
X379037500Y-221625000D01*
X379037500Y-221625000D02*
X379037500Y-240675000D01*
X379037500Y-240675000D02*
X398087500Y-240675000D01*
X398087500Y-240675000D02*
X398087500Y-221625000D01*
D11*
%TO.C,REF\u002A\u002A*%
X395250000Y-212000000D02*
G75*
G03*
X395250000Y-212000000I-2750000J0D01*
G01*
D12*
%TO.C,SW60*%
X307600000Y-164475000D02*
X288550000Y-164475000D01*
X288550000Y-164475000D02*
X288550000Y-183525000D01*
X288550000Y-183525000D02*
X307600000Y-183525000D01*
X307600000Y-183525000D02*
X307600000Y-164475000D01*
%TO.C,SW29*%
X164725000Y-145425000D02*
X145675000Y-145425000D01*
X145675000Y-145425000D02*
X145675000Y-164475000D01*
X145675000Y-164475000D02*
X164725000Y-164475000D01*
X164725000Y-164475000D02*
X164725000Y-145425000D01*
%TO.C,SW126*%
X488575000Y-221625000D02*
X469525000Y-221625000D01*
X469525000Y-221625000D02*
X469525000Y-240675000D01*
X469525000Y-240675000D02*
X488575000Y-240675000D01*
X488575000Y-240675000D02*
X488575000Y-221625000D01*
%TO.C,SW71*%
X526675000Y-164475000D02*
X507625000Y-164475000D01*
X507625000Y-164475000D02*
X507625000Y-183525000D01*
X507625000Y-183525000D02*
X526675000Y-183525000D01*
X526675000Y-183525000D02*
X526675000Y-164475000D01*
%TO.C,SW111*%
X398087500Y-202575000D02*
X379037500Y-202575000D01*
X379037500Y-202575000D02*
X379037500Y-221625000D01*
X379037500Y-221625000D02*
X398087500Y-221625000D01*
X398087500Y-221625000D02*
X398087500Y-202575000D01*
%TO.C,SW9*%
X240925000Y-126375000D02*
X221875000Y-126375000D01*
X221875000Y-126375000D02*
X221875000Y-145425000D01*
X221875000Y-145425000D02*
X240925000Y-145425000D01*
X240925000Y-145425000D02*
X240925000Y-126375000D01*
%TO.C,SW2*%
X107575000Y-126375000D02*
X88525000Y-126375000D01*
X88525000Y-126375000D02*
X88525000Y-145425000D01*
X88525000Y-145425000D02*
X107575000Y-145425000D01*
X107575000Y-145425000D02*
X107575000Y-126375000D01*
%TO.C,SW77*%
X198062500Y-183525000D02*
X179012500Y-183525000D01*
X179012500Y-183525000D02*
X179012500Y-202575000D01*
X179012500Y-202575000D02*
X198062500Y-202575000D01*
X198062500Y-202575000D02*
X198062500Y-183525000D01*
%TO.C,SW36*%
X298075000Y-145425000D02*
X279025000Y-145425000D01*
X279025000Y-145425000D02*
X279025000Y-164475000D01*
X279025000Y-164475000D02*
X298075000Y-164475000D01*
X298075000Y-164475000D02*
X298075000Y-145425000D01*
%TO.C,SW75*%
X145675000Y-183525000D02*
X126625000Y-183525000D01*
X126625000Y-183525000D02*
X126625000Y-202575000D01*
X126625000Y-202575000D02*
X145675000Y-202575000D01*
X145675000Y-202575000D02*
X145675000Y-183525000D01*
D11*
%TO.C,REF\u002A\u002A*%
X185500000Y-232000000D02*
G75*
G03*
X185500000Y-232000000I-2750000J0D01*
G01*
X463850000Y-243900000D02*
G75*
G03*
X463850000Y-243900000I-2750000J0D01*
G01*
X428450000Y-155400000D02*
G75*
G03*
X428450000Y-155400000I-2750000J0D01*
G01*
D12*
%TO.C,SW47*%
X507625000Y-145425000D02*
X488575000Y-145425000D01*
X488575000Y-145425000D02*
X488575000Y-164475000D01*
X488575000Y-164475000D02*
X507625000Y-164475000D01*
X507625000Y-164475000D02*
X507625000Y-145425000D01*
%TO.C,SW25*%
X88525000Y-145425000D02*
X69475000Y-145425000D01*
X69475000Y-145425000D02*
X69475000Y-164475000D01*
X69475000Y-164475000D02*
X88525000Y-164475000D01*
X88525000Y-164475000D02*
X88525000Y-145425000D01*
D11*
%TO.C,JP23*%
X477725000Y-125875000D02*
X477725000Y-123375000D01*
X474425000Y-123375000D02*
X477725000Y-123375000D01*
X477725000Y-125875000D02*
X474425000Y-125875000D01*
X474425000Y-123375000D02*
X474425000Y-125875000D01*
%TO.C,JP25*%
X74492800Y-96784600D02*
X74492800Y-93484600D01*
X76992800Y-93484600D02*
X76992800Y-96784600D01*
X74492800Y-96784600D02*
X76992800Y-96784600D01*
X76992800Y-93484600D02*
X74492800Y-93484600D01*
D12*
%TO.C,SW38*%
X336175000Y-145425000D02*
X317125000Y-145425000D01*
X317125000Y-145425000D02*
X317125000Y-164475000D01*
X317125000Y-164475000D02*
X336175000Y-164475000D01*
X336175000Y-164475000D02*
X336175000Y-145425000D01*
D11*
%TO.C,JP32*%
X135920800Y-95987600D02*
X133420800Y-95987600D01*
X135920800Y-95987600D02*
X135920800Y-99287600D01*
X133420800Y-99287600D02*
X133420800Y-95987600D01*
X133420800Y-99287600D02*
X135920800Y-99287600D01*
%TO.C,JP18*%
X349175000Y-109700000D02*
X346675000Y-109700000D01*
X349175000Y-109700000D02*
X349175000Y-113000000D01*
X346675000Y-113000000D02*
X346675000Y-109700000D01*
X346675000Y-113000000D02*
X349175000Y-113000000D01*
%TO.C,REF\u002A\u002A*%
X395250000Y-231750000D02*
G75*
G03*
X395250000Y-231750000I-2750000J0D01*
G01*
D12*
%TO.C,SW108*%
X340937500Y-202575000D02*
X321887500Y-202575000D01*
X321887500Y-202575000D02*
X321887500Y-221625000D01*
X321887500Y-221625000D02*
X340937500Y-221625000D01*
X340937500Y-221625000D02*
X340937500Y-202575000D01*
%TO.C,SW65*%
X402850000Y-164475000D02*
X383800000Y-164475000D01*
X383800000Y-164475000D02*
X383800000Y-183525000D01*
X383800000Y-183525000D02*
X402850000Y-183525000D01*
X402850000Y-183525000D02*
X402850000Y-164475000D01*
%TO.C,SW41*%
X393325000Y-145425000D02*
X374275000Y-145425000D01*
X374275000Y-145425000D02*
X374275000Y-164475000D01*
X374275000Y-164475000D02*
X393325000Y-164475000D01*
X393325000Y-164475000D02*
X393325000Y-145425000D01*
D11*
%TO.C,REF\u002A\u002A*%
X247150000Y-174200000D02*
G75*
G03*
X247150000Y-174200000I-2750000J0D01*
G01*
D12*
%TO.C,SW114*%
X469525000Y-202575000D02*
X450475000Y-202575000D01*
X450475000Y-202575000D02*
X450475000Y-221625000D01*
X450475000Y-221625000D02*
X469525000Y-221625000D01*
X469525000Y-221625000D02*
X469525000Y-202575000D01*
D11*
%TO.C,REF\u002A\u002A*%
X310987500Y-123300000D02*
G75*
G03*
X310987500Y-123300000I-2750000J0D01*
G01*
D12*
%TO.C,SW106*%
X302837500Y-202575000D02*
X283787500Y-202575000D01*
X283787500Y-202575000D02*
X283787500Y-221625000D01*
X283787500Y-221625000D02*
X302837500Y-221625000D01*
X302837500Y-221625000D02*
X302837500Y-202575000D01*
D11*
%TO.C,JP24*%
X474425000Y-120000000D02*
X474425000Y-122500000D01*
X477725000Y-122500000D02*
X474425000Y-122500000D01*
X477725000Y-122500000D02*
X477725000Y-120000000D01*
X474425000Y-120000000D02*
X477725000Y-120000000D01*
D12*
%TO.C,SW11*%
X279025000Y-126375000D02*
X259975000Y-126375000D01*
X259975000Y-126375000D02*
X259975000Y-145425000D01*
X259975000Y-145425000D02*
X279025000Y-145425000D01*
X279025000Y-145425000D02*
X279025000Y-126375000D01*
%TO.C,SW63*%
X364750000Y-164475000D02*
X345700000Y-164475000D01*
X345700000Y-164475000D02*
X345700000Y-183525000D01*
X345700000Y-183525000D02*
X364750000Y-183525000D01*
X364750000Y-183525000D02*
X364750000Y-164475000D01*
%TO.C,SW35*%
X279025000Y-145425000D02*
X259975000Y-145425000D01*
X259975000Y-145425000D02*
X259975000Y-164475000D01*
X259975000Y-164475000D02*
X279025000Y-164475000D01*
X279025000Y-164475000D02*
X279025000Y-145425000D01*
%TD*%
M02*
