%TF.GenerationSoftware,KiCad,Pcbnew,(6.0.5-0)*%
%TF.CreationDate,2022-06-24T21:01:45-04:00*%
%TF.ProjectId,SpaceCadet-rounded,53706163-6543-4616-9465-742d726f756e,rev?*%
%TF.SameCoordinates,Original*%
%TF.FileFunction,Legend,Bot*%
%TF.FilePolarity,Positive*%
%FSLAX46Y46*%
G04 Gerber Fmt 4.6, Leading zero omitted, Abs format (unit mm)*
G04 Created by KiCad (PCBNEW (6.0.5-0)) date 2022-06-24 21:01:45*
%MOMM*%
%LPD*%
G01*
G04 APERTURE LIST*
%TA.AperFunction,Profile*%
%ADD10C,0.100000*%
%TD*%
%ADD11C,0.150000*%
G04 APERTURE END LIST*
D10*
X64250000Y-81300000D02*
X533250000Y-81300000D01*
X533250000Y-81300000D02*
X533250000Y-247900000D01*
X533250000Y-247900000D02*
X64250000Y-247900000D01*
X64250000Y-247900000D02*
X64250000Y-81300000D01*
D11*
%TO.C,SW91*%
X461809523Y-200254761D02*
X461666666Y-200302380D01*
X461428571Y-200302380D01*
X461333333Y-200254761D01*
X461285714Y-200207142D01*
X461238095Y-200111904D01*
X461238095Y-200016666D01*
X461285714Y-199921428D01*
X461333333Y-199873809D01*
X461428571Y-199826190D01*
X461619047Y-199778571D01*
X461714285Y-199730952D01*
X461761904Y-199683333D01*
X461809523Y-199588095D01*
X461809523Y-199492857D01*
X461761904Y-199397619D01*
X461714285Y-199350000D01*
X461619047Y-199302380D01*
X461380952Y-199302380D01*
X461238095Y-199350000D01*
X460904761Y-199302380D02*
X460666666Y-200302380D01*
X460476190Y-199588095D01*
X460285714Y-200302380D01*
X460047619Y-199302380D01*
X459619047Y-200302380D02*
X459428571Y-200302380D01*
X459333333Y-200254761D01*
X459285714Y-200207142D01*
X459190476Y-200064285D01*
X459142857Y-199873809D01*
X459142857Y-199492857D01*
X459190476Y-199397619D01*
X459238095Y-199350000D01*
X459333333Y-199302380D01*
X459523809Y-199302380D01*
X459619047Y-199350000D01*
X459666666Y-199397619D01*
X459714285Y-199492857D01*
X459714285Y-199730952D01*
X459666666Y-199826190D01*
X459619047Y-199873809D01*
X459523809Y-199921428D01*
X459333333Y-199921428D01*
X459238095Y-199873809D01*
X459190476Y-199826190D01*
X459142857Y-199730952D01*
X458190476Y-200302380D02*
X458761904Y-200302380D01*
X458476190Y-200302380D02*
X458476190Y-199302380D01*
X458571428Y-199445238D01*
X458666666Y-199540476D01*
X458761904Y-199588095D01*
%TO.C,SW73*%
X99859523Y-200254761D02*
X99716666Y-200302380D01*
X99478571Y-200302380D01*
X99383333Y-200254761D01*
X99335714Y-200207142D01*
X99288095Y-200111904D01*
X99288095Y-200016666D01*
X99335714Y-199921428D01*
X99383333Y-199873809D01*
X99478571Y-199826190D01*
X99669047Y-199778571D01*
X99764285Y-199730952D01*
X99811904Y-199683333D01*
X99859523Y-199588095D01*
X99859523Y-199492857D01*
X99811904Y-199397619D01*
X99764285Y-199350000D01*
X99669047Y-199302380D01*
X99430952Y-199302380D01*
X99288095Y-199350000D01*
X98954761Y-199302380D02*
X98716666Y-200302380D01*
X98526190Y-199588095D01*
X98335714Y-200302380D01*
X98097619Y-199302380D01*
X97811904Y-199302380D02*
X97145238Y-199302380D01*
X97573809Y-200302380D01*
X96859523Y-199302380D02*
X96240476Y-199302380D01*
X96573809Y-199683333D01*
X96430952Y-199683333D01*
X96335714Y-199730952D01*
X96288095Y-199778571D01*
X96240476Y-199873809D01*
X96240476Y-200111904D01*
X96288095Y-200207142D01*
X96335714Y-200254761D01*
X96430952Y-200302380D01*
X96716666Y-200302380D01*
X96811904Y-200254761D01*
X96859523Y-200207142D01*
%TO.C,SW104*%
X257498214Y-219304761D02*
X257355357Y-219352380D01*
X257117261Y-219352380D01*
X257022023Y-219304761D01*
X256974404Y-219257142D01*
X256926785Y-219161904D01*
X256926785Y-219066666D01*
X256974404Y-218971428D01*
X257022023Y-218923809D01*
X257117261Y-218876190D01*
X257307738Y-218828571D01*
X257402976Y-218780952D01*
X257450595Y-218733333D01*
X257498214Y-218638095D01*
X257498214Y-218542857D01*
X257450595Y-218447619D01*
X257402976Y-218400000D01*
X257307738Y-218352380D01*
X257069642Y-218352380D01*
X256926785Y-218400000D01*
X256593452Y-218352380D02*
X256355357Y-219352380D01*
X256164880Y-218638095D01*
X255974404Y-219352380D01*
X255736309Y-218352380D01*
X254831547Y-219352380D02*
X255402976Y-219352380D01*
X255117261Y-219352380D02*
X255117261Y-218352380D01*
X255212500Y-218495238D01*
X255307738Y-218590476D01*
X255402976Y-218638095D01*
X254212500Y-218352380D02*
X254117261Y-218352380D01*
X254022023Y-218400000D01*
X253974404Y-218447619D01*
X253926785Y-218542857D01*
X253879166Y-218733333D01*
X253879166Y-218971428D01*
X253926785Y-219161904D01*
X253974404Y-219257142D01*
X254022023Y-219304761D01*
X254117261Y-219352380D01*
X254212500Y-219352380D01*
X254307738Y-219304761D01*
X254355357Y-219257142D01*
X254402976Y-219161904D01*
X254450595Y-218971428D01*
X254450595Y-218733333D01*
X254402976Y-218542857D01*
X254355357Y-218447619D01*
X254307738Y-218400000D01*
X254212500Y-218352380D01*
X253022023Y-218685714D02*
X253022023Y-219352380D01*
X253260119Y-218304761D02*
X253498214Y-219019047D01*
X252879166Y-219019047D01*
%TO.C,SW31*%
X195109523Y-162154761D02*
X194966666Y-162202380D01*
X194728571Y-162202380D01*
X194633333Y-162154761D01*
X194585714Y-162107142D01*
X194538095Y-162011904D01*
X194538095Y-161916666D01*
X194585714Y-161821428D01*
X194633333Y-161773809D01*
X194728571Y-161726190D01*
X194919047Y-161678571D01*
X195014285Y-161630952D01*
X195061904Y-161583333D01*
X195109523Y-161488095D01*
X195109523Y-161392857D01*
X195061904Y-161297619D01*
X195014285Y-161250000D01*
X194919047Y-161202380D01*
X194680952Y-161202380D01*
X194538095Y-161250000D01*
X194204761Y-161202380D02*
X193966666Y-162202380D01*
X193776190Y-161488095D01*
X193585714Y-162202380D01*
X193347619Y-161202380D01*
X193061904Y-161202380D02*
X192442857Y-161202380D01*
X192776190Y-161583333D01*
X192633333Y-161583333D01*
X192538095Y-161630952D01*
X192490476Y-161678571D01*
X192442857Y-161773809D01*
X192442857Y-162011904D01*
X192490476Y-162107142D01*
X192538095Y-162154761D01*
X192633333Y-162202380D01*
X192919047Y-162202380D01*
X193014285Y-162154761D01*
X193061904Y-162107142D01*
X191490476Y-162202380D02*
X192061904Y-162202380D01*
X191776190Y-162202380D02*
X191776190Y-161202380D01*
X191871428Y-161345238D01*
X191966666Y-161440476D01*
X192061904Y-161488095D01*
%TO.C,SW7*%
X194633333Y-143104761D02*
X194490476Y-143152380D01*
X194252380Y-143152380D01*
X194157142Y-143104761D01*
X194109523Y-143057142D01*
X194061904Y-142961904D01*
X194061904Y-142866666D01*
X194109523Y-142771428D01*
X194157142Y-142723809D01*
X194252380Y-142676190D01*
X194442857Y-142628571D01*
X194538095Y-142580952D01*
X194585714Y-142533333D01*
X194633333Y-142438095D01*
X194633333Y-142342857D01*
X194585714Y-142247619D01*
X194538095Y-142200000D01*
X194442857Y-142152380D01*
X194204761Y-142152380D01*
X194061904Y-142200000D01*
X193728571Y-142152380D02*
X193490476Y-143152380D01*
X193300000Y-142438095D01*
X193109523Y-143152380D01*
X192871428Y-142152380D01*
X192585714Y-142152380D02*
X191919047Y-142152380D01*
X192347619Y-143152380D01*
%TO.C,SW112*%
X409898214Y-219304761D02*
X409755357Y-219352380D01*
X409517261Y-219352380D01*
X409422023Y-219304761D01*
X409374404Y-219257142D01*
X409326785Y-219161904D01*
X409326785Y-219066666D01*
X409374404Y-218971428D01*
X409422023Y-218923809D01*
X409517261Y-218876190D01*
X409707738Y-218828571D01*
X409802976Y-218780952D01*
X409850595Y-218733333D01*
X409898214Y-218638095D01*
X409898214Y-218542857D01*
X409850595Y-218447619D01*
X409802976Y-218400000D01*
X409707738Y-218352380D01*
X409469642Y-218352380D01*
X409326785Y-218400000D01*
X408993452Y-218352380D02*
X408755357Y-219352380D01*
X408564880Y-218638095D01*
X408374404Y-219352380D01*
X408136309Y-218352380D01*
X407231547Y-219352380D02*
X407802976Y-219352380D01*
X407517261Y-219352380D02*
X407517261Y-218352380D01*
X407612500Y-218495238D01*
X407707738Y-218590476D01*
X407802976Y-218638095D01*
X406279166Y-219352380D02*
X406850595Y-219352380D01*
X406564880Y-219352380D02*
X406564880Y-218352380D01*
X406660119Y-218495238D01*
X406755357Y-218590476D01*
X406850595Y-218638095D01*
X405898214Y-218447619D02*
X405850595Y-218400000D01*
X405755357Y-218352380D01*
X405517261Y-218352380D01*
X405422023Y-218400000D01*
X405374404Y-218447619D01*
X405326785Y-218542857D01*
X405326785Y-218638095D01*
X405374404Y-218780952D01*
X405945833Y-219352380D01*
X405326785Y-219352380D01*
%TO.C,SW113*%
X428948214Y-219304761D02*
X428805357Y-219352380D01*
X428567261Y-219352380D01*
X428472023Y-219304761D01*
X428424404Y-219257142D01*
X428376785Y-219161904D01*
X428376785Y-219066666D01*
X428424404Y-218971428D01*
X428472023Y-218923809D01*
X428567261Y-218876190D01*
X428757738Y-218828571D01*
X428852976Y-218780952D01*
X428900595Y-218733333D01*
X428948214Y-218638095D01*
X428948214Y-218542857D01*
X428900595Y-218447619D01*
X428852976Y-218400000D01*
X428757738Y-218352380D01*
X428519642Y-218352380D01*
X428376785Y-218400000D01*
X428043452Y-218352380D02*
X427805357Y-219352380D01*
X427614880Y-218638095D01*
X427424404Y-219352380D01*
X427186309Y-218352380D01*
X426281547Y-219352380D02*
X426852976Y-219352380D01*
X426567261Y-219352380D02*
X426567261Y-218352380D01*
X426662500Y-218495238D01*
X426757738Y-218590476D01*
X426852976Y-218638095D01*
X425329166Y-219352380D02*
X425900595Y-219352380D01*
X425614880Y-219352380D02*
X425614880Y-218352380D01*
X425710119Y-218495238D01*
X425805357Y-218590476D01*
X425900595Y-218638095D01*
X424995833Y-218352380D02*
X424376785Y-218352380D01*
X424710119Y-218733333D01*
X424567261Y-218733333D01*
X424472023Y-218780952D01*
X424424404Y-218828571D01*
X424376785Y-218923809D01*
X424376785Y-219161904D01*
X424424404Y-219257142D01*
X424472023Y-219304761D01*
X424567261Y-219352380D01*
X424852976Y-219352380D01*
X424948214Y-219304761D01*
X424995833Y-219257142D01*
%TO.C,SW127*%
X500385714Y-238354761D02*
X500242857Y-238402380D01*
X500004761Y-238402380D01*
X499909523Y-238354761D01*
X499861904Y-238307142D01*
X499814285Y-238211904D01*
X499814285Y-238116666D01*
X499861904Y-238021428D01*
X499909523Y-237973809D01*
X500004761Y-237926190D01*
X500195238Y-237878571D01*
X500290476Y-237830952D01*
X500338095Y-237783333D01*
X500385714Y-237688095D01*
X500385714Y-237592857D01*
X500338095Y-237497619D01*
X500290476Y-237450000D01*
X500195238Y-237402380D01*
X499957142Y-237402380D01*
X499814285Y-237450000D01*
X499480952Y-237402380D02*
X499242857Y-238402380D01*
X499052380Y-237688095D01*
X498861904Y-238402380D01*
X498623809Y-237402380D01*
X497719047Y-238402380D02*
X498290476Y-238402380D01*
X498004761Y-238402380D02*
X498004761Y-237402380D01*
X498100000Y-237545238D01*
X498195238Y-237640476D01*
X498290476Y-237688095D01*
X497338095Y-237497619D02*
X497290476Y-237450000D01*
X497195238Y-237402380D01*
X496957142Y-237402380D01*
X496861904Y-237450000D01*
X496814285Y-237497619D01*
X496766666Y-237592857D01*
X496766666Y-237688095D01*
X496814285Y-237830952D01*
X497385714Y-238402380D01*
X496766666Y-238402380D01*
X496433333Y-237402380D02*
X495766666Y-237402380D01*
X496195238Y-238402380D01*
%TO.C,SW1*%
X80333333Y-143104761D02*
X80190476Y-143152380D01*
X79952380Y-143152380D01*
X79857142Y-143104761D01*
X79809523Y-143057142D01*
X79761904Y-142961904D01*
X79761904Y-142866666D01*
X79809523Y-142771428D01*
X79857142Y-142723809D01*
X79952380Y-142676190D01*
X80142857Y-142628571D01*
X80238095Y-142580952D01*
X80285714Y-142533333D01*
X80333333Y-142438095D01*
X80333333Y-142342857D01*
X80285714Y-142247619D01*
X80238095Y-142200000D01*
X80142857Y-142152380D01*
X79904761Y-142152380D01*
X79761904Y-142200000D01*
X79428571Y-142152380D02*
X79190476Y-143152380D01*
X79000000Y-142438095D01*
X78809523Y-143152380D01*
X78571428Y-142152380D01*
X77666666Y-143152380D02*
X78238095Y-143152380D01*
X77952380Y-143152380D02*
X77952380Y-142152380D01*
X78047619Y-142295238D01*
X78142857Y-142390476D01*
X78238095Y-142438095D01*
%TO.C,SW10*%
X252259523Y-143104761D02*
X252116666Y-143152380D01*
X251878571Y-143152380D01*
X251783333Y-143104761D01*
X251735714Y-143057142D01*
X251688095Y-142961904D01*
X251688095Y-142866666D01*
X251735714Y-142771428D01*
X251783333Y-142723809D01*
X251878571Y-142676190D01*
X252069047Y-142628571D01*
X252164285Y-142580952D01*
X252211904Y-142533333D01*
X252259523Y-142438095D01*
X252259523Y-142342857D01*
X252211904Y-142247619D01*
X252164285Y-142200000D01*
X252069047Y-142152380D01*
X251830952Y-142152380D01*
X251688095Y-142200000D01*
X251354761Y-142152380D02*
X251116666Y-143152380D01*
X250926190Y-142438095D01*
X250735714Y-143152380D01*
X250497619Y-142152380D01*
X249592857Y-143152380D02*
X250164285Y-143152380D01*
X249878571Y-143152380D02*
X249878571Y-142152380D01*
X249973809Y-142295238D01*
X250069047Y-142390476D01*
X250164285Y-142438095D01*
X248973809Y-142152380D02*
X248878571Y-142152380D01*
X248783333Y-142200000D01*
X248735714Y-142247619D01*
X248688095Y-142342857D01*
X248640476Y-142533333D01*
X248640476Y-142771428D01*
X248688095Y-142961904D01*
X248735714Y-143057142D01*
X248783333Y-143104761D01*
X248878571Y-143152380D01*
X248973809Y-143152380D01*
X249069047Y-143104761D01*
X249116666Y-143057142D01*
X249164285Y-142961904D01*
X249211904Y-142771428D01*
X249211904Y-142533333D01*
X249164285Y-142342857D01*
X249116666Y-142247619D01*
X249069047Y-142200000D01*
X248973809Y-142152380D01*
%TO.C,SW59*%
X280834523Y-181204761D02*
X280691666Y-181252380D01*
X280453571Y-181252380D01*
X280358333Y-181204761D01*
X280310714Y-181157142D01*
X280263095Y-181061904D01*
X280263095Y-180966666D01*
X280310714Y-180871428D01*
X280358333Y-180823809D01*
X280453571Y-180776190D01*
X280644047Y-180728571D01*
X280739285Y-180680952D01*
X280786904Y-180633333D01*
X280834523Y-180538095D01*
X280834523Y-180442857D01*
X280786904Y-180347619D01*
X280739285Y-180300000D01*
X280644047Y-180252380D01*
X280405952Y-180252380D01*
X280263095Y-180300000D01*
X279929761Y-180252380D02*
X279691666Y-181252380D01*
X279501190Y-180538095D01*
X279310714Y-181252380D01*
X279072619Y-180252380D01*
X278215476Y-180252380D02*
X278691666Y-180252380D01*
X278739285Y-180728571D01*
X278691666Y-180680952D01*
X278596428Y-180633333D01*
X278358333Y-180633333D01*
X278263095Y-180680952D01*
X278215476Y-180728571D01*
X278167857Y-180823809D01*
X278167857Y-181061904D01*
X278215476Y-181157142D01*
X278263095Y-181204761D01*
X278358333Y-181252380D01*
X278596428Y-181252380D01*
X278691666Y-181204761D01*
X278739285Y-181157142D01*
X277691666Y-181252380D02*
X277501190Y-181252380D01*
X277405952Y-181204761D01*
X277358333Y-181157142D01*
X277263095Y-181014285D01*
X277215476Y-180823809D01*
X277215476Y-180442857D01*
X277263095Y-180347619D01*
X277310714Y-180300000D01*
X277405952Y-180252380D01*
X277596428Y-180252380D01*
X277691666Y-180300000D01*
X277739285Y-180347619D01*
X277786904Y-180442857D01*
X277786904Y-180680952D01*
X277739285Y-180776190D01*
X277691666Y-180823809D01*
X277596428Y-180871428D01*
X277405952Y-180871428D01*
X277310714Y-180823809D01*
X277263095Y-180776190D01*
X277215476Y-180680952D01*
%TO.C,SW98*%
X137959523Y-219304761D02*
X137816666Y-219352380D01*
X137578571Y-219352380D01*
X137483333Y-219304761D01*
X137435714Y-219257142D01*
X137388095Y-219161904D01*
X137388095Y-219066666D01*
X137435714Y-218971428D01*
X137483333Y-218923809D01*
X137578571Y-218876190D01*
X137769047Y-218828571D01*
X137864285Y-218780952D01*
X137911904Y-218733333D01*
X137959523Y-218638095D01*
X137959523Y-218542857D01*
X137911904Y-218447619D01*
X137864285Y-218400000D01*
X137769047Y-218352380D01*
X137530952Y-218352380D01*
X137388095Y-218400000D01*
X137054761Y-218352380D02*
X136816666Y-219352380D01*
X136626190Y-218638095D01*
X136435714Y-219352380D01*
X136197619Y-218352380D01*
X135769047Y-219352380D02*
X135578571Y-219352380D01*
X135483333Y-219304761D01*
X135435714Y-219257142D01*
X135340476Y-219114285D01*
X135292857Y-218923809D01*
X135292857Y-218542857D01*
X135340476Y-218447619D01*
X135388095Y-218400000D01*
X135483333Y-218352380D01*
X135673809Y-218352380D01*
X135769047Y-218400000D01*
X135816666Y-218447619D01*
X135864285Y-218542857D01*
X135864285Y-218780952D01*
X135816666Y-218876190D01*
X135769047Y-218923809D01*
X135673809Y-218971428D01*
X135483333Y-218971428D01*
X135388095Y-218923809D01*
X135340476Y-218876190D01*
X135292857Y-218780952D01*
X134721428Y-218780952D02*
X134816666Y-218733333D01*
X134864285Y-218685714D01*
X134911904Y-218590476D01*
X134911904Y-218542857D01*
X134864285Y-218447619D01*
X134816666Y-218400000D01*
X134721428Y-218352380D01*
X134530952Y-218352380D01*
X134435714Y-218400000D01*
X134388095Y-218447619D01*
X134340476Y-218542857D01*
X134340476Y-218590476D01*
X134388095Y-218685714D01*
X134435714Y-218733333D01*
X134530952Y-218780952D01*
X134721428Y-218780952D01*
X134816666Y-218828571D01*
X134864285Y-218876190D01*
X134911904Y-218971428D01*
X134911904Y-219161904D01*
X134864285Y-219257142D01*
X134816666Y-219304761D01*
X134721428Y-219352380D01*
X134530952Y-219352380D01*
X134435714Y-219304761D01*
X134388095Y-219257142D01*
X134340476Y-219161904D01*
X134340476Y-218971428D01*
X134388095Y-218876190D01*
X134435714Y-218828571D01*
X134530952Y-218780952D01*
%TO.C,SW93*%
X499909523Y-200254761D02*
X499766666Y-200302380D01*
X499528571Y-200302380D01*
X499433333Y-200254761D01*
X499385714Y-200207142D01*
X499338095Y-200111904D01*
X499338095Y-200016666D01*
X499385714Y-199921428D01*
X499433333Y-199873809D01*
X499528571Y-199826190D01*
X499719047Y-199778571D01*
X499814285Y-199730952D01*
X499861904Y-199683333D01*
X499909523Y-199588095D01*
X499909523Y-199492857D01*
X499861904Y-199397619D01*
X499814285Y-199350000D01*
X499719047Y-199302380D01*
X499480952Y-199302380D01*
X499338095Y-199350000D01*
X499004761Y-199302380D02*
X498766666Y-200302380D01*
X498576190Y-199588095D01*
X498385714Y-200302380D01*
X498147619Y-199302380D01*
X497719047Y-200302380D02*
X497528571Y-200302380D01*
X497433333Y-200254761D01*
X497385714Y-200207142D01*
X497290476Y-200064285D01*
X497242857Y-199873809D01*
X497242857Y-199492857D01*
X497290476Y-199397619D01*
X497338095Y-199350000D01*
X497433333Y-199302380D01*
X497623809Y-199302380D01*
X497719047Y-199350000D01*
X497766666Y-199397619D01*
X497814285Y-199492857D01*
X497814285Y-199730952D01*
X497766666Y-199826190D01*
X497719047Y-199873809D01*
X497623809Y-199921428D01*
X497433333Y-199921428D01*
X497338095Y-199873809D01*
X497290476Y-199826190D01*
X497242857Y-199730952D01*
X496909523Y-199302380D02*
X496290476Y-199302380D01*
X496623809Y-199683333D01*
X496480952Y-199683333D01*
X496385714Y-199730952D01*
X496338095Y-199778571D01*
X496290476Y-199873809D01*
X496290476Y-200111904D01*
X496338095Y-200207142D01*
X496385714Y-200254761D01*
X496480952Y-200302380D01*
X496766666Y-200302380D01*
X496861904Y-200254761D01*
X496909523Y-200207142D01*
%TO.C,SW119*%
X100335714Y-238354761D02*
X100192857Y-238402380D01*
X99954761Y-238402380D01*
X99859523Y-238354761D01*
X99811904Y-238307142D01*
X99764285Y-238211904D01*
X99764285Y-238116666D01*
X99811904Y-238021428D01*
X99859523Y-237973809D01*
X99954761Y-237926190D01*
X100145238Y-237878571D01*
X100240476Y-237830952D01*
X100288095Y-237783333D01*
X100335714Y-237688095D01*
X100335714Y-237592857D01*
X100288095Y-237497619D01*
X100240476Y-237450000D01*
X100145238Y-237402380D01*
X99907142Y-237402380D01*
X99764285Y-237450000D01*
X99430952Y-237402380D02*
X99192857Y-238402380D01*
X99002380Y-237688095D01*
X98811904Y-238402380D01*
X98573809Y-237402380D01*
X97669047Y-238402380D02*
X98240476Y-238402380D01*
X97954761Y-238402380D02*
X97954761Y-237402380D01*
X98050000Y-237545238D01*
X98145238Y-237640476D01*
X98240476Y-237688095D01*
X96716666Y-238402380D02*
X97288095Y-238402380D01*
X97002380Y-238402380D02*
X97002380Y-237402380D01*
X97097619Y-237545238D01*
X97192857Y-237640476D01*
X97288095Y-237688095D01*
X96240476Y-238402380D02*
X96050000Y-238402380D01*
X95954761Y-238354761D01*
X95907142Y-238307142D01*
X95811904Y-238164285D01*
X95764285Y-237973809D01*
X95764285Y-237592857D01*
X95811904Y-237497619D01*
X95859523Y-237450000D01*
X95954761Y-237402380D01*
X96145238Y-237402380D01*
X96240476Y-237450000D01*
X96288095Y-237497619D01*
X96335714Y-237592857D01*
X96335714Y-237830952D01*
X96288095Y-237926190D01*
X96240476Y-237973809D01*
X96145238Y-238021428D01*
X95954761Y-238021428D01*
X95859523Y-237973809D01*
X95811904Y-237926190D01*
X95764285Y-237830952D01*
%TO.C,SW57*%
X242734523Y-181204761D02*
X242591666Y-181252380D01*
X242353571Y-181252380D01*
X242258333Y-181204761D01*
X242210714Y-181157142D01*
X242163095Y-181061904D01*
X242163095Y-180966666D01*
X242210714Y-180871428D01*
X242258333Y-180823809D01*
X242353571Y-180776190D01*
X242544047Y-180728571D01*
X242639285Y-180680952D01*
X242686904Y-180633333D01*
X242734523Y-180538095D01*
X242734523Y-180442857D01*
X242686904Y-180347619D01*
X242639285Y-180300000D01*
X242544047Y-180252380D01*
X242305952Y-180252380D01*
X242163095Y-180300000D01*
X241829761Y-180252380D02*
X241591666Y-181252380D01*
X241401190Y-180538095D01*
X241210714Y-181252380D01*
X240972619Y-180252380D01*
X240115476Y-180252380D02*
X240591666Y-180252380D01*
X240639285Y-180728571D01*
X240591666Y-180680952D01*
X240496428Y-180633333D01*
X240258333Y-180633333D01*
X240163095Y-180680952D01*
X240115476Y-180728571D01*
X240067857Y-180823809D01*
X240067857Y-181061904D01*
X240115476Y-181157142D01*
X240163095Y-181204761D01*
X240258333Y-181252380D01*
X240496428Y-181252380D01*
X240591666Y-181204761D01*
X240639285Y-181157142D01*
X239734523Y-180252380D02*
X239067857Y-180252380D01*
X239496428Y-181252380D01*
%TO.C,SW92*%
X480859523Y-200254761D02*
X480716666Y-200302380D01*
X480478571Y-200302380D01*
X480383333Y-200254761D01*
X480335714Y-200207142D01*
X480288095Y-200111904D01*
X480288095Y-200016666D01*
X480335714Y-199921428D01*
X480383333Y-199873809D01*
X480478571Y-199826190D01*
X480669047Y-199778571D01*
X480764285Y-199730952D01*
X480811904Y-199683333D01*
X480859523Y-199588095D01*
X480859523Y-199492857D01*
X480811904Y-199397619D01*
X480764285Y-199350000D01*
X480669047Y-199302380D01*
X480430952Y-199302380D01*
X480288095Y-199350000D01*
X479954761Y-199302380D02*
X479716666Y-200302380D01*
X479526190Y-199588095D01*
X479335714Y-200302380D01*
X479097619Y-199302380D01*
X478669047Y-200302380D02*
X478478571Y-200302380D01*
X478383333Y-200254761D01*
X478335714Y-200207142D01*
X478240476Y-200064285D01*
X478192857Y-199873809D01*
X478192857Y-199492857D01*
X478240476Y-199397619D01*
X478288095Y-199350000D01*
X478383333Y-199302380D01*
X478573809Y-199302380D01*
X478669047Y-199350000D01*
X478716666Y-199397619D01*
X478764285Y-199492857D01*
X478764285Y-199730952D01*
X478716666Y-199826190D01*
X478669047Y-199873809D01*
X478573809Y-199921428D01*
X478383333Y-199921428D01*
X478288095Y-199873809D01*
X478240476Y-199826190D01*
X478192857Y-199730952D01*
X477811904Y-199397619D02*
X477764285Y-199350000D01*
X477669047Y-199302380D01*
X477430952Y-199302380D01*
X477335714Y-199350000D01*
X477288095Y-199397619D01*
X477240476Y-199492857D01*
X477240476Y-199588095D01*
X477288095Y-199730952D01*
X477859523Y-200302380D01*
X477240476Y-200302380D01*
%TO.C,SW83*%
X304647023Y-200254761D02*
X304504166Y-200302380D01*
X304266071Y-200302380D01*
X304170833Y-200254761D01*
X304123214Y-200207142D01*
X304075595Y-200111904D01*
X304075595Y-200016666D01*
X304123214Y-199921428D01*
X304170833Y-199873809D01*
X304266071Y-199826190D01*
X304456547Y-199778571D01*
X304551785Y-199730952D01*
X304599404Y-199683333D01*
X304647023Y-199588095D01*
X304647023Y-199492857D01*
X304599404Y-199397619D01*
X304551785Y-199350000D01*
X304456547Y-199302380D01*
X304218452Y-199302380D01*
X304075595Y-199350000D01*
X303742261Y-199302380D02*
X303504166Y-200302380D01*
X303313690Y-199588095D01*
X303123214Y-200302380D01*
X302885119Y-199302380D01*
X302361309Y-199730952D02*
X302456547Y-199683333D01*
X302504166Y-199635714D01*
X302551785Y-199540476D01*
X302551785Y-199492857D01*
X302504166Y-199397619D01*
X302456547Y-199350000D01*
X302361309Y-199302380D01*
X302170833Y-199302380D01*
X302075595Y-199350000D01*
X302027976Y-199397619D01*
X301980357Y-199492857D01*
X301980357Y-199540476D01*
X302027976Y-199635714D01*
X302075595Y-199683333D01*
X302170833Y-199730952D01*
X302361309Y-199730952D01*
X302456547Y-199778571D01*
X302504166Y-199826190D01*
X302551785Y-199921428D01*
X302551785Y-200111904D01*
X302504166Y-200207142D01*
X302456547Y-200254761D01*
X302361309Y-200302380D01*
X302170833Y-200302380D01*
X302075595Y-200254761D01*
X302027976Y-200207142D01*
X301980357Y-200111904D01*
X301980357Y-199921428D01*
X302027976Y-199826190D01*
X302075595Y-199778571D01*
X302170833Y-199730952D01*
X301647023Y-199302380D02*
X301027976Y-199302380D01*
X301361309Y-199683333D01*
X301218452Y-199683333D01*
X301123214Y-199730952D01*
X301075595Y-199778571D01*
X301027976Y-199873809D01*
X301027976Y-200111904D01*
X301075595Y-200207142D01*
X301123214Y-200254761D01*
X301218452Y-200302380D01*
X301504166Y-200302380D01*
X301599404Y-200254761D01*
X301647023Y-200207142D01*
%TO.C,SW97*%
X118909523Y-219304761D02*
X118766666Y-219352380D01*
X118528571Y-219352380D01*
X118433333Y-219304761D01*
X118385714Y-219257142D01*
X118338095Y-219161904D01*
X118338095Y-219066666D01*
X118385714Y-218971428D01*
X118433333Y-218923809D01*
X118528571Y-218876190D01*
X118719047Y-218828571D01*
X118814285Y-218780952D01*
X118861904Y-218733333D01*
X118909523Y-218638095D01*
X118909523Y-218542857D01*
X118861904Y-218447619D01*
X118814285Y-218400000D01*
X118719047Y-218352380D01*
X118480952Y-218352380D01*
X118338095Y-218400000D01*
X118004761Y-218352380D02*
X117766666Y-219352380D01*
X117576190Y-218638095D01*
X117385714Y-219352380D01*
X117147619Y-218352380D01*
X116719047Y-219352380D02*
X116528571Y-219352380D01*
X116433333Y-219304761D01*
X116385714Y-219257142D01*
X116290476Y-219114285D01*
X116242857Y-218923809D01*
X116242857Y-218542857D01*
X116290476Y-218447619D01*
X116338095Y-218400000D01*
X116433333Y-218352380D01*
X116623809Y-218352380D01*
X116719047Y-218400000D01*
X116766666Y-218447619D01*
X116814285Y-218542857D01*
X116814285Y-218780952D01*
X116766666Y-218876190D01*
X116719047Y-218923809D01*
X116623809Y-218971428D01*
X116433333Y-218971428D01*
X116338095Y-218923809D01*
X116290476Y-218876190D01*
X116242857Y-218780952D01*
X115909523Y-218352380D02*
X115242857Y-218352380D01*
X115671428Y-219352380D01*
%TO.C,SW76*%
X171297023Y-200254761D02*
X171154166Y-200302380D01*
X170916071Y-200302380D01*
X170820833Y-200254761D01*
X170773214Y-200207142D01*
X170725595Y-200111904D01*
X170725595Y-200016666D01*
X170773214Y-199921428D01*
X170820833Y-199873809D01*
X170916071Y-199826190D01*
X171106547Y-199778571D01*
X171201785Y-199730952D01*
X171249404Y-199683333D01*
X171297023Y-199588095D01*
X171297023Y-199492857D01*
X171249404Y-199397619D01*
X171201785Y-199350000D01*
X171106547Y-199302380D01*
X170868452Y-199302380D01*
X170725595Y-199350000D01*
X170392261Y-199302380D02*
X170154166Y-200302380D01*
X169963690Y-199588095D01*
X169773214Y-200302380D01*
X169535119Y-199302380D01*
X169249404Y-199302380D02*
X168582738Y-199302380D01*
X169011309Y-200302380D01*
X167773214Y-199302380D02*
X167963690Y-199302380D01*
X168058928Y-199350000D01*
X168106547Y-199397619D01*
X168201785Y-199540476D01*
X168249404Y-199730952D01*
X168249404Y-200111904D01*
X168201785Y-200207142D01*
X168154166Y-200254761D01*
X168058928Y-200302380D01*
X167868452Y-200302380D01*
X167773214Y-200254761D01*
X167725595Y-200207142D01*
X167677976Y-200111904D01*
X167677976Y-199873809D01*
X167725595Y-199778571D01*
X167773214Y-199730952D01*
X167868452Y-199683333D01*
X168058928Y-199683333D01*
X168154166Y-199730952D01*
X168201785Y-199778571D01*
X168249404Y-199873809D01*
%TO.C,SW110*%
X371798214Y-219304761D02*
X371655357Y-219352380D01*
X371417261Y-219352380D01*
X371322023Y-219304761D01*
X371274404Y-219257142D01*
X371226785Y-219161904D01*
X371226785Y-219066666D01*
X371274404Y-218971428D01*
X371322023Y-218923809D01*
X371417261Y-218876190D01*
X371607738Y-218828571D01*
X371702976Y-218780952D01*
X371750595Y-218733333D01*
X371798214Y-218638095D01*
X371798214Y-218542857D01*
X371750595Y-218447619D01*
X371702976Y-218400000D01*
X371607738Y-218352380D01*
X371369642Y-218352380D01*
X371226785Y-218400000D01*
X370893452Y-218352380D02*
X370655357Y-219352380D01*
X370464880Y-218638095D01*
X370274404Y-219352380D01*
X370036309Y-218352380D01*
X369131547Y-219352380D02*
X369702976Y-219352380D01*
X369417261Y-219352380D02*
X369417261Y-218352380D01*
X369512500Y-218495238D01*
X369607738Y-218590476D01*
X369702976Y-218638095D01*
X368179166Y-219352380D02*
X368750595Y-219352380D01*
X368464880Y-219352380D02*
X368464880Y-218352380D01*
X368560119Y-218495238D01*
X368655357Y-218590476D01*
X368750595Y-218638095D01*
X367560119Y-218352380D02*
X367464880Y-218352380D01*
X367369642Y-218400000D01*
X367322023Y-218447619D01*
X367274404Y-218542857D01*
X367226785Y-218733333D01*
X367226785Y-218971428D01*
X367274404Y-219161904D01*
X367322023Y-219257142D01*
X367369642Y-219304761D01*
X367464880Y-219352380D01*
X367560119Y-219352380D01*
X367655357Y-219304761D01*
X367702976Y-219257142D01*
X367750595Y-219161904D01*
X367798214Y-218971428D01*
X367798214Y-218733333D01*
X367750595Y-218542857D01*
X367702976Y-218447619D01*
X367655357Y-218400000D01*
X367560119Y-218352380D01*
%TO.C,SW128*%
X519435714Y-238354761D02*
X519292857Y-238402380D01*
X519054761Y-238402380D01*
X518959523Y-238354761D01*
X518911904Y-238307142D01*
X518864285Y-238211904D01*
X518864285Y-238116666D01*
X518911904Y-238021428D01*
X518959523Y-237973809D01*
X519054761Y-237926190D01*
X519245238Y-237878571D01*
X519340476Y-237830952D01*
X519388095Y-237783333D01*
X519435714Y-237688095D01*
X519435714Y-237592857D01*
X519388095Y-237497619D01*
X519340476Y-237450000D01*
X519245238Y-237402380D01*
X519007142Y-237402380D01*
X518864285Y-237450000D01*
X518530952Y-237402380D02*
X518292857Y-238402380D01*
X518102380Y-237688095D01*
X517911904Y-238402380D01*
X517673809Y-237402380D01*
X516769047Y-238402380D02*
X517340476Y-238402380D01*
X517054761Y-238402380D02*
X517054761Y-237402380D01*
X517150000Y-237545238D01*
X517245238Y-237640476D01*
X517340476Y-237688095D01*
X516388095Y-237497619D02*
X516340476Y-237450000D01*
X516245238Y-237402380D01*
X516007142Y-237402380D01*
X515911904Y-237450000D01*
X515864285Y-237497619D01*
X515816666Y-237592857D01*
X515816666Y-237688095D01*
X515864285Y-237830952D01*
X516435714Y-238402380D01*
X515816666Y-238402380D01*
X515245238Y-237830952D02*
X515340476Y-237783333D01*
X515388095Y-237735714D01*
X515435714Y-237640476D01*
X515435714Y-237592857D01*
X515388095Y-237497619D01*
X515340476Y-237450000D01*
X515245238Y-237402380D01*
X515054761Y-237402380D01*
X514959523Y-237450000D01*
X514911904Y-237497619D01*
X514864285Y-237592857D01*
X514864285Y-237640476D01*
X514911904Y-237735714D01*
X514959523Y-237783333D01*
X515054761Y-237830952D01*
X515245238Y-237830952D01*
X515340476Y-237878571D01*
X515388095Y-237926190D01*
X515435714Y-238021428D01*
X515435714Y-238211904D01*
X515388095Y-238307142D01*
X515340476Y-238354761D01*
X515245238Y-238402380D01*
X515054761Y-238402380D01*
X514959523Y-238354761D01*
X514911904Y-238307142D01*
X514864285Y-238211904D01*
X514864285Y-238021428D01*
X514911904Y-237926190D01*
X514959523Y-237878571D01*
X515054761Y-237830952D01*
%TO.C,SW55*%
X204634523Y-181204761D02*
X204491666Y-181252380D01*
X204253571Y-181252380D01*
X204158333Y-181204761D01*
X204110714Y-181157142D01*
X204063095Y-181061904D01*
X204063095Y-180966666D01*
X204110714Y-180871428D01*
X204158333Y-180823809D01*
X204253571Y-180776190D01*
X204444047Y-180728571D01*
X204539285Y-180680952D01*
X204586904Y-180633333D01*
X204634523Y-180538095D01*
X204634523Y-180442857D01*
X204586904Y-180347619D01*
X204539285Y-180300000D01*
X204444047Y-180252380D01*
X204205952Y-180252380D01*
X204063095Y-180300000D01*
X203729761Y-180252380D02*
X203491666Y-181252380D01*
X203301190Y-180538095D01*
X203110714Y-181252380D01*
X202872619Y-180252380D01*
X202015476Y-180252380D02*
X202491666Y-180252380D01*
X202539285Y-180728571D01*
X202491666Y-180680952D01*
X202396428Y-180633333D01*
X202158333Y-180633333D01*
X202063095Y-180680952D01*
X202015476Y-180728571D01*
X201967857Y-180823809D01*
X201967857Y-181061904D01*
X202015476Y-181157142D01*
X202063095Y-181204761D01*
X202158333Y-181252380D01*
X202396428Y-181252380D01*
X202491666Y-181204761D01*
X202539285Y-181157142D01*
X201063095Y-180252380D02*
X201539285Y-180252380D01*
X201586904Y-180728571D01*
X201539285Y-180680952D01*
X201444047Y-180633333D01*
X201205952Y-180633333D01*
X201110714Y-180680952D01*
X201063095Y-180728571D01*
X201015476Y-180823809D01*
X201015476Y-181061904D01*
X201063095Y-181157142D01*
X201110714Y-181204761D01*
X201205952Y-181252380D01*
X201444047Y-181252380D01*
X201539285Y-181204761D01*
X201586904Y-181157142D01*
%TO.C,SW5*%
X156533333Y-143104761D02*
X156390476Y-143152380D01*
X156152380Y-143152380D01*
X156057142Y-143104761D01*
X156009523Y-143057142D01*
X155961904Y-142961904D01*
X155961904Y-142866666D01*
X156009523Y-142771428D01*
X156057142Y-142723809D01*
X156152380Y-142676190D01*
X156342857Y-142628571D01*
X156438095Y-142580952D01*
X156485714Y-142533333D01*
X156533333Y-142438095D01*
X156533333Y-142342857D01*
X156485714Y-142247619D01*
X156438095Y-142200000D01*
X156342857Y-142152380D01*
X156104761Y-142152380D01*
X155961904Y-142200000D01*
X155628571Y-142152380D02*
X155390476Y-143152380D01*
X155200000Y-142438095D01*
X155009523Y-143152380D01*
X154771428Y-142152380D01*
X153914285Y-142152380D02*
X154390476Y-142152380D01*
X154438095Y-142628571D01*
X154390476Y-142580952D01*
X154295238Y-142533333D01*
X154057142Y-142533333D01*
X153961904Y-142580952D01*
X153914285Y-142628571D01*
X153866666Y-142723809D01*
X153866666Y-142961904D01*
X153914285Y-143057142D01*
X153961904Y-143104761D01*
X154057142Y-143152380D01*
X154295238Y-143152380D01*
X154390476Y-143104761D01*
X154438095Y-143057142D01*
%TO.C,SW105*%
X276548214Y-219304761D02*
X276405357Y-219352380D01*
X276167261Y-219352380D01*
X276072023Y-219304761D01*
X276024404Y-219257142D01*
X275976785Y-219161904D01*
X275976785Y-219066666D01*
X276024404Y-218971428D01*
X276072023Y-218923809D01*
X276167261Y-218876190D01*
X276357738Y-218828571D01*
X276452976Y-218780952D01*
X276500595Y-218733333D01*
X276548214Y-218638095D01*
X276548214Y-218542857D01*
X276500595Y-218447619D01*
X276452976Y-218400000D01*
X276357738Y-218352380D01*
X276119642Y-218352380D01*
X275976785Y-218400000D01*
X275643452Y-218352380D02*
X275405357Y-219352380D01*
X275214880Y-218638095D01*
X275024404Y-219352380D01*
X274786309Y-218352380D01*
X273881547Y-219352380D02*
X274452976Y-219352380D01*
X274167261Y-219352380D02*
X274167261Y-218352380D01*
X274262500Y-218495238D01*
X274357738Y-218590476D01*
X274452976Y-218638095D01*
X273262500Y-218352380D02*
X273167261Y-218352380D01*
X273072023Y-218400000D01*
X273024404Y-218447619D01*
X272976785Y-218542857D01*
X272929166Y-218733333D01*
X272929166Y-218971428D01*
X272976785Y-219161904D01*
X273024404Y-219257142D01*
X273072023Y-219304761D01*
X273167261Y-219352380D01*
X273262500Y-219352380D01*
X273357738Y-219304761D01*
X273405357Y-219257142D01*
X273452976Y-219161904D01*
X273500595Y-218971428D01*
X273500595Y-218733333D01*
X273452976Y-218542857D01*
X273405357Y-218447619D01*
X273357738Y-218400000D01*
X273262500Y-218352380D01*
X272024404Y-218352380D02*
X272500595Y-218352380D01*
X272548214Y-218828571D01*
X272500595Y-218780952D01*
X272405357Y-218733333D01*
X272167261Y-218733333D01*
X272072023Y-218780952D01*
X272024404Y-218828571D01*
X271976785Y-218923809D01*
X271976785Y-219161904D01*
X272024404Y-219257142D01*
X272072023Y-219304761D01*
X272167261Y-219352380D01*
X272405357Y-219352380D01*
X272500595Y-219304761D01*
X272548214Y-219257142D01*
%TO.C,SW33*%
X233209523Y-162154761D02*
X233066666Y-162202380D01*
X232828571Y-162202380D01*
X232733333Y-162154761D01*
X232685714Y-162107142D01*
X232638095Y-162011904D01*
X232638095Y-161916666D01*
X232685714Y-161821428D01*
X232733333Y-161773809D01*
X232828571Y-161726190D01*
X233019047Y-161678571D01*
X233114285Y-161630952D01*
X233161904Y-161583333D01*
X233209523Y-161488095D01*
X233209523Y-161392857D01*
X233161904Y-161297619D01*
X233114285Y-161250000D01*
X233019047Y-161202380D01*
X232780952Y-161202380D01*
X232638095Y-161250000D01*
X232304761Y-161202380D02*
X232066666Y-162202380D01*
X231876190Y-161488095D01*
X231685714Y-162202380D01*
X231447619Y-161202380D01*
X231161904Y-161202380D02*
X230542857Y-161202380D01*
X230876190Y-161583333D01*
X230733333Y-161583333D01*
X230638095Y-161630952D01*
X230590476Y-161678571D01*
X230542857Y-161773809D01*
X230542857Y-162011904D01*
X230590476Y-162107142D01*
X230638095Y-162154761D01*
X230733333Y-162202380D01*
X231019047Y-162202380D01*
X231114285Y-162154761D01*
X231161904Y-162107142D01*
X230209523Y-161202380D02*
X229590476Y-161202380D01*
X229923809Y-161583333D01*
X229780952Y-161583333D01*
X229685714Y-161630952D01*
X229638095Y-161678571D01*
X229590476Y-161773809D01*
X229590476Y-162011904D01*
X229638095Y-162107142D01*
X229685714Y-162154761D01*
X229780952Y-162202380D01*
X230066666Y-162202380D01*
X230161904Y-162154761D01*
X230209523Y-162107142D01*
%TO.C,SW86*%
X361797023Y-200254761D02*
X361654166Y-200302380D01*
X361416071Y-200302380D01*
X361320833Y-200254761D01*
X361273214Y-200207142D01*
X361225595Y-200111904D01*
X361225595Y-200016666D01*
X361273214Y-199921428D01*
X361320833Y-199873809D01*
X361416071Y-199826190D01*
X361606547Y-199778571D01*
X361701785Y-199730952D01*
X361749404Y-199683333D01*
X361797023Y-199588095D01*
X361797023Y-199492857D01*
X361749404Y-199397619D01*
X361701785Y-199350000D01*
X361606547Y-199302380D01*
X361368452Y-199302380D01*
X361225595Y-199350000D01*
X360892261Y-199302380D02*
X360654166Y-200302380D01*
X360463690Y-199588095D01*
X360273214Y-200302380D01*
X360035119Y-199302380D01*
X359511309Y-199730952D02*
X359606547Y-199683333D01*
X359654166Y-199635714D01*
X359701785Y-199540476D01*
X359701785Y-199492857D01*
X359654166Y-199397619D01*
X359606547Y-199350000D01*
X359511309Y-199302380D01*
X359320833Y-199302380D01*
X359225595Y-199350000D01*
X359177976Y-199397619D01*
X359130357Y-199492857D01*
X359130357Y-199540476D01*
X359177976Y-199635714D01*
X359225595Y-199683333D01*
X359320833Y-199730952D01*
X359511309Y-199730952D01*
X359606547Y-199778571D01*
X359654166Y-199826190D01*
X359701785Y-199921428D01*
X359701785Y-200111904D01*
X359654166Y-200207142D01*
X359606547Y-200254761D01*
X359511309Y-200302380D01*
X359320833Y-200302380D01*
X359225595Y-200254761D01*
X359177976Y-200207142D01*
X359130357Y-200111904D01*
X359130357Y-199921428D01*
X359177976Y-199826190D01*
X359225595Y-199778571D01*
X359320833Y-199730952D01*
X358273214Y-199302380D02*
X358463690Y-199302380D01*
X358558928Y-199350000D01*
X358606547Y-199397619D01*
X358701785Y-199540476D01*
X358749404Y-199730952D01*
X358749404Y-200111904D01*
X358701785Y-200207142D01*
X358654166Y-200254761D01*
X358558928Y-200302380D01*
X358368452Y-200302380D01*
X358273214Y-200254761D01*
X358225595Y-200207142D01*
X358177976Y-200111904D01*
X358177976Y-199873809D01*
X358225595Y-199778571D01*
X358273214Y-199730952D01*
X358368452Y-199683333D01*
X358558928Y-199683333D01*
X358654166Y-199730952D01*
X358701785Y-199778571D01*
X358749404Y-199873809D01*
%TO.C,SW61*%
X318934523Y-181204761D02*
X318791666Y-181252380D01*
X318553571Y-181252380D01*
X318458333Y-181204761D01*
X318410714Y-181157142D01*
X318363095Y-181061904D01*
X318363095Y-180966666D01*
X318410714Y-180871428D01*
X318458333Y-180823809D01*
X318553571Y-180776190D01*
X318744047Y-180728571D01*
X318839285Y-180680952D01*
X318886904Y-180633333D01*
X318934523Y-180538095D01*
X318934523Y-180442857D01*
X318886904Y-180347619D01*
X318839285Y-180300000D01*
X318744047Y-180252380D01*
X318505952Y-180252380D01*
X318363095Y-180300000D01*
X318029761Y-180252380D02*
X317791666Y-181252380D01*
X317601190Y-180538095D01*
X317410714Y-181252380D01*
X317172619Y-180252380D01*
X316363095Y-180252380D02*
X316553571Y-180252380D01*
X316648809Y-180300000D01*
X316696428Y-180347619D01*
X316791666Y-180490476D01*
X316839285Y-180680952D01*
X316839285Y-181061904D01*
X316791666Y-181157142D01*
X316744047Y-181204761D01*
X316648809Y-181252380D01*
X316458333Y-181252380D01*
X316363095Y-181204761D01*
X316315476Y-181157142D01*
X316267857Y-181061904D01*
X316267857Y-180823809D01*
X316315476Y-180728571D01*
X316363095Y-180680952D01*
X316458333Y-180633333D01*
X316648809Y-180633333D01*
X316744047Y-180680952D01*
X316791666Y-180728571D01*
X316839285Y-180823809D01*
X315315476Y-181252380D02*
X315886904Y-181252380D01*
X315601190Y-181252380D02*
X315601190Y-180252380D01*
X315696428Y-180395238D01*
X315791666Y-180490476D01*
X315886904Y-180538095D01*
%TO.C,SW8*%
X213683333Y-143104761D02*
X213540476Y-143152380D01*
X213302380Y-143152380D01*
X213207142Y-143104761D01*
X213159523Y-143057142D01*
X213111904Y-142961904D01*
X213111904Y-142866666D01*
X213159523Y-142771428D01*
X213207142Y-142723809D01*
X213302380Y-142676190D01*
X213492857Y-142628571D01*
X213588095Y-142580952D01*
X213635714Y-142533333D01*
X213683333Y-142438095D01*
X213683333Y-142342857D01*
X213635714Y-142247619D01*
X213588095Y-142200000D01*
X213492857Y-142152380D01*
X213254761Y-142152380D01*
X213111904Y-142200000D01*
X212778571Y-142152380D02*
X212540476Y-143152380D01*
X212350000Y-142438095D01*
X212159523Y-143152380D01*
X211921428Y-142152380D01*
X211397619Y-142580952D02*
X211492857Y-142533333D01*
X211540476Y-142485714D01*
X211588095Y-142390476D01*
X211588095Y-142342857D01*
X211540476Y-142247619D01*
X211492857Y-142200000D01*
X211397619Y-142152380D01*
X211207142Y-142152380D01*
X211111904Y-142200000D01*
X211064285Y-142247619D01*
X211016666Y-142342857D01*
X211016666Y-142390476D01*
X211064285Y-142485714D01*
X211111904Y-142533333D01*
X211207142Y-142580952D01*
X211397619Y-142580952D01*
X211492857Y-142628571D01*
X211540476Y-142676190D01*
X211588095Y-142771428D01*
X211588095Y-142961904D01*
X211540476Y-143057142D01*
X211492857Y-143104761D01*
X211397619Y-143152380D01*
X211207142Y-143152380D01*
X211111904Y-143104761D01*
X211064285Y-143057142D01*
X211016666Y-142961904D01*
X211016666Y-142771428D01*
X211064285Y-142676190D01*
X211111904Y-142628571D01*
X211207142Y-142580952D01*
%TO.C,SW15*%
X347509523Y-143104761D02*
X347366666Y-143152380D01*
X347128571Y-143152380D01*
X347033333Y-143104761D01*
X346985714Y-143057142D01*
X346938095Y-142961904D01*
X346938095Y-142866666D01*
X346985714Y-142771428D01*
X347033333Y-142723809D01*
X347128571Y-142676190D01*
X347319047Y-142628571D01*
X347414285Y-142580952D01*
X347461904Y-142533333D01*
X347509523Y-142438095D01*
X347509523Y-142342857D01*
X347461904Y-142247619D01*
X347414285Y-142200000D01*
X347319047Y-142152380D01*
X347080952Y-142152380D01*
X346938095Y-142200000D01*
X346604761Y-142152380D02*
X346366666Y-143152380D01*
X346176190Y-142438095D01*
X345985714Y-143152380D01*
X345747619Y-142152380D01*
X344842857Y-143152380D02*
X345414285Y-143152380D01*
X345128571Y-143152380D02*
X345128571Y-142152380D01*
X345223809Y-142295238D01*
X345319047Y-142390476D01*
X345414285Y-142438095D01*
X343938095Y-142152380D02*
X344414285Y-142152380D01*
X344461904Y-142628571D01*
X344414285Y-142580952D01*
X344319047Y-142533333D01*
X344080952Y-142533333D01*
X343985714Y-142580952D01*
X343938095Y-142628571D01*
X343890476Y-142723809D01*
X343890476Y-142961904D01*
X343938095Y-143057142D01*
X343985714Y-143104761D01*
X344080952Y-143152380D01*
X344319047Y-143152380D01*
X344414285Y-143104761D01*
X344461904Y-143057142D01*
%TO.C,SW69*%
X480859523Y-181204761D02*
X480716666Y-181252380D01*
X480478571Y-181252380D01*
X480383333Y-181204761D01*
X480335714Y-181157142D01*
X480288095Y-181061904D01*
X480288095Y-180966666D01*
X480335714Y-180871428D01*
X480383333Y-180823809D01*
X480478571Y-180776190D01*
X480669047Y-180728571D01*
X480764285Y-180680952D01*
X480811904Y-180633333D01*
X480859523Y-180538095D01*
X480859523Y-180442857D01*
X480811904Y-180347619D01*
X480764285Y-180300000D01*
X480669047Y-180252380D01*
X480430952Y-180252380D01*
X480288095Y-180300000D01*
X479954761Y-180252380D02*
X479716666Y-181252380D01*
X479526190Y-180538095D01*
X479335714Y-181252380D01*
X479097619Y-180252380D01*
X478288095Y-180252380D02*
X478478571Y-180252380D01*
X478573809Y-180300000D01*
X478621428Y-180347619D01*
X478716666Y-180490476D01*
X478764285Y-180680952D01*
X478764285Y-181061904D01*
X478716666Y-181157142D01*
X478669047Y-181204761D01*
X478573809Y-181252380D01*
X478383333Y-181252380D01*
X478288095Y-181204761D01*
X478240476Y-181157142D01*
X478192857Y-181061904D01*
X478192857Y-180823809D01*
X478240476Y-180728571D01*
X478288095Y-180680952D01*
X478383333Y-180633333D01*
X478573809Y-180633333D01*
X478669047Y-180680952D01*
X478716666Y-180728571D01*
X478764285Y-180823809D01*
X477716666Y-181252380D02*
X477526190Y-181252380D01*
X477430952Y-181204761D01*
X477383333Y-181157142D01*
X477288095Y-181014285D01*
X477240476Y-180823809D01*
X477240476Y-180442857D01*
X477288095Y-180347619D01*
X477335714Y-180300000D01*
X477430952Y-180252380D01*
X477621428Y-180252380D01*
X477716666Y-180300000D01*
X477764285Y-180347619D01*
X477811904Y-180442857D01*
X477811904Y-180680952D01*
X477764285Y-180776190D01*
X477716666Y-180823809D01*
X477621428Y-180871428D01*
X477430952Y-180871428D01*
X477335714Y-180823809D01*
X477288095Y-180776190D01*
X477240476Y-180680952D01*
%TO.C,SW50*%
X99859523Y-181204761D02*
X99716666Y-181252380D01*
X99478571Y-181252380D01*
X99383333Y-181204761D01*
X99335714Y-181157142D01*
X99288095Y-181061904D01*
X99288095Y-180966666D01*
X99335714Y-180871428D01*
X99383333Y-180823809D01*
X99478571Y-180776190D01*
X99669047Y-180728571D01*
X99764285Y-180680952D01*
X99811904Y-180633333D01*
X99859523Y-180538095D01*
X99859523Y-180442857D01*
X99811904Y-180347619D01*
X99764285Y-180300000D01*
X99669047Y-180252380D01*
X99430952Y-180252380D01*
X99288095Y-180300000D01*
X98954761Y-180252380D02*
X98716666Y-181252380D01*
X98526190Y-180538095D01*
X98335714Y-181252380D01*
X98097619Y-180252380D01*
X97240476Y-180252380D02*
X97716666Y-180252380D01*
X97764285Y-180728571D01*
X97716666Y-180680952D01*
X97621428Y-180633333D01*
X97383333Y-180633333D01*
X97288095Y-180680952D01*
X97240476Y-180728571D01*
X97192857Y-180823809D01*
X97192857Y-181061904D01*
X97240476Y-181157142D01*
X97288095Y-181204761D01*
X97383333Y-181252380D01*
X97621428Y-181252380D01*
X97716666Y-181204761D01*
X97764285Y-181157142D01*
X96573809Y-180252380D02*
X96478571Y-180252380D01*
X96383333Y-180300000D01*
X96335714Y-180347619D01*
X96288095Y-180442857D01*
X96240476Y-180633333D01*
X96240476Y-180871428D01*
X96288095Y-181061904D01*
X96335714Y-181157142D01*
X96383333Y-181204761D01*
X96478571Y-181252380D01*
X96573809Y-181252380D01*
X96669047Y-181204761D01*
X96716666Y-181157142D01*
X96764285Y-181061904D01*
X96811904Y-180871428D01*
X96811904Y-180633333D01*
X96764285Y-180442857D01*
X96716666Y-180347619D01*
X96669047Y-180300000D01*
X96573809Y-180252380D01*
%TO.C,SW44*%
X442759523Y-162154761D02*
X442616666Y-162202380D01*
X442378571Y-162202380D01*
X442283333Y-162154761D01*
X442235714Y-162107142D01*
X442188095Y-162011904D01*
X442188095Y-161916666D01*
X442235714Y-161821428D01*
X442283333Y-161773809D01*
X442378571Y-161726190D01*
X442569047Y-161678571D01*
X442664285Y-161630952D01*
X442711904Y-161583333D01*
X442759523Y-161488095D01*
X442759523Y-161392857D01*
X442711904Y-161297619D01*
X442664285Y-161250000D01*
X442569047Y-161202380D01*
X442330952Y-161202380D01*
X442188095Y-161250000D01*
X441854761Y-161202380D02*
X441616666Y-162202380D01*
X441426190Y-161488095D01*
X441235714Y-162202380D01*
X440997619Y-161202380D01*
X440188095Y-161535714D02*
X440188095Y-162202380D01*
X440426190Y-161154761D02*
X440664285Y-161869047D01*
X440045238Y-161869047D01*
X439235714Y-161535714D02*
X439235714Y-162202380D01*
X439473809Y-161154761D02*
X439711904Y-161869047D01*
X439092857Y-161869047D01*
%TO.C,SW115*%
X481335714Y-219304761D02*
X481192857Y-219352380D01*
X480954761Y-219352380D01*
X480859523Y-219304761D01*
X480811904Y-219257142D01*
X480764285Y-219161904D01*
X480764285Y-219066666D01*
X480811904Y-218971428D01*
X480859523Y-218923809D01*
X480954761Y-218876190D01*
X481145238Y-218828571D01*
X481240476Y-218780952D01*
X481288095Y-218733333D01*
X481335714Y-218638095D01*
X481335714Y-218542857D01*
X481288095Y-218447619D01*
X481240476Y-218400000D01*
X481145238Y-218352380D01*
X480907142Y-218352380D01*
X480764285Y-218400000D01*
X480430952Y-218352380D02*
X480192857Y-219352380D01*
X480002380Y-218638095D01*
X479811904Y-219352380D01*
X479573809Y-218352380D01*
X478669047Y-219352380D02*
X479240476Y-219352380D01*
X478954761Y-219352380D02*
X478954761Y-218352380D01*
X479050000Y-218495238D01*
X479145238Y-218590476D01*
X479240476Y-218638095D01*
X477716666Y-219352380D02*
X478288095Y-219352380D01*
X478002380Y-219352380D02*
X478002380Y-218352380D01*
X478097619Y-218495238D01*
X478192857Y-218590476D01*
X478288095Y-218638095D01*
X476811904Y-218352380D02*
X477288095Y-218352380D01*
X477335714Y-218828571D01*
X477288095Y-218780952D01*
X477192857Y-218733333D01*
X476954761Y-218733333D01*
X476859523Y-218780952D01*
X476811904Y-218828571D01*
X476764285Y-218923809D01*
X476764285Y-219161904D01*
X476811904Y-219257142D01*
X476859523Y-219304761D01*
X476954761Y-219352380D01*
X477192857Y-219352380D01*
X477288095Y-219304761D01*
X477335714Y-219257142D01*
%TO.C,SW16*%
X366559523Y-143104761D02*
X366416666Y-143152380D01*
X366178571Y-143152380D01*
X366083333Y-143104761D01*
X366035714Y-143057142D01*
X365988095Y-142961904D01*
X365988095Y-142866666D01*
X366035714Y-142771428D01*
X366083333Y-142723809D01*
X366178571Y-142676190D01*
X366369047Y-142628571D01*
X366464285Y-142580952D01*
X366511904Y-142533333D01*
X366559523Y-142438095D01*
X366559523Y-142342857D01*
X366511904Y-142247619D01*
X366464285Y-142200000D01*
X366369047Y-142152380D01*
X366130952Y-142152380D01*
X365988095Y-142200000D01*
X365654761Y-142152380D02*
X365416666Y-143152380D01*
X365226190Y-142438095D01*
X365035714Y-143152380D01*
X364797619Y-142152380D01*
X363892857Y-143152380D02*
X364464285Y-143152380D01*
X364178571Y-143152380D02*
X364178571Y-142152380D01*
X364273809Y-142295238D01*
X364369047Y-142390476D01*
X364464285Y-142438095D01*
X363035714Y-142152380D02*
X363226190Y-142152380D01*
X363321428Y-142200000D01*
X363369047Y-142247619D01*
X363464285Y-142390476D01*
X363511904Y-142580952D01*
X363511904Y-142961904D01*
X363464285Y-143057142D01*
X363416666Y-143104761D01*
X363321428Y-143152380D01*
X363130952Y-143152380D01*
X363035714Y-143104761D01*
X362988095Y-143057142D01*
X362940476Y-142961904D01*
X362940476Y-142723809D01*
X362988095Y-142628571D01*
X363035714Y-142580952D01*
X363130952Y-142533333D01*
X363321428Y-142533333D01*
X363416666Y-142580952D01*
X363464285Y-142628571D01*
X363511904Y-142723809D01*
%TO.C,SW19*%
X423709523Y-143104761D02*
X423566666Y-143152380D01*
X423328571Y-143152380D01*
X423233333Y-143104761D01*
X423185714Y-143057142D01*
X423138095Y-142961904D01*
X423138095Y-142866666D01*
X423185714Y-142771428D01*
X423233333Y-142723809D01*
X423328571Y-142676190D01*
X423519047Y-142628571D01*
X423614285Y-142580952D01*
X423661904Y-142533333D01*
X423709523Y-142438095D01*
X423709523Y-142342857D01*
X423661904Y-142247619D01*
X423614285Y-142200000D01*
X423519047Y-142152380D01*
X423280952Y-142152380D01*
X423138095Y-142200000D01*
X422804761Y-142152380D02*
X422566666Y-143152380D01*
X422376190Y-142438095D01*
X422185714Y-143152380D01*
X421947619Y-142152380D01*
X421042857Y-143152380D02*
X421614285Y-143152380D01*
X421328571Y-143152380D02*
X421328571Y-142152380D01*
X421423809Y-142295238D01*
X421519047Y-142390476D01*
X421614285Y-142438095D01*
X420566666Y-143152380D02*
X420376190Y-143152380D01*
X420280952Y-143104761D01*
X420233333Y-143057142D01*
X420138095Y-142914285D01*
X420090476Y-142723809D01*
X420090476Y-142342857D01*
X420138095Y-142247619D01*
X420185714Y-142200000D01*
X420280952Y-142152380D01*
X420471428Y-142152380D01*
X420566666Y-142200000D01*
X420614285Y-142247619D01*
X420661904Y-142342857D01*
X420661904Y-142580952D01*
X420614285Y-142676190D01*
X420566666Y-142723809D01*
X420471428Y-142771428D01*
X420280952Y-142771428D01*
X420185714Y-142723809D01*
X420138095Y-142676190D01*
X420090476Y-142580952D01*
%TO.C,SW120*%
X119385714Y-238354761D02*
X119242857Y-238402380D01*
X119004761Y-238402380D01*
X118909523Y-238354761D01*
X118861904Y-238307142D01*
X118814285Y-238211904D01*
X118814285Y-238116666D01*
X118861904Y-238021428D01*
X118909523Y-237973809D01*
X119004761Y-237926190D01*
X119195238Y-237878571D01*
X119290476Y-237830952D01*
X119338095Y-237783333D01*
X119385714Y-237688095D01*
X119385714Y-237592857D01*
X119338095Y-237497619D01*
X119290476Y-237450000D01*
X119195238Y-237402380D01*
X118957142Y-237402380D01*
X118814285Y-237450000D01*
X118480952Y-237402380D02*
X118242857Y-238402380D01*
X118052380Y-237688095D01*
X117861904Y-238402380D01*
X117623809Y-237402380D01*
X116719047Y-238402380D02*
X117290476Y-238402380D01*
X117004761Y-238402380D02*
X117004761Y-237402380D01*
X117100000Y-237545238D01*
X117195238Y-237640476D01*
X117290476Y-237688095D01*
X116338095Y-237497619D02*
X116290476Y-237450000D01*
X116195238Y-237402380D01*
X115957142Y-237402380D01*
X115861904Y-237450000D01*
X115814285Y-237497619D01*
X115766666Y-237592857D01*
X115766666Y-237688095D01*
X115814285Y-237830952D01*
X116385714Y-238402380D01*
X115766666Y-238402380D01*
X115147619Y-237402380D02*
X115052380Y-237402380D01*
X114957142Y-237450000D01*
X114909523Y-237497619D01*
X114861904Y-237592857D01*
X114814285Y-237783333D01*
X114814285Y-238021428D01*
X114861904Y-238211904D01*
X114909523Y-238307142D01*
X114957142Y-238354761D01*
X115052380Y-238402380D01*
X115147619Y-238402380D01*
X115242857Y-238354761D01*
X115290476Y-238307142D01*
X115338095Y-238211904D01*
X115385714Y-238021428D01*
X115385714Y-237783333D01*
X115338095Y-237592857D01*
X115290476Y-237497619D01*
X115242857Y-237450000D01*
X115147619Y-237402380D01*
%TO.C,SW49*%
X80809523Y-181204761D02*
X80666666Y-181252380D01*
X80428571Y-181252380D01*
X80333333Y-181204761D01*
X80285714Y-181157142D01*
X80238095Y-181061904D01*
X80238095Y-180966666D01*
X80285714Y-180871428D01*
X80333333Y-180823809D01*
X80428571Y-180776190D01*
X80619047Y-180728571D01*
X80714285Y-180680952D01*
X80761904Y-180633333D01*
X80809523Y-180538095D01*
X80809523Y-180442857D01*
X80761904Y-180347619D01*
X80714285Y-180300000D01*
X80619047Y-180252380D01*
X80380952Y-180252380D01*
X80238095Y-180300000D01*
X79904761Y-180252380D02*
X79666666Y-181252380D01*
X79476190Y-180538095D01*
X79285714Y-181252380D01*
X79047619Y-180252380D01*
X78238095Y-180585714D02*
X78238095Y-181252380D01*
X78476190Y-180204761D02*
X78714285Y-180919047D01*
X78095238Y-180919047D01*
X77666666Y-181252380D02*
X77476190Y-181252380D01*
X77380952Y-181204761D01*
X77333333Y-181157142D01*
X77238095Y-181014285D01*
X77190476Y-180823809D01*
X77190476Y-180442857D01*
X77238095Y-180347619D01*
X77285714Y-180300000D01*
X77380952Y-180252380D01*
X77571428Y-180252380D01*
X77666666Y-180300000D01*
X77714285Y-180347619D01*
X77761904Y-180442857D01*
X77761904Y-180680952D01*
X77714285Y-180776190D01*
X77666666Y-180823809D01*
X77571428Y-180871428D01*
X77380952Y-180871428D01*
X77285714Y-180823809D01*
X77238095Y-180776190D01*
X77190476Y-180680952D01*
%TO.C,SW70*%
X499909523Y-181204761D02*
X499766666Y-181252380D01*
X499528571Y-181252380D01*
X499433333Y-181204761D01*
X499385714Y-181157142D01*
X499338095Y-181061904D01*
X499338095Y-180966666D01*
X499385714Y-180871428D01*
X499433333Y-180823809D01*
X499528571Y-180776190D01*
X499719047Y-180728571D01*
X499814285Y-180680952D01*
X499861904Y-180633333D01*
X499909523Y-180538095D01*
X499909523Y-180442857D01*
X499861904Y-180347619D01*
X499814285Y-180300000D01*
X499719047Y-180252380D01*
X499480952Y-180252380D01*
X499338095Y-180300000D01*
X499004761Y-180252380D02*
X498766666Y-181252380D01*
X498576190Y-180538095D01*
X498385714Y-181252380D01*
X498147619Y-180252380D01*
X497861904Y-180252380D02*
X497195238Y-180252380D01*
X497623809Y-181252380D01*
X496623809Y-180252380D02*
X496528571Y-180252380D01*
X496433333Y-180300000D01*
X496385714Y-180347619D01*
X496338095Y-180442857D01*
X496290476Y-180633333D01*
X496290476Y-180871428D01*
X496338095Y-181061904D01*
X496385714Y-181157142D01*
X496433333Y-181204761D01*
X496528571Y-181252380D01*
X496623809Y-181252380D01*
X496719047Y-181204761D01*
X496766666Y-181157142D01*
X496814285Y-181061904D01*
X496861904Y-180871428D01*
X496861904Y-180633333D01*
X496814285Y-180442857D01*
X496766666Y-180347619D01*
X496719047Y-180300000D01*
X496623809Y-180252380D01*
%TO.C,SW28*%
X137959523Y-162154761D02*
X137816666Y-162202380D01*
X137578571Y-162202380D01*
X137483333Y-162154761D01*
X137435714Y-162107142D01*
X137388095Y-162011904D01*
X137388095Y-161916666D01*
X137435714Y-161821428D01*
X137483333Y-161773809D01*
X137578571Y-161726190D01*
X137769047Y-161678571D01*
X137864285Y-161630952D01*
X137911904Y-161583333D01*
X137959523Y-161488095D01*
X137959523Y-161392857D01*
X137911904Y-161297619D01*
X137864285Y-161250000D01*
X137769047Y-161202380D01*
X137530952Y-161202380D01*
X137388095Y-161250000D01*
X137054761Y-161202380D02*
X136816666Y-162202380D01*
X136626190Y-161488095D01*
X136435714Y-162202380D01*
X136197619Y-161202380D01*
X135864285Y-161297619D02*
X135816666Y-161250000D01*
X135721428Y-161202380D01*
X135483333Y-161202380D01*
X135388095Y-161250000D01*
X135340476Y-161297619D01*
X135292857Y-161392857D01*
X135292857Y-161488095D01*
X135340476Y-161630952D01*
X135911904Y-162202380D01*
X135292857Y-162202380D01*
X134721428Y-161630952D02*
X134816666Y-161583333D01*
X134864285Y-161535714D01*
X134911904Y-161440476D01*
X134911904Y-161392857D01*
X134864285Y-161297619D01*
X134816666Y-161250000D01*
X134721428Y-161202380D01*
X134530952Y-161202380D01*
X134435714Y-161250000D01*
X134388095Y-161297619D01*
X134340476Y-161392857D01*
X134340476Y-161440476D01*
X134388095Y-161535714D01*
X134435714Y-161583333D01*
X134530952Y-161630952D01*
X134721428Y-161630952D01*
X134816666Y-161678571D01*
X134864285Y-161726190D01*
X134911904Y-161821428D01*
X134911904Y-162011904D01*
X134864285Y-162107142D01*
X134816666Y-162154761D01*
X134721428Y-162202380D01*
X134530952Y-162202380D01*
X134435714Y-162154761D01*
X134388095Y-162107142D01*
X134340476Y-162011904D01*
X134340476Y-161821428D01*
X134388095Y-161726190D01*
X134435714Y-161678571D01*
X134530952Y-161630952D01*
%TO.C,SW54*%
X185584523Y-181204761D02*
X185441666Y-181252380D01*
X185203571Y-181252380D01*
X185108333Y-181204761D01*
X185060714Y-181157142D01*
X185013095Y-181061904D01*
X185013095Y-180966666D01*
X185060714Y-180871428D01*
X185108333Y-180823809D01*
X185203571Y-180776190D01*
X185394047Y-180728571D01*
X185489285Y-180680952D01*
X185536904Y-180633333D01*
X185584523Y-180538095D01*
X185584523Y-180442857D01*
X185536904Y-180347619D01*
X185489285Y-180300000D01*
X185394047Y-180252380D01*
X185155952Y-180252380D01*
X185013095Y-180300000D01*
X184679761Y-180252380D02*
X184441666Y-181252380D01*
X184251190Y-180538095D01*
X184060714Y-181252380D01*
X183822619Y-180252380D01*
X182965476Y-180252380D02*
X183441666Y-180252380D01*
X183489285Y-180728571D01*
X183441666Y-180680952D01*
X183346428Y-180633333D01*
X183108333Y-180633333D01*
X183013095Y-180680952D01*
X182965476Y-180728571D01*
X182917857Y-180823809D01*
X182917857Y-181061904D01*
X182965476Y-181157142D01*
X183013095Y-181204761D01*
X183108333Y-181252380D01*
X183346428Y-181252380D01*
X183441666Y-181204761D01*
X183489285Y-181157142D01*
X182060714Y-180585714D02*
X182060714Y-181252380D01*
X182298809Y-180204761D02*
X182536904Y-180919047D01*
X181917857Y-180919047D01*
%TO.C,SW67*%
X433234523Y-181204761D02*
X433091666Y-181252380D01*
X432853571Y-181252380D01*
X432758333Y-181204761D01*
X432710714Y-181157142D01*
X432663095Y-181061904D01*
X432663095Y-180966666D01*
X432710714Y-180871428D01*
X432758333Y-180823809D01*
X432853571Y-180776190D01*
X433044047Y-180728571D01*
X433139285Y-180680952D01*
X433186904Y-180633333D01*
X433234523Y-180538095D01*
X433234523Y-180442857D01*
X433186904Y-180347619D01*
X433139285Y-180300000D01*
X433044047Y-180252380D01*
X432805952Y-180252380D01*
X432663095Y-180300000D01*
X432329761Y-180252380D02*
X432091666Y-181252380D01*
X431901190Y-180538095D01*
X431710714Y-181252380D01*
X431472619Y-180252380D01*
X430663095Y-180252380D02*
X430853571Y-180252380D01*
X430948809Y-180300000D01*
X430996428Y-180347619D01*
X431091666Y-180490476D01*
X431139285Y-180680952D01*
X431139285Y-181061904D01*
X431091666Y-181157142D01*
X431044047Y-181204761D01*
X430948809Y-181252380D01*
X430758333Y-181252380D01*
X430663095Y-181204761D01*
X430615476Y-181157142D01*
X430567857Y-181061904D01*
X430567857Y-180823809D01*
X430615476Y-180728571D01*
X430663095Y-180680952D01*
X430758333Y-180633333D01*
X430948809Y-180633333D01*
X431044047Y-180680952D01*
X431091666Y-180728571D01*
X431139285Y-180823809D01*
X430234523Y-180252380D02*
X429567857Y-180252380D01*
X429996428Y-181252380D01*
%TO.C,SW56*%
X223684523Y-181204761D02*
X223541666Y-181252380D01*
X223303571Y-181252380D01*
X223208333Y-181204761D01*
X223160714Y-181157142D01*
X223113095Y-181061904D01*
X223113095Y-180966666D01*
X223160714Y-180871428D01*
X223208333Y-180823809D01*
X223303571Y-180776190D01*
X223494047Y-180728571D01*
X223589285Y-180680952D01*
X223636904Y-180633333D01*
X223684523Y-180538095D01*
X223684523Y-180442857D01*
X223636904Y-180347619D01*
X223589285Y-180300000D01*
X223494047Y-180252380D01*
X223255952Y-180252380D01*
X223113095Y-180300000D01*
X222779761Y-180252380D02*
X222541666Y-181252380D01*
X222351190Y-180538095D01*
X222160714Y-181252380D01*
X221922619Y-180252380D01*
X221065476Y-180252380D02*
X221541666Y-180252380D01*
X221589285Y-180728571D01*
X221541666Y-180680952D01*
X221446428Y-180633333D01*
X221208333Y-180633333D01*
X221113095Y-180680952D01*
X221065476Y-180728571D01*
X221017857Y-180823809D01*
X221017857Y-181061904D01*
X221065476Y-181157142D01*
X221113095Y-181204761D01*
X221208333Y-181252380D01*
X221446428Y-181252380D01*
X221541666Y-181204761D01*
X221589285Y-181157142D01*
X220160714Y-180252380D02*
X220351190Y-180252380D01*
X220446428Y-180300000D01*
X220494047Y-180347619D01*
X220589285Y-180490476D01*
X220636904Y-180680952D01*
X220636904Y-181061904D01*
X220589285Y-181157142D01*
X220541666Y-181204761D01*
X220446428Y-181252380D01*
X220255952Y-181252380D01*
X220160714Y-181204761D01*
X220113095Y-181157142D01*
X220065476Y-181061904D01*
X220065476Y-180823809D01*
X220113095Y-180728571D01*
X220160714Y-180680952D01*
X220255952Y-180633333D01*
X220446428Y-180633333D01*
X220541666Y-180680952D01*
X220589285Y-180728571D01*
X220636904Y-180823809D01*
%TO.C,SW89*%
X418947023Y-200254761D02*
X418804166Y-200302380D01*
X418566071Y-200302380D01*
X418470833Y-200254761D01*
X418423214Y-200207142D01*
X418375595Y-200111904D01*
X418375595Y-200016666D01*
X418423214Y-199921428D01*
X418470833Y-199873809D01*
X418566071Y-199826190D01*
X418756547Y-199778571D01*
X418851785Y-199730952D01*
X418899404Y-199683333D01*
X418947023Y-199588095D01*
X418947023Y-199492857D01*
X418899404Y-199397619D01*
X418851785Y-199350000D01*
X418756547Y-199302380D01*
X418518452Y-199302380D01*
X418375595Y-199350000D01*
X418042261Y-199302380D02*
X417804166Y-200302380D01*
X417613690Y-199588095D01*
X417423214Y-200302380D01*
X417185119Y-199302380D01*
X416661309Y-199730952D02*
X416756547Y-199683333D01*
X416804166Y-199635714D01*
X416851785Y-199540476D01*
X416851785Y-199492857D01*
X416804166Y-199397619D01*
X416756547Y-199350000D01*
X416661309Y-199302380D01*
X416470833Y-199302380D01*
X416375595Y-199350000D01*
X416327976Y-199397619D01*
X416280357Y-199492857D01*
X416280357Y-199540476D01*
X416327976Y-199635714D01*
X416375595Y-199683333D01*
X416470833Y-199730952D01*
X416661309Y-199730952D01*
X416756547Y-199778571D01*
X416804166Y-199826190D01*
X416851785Y-199921428D01*
X416851785Y-200111904D01*
X416804166Y-200207142D01*
X416756547Y-200254761D01*
X416661309Y-200302380D01*
X416470833Y-200302380D01*
X416375595Y-200254761D01*
X416327976Y-200207142D01*
X416280357Y-200111904D01*
X416280357Y-199921428D01*
X416327976Y-199826190D01*
X416375595Y-199778571D01*
X416470833Y-199730952D01*
X415804166Y-200302380D02*
X415613690Y-200302380D01*
X415518452Y-200254761D01*
X415470833Y-200207142D01*
X415375595Y-200064285D01*
X415327976Y-199873809D01*
X415327976Y-199492857D01*
X415375595Y-199397619D01*
X415423214Y-199350000D01*
X415518452Y-199302380D01*
X415708928Y-199302380D01*
X415804166Y-199350000D01*
X415851785Y-199397619D01*
X415899404Y-199492857D01*
X415899404Y-199730952D01*
X415851785Y-199826190D01*
X415804166Y-199873809D01*
X415708928Y-199921428D01*
X415518452Y-199921428D01*
X415423214Y-199873809D01*
X415375595Y-199826190D01*
X415327976Y-199730952D01*
%TO.C,SW48*%
X518959523Y-162154761D02*
X518816666Y-162202380D01*
X518578571Y-162202380D01*
X518483333Y-162154761D01*
X518435714Y-162107142D01*
X518388095Y-162011904D01*
X518388095Y-161916666D01*
X518435714Y-161821428D01*
X518483333Y-161773809D01*
X518578571Y-161726190D01*
X518769047Y-161678571D01*
X518864285Y-161630952D01*
X518911904Y-161583333D01*
X518959523Y-161488095D01*
X518959523Y-161392857D01*
X518911904Y-161297619D01*
X518864285Y-161250000D01*
X518769047Y-161202380D01*
X518530952Y-161202380D01*
X518388095Y-161250000D01*
X518054761Y-161202380D02*
X517816666Y-162202380D01*
X517626190Y-161488095D01*
X517435714Y-162202380D01*
X517197619Y-161202380D01*
X516388095Y-161535714D02*
X516388095Y-162202380D01*
X516626190Y-161154761D02*
X516864285Y-161869047D01*
X516245238Y-161869047D01*
X515721428Y-161630952D02*
X515816666Y-161583333D01*
X515864285Y-161535714D01*
X515911904Y-161440476D01*
X515911904Y-161392857D01*
X515864285Y-161297619D01*
X515816666Y-161250000D01*
X515721428Y-161202380D01*
X515530952Y-161202380D01*
X515435714Y-161250000D01*
X515388095Y-161297619D01*
X515340476Y-161392857D01*
X515340476Y-161440476D01*
X515388095Y-161535714D01*
X515435714Y-161583333D01*
X515530952Y-161630952D01*
X515721428Y-161630952D01*
X515816666Y-161678571D01*
X515864285Y-161726190D01*
X515911904Y-161821428D01*
X515911904Y-162011904D01*
X515864285Y-162107142D01*
X515816666Y-162154761D01*
X515721428Y-162202380D01*
X515530952Y-162202380D01*
X515435714Y-162154761D01*
X515388095Y-162107142D01*
X515340476Y-162011904D01*
X515340476Y-161821428D01*
X515388095Y-161726190D01*
X515435714Y-161678571D01*
X515530952Y-161630952D01*
%TO.C,SW122*%
X181298214Y-238354761D02*
X181155357Y-238402380D01*
X180917261Y-238402380D01*
X180822023Y-238354761D01*
X180774404Y-238307142D01*
X180726785Y-238211904D01*
X180726785Y-238116666D01*
X180774404Y-238021428D01*
X180822023Y-237973809D01*
X180917261Y-237926190D01*
X181107738Y-237878571D01*
X181202976Y-237830952D01*
X181250595Y-237783333D01*
X181298214Y-237688095D01*
X181298214Y-237592857D01*
X181250595Y-237497619D01*
X181202976Y-237450000D01*
X181107738Y-237402380D01*
X180869642Y-237402380D01*
X180726785Y-237450000D01*
X180393452Y-237402380D02*
X180155357Y-238402380D01*
X179964880Y-237688095D01*
X179774404Y-238402380D01*
X179536309Y-237402380D01*
X178631547Y-238402380D02*
X179202976Y-238402380D01*
X178917261Y-238402380D02*
X178917261Y-237402380D01*
X179012500Y-237545238D01*
X179107738Y-237640476D01*
X179202976Y-237688095D01*
X178250595Y-237497619D02*
X178202976Y-237450000D01*
X178107738Y-237402380D01*
X177869642Y-237402380D01*
X177774404Y-237450000D01*
X177726785Y-237497619D01*
X177679166Y-237592857D01*
X177679166Y-237688095D01*
X177726785Y-237830952D01*
X178298214Y-238402380D01*
X177679166Y-238402380D01*
X177298214Y-237497619D02*
X177250595Y-237450000D01*
X177155357Y-237402380D01*
X176917261Y-237402380D01*
X176822023Y-237450000D01*
X176774404Y-237497619D01*
X176726785Y-237592857D01*
X176726785Y-237688095D01*
X176774404Y-237830952D01*
X177345833Y-238402380D01*
X176726785Y-238402380D01*
%TO.C,SW84*%
X323697023Y-200254761D02*
X323554166Y-200302380D01*
X323316071Y-200302380D01*
X323220833Y-200254761D01*
X323173214Y-200207142D01*
X323125595Y-200111904D01*
X323125595Y-200016666D01*
X323173214Y-199921428D01*
X323220833Y-199873809D01*
X323316071Y-199826190D01*
X323506547Y-199778571D01*
X323601785Y-199730952D01*
X323649404Y-199683333D01*
X323697023Y-199588095D01*
X323697023Y-199492857D01*
X323649404Y-199397619D01*
X323601785Y-199350000D01*
X323506547Y-199302380D01*
X323268452Y-199302380D01*
X323125595Y-199350000D01*
X322792261Y-199302380D02*
X322554166Y-200302380D01*
X322363690Y-199588095D01*
X322173214Y-200302380D01*
X321935119Y-199302380D01*
X321411309Y-199730952D02*
X321506547Y-199683333D01*
X321554166Y-199635714D01*
X321601785Y-199540476D01*
X321601785Y-199492857D01*
X321554166Y-199397619D01*
X321506547Y-199350000D01*
X321411309Y-199302380D01*
X321220833Y-199302380D01*
X321125595Y-199350000D01*
X321077976Y-199397619D01*
X321030357Y-199492857D01*
X321030357Y-199540476D01*
X321077976Y-199635714D01*
X321125595Y-199683333D01*
X321220833Y-199730952D01*
X321411309Y-199730952D01*
X321506547Y-199778571D01*
X321554166Y-199826190D01*
X321601785Y-199921428D01*
X321601785Y-200111904D01*
X321554166Y-200207142D01*
X321506547Y-200254761D01*
X321411309Y-200302380D01*
X321220833Y-200302380D01*
X321125595Y-200254761D01*
X321077976Y-200207142D01*
X321030357Y-200111904D01*
X321030357Y-199921428D01*
X321077976Y-199826190D01*
X321125595Y-199778571D01*
X321220833Y-199730952D01*
X320173214Y-199635714D02*
X320173214Y-200302380D01*
X320411309Y-199254761D02*
X320649404Y-199969047D01*
X320030357Y-199969047D01*
%TO.C,SW123*%
X286073214Y-238354761D02*
X285930357Y-238402380D01*
X285692261Y-238402380D01*
X285597023Y-238354761D01*
X285549404Y-238307142D01*
X285501785Y-238211904D01*
X285501785Y-238116666D01*
X285549404Y-238021428D01*
X285597023Y-237973809D01*
X285692261Y-237926190D01*
X285882738Y-237878571D01*
X285977976Y-237830952D01*
X286025595Y-237783333D01*
X286073214Y-237688095D01*
X286073214Y-237592857D01*
X286025595Y-237497619D01*
X285977976Y-237450000D01*
X285882738Y-237402380D01*
X285644642Y-237402380D01*
X285501785Y-237450000D01*
X285168452Y-237402380D02*
X284930357Y-238402380D01*
X284739880Y-237688095D01*
X284549404Y-238402380D01*
X284311309Y-237402380D01*
X283406547Y-238402380D02*
X283977976Y-238402380D01*
X283692261Y-238402380D02*
X283692261Y-237402380D01*
X283787500Y-237545238D01*
X283882738Y-237640476D01*
X283977976Y-237688095D01*
X283025595Y-237497619D02*
X282977976Y-237450000D01*
X282882738Y-237402380D01*
X282644642Y-237402380D01*
X282549404Y-237450000D01*
X282501785Y-237497619D01*
X282454166Y-237592857D01*
X282454166Y-237688095D01*
X282501785Y-237830952D01*
X283073214Y-238402380D01*
X282454166Y-238402380D01*
X282120833Y-237402380D02*
X281501785Y-237402380D01*
X281835119Y-237783333D01*
X281692261Y-237783333D01*
X281597023Y-237830952D01*
X281549404Y-237878571D01*
X281501785Y-237973809D01*
X281501785Y-238211904D01*
X281549404Y-238307142D01*
X281597023Y-238354761D01*
X281692261Y-238402380D01*
X281977976Y-238402380D01*
X282073214Y-238354761D01*
X282120833Y-238307142D01*
%TO.C,SW62*%
X337984523Y-181204761D02*
X337841666Y-181252380D01*
X337603571Y-181252380D01*
X337508333Y-181204761D01*
X337460714Y-181157142D01*
X337413095Y-181061904D01*
X337413095Y-180966666D01*
X337460714Y-180871428D01*
X337508333Y-180823809D01*
X337603571Y-180776190D01*
X337794047Y-180728571D01*
X337889285Y-180680952D01*
X337936904Y-180633333D01*
X337984523Y-180538095D01*
X337984523Y-180442857D01*
X337936904Y-180347619D01*
X337889285Y-180300000D01*
X337794047Y-180252380D01*
X337555952Y-180252380D01*
X337413095Y-180300000D01*
X337079761Y-180252380D02*
X336841666Y-181252380D01*
X336651190Y-180538095D01*
X336460714Y-181252380D01*
X336222619Y-180252380D01*
X335413095Y-180252380D02*
X335603571Y-180252380D01*
X335698809Y-180300000D01*
X335746428Y-180347619D01*
X335841666Y-180490476D01*
X335889285Y-180680952D01*
X335889285Y-181061904D01*
X335841666Y-181157142D01*
X335794047Y-181204761D01*
X335698809Y-181252380D01*
X335508333Y-181252380D01*
X335413095Y-181204761D01*
X335365476Y-181157142D01*
X335317857Y-181061904D01*
X335317857Y-180823809D01*
X335365476Y-180728571D01*
X335413095Y-180680952D01*
X335508333Y-180633333D01*
X335698809Y-180633333D01*
X335794047Y-180680952D01*
X335841666Y-180728571D01*
X335889285Y-180823809D01*
X334936904Y-180347619D02*
X334889285Y-180300000D01*
X334794047Y-180252380D01*
X334555952Y-180252380D01*
X334460714Y-180300000D01*
X334413095Y-180347619D01*
X334365476Y-180442857D01*
X334365476Y-180538095D01*
X334413095Y-180680952D01*
X334984523Y-181252380D01*
X334365476Y-181252380D01*
%TO.C,SW100*%
X181298214Y-219304761D02*
X181155357Y-219352380D01*
X180917261Y-219352380D01*
X180822023Y-219304761D01*
X180774404Y-219257142D01*
X180726785Y-219161904D01*
X180726785Y-219066666D01*
X180774404Y-218971428D01*
X180822023Y-218923809D01*
X180917261Y-218876190D01*
X181107738Y-218828571D01*
X181202976Y-218780952D01*
X181250595Y-218733333D01*
X181298214Y-218638095D01*
X181298214Y-218542857D01*
X181250595Y-218447619D01*
X181202976Y-218400000D01*
X181107738Y-218352380D01*
X180869642Y-218352380D01*
X180726785Y-218400000D01*
X180393452Y-218352380D02*
X180155357Y-219352380D01*
X179964880Y-218638095D01*
X179774404Y-219352380D01*
X179536309Y-218352380D01*
X178631547Y-219352380D02*
X179202976Y-219352380D01*
X178917261Y-219352380D02*
X178917261Y-218352380D01*
X179012500Y-218495238D01*
X179107738Y-218590476D01*
X179202976Y-218638095D01*
X178012500Y-218352380D02*
X177917261Y-218352380D01*
X177822023Y-218400000D01*
X177774404Y-218447619D01*
X177726785Y-218542857D01*
X177679166Y-218733333D01*
X177679166Y-218971428D01*
X177726785Y-219161904D01*
X177774404Y-219257142D01*
X177822023Y-219304761D01*
X177917261Y-219352380D01*
X178012500Y-219352380D01*
X178107738Y-219304761D01*
X178155357Y-219257142D01*
X178202976Y-219161904D01*
X178250595Y-218971428D01*
X178250595Y-218733333D01*
X178202976Y-218542857D01*
X178155357Y-218447619D01*
X178107738Y-218400000D01*
X178012500Y-218352380D01*
X177060119Y-218352380D02*
X176964880Y-218352380D01*
X176869642Y-218400000D01*
X176822023Y-218447619D01*
X176774404Y-218542857D01*
X176726785Y-218733333D01*
X176726785Y-218971428D01*
X176774404Y-219161904D01*
X176822023Y-219257142D01*
X176869642Y-219304761D01*
X176964880Y-219352380D01*
X177060119Y-219352380D01*
X177155357Y-219304761D01*
X177202976Y-219257142D01*
X177250595Y-219161904D01*
X177298214Y-218971428D01*
X177298214Y-218733333D01*
X177250595Y-218542857D01*
X177202976Y-218447619D01*
X177155357Y-218400000D01*
X177060119Y-218352380D01*
%TO.C,SW22*%
X480859523Y-143104761D02*
X480716666Y-143152380D01*
X480478571Y-143152380D01*
X480383333Y-143104761D01*
X480335714Y-143057142D01*
X480288095Y-142961904D01*
X480288095Y-142866666D01*
X480335714Y-142771428D01*
X480383333Y-142723809D01*
X480478571Y-142676190D01*
X480669047Y-142628571D01*
X480764285Y-142580952D01*
X480811904Y-142533333D01*
X480859523Y-142438095D01*
X480859523Y-142342857D01*
X480811904Y-142247619D01*
X480764285Y-142200000D01*
X480669047Y-142152380D01*
X480430952Y-142152380D01*
X480288095Y-142200000D01*
X479954761Y-142152380D02*
X479716666Y-143152380D01*
X479526190Y-142438095D01*
X479335714Y-143152380D01*
X479097619Y-142152380D01*
X478764285Y-142247619D02*
X478716666Y-142200000D01*
X478621428Y-142152380D01*
X478383333Y-142152380D01*
X478288095Y-142200000D01*
X478240476Y-142247619D01*
X478192857Y-142342857D01*
X478192857Y-142438095D01*
X478240476Y-142580952D01*
X478811904Y-143152380D01*
X478192857Y-143152380D01*
X477811904Y-142247619D02*
X477764285Y-142200000D01*
X477669047Y-142152380D01*
X477430952Y-142152380D01*
X477335714Y-142200000D01*
X477288095Y-142247619D01*
X477240476Y-142342857D01*
X477240476Y-142438095D01*
X477288095Y-142580952D01*
X477859523Y-143152380D01*
X477240476Y-143152380D01*
%TO.C,SW116*%
X500385714Y-219304761D02*
X500242857Y-219352380D01*
X500004761Y-219352380D01*
X499909523Y-219304761D01*
X499861904Y-219257142D01*
X499814285Y-219161904D01*
X499814285Y-219066666D01*
X499861904Y-218971428D01*
X499909523Y-218923809D01*
X500004761Y-218876190D01*
X500195238Y-218828571D01*
X500290476Y-218780952D01*
X500338095Y-218733333D01*
X500385714Y-218638095D01*
X500385714Y-218542857D01*
X500338095Y-218447619D01*
X500290476Y-218400000D01*
X500195238Y-218352380D01*
X499957142Y-218352380D01*
X499814285Y-218400000D01*
X499480952Y-218352380D02*
X499242857Y-219352380D01*
X499052380Y-218638095D01*
X498861904Y-219352380D01*
X498623809Y-218352380D01*
X497719047Y-219352380D02*
X498290476Y-219352380D01*
X498004761Y-219352380D02*
X498004761Y-218352380D01*
X498100000Y-218495238D01*
X498195238Y-218590476D01*
X498290476Y-218638095D01*
X496766666Y-219352380D02*
X497338095Y-219352380D01*
X497052380Y-219352380D02*
X497052380Y-218352380D01*
X497147619Y-218495238D01*
X497242857Y-218590476D01*
X497338095Y-218638095D01*
X495909523Y-218352380D02*
X496100000Y-218352380D01*
X496195238Y-218400000D01*
X496242857Y-218447619D01*
X496338095Y-218590476D01*
X496385714Y-218780952D01*
X496385714Y-219161904D01*
X496338095Y-219257142D01*
X496290476Y-219304761D01*
X496195238Y-219352380D01*
X496004761Y-219352380D01*
X495909523Y-219304761D01*
X495861904Y-219257142D01*
X495814285Y-219161904D01*
X495814285Y-218923809D01*
X495861904Y-218828571D01*
X495909523Y-218780952D01*
X496004761Y-218733333D01*
X496195238Y-218733333D01*
X496290476Y-218780952D01*
X496338095Y-218828571D01*
X496385714Y-218923809D01*
%TO.C,SW32*%
X214159523Y-162154761D02*
X214016666Y-162202380D01*
X213778571Y-162202380D01*
X213683333Y-162154761D01*
X213635714Y-162107142D01*
X213588095Y-162011904D01*
X213588095Y-161916666D01*
X213635714Y-161821428D01*
X213683333Y-161773809D01*
X213778571Y-161726190D01*
X213969047Y-161678571D01*
X214064285Y-161630952D01*
X214111904Y-161583333D01*
X214159523Y-161488095D01*
X214159523Y-161392857D01*
X214111904Y-161297619D01*
X214064285Y-161250000D01*
X213969047Y-161202380D01*
X213730952Y-161202380D01*
X213588095Y-161250000D01*
X213254761Y-161202380D02*
X213016666Y-162202380D01*
X212826190Y-161488095D01*
X212635714Y-162202380D01*
X212397619Y-161202380D01*
X212111904Y-161202380D02*
X211492857Y-161202380D01*
X211826190Y-161583333D01*
X211683333Y-161583333D01*
X211588095Y-161630952D01*
X211540476Y-161678571D01*
X211492857Y-161773809D01*
X211492857Y-162011904D01*
X211540476Y-162107142D01*
X211588095Y-162154761D01*
X211683333Y-162202380D01*
X211969047Y-162202380D01*
X212064285Y-162154761D01*
X212111904Y-162107142D01*
X211111904Y-161297619D02*
X211064285Y-161250000D01*
X210969047Y-161202380D01*
X210730952Y-161202380D01*
X210635714Y-161250000D01*
X210588095Y-161297619D01*
X210540476Y-161392857D01*
X210540476Y-161488095D01*
X210588095Y-161630952D01*
X211159523Y-162202380D01*
X210540476Y-162202380D01*
%TO.C,SW51*%
X118909523Y-181204761D02*
X118766666Y-181252380D01*
X118528571Y-181252380D01*
X118433333Y-181204761D01*
X118385714Y-181157142D01*
X118338095Y-181061904D01*
X118338095Y-180966666D01*
X118385714Y-180871428D01*
X118433333Y-180823809D01*
X118528571Y-180776190D01*
X118719047Y-180728571D01*
X118814285Y-180680952D01*
X118861904Y-180633333D01*
X118909523Y-180538095D01*
X118909523Y-180442857D01*
X118861904Y-180347619D01*
X118814285Y-180300000D01*
X118719047Y-180252380D01*
X118480952Y-180252380D01*
X118338095Y-180300000D01*
X118004761Y-180252380D02*
X117766666Y-181252380D01*
X117576190Y-180538095D01*
X117385714Y-181252380D01*
X117147619Y-180252380D01*
X116290476Y-180252380D02*
X116766666Y-180252380D01*
X116814285Y-180728571D01*
X116766666Y-180680952D01*
X116671428Y-180633333D01*
X116433333Y-180633333D01*
X116338095Y-180680952D01*
X116290476Y-180728571D01*
X116242857Y-180823809D01*
X116242857Y-181061904D01*
X116290476Y-181157142D01*
X116338095Y-181204761D01*
X116433333Y-181252380D01*
X116671428Y-181252380D01*
X116766666Y-181204761D01*
X116814285Y-181157142D01*
X115290476Y-181252380D02*
X115861904Y-181252380D01*
X115576190Y-181252380D02*
X115576190Y-180252380D01*
X115671428Y-180395238D01*
X115766666Y-180490476D01*
X115861904Y-180538095D01*
%TO.C,SW24*%
X518959523Y-143104761D02*
X518816666Y-143152380D01*
X518578571Y-143152380D01*
X518483333Y-143104761D01*
X518435714Y-143057142D01*
X518388095Y-142961904D01*
X518388095Y-142866666D01*
X518435714Y-142771428D01*
X518483333Y-142723809D01*
X518578571Y-142676190D01*
X518769047Y-142628571D01*
X518864285Y-142580952D01*
X518911904Y-142533333D01*
X518959523Y-142438095D01*
X518959523Y-142342857D01*
X518911904Y-142247619D01*
X518864285Y-142200000D01*
X518769047Y-142152380D01*
X518530952Y-142152380D01*
X518388095Y-142200000D01*
X518054761Y-142152380D02*
X517816666Y-143152380D01*
X517626190Y-142438095D01*
X517435714Y-143152380D01*
X517197619Y-142152380D01*
X516864285Y-142247619D02*
X516816666Y-142200000D01*
X516721428Y-142152380D01*
X516483333Y-142152380D01*
X516388095Y-142200000D01*
X516340476Y-142247619D01*
X516292857Y-142342857D01*
X516292857Y-142438095D01*
X516340476Y-142580952D01*
X516911904Y-143152380D01*
X516292857Y-143152380D01*
X515435714Y-142485714D02*
X515435714Y-143152380D01*
X515673809Y-142104761D02*
X515911904Y-142819047D01*
X515292857Y-142819047D01*
%TO.C,SW14*%
X328459557Y-143104769D02*
X328316700Y-143152388D01*
X328078605Y-143152388D01*
X327983367Y-143104769D01*
X327935748Y-143057150D01*
X327888129Y-142961912D01*
X327888129Y-142866674D01*
X327935748Y-142771436D01*
X327983367Y-142723817D01*
X328078605Y-142676198D01*
X328269081Y-142628579D01*
X328364319Y-142580960D01*
X328411938Y-142533341D01*
X328459557Y-142438103D01*
X328459557Y-142342865D01*
X328411938Y-142247627D01*
X328364319Y-142200008D01*
X328269081Y-142152388D01*
X328030986Y-142152388D01*
X327888129Y-142200008D01*
X327554795Y-142152388D02*
X327316700Y-143152388D01*
X327126224Y-142438103D01*
X326935748Y-143152388D01*
X326697653Y-142152388D01*
X325792891Y-143152388D02*
X326364319Y-143152388D01*
X326078605Y-143152388D02*
X326078605Y-142152388D01*
X326173843Y-142295246D01*
X326269081Y-142390484D01*
X326364319Y-142438103D01*
X324935748Y-142485722D02*
X324935748Y-143152388D01*
X325173843Y-142104769D02*
X325411938Y-142819055D01*
X324792891Y-142819055D01*
%TO.C,SW40*%
X366559523Y-162154761D02*
X366416666Y-162202380D01*
X366178571Y-162202380D01*
X366083333Y-162154761D01*
X366035714Y-162107142D01*
X365988095Y-162011904D01*
X365988095Y-161916666D01*
X366035714Y-161821428D01*
X366083333Y-161773809D01*
X366178571Y-161726190D01*
X366369047Y-161678571D01*
X366464285Y-161630952D01*
X366511904Y-161583333D01*
X366559523Y-161488095D01*
X366559523Y-161392857D01*
X366511904Y-161297619D01*
X366464285Y-161250000D01*
X366369047Y-161202380D01*
X366130952Y-161202380D01*
X365988095Y-161250000D01*
X365654761Y-161202380D02*
X365416666Y-162202380D01*
X365226190Y-161488095D01*
X365035714Y-162202380D01*
X364797619Y-161202380D01*
X363988095Y-161535714D02*
X363988095Y-162202380D01*
X364226190Y-161154761D02*
X364464285Y-161869047D01*
X363845238Y-161869047D01*
X363273809Y-161202380D02*
X363178571Y-161202380D01*
X363083333Y-161250000D01*
X363035714Y-161297619D01*
X362988095Y-161392857D01*
X362940476Y-161583333D01*
X362940476Y-161821428D01*
X362988095Y-162011904D01*
X363035714Y-162107142D01*
X363083333Y-162154761D01*
X363178571Y-162202380D01*
X363273809Y-162202380D01*
X363369047Y-162154761D01*
X363416666Y-162107142D01*
X363464285Y-162011904D01*
X363511904Y-161821428D01*
X363511904Y-161583333D01*
X363464285Y-161392857D01*
X363416666Y-161297619D01*
X363369047Y-161250000D01*
X363273809Y-161202380D01*
%TO.C,SW64*%
X376084523Y-181204761D02*
X375941666Y-181252380D01*
X375703571Y-181252380D01*
X375608333Y-181204761D01*
X375560714Y-181157142D01*
X375513095Y-181061904D01*
X375513095Y-180966666D01*
X375560714Y-180871428D01*
X375608333Y-180823809D01*
X375703571Y-180776190D01*
X375894047Y-180728571D01*
X375989285Y-180680952D01*
X376036904Y-180633333D01*
X376084523Y-180538095D01*
X376084523Y-180442857D01*
X376036904Y-180347619D01*
X375989285Y-180300000D01*
X375894047Y-180252380D01*
X375655952Y-180252380D01*
X375513095Y-180300000D01*
X375179761Y-180252380D02*
X374941666Y-181252380D01*
X374751190Y-180538095D01*
X374560714Y-181252380D01*
X374322619Y-180252380D01*
X373513095Y-180252380D02*
X373703571Y-180252380D01*
X373798809Y-180300000D01*
X373846428Y-180347619D01*
X373941666Y-180490476D01*
X373989285Y-180680952D01*
X373989285Y-181061904D01*
X373941666Y-181157142D01*
X373894047Y-181204761D01*
X373798809Y-181252380D01*
X373608333Y-181252380D01*
X373513095Y-181204761D01*
X373465476Y-181157142D01*
X373417857Y-181061904D01*
X373417857Y-180823809D01*
X373465476Y-180728571D01*
X373513095Y-180680952D01*
X373608333Y-180633333D01*
X373798809Y-180633333D01*
X373894047Y-180680952D01*
X373941666Y-180728571D01*
X373989285Y-180823809D01*
X372560714Y-180585714D02*
X372560714Y-181252380D01*
X372798809Y-180204761D02*
X373036904Y-180919047D01*
X372417857Y-180919047D01*
%TO.C,SW95*%
X80809523Y-219304761D02*
X80666666Y-219352380D01*
X80428571Y-219352380D01*
X80333333Y-219304761D01*
X80285714Y-219257142D01*
X80238095Y-219161904D01*
X80238095Y-219066666D01*
X80285714Y-218971428D01*
X80333333Y-218923809D01*
X80428571Y-218876190D01*
X80619047Y-218828571D01*
X80714285Y-218780952D01*
X80761904Y-218733333D01*
X80809523Y-218638095D01*
X80809523Y-218542857D01*
X80761904Y-218447619D01*
X80714285Y-218400000D01*
X80619047Y-218352380D01*
X80380952Y-218352380D01*
X80238095Y-218400000D01*
X79904761Y-218352380D02*
X79666666Y-219352380D01*
X79476190Y-218638095D01*
X79285714Y-219352380D01*
X79047619Y-218352380D01*
X78619047Y-219352380D02*
X78428571Y-219352380D01*
X78333333Y-219304761D01*
X78285714Y-219257142D01*
X78190476Y-219114285D01*
X78142857Y-218923809D01*
X78142857Y-218542857D01*
X78190476Y-218447619D01*
X78238095Y-218400000D01*
X78333333Y-218352380D01*
X78523809Y-218352380D01*
X78619047Y-218400000D01*
X78666666Y-218447619D01*
X78714285Y-218542857D01*
X78714285Y-218780952D01*
X78666666Y-218876190D01*
X78619047Y-218923809D01*
X78523809Y-218971428D01*
X78333333Y-218971428D01*
X78238095Y-218923809D01*
X78190476Y-218876190D01*
X78142857Y-218780952D01*
X77238095Y-218352380D02*
X77714285Y-218352380D01*
X77761904Y-218828571D01*
X77714285Y-218780952D01*
X77619047Y-218733333D01*
X77380952Y-218733333D01*
X77285714Y-218780952D01*
X77238095Y-218828571D01*
X77190476Y-218923809D01*
X77190476Y-219161904D01*
X77238095Y-219257142D01*
X77285714Y-219304761D01*
X77380952Y-219352380D01*
X77619047Y-219352380D01*
X77714285Y-219304761D01*
X77761904Y-219257142D01*
%TO.C,SW82*%
X285597023Y-200254761D02*
X285454166Y-200302380D01*
X285216071Y-200302380D01*
X285120833Y-200254761D01*
X285073214Y-200207142D01*
X285025595Y-200111904D01*
X285025595Y-200016666D01*
X285073214Y-199921428D01*
X285120833Y-199873809D01*
X285216071Y-199826190D01*
X285406547Y-199778571D01*
X285501785Y-199730952D01*
X285549404Y-199683333D01*
X285597023Y-199588095D01*
X285597023Y-199492857D01*
X285549404Y-199397619D01*
X285501785Y-199350000D01*
X285406547Y-199302380D01*
X285168452Y-199302380D01*
X285025595Y-199350000D01*
X284692261Y-199302380D02*
X284454166Y-200302380D01*
X284263690Y-199588095D01*
X284073214Y-200302380D01*
X283835119Y-199302380D01*
X283311309Y-199730952D02*
X283406547Y-199683333D01*
X283454166Y-199635714D01*
X283501785Y-199540476D01*
X283501785Y-199492857D01*
X283454166Y-199397619D01*
X283406547Y-199350000D01*
X283311309Y-199302380D01*
X283120833Y-199302380D01*
X283025595Y-199350000D01*
X282977976Y-199397619D01*
X282930357Y-199492857D01*
X282930357Y-199540476D01*
X282977976Y-199635714D01*
X283025595Y-199683333D01*
X283120833Y-199730952D01*
X283311309Y-199730952D01*
X283406547Y-199778571D01*
X283454166Y-199826190D01*
X283501785Y-199921428D01*
X283501785Y-200111904D01*
X283454166Y-200207142D01*
X283406547Y-200254761D01*
X283311309Y-200302380D01*
X283120833Y-200302380D01*
X283025595Y-200254761D01*
X282977976Y-200207142D01*
X282930357Y-200111904D01*
X282930357Y-199921428D01*
X282977976Y-199826190D01*
X283025595Y-199778571D01*
X283120833Y-199730952D01*
X282549404Y-199397619D02*
X282501785Y-199350000D01*
X282406547Y-199302380D01*
X282168452Y-199302380D01*
X282073214Y-199350000D01*
X282025595Y-199397619D01*
X281977976Y-199492857D01*
X281977976Y-199588095D01*
X282025595Y-199730952D01*
X282597023Y-200302380D01*
X281977976Y-200302380D01*
%TO.C,SW17*%
X385609523Y-143104761D02*
X385466666Y-143152380D01*
X385228571Y-143152380D01*
X385133333Y-143104761D01*
X385085714Y-143057142D01*
X385038095Y-142961904D01*
X385038095Y-142866666D01*
X385085714Y-142771428D01*
X385133333Y-142723809D01*
X385228571Y-142676190D01*
X385419047Y-142628571D01*
X385514285Y-142580952D01*
X385561904Y-142533333D01*
X385609523Y-142438095D01*
X385609523Y-142342857D01*
X385561904Y-142247619D01*
X385514285Y-142200000D01*
X385419047Y-142152380D01*
X385180952Y-142152380D01*
X385038095Y-142200000D01*
X384704761Y-142152380D02*
X384466666Y-143152380D01*
X384276190Y-142438095D01*
X384085714Y-143152380D01*
X383847619Y-142152380D01*
X382942857Y-143152380D02*
X383514285Y-143152380D01*
X383228571Y-143152380D02*
X383228571Y-142152380D01*
X383323809Y-142295238D01*
X383419047Y-142390476D01*
X383514285Y-142438095D01*
X382609523Y-142152380D02*
X381942857Y-142152380D01*
X382371428Y-143152380D01*
%TO.C,SW87*%
X380847023Y-200254761D02*
X380704166Y-200302380D01*
X380466071Y-200302380D01*
X380370833Y-200254761D01*
X380323214Y-200207142D01*
X380275595Y-200111904D01*
X380275595Y-200016666D01*
X380323214Y-199921428D01*
X380370833Y-199873809D01*
X380466071Y-199826190D01*
X380656547Y-199778571D01*
X380751785Y-199730952D01*
X380799404Y-199683333D01*
X380847023Y-199588095D01*
X380847023Y-199492857D01*
X380799404Y-199397619D01*
X380751785Y-199350000D01*
X380656547Y-199302380D01*
X380418452Y-199302380D01*
X380275595Y-199350000D01*
X379942261Y-199302380D02*
X379704166Y-200302380D01*
X379513690Y-199588095D01*
X379323214Y-200302380D01*
X379085119Y-199302380D01*
X378561309Y-199730952D02*
X378656547Y-199683333D01*
X378704166Y-199635714D01*
X378751785Y-199540476D01*
X378751785Y-199492857D01*
X378704166Y-199397619D01*
X378656547Y-199350000D01*
X378561309Y-199302380D01*
X378370833Y-199302380D01*
X378275595Y-199350000D01*
X378227976Y-199397619D01*
X378180357Y-199492857D01*
X378180357Y-199540476D01*
X378227976Y-199635714D01*
X378275595Y-199683333D01*
X378370833Y-199730952D01*
X378561309Y-199730952D01*
X378656547Y-199778571D01*
X378704166Y-199826190D01*
X378751785Y-199921428D01*
X378751785Y-200111904D01*
X378704166Y-200207142D01*
X378656547Y-200254761D01*
X378561309Y-200302380D01*
X378370833Y-200302380D01*
X378275595Y-200254761D01*
X378227976Y-200207142D01*
X378180357Y-200111904D01*
X378180357Y-199921428D01*
X378227976Y-199826190D01*
X378275595Y-199778571D01*
X378370833Y-199730952D01*
X377847023Y-199302380D02*
X377180357Y-199302380D01*
X377608928Y-200302380D01*
%TO.C,SW99*%
X161772023Y-219304761D02*
X161629166Y-219352380D01*
X161391071Y-219352380D01*
X161295833Y-219304761D01*
X161248214Y-219257142D01*
X161200595Y-219161904D01*
X161200595Y-219066666D01*
X161248214Y-218971428D01*
X161295833Y-218923809D01*
X161391071Y-218876190D01*
X161581547Y-218828571D01*
X161676785Y-218780952D01*
X161724404Y-218733333D01*
X161772023Y-218638095D01*
X161772023Y-218542857D01*
X161724404Y-218447619D01*
X161676785Y-218400000D01*
X161581547Y-218352380D01*
X161343452Y-218352380D01*
X161200595Y-218400000D01*
X160867261Y-218352380D02*
X160629166Y-219352380D01*
X160438690Y-218638095D01*
X160248214Y-219352380D01*
X160010119Y-218352380D01*
X159581547Y-219352380D02*
X159391071Y-219352380D01*
X159295833Y-219304761D01*
X159248214Y-219257142D01*
X159152976Y-219114285D01*
X159105357Y-218923809D01*
X159105357Y-218542857D01*
X159152976Y-218447619D01*
X159200595Y-218400000D01*
X159295833Y-218352380D01*
X159486309Y-218352380D01*
X159581547Y-218400000D01*
X159629166Y-218447619D01*
X159676785Y-218542857D01*
X159676785Y-218780952D01*
X159629166Y-218876190D01*
X159581547Y-218923809D01*
X159486309Y-218971428D01*
X159295833Y-218971428D01*
X159200595Y-218923809D01*
X159152976Y-218876190D01*
X159105357Y-218780952D01*
X158629166Y-219352380D02*
X158438690Y-219352380D01*
X158343452Y-219304761D01*
X158295833Y-219257142D01*
X158200595Y-219114285D01*
X158152976Y-218923809D01*
X158152976Y-218542857D01*
X158200595Y-218447619D01*
X158248214Y-218400000D01*
X158343452Y-218352380D01*
X158533928Y-218352380D01*
X158629166Y-218400000D01*
X158676785Y-218447619D01*
X158724404Y-218542857D01*
X158724404Y-218780952D01*
X158676785Y-218876190D01*
X158629166Y-218923809D01*
X158533928Y-218971428D01*
X158343452Y-218971428D01*
X158248214Y-218923809D01*
X158200595Y-218876190D01*
X158152976Y-218780952D01*
%TO.C,SW124*%
X371798214Y-238354761D02*
X371655357Y-238402380D01*
X371417261Y-238402380D01*
X371322023Y-238354761D01*
X371274404Y-238307142D01*
X371226785Y-238211904D01*
X371226785Y-238116666D01*
X371274404Y-238021428D01*
X371322023Y-237973809D01*
X371417261Y-237926190D01*
X371607738Y-237878571D01*
X371702976Y-237830952D01*
X371750595Y-237783333D01*
X371798214Y-237688095D01*
X371798214Y-237592857D01*
X371750595Y-237497619D01*
X371702976Y-237450000D01*
X371607738Y-237402380D01*
X371369642Y-237402380D01*
X371226785Y-237450000D01*
X370893452Y-237402380D02*
X370655357Y-238402380D01*
X370464880Y-237688095D01*
X370274404Y-238402380D01*
X370036309Y-237402380D01*
X369131547Y-238402380D02*
X369702976Y-238402380D01*
X369417261Y-238402380D02*
X369417261Y-237402380D01*
X369512500Y-237545238D01*
X369607738Y-237640476D01*
X369702976Y-237688095D01*
X368750595Y-237497619D02*
X368702976Y-237450000D01*
X368607738Y-237402380D01*
X368369642Y-237402380D01*
X368274404Y-237450000D01*
X368226785Y-237497619D01*
X368179166Y-237592857D01*
X368179166Y-237688095D01*
X368226785Y-237830952D01*
X368798214Y-238402380D01*
X368179166Y-238402380D01*
X367322023Y-237735714D02*
X367322023Y-238402380D01*
X367560119Y-237354761D02*
X367798214Y-238069047D01*
X367179166Y-238069047D01*
%TO.C,SW88*%
X399897023Y-200254761D02*
X399754166Y-200302380D01*
X399516071Y-200302380D01*
X399420833Y-200254761D01*
X399373214Y-200207142D01*
X399325595Y-200111904D01*
X399325595Y-200016666D01*
X399373214Y-199921428D01*
X399420833Y-199873809D01*
X399516071Y-199826190D01*
X399706547Y-199778571D01*
X399801785Y-199730952D01*
X399849404Y-199683333D01*
X399897023Y-199588095D01*
X399897023Y-199492857D01*
X399849404Y-199397619D01*
X399801785Y-199350000D01*
X399706547Y-199302380D01*
X399468452Y-199302380D01*
X399325595Y-199350000D01*
X398992261Y-199302380D02*
X398754166Y-200302380D01*
X398563690Y-199588095D01*
X398373214Y-200302380D01*
X398135119Y-199302380D01*
X397611309Y-199730952D02*
X397706547Y-199683333D01*
X397754166Y-199635714D01*
X397801785Y-199540476D01*
X397801785Y-199492857D01*
X397754166Y-199397619D01*
X397706547Y-199350000D01*
X397611309Y-199302380D01*
X397420833Y-199302380D01*
X397325595Y-199350000D01*
X397277976Y-199397619D01*
X397230357Y-199492857D01*
X397230357Y-199540476D01*
X397277976Y-199635714D01*
X397325595Y-199683333D01*
X397420833Y-199730952D01*
X397611309Y-199730952D01*
X397706547Y-199778571D01*
X397754166Y-199826190D01*
X397801785Y-199921428D01*
X397801785Y-200111904D01*
X397754166Y-200207142D01*
X397706547Y-200254761D01*
X397611309Y-200302380D01*
X397420833Y-200302380D01*
X397325595Y-200254761D01*
X397277976Y-200207142D01*
X397230357Y-200111904D01*
X397230357Y-199921428D01*
X397277976Y-199826190D01*
X397325595Y-199778571D01*
X397420833Y-199730952D01*
X396658928Y-199730952D02*
X396754166Y-199683333D01*
X396801785Y-199635714D01*
X396849404Y-199540476D01*
X396849404Y-199492857D01*
X396801785Y-199397619D01*
X396754166Y-199350000D01*
X396658928Y-199302380D01*
X396468452Y-199302380D01*
X396373214Y-199350000D01*
X396325595Y-199397619D01*
X396277976Y-199492857D01*
X396277976Y-199540476D01*
X396325595Y-199635714D01*
X396373214Y-199683333D01*
X396468452Y-199730952D01*
X396658928Y-199730952D01*
X396754166Y-199778571D01*
X396801785Y-199826190D01*
X396849404Y-199921428D01*
X396849404Y-200111904D01*
X396801785Y-200207142D01*
X396754166Y-200254761D01*
X396658928Y-200302380D01*
X396468452Y-200302380D01*
X396373214Y-200254761D01*
X396325595Y-200207142D01*
X396277976Y-200111904D01*
X396277976Y-199921428D01*
X396325595Y-199826190D01*
X396373214Y-199778571D01*
X396468452Y-199730952D01*
%TO.C,SW90*%
X437997023Y-200254761D02*
X437854166Y-200302380D01*
X437616071Y-200302380D01*
X437520833Y-200254761D01*
X437473214Y-200207142D01*
X437425595Y-200111904D01*
X437425595Y-200016666D01*
X437473214Y-199921428D01*
X437520833Y-199873809D01*
X437616071Y-199826190D01*
X437806547Y-199778571D01*
X437901785Y-199730952D01*
X437949404Y-199683333D01*
X437997023Y-199588095D01*
X437997023Y-199492857D01*
X437949404Y-199397619D01*
X437901785Y-199350000D01*
X437806547Y-199302380D01*
X437568452Y-199302380D01*
X437425595Y-199350000D01*
X437092261Y-199302380D02*
X436854166Y-200302380D01*
X436663690Y-199588095D01*
X436473214Y-200302380D01*
X436235119Y-199302380D01*
X435806547Y-200302380D02*
X435616071Y-200302380D01*
X435520833Y-200254761D01*
X435473214Y-200207142D01*
X435377976Y-200064285D01*
X435330357Y-199873809D01*
X435330357Y-199492857D01*
X435377976Y-199397619D01*
X435425595Y-199350000D01*
X435520833Y-199302380D01*
X435711309Y-199302380D01*
X435806547Y-199350000D01*
X435854166Y-199397619D01*
X435901785Y-199492857D01*
X435901785Y-199730952D01*
X435854166Y-199826190D01*
X435806547Y-199873809D01*
X435711309Y-199921428D01*
X435520833Y-199921428D01*
X435425595Y-199873809D01*
X435377976Y-199826190D01*
X435330357Y-199730952D01*
X434711309Y-199302380D02*
X434616071Y-199302380D01*
X434520833Y-199350000D01*
X434473214Y-199397619D01*
X434425595Y-199492857D01*
X434377976Y-199683333D01*
X434377976Y-199921428D01*
X434425595Y-200111904D01*
X434473214Y-200207142D01*
X434520833Y-200254761D01*
X434616071Y-200302380D01*
X434711309Y-200302380D01*
X434806547Y-200254761D01*
X434854166Y-200207142D01*
X434901785Y-200111904D01*
X434949404Y-199921428D01*
X434949404Y-199683333D01*
X434901785Y-199492857D01*
X434854166Y-199397619D01*
X434806547Y-199350000D01*
X434711309Y-199302380D01*
%TO.C,SW107*%
X314648214Y-219304761D02*
X314505357Y-219352380D01*
X314267261Y-219352380D01*
X314172023Y-219304761D01*
X314124404Y-219257142D01*
X314076785Y-219161904D01*
X314076785Y-219066666D01*
X314124404Y-218971428D01*
X314172023Y-218923809D01*
X314267261Y-218876190D01*
X314457738Y-218828571D01*
X314552976Y-218780952D01*
X314600595Y-218733333D01*
X314648214Y-218638095D01*
X314648214Y-218542857D01*
X314600595Y-218447619D01*
X314552976Y-218400000D01*
X314457738Y-218352380D01*
X314219642Y-218352380D01*
X314076785Y-218400000D01*
X313743452Y-218352380D02*
X313505357Y-219352380D01*
X313314880Y-218638095D01*
X313124404Y-219352380D01*
X312886309Y-218352380D01*
X311981547Y-219352380D02*
X312552976Y-219352380D01*
X312267261Y-219352380D02*
X312267261Y-218352380D01*
X312362500Y-218495238D01*
X312457738Y-218590476D01*
X312552976Y-218638095D01*
X311362500Y-218352380D02*
X311267261Y-218352380D01*
X311172023Y-218400000D01*
X311124404Y-218447619D01*
X311076785Y-218542857D01*
X311029166Y-218733333D01*
X311029166Y-218971428D01*
X311076785Y-219161904D01*
X311124404Y-219257142D01*
X311172023Y-219304761D01*
X311267261Y-219352380D01*
X311362500Y-219352380D01*
X311457738Y-219304761D01*
X311505357Y-219257142D01*
X311552976Y-219161904D01*
X311600595Y-218971428D01*
X311600595Y-218733333D01*
X311552976Y-218542857D01*
X311505357Y-218447619D01*
X311457738Y-218400000D01*
X311362500Y-218352380D01*
X310695833Y-218352380D02*
X310029166Y-218352380D01*
X310457738Y-219352380D01*
%TO.C,SW101*%
X200348214Y-219304761D02*
X200205357Y-219352380D01*
X199967261Y-219352380D01*
X199872023Y-219304761D01*
X199824404Y-219257142D01*
X199776785Y-219161904D01*
X199776785Y-219066666D01*
X199824404Y-218971428D01*
X199872023Y-218923809D01*
X199967261Y-218876190D01*
X200157738Y-218828571D01*
X200252976Y-218780952D01*
X200300595Y-218733333D01*
X200348214Y-218638095D01*
X200348214Y-218542857D01*
X200300595Y-218447619D01*
X200252976Y-218400000D01*
X200157738Y-218352380D01*
X199919642Y-218352380D01*
X199776785Y-218400000D01*
X199443452Y-218352380D02*
X199205357Y-219352380D01*
X199014880Y-218638095D01*
X198824404Y-219352380D01*
X198586309Y-218352380D01*
X197681547Y-219352380D02*
X198252976Y-219352380D01*
X197967261Y-219352380D02*
X197967261Y-218352380D01*
X198062500Y-218495238D01*
X198157738Y-218590476D01*
X198252976Y-218638095D01*
X197062500Y-218352380D02*
X196967261Y-218352380D01*
X196872023Y-218400000D01*
X196824404Y-218447619D01*
X196776785Y-218542857D01*
X196729166Y-218733333D01*
X196729166Y-218971428D01*
X196776785Y-219161904D01*
X196824404Y-219257142D01*
X196872023Y-219304761D01*
X196967261Y-219352380D01*
X197062500Y-219352380D01*
X197157738Y-219304761D01*
X197205357Y-219257142D01*
X197252976Y-219161904D01*
X197300595Y-218971428D01*
X197300595Y-218733333D01*
X197252976Y-218542857D01*
X197205357Y-218447619D01*
X197157738Y-218400000D01*
X197062500Y-218352380D01*
X195776785Y-219352380D02*
X196348214Y-219352380D01*
X196062500Y-219352380D02*
X196062500Y-218352380D01*
X196157738Y-218495238D01*
X196252976Y-218590476D01*
X196348214Y-218638095D01*
%TO.C,SW46*%
X480859523Y-162154761D02*
X480716666Y-162202380D01*
X480478571Y-162202380D01*
X480383333Y-162154761D01*
X480335714Y-162107142D01*
X480288095Y-162011904D01*
X480288095Y-161916666D01*
X480335714Y-161821428D01*
X480383333Y-161773809D01*
X480478571Y-161726190D01*
X480669047Y-161678571D01*
X480764285Y-161630952D01*
X480811904Y-161583333D01*
X480859523Y-161488095D01*
X480859523Y-161392857D01*
X480811904Y-161297619D01*
X480764285Y-161250000D01*
X480669047Y-161202380D01*
X480430952Y-161202380D01*
X480288095Y-161250000D01*
X479954761Y-161202380D02*
X479716666Y-162202380D01*
X479526190Y-161488095D01*
X479335714Y-162202380D01*
X479097619Y-161202380D01*
X478288095Y-161535714D02*
X478288095Y-162202380D01*
X478526190Y-161154761D02*
X478764285Y-161869047D01*
X478145238Y-161869047D01*
X477335714Y-161202380D02*
X477526190Y-161202380D01*
X477621428Y-161250000D01*
X477669047Y-161297619D01*
X477764285Y-161440476D01*
X477811904Y-161630952D01*
X477811904Y-162011904D01*
X477764285Y-162107142D01*
X477716666Y-162154761D01*
X477621428Y-162202380D01*
X477430952Y-162202380D01*
X477335714Y-162154761D01*
X477288095Y-162107142D01*
X477240476Y-162011904D01*
X477240476Y-161773809D01*
X477288095Y-161678571D01*
X477335714Y-161630952D01*
X477430952Y-161583333D01*
X477621428Y-161583333D01*
X477716666Y-161630952D01*
X477764285Y-161678571D01*
X477811904Y-161773809D01*
%TO.C,SW109*%
X352748214Y-219304761D02*
X352605357Y-219352380D01*
X352367261Y-219352380D01*
X352272023Y-219304761D01*
X352224404Y-219257142D01*
X352176785Y-219161904D01*
X352176785Y-219066666D01*
X352224404Y-218971428D01*
X352272023Y-218923809D01*
X352367261Y-218876190D01*
X352557738Y-218828571D01*
X352652976Y-218780952D01*
X352700595Y-218733333D01*
X352748214Y-218638095D01*
X352748214Y-218542857D01*
X352700595Y-218447619D01*
X352652976Y-218400000D01*
X352557738Y-218352380D01*
X352319642Y-218352380D01*
X352176785Y-218400000D01*
X351843452Y-218352380D02*
X351605357Y-219352380D01*
X351414880Y-218638095D01*
X351224404Y-219352380D01*
X350986309Y-218352380D01*
X350081547Y-219352380D02*
X350652976Y-219352380D01*
X350367261Y-219352380D02*
X350367261Y-218352380D01*
X350462500Y-218495238D01*
X350557738Y-218590476D01*
X350652976Y-218638095D01*
X349462500Y-218352380D02*
X349367261Y-218352380D01*
X349272023Y-218400000D01*
X349224404Y-218447619D01*
X349176785Y-218542857D01*
X349129166Y-218733333D01*
X349129166Y-218971428D01*
X349176785Y-219161904D01*
X349224404Y-219257142D01*
X349272023Y-219304761D01*
X349367261Y-219352380D01*
X349462500Y-219352380D01*
X349557738Y-219304761D01*
X349605357Y-219257142D01*
X349652976Y-219161904D01*
X349700595Y-218971428D01*
X349700595Y-218733333D01*
X349652976Y-218542857D01*
X349605357Y-218447619D01*
X349557738Y-218400000D01*
X349462500Y-218352380D01*
X348652976Y-219352380D02*
X348462500Y-219352380D01*
X348367261Y-219304761D01*
X348319642Y-219257142D01*
X348224404Y-219114285D01*
X348176785Y-218923809D01*
X348176785Y-218542857D01*
X348224404Y-218447619D01*
X348272023Y-218400000D01*
X348367261Y-218352380D01*
X348557738Y-218352380D01*
X348652976Y-218400000D01*
X348700595Y-218447619D01*
X348748214Y-218542857D01*
X348748214Y-218780952D01*
X348700595Y-218876190D01*
X348652976Y-218923809D01*
X348557738Y-218971428D01*
X348367261Y-218971428D01*
X348272023Y-218923809D01*
X348224404Y-218876190D01*
X348176785Y-218780952D01*
%TO.C,SW66*%
X414184523Y-181204761D02*
X414041666Y-181252380D01*
X413803571Y-181252380D01*
X413708333Y-181204761D01*
X413660714Y-181157142D01*
X413613095Y-181061904D01*
X413613095Y-180966666D01*
X413660714Y-180871428D01*
X413708333Y-180823809D01*
X413803571Y-180776190D01*
X413994047Y-180728571D01*
X414089285Y-180680952D01*
X414136904Y-180633333D01*
X414184523Y-180538095D01*
X414184523Y-180442857D01*
X414136904Y-180347619D01*
X414089285Y-180300000D01*
X413994047Y-180252380D01*
X413755952Y-180252380D01*
X413613095Y-180300000D01*
X413279761Y-180252380D02*
X413041666Y-181252380D01*
X412851190Y-180538095D01*
X412660714Y-181252380D01*
X412422619Y-180252380D01*
X411613095Y-180252380D02*
X411803571Y-180252380D01*
X411898809Y-180300000D01*
X411946428Y-180347619D01*
X412041666Y-180490476D01*
X412089285Y-180680952D01*
X412089285Y-181061904D01*
X412041666Y-181157142D01*
X411994047Y-181204761D01*
X411898809Y-181252380D01*
X411708333Y-181252380D01*
X411613095Y-181204761D01*
X411565476Y-181157142D01*
X411517857Y-181061904D01*
X411517857Y-180823809D01*
X411565476Y-180728571D01*
X411613095Y-180680952D01*
X411708333Y-180633333D01*
X411898809Y-180633333D01*
X411994047Y-180680952D01*
X412041666Y-180728571D01*
X412089285Y-180823809D01*
X410660714Y-180252380D02*
X410851190Y-180252380D01*
X410946428Y-180300000D01*
X410994047Y-180347619D01*
X411089285Y-180490476D01*
X411136904Y-180680952D01*
X411136904Y-181061904D01*
X411089285Y-181157142D01*
X411041666Y-181204761D01*
X410946428Y-181252380D01*
X410755952Y-181252380D01*
X410660714Y-181204761D01*
X410613095Y-181157142D01*
X410565476Y-181061904D01*
X410565476Y-180823809D01*
X410613095Y-180728571D01*
X410660714Y-180680952D01*
X410755952Y-180633333D01*
X410946428Y-180633333D01*
X411041666Y-180680952D01*
X411089285Y-180728571D01*
X411136904Y-180823809D01*
%TO.C,SW79*%
X228447023Y-200254761D02*
X228304166Y-200302380D01*
X228066071Y-200302380D01*
X227970833Y-200254761D01*
X227923214Y-200207142D01*
X227875595Y-200111904D01*
X227875595Y-200016666D01*
X227923214Y-199921428D01*
X227970833Y-199873809D01*
X228066071Y-199826190D01*
X228256547Y-199778571D01*
X228351785Y-199730952D01*
X228399404Y-199683333D01*
X228447023Y-199588095D01*
X228447023Y-199492857D01*
X228399404Y-199397619D01*
X228351785Y-199350000D01*
X228256547Y-199302380D01*
X228018452Y-199302380D01*
X227875595Y-199350000D01*
X227542261Y-199302380D02*
X227304166Y-200302380D01*
X227113690Y-199588095D01*
X226923214Y-200302380D01*
X226685119Y-199302380D01*
X226399404Y-199302380D02*
X225732738Y-199302380D01*
X226161309Y-200302380D01*
X225304166Y-200302380D02*
X225113690Y-200302380D01*
X225018452Y-200254761D01*
X224970833Y-200207142D01*
X224875595Y-200064285D01*
X224827976Y-199873809D01*
X224827976Y-199492857D01*
X224875595Y-199397619D01*
X224923214Y-199350000D01*
X225018452Y-199302380D01*
X225208928Y-199302380D01*
X225304166Y-199350000D01*
X225351785Y-199397619D01*
X225399404Y-199492857D01*
X225399404Y-199730952D01*
X225351785Y-199826190D01*
X225304166Y-199873809D01*
X225208928Y-199921428D01*
X225018452Y-199921428D01*
X224923214Y-199873809D01*
X224875595Y-199826190D01*
X224827976Y-199730952D01*
%TO.C,SW102*%
X219398214Y-219304761D02*
X219255357Y-219352380D01*
X219017261Y-219352380D01*
X218922023Y-219304761D01*
X218874404Y-219257142D01*
X218826785Y-219161904D01*
X218826785Y-219066666D01*
X218874404Y-218971428D01*
X218922023Y-218923809D01*
X219017261Y-218876190D01*
X219207738Y-218828571D01*
X219302976Y-218780952D01*
X219350595Y-218733333D01*
X219398214Y-218638095D01*
X219398214Y-218542857D01*
X219350595Y-218447619D01*
X219302976Y-218400000D01*
X219207738Y-218352380D01*
X218969642Y-218352380D01*
X218826785Y-218400000D01*
X218493452Y-218352380D02*
X218255357Y-219352380D01*
X218064880Y-218638095D01*
X217874404Y-219352380D01*
X217636309Y-218352380D01*
X216731547Y-219352380D02*
X217302976Y-219352380D01*
X217017261Y-219352380D02*
X217017261Y-218352380D01*
X217112500Y-218495238D01*
X217207738Y-218590476D01*
X217302976Y-218638095D01*
X216112500Y-218352380D02*
X216017261Y-218352380D01*
X215922023Y-218400000D01*
X215874404Y-218447619D01*
X215826785Y-218542857D01*
X215779166Y-218733333D01*
X215779166Y-218971428D01*
X215826785Y-219161904D01*
X215874404Y-219257142D01*
X215922023Y-219304761D01*
X216017261Y-219352380D01*
X216112500Y-219352380D01*
X216207738Y-219304761D01*
X216255357Y-219257142D01*
X216302976Y-219161904D01*
X216350595Y-218971428D01*
X216350595Y-218733333D01*
X216302976Y-218542857D01*
X216255357Y-218447619D01*
X216207738Y-218400000D01*
X216112500Y-218352380D01*
X215398214Y-218447619D02*
X215350595Y-218400000D01*
X215255357Y-218352380D01*
X215017261Y-218352380D01*
X214922023Y-218400000D01*
X214874404Y-218447619D01*
X214826785Y-218542857D01*
X214826785Y-218638095D01*
X214874404Y-218780952D01*
X215445833Y-219352380D01*
X214826785Y-219352380D01*
%TO.C,SW85*%
X342747023Y-200254761D02*
X342604166Y-200302380D01*
X342366071Y-200302380D01*
X342270833Y-200254761D01*
X342223214Y-200207142D01*
X342175595Y-200111904D01*
X342175595Y-200016666D01*
X342223214Y-199921428D01*
X342270833Y-199873809D01*
X342366071Y-199826190D01*
X342556547Y-199778571D01*
X342651785Y-199730952D01*
X342699404Y-199683333D01*
X342747023Y-199588095D01*
X342747023Y-199492857D01*
X342699404Y-199397619D01*
X342651785Y-199350000D01*
X342556547Y-199302380D01*
X342318452Y-199302380D01*
X342175595Y-199350000D01*
X341842261Y-199302380D02*
X341604166Y-200302380D01*
X341413690Y-199588095D01*
X341223214Y-200302380D01*
X340985119Y-199302380D01*
X340461309Y-199730952D02*
X340556547Y-199683333D01*
X340604166Y-199635714D01*
X340651785Y-199540476D01*
X340651785Y-199492857D01*
X340604166Y-199397619D01*
X340556547Y-199350000D01*
X340461309Y-199302380D01*
X340270833Y-199302380D01*
X340175595Y-199350000D01*
X340127976Y-199397619D01*
X340080357Y-199492857D01*
X340080357Y-199540476D01*
X340127976Y-199635714D01*
X340175595Y-199683333D01*
X340270833Y-199730952D01*
X340461309Y-199730952D01*
X340556547Y-199778571D01*
X340604166Y-199826190D01*
X340651785Y-199921428D01*
X340651785Y-200111904D01*
X340604166Y-200207142D01*
X340556547Y-200254761D01*
X340461309Y-200302380D01*
X340270833Y-200302380D01*
X340175595Y-200254761D01*
X340127976Y-200207142D01*
X340080357Y-200111904D01*
X340080357Y-199921428D01*
X340127976Y-199826190D01*
X340175595Y-199778571D01*
X340270833Y-199730952D01*
X339175595Y-199302380D02*
X339651785Y-199302380D01*
X339699404Y-199778571D01*
X339651785Y-199730952D01*
X339556547Y-199683333D01*
X339318452Y-199683333D01*
X339223214Y-199730952D01*
X339175595Y-199778571D01*
X339127976Y-199873809D01*
X339127976Y-200111904D01*
X339175595Y-200207142D01*
X339223214Y-200254761D01*
X339318452Y-200302380D01*
X339556547Y-200302380D01*
X339651785Y-200254761D01*
X339699404Y-200207142D01*
%TO.C,SW121*%
X138435714Y-238354761D02*
X138292857Y-238402380D01*
X138054761Y-238402380D01*
X137959523Y-238354761D01*
X137911904Y-238307142D01*
X137864285Y-238211904D01*
X137864285Y-238116666D01*
X137911904Y-238021428D01*
X137959523Y-237973809D01*
X138054761Y-237926190D01*
X138245238Y-237878571D01*
X138340476Y-237830952D01*
X138388095Y-237783333D01*
X138435714Y-237688095D01*
X138435714Y-237592857D01*
X138388095Y-237497619D01*
X138340476Y-237450000D01*
X138245238Y-237402380D01*
X138007142Y-237402380D01*
X137864285Y-237450000D01*
X137530952Y-237402380D02*
X137292857Y-238402380D01*
X137102380Y-237688095D01*
X136911904Y-238402380D01*
X136673809Y-237402380D01*
X135769047Y-238402380D02*
X136340476Y-238402380D01*
X136054761Y-238402380D02*
X136054761Y-237402380D01*
X136150000Y-237545238D01*
X136245238Y-237640476D01*
X136340476Y-237688095D01*
X135388095Y-237497619D02*
X135340476Y-237450000D01*
X135245238Y-237402380D01*
X135007142Y-237402380D01*
X134911904Y-237450000D01*
X134864285Y-237497619D01*
X134816666Y-237592857D01*
X134816666Y-237688095D01*
X134864285Y-237830952D01*
X135435714Y-238402380D01*
X134816666Y-238402380D01*
X133864285Y-238402380D02*
X134435714Y-238402380D01*
X134150000Y-238402380D02*
X134150000Y-237402380D01*
X134245238Y-237545238D01*
X134340476Y-237640476D01*
X134435714Y-237688095D01*
%TO.C,SW52*%
X137959523Y-181204761D02*
X137816666Y-181252380D01*
X137578571Y-181252380D01*
X137483333Y-181204761D01*
X137435714Y-181157142D01*
X137388095Y-181061904D01*
X137388095Y-180966666D01*
X137435714Y-180871428D01*
X137483333Y-180823809D01*
X137578571Y-180776190D01*
X137769047Y-180728571D01*
X137864285Y-180680952D01*
X137911904Y-180633333D01*
X137959523Y-180538095D01*
X137959523Y-180442857D01*
X137911904Y-180347619D01*
X137864285Y-180300000D01*
X137769047Y-180252380D01*
X137530952Y-180252380D01*
X137388095Y-180300000D01*
X137054761Y-180252380D02*
X136816666Y-181252380D01*
X136626190Y-180538095D01*
X136435714Y-181252380D01*
X136197619Y-180252380D01*
X135340476Y-180252380D02*
X135816666Y-180252380D01*
X135864285Y-180728571D01*
X135816666Y-180680952D01*
X135721428Y-180633333D01*
X135483333Y-180633333D01*
X135388095Y-180680952D01*
X135340476Y-180728571D01*
X135292857Y-180823809D01*
X135292857Y-181061904D01*
X135340476Y-181157142D01*
X135388095Y-181204761D01*
X135483333Y-181252380D01*
X135721428Y-181252380D01*
X135816666Y-181204761D01*
X135864285Y-181157142D01*
X134911904Y-180347619D02*
X134864285Y-180300000D01*
X134769047Y-180252380D01*
X134530952Y-180252380D01*
X134435714Y-180300000D01*
X134388095Y-180347619D01*
X134340476Y-180442857D01*
X134340476Y-180538095D01*
X134388095Y-180680952D01*
X134959523Y-181252380D01*
X134340476Y-181252380D01*
%TO.C,SW23*%
X499909523Y-143104761D02*
X499766666Y-143152380D01*
X499528571Y-143152380D01*
X499433333Y-143104761D01*
X499385714Y-143057142D01*
X499338095Y-142961904D01*
X499338095Y-142866666D01*
X499385714Y-142771428D01*
X499433333Y-142723809D01*
X499528571Y-142676190D01*
X499719047Y-142628571D01*
X499814285Y-142580952D01*
X499861904Y-142533333D01*
X499909523Y-142438095D01*
X499909523Y-142342857D01*
X499861904Y-142247619D01*
X499814285Y-142200000D01*
X499719047Y-142152380D01*
X499480952Y-142152380D01*
X499338095Y-142200000D01*
X499004761Y-142152380D02*
X498766666Y-143152380D01*
X498576190Y-142438095D01*
X498385714Y-143152380D01*
X498147619Y-142152380D01*
X497814285Y-142247619D02*
X497766666Y-142200000D01*
X497671428Y-142152380D01*
X497433333Y-142152380D01*
X497338095Y-142200000D01*
X497290476Y-142247619D01*
X497242857Y-142342857D01*
X497242857Y-142438095D01*
X497290476Y-142580952D01*
X497861904Y-143152380D01*
X497242857Y-143152380D01*
X496909523Y-142152380D02*
X496290476Y-142152380D01*
X496623809Y-142533333D01*
X496480952Y-142533333D01*
X496385714Y-142580952D01*
X496338095Y-142628571D01*
X496290476Y-142723809D01*
X496290476Y-142961904D01*
X496338095Y-143057142D01*
X496385714Y-143104761D01*
X496480952Y-143152380D01*
X496766666Y-143152380D01*
X496861904Y-143104761D01*
X496909523Y-143057142D01*
%TO.C,SW21*%
X461809523Y-143104761D02*
X461666666Y-143152380D01*
X461428571Y-143152380D01*
X461333333Y-143104761D01*
X461285714Y-143057142D01*
X461238095Y-142961904D01*
X461238095Y-142866666D01*
X461285714Y-142771428D01*
X461333333Y-142723809D01*
X461428571Y-142676190D01*
X461619047Y-142628571D01*
X461714285Y-142580952D01*
X461761904Y-142533333D01*
X461809523Y-142438095D01*
X461809523Y-142342857D01*
X461761904Y-142247619D01*
X461714285Y-142200000D01*
X461619047Y-142152380D01*
X461380952Y-142152380D01*
X461238095Y-142200000D01*
X460904761Y-142152380D02*
X460666666Y-143152380D01*
X460476190Y-142438095D01*
X460285714Y-143152380D01*
X460047619Y-142152380D01*
X459714285Y-142247619D02*
X459666666Y-142200000D01*
X459571428Y-142152380D01*
X459333333Y-142152380D01*
X459238095Y-142200000D01*
X459190476Y-142247619D01*
X459142857Y-142342857D01*
X459142857Y-142438095D01*
X459190476Y-142580952D01*
X459761904Y-143152380D01*
X459142857Y-143152380D01*
X458190476Y-143152380D02*
X458761904Y-143152380D01*
X458476190Y-143152380D02*
X458476190Y-142152380D01*
X458571428Y-142295238D01*
X458666666Y-142390476D01*
X458761904Y-142438095D01*
%TO.C,SW68*%
X461809523Y-181204761D02*
X461666666Y-181252380D01*
X461428571Y-181252380D01*
X461333333Y-181204761D01*
X461285714Y-181157142D01*
X461238095Y-181061904D01*
X461238095Y-180966666D01*
X461285714Y-180871428D01*
X461333333Y-180823809D01*
X461428571Y-180776190D01*
X461619047Y-180728571D01*
X461714285Y-180680952D01*
X461761904Y-180633333D01*
X461809523Y-180538095D01*
X461809523Y-180442857D01*
X461761904Y-180347619D01*
X461714285Y-180300000D01*
X461619047Y-180252380D01*
X461380952Y-180252380D01*
X461238095Y-180300000D01*
X460904761Y-180252380D02*
X460666666Y-181252380D01*
X460476190Y-180538095D01*
X460285714Y-181252380D01*
X460047619Y-180252380D01*
X459238095Y-180252380D02*
X459428571Y-180252380D01*
X459523809Y-180300000D01*
X459571428Y-180347619D01*
X459666666Y-180490476D01*
X459714285Y-180680952D01*
X459714285Y-181061904D01*
X459666666Y-181157142D01*
X459619047Y-181204761D01*
X459523809Y-181252380D01*
X459333333Y-181252380D01*
X459238095Y-181204761D01*
X459190476Y-181157142D01*
X459142857Y-181061904D01*
X459142857Y-180823809D01*
X459190476Y-180728571D01*
X459238095Y-180680952D01*
X459333333Y-180633333D01*
X459523809Y-180633333D01*
X459619047Y-180680952D01*
X459666666Y-180728571D01*
X459714285Y-180823809D01*
X458571428Y-180680952D02*
X458666666Y-180633333D01*
X458714285Y-180585714D01*
X458761904Y-180490476D01*
X458761904Y-180442857D01*
X458714285Y-180347619D01*
X458666666Y-180300000D01*
X458571428Y-180252380D01*
X458380952Y-180252380D01*
X458285714Y-180300000D01*
X458238095Y-180347619D01*
X458190476Y-180442857D01*
X458190476Y-180490476D01*
X458238095Y-180585714D01*
X458285714Y-180633333D01*
X458380952Y-180680952D01*
X458571428Y-180680952D01*
X458666666Y-180728571D01*
X458714285Y-180776190D01*
X458761904Y-180871428D01*
X458761904Y-181061904D01*
X458714285Y-181157142D01*
X458666666Y-181204761D01*
X458571428Y-181252380D01*
X458380952Y-181252380D01*
X458285714Y-181204761D01*
X458238095Y-181157142D01*
X458190476Y-181061904D01*
X458190476Y-180871428D01*
X458238095Y-180776190D01*
X458285714Y-180728571D01*
X458380952Y-180680952D01*
%TO.C,SW12*%
X290359523Y-143104761D02*
X290216666Y-143152380D01*
X289978571Y-143152380D01*
X289883333Y-143104761D01*
X289835714Y-143057142D01*
X289788095Y-142961904D01*
X289788095Y-142866666D01*
X289835714Y-142771428D01*
X289883333Y-142723809D01*
X289978571Y-142676190D01*
X290169047Y-142628571D01*
X290264285Y-142580952D01*
X290311904Y-142533333D01*
X290359523Y-142438095D01*
X290359523Y-142342857D01*
X290311904Y-142247619D01*
X290264285Y-142200000D01*
X290169047Y-142152380D01*
X289930952Y-142152380D01*
X289788095Y-142200000D01*
X289454761Y-142152380D02*
X289216666Y-143152380D01*
X289026190Y-142438095D01*
X288835714Y-143152380D01*
X288597619Y-142152380D01*
X287692857Y-143152380D02*
X288264285Y-143152380D01*
X287978571Y-143152380D02*
X287978571Y-142152380D01*
X288073809Y-142295238D01*
X288169047Y-142390476D01*
X288264285Y-142438095D01*
X287311904Y-142247619D02*
X287264285Y-142200000D01*
X287169047Y-142152380D01*
X286930952Y-142152380D01*
X286835714Y-142200000D01*
X286788095Y-142247619D01*
X286740476Y-142342857D01*
X286740476Y-142438095D01*
X286788095Y-142580952D01*
X287359523Y-143152380D01*
X286740476Y-143152380D01*
%TO.C,SW96*%
X99859523Y-219304761D02*
X99716666Y-219352380D01*
X99478571Y-219352380D01*
X99383333Y-219304761D01*
X99335714Y-219257142D01*
X99288095Y-219161904D01*
X99288095Y-219066666D01*
X99335714Y-218971428D01*
X99383333Y-218923809D01*
X99478571Y-218876190D01*
X99669047Y-218828571D01*
X99764285Y-218780952D01*
X99811904Y-218733333D01*
X99859523Y-218638095D01*
X99859523Y-218542857D01*
X99811904Y-218447619D01*
X99764285Y-218400000D01*
X99669047Y-218352380D01*
X99430952Y-218352380D01*
X99288095Y-218400000D01*
X98954761Y-218352380D02*
X98716666Y-219352380D01*
X98526190Y-218638095D01*
X98335714Y-219352380D01*
X98097619Y-218352380D01*
X97669047Y-219352380D02*
X97478571Y-219352380D01*
X97383333Y-219304761D01*
X97335714Y-219257142D01*
X97240476Y-219114285D01*
X97192857Y-218923809D01*
X97192857Y-218542857D01*
X97240476Y-218447619D01*
X97288095Y-218400000D01*
X97383333Y-218352380D01*
X97573809Y-218352380D01*
X97669047Y-218400000D01*
X97716666Y-218447619D01*
X97764285Y-218542857D01*
X97764285Y-218780952D01*
X97716666Y-218876190D01*
X97669047Y-218923809D01*
X97573809Y-218971428D01*
X97383333Y-218971428D01*
X97288095Y-218923809D01*
X97240476Y-218876190D01*
X97192857Y-218780952D01*
X96335714Y-218352380D02*
X96526190Y-218352380D01*
X96621428Y-218400000D01*
X96669047Y-218447619D01*
X96764285Y-218590476D01*
X96811904Y-218780952D01*
X96811904Y-219161904D01*
X96764285Y-219257142D01*
X96716666Y-219304761D01*
X96621428Y-219352380D01*
X96430952Y-219352380D01*
X96335714Y-219304761D01*
X96288095Y-219257142D01*
X96240476Y-219161904D01*
X96240476Y-218923809D01*
X96288095Y-218828571D01*
X96335714Y-218780952D01*
X96430952Y-218733333D01*
X96621428Y-218733333D01*
X96716666Y-218780952D01*
X96764285Y-218828571D01*
X96811904Y-218923809D01*
%TO.C,SW34*%
X252259523Y-162154761D02*
X252116666Y-162202380D01*
X251878571Y-162202380D01*
X251783333Y-162154761D01*
X251735714Y-162107142D01*
X251688095Y-162011904D01*
X251688095Y-161916666D01*
X251735714Y-161821428D01*
X251783333Y-161773809D01*
X251878571Y-161726190D01*
X252069047Y-161678571D01*
X252164285Y-161630952D01*
X252211904Y-161583333D01*
X252259523Y-161488095D01*
X252259523Y-161392857D01*
X252211904Y-161297619D01*
X252164285Y-161250000D01*
X252069047Y-161202380D01*
X251830952Y-161202380D01*
X251688095Y-161250000D01*
X251354761Y-161202380D02*
X251116666Y-162202380D01*
X250926190Y-161488095D01*
X250735714Y-162202380D01*
X250497619Y-161202380D01*
X250211904Y-161202380D02*
X249592857Y-161202380D01*
X249926190Y-161583333D01*
X249783333Y-161583333D01*
X249688095Y-161630952D01*
X249640476Y-161678571D01*
X249592857Y-161773809D01*
X249592857Y-162011904D01*
X249640476Y-162107142D01*
X249688095Y-162154761D01*
X249783333Y-162202380D01*
X250069047Y-162202380D01*
X250164285Y-162154761D01*
X250211904Y-162107142D01*
X248735714Y-161535714D02*
X248735714Y-162202380D01*
X248973809Y-161154761D02*
X249211904Y-161869047D01*
X248592857Y-161869047D01*
%TO.C,SW42*%
X404659523Y-162154761D02*
X404516666Y-162202380D01*
X404278571Y-162202380D01*
X404183333Y-162154761D01*
X404135714Y-162107142D01*
X404088095Y-162011904D01*
X404088095Y-161916666D01*
X404135714Y-161821428D01*
X404183333Y-161773809D01*
X404278571Y-161726190D01*
X404469047Y-161678571D01*
X404564285Y-161630952D01*
X404611904Y-161583333D01*
X404659523Y-161488095D01*
X404659523Y-161392857D01*
X404611904Y-161297619D01*
X404564285Y-161250000D01*
X404469047Y-161202380D01*
X404230952Y-161202380D01*
X404088095Y-161250000D01*
X403754761Y-161202380D02*
X403516666Y-162202380D01*
X403326190Y-161488095D01*
X403135714Y-162202380D01*
X402897619Y-161202380D01*
X402088095Y-161535714D02*
X402088095Y-162202380D01*
X402326190Y-161154761D02*
X402564285Y-161869047D01*
X401945238Y-161869047D01*
X401611904Y-161297619D02*
X401564285Y-161250000D01*
X401469047Y-161202380D01*
X401230952Y-161202380D01*
X401135714Y-161250000D01*
X401088095Y-161297619D01*
X401040476Y-161392857D01*
X401040476Y-161488095D01*
X401088095Y-161630952D01*
X401659523Y-162202380D01*
X401040476Y-162202380D01*
%TO.C,SW80*%
X247497023Y-200254761D02*
X247354166Y-200302380D01*
X247116071Y-200302380D01*
X247020833Y-200254761D01*
X246973214Y-200207142D01*
X246925595Y-200111904D01*
X246925595Y-200016666D01*
X246973214Y-199921428D01*
X247020833Y-199873809D01*
X247116071Y-199826190D01*
X247306547Y-199778571D01*
X247401785Y-199730952D01*
X247449404Y-199683333D01*
X247497023Y-199588095D01*
X247497023Y-199492857D01*
X247449404Y-199397619D01*
X247401785Y-199350000D01*
X247306547Y-199302380D01*
X247068452Y-199302380D01*
X246925595Y-199350000D01*
X246592261Y-199302380D02*
X246354166Y-200302380D01*
X246163690Y-199588095D01*
X245973214Y-200302380D01*
X245735119Y-199302380D01*
X245211309Y-199730952D02*
X245306547Y-199683333D01*
X245354166Y-199635714D01*
X245401785Y-199540476D01*
X245401785Y-199492857D01*
X245354166Y-199397619D01*
X245306547Y-199350000D01*
X245211309Y-199302380D01*
X245020833Y-199302380D01*
X244925595Y-199350000D01*
X244877976Y-199397619D01*
X244830357Y-199492857D01*
X244830357Y-199540476D01*
X244877976Y-199635714D01*
X244925595Y-199683333D01*
X245020833Y-199730952D01*
X245211309Y-199730952D01*
X245306547Y-199778571D01*
X245354166Y-199826190D01*
X245401785Y-199921428D01*
X245401785Y-200111904D01*
X245354166Y-200207142D01*
X245306547Y-200254761D01*
X245211309Y-200302380D01*
X245020833Y-200302380D01*
X244925595Y-200254761D01*
X244877976Y-200207142D01*
X244830357Y-200111904D01*
X244830357Y-199921428D01*
X244877976Y-199826190D01*
X244925595Y-199778571D01*
X245020833Y-199730952D01*
X244211309Y-199302380D02*
X244116071Y-199302380D01*
X244020833Y-199350000D01*
X243973214Y-199397619D01*
X243925595Y-199492857D01*
X243877976Y-199683333D01*
X243877976Y-199921428D01*
X243925595Y-200111904D01*
X243973214Y-200207142D01*
X244020833Y-200254761D01*
X244116071Y-200302380D01*
X244211309Y-200302380D01*
X244306547Y-200254761D01*
X244354166Y-200207142D01*
X244401785Y-200111904D01*
X244449404Y-199921428D01*
X244449404Y-199683333D01*
X244401785Y-199492857D01*
X244354166Y-199397619D01*
X244306547Y-199350000D01*
X244211309Y-199302380D01*
%TO.C,SW6*%
X175583333Y-143104761D02*
X175440476Y-143152380D01*
X175202380Y-143152380D01*
X175107142Y-143104761D01*
X175059523Y-143057142D01*
X175011904Y-142961904D01*
X175011904Y-142866666D01*
X175059523Y-142771428D01*
X175107142Y-142723809D01*
X175202380Y-142676190D01*
X175392857Y-142628571D01*
X175488095Y-142580952D01*
X175535714Y-142533333D01*
X175583333Y-142438095D01*
X175583333Y-142342857D01*
X175535714Y-142247619D01*
X175488095Y-142200000D01*
X175392857Y-142152380D01*
X175154761Y-142152380D01*
X175011904Y-142200000D01*
X174678571Y-142152380D02*
X174440476Y-143152380D01*
X174250000Y-142438095D01*
X174059523Y-143152380D01*
X173821428Y-142152380D01*
X173011904Y-142152380D02*
X173202380Y-142152380D01*
X173297619Y-142200000D01*
X173345238Y-142247619D01*
X173440476Y-142390476D01*
X173488095Y-142580952D01*
X173488095Y-142961904D01*
X173440476Y-143057142D01*
X173392857Y-143104761D01*
X173297619Y-143152380D01*
X173107142Y-143152380D01*
X173011904Y-143104761D01*
X172964285Y-143057142D01*
X172916666Y-142961904D01*
X172916666Y-142723809D01*
X172964285Y-142628571D01*
X173011904Y-142580952D01*
X173107142Y-142533333D01*
X173297619Y-142533333D01*
X173392857Y-142580952D01*
X173440476Y-142628571D01*
X173488095Y-142723809D01*
%TO.C,SW118*%
X81285714Y-238354761D02*
X81142857Y-238402380D01*
X80904761Y-238402380D01*
X80809523Y-238354761D01*
X80761904Y-238307142D01*
X80714285Y-238211904D01*
X80714285Y-238116666D01*
X80761904Y-238021428D01*
X80809523Y-237973809D01*
X80904761Y-237926190D01*
X81095238Y-237878571D01*
X81190476Y-237830952D01*
X81238095Y-237783333D01*
X81285714Y-237688095D01*
X81285714Y-237592857D01*
X81238095Y-237497619D01*
X81190476Y-237450000D01*
X81095238Y-237402380D01*
X80857142Y-237402380D01*
X80714285Y-237450000D01*
X80380952Y-237402380D02*
X80142857Y-238402380D01*
X79952380Y-237688095D01*
X79761904Y-238402380D01*
X79523809Y-237402380D01*
X78619047Y-238402380D02*
X79190476Y-238402380D01*
X78904761Y-238402380D02*
X78904761Y-237402380D01*
X79000000Y-237545238D01*
X79095238Y-237640476D01*
X79190476Y-237688095D01*
X77666666Y-238402380D02*
X78238095Y-238402380D01*
X77952380Y-238402380D02*
X77952380Y-237402380D01*
X78047619Y-237545238D01*
X78142857Y-237640476D01*
X78238095Y-237688095D01*
X77095238Y-237830952D02*
X77190476Y-237783333D01*
X77238095Y-237735714D01*
X77285714Y-237640476D01*
X77285714Y-237592857D01*
X77238095Y-237497619D01*
X77190476Y-237450000D01*
X77095238Y-237402380D01*
X76904761Y-237402380D01*
X76809523Y-237450000D01*
X76761904Y-237497619D01*
X76714285Y-237592857D01*
X76714285Y-237640476D01*
X76761904Y-237735714D01*
X76809523Y-237783333D01*
X76904761Y-237830952D01*
X77095238Y-237830952D01*
X77190476Y-237878571D01*
X77238095Y-237926190D01*
X77285714Y-238021428D01*
X77285714Y-238211904D01*
X77238095Y-238307142D01*
X77190476Y-238354761D01*
X77095238Y-238402380D01*
X76904761Y-238402380D01*
X76809523Y-238354761D01*
X76761904Y-238307142D01*
X76714285Y-238211904D01*
X76714285Y-238021428D01*
X76761904Y-237926190D01*
X76809523Y-237878571D01*
X76904761Y-237830952D01*
%TO.C,SW74*%
X118909523Y-200254761D02*
X118766666Y-200302380D01*
X118528571Y-200302380D01*
X118433333Y-200254761D01*
X118385714Y-200207142D01*
X118338095Y-200111904D01*
X118338095Y-200016666D01*
X118385714Y-199921428D01*
X118433333Y-199873809D01*
X118528571Y-199826190D01*
X118719047Y-199778571D01*
X118814285Y-199730952D01*
X118861904Y-199683333D01*
X118909523Y-199588095D01*
X118909523Y-199492857D01*
X118861904Y-199397619D01*
X118814285Y-199350000D01*
X118719047Y-199302380D01*
X118480952Y-199302380D01*
X118338095Y-199350000D01*
X118004761Y-199302380D02*
X117766666Y-200302380D01*
X117576190Y-199588095D01*
X117385714Y-200302380D01*
X117147619Y-199302380D01*
X116861904Y-199302380D02*
X116195238Y-199302380D01*
X116623809Y-200302380D01*
X115385714Y-199635714D02*
X115385714Y-200302380D01*
X115623809Y-199254761D02*
X115861904Y-199969047D01*
X115242857Y-199969047D01*
%TO.C,SW4*%
X137483333Y-143104761D02*
X137340476Y-143152380D01*
X137102380Y-143152380D01*
X137007142Y-143104761D01*
X136959523Y-143057142D01*
X136911904Y-142961904D01*
X136911904Y-142866666D01*
X136959523Y-142771428D01*
X137007142Y-142723809D01*
X137102380Y-142676190D01*
X137292857Y-142628571D01*
X137388095Y-142580952D01*
X137435714Y-142533333D01*
X137483333Y-142438095D01*
X137483333Y-142342857D01*
X137435714Y-142247619D01*
X137388095Y-142200000D01*
X137292857Y-142152380D01*
X137054761Y-142152380D01*
X136911904Y-142200000D01*
X136578571Y-142152380D02*
X136340476Y-143152380D01*
X136150000Y-142438095D01*
X135959523Y-143152380D01*
X135721428Y-142152380D01*
X134911904Y-142485714D02*
X134911904Y-143152380D01*
X135150000Y-142104761D02*
X135388095Y-142819047D01*
X134769047Y-142819047D01*
%TO.C,SW45*%
X461809523Y-162154761D02*
X461666666Y-162202380D01*
X461428571Y-162202380D01*
X461333333Y-162154761D01*
X461285714Y-162107142D01*
X461238095Y-162011904D01*
X461238095Y-161916666D01*
X461285714Y-161821428D01*
X461333333Y-161773809D01*
X461428571Y-161726190D01*
X461619047Y-161678571D01*
X461714285Y-161630952D01*
X461761904Y-161583333D01*
X461809523Y-161488095D01*
X461809523Y-161392857D01*
X461761904Y-161297619D01*
X461714285Y-161250000D01*
X461619047Y-161202380D01*
X461380952Y-161202380D01*
X461238095Y-161250000D01*
X460904761Y-161202380D02*
X460666666Y-162202380D01*
X460476190Y-161488095D01*
X460285714Y-162202380D01*
X460047619Y-161202380D01*
X459238095Y-161535714D02*
X459238095Y-162202380D01*
X459476190Y-161154761D02*
X459714285Y-161869047D01*
X459095238Y-161869047D01*
X458238095Y-161202380D02*
X458714285Y-161202380D01*
X458761904Y-161678571D01*
X458714285Y-161630952D01*
X458619047Y-161583333D01*
X458380952Y-161583333D01*
X458285714Y-161630952D01*
X458238095Y-161678571D01*
X458190476Y-161773809D01*
X458190476Y-162011904D01*
X458238095Y-162107142D01*
X458285714Y-162154761D01*
X458380952Y-162202380D01*
X458619047Y-162202380D01*
X458714285Y-162154761D01*
X458761904Y-162107142D01*
%TO.C,SW43*%
X423709523Y-162154761D02*
X423566666Y-162202380D01*
X423328571Y-162202380D01*
X423233333Y-162154761D01*
X423185714Y-162107142D01*
X423138095Y-162011904D01*
X423138095Y-161916666D01*
X423185714Y-161821428D01*
X423233333Y-161773809D01*
X423328571Y-161726190D01*
X423519047Y-161678571D01*
X423614285Y-161630952D01*
X423661904Y-161583333D01*
X423709523Y-161488095D01*
X423709523Y-161392857D01*
X423661904Y-161297619D01*
X423614285Y-161250000D01*
X423519047Y-161202380D01*
X423280952Y-161202380D01*
X423138095Y-161250000D01*
X422804761Y-161202380D02*
X422566666Y-162202380D01*
X422376190Y-161488095D01*
X422185714Y-162202380D01*
X421947619Y-161202380D01*
X421138095Y-161535714D02*
X421138095Y-162202380D01*
X421376190Y-161154761D02*
X421614285Y-161869047D01*
X420995238Y-161869047D01*
X420709523Y-161202380D02*
X420090476Y-161202380D01*
X420423809Y-161583333D01*
X420280952Y-161583333D01*
X420185714Y-161630952D01*
X420138095Y-161678571D01*
X420090476Y-161773809D01*
X420090476Y-162011904D01*
X420138095Y-162107142D01*
X420185714Y-162154761D01*
X420280952Y-162202380D01*
X420566666Y-162202380D01*
X420661904Y-162154761D01*
X420709523Y-162107142D01*
%TO.C,SW103*%
X238448214Y-219304761D02*
X238305357Y-219352380D01*
X238067261Y-219352380D01*
X237972023Y-219304761D01*
X237924404Y-219257142D01*
X237876785Y-219161904D01*
X237876785Y-219066666D01*
X237924404Y-218971428D01*
X237972023Y-218923809D01*
X238067261Y-218876190D01*
X238257738Y-218828571D01*
X238352976Y-218780952D01*
X238400595Y-218733333D01*
X238448214Y-218638095D01*
X238448214Y-218542857D01*
X238400595Y-218447619D01*
X238352976Y-218400000D01*
X238257738Y-218352380D01*
X238019642Y-218352380D01*
X237876785Y-218400000D01*
X237543452Y-218352380D02*
X237305357Y-219352380D01*
X237114880Y-218638095D01*
X236924404Y-219352380D01*
X236686309Y-218352380D01*
X235781547Y-219352380D02*
X236352976Y-219352380D01*
X236067261Y-219352380D02*
X236067261Y-218352380D01*
X236162500Y-218495238D01*
X236257738Y-218590476D01*
X236352976Y-218638095D01*
X235162500Y-218352380D02*
X235067261Y-218352380D01*
X234972023Y-218400000D01*
X234924404Y-218447619D01*
X234876785Y-218542857D01*
X234829166Y-218733333D01*
X234829166Y-218971428D01*
X234876785Y-219161904D01*
X234924404Y-219257142D01*
X234972023Y-219304761D01*
X235067261Y-219352380D01*
X235162500Y-219352380D01*
X235257738Y-219304761D01*
X235305357Y-219257142D01*
X235352976Y-219161904D01*
X235400595Y-218971428D01*
X235400595Y-218733333D01*
X235352976Y-218542857D01*
X235305357Y-218447619D01*
X235257738Y-218400000D01*
X235162500Y-218352380D01*
X234495833Y-218352380D02*
X233876785Y-218352380D01*
X234210119Y-218733333D01*
X234067261Y-218733333D01*
X233972023Y-218780952D01*
X233924404Y-218828571D01*
X233876785Y-218923809D01*
X233876785Y-219161904D01*
X233924404Y-219257142D01*
X233972023Y-219304761D01*
X234067261Y-219352380D01*
X234352976Y-219352380D01*
X234448214Y-219304761D01*
X234495833Y-219257142D01*
%TO.C,SW20*%
X442759523Y-143104761D02*
X442616666Y-143152380D01*
X442378571Y-143152380D01*
X442283333Y-143104761D01*
X442235714Y-143057142D01*
X442188095Y-142961904D01*
X442188095Y-142866666D01*
X442235714Y-142771428D01*
X442283333Y-142723809D01*
X442378571Y-142676190D01*
X442569047Y-142628571D01*
X442664285Y-142580952D01*
X442711904Y-142533333D01*
X442759523Y-142438095D01*
X442759523Y-142342857D01*
X442711904Y-142247619D01*
X442664285Y-142200000D01*
X442569047Y-142152380D01*
X442330952Y-142152380D01*
X442188095Y-142200000D01*
X441854761Y-142152380D02*
X441616666Y-143152380D01*
X441426190Y-142438095D01*
X441235714Y-143152380D01*
X440997619Y-142152380D01*
X440664285Y-142247619D02*
X440616666Y-142200000D01*
X440521428Y-142152380D01*
X440283333Y-142152380D01*
X440188095Y-142200000D01*
X440140476Y-142247619D01*
X440092857Y-142342857D01*
X440092857Y-142438095D01*
X440140476Y-142580952D01*
X440711904Y-143152380D01*
X440092857Y-143152380D01*
X439473809Y-142152380D02*
X439378571Y-142152380D01*
X439283333Y-142200000D01*
X439235714Y-142247619D01*
X439188095Y-142342857D01*
X439140476Y-142533333D01*
X439140476Y-142771428D01*
X439188095Y-142961904D01*
X439235714Y-143057142D01*
X439283333Y-143104761D01*
X439378571Y-143152380D01*
X439473809Y-143152380D01*
X439569047Y-143104761D01*
X439616666Y-143057142D01*
X439664285Y-142961904D01*
X439711904Y-142771428D01*
X439711904Y-142533333D01*
X439664285Y-142342857D01*
X439616666Y-142247619D01*
X439569047Y-142200000D01*
X439473809Y-142152380D01*
%TO.C,SW13*%
X309409523Y-143104761D02*
X309266666Y-143152380D01*
X309028571Y-143152380D01*
X308933333Y-143104761D01*
X308885714Y-143057142D01*
X308838095Y-142961904D01*
X308838095Y-142866666D01*
X308885714Y-142771428D01*
X308933333Y-142723809D01*
X309028571Y-142676190D01*
X309219047Y-142628571D01*
X309314285Y-142580952D01*
X309361904Y-142533333D01*
X309409523Y-142438095D01*
X309409523Y-142342857D01*
X309361904Y-142247619D01*
X309314285Y-142200000D01*
X309219047Y-142152380D01*
X308980952Y-142152380D01*
X308838095Y-142200000D01*
X308504761Y-142152380D02*
X308266666Y-143152380D01*
X308076190Y-142438095D01*
X307885714Y-143152380D01*
X307647619Y-142152380D01*
X306742857Y-143152380D02*
X307314285Y-143152380D01*
X307028571Y-143152380D02*
X307028571Y-142152380D01*
X307123809Y-142295238D01*
X307219047Y-142390476D01*
X307314285Y-142438095D01*
X306409523Y-142152380D02*
X305790476Y-142152380D01*
X306123809Y-142533333D01*
X305980952Y-142533333D01*
X305885714Y-142580952D01*
X305838095Y-142628571D01*
X305790476Y-142723809D01*
X305790476Y-142961904D01*
X305838095Y-143057142D01*
X305885714Y-143104761D01*
X305980952Y-143152380D01*
X306266666Y-143152380D01*
X306361904Y-143104761D01*
X306409523Y-143057142D01*
%TO.C,SW30*%
X176059523Y-162154761D02*
X175916666Y-162202380D01*
X175678571Y-162202380D01*
X175583333Y-162154761D01*
X175535714Y-162107142D01*
X175488095Y-162011904D01*
X175488095Y-161916666D01*
X175535714Y-161821428D01*
X175583333Y-161773809D01*
X175678571Y-161726190D01*
X175869047Y-161678571D01*
X175964285Y-161630952D01*
X176011904Y-161583333D01*
X176059523Y-161488095D01*
X176059523Y-161392857D01*
X176011904Y-161297619D01*
X175964285Y-161250000D01*
X175869047Y-161202380D01*
X175630952Y-161202380D01*
X175488095Y-161250000D01*
X175154761Y-161202380D02*
X174916666Y-162202380D01*
X174726190Y-161488095D01*
X174535714Y-162202380D01*
X174297619Y-161202380D01*
X174011904Y-161202380D02*
X173392857Y-161202380D01*
X173726190Y-161583333D01*
X173583333Y-161583333D01*
X173488095Y-161630952D01*
X173440476Y-161678571D01*
X173392857Y-161773809D01*
X173392857Y-162011904D01*
X173440476Y-162107142D01*
X173488095Y-162154761D01*
X173583333Y-162202380D01*
X173869047Y-162202380D01*
X173964285Y-162154761D01*
X174011904Y-162107142D01*
X172773809Y-161202380D02*
X172678571Y-161202380D01*
X172583333Y-161250000D01*
X172535714Y-161297619D01*
X172488095Y-161392857D01*
X172440476Y-161583333D01*
X172440476Y-161821428D01*
X172488095Y-162011904D01*
X172535714Y-162107142D01*
X172583333Y-162154761D01*
X172678571Y-162202380D01*
X172773809Y-162202380D01*
X172869047Y-162154761D01*
X172916666Y-162107142D01*
X172964285Y-162011904D01*
X173011904Y-161821428D01*
X173011904Y-161583333D01*
X172964285Y-161392857D01*
X172916666Y-161297619D01*
X172869047Y-161250000D01*
X172773809Y-161202380D01*
%TO.C,SW58*%
X261784523Y-181204761D02*
X261641666Y-181252380D01*
X261403571Y-181252380D01*
X261308333Y-181204761D01*
X261260714Y-181157142D01*
X261213095Y-181061904D01*
X261213095Y-180966666D01*
X261260714Y-180871428D01*
X261308333Y-180823809D01*
X261403571Y-180776190D01*
X261594047Y-180728571D01*
X261689285Y-180680952D01*
X261736904Y-180633333D01*
X261784523Y-180538095D01*
X261784523Y-180442857D01*
X261736904Y-180347619D01*
X261689285Y-180300000D01*
X261594047Y-180252380D01*
X261355952Y-180252380D01*
X261213095Y-180300000D01*
X260879761Y-180252380D02*
X260641666Y-181252380D01*
X260451190Y-180538095D01*
X260260714Y-181252380D01*
X260022619Y-180252380D01*
X259165476Y-180252380D02*
X259641666Y-180252380D01*
X259689285Y-180728571D01*
X259641666Y-180680952D01*
X259546428Y-180633333D01*
X259308333Y-180633333D01*
X259213095Y-180680952D01*
X259165476Y-180728571D01*
X259117857Y-180823809D01*
X259117857Y-181061904D01*
X259165476Y-181157142D01*
X259213095Y-181204761D01*
X259308333Y-181252380D01*
X259546428Y-181252380D01*
X259641666Y-181204761D01*
X259689285Y-181157142D01*
X258546428Y-180680952D02*
X258641666Y-180633333D01*
X258689285Y-180585714D01*
X258736904Y-180490476D01*
X258736904Y-180442857D01*
X258689285Y-180347619D01*
X258641666Y-180300000D01*
X258546428Y-180252380D01*
X258355952Y-180252380D01*
X258260714Y-180300000D01*
X258213095Y-180347619D01*
X258165476Y-180442857D01*
X258165476Y-180490476D01*
X258213095Y-180585714D01*
X258260714Y-180633333D01*
X258355952Y-180680952D01*
X258546428Y-180680952D01*
X258641666Y-180728571D01*
X258689285Y-180776190D01*
X258736904Y-180871428D01*
X258736904Y-181061904D01*
X258689285Y-181157142D01*
X258641666Y-181204761D01*
X258546428Y-181252380D01*
X258355952Y-181252380D01*
X258260714Y-181204761D01*
X258213095Y-181157142D01*
X258165476Y-181061904D01*
X258165476Y-180871428D01*
X258213095Y-180776190D01*
X258260714Y-180728571D01*
X258355952Y-180680952D01*
%TO.C,SW78*%
X209397023Y-200254761D02*
X209254166Y-200302380D01*
X209016071Y-200302380D01*
X208920833Y-200254761D01*
X208873214Y-200207142D01*
X208825595Y-200111904D01*
X208825595Y-200016666D01*
X208873214Y-199921428D01*
X208920833Y-199873809D01*
X209016071Y-199826190D01*
X209206547Y-199778571D01*
X209301785Y-199730952D01*
X209349404Y-199683333D01*
X209397023Y-199588095D01*
X209397023Y-199492857D01*
X209349404Y-199397619D01*
X209301785Y-199350000D01*
X209206547Y-199302380D01*
X208968452Y-199302380D01*
X208825595Y-199350000D01*
X208492261Y-199302380D02*
X208254166Y-200302380D01*
X208063690Y-199588095D01*
X207873214Y-200302380D01*
X207635119Y-199302380D01*
X207349404Y-199302380D02*
X206682738Y-199302380D01*
X207111309Y-200302380D01*
X206158928Y-199730952D02*
X206254166Y-199683333D01*
X206301785Y-199635714D01*
X206349404Y-199540476D01*
X206349404Y-199492857D01*
X206301785Y-199397619D01*
X206254166Y-199350000D01*
X206158928Y-199302380D01*
X205968452Y-199302380D01*
X205873214Y-199350000D01*
X205825595Y-199397619D01*
X205777976Y-199492857D01*
X205777976Y-199540476D01*
X205825595Y-199635714D01*
X205873214Y-199683333D01*
X205968452Y-199730952D01*
X206158928Y-199730952D01*
X206254166Y-199778571D01*
X206301785Y-199826190D01*
X206349404Y-199921428D01*
X206349404Y-200111904D01*
X206301785Y-200207142D01*
X206254166Y-200254761D01*
X206158928Y-200302380D01*
X205968452Y-200302380D01*
X205873214Y-200254761D01*
X205825595Y-200207142D01*
X205777976Y-200111904D01*
X205777976Y-199921428D01*
X205825595Y-199826190D01*
X205873214Y-199778571D01*
X205968452Y-199730952D01*
%TO.C,SW123a0*%
X353676785Y-238354761D02*
X353533928Y-238402380D01*
X353295833Y-238402380D01*
X353200595Y-238354761D01*
X353152976Y-238307142D01*
X353105357Y-238211904D01*
X353105357Y-238116666D01*
X353152976Y-238021428D01*
X353200595Y-237973809D01*
X353295833Y-237926190D01*
X353486309Y-237878571D01*
X353581547Y-237830952D01*
X353629166Y-237783333D01*
X353676785Y-237688095D01*
X353676785Y-237592857D01*
X353629166Y-237497619D01*
X353581547Y-237450000D01*
X353486309Y-237402380D01*
X353248214Y-237402380D01*
X353105357Y-237450000D01*
X352772023Y-237402380D02*
X352533928Y-238402380D01*
X352343452Y-237688095D01*
X352152976Y-238402380D01*
X351914880Y-237402380D01*
X351010119Y-238402380D02*
X351581547Y-238402380D01*
X351295833Y-238402380D02*
X351295833Y-237402380D01*
X351391071Y-237545238D01*
X351486309Y-237640476D01*
X351581547Y-237688095D01*
X350629166Y-237497619D02*
X350581547Y-237450000D01*
X350486309Y-237402380D01*
X350248214Y-237402380D01*
X350152976Y-237450000D01*
X350105357Y-237497619D01*
X350057738Y-237592857D01*
X350057738Y-237688095D01*
X350105357Y-237830952D01*
X350676785Y-238402380D01*
X350057738Y-238402380D01*
X349724404Y-237402380D02*
X349105357Y-237402380D01*
X349438690Y-237783333D01*
X349295833Y-237783333D01*
X349200595Y-237830952D01*
X349152976Y-237878571D01*
X349105357Y-237973809D01*
X349105357Y-238211904D01*
X349152976Y-238307142D01*
X349200595Y-238354761D01*
X349295833Y-238402380D01*
X349581547Y-238402380D01*
X349676785Y-238354761D01*
X349724404Y-238307142D01*
X348248214Y-238402380D02*
X348248214Y-237878571D01*
X348295833Y-237783333D01*
X348391071Y-237735714D01*
X348581547Y-237735714D01*
X348676785Y-237783333D01*
X348248214Y-238354761D02*
X348343452Y-238402380D01*
X348581547Y-238402380D01*
X348676785Y-238354761D01*
X348724404Y-238259523D01*
X348724404Y-238164285D01*
X348676785Y-238069047D01*
X348581547Y-238021428D01*
X348343452Y-238021428D01*
X348248214Y-237973809D01*
X347581547Y-237402380D02*
X347486309Y-237402380D01*
X347391071Y-237450000D01*
X347343452Y-237497619D01*
X347295833Y-237592857D01*
X347248214Y-237783333D01*
X347248214Y-238021428D01*
X347295833Y-238211904D01*
X347343452Y-238307142D01*
X347391071Y-238354761D01*
X347486309Y-238402380D01*
X347581547Y-238402380D01*
X347676785Y-238354761D01*
X347724404Y-238307142D01*
X347772023Y-238211904D01*
X347819642Y-238021428D01*
X347819642Y-237783333D01*
X347772023Y-237592857D01*
X347724404Y-237497619D01*
X347676785Y-237450000D01*
X347581547Y-237402380D01*
%TO.C,SW125*%
X462285714Y-238354761D02*
X462142857Y-238402380D01*
X461904761Y-238402380D01*
X461809523Y-238354761D01*
X461761904Y-238307142D01*
X461714285Y-238211904D01*
X461714285Y-238116666D01*
X461761904Y-238021428D01*
X461809523Y-237973809D01*
X461904761Y-237926190D01*
X462095238Y-237878571D01*
X462190476Y-237830952D01*
X462238095Y-237783333D01*
X462285714Y-237688095D01*
X462285714Y-237592857D01*
X462238095Y-237497619D01*
X462190476Y-237450000D01*
X462095238Y-237402380D01*
X461857142Y-237402380D01*
X461714285Y-237450000D01*
X461380952Y-237402380D02*
X461142857Y-238402380D01*
X460952380Y-237688095D01*
X460761904Y-238402380D01*
X460523809Y-237402380D01*
X459619047Y-238402380D02*
X460190476Y-238402380D01*
X459904761Y-238402380D02*
X459904761Y-237402380D01*
X460000000Y-237545238D01*
X460095238Y-237640476D01*
X460190476Y-237688095D01*
X459238095Y-237497619D02*
X459190476Y-237450000D01*
X459095238Y-237402380D01*
X458857142Y-237402380D01*
X458761904Y-237450000D01*
X458714285Y-237497619D01*
X458666666Y-237592857D01*
X458666666Y-237688095D01*
X458714285Y-237830952D01*
X459285714Y-238402380D01*
X458666666Y-238402380D01*
X457761904Y-237402380D02*
X458238095Y-237402380D01*
X458285714Y-237878571D01*
X458238095Y-237830952D01*
X458142857Y-237783333D01*
X457904761Y-237783333D01*
X457809523Y-237830952D01*
X457761904Y-237878571D01*
X457714285Y-237973809D01*
X457714285Y-238211904D01*
X457761904Y-238307142D01*
X457809523Y-238354761D01*
X457904761Y-238402380D01*
X458142857Y-238402380D01*
X458238095Y-238354761D01*
X458285714Y-238307142D01*
%TO.C,SW37*%
X309409523Y-162154761D02*
X309266666Y-162202380D01*
X309028571Y-162202380D01*
X308933333Y-162154761D01*
X308885714Y-162107142D01*
X308838095Y-162011904D01*
X308838095Y-161916666D01*
X308885714Y-161821428D01*
X308933333Y-161773809D01*
X309028571Y-161726190D01*
X309219047Y-161678571D01*
X309314285Y-161630952D01*
X309361904Y-161583333D01*
X309409523Y-161488095D01*
X309409523Y-161392857D01*
X309361904Y-161297619D01*
X309314285Y-161250000D01*
X309219047Y-161202380D01*
X308980952Y-161202380D01*
X308838095Y-161250000D01*
X308504761Y-161202380D02*
X308266666Y-162202380D01*
X308076190Y-161488095D01*
X307885714Y-162202380D01*
X307647619Y-161202380D01*
X307361904Y-161202380D02*
X306742857Y-161202380D01*
X307076190Y-161583333D01*
X306933333Y-161583333D01*
X306838095Y-161630952D01*
X306790476Y-161678571D01*
X306742857Y-161773809D01*
X306742857Y-162011904D01*
X306790476Y-162107142D01*
X306838095Y-162154761D01*
X306933333Y-162202380D01*
X307219047Y-162202380D01*
X307314285Y-162154761D01*
X307361904Y-162107142D01*
X306409523Y-161202380D02*
X305742857Y-161202380D01*
X306171428Y-162202380D01*
%TO.C,SW122a0*%
X201276785Y-238354761D02*
X201133928Y-238402380D01*
X200895833Y-238402380D01*
X200800595Y-238354761D01*
X200752976Y-238307142D01*
X200705357Y-238211904D01*
X200705357Y-238116666D01*
X200752976Y-238021428D01*
X200800595Y-237973809D01*
X200895833Y-237926190D01*
X201086309Y-237878571D01*
X201181547Y-237830952D01*
X201229166Y-237783333D01*
X201276785Y-237688095D01*
X201276785Y-237592857D01*
X201229166Y-237497619D01*
X201181547Y-237450000D01*
X201086309Y-237402380D01*
X200848214Y-237402380D01*
X200705357Y-237450000D01*
X200372023Y-237402380D02*
X200133928Y-238402380D01*
X199943452Y-237688095D01*
X199752976Y-238402380D01*
X199514880Y-237402380D01*
X198610119Y-238402380D02*
X199181547Y-238402380D01*
X198895833Y-238402380D02*
X198895833Y-237402380D01*
X198991071Y-237545238D01*
X199086309Y-237640476D01*
X199181547Y-237688095D01*
X198229166Y-237497619D02*
X198181547Y-237450000D01*
X198086309Y-237402380D01*
X197848214Y-237402380D01*
X197752976Y-237450000D01*
X197705357Y-237497619D01*
X197657738Y-237592857D01*
X197657738Y-237688095D01*
X197705357Y-237830952D01*
X198276785Y-238402380D01*
X197657738Y-238402380D01*
X197276785Y-237497619D02*
X197229166Y-237450000D01*
X197133928Y-237402380D01*
X196895833Y-237402380D01*
X196800595Y-237450000D01*
X196752976Y-237497619D01*
X196705357Y-237592857D01*
X196705357Y-237688095D01*
X196752976Y-237830952D01*
X197324404Y-238402380D01*
X196705357Y-238402380D01*
X195848214Y-238402380D02*
X195848214Y-237878571D01*
X195895833Y-237783333D01*
X195991071Y-237735714D01*
X196181547Y-237735714D01*
X196276785Y-237783333D01*
X195848214Y-238354761D02*
X195943452Y-238402380D01*
X196181547Y-238402380D01*
X196276785Y-238354761D01*
X196324404Y-238259523D01*
X196324404Y-238164285D01*
X196276785Y-238069047D01*
X196181547Y-238021428D01*
X195943452Y-238021428D01*
X195848214Y-237973809D01*
X195181547Y-237402380D02*
X195086309Y-237402380D01*
X194991071Y-237450000D01*
X194943452Y-237497619D01*
X194895833Y-237592857D01*
X194848214Y-237783333D01*
X194848214Y-238021428D01*
X194895833Y-238211904D01*
X194943452Y-238307142D01*
X194991071Y-238354761D01*
X195086309Y-238402380D01*
X195181547Y-238402380D01*
X195276785Y-238354761D01*
X195324404Y-238307142D01*
X195372023Y-238211904D01*
X195419642Y-238021428D01*
X195419642Y-237783333D01*
X195372023Y-237592857D01*
X195324404Y-237497619D01*
X195276785Y-237450000D01*
X195181547Y-237402380D01*
%TO.C,SW81*%
X266547023Y-200254761D02*
X266404166Y-200302380D01*
X266166071Y-200302380D01*
X266070833Y-200254761D01*
X266023214Y-200207142D01*
X265975595Y-200111904D01*
X265975595Y-200016666D01*
X266023214Y-199921428D01*
X266070833Y-199873809D01*
X266166071Y-199826190D01*
X266356547Y-199778571D01*
X266451785Y-199730952D01*
X266499404Y-199683333D01*
X266547023Y-199588095D01*
X266547023Y-199492857D01*
X266499404Y-199397619D01*
X266451785Y-199350000D01*
X266356547Y-199302380D01*
X266118452Y-199302380D01*
X265975595Y-199350000D01*
X265642261Y-199302380D02*
X265404166Y-200302380D01*
X265213690Y-199588095D01*
X265023214Y-200302380D01*
X264785119Y-199302380D01*
X264261309Y-199730952D02*
X264356547Y-199683333D01*
X264404166Y-199635714D01*
X264451785Y-199540476D01*
X264451785Y-199492857D01*
X264404166Y-199397619D01*
X264356547Y-199350000D01*
X264261309Y-199302380D01*
X264070833Y-199302380D01*
X263975595Y-199350000D01*
X263927976Y-199397619D01*
X263880357Y-199492857D01*
X263880357Y-199540476D01*
X263927976Y-199635714D01*
X263975595Y-199683333D01*
X264070833Y-199730952D01*
X264261309Y-199730952D01*
X264356547Y-199778571D01*
X264404166Y-199826190D01*
X264451785Y-199921428D01*
X264451785Y-200111904D01*
X264404166Y-200207142D01*
X264356547Y-200254761D01*
X264261309Y-200302380D01*
X264070833Y-200302380D01*
X263975595Y-200254761D01*
X263927976Y-200207142D01*
X263880357Y-200111904D01*
X263880357Y-199921428D01*
X263927976Y-199826190D01*
X263975595Y-199778571D01*
X264070833Y-199730952D01*
X262927976Y-200302380D02*
X263499404Y-200302380D01*
X263213690Y-200302380D02*
X263213690Y-199302380D01*
X263308928Y-199445238D01*
X263404166Y-199540476D01*
X263499404Y-199588095D01*
%TO.C,SW39*%
X347509523Y-162154761D02*
X347366666Y-162202380D01*
X347128571Y-162202380D01*
X347033333Y-162154761D01*
X346985714Y-162107142D01*
X346938095Y-162011904D01*
X346938095Y-161916666D01*
X346985714Y-161821428D01*
X347033333Y-161773809D01*
X347128571Y-161726190D01*
X347319047Y-161678571D01*
X347414285Y-161630952D01*
X347461904Y-161583333D01*
X347509523Y-161488095D01*
X347509523Y-161392857D01*
X347461904Y-161297619D01*
X347414285Y-161250000D01*
X347319047Y-161202380D01*
X347080952Y-161202380D01*
X346938095Y-161250000D01*
X346604761Y-161202380D02*
X346366666Y-162202380D01*
X346176190Y-161488095D01*
X345985714Y-162202380D01*
X345747619Y-161202380D01*
X345461904Y-161202380D02*
X344842857Y-161202380D01*
X345176190Y-161583333D01*
X345033333Y-161583333D01*
X344938095Y-161630952D01*
X344890476Y-161678571D01*
X344842857Y-161773809D01*
X344842857Y-162011904D01*
X344890476Y-162107142D01*
X344938095Y-162154761D01*
X345033333Y-162202380D01*
X345319047Y-162202380D01*
X345414285Y-162154761D01*
X345461904Y-162107142D01*
X344366666Y-162202380D02*
X344176190Y-162202380D01*
X344080952Y-162154761D01*
X344033333Y-162107142D01*
X343938095Y-161964285D01*
X343890476Y-161773809D01*
X343890476Y-161392857D01*
X343938095Y-161297619D01*
X343985714Y-161250000D01*
X344080952Y-161202380D01*
X344271428Y-161202380D01*
X344366666Y-161250000D01*
X344414285Y-161297619D01*
X344461904Y-161392857D01*
X344461904Y-161630952D01*
X344414285Y-161726190D01*
X344366666Y-161773809D01*
X344271428Y-161821428D01*
X344080952Y-161821428D01*
X343985714Y-161773809D01*
X343938095Y-161726190D01*
X343890476Y-161630952D01*
%TO.C,SW72*%
X80809523Y-200254761D02*
X80666666Y-200302380D01*
X80428571Y-200302380D01*
X80333333Y-200254761D01*
X80285714Y-200207142D01*
X80238095Y-200111904D01*
X80238095Y-200016666D01*
X80285714Y-199921428D01*
X80333333Y-199873809D01*
X80428571Y-199826190D01*
X80619047Y-199778571D01*
X80714285Y-199730952D01*
X80761904Y-199683333D01*
X80809523Y-199588095D01*
X80809523Y-199492857D01*
X80761904Y-199397619D01*
X80714285Y-199350000D01*
X80619047Y-199302380D01*
X80380952Y-199302380D01*
X80238095Y-199350000D01*
X79904761Y-199302380D02*
X79666666Y-200302380D01*
X79476190Y-199588095D01*
X79285714Y-200302380D01*
X79047619Y-199302380D01*
X78761904Y-199302380D02*
X78095238Y-199302380D01*
X78523809Y-200302380D01*
X77761904Y-199397619D02*
X77714285Y-199350000D01*
X77619047Y-199302380D01*
X77380952Y-199302380D01*
X77285714Y-199350000D01*
X77238095Y-199397619D01*
X77190476Y-199492857D01*
X77190476Y-199588095D01*
X77238095Y-199730952D01*
X77809523Y-200302380D01*
X77190476Y-200302380D01*
%TO.C,SW3*%
X118433333Y-143104761D02*
X118290476Y-143152380D01*
X118052380Y-143152380D01*
X117957142Y-143104761D01*
X117909523Y-143057142D01*
X117861904Y-142961904D01*
X117861904Y-142866666D01*
X117909523Y-142771428D01*
X117957142Y-142723809D01*
X118052380Y-142676190D01*
X118242857Y-142628571D01*
X118338095Y-142580952D01*
X118385714Y-142533333D01*
X118433333Y-142438095D01*
X118433333Y-142342857D01*
X118385714Y-142247619D01*
X118338095Y-142200000D01*
X118242857Y-142152380D01*
X118004761Y-142152380D01*
X117861904Y-142200000D01*
X117528571Y-142152380D02*
X117290476Y-143152380D01*
X117100000Y-142438095D01*
X116909523Y-143152380D01*
X116671428Y-142152380D01*
X116385714Y-142152380D02*
X115766666Y-142152380D01*
X116100000Y-142533333D01*
X115957142Y-142533333D01*
X115861904Y-142580952D01*
X115814285Y-142628571D01*
X115766666Y-142723809D01*
X115766666Y-142961904D01*
X115814285Y-143057142D01*
X115861904Y-143104761D01*
X115957142Y-143152380D01*
X116242857Y-143152380D01*
X116338095Y-143104761D01*
X116385714Y-143057142D01*
%TO.C,SW27*%
X118909523Y-162154761D02*
X118766666Y-162202380D01*
X118528571Y-162202380D01*
X118433333Y-162154761D01*
X118385714Y-162107142D01*
X118338095Y-162011904D01*
X118338095Y-161916666D01*
X118385714Y-161821428D01*
X118433333Y-161773809D01*
X118528571Y-161726190D01*
X118719047Y-161678571D01*
X118814285Y-161630952D01*
X118861904Y-161583333D01*
X118909523Y-161488095D01*
X118909523Y-161392857D01*
X118861904Y-161297619D01*
X118814285Y-161250000D01*
X118719047Y-161202380D01*
X118480952Y-161202380D01*
X118338095Y-161250000D01*
X118004761Y-161202380D02*
X117766666Y-162202380D01*
X117576190Y-161488095D01*
X117385714Y-162202380D01*
X117147619Y-161202380D01*
X116814285Y-161297619D02*
X116766666Y-161250000D01*
X116671428Y-161202380D01*
X116433333Y-161202380D01*
X116338095Y-161250000D01*
X116290476Y-161297619D01*
X116242857Y-161392857D01*
X116242857Y-161488095D01*
X116290476Y-161630952D01*
X116861904Y-162202380D01*
X116242857Y-162202380D01*
X115909523Y-161202380D02*
X115242857Y-161202380D01*
X115671428Y-162202380D01*
%TO.C,SW94*%
X518959523Y-200254761D02*
X518816666Y-200302380D01*
X518578571Y-200302380D01*
X518483333Y-200254761D01*
X518435714Y-200207142D01*
X518388095Y-200111904D01*
X518388095Y-200016666D01*
X518435714Y-199921428D01*
X518483333Y-199873809D01*
X518578571Y-199826190D01*
X518769047Y-199778571D01*
X518864285Y-199730952D01*
X518911904Y-199683333D01*
X518959523Y-199588095D01*
X518959523Y-199492857D01*
X518911904Y-199397619D01*
X518864285Y-199350000D01*
X518769047Y-199302380D01*
X518530952Y-199302380D01*
X518388095Y-199350000D01*
X518054761Y-199302380D02*
X517816666Y-200302380D01*
X517626190Y-199588095D01*
X517435714Y-200302380D01*
X517197619Y-199302380D01*
X516769047Y-200302380D02*
X516578571Y-200302380D01*
X516483333Y-200254761D01*
X516435714Y-200207142D01*
X516340476Y-200064285D01*
X516292857Y-199873809D01*
X516292857Y-199492857D01*
X516340476Y-199397619D01*
X516388095Y-199350000D01*
X516483333Y-199302380D01*
X516673809Y-199302380D01*
X516769047Y-199350000D01*
X516816666Y-199397619D01*
X516864285Y-199492857D01*
X516864285Y-199730952D01*
X516816666Y-199826190D01*
X516769047Y-199873809D01*
X516673809Y-199921428D01*
X516483333Y-199921428D01*
X516388095Y-199873809D01*
X516340476Y-199826190D01*
X516292857Y-199730952D01*
X515435714Y-199635714D02*
X515435714Y-200302380D01*
X515673809Y-199254761D02*
X515911904Y-199969047D01*
X515292857Y-199969047D01*
%TO.C,SW117*%
X519435714Y-219304761D02*
X519292857Y-219352380D01*
X519054761Y-219352380D01*
X518959523Y-219304761D01*
X518911904Y-219257142D01*
X518864285Y-219161904D01*
X518864285Y-219066666D01*
X518911904Y-218971428D01*
X518959523Y-218923809D01*
X519054761Y-218876190D01*
X519245238Y-218828571D01*
X519340476Y-218780952D01*
X519388095Y-218733333D01*
X519435714Y-218638095D01*
X519435714Y-218542857D01*
X519388095Y-218447619D01*
X519340476Y-218400000D01*
X519245238Y-218352380D01*
X519007142Y-218352380D01*
X518864285Y-218400000D01*
X518530952Y-218352380D02*
X518292857Y-219352380D01*
X518102380Y-218638095D01*
X517911904Y-219352380D01*
X517673809Y-218352380D01*
X516769047Y-219352380D02*
X517340476Y-219352380D01*
X517054761Y-219352380D02*
X517054761Y-218352380D01*
X517150000Y-218495238D01*
X517245238Y-218590476D01*
X517340476Y-218638095D01*
X515816666Y-219352380D02*
X516388095Y-219352380D01*
X516102380Y-219352380D02*
X516102380Y-218352380D01*
X516197619Y-218495238D01*
X516292857Y-218590476D01*
X516388095Y-218638095D01*
X515483333Y-218352380D02*
X514816666Y-218352380D01*
X515245238Y-219352380D01*
%TO.C,SW26*%
X99859523Y-162154761D02*
X99716666Y-162202380D01*
X99478571Y-162202380D01*
X99383333Y-162154761D01*
X99335714Y-162107142D01*
X99288095Y-162011904D01*
X99288095Y-161916666D01*
X99335714Y-161821428D01*
X99383333Y-161773809D01*
X99478571Y-161726190D01*
X99669047Y-161678571D01*
X99764285Y-161630952D01*
X99811904Y-161583333D01*
X99859523Y-161488095D01*
X99859523Y-161392857D01*
X99811904Y-161297619D01*
X99764285Y-161250000D01*
X99669047Y-161202380D01*
X99430952Y-161202380D01*
X99288095Y-161250000D01*
X98954761Y-161202380D02*
X98716666Y-162202380D01*
X98526190Y-161488095D01*
X98335714Y-162202380D01*
X98097619Y-161202380D01*
X97764285Y-161297619D02*
X97716666Y-161250000D01*
X97621428Y-161202380D01*
X97383333Y-161202380D01*
X97288095Y-161250000D01*
X97240476Y-161297619D01*
X97192857Y-161392857D01*
X97192857Y-161488095D01*
X97240476Y-161630952D01*
X97811904Y-162202380D01*
X97192857Y-162202380D01*
X96335714Y-161202380D02*
X96526190Y-161202380D01*
X96621428Y-161250000D01*
X96669047Y-161297619D01*
X96764285Y-161440476D01*
X96811904Y-161630952D01*
X96811904Y-162011904D01*
X96764285Y-162107142D01*
X96716666Y-162154761D01*
X96621428Y-162202380D01*
X96430952Y-162202380D01*
X96335714Y-162154761D01*
X96288095Y-162107142D01*
X96240476Y-162011904D01*
X96240476Y-161773809D01*
X96288095Y-161678571D01*
X96335714Y-161630952D01*
X96430952Y-161583333D01*
X96621428Y-161583333D01*
X96716666Y-161630952D01*
X96764285Y-161678571D01*
X96811904Y-161773809D01*
%TO.C,SW18*%
X404659523Y-143104761D02*
X404516666Y-143152380D01*
X404278571Y-143152380D01*
X404183333Y-143104761D01*
X404135714Y-143057142D01*
X404088095Y-142961904D01*
X404088095Y-142866666D01*
X404135714Y-142771428D01*
X404183333Y-142723809D01*
X404278571Y-142676190D01*
X404469047Y-142628571D01*
X404564285Y-142580952D01*
X404611904Y-142533333D01*
X404659523Y-142438095D01*
X404659523Y-142342857D01*
X404611904Y-142247619D01*
X404564285Y-142200000D01*
X404469047Y-142152380D01*
X404230952Y-142152380D01*
X404088095Y-142200000D01*
X403754761Y-142152380D02*
X403516666Y-143152380D01*
X403326190Y-142438095D01*
X403135714Y-143152380D01*
X402897619Y-142152380D01*
X401992857Y-143152380D02*
X402564285Y-143152380D01*
X402278571Y-143152380D02*
X402278571Y-142152380D01*
X402373809Y-142295238D01*
X402469047Y-142390476D01*
X402564285Y-142438095D01*
X401421428Y-142580952D02*
X401516666Y-142533333D01*
X401564285Y-142485714D01*
X401611904Y-142390476D01*
X401611904Y-142342857D01*
X401564285Y-142247619D01*
X401516666Y-142200000D01*
X401421428Y-142152380D01*
X401230952Y-142152380D01*
X401135714Y-142200000D01*
X401088095Y-142247619D01*
X401040476Y-142342857D01*
X401040476Y-142390476D01*
X401088095Y-142485714D01*
X401135714Y-142533333D01*
X401230952Y-142580952D01*
X401421428Y-142580952D01*
X401516666Y-142628571D01*
X401564285Y-142676190D01*
X401611904Y-142771428D01*
X401611904Y-142961904D01*
X401564285Y-143057142D01*
X401516666Y-143104761D01*
X401421428Y-143152380D01*
X401230952Y-143152380D01*
X401135714Y-143104761D01*
X401088095Y-143057142D01*
X401040476Y-142961904D01*
X401040476Y-142771428D01*
X401088095Y-142676190D01*
X401135714Y-142628571D01*
X401230952Y-142580952D01*
%TO.C,SW53*%
X166534523Y-181204761D02*
X166391666Y-181252380D01*
X166153571Y-181252380D01*
X166058333Y-181204761D01*
X166010714Y-181157142D01*
X165963095Y-181061904D01*
X165963095Y-180966666D01*
X166010714Y-180871428D01*
X166058333Y-180823809D01*
X166153571Y-180776190D01*
X166344047Y-180728571D01*
X166439285Y-180680952D01*
X166486904Y-180633333D01*
X166534523Y-180538095D01*
X166534523Y-180442857D01*
X166486904Y-180347619D01*
X166439285Y-180300000D01*
X166344047Y-180252380D01*
X166105952Y-180252380D01*
X165963095Y-180300000D01*
X165629761Y-180252380D02*
X165391666Y-181252380D01*
X165201190Y-180538095D01*
X165010714Y-181252380D01*
X164772619Y-180252380D01*
X163915476Y-180252380D02*
X164391666Y-180252380D01*
X164439285Y-180728571D01*
X164391666Y-180680952D01*
X164296428Y-180633333D01*
X164058333Y-180633333D01*
X163963095Y-180680952D01*
X163915476Y-180728571D01*
X163867857Y-180823809D01*
X163867857Y-181061904D01*
X163915476Y-181157142D01*
X163963095Y-181204761D01*
X164058333Y-181252380D01*
X164296428Y-181252380D01*
X164391666Y-181204761D01*
X164439285Y-181157142D01*
X163534523Y-180252380D02*
X162915476Y-180252380D01*
X163248809Y-180633333D01*
X163105952Y-180633333D01*
X163010714Y-180680952D01*
X162963095Y-180728571D01*
X162915476Y-180823809D01*
X162915476Y-181061904D01*
X162963095Y-181157142D01*
X163010714Y-181204761D01*
X163105952Y-181252380D01*
X163391666Y-181252380D01*
X163486904Y-181204761D01*
X163534523Y-181157142D01*
%TO.C,SW124a0*%
X391776785Y-238354761D02*
X391633928Y-238402380D01*
X391395833Y-238402380D01*
X391300595Y-238354761D01*
X391252976Y-238307142D01*
X391205357Y-238211904D01*
X391205357Y-238116666D01*
X391252976Y-238021428D01*
X391300595Y-237973809D01*
X391395833Y-237926190D01*
X391586309Y-237878571D01*
X391681547Y-237830952D01*
X391729166Y-237783333D01*
X391776785Y-237688095D01*
X391776785Y-237592857D01*
X391729166Y-237497619D01*
X391681547Y-237450000D01*
X391586309Y-237402380D01*
X391348214Y-237402380D01*
X391205357Y-237450000D01*
X390872023Y-237402380D02*
X390633928Y-238402380D01*
X390443452Y-237688095D01*
X390252976Y-238402380D01*
X390014880Y-237402380D01*
X389110119Y-238402380D02*
X389681547Y-238402380D01*
X389395833Y-238402380D02*
X389395833Y-237402380D01*
X389491071Y-237545238D01*
X389586309Y-237640476D01*
X389681547Y-237688095D01*
X388729166Y-237497619D02*
X388681547Y-237450000D01*
X388586309Y-237402380D01*
X388348214Y-237402380D01*
X388252976Y-237450000D01*
X388205357Y-237497619D01*
X388157738Y-237592857D01*
X388157738Y-237688095D01*
X388205357Y-237830952D01*
X388776785Y-238402380D01*
X388157738Y-238402380D01*
X387300595Y-237735714D02*
X387300595Y-238402380D01*
X387538690Y-237354761D02*
X387776785Y-238069047D01*
X387157738Y-238069047D01*
X386348214Y-238402380D02*
X386348214Y-237878571D01*
X386395833Y-237783333D01*
X386491071Y-237735714D01*
X386681547Y-237735714D01*
X386776785Y-237783333D01*
X386348214Y-238354761D02*
X386443452Y-238402380D01*
X386681547Y-238402380D01*
X386776785Y-238354761D01*
X386824404Y-238259523D01*
X386824404Y-238164285D01*
X386776785Y-238069047D01*
X386681547Y-238021428D01*
X386443452Y-238021428D01*
X386348214Y-237973809D01*
X385681547Y-237402380D02*
X385586309Y-237402380D01*
X385491071Y-237450000D01*
X385443452Y-237497619D01*
X385395833Y-237592857D01*
X385348214Y-237783333D01*
X385348214Y-238021428D01*
X385395833Y-238211904D01*
X385443452Y-238307142D01*
X385491071Y-238354761D01*
X385586309Y-238402380D01*
X385681547Y-238402380D01*
X385776785Y-238354761D01*
X385824404Y-238307142D01*
X385872023Y-238211904D01*
X385919642Y-238021428D01*
X385919642Y-237783333D01*
X385872023Y-237592857D01*
X385824404Y-237497619D01*
X385776785Y-237450000D01*
X385681547Y-237402380D01*
%TO.C,SW60*%
X299884523Y-181204761D02*
X299741666Y-181252380D01*
X299503571Y-181252380D01*
X299408333Y-181204761D01*
X299360714Y-181157142D01*
X299313095Y-181061904D01*
X299313095Y-180966666D01*
X299360714Y-180871428D01*
X299408333Y-180823809D01*
X299503571Y-180776190D01*
X299694047Y-180728571D01*
X299789285Y-180680952D01*
X299836904Y-180633333D01*
X299884523Y-180538095D01*
X299884523Y-180442857D01*
X299836904Y-180347619D01*
X299789285Y-180300000D01*
X299694047Y-180252380D01*
X299455952Y-180252380D01*
X299313095Y-180300000D01*
X298979761Y-180252380D02*
X298741666Y-181252380D01*
X298551190Y-180538095D01*
X298360714Y-181252380D01*
X298122619Y-180252380D01*
X297313095Y-180252380D02*
X297503571Y-180252380D01*
X297598809Y-180300000D01*
X297646428Y-180347619D01*
X297741666Y-180490476D01*
X297789285Y-180680952D01*
X297789285Y-181061904D01*
X297741666Y-181157142D01*
X297694047Y-181204761D01*
X297598809Y-181252380D01*
X297408333Y-181252380D01*
X297313095Y-181204761D01*
X297265476Y-181157142D01*
X297217857Y-181061904D01*
X297217857Y-180823809D01*
X297265476Y-180728571D01*
X297313095Y-180680952D01*
X297408333Y-180633333D01*
X297598809Y-180633333D01*
X297694047Y-180680952D01*
X297741666Y-180728571D01*
X297789285Y-180823809D01*
X296598809Y-180252380D02*
X296503571Y-180252380D01*
X296408333Y-180300000D01*
X296360714Y-180347619D01*
X296313095Y-180442857D01*
X296265476Y-180633333D01*
X296265476Y-180871428D01*
X296313095Y-181061904D01*
X296360714Y-181157142D01*
X296408333Y-181204761D01*
X296503571Y-181252380D01*
X296598809Y-181252380D01*
X296694047Y-181204761D01*
X296741666Y-181157142D01*
X296789285Y-181061904D01*
X296836904Y-180871428D01*
X296836904Y-180633333D01*
X296789285Y-180442857D01*
X296741666Y-180347619D01*
X296694047Y-180300000D01*
X296598809Y-180252380D01*
%TO.C,SW29*%
X157009523Y-162154761D02*
X156866666Y-162202380D01*
X156628571Y-162202380D01*
X156533333Y-162154761D01*
X156485714Y-162107142D01*
X156438095Y-162011904D01*
X156438095Y-161916666D01*
X156485714Y-161821428D01*
X156533333Y-161773809D01*
X156628571Y-161726190D01*
X156819047Y-161678571D01*
X156914285Y-161630952D01*
X156961904Y-161583333D01*
X157009523Y-161488095D01*
X157009523Y-161392857D01*
X156961904Y-161297619D01*
X156914285Y-161250000D01*
X156819047Y-161202380D01*
X156580952Y-161202380D01*
X156438095Y-161250000D01*
X156104761Y-161202380D02*
X155866666Y-162202380D01*
X155676190Y-161488095D01*
X155485714Y-162202380D01*
X155247619Y-161202380D01*
X154914285Y-161297619D02*
X154866666Y-161250000D01*
X154771428Y-161202380D01*
X154533333Y-161202380D01*
X154438095Y-161250000D01*
X154390476Y-161297619D01*
X154342857Y-161392857D01*
X154342857Y-161488095D01*
X154390476Y-161630952D01*
X154961904Y-162202380D01*
X154342857Y-162202380D01*
X153866666Y-162202380D02*
X153676190Y-162202380D01*
X153580952Y-162154761D01*
X153533333Y-162107142D01*
X153438095Y-161964285D01*
X153390476Y-161773809D01*
X153390476Y-161392857D01*
X153438095Y-161297619D01*
X153485714Y-161250000D01*
X153580952Y-161202380D01*
X153771428Y-161202380D01*
X153866666Y-161250000D01*
X153914285Y-161297619D01*
X153961904Y-161392857D01*
X153961904Y-161630952D01*
X153914285Y-161726190D01*
X153866666Y-161773809D01*
X153771428Y-161821428D01*
X153580952Y-161821428D01*
X153485714Y-161773809D01*
X153438095Y-161726190D01*
X153390476Y-161630952D01*
%TO.C,SW126*%
X481335714Y-238354761D02*
X481192857Y-238402380D01*
X480954761Y-238402380D01*
X480859523Y-238354761D01*
X480811904Y-238307142D01*
X480764285Y-238211904D01*
X480764285Y-238116666D01*
X480811904Y-238021428D01*
X480859523Y-237973809D01*
X480954761Y-237926190D01*
X481145238Y-237878571D01*
X481240476Y-237830952D01*
X481288095Y-237783333D01*
X481335714Y-237688095D01*
X481335714Y-237592857D01*
X481288095Y-237497619D01*
X481240476Y-237450000D01*
X481145238Y-237402380D01*
X480907142Y-237402380D01*
X480764285Y-237450000D01*
X480430952Y-237402380D02*
X480192857Y-238402380D01*
X480002380Y-237688095D01*
X479811904Y-238402380D01*
X479573809Y-237402380D01*
X478669047Y-238402380D02*
X479240476Y-238402380D01*
X478954761Y-238402380D02*
X478954761Y-237402380D01*
X479050000Y-237545238D01*
X479145238Y-237640476D01*
X479240476Y-237688095D01*
X478288095Y-237497619D02*
X478240476Y-237450000D01*
X478145238Y-237402380D01*
X477907142Y-237402380D01*
X477811904Y-237450000D01*
X477764285Y-237497619D01*
X477716666Y-237592857D01*
X477716666Y-237688095D01*
X477764285Y-237830952D01*
X478335714Y-238402380D01*
X477716666Y-238402380D01*
X476859523Y-237402380D02*
X477050000Y-237402380D01*
X477145238Y-237450000D01*
X477192857Y-237497619D01*
X477288095Y-237640476D01*
X477335714Y-237830952D01*
X477335714Y-238211904D01*
X477288095Y-238307142D01*
X477240476Y-238354761D01*
X477145238Y-238402380D01*
X476954761Y-238402380D01*
X476859523Y-238354761D01*
X476811904Y-238307142D01*
X476764285Y-238211904D01*
X476764285Y-237973809D01*
X476811904Y-237878571D01*
X476859523Y-237830952D01*
X476954761Y-237783333D01*
X477145238Y-237783333D01*
X477240476Y-237830952D01*
X477288095Y-237878571D01*
X477335714Y-237973809D01*
%TO.C,SW71*%
X518959523Y-181204761D02*
X518816666Y-181252380D01*
X518578571Y-181252380D01*
X518483333Y-181204761D01*
X518435714Y-181157142D01*
X518388095Y-181061904D01*
X518388095Y-180966666D01*
X518435714Y-180871428D01*
X518483333Y-180823809D01*
X518578571Y-180776190D01*
X518769047Y-180728571D01*
X518864285Y-180680952D01*
X518911904Y-180633333D01*
X518959523Y-180538095D01*
X518959523Y-180442857D01*
X518911904Y-180347619D01*
X518864285Y-180300000D01*
X518769047Y-180252380D01*
X518530952Y-180252380D01*
X518388095Y-180300000D01*
X518054761Y-180252380D02*
X517816666Y-181252380D01*
X517626190Y-180538095D01*
X517435714Y-181252380D01*
X517197619Y-180252380D01*
X516911904Y-180252380D02*
X516245238Y-180252380D01*
X516673809Y-181252380D01*
X515340476Y-181252380D02*
X515911904Y-181252380D01*
X515626190Y-181252380D02*
X515626190Y-180252380D01*
X515721428Y-180395238D01*
X515816666Y-180490476D01*
X515911904Y-180538095D01*
%TO.C,SW111*%
X390848214Y-219304761D02*
X390705357Y-219352380D01*
X390467261Y-219352380D01*
X390372023Y-219304761D01*
X390324404Y-219257142D01*
X390276785Y-219161904D01*
X390276785Y-219066666D01*
X390324404Y-218971428D01*
X390372023Y-218923809D01*
X390467261Y-218876190D01*
X390657738Y-218828571D01*
X390752976Y-218780952D01*
X390800595Y-218733333D01*
X390848214Y-218638095D01*
X390848214Y-218542857D01*
X390800595Y-218447619D01*
X390752976Y-218400000D01*
X390657738Y-218352380D01*
X390419642Y-218352380D01*
X390276785Y-218400000D01*
X389943452Y-218352380D02*
X389705357Y-219352380D01*
X389514880Y-218638095D01*
X389324404Y-219352380D01*
X389086309Y-218352380D01*
X388181547Y-219352380D02*
X388752976Y-219352380D01*
X388467261Y-219352380D02*
X388467261Y-218352380D01*
X388562500Y-218495238D01*
X388657738Y-218590476D01*
X388752976Y-218638095D01*
X387229166Y-219352380D02*
X387800595Y-219352380D01*
X387514880Y-219352380D02*
X387514880Y-218352380D01*
X387610119Y-218495238D01*
X387705357Y-218590476D01*
X387800595Y-218638095D01*
X386276785Y-219352380D02*
X386848214Y-219352380D01*
X386562500Y-219352380D02*
X386562500Y-218352380D01*
X386657738Y-218495238D01*
X386752976Y-218590476D01*
X386848214Y-218638095D01*
%TO.C,SW9*%
X232733333Y-143104761D02*
X232590476Y-143152380D01*
X232352380Y-143152380D01*
X232257142Y-143104761D01*
X232209523Y-143057142D01*
X232161904Y-142961904D01*
X232161904Y-142866666D01*
X232209523Y-142771428D01*
X232257142Y-142723809D01*
X232352380Y-142676190D01*
X232542857Y-142628571D01*
X232638095Y-142580952D01*
X232685714Y-142533333D01*
X232733333Y-142438095D01*
X232733333Y-142342857D01*
X232685714Y-142247619D01*
X232638095Y-142200000D01*
X232542857Y-142152380D01*
X232304761Y-142152380D01*
X232161904Y-142200000D01*
X231828571Y-142152380D02*
X231590476Y-143152380D01*
X231400000Y-142438095D01*
X231209523Y-143152380D01*
X230971428Y-142152380D01*
X230542857Y-143152380D02*
X230352380Y-143152380D01*
X230257142Y-143104761D01*
X230209523Y-143057142D01*
X230114285Y-142914285D01*
X230066666Y-142723809D01*
X230066666Y-142342857D01*
X230114285Y-142247619D01*
X230161904Y-142200000D01*
X230257142Y-142152380D01*
X230447619Y-142152380D01*
X230542857Y-142200000D01*
X230590476Y-142247619D01*
X230638095Y-142342857D01*
X230638095Y-142580952D01*
X230590476Y-142676190D01*
X230542857Y-142723809D01*
X230447619Y-142771428D01*
X230257142Y-142771428D01*
X230161904Y-142723809D01*
X230114285Y-142676190D01*
X230066666Y-142580952D01*
%TO.C,SW2*%
X99383333Y-143104761D02*
X99240476Y-143152380D01*
X99002380Y-143152380D01*
X98907142Y-143104761D01*
X98859523Y-143057142D01*
X98811904Y-142961904D01*
X98811904Y-142866666D01*
X98859523Y-142771428D01*
X98907142Y-142723809D01*
X99002380Y-142676190D01*
X99192857Y-142628571D01*
X99288095Y-142580952D01*
X99335714Y-142533333D01*
X99383333Y-142438095D01*
X99383333Y-142342857D01*
X99335714Y-142247619D01*
X99288095Y-142200000D01*
X99192857Y-142152380D01*
X98954761Y-142152380D01*
X98811904Y-142200000D01*
X98478571Y-142152380D02*
X98240476Y-143152380D01*
X98050000Y-142438095D01*
X97859523Y-143152380D01*
X97621428Y-142152380D01*
X97288095Y-142247619D02*
X97240476Y-142200000D01*
X97145238Y-142152380D01*
X96907142Y-142152380D01*
X96811904Y-142200000D01*
X96764285Y-142247619D01*
X96716666Y-142342857D01*
X96716666Y-142438095D01*
X96764285Y-142580952D01*
X97335714Y-143152380D01*
X96716666Y-143152380D01*
%TO.C,SW77*%
X190347023Y-200254761D02*
X190204166Y-200302380D01*
X189966071Y-200302380D01*
X189870833Y-200254761D01*
X189823214Y-200207142D01*
X189775595Y-200111904D01*
X189775595Y-200016666D01*
X189823214Y-199921428D01*
X189870833Y-199873809D01*
X189966071Y-199826190D01*
X190156547Y-199778571D01*
X190251785Y-199730952D01*
X190299404Y-199683333D01*
X190347023Y-199588095D01*
X190347023Y-199492857D01*
X190299404Y-199397619D01*
X190251785Y-199350000D01*
X190156547Y-199302380D01*
X189918452Y-199302380D01*
X189775595Y-199350000D01*
X189442261Y-199302380D02*
X189204166Y-200302380D01*
X189013690Y-199588095D01*
X188823214Y-200302380D01*
X188585119Y-199302380D01*
X188299404Y-199302380D02*
X187632738Y-199302380D01*
X188061309Y-200302380D01*
X187347023Y-199302380D02*
X186680357Y-199302380D01*
X187108928Y-200302380D01*
%TO.C,SW36*%
X290359523Y-162154761D02*
X290216666Y-162202380D01*
X289978571Y-162202380D01*
X289883333Y-162154761D01*
X289835714Y-162107142D01*
X289788095Y-162011904D01*
X289788095Y-161916666D01*
X289835714Y-161821428D01*
X289883333Y-161773809D01*
X289978571Y-161726190D01*
X290169047Y-161678571D01*
X290264285Y-161630952D01*
X290311904Y-161583333D01*
X290359523Y-161488095D01*
X290359523Y-161392857D01*
X290311904Y-161297619D01*
X290264285Y-161250000D01*
X290169047Y-161202380D01*
X289930952Y-161202380D01*
X289788095Y-161250000D01*
X289454761Y-161202380D02*
X289216666Y-162202380D01*
X289026190Y-161488095D01*
X288835714Y-162202380D01*
X288597619Y-161202380D01*
X288311904Y-161202380D02*
X287692857Y-161202380D01*
X288026190Y-161583333D01*
X287883333Y-161583333D01*
X287788095Y-161630952D01*
X287740476Y-161678571D01*
X287692857Y-161773809D01*
X287692857Y-162011904D01*
X287740476Y-162107142D01*
X287788095Y-162154761D01*
X287883333Y-162202380D01*
X288169047Y-162202380D01*
X288264285Y-162154761D01*
X288311904Y-162107142D01*
X286835714Y-161202380D02*
X287026190Y-161202380D01*
X287121428Y-161250000D01*
X287169047Y-161297619D01*
X287264285Y-161440476D01*
X287311904Y-161630952D01*
X287311904Y-162011904D01*
X287264285Y-162107142D01*
X287216666Y-162154761D01*
X287121428Y-162202380D01*
X286930952Y-162202380D01*
X286835714Y-162154761D01*
X286788095Y-162107142D01*
X286740476Y-162011904D01*
X286740476Y-161773809D01*
X286788095Y-161678571D01*
X286835714Y-161630952D01*
X286930952Y-161583333D01*
X287121428Y-161583333D01*
X287216666Y-161630952D01*
X287264285Y-161678571D01*
X287311904Y-161773809D01*
%TO.C,SW75*%
X137959523Y-200254761D02*
X137816666Y-200302380D01*
X137578571Y-200302380D01*
X137483333Y-200254761D01*
X137435714Y-200207142D01*
X137388095Y-200111904D01*
X137388095Y-200016666D01*
X137435714Y-199921428D01*
X137483333Y-199873809D01*
X137578571Y-199826190D01*
X137769047Y-199778571D01*
X137864285Y-199730952D01*
X137911904Y-199683333D01*
X137959523Y-199588095D01*
X137959523Y-199492857D01*
X137911904Y-199397619D01*
X137864285Y-199350000D01*
X137769047Y-199302380D01*
X137530952Y-199302380D01*
X137388095Y-199350000D01*
X137054761Y-199302380D02*
X136816666Y-200302380D01*
X136626190Y-199588095D01*
X136435714Y-200302380D01*
X136197619Y-199302380D01*
X135911904Y-199302380D02*
X135245238Y-199302380D01*
X135673809Y-200302380D01*
X134388095Y-199302380D02*
X134864285Y-199302380D01*
X134911904Y-199778571D01*
X134864285Y-199730952D01*
X134769047Y-199683333D01*
X134530952Y-199683333D01*
X134435714Y-199730952D01*
X134388095Y-199778571D01*
X134340476Y-199873809D01*
X134340476Y-200111904D01*
X134388095Y-200207142D01*
X134435714Y-200254761D01*
X134530952Y-200302380D01*
X134769047Y-200302380D01*
X134864285Y-200254761D01*
X134911904Y-200207142D01*
%TO.C,SW47*%
X499909523Y-162154761D02*
X499766666Y-162202380D01*
X499528571Y-162202380D01*
X499433333Y-162154761D01*
X499385714Y-162107142D01*
X499338095Y-162011904D01*
X499338095Y-161916666D01*
X499385714Y-161821428D01*
X499433333Y-161773809D01*
X499528571Y-161726190D01*
X499719047Y-161678571D01*
X499814285Y-161630952D01*
X499861904Y-161583333D01*
X499909523Y-161488095D01*
X499909523Y-161392857D01*
X499861904Y-161297619D01*
X499814285Y-161250000D01*
X499719047Y-161202380D01*
X499480952Y-161202380D01*
X499338095Y-161250000D01*
X499004761Y-161202380D02*
X498766666Y-162202380D01*
X498576190Y-161488095D01*
X498385714Y-162202380D01*
X498147619Y-161202380D01*
X497338095Y-161535714D02*
X497338095Y-162202380D01*
X497576190Y-161154761D02*
X497814285Y-161869047D01*
X497195238Y-161869047D01*
X496909523Y-161202380D02*
X496242857Y-161202380D01*
X496671428Y-162202380D01*
%TO.C,SW25*%
X80809523Y-162154761D02*
X80666666Y-162202380D01*
X80428571Y-162202380D01*
X80333333Y-162154761D01*
X80285714Y-162107142D01*
X80238095Y-162011904D01*
X80238095Y-161916666D01*
X80285714Y-161821428D01*
X80333333Y-161773809D01*
X80428571Y-161726190D01*
X80619047Y-161678571D01*
X80714285Y-161630952D01*
X80761904Y-161583333D01*
X80809523Y-161488095D01*
X80809523Y-161392857D01*
X80761904Y-161297619D01*
X80714285Y-161250000D01*
X80619047Y-161202380D01*
X80380952Y-161202380D01*
X80238095Y-161250000D01*
X79904761Y-161202380D02*
X79666666Y-162202380D01*
X79476190Y-161488095D01*
X79285714Y-162202380D01*
X79047619Y-161202380D01*
X78714285Y-161297619D02*
X78666666Y-161250000D01*
X78571428Y-161202380D01*
X78333333Y-161202380D01*
X78238095Y-161250000D01*
X78190476Y-161297619D01*
X78142857Y-161392857D01*
X78142857Y-161488095D01*
X78190476Y-161630952D01*
X78761904Y-162202380D01*
X78142857Y-162202380D01*
X77238095Y-161202380D02*
X77714285Y-161202380D01*
X77761904Y-161678571D01*
X77714285Y-161630952D01*
X77619047Y-161583333D01*
X77380952Y-161583333D01*
X77285714Y-161630952D01*
X77238095Y-161678571D01*
X77190476Y-161773809D01*
X77190476Y-162011904D01*
X77238095Y-162107142D01*
X77285714Y-162154761D01*
X77380952Y-162202380D01*
X77619047Y-162202380D01*
X77714285Y-162154761D01*
X77761904Y-162107142D01*
%TO.C,SW38*%
X328459523Y-162154761D02*
X328316666Y-162202380D01*
X328078571Y-162202380D01*
X327983333Y-162154761D01*
X327935714Y-162107142D01*
X327888095Y-162011904D01*
X327888095Y-161916666D01*
X327935714Y-161821428D01*
X327983333Y-161773809D01*
X328078571Y-161726190D01*
X328269047Y-161678571D01*
X328364285Y-161630952D01*
X328411904Y-161583333D01*
X328459523Y-161488095D01*
X328459523Y-161392857D01*
X328411904Y-161297619D01*
X328364285Y-161250000D01*
X328269047Y-161202380D01*
X328030952Y-161202380D01*
X327888095Y-161250000D01*
X327554761Y-161202380D02*
X327316666Y-162202380D01*
X327126190Y-161488095D01*
X326935714Y-162202380D01*
X326697619Y-161202380D01*
X326411904Y-161202380D02*
X325792857Y-161202380D01*
X326126190Y-161583333D01*
X325983333Y-161583333D01*
X325888095Y-161630952D01*
X325840476Y-161678571D01*
X325792857Y-161773809D01*
X325792857Y-162011904D01*
X325840476Y-162107142D01*
X325888095Y-162154761D01*
X325983333Y-162202380D01*
X326269047Y-162202380D01*
X326364285Y-162154761D01*
X326411904Y-162107142D01*
X325221428Y-161630952D02*
X325316666Y-161583333D01*
X325364285Y-161535714D01*
X325411904Y-161440476D01*
X325411904Y-161392857D01*
X325364285Y-161297619D01*
X325316666Y-161250000D01*
X325221428Y-161202380D01*
X325030952Y-161202380D01*
X324935714Y-161250000D01*
X324888095Y-161297619D01*
X324840476Y-161392857D01*
X324840476Y-161440476D01*
X324888095Y-161535714D01*
X324935714Y-161583333D01*
X325030952Y-161630952D01*
X325221428Y-161630952D01*
X325316666Y-161678571D01*
X325364285Y-161726190D01*
X325411904Y-161821428D01*
X325411904Y-162011904D01*
X325364285Y-162107142D01*
X325316666Y-162154761D01*
X325221428Y-162202380D01*
X325030952Y-162202380D01*
X324935714Y-162154761D01*
X324888095Y-162107142D01*
X324840476Y-162011904D01*
X324840476Y-161821428D01*
X324888095Y-161726190D01*
X324935714Y-161678571D01*
X325030952Y-161630952D01*
%TO.C,SW108*%
X333698214Y-219304761D02*
X333555357Y-219352380D01*
X333317261Y-219352380D01*
X333222023Y-219304761D01*
X333174404Y-219257142D01*
X333126785Y-219161904D01*
X333126785Y-219066666D01*
X333174404Y-218971428D01*
X333222023Y-218923809D01*
X333317261Y-218876190D01*
X333507738Y-218828571D01*
X333602976Y-218780952D01*
X333650595Y-218733333D01*
X333698214Y-218638095D01*
X333698214Y-218542857D01*
X333650595Y-218447619D01*
X333602976Y-218400000D01*
X333507738Y-218352380D01*
X333269642Y-218352380D01*
X333126785Y-218400000D01*
X332793452Y-218352380D02*
X332555357Y-219352380D01*
X332364880Y-218638095D01*
X332174404Y-219352380D01*
X331936309Y-218352380D01*
X331031547Y-219352380D02*
X331602976Y-219352380D01*
X331317261Y-219352380D02*
X331317261Y-218352380D01*
X331412500Y-218495238D01*
X331507738Y-218590476D01*
X331602976Y-218638095D01*
X330412500Y-218352380D02*
X330317261Y-218352380D01*
X330222023Y-218400000D01*
X330174404Y-218447619D01*
X330126785Y-218542857D01*
X330079166Y-218733333D01*
X330079166Y-218971428D01*
X330126785Y-219161904D01*
X330174404Y-219257142D01*
X330222023Y-219304761D01*
X330317261Y-219352380D01*
X330412500Y-219352380D01*
X330507738Y-219304761D01*
X330555357Y-219257142D01*
X330602976Y-219161904D01*
X330650595Y-218971428D01*
X330650595Y-218733333D01*
X330602976Y-218542857D01*
X330555357Y-218447619D01*
X330507738Y-218400000D01*
X330412500Y-218352380D01*
X329507738Y-218780952D02*
X329602976Y-218733333D01*
X329650595Y-218685714D01*
X329698214Y-218590476D01*
X329698214Y-218542857D01*
X329650595Y-218447619D01*
X329602976Y-218400000D01*
X329507738Y-218352380D01*
X329317261Y-218352380D01*
X329222023Y-218400000D01*
X329174404Y-218447619D01*
X329126785Y-218542857D01*
X329126785Y-218590476D01*
X329174404Y-218685714D01*
X329222023Y-218733333D01*
X329317261Y-218780952D01*
X329507738Y-218780952D01*
X329602976Y-218828571D01*
X329650595Y-218876190D01*
X329698214Y-218971428D01*
X329698214Y-219161904D01*
X329650595Y-219257142D01*
X329602976Y-219304761D01*
X329507738Y-219352380D01*
X329317261Y-219352380D01*
X329222023Y-219304761D01*
X329174404Y-219257142D01*
X329126785Y-219161904D01*
X329126785Y-218971428D01*
X329174404Y-218876190D01*
X329222023Y-218828571D01*
X329317261Y-218780952D01*
%TO.C,SW65*%
X395134523Y-181204761D02*
X394991666Y-181252380D01*
X394753571Y-181252380D01*
X394658333Y-181204761D01*
X394610714Y-181157142D01*
X394563095Y-181061904D01*
X394563095Y-180966666D01*
X394610714Y-180871428D01*
X394658333Y-180823809D01*
X394753571Y-180776190D01*
X394944047Y-180728571D01*
X395039285Y-180680952D01*
X395086904Y-180633333D01*
X395134523Y-180538095D01*
X395134523Y-180442857D01*
X395086904Y-180347619D01*
X395039285Y-180300000D01*
X394944047Y-180252380D01*
X394705952Y-180252380D01*
X394563095Y-180300000D01*
X394229761Y-180252380D02*
X393991666Y-181252380D01*
X393801190Y-180538095D01*
X393610714Y-181252380D01*
X393372619Y-180252380D01*
X392563095Y-180252380D02*
X392753571Y-180252380D01*
X392848809Y-180300000D01*
X392896428Y-180347619D01*
X392991666Y-180490476D01*
X393039285Y-180680952D01*
X393039285Y-181061904D01*
X392991666Y-181157142D01*
X392944047Y-181204761D01*
X392848809Y-181252380D01*
X392658333Y-181252380D01*
X392563095Y-181204761D01*
X392515476Y-181157142D01*
X392467857Y-181061904D01*
X392467857Y-180823809D01*
X392515476Y-180728571D01*
X392563095Y-180680952D01*
X392658333Y-180633333D01*
X392848809Y-180633333D01*
X392944047Y-180680952D01*
X392991666Y-180728571D01*
X393039285Y-180823809D01*
X391563095Y-180252380D02*
X392039285Y-180252380D01*
X392086904Y-180728571D01*
X392039285Y-180680952D01*
X391944047Y-180633333D01*
X391705952Y-180633333D01*
X391610714Y-180680952D01*
X391563095Y-180728571D01*
X391515476Y-180823809D01*
X391515476Y-181061904D01*
X391563095Y-181157142D01*
X391610714Y-181204761D01*
X391705952Y-181252380D01*
X391944047Y-181252380D01*
X392039285Y-181204761D01*
X392086904Y-181157142D01*
%TO.C,SW41*%
X385609523Y-162154761D02*
X385466666Y-162202380D01*
X385228571Y-162202380D01*
X385133333Y-162154761D01*
X385085714Y-162107142D01*
X385038095Y-162011904D01*
X385038095Y-161916666D01*
X385085714Y-161821428D01*
X385133333Y-161773809D01*
X385228571Y-161726190D01*
X385419047Y-161678571D01*
X385514285Y-161630952D01*
X385561904Y-161583333D01*
X385609523Y-161488095D01*
X385609523Y-161392857D01*
X385561904Y-161297619D01*
X385514285Y-161250000D01*
X385419047Y-161202380D01*
X385180952Y-161202380D01*
X385038095Y-161250000D01*
X384704761Y-161202380D02*
X384466666Y-162202380D01*
X384276190Y-161488095D01*
X384085714Y-162202380D01*
X383847619Y-161202380D01*
X383038095Y-161535714D02*
X383038095Y-162202380D01*
X383276190Y-161154761D02*
X383514285Y-161869047D01*
X382895238Y-161869047D01*
X381990476Y-162202380D02*
X382561904Y-162202380D01*
X382276190Y-162202380D02*
X382276190Y-161202380D01*
X382371428Y-161345238D01*
X382466666Y-161440476D01*
X382561904Y-161488095D01*
%TO.C,SW114*%
X462285714Y-219304761D02*
X462142857Y-219352380D01*
X461904761Y-219352380D01*
X461809523Y-219304761D01*
X461761904Y-219257142D01*
X461714285Y-219161904D01*
X461714285Y-219066666D01*
X461761904Y-218971428D01*
X461809523Y-218923809D01*
X461904761Y-218876190D01*
X462095238Y-218828571D01*
X462190476Y-218780952D01*
X462238095Y-218733333D01*
X462285714Y-218638095D01*
X462285714Y-218542857D01*
X462238095Y-218447619D01*
X462190476Y-218400000D01*
X462095238Y-218352380D01*
X461857142Y-218352380D01*
X461714285Y-218400000D01*
X461380952Y-218352380D02*
X461142857Y-219352380D01*
X460952380Y-218638095D01*
X460761904Y-219352380D01*
X460523809Y-218352380D01*
X459619047Y-219352380D02*
X460190476Y-219352380D01*
X459904761Y-219352380D02*
X459904761Y-218352380D01*
X460000000Y-218495238D01*
X460095238Y-218590476D01*
X460190476Y-218638095D01*
X458666666Y-219352380D02*
X459238095Y-219352380D01*
X458952380Y-219352380D02*
X458952380Y-218352380D01*
X459047619Y-218495238D01*
X459142857Y-218590476D01*
X459238095Y-218638095D01*
X457809523Y-218685714D02*
X457809523Y-219352380D01*
X458047619Y-218304761D02*
X458285714Y-219019047D01*
X457666666Y-219019047D01*
%TO.C,SW106*%
X295598214Y-219304761D02*
X295455357Y-219352380D01*
X295217261Y-219352380D01*
X295122023Y-219304761D01*
X295074404Y-219257142D01*
X295026785Y-219161904D01*
X295026785Y-219066666D01*
X295074404Y-218971428D01*
X295122023Y-218923809D01*
X295217261Y-218876190D01*
X295407738Y-218828571D01*
X295502976Y-218780952D01*
X295550595Y-218733333D01*
X295598214Y-218638095D01*
X295598214Y-218542857D01*
X295550595Y-218447619D01*
X295502976Y-218400000D01*
X295407738Y-218352380D01*
X295169642Y-218352380D01*
X295026785Y-218400000D01*
X294693452Y-218352380D02*
X294455357Y-219352380D01*
X294264880Y-218638095D01*
X294074404Y-219352380D01*
X293836309Y-218352380D01*
X292931547Y-219352380D02*
X293502976Y-219352380D01*
X293217261Y-219352380D02*
X293217261Y-218352380D01*
X293312500Y-218495238D01*
X293407738Y-218590476D01*
X293502976Y-218638095D01*
X292312500Y-218352380D02*
X292217261Y-218352380D01*
X292122023Y-218400000D01*
X292074404Y-218447619D01*
X292026785Y-218542857D01*
X291979166Y-218733333D01*
X291979166Y-218971428D01*
X292026785Y-219161904D01*
X292074404Y-219257142D01*
X292122023Y-219304761D01*
X292217261Y-219352380D01*
X292312500Y-219352380D01*
X292407738Y-219304761D01*
X292455357Y-219257142D01*
X292502976Y-219161904D01*
X292550595Y-218971428D01*
X292550595Y-218733333D01*
X292502976Y-218542857D01*
X292455357Y-218447619D01*
X292407738Y-218400000D01*
X292312500Y-218352380D01*
X291122023Y-218352380D02*
X291312500Y-218352380D01*
X291407738Y-218400000D01*
X291455357Y-218447619D01*
X291550595Y-218590476D01*
X291598214Y-218780952D01*
X291598214Y-219161904D01*
X291550595Y-219257142D01*
X291502976Y-219304761D01*
X291407738Y-219352380D01*
X291217261Y-219352380D01*
X291122023Y-219304761D01*
X291074404Y-219257142D01*
X291026785Y-219161904D01*
X291026785Y-218923809D01*
X291074404Y-218828571D01*
X291122023Y-218780952D01*
X291217261Y-218733333D01*
X291407738Y-218733333D01*
X291502976Y-218780952D01*
X291550595Y-218828571D01*
X291598214Y-218923809D01*
%TO.C,SW11*%
X271309523Y-143104761D02*
X271166666Y-143152380D01*
X270928571Y-143152380D01*
X270833333Y-143104761D01*
X270785714Y-143057142D01*
X270738095Y-142961904D01*
X270738095Y-142866666D01*
X270785714Y-142771428D01*
X270833333Y-142723809D01*
X270928571Y-142676190D01*
X271119047Y-142628571D01*
X271214285Y-142580952D01*
X271261904Y-142533333D01*
X271309523Y-142438095D01*
X271309523Y-142342857D01*
X271261904Y-142247619D01*
X271214285Y-142200000D01*
X271119047Y-142152380D01*
X270880952Y-142152380D01*
X270738095Y-142200000D01*
X270404761Y-142152380D02*
X270166666Y-143152380D01*
X269976190Y-142438095D01*
X269785714Y-143152380D01*
X269547619Y-142152380D01*
X268642857Y-143152380D02*
X269214285Y-143152380D01*
X268928571Y-143152380D02*
X268928571Y-142152380D01*
X269023809Y-142295238D01*
X269119047Y-142390476D01*
X269214285Y-142438095D01*
X267690476Y-143152380D02*
X268261904Y-143152380D01*
X267976190Y-143152380D02*
X267976190Y-142152380D01*
X268071428Y-142295238D01*
X268166666Y-142390476D01*
X268261904Y-142438095D01*
%TO.C,SW63*%
X357034523Y-181204761D02*
X356891666Y-181252380D01*
X356653571Y-181252380D01*
X356558333Y-181204761D01*
X356510714Y-181157142D01*
X356463095Y-181061904D01*
X356463095Y-180966666D01*
X356510714Y-180871428D01*
X356558333Y-180823809D01*
X356653571Y-180776190D01*
X356844047Y-180728571D01*
X356939285Y-180680952D01*
X356986904Y-180633333D01*
X357034523Y-180538095D01*
X357034523Y-180442857D01*
X356986904Y-180347619D01*
X356939285Y-180300000D01*
X356844047Y-180252380D01*
X356605952Y-180252380D01*
X356463095Y-180300000D01*
X356129761Y-180252380D02*
X355891666Y-181252380D01*
X355701190Y-180538095D01*
X355510714Y-181252380D01*
X355272619Y-180252380D01*
X354463095Y-180252380D02*
X354653571Y-180252380D01*
X354748809Y-180300000D01*
X354796428Y-180347619D01*
X354891666Y-180490476D01*
X354939285Y-180680952D01*
X354939285Y-181061904D01*
X354891666Y-181157142D01*
X354844047Y-181204761D01*
X354748809Y-181252380D01*
X354558333Y-181252380D01*
X354463095Y-181204761D01*
X354415476Y-181157142D01*
X354367857Y-181061904D01*
X354367857Y-180823809D01*
X354415476Y-180728571D01*
X354463095Y-180680952D01*
X354558333Y-180633333D01*
X354748809Y-180633333D01*
X354844047Y-180680952D01*
X354891666Y-180728571D01*
X354939285Y-180823809D01*
X354034523Y-180252380D02*
X353415476Y-180252380D01*
X353748809Y-180633333D01*
X353605952Y-180633333D01*
X353510714Y-180680952D01*
X353463095Y-180728571D01*
X353415476Y-180823809D01*
X353415476Y-181061904D01*
X353463095Y-181157142D01*
X353510714Y-181204761D01*
X353605952Y-181252380D01*
X353891666Y-181252380D01*
X353986904Y-181204761D01*
X354034523Y-181157142D01*
%TO.C,SW35*%
X271309523Y-162154761D02*
X271166666Y-162202380D01*
X270928571Y-162202380D01*
X270833333Y-162154761D01*
X270785714Y-162107142D01*
X270738095Y-162011904D01*
X270738095Y-161916666D01*
X270785714Y-161821428D01*
X270833333Y-161773809D01*
X270928571Y-161726190D01*
X271119047Y-161678571D01*
X271214285Y-161630952D01*
X271261904Y-161583333D01*
X271309523Y-161488095D01*
X271309523Y-161392857D01*
X271261904Y-161297619D01*
X271214285Y-161250000D01*
X271119047Y-161202380D01*
X270880952Y-161202380D01*
X270738095Y-161250000D01*
X270404761Y-161202380D02*
X270166666Y-162202380D01*
X269976190Y-161488095D01*
X269785714Y-162202380D01*
X269547619Y-161202380D01*
X269261904Y-161202380D02*
X268642857Y-161202380D01*
X268976190Y-161583333D01*
X268833333Y-161583333D01*
X268738095Y-161630952D01*
X268690476Y-161678571D01*
X268642857Y-161773809D01*
X268642857Y-162011904D01*
X268690476Y-162107142D01*
X268738095Y-162154761D01*
X268833333Y-162202380D01*
X269119047Y-162202380D01*
X269214285Y-162154761D01*
X269261904Y-162107142D01*
X267738095Y-161202380D02*
X268214285Y-161202380D01*
X268261904Y-161678571D01*
X268214285Y-161630952D01*
X268119047Y-161583333D01*
X267880952Y-161583333D01*
X267785714Y-161630952D01*
X267738095Y-161678571D01*
X267690476Y-161773809D01*
X267690476Y-162011904D01*
X267738095Y-162107142D01*
X267785714Y-162154761D01*
X267880952Y-162202380D01*
X268119047Y-162202380D01*
X268214285Y-162154761D01*
X268261904Y-162107142D01*
%TD*%
M02*
