%TF.GenerationSoftware,KiCad,Pcbnew,(6.0.5-0)*%
%TF.CreationDate,2022-06-24T21:01:45-04:00*%
%TF.ProjectId,SpaceCadet-rounded,53706163-6543-4616-9465-742d726f756e,rev?*%
%TF.SameCoordinates,Original*%
%TF.FileFunction,Soldermask,Top*%
%TF.FilePolarity,Negative*%
%FSLAX46Y46*%
G04 Gerber Fmt 4.6, Leading zero omitted, Abs format (unit mm)*
G04 Created by KiCad (PCBNEW (6.0.5-0)) date 2022-06-24 21:01:45*
%MOMM*%
%LPD*%
G01*
G04 APERTURE LIST*
G04 Aperture macros list*
%AMFreePoly0*
4,1,6,1.000000,0.000000,0.500000,-0.750000,-0.500000,-0.750000,-0.500000,0.750000,0.500000,0.750000,1.000000,0.000000,1.000000,0.000000,$1*%
%AMFreePoly1*
4,1,6,0.500000,-0.750000,-0.650000,-0.750000,-0.150000,0.000000,-0.650000,0.750000,0.500000,0.750000,0.500000,-0.750000,0.500000,-0.750000,$1*%
G04 Aperture macros list end*
%TA.AperFunction,Profile*%
%ADD10C,0.100000*%
%TD*%
%ADD11C,2.500000*%
%ADD12O,2.286000X1.300000*%
%ADD13R,1.600000X2.400000*%
%ADD14O,1.600000X2.400000*%
%ADD15C,2.000000*%
%ADD16R,1.700000X1.700000*%
%ADD17O,1.700000X1.700000*%
%ADD18FreePoly0,90.000000*%
%ADD19FreePoly1,90.000000*%
%ADD20FreePoly0,0.000000*%
%ADD21FreePoly1,0.000000*%
%ADD22R,1.000000X1.500000*%
%ADD23FreePoly0,270.000000*%
%ADD24FreePoly1,270.000000*%
G04 APERTURE END LIST*
D10*
X64250000Y-81300000D02*
X533250000Y-81300000D01*
X533250000Y-81300000D02*
X533250000Y-247900000D01*
X533250000Y-247900000D02*
X64250000Y-247900000D01*
X64250000Y-247900000D02*
X64250000Y-81300000D01*
D11*
%TO.C,REF\u002A\u002A*%
X79600000Y-243900000D03*
%TD*%
D12*
%TO.C,SW91*%
X456825000Y-190510000D03*
X456825000Y-193050000D03*
X456825000Y-195590000D03*
%TD*%
D11*
%TO.C,REF\u002A\u002A*%
X384550000Y-123300000D03*
%TD*%
D12*
%TO.C,SW73*%
X94875000Y-190510000D03*
X94875000Y-193050000D03*
X94875000Y-195590000D03*
%TD*%
%TO.C,SW104*%
X252037500Y-209560000D03*
X252037500Y-212100000D03*
X252037500Y-214640000D03*
%TD*%
%TO.C,SW31*%
X190125000Y-152410000D03*
X190125000Y-154950000D03*
X190125000Y-157490000D03*
%TD*%
D11*
%TO.C,REF\u002A\u002A*%
X463750000Y-212000000D03*
%TD*%
D12*
%TO.C,SW7*%
X190125000Y-133360000D03*
X190125000Y-135900000D03*
X190125000Y-138440000D03*
%TD*%
%TO.C,SW112*%
X404437500Y-209560000D03*
X404437500Y-212100000D03*
X404437500Y-214640000D03*
%TD*%
%TO.C,SW113*%
X423487500Y-209560000D03*
X423487500Y-212100000D03*
X423487500Y-214640000D03*
%TD*%
%TO.C,SW127*%
X494925000Y-228610000D03*
X494925000Y-231150000D03*
X494925000Y-233690000D03*
%TD*%
D11*
%TO.C,REF\u002A\u002A*%
X460800000Y-123300000D03*
%TD*%
D13*
%TO.C,U2*%
X371353000Y-117353000D03*
D14*
X373893000Y-117353000D03*
X376433000Y-117353000D03*
X378973000Y-117353000D03*
X381513000Y-117353000D03*
X384053000Y-117353000D03*
X386593000Y-117353000D03*
X389133000Y-117353000D03*
X391673000Y-117353000D03*
X394213000Y-117353000D03*
X396753000Y-117353000D03*
X399293000Y-117353000D03*
X401833000Y-117353000D03*
X404373000Y-117353000D03*
X406913000Y-117353000D03*
X409453000Y-117353000D03*
X411993000Y-117353000D03*
X414533000Y-117353000D03*
X417073000Y-117353000D03*
X419613000Y-117353000D03*
X419613000Y-102113000D03*
X417073000Y-102113000D03*
X414533000Y-102113000D03*
X411993000Y-102113000D03*
X409453000Y-102113000D03*
X406913000Y-102113000D03*
X404373000Y-102113000D03*
X401833000Y-102113000D03*
X399293000Y-102113000D03*
X396753000Y-102113000D03*
X394213000Y-102113000D03*
X391673000Y-102113000D03*
X389133000Y-102113000D03*
X386593000Y-102113000D03*
X384053000Y-102113000D03*
X381513000Y-102113000D03*
X378973000Y-102113000D03*
X376433000Y-102113000D03*
X373893000Y-102113000D03*
X371353000Y-102113000D03*
%TD*%
D12*
%TO.C,SW1*%
X75825000Y-133360000D03*
X75825000Y-135900000D03*
X75825000Y-138440000D03*
%TD*%
D15*
%TO.C,C12*%
X230710000Y-99680000D03*
X230710000Y-110080000D03*
%TD*%
D12*
%TO.C,SW10*%
X247275000Y-133360000D03*
X247275000Y-135900000D03*
X247275000Y-138440000D03*
%TD*%
D15*
%TO.C,C15*%
X529770000Y-111150000D03*
X519370000Y-111150000D03*
%TD*%
D11*
%TO.C,REF\u002A\u002A*%
X168150000Y-174200000D03*
%TD*%
D12*
%TO.C,SW59*%
X275850000Y-171460000D03*
X275850000Y-174000000D03*
X275850000Y-176540000D03*
%TD*%
D16*
%TO.C,J0*%
X481071000Y-96074000D03*
D17*
X481071000Y-93534000D03*
X483611000Y-96074000D03*
X483611000Y-93534000D03*
X486151000Y-96074000D03*
X486151000Y-93534000D03*
X488691000Y-96074000D03*
X488691000Y-93534000D03*
X491231000Y-96074000D03*
X491231000Y-93534000D03*
X493771000Y-96074000D03*
X493771000Y-93534000D03*
X496311000Y-96074000D03*
X496311000Y-93534000D03*
X498851000Y-96074000D03*
X498851000Y-93534000D03*
X501391000Y-96074000D03*
X501391000Y-93534000D03*
X503931000Y-96074000D03*
X503931000Y-93534000D03*
X506471000Y-96074000D03*
X506471000Y-93534000D03*
X509011000Y-96074000D03*
X509011000Y-93534000D03*
X511551000Y-96074000D03*
X511551000Y-93534000D03*
X514091000Y-96074000D03*
X514091000Y-93534000D03*
X516631000Y-96074000D03*
X516631000Y-93534000D03*
X519171000Y-96074000D03*
X519171000Y-93534000D03*
X521711000Y-96074000D03*
X521711000Y-93534000D03*
%TD*%
D12*
%TO.C,SW98*%
X132975000Y-209560000D03*
X132975000Y-212100000D03*
X132975000Y-214640000D03*
%TD*%
%TO.C,SW93*%
X494925000Y-190510000D03*
X494925000Y-193050000D03*
X494925000Y-195590000D03*
%TD*%
D13*
%TO.C,U1*%
X238501000Y-117328000D03*
D14*
X241041000Y-117328000D03*
X243581000Y-117328000D03*
X246121000Y-117328000D03*
X248661000Y-117328000D03*
X251201000Y-117328000D03*
X253741000Y-117328000D03*
X256281000Y-117328000D03*
X258821000Y-117328000D03*
X261361000Y-117328000D03*
X263901000Y-117328000D03*
X266441000Y-117328000D03*
X266441000Y-102088000D03*
X263901000Y-102088000D03*
X261361000Y-102088000D03*
X258821000Y-102088000D03*
X256281000Y-102088000D03*
X253741000Y-102088000D03*
X251201000Y-102088000D03*
X248661000Y-102088000D03*
X246121000Y-102088000D03*
X243581000Y-102088000D03*
X241041000Y-102088000D03*
X238501000Y-102088000D03*
%TD*%
D11*
%TO.C,REF\u002A\u002A*%
X79300000Y-123300000D03*
%TD*%
%TO.C,REF\u002A\u002A*%
X521200000Y-174200000D03*
%TD*%
D12*
%TO.C,SW119*%
X94875000Y-228610000D03*
X94875000Y-231150000D03*
X94875000Y-233690000D03*
%TD*%
%TO.C,SW57*%
X237750000Y-171460000D03*
X237750000Y-174000000D03*
X237750000Y-176540000D03*
%TD*%
%TO.C,SW92*%
X475875000Y-190510000D03*
X475875000Y-193050000D03*
X475875000Y-195590000D03*
%TD*%
%TO.C,SW83*%
X299662500Y-190510000D03*
X299662500Y-193050000D03*
X299662500Y-195590000D03*
%TD*%
D16*
%TO.C,J3_2*%
X324866000Y-97663000D03*
D17*
X327406000Y-97663000D03*
X329946000Y-97663000D03*
X332486000Y-97663000D03*
%TD*%
D12*
%TO.C,SW97*%
X113925000Y-209560000D03*
X113925000Y-212100000D03*
X113925000Y-214640000D03*
%TD*%
%TO.C,SW76*%
X166312500Y-190510000D03*
X166312500Y-193050000D03*
X166312500Y-195590000D03*
%TD*%
D15*
%TO.C,R11*%
X425670000Y-89790000D03*
X413270000Y-89790000D03*
%TD*%
D12*
%TO.C,SW110*%
X366337500Y-209560000D03*
X366337500Y-212100000D03*
X366337500Y-214640000D03*
%TD*%
D11*
%TO.C,REF\u002A\u002A*%
X419150000Y-174200000D03*
%TD*%
D12*
%TO.C,SW128*%
X513975000Y-228610000D03*
X513975000Y-231150000D03*
X513975000Y-233690000D03*
%TD*%
%TO.C,SW55*%
X199650000Y-171460000D03*
X199650000Y-174000000D03*
X199650000Y-176540000D03*
%TD*%
%TO.C,SW5*%
X152025000Y-133360000D03*
X152025000Y-135900000D03*
X152025000Y-138440000D03*
%TD*%
D18*
%TO.C,JP29*%
X112572800Y-98362600D03*
D19*
X112572800Y-96912600D03*
%TD*%
D12*
%TO.C,SW105*%
X271087500Y-209560000D03*
X271087500Y-212100000D03*
X271087500Y-214640000D03*
%TD*%
%TO.C,SW33*%
X228225000Y-152410000D03*
X228225000Y-154950000D03*
X228225000Y-157490000D03*
%TD*%
%TO.C,SW86*%
X356812500Y-190510000D03*
X356812500Y-193050000D03*
X356812500Y-195590000D03*
%TD*%
D11*
%TO.C,REF\u002A\u002A*%
X182750000Y-212000000D03*
%TD*%
D12*
%TO.C,SW61*%
X313950000Y-171460000D03*
X313950000Y-174000000D03*
X313950000Y-176540000D03*
%TD*%
%TO.C,SW8*%
X209175000Y-133360000D03*
X209175000Y-135900000D03*
X209175000Y-138440000D03*
%TD*%
D15*
%TO.C,C16*%
X526130000Y-117010000D03*
X505730000Y-117010000D03*
%TD*%
D12*
%TO.C,SW15*%
X342525000Y-133360000D03*
X342525000Y-135900000D03*
X342525000Y-138440000D03*
%TD*%
D11*
%TO.C,REF\u002A\u002A*%
X463900000Y-174200000D03*
%TD*%
D12*
%TO.C,SW69*%
X475875000Y-171460000D03*
X475875000Y-174000000D03*
X475875000Y-176540000D03*
%TD*%
%TO.C,SW50*%
X94875000Y-171460000D03*
X94875000Y-174000000D03*
X94875000Y-176540000D03*
%TD*%
%TO.C,SW44*%
X437775000Y-152410000D03*
X437775000Y-154950000D03*
X437775000Y-157490000D03*
%TD*%
%TO.C,SW115*%
X475875000Y-209560000D03*
X475875000Y-212100000D03*
X475875000Y-214640000D03*
%TD*%
%TO.C,SW16*%
X361575000Y-133360000D03*
X361575000Y-135900000D03*
X361575000Y-138440000D03*
%TD*%
D11*
%TO.C,REF\u002A\u002A*%
X82650000Y-174200000D03*
%TD*%
D15*
%TO.C,R7*%
X395230000Y-95780000D03*
X382830000Y-95780000D03*
%TD*%
D12*
%TO.C,SW19*%
X418725000Y-133360000D03*
X418725000Y-135900000D03*
X418725000Y-138440000D03*
%TD*%
%TO.C,SW120*%
X113925000Y-228610000D03*
X113925000Y-231150000D03*
X113925000Y-233690000D03*
%TD*%
D11*
%TO.C,REF\u002A\u002A*%
X517800000Y-123300000D03*
%TD*%
D12*
%TO.C,SW49*%
X75825000Y-171460000D03*
X75825000Y-174000000D03*
X75825000Y-176540000D03*
%TD*%
%TO.C,SW70*%
X494925000Y-171460000D03*
X494925000Y-174000000D03*
X494925000Y-176540000D03*
%TD*%
D15*
%TO.C,R5*%
X343870000Y-96020000D03*
X343870000Y-108420000D03*
%TD*%
%TO.C,C13*%
X306830000Y-114760000D03*
X296430000Y-114760000D03*
%TD*%
D12*
%TO.C,SW28*%
X132975000Y-152410000D03*
X132975000Y-154950000D03*
X132975000Y-157490000D03*
%TD*%
D18*
%TO.C,JP30*%
X119888000Y-98362600D03*
D19*
X119888000Y-96912600D03*
%TD*%
D12*
%TO.C,SW54*%
X180600000Y-171460000D03*
X180600000Y-174000000D03*
X180600000Y-176540000D03*
%TD*%
%TO.C,SW67*%
X428250000Y-171460000D03*
X428250000Y-174000000D03*
X428250000Y-176540000D03*
%TD*%
D20*
%TO.C,JP19*%
X367396600Y-120434000D03*
D21*
X368846600Y-120434000D03*
%TD*%
D12*
%TO.C,SW56*%
X218700000Y-171460000D03*
X218700000Y-174000000D03*
X218700000Y-176540000D03*
%TD*%
%TO.C,SW89*%
X413962500Y-190510000D03*
X413962500Y-193050000D03*
X413962500Y-195590000D03*
%TD*%
%TO.C,SW48*%
X513975000Y-152410000D03*
X513975000Y-154950000D03*
X513975000Y-157490000D03*
%TD*%
%TO.C,SW122*%
X175837500Y-228610000D03*
X175837500Y-231150000D03*
X175837500Y-233690000D03*
%TD*%
%TO.C,SW84*%
X318712500Y-190510000D03*
X318712500Y-193050000D03*
X318712500Y-195590000D03*
%TD*%
D22*
%TO.C,JP22*%
X445346600Y-103734000D03*
X446646600Y-103734000D03*
%TD*%
D12*
%TO.C,SW123*%
X280612500Y-228610000D03*
X280612500Y-231150000D03*
X280612500Y-233690000D03*
%TD*%
%TO.C,SW62*%
X333000000Y-171460000D03*
X333000000Y-174000000D03*
X333000000Y-176540000D03*
%TD*%
%TO.C,SW100*%
X175837500Y-209560000D03*
X175837500Y-212100000D03*
X175837500Y-214640000D03*
%TD*%
%TO.C,SW22*%
X475875000Y-133360000D03*
X475875000Y-135900000D03*
X475875000Y-138440000D03*
%TD*%
%TO.C,SW116*%
X494925000Y-209560000D03*
X494925000Y-212100000D03*
X494925000Y-214640000D03*
%TD*%
%TO.C,SW32*%
X209175000Y-152410000D03*
X209175000Y-154950000D03*
X209175000Y-157490000D03*
%TD*%
%TO.C,SW51*%
X113925000Y-171460000D03*
X113925000Y-174000000D03*
X113925000Y-176540000D03*
%TD*%
D15*
%TO.C,R9*%
X425670000Y-94880000D03*
X413270000Y-94880000D03*
%TD*%
D22*
%TO.C,JP20*%
X445346600Y-110759000D03*
X446646600Y-110759000D03*
%TD*%
D12*
%TO.C,SW24*%
X513975000Y-133360000D03*
X513975000Y-135900000D03*
X513975000Y-138440000D03*
%TD*%
%TO.C,SW14*%
X323475034Y-133360008D03*
X323475034Y-135900008D03*
X323475034Y-138440008D03*
%TD*%
%TO.C,SW40*%
X361575000Y-152410000D03*
X361575000Y-154950000D03*
X361575000Y-157490000D03*
%TD*%
%TO.C,SW64*%
X371100000Y-171460000D03*
X371100000Y-174000000D03*
X371100000Y-176540000D03*
%TD*%
%TO.C,SW95*%
X75825000Y-209560000D03*
X75825000Y-212100000D03*
X75825000Y-214640000D03*
%TD*%
%TO.C,SW82*%
X280612500Y-190510000D03*
X280612500Y-193050000D03*
X280612500Y-195590000D03*
%TD*%
%TO.C,SW17*%
X380625000Y-133360000D03*
X380625000Y-135900000D03*
X380625000Y-138440000D03*
%TD*%
D11*
%TO.C,REF\u002A\u002A*%
X70800000Y-242100000D03*
%TD*%
D12*
%TO.C,SW87*%
X375862500Y-190510000D03*
X375862500Y-193050000D03*
X375862500Y-195590000D03*
%TD*%
D18*
%TO.C,JP26*%
X82042000Y-95859600D03*
D19*
X82042000Y-94409600D03*
%TD*%
D11*
%TO.C,REF\u002A\u002A*%
X155900000Y-243900000D03*
%TD*%
D12*
%TO.C,SW99*%
X156787500Y-209560000D03*
X156787500Y-212100000D03*
X156787500Y-214640000D03*
%TD*%
D15*
%TO.C,R8*%
X396240000Y-97960000D03*
X408640000Y-97960000D03*
%TD*%
D12*
%TO.C,SW124*%
X366337500Y-228610000D03*
X366337500Y-231150000D03*
X366337500Y-233690000D03*
%TD*%
%TO.C,SW88*%
X394912500Y-190510000D03*
X394912500Y-193050000D03*
X394912500Y-195590000D03*
%TD*%
D15*
%TO.C,R4*%
X340590000Y-96020000D03*
X340590000Y-108420000D03*
%TD*%
D12*
%TO.C,SW90*%
X433012500Y-190510000D03*
X433012500Y-193050000D03*
X433012500Y-195590000D03*
%TD*%
D11*
%TO.C,REF\u002A\u002A*%
X425700000Y-135650000D03*
%TD*%
D15*
%TO.C,R6*%
X390040000Y-97950000D03*
X377640000Y-97950000D03*
%TD*%
D11*
%TO.C,REF\u002A\u002A*%
X308500000Y-243900000D03*
%TD*%
%TO.C,REF\u002A\u002A*%
X518100000Y-243400000D03*
%TD*%
D12*
%TO.C,SW107*%
X309187500Y-209560000D03*
X309187500Y-212100000D03*
X309187500Y-214640000D03*
%TD*%
D15*
%TO.C,Y3*%
X296600000Y-111550000D03*
X307000000Y-111550000D03*
%TD*%
D12*
%TO.C,SW101*%
X194887500Y-209560000D03*
X194887500Y-212100000D03*
X194887500Y-214640000D03*
%TD*%
%TO.C,SW46*%
X475875000Y-152410000D03*
X475875000Y-154950000D03*
X475875000Y-157490000D03*
%TD*%
%TO.C,SW109*%
X347287500Y-209560000D03*
X347287500Y-212100000D03*
X347287500Y-214640000D03*
%TD*%
%TO.C,SW66*%
X409200000Y-171460000D03*
X409200000Y-174000000D03*
X409200000Y-176540000D03*
%TD*%
%TO.C,SW79*%
X223462500Y-190510000D03*
X223462500Y-193050000D03*
X223462500Y-195590000D03*
%TD*%
%TO.C,SW102*%
X213937500Y-209560000D03*
X213937500Y-212100000D03*
X213937500Y-214640000D03*
%TD*%
%TO.C,SW85*%
X337762500Y-190510000D03*
X337762500Y-193050000D03*
X337762500Y-195590000D03*
%TD*%
%TO.C,SW121*%
X132975000Y-228610000D03*
X132975000Y-231150000D03*
X132975000Y-233690000D03*
%TD*%
%TO.C,SW52*%
X132975000Y-171460000D03*
X132975000Y-174000000D03*
X132975000Y-176540000D03*
%TD*%
%TO.C,SW23*%
X494925000Y-133360000D03*
X494925000Y-135900000D03*
X494925000Y-138440000D03*
%TD*%
%TO.C,SW21*%
X456825000Y-133360000D03*
X456825000Y-135900000D03*
X456825000Y-138440000D03*
%TD*%
D11*
%TO.C,REF\u002A\u002A*%
X526050000Y-242100000D03*
%TD*%
D12*
%TO.C,SW68*%
X456825000Y-171460000D03*
X456825000Y-174000000D03*
X456825000Y-176540000D03*
%TD*%
D11*
%TO.C,REF\u002A\u002A*%
X402250000Y-193250000D03*
%TD*%
D16*
%TO.C,J3_1*%
X313573000Y-97663000D03*
D17*
X316113000Y-97663000D03*
X318653000Y-97663000D03*
X321193000Y-97663000D03*
%TD*%
D12*
%TO.C,SW12*%
X285375000Y-133360000D03*
X285375000Y-135900000D03*
X285375000Y-138440000D03*
%TD*%
%TO.C,SW96*%
X94875000Y-209560000D03*
X94875000Y-212100000D03*
X94875000Y-214640000D03*
%TD*%
D11*
%TO.C,REF\u002A\u002A*%
X232375000Y-122250000D03*
%TD*%
D12*
%TO.C,SW34*%
X247275000Y-152410000D03*
X247275000Y-154950000D03*
X247275000Y-157490000D03*
%TD*%
%TO.C,SW42*%
X399675000Y-152410000D03*
X399675000Y-154950000D03*
X399675000Y-157490000D03*
%TD*%
%TO.C,SW80*%
X242512500Y-190510000D03*
X242512500Y-193050000D03*
X242512500Y-195590000D03*
%TD*%
D18*
%TO.C,JP28*%
X98196400Y-98362600D03*
D19*
X98196400Y-96912600D03*
%TD*%
D12*
%TO.C,SW6*%
X171075000Y-133360000D03*
X171075000Y-135900000D03*
X171075000Y-138440000D03*
%TD*%
%TO.C,SW118*%
X75825000Y-228610000D03*
X75825000Y-231150000D03*
X75825000Y-233690000D03*
%TD*%
%TO.C,SW74*%
X113925000Y-190510000D03*
X113925000Y-193050000D03*
X113925000Y-195590000D03*
%TD*%
%TO.C,SW4*%
X132975000Y-133360000D03*
X132975000Y-135900000D03*
X132975000Y-138440000D03*
%TD*%
%TO.C,SW45*%
X456825000Y-152410000D03*
X456825000Y-154950000D03*
X456825000Y-157490000D03*
%TD*%
%TO.C,SW43*%
X418725000Y-152410000D03*
X418725000Y-154950000D03*
X418725000Y-157490000D03*
%TD*%
D11*
%TO.C,REF\u002A\u002A*%
X320650000Y-174200000D03*
%TD*%
%TO.C,REF\u002A\u002A*%
X232200000Y-243900000D03*
%TD*%
%TO.C,REF\u002A\u002A*%
X384800000Y-243900000D03*
%TD*%
D22*
%TO.C,JP21*%
X445346600Y-107175000D03*
X446646600Y-107175000D03*
%TD*%
D12*
%TO.C,SW103*%
X232987500Y-209560000D03*
X232987500Y-212100000D03*
X232987500Y-214640000D03*
%TD*%
%TO.C,SW20*%
X437775000Y-133360000D03*
X437775000Y-135900000D03*
X437775000Y-138440000D03*
%TD*%
D11*
%TO.C,REF\u002A\u002A*%
X155612500Y-123300000D03*
%TD*%
%TO.C,REF\u002A\u002A*%
X397200000Y-174200000D03*
%TD*%
D12*
%TO.C,SW13*%
X304425000Y-133360000D03*
X304425000Y-135900000D03*
X304425000Y-138440000D03*
%TD*%
%TO.C,SW30*%
X171075000Y-152410000D03*
X171075000Y-154950000D03*
X171075000Y-157490000D03*
%TD*%
%TO.C,SW58*%
X256800000Y-171460000D03*
X256800000Y-174000000D03*
X256800000Y-176540000D03*
%TD*%
D11*
%TO.C,REF\u002A\u002A*%
X123400000Y-174200000D03*
%TD*%
D12*
%TO.C,SW78*%
X204412500Y-190510000D03*
X204412500Y-193050000D03*
X204412500Y-195590000D03*
%TD*%
%TO.C,SW123a0*%
X347287500Y-228610000D03*
X347287500Y-231150000D03*
X347287500Y-233690000D03*
%TD*%
%TO.C,SW125*%
X456825000Y-228610000D03*
X456825000Y-231150000D03*
X456825000Y-233690000D03*
%TD*%
%TO.C,SW37*%
X304425000Y-152410000D03*
X304425000Y-154950000D03*
X304425000Y-157490000D03*
%TD*%
%TO.C,SW122a0*%
X194887500Y-228610000D03*
X194887500Y-231150000D03*
X194887500Y-233690000D03*
%TD*%
D11*
%TO.C,REF\u002A\u002A*%
X173000000Y-193500000D03*
%TD*%
D12*
%TO.C,SW81*%
X261562500Y-190510000D03*
X261562500Y-193050000D03*
X261562500Y-195590000D03*
%TD*%
%TO.C,SW39*%
X342525000Y-152410000D03*
X342525000Y-154950000D03*
X342525000Y-157490000D03*
%TD*%
%TO.C,SW72*%
X75825000Y-190510000D03*
X75825000Y-193050000D03*
X75825000Y-195590000D03*
%TD*%
D15*
%TO.C,C17*%
X503770000Y-111590000D03*
X515770000Y-111590000D03*
%TD*%
%TO.C,C14*%
X306830000Y-117910000D03*
X296430000Y-117910000D03*
%TD*%
D18*
%TO.C,JP31*%
X125222000Y-98362600D03*
D19*
X125222000Y-96912600D03*
%TD*%
D15*
%TO.C,R10*%
X428210000Y-92400000D03*
X415810000Y-92400000D03*
%TD*%
D12*
%TO.C,SW3*%
X113925000Y-133360000D03*
X113925000Y-135900000D03*
X113925000Y-138440000D03*
%TD*%
%TO.C,SW27*%
X113925000Y-152410000D03*
X113925000Y-154950000D03*
X113925000Y-157490000D03*
%TD*%
%TO.C,SW94*%
X513975000Y-190510000D03*
X513975000Y-193050000D03*
X513975000Y-195590000D03*
%TD*%
%TO.C,SW117*%
X513975000Y-209560000D03*
X513975000Y-212100000D03*
X513975000Y-214640000D03*
%TD*%
%TO.C,SW26*%
X94875000Y-152410000D03*
X94875000Y-154950000D03*
X94875000Y-157490000D03*
%TD*%
%TO.C,SW18*%
X399675000Y-133360000D03*
X399675000Y-135900000D03*
X399675000Y-138440000D03*
%TD*%
D18*
%TO.C,JP27*%
X95148400Y-98362600D03*
D19*
X95148400Y-96912600D03*
%TD*%
D12*
%TO.C,SW53*%
X161550000Y-171460000D03*
X161550000Y-174000000D03*
X161550000Y-176540000D03*
%TD*%
%TO.C,SW124a0*%
X385387500Y-228610000D03*
X385387500Y-231150000D03*
X385387500Y-233690000D03*
%TD*%
D11*
%TO.C,REF\u002A\u002A*%
X392500000Y-212000000D03*
%TD*%
D12*
%TO.C,SW60*%
X294900000Y-171460000D03*
X294900000Y-174000000D03*
X294900000Y-176540000D03*
%TD*%
%TO.C,SW29*%
X152025000Y-152410000D03*
X152025000Y-154950000D03*
X152025000Y-157490000D03*
%TD*%
%TO.C,SW126*%
X475875000Y-228610000D03*
X475875000Y-231150000D03*
X475875000Y-233690000D03*
%TD*%
%TO.C,SW71*%
X513975000Y-171460000D03*
X513975000Y-174000000D03*
X513975000Y-176540000D03*
%TD*%
%TO.C,SW111*%
X385387500Y-209560000D03*
X385387500Y-212100000D03*
X385387500Y-214640000D03*
%TD*%
%TO.C,SW9*%
X228225000Y-133360000D03*
X228225000Y-135900000D03*
X228225000Y-138440000D03*
%TD*%
%TO.C,SW2*%
X94875000Y-133360000D03*
X94875000Y-135900000D03*
X94875000Y-138440000D03*
%TD*%
%TO.C,SW77*%
X185362500Y-190510000D03*
X185362500Y-193050000D03*
X185362500Y-195590000D03*
%TD*%
%TO.C,SW36*%
X285375000Y-152410000D03*
X285375000Y-154950000D03*
X285375000Y-157490000D03*
%TD*%
%TO.C,SW75*%
X132975000Y-190510000D03*
X132975000Y-193050000D03*
X132975000Y-195590000D03*
%TD*%
D11*
%TO.C,REF\u002A\u002A*%
X182750000Y-232000000D03*
%TD*%
%TO.C,REF\u002A\u002A*%
X461100000Y-243900000D03*
%TD*%
%TO.C,REF\u002A\u002A*%
X425700000Y-155400000D03*
%TD*%
D12*
%TO.C,SW47*%
X494925000Y-152410000D03*
X494925000Y-154950000D03*
X494925000Y-157490000D03*
%TD*%
%TO.C,SW25*%
X75825000Y-152410000D03*
X75825000Y-154950000D03*
X75825000Y-157490000D03*
%TD*%
D20*
%TO.C,JP23*%
X475350000Y-124625000D03*
D21*
X476800000Y-124625000D03*
%TD*%
D18*
%TO.C,JP25*%
X75742800Y-95859600D03*
D19*
X75742800Y-94409600D03*
%TD*%
D12*
%TO.C,SW38*%
X323475000Y-152410000D03*
X323475000Y-154950000D03*
X323475000Y-157490000D03*
%TD*%
D18*
%TO.C,JP32*%
X134670800Y-98362600D03*
D19*
X134670800Y-96912600D03*
%TD*%
D23*
%TO.C,JP18*%
X347925000Y-110625000D03*
D24*
X347925000Y-112075000D03*
%TD*%
D11*
%TO.C,REF\u002A\u002A*%
X392500000Y-231750000D03*
%TD*%
D12*
%TO.C,SW108*%
X328237500Y-209560000D03*
X328237500Y-212100000D03*
X328237500Y-214640000D03*
%TD*%
%TO.C,SW65*%
X390150000Y-171460000D03*
X390150000Y-174000000D03*
X390150000Y-176540000D03*
%TD*%
%TO.C,SW41*%
X380625000Y-152410000D03*
X380625000Y-154950000D03*
X380625000Y-157490000D03*
%TD*%
D11*
%TO.C,REF\u002A\u002A*%
X244400000Y-174200000D03*
%TD*%
D12*
%TO.C,SW114*%
X456825000Y-209560000D03*
X456825000Y-212100000D03*
X456825000Y-214640000D03*
%TD*%
D11*
%TO.C,REF\u002A\u002A*%
X308237500Y-123300000D03*
%TD*%
D12*
%TO.C,SW106*%
X290137500Y-209560000D03*
X290137500Y-212100000D03*
X290137500Y-214640000D03*
%TD*%
D22*
%TO.C,JP24*%
X475425000Y-121250000D03*
X476725000Y-121250000D03*
%TD*%
D12*
%TO.C,SW11*%
X266325000Y-133360000D03*
X266325000Y-135900000D03*
X266325000Y-138440000D03*
%TD*%
%TO.C,SW63*%
X352050000Y-171460000D03*
X352050000Y-174000000D03*
X352050000Y-176540000D03*
%TD*%
%TO.C,SW35*%
X266325000Y-152410000D03*
X266325000Y-154950000D03*
X266325000Y-157490000D03*
%TD*%
M02*
